G04 EAGLE Gerber RS-274X export*
G75*
%MOMM*%
%FSLAX34Y34*%
%LPD*%
%INSilkscreen Bottom*%
%IPPOS*%
%AMOC8*
5,1,8,0,0,1.08239X$1,22.5*%
G01*
%ADD10C,0.076200*%
%ADD11C,0.177800*%


D10*
X371381Y37558D02*
X371381Y35469D01*
X371383Y35380D01*
X371389Y35292D01*
X371398Y35204D01*
X371411Y35116D01*
X371428Y35029D01*
X371448Y34943D01*
X371473Y34858D01*
X371500Y34773D01*
X371532Y34690D01*
X371566Y34609D01*
X371605Y34529D01*
X371646Y34451D01*
X371691Y34374D01*
X371739Y34300D01*
X371790Y34227D01*
X371844Y34157D01*
X371902Y34090D01*
X371962Y34024D01*
X372024Y33962D01*
X372090Y33902D01*
X372157Y33844D01*
X372227Y33790D01*
X372300Y33739D01*
X372374Y33691D01*
X372451Y33646D01*
X372529Y33605D01*
X372609Y33566D01*
X372690Y33532D01*
X372773Y33500D01*
X372858Y33473D01*
X372943Y33448D01*
X373029Y33428D01*
X373116Y33411D01*
X373204Y33398D01*
X373292Y33389D01*
X373380Y33383D01*
X373469Y33381D01*
X378691Y33381D01*
X378782Y33383D01*
X378873Y33389D01*
X378964Y33399D01*
X379054Y33413D01*
X379143Y33430D01*
X379231Y33452D01*
X379319Y33478D01*
X379405Y33507D01*
X379490Y33540D01*
X379573Y33577D01*
X379655Y33617D01*
X379735Y33661D01*
X379813Y33708D01*
X379889Y33759D01*
X379962Y33812D01*
X380033Y33869D01*
X380102Y33930D01*
X380167Y33993D01*
X380230Y34058D01*
X380290Y34127D01*
X380348Y34198D01*
X380401Y34271D01*
X380452Y34347D01*
X380499Y34425D01*
X380543Y34505D01*
X380583Y34587D01*
X380620Y34670D01*
X380653Y34755D01*
X380682Y34841D01*
X380708Y34929D01*
X380730Y35017D01*
X380747Y35106D01*
X380761Y35196D01*
X380771Y35287D01*
X380777Y35378D01*
X380779Y35469D01*
X380779Y37558D01*
X380779Y41332D02*
X373992Y41332D01*
X373992Y41331D02*
X373891Y41333D01*
X373790Y41339D01*
X373689Y41349D01*
X373589Y41362D01*
X373489Y41380D01*
X373390Y41401D01*
X373292Y41427D01*
X373195Y41456D01*
X373099Y41488D01*
X373005Y41525D01*
X372912Y41565D01*
X372820Y41609D01*
X372731Y41656D01*
X372643Y41707D01*
X372557Y41761D01*
X372474Y41818D01*
X372392Y41878D01*
X372314Y41942D01*
X372237Y42008D01*
X372164Y42078D01*
X372093Y42150D01*
X372025Y42225D01*
X371960Y42303D01*
X371898Y42383D01*
X371839Y42465D01*
X371783Y42550D01*
X371731Y42637D01*
X371682Y42725D01*
X371636Y42816D01*
X371595Y42908D01*
X371556Y43002D01*
X371522Y43097D01*
X371491Y43193D01*
X371464Y43291D01*
X371440Y43389D01*
X371421Y43489D01*
X371405Y43589D01*
X371393Y43689D01*
X371385Y43790D01*
X371381Y43891D01*
X371381Y43993D01*
X371385Y44094D01*
X371393Y44195D01*
X371405Y44295D01*
X371421Y44395D01*
X371440Y44495D01*
X371464Y44593D01*
X371491Y44691D01*
X371522Y44787D01*
X371556Y44882D01*
X371595Y44976D01*
X371636Y45068D01*
X371682Y45159D01*
X371731Y45248D01*
X371783Y45334D01*
X371839Y45419D01*
X371898Y45501D01*
X371960Y45581D01*
X372025Y45659D01*
X372093Y45734D01*
X372164Y45806D01*
X372237Y45876D01*
X372314Y45942D01*
X372392Y46006D01*
X372474Y46066D01*
X372557Y46123D01*
X372643Y46177D01*
X372731Y46228D01*
X372820Y46275D01*
X372912Y46319D01*
X373005Y46359D01*
X373099Y46396D01*
X373195Y46428D01*
X373292Y46457D01*
X373390Y46483D01*
X373489Y46504D01*
X373589Y46522D01*
X373689Y46535D01*
X373790Y46545D01*
X373891Y46551D01*
X373992Y46553D01*
X380779Y46553D01*
X380779Y52781D02*
X371381Y52781D01*
X380779Y50171D02*
X380779Y55392D01*
X380779Y59010D02*
X371381Y59010D01*
X380779Y59010D02*
X380779Y61620D01*
X380777Y61720D01*
X380771Y61820D01*
X380762Y61919D01*
X380748Y62019D01*
X380731Y62117D01*
X380710Y62215D01*
X380686Y62312D01*
X380657Y62408D01*
X380625Y62503D01*
X380590Y62596D01*
X380551Y62688D01*
X380508Y62779D01*
X380462Y62867D01*
X380412Y62954D01*
X380360Y63039D01*
X380304Y63122D01*
X380245Y63203D01*
X380182Y63281D01*
X380117Y63357D01*
X380049Y63431D01*
X379979Y63501D01*
X379905Y63569D01*
X379829Y63634D01*
X379751Y63697D01*
X379670Y63756D01*
X379587Y63812D01*
X379502Y63864D01*
X379415Y63914D01*
X379327Y63960D01*
X379236Y64003D01*
X379144Y64042D01*
X379051Y64077D01*
X378956Y64109D01*
X378860Y64138D01*
X378763Y64162D01*
X378665Y64183D01*
X378567Y64200D01*
X378467Y64214D01*
X378368Y64223D01*
X378268Y64229D01*
X378168Y64231D01*
X373992Y64231D01*
X373892Y64229D01*
X373792Y64223D01*
X373693Y64214D01*
X373593Y64200D01*
X373495Y64183D01*
X373397Y64162D01*
X373300Y64138D01*
X373204Y64109D01*
X373109Y64077D01*
X373016Y64042D01*
X372924Y64003D01*
X372833Y63960D01*
X372745Y63914D01*
X372658Y63864D01*
X372573Y63812D01*
X372490Y63756D01*
X372409Y63697D01*
X372331Y63634D01*
X372255Y63569D01*
X372181Y63501D01*
X372111Y63431D01*
X372043Y63357D01*
X371978Y63281D01*
X371915Y63203D01*
X371856Y63122D01*
X371800Y63039D01*
X371748Y62954D01*
X371698Y62867D01*
X371652Y62779D01*
X371609Y62688D01*
X371570Y62596D01*
X371535Y62503D01*
X371503Y62408D01*
X371474Y62312D01*
X371450Y62215D01*
X371429Y62117D01*
X371412Y62019D01*
X371398Y61919D01*
X371389Y61820D01*
X371383Y61720D01*
X371381Y61620D01*
X371381Y59010D01*
X373992Y68459D02*
X378168Y68459D01*
X378168Y68458D02*
X378269Y68460D01*
X378370Y68466D01*
X378471Y68476D01*
X378571Y68489D01*
X378671Y68507D01*
X378770Y68528D01*
X378868Y68554D01*
X378965Y68583D01*
X379061Y68615D01*
X379155Y68652D01*
X379248Y68692D01*
X379340Y68736D01*
X379429Y68783D01*
X379517Y68834D01*
X379603Y68888D01*
X379686Y68945D01*
X379768Y69005D01*
X379846Y69069D01*
X379923Y69135D01*
X379996Y69205D01*
X380067Y69277D01*
X380135Y69352D01*
X380200Y69430D01*
X380262Y69510D01*
X380321Y69592D01*
X380377Y69677D01*
X380429Y69763D01*
X380478Y69852D01*
X380524Y69943D01*
X380565Y70035D01*
X380604Y70129D01*
X380638Y70224D01*
X380669Y70320D01*
X380696Y70418D01*
X380720Y70516D01*
X380739Y70616D01*
X380755Y70716D01*
X380767Y70816D01*
X380775Y70917D01*
X380779Y71018D01*
X380779Y71120D01*
X380775Y71221D01*
X380767Y71322D01*
X380755Y71422D01*
X380739Y71522D01*
X380720Y71622D01*
X380696Y71720D01*
X380669Y71818D01*
X380638Y71914D01*
X380604Y72009D01*
X380565Y72103D01*
X380524Y72195D01*
X380478Y72286D01*
X380429Y72374D01*
X380377Y72461D01*
X380321Y72546D01*
X380262Y72628D01*
X380200Y72708D01*
X380135Y72786D01*
X380067Y72861D01*
X379996Y72933D01*
X379923Y73003D01*
X379846Y73069D01*
X379768Y73133D01*
X379686Y73193D01*
X379603Y73250D01*
X379517Y73304D01*
X379429Y73355D01*
X379340Y73402D01*
X379248Y73446D01*
X379155Y73486D01*
X379061Y73523D01*
X378965Y73555D01*
X378868Y73584D01*
X378770Y73610D01*
X378671Y73631D01*
X378571Y73649D01*
X378471Y73662D01*
X378370Y73672D01*
X378269Y73678D01*
X378168Y73680D01*
X373992Y73680D01*
X373891Y73678D01*
X373790Y73672D01*
X373689Y73662D01*
X373589Y73649D01*
X373489Y73631D01*
X373390Y73610D01*
X373292Y73584D01*
X373195Y73555D01*
X373099Y73523D01*
X373005Y73486D01*
X372912Y73446D01*
X372820Y73402D01*
X372731Y73355D01*
X372643Y73304D01*
X372557Y73250D01*
X372474Y73193D01*
X372392Y73133D01*
X372314Y73069D01*
X372237Y73003D01*
X372164Y72933D01*
X372093Y72861D01*
X372025Y72786D01*
X371960Y72708D01*
X371898Y72628D01*
X371839Y72546D01*
X371783Y72461D01*
X371731Y72375D01*
X371682Y72286D01*
X371636Y72195D01*
X371595Y72103D01*
X371556Y72009D01*
X371522Y71914D01*
X371491Y71818D01*
X371464Y71720D01*
X371440Y71622D01*
X371421Y71522D01*
X371405Y71422D01*
X371393Y71322D01*
X371385Y71221D01*
X371381Y71120D01*
X371381Y71018D01*
X371385Y70917D01*
X371393Y70816D01*
X371405Y70716D01*
X371421Y70616D01*
X371440Y70516D01*
X371464Y70418D01*
X371491Y70320D01*
X371522Y70224D01*
X371556Y70129D01*
X371595Y70035D01*
X371636Y69943D01*
X371682Y69852D01*
X371731Y69764D01*
X371783Y69677D01*
X371839Y69592D01*
X371898Y69510D01*
X371960Y69430D01*
X372025Y69352D01*
X372093Y69277D01*
X372164Y69205D01*
X372237Y69135D01*
X372314Y69069D01*
X372392Y69005D01*
X372474Y68945D01*
X372557Y68888D01*
X372643Y68834D01*
X372731Y68783D01*
X372820Y68736D01*
X372912Y68692D01*
X373005Y68652D01*
X373099Y68615D01*
X373195Y68583D01*
X373292Y68554D01*
X373390Y68528D01*
X373489Y68507D01*
X373589Y68489D01*
X373689Y68476D01*
X373790Y68466D01*
X373891Y68460D01*
X373992Y68458D01*
X380779Y77256D02*
X371381Y79344D01*
X377646Y81432D01*
X371381Y83521D01*
X380779Y85609D01*
X380779Y89490D02*
X371381Y89490D01*
X371381Y94711D02*
X380779Y89490D01*
X380779Y94711D02*
X371381Y94711D01*
X371381Y103293D02*
X380779Y106426D01*
X371381Y109559D01*
X373731Y108775D02*
X373731Y104076D01*
X371381Y115787D02*
X371383Y115876D01*
X371389Y115964D01*
X371398Y116052D01*
X371411Y116140D01*
X371428Y116227D01*
X371448Y116313D01*
X371473Y116398D01*
X371500Y116483D01*
X371532Y116566D01*
X371566Y116647D01*
X371605Y116727D01*
X371646Y116805D01*
X371691Y116882D01*
X371739Y116956D01*
X371790Y117029D01*
X371844Y117099D01*
X371902Y117166D01*
X371962Y117232D01*
X372024Y117294D01*
X372090Y117354D01*
X372157Y117412D01*
X372227Y117466D01*
X372300Y117517D01*
X372374Y117565D01*
X372451Y117610D01*
X372529Y117651D01*
X372609Y117690D01*
X372690Y117724D01*
X372773Y117756D01*
X372858Y117783D01*
X372943Y117808D01*
X373029Y117828D01*
X373116Y117845D01*
X373204Y117858D01*
X373292Y117867D01*
X373380Y117873D01*
X373469Y117875D01*
X371381Y115787D02*
X371383Y115658D01*
X371389Y115529D01*
X371398Y115400D01*
X371411Y115272D01*
X371428Y115144D01*
X371449Y115017D01*
X371473Y114890D01*
X371501Y114764D01*
X371533Y114639D01*
X371568Y114515D01*
X371607Y114392D01*
X371650Y114270D01*
X371696Y114150D01*
X371746Y114031D01*
X371799Y113913D01*
X371855Y113797D01*
X371915Y113683D01*
X371978Y113570D01*
X372045Y113460D01*
X372114Y113351D01*
X372187Y113245D01*
X372263Y113140D01*
X372342Y113038D01*
X372424Y112939D01*
X372508Y112841D01*
X372596Y112746D01*
X372686Y112654D01*
X378691Y112916D02*
X378780Y112918D01*
X378868Y112924D01*
X378956Y112933D01*
X379044Y112946D01*
X379131Y112963D01*
X379217Y112983D01*
X379302Y113008D01*
X379387Y113035D01*
X379470Y113067D01*
X379551Y113101D01*
X379631Y113140D01*
X379709Y113181D01*
X379786Y113226D01*
X379860Y113274D01*
X379933Y113325D01*
X380003Y113379D01*
X380070Y113437D01*
X380136Y113497D01*
X380198Y113559D01*
X380258Y113625D01*
X380316Y113692D01*
X380370Y113762D01*
X380421Y113835D01*
X380469Y113909D01*
X380514Y113986D01*
X380555Y114064D01*
X380594Y114144D01*
X380628Y114225D01*
X380660Y114308D01*
X380687Y114393D01*
X380712Y114478D01*
X380732Y114564D01*
X380749Y114651D01*
X380762Y114739D01*
X380771Y114827D01*
X380777Y114915D01*
X380779Y115004D01*
X380777Y115124D01*
X380772Y115244D01*
X380762Y115364D01*
X380750Y115483D01*
X380733Y115602D01*
X380713Y115720D01*
X380689Y115838D01*
X380662Y115954D01*
X380631Y116070D01*
X380597Y116185D01*
X380559Y116299D01*
X380517Y116412D01*
X380472Y116523D01*
X380424Y116633D01*
X380373Y116741D01*
X380318Y116848D01*
X380260Y116953D01*
X380198Y117056D01*
X380134Y117157D01*
X380066Y117257D01*
X379996Y117354D01*
X376864Y113960D02*
X376912Y113882D01*
X376964Y113806D01*
X377018Y113733D01*
X377076Y113662D01*
X377137Y113593D01*
X377201Y113527D01*
X377268Y113464D01*
X377337Y113404D01*
X377409Y113347D01*
X377483Y113293D01*
X377560Y113243D01*
X377639Y113195D01*
X377719Y113152D01*
X377802Y113111D01*
X377886Y113075D01*
X377971Y113042D01*
X378058Y113013D01*
X378147Y112987D01*
X378236Y112965D01*
X378326Y112948D01*
X378416Y112934D01*
X378508Y112924D01*
X378599Y112918D01*
X378691Y112916D01*
X375296Y116832D02*
X375248Y116910D01*
X375196Y116986D01*
X375142Y117059D01*
X375084Y117130D01*
X375023Y117199D01*
X374959Y117265D01*
X374892Y117328D01*
X374823Y117388D01*
X374751Y117445D01*
X374677Y117499D01*
X374600Y117549D01*
X374521Y117597D01*
X374441Y117640D01*
X374358Y117681D01*
X374274Y117717D01*
X374189Y117750D01*
X374102Y117779D01*
X374013Y117805D01*
X373924Y117827D01*
X373834Y117844D01*
X373744Y117858D01*
X373652Y117868D01*
X373561Y117874D01*
X373469Y117876D01*
X375297Y116831D02*
X376863Y113960D01*
X371381Y124321D02*
X371383Y124410D01*
X371389Y124498D01*
X371398Y124586D01*
X371411Y124674D01*
X371428Y124761D01*
X371448Y124847D01*
X371473Y124932D01*
X371500Y125017D01*
X371532Y125100D01*
X371566Y125181D01*
X371605Y125261D01*
X371646Y125339D01*
X371691Y125416D01*
X371739Y125490D01*
X371790Y125563D01*
X371844Y125633D01*
X371902Y125700D01*
X371962Y125766D01*
X372024Y125828D01*
X372090Y125888D01*
X372157Y125946D01*
X372227Y126000D01*
X372300Y126051D01*
X372374Y126099D01*
X372451Y126144D01*
X372529Y126185D01*
X372609Y126224D01*
X372690Y126258D01*
X372773Y126290D01*
X372858Y126317D01*
X372943Y126342D01*
X373029Y126362D01*
X373116Y126379D01*
X373204Y126392D01*
X373292Y126401D01*
X373380Y126407D01*
X373469Y126409D01*
X371381Y124321D02*
X371383Y124192D01*
X371389Y124063D01*
X371398Y123934D01*
X371411Y123806D01*
X371428Y123678D01*
X371449Y123551D01*
X371473Y123424D01*
X371501Y123298D01*
X371533Y123173D01*
X371568Y123049D01*
X371607Y122926D01*
X371650Y122804D01*
X371696Y122684D01*
X371746Y122565D01*
X371799Y122447D01*
X371855Y122331D01*
X371915Y122217D01*
X371978Y122104D01*
X372045Y121994D01*
X372114Y121885D01*
X372187Y121779D01*
X372263Y121674D01*
X372342Y121572D01*
X372424Y121473D01*
X372508Y121375D01*
X372596Y121280D01*
X372686Y121188D01*
X378691Y121450D02*
X378780Y121452D01*
X378868Y121458D01*
X378956Y121467D01*
X379044Y121480D01*
X379131Y121497D01*
X379217Y121517D01*
X379302Y121542D01*
X379387Y121569D01*
X379470Y121601D01*
X379551Y121635D01*
X379631Y121674D01*
X379709Y121715D01*
X379786Y121760D01*
X379860Y121808D01*
X379933Y121859D01*
X380003Y121913D01*
X380070Y121971D01*
X380136Y122031D01*
X380198Y122093D01*
X380258Y122159D01*
X380316Y122226D01*
X380370Y122296D01*
X380421Y122369D01*
X380469Y122443D01*
X380514Y122520D01*
X380555Y122598D01*
X380594Y122678D01*
X380628Y122759D01*
X380660Y122842D01*
X380687Y122927D01*
X380712Y123012D01*
X380732Y123098D01*
X380749Y123185D01*
X380762Y123273D01*
X380771Y123361D01*
X380777Y123449D01*
X380779Y123538D01*
X380777Y123658D01*
X380772Y123778D01*
X380762Y123898D01*
X380750Y124017D01*
X380733Y124136D01*
X380713Y124254D01*
X380689Y124372D01*
X380662Y124488D01*
X380631Y124604D01*
X380597Y124719D01*
X380559Y124833D01*
X380517Y124946D01*
X380472Y125057D01*
X380424Y125167D01*
X380373Y125275D01*
X380318Y125382D01*
X380260Y125487D01*
X380198Y125590D01*
X380134Y125691D01*
X380066Y125791D01*
X379996Y125888D01*
X376864Y122494D02*
X376912Y122416D01*
X376964Y122340D01*
X377018Y122267D01*
X377076Y122196D01*
X377137Y122127D01*
X377201Y122061D01*
X377268Y121998D01*
X377337Y121938D01*
X377409Y121881D01*
X377483Y121827D01*
X377560Y121777D01*
X377639Y121729D01*
X377719Y121686D01*
X377802Y121645D01*
X377886Y121609D01*
X377971Y121576D01*
X378058Y121547D01*
X378147Y121521D01*
X378236Y121499D01*
X378326Y121482D01*
X378416Y121468D01*
X378508Y121458D01*
X378599Y121452D01*
X378691Y121450D01*
X375296Y125366D02*
X375248Y125444D01*
X375196Y125520D01*
X375142Y125593D01*
X375084Y125664D01*
X375023Y125733D01*
X374959Y125799D01*
X374892Y125862D01*
X374823Y125922D01*
X374751Y125979D01*
X374677Y126033D01*
X374600Y126083D01*
X374521Y126131D01*
X374441Y126174D01*
X374358Y126215D01*
X374274Y126251D01*
X374189Y126284D01*
X374102Y126313D01*
X374013Y126339D01*
X373924Y126361D01*
X373834Y126378D01*
X373744Y126392D01*
X373652Y126402D01*
X373561Y126408D01*
X373469Y126410D01*
X375297Y125366D02*
X376863Y122494D01*
X371381Y130350D02*
X371381Y134527D01*
X371381Y130350D02*
X380779Y130350D01*
X380779Y134527D01*
X376602Y133483D02*
X376602Y130350D01*
X380779Y138345D02*
X371381Y138345D01*
X375558Y141478D02*
X380779Y138345D01*
X375558Y141478D02*
X380779Y144610D01*
X371381Y144610D01*
X376602Y149362D02*
X376602Y151972D01*
X376603Y151972D02*
X376601Y152073D01*
X376595Y152174D01*
X376585Y152275D01*
X376572Y152375D01*
X376554Y152475D01*
X376533Y152574D01*
X376507Y152672D01*
X376478Y152769D01*
X376446Y152865D01*
X376409Y152959D01*
X376369Y153052D01*
X376325Y153144D01*
X376278Y153233D01*
X376227Y153321D01*
X376173Y153407D01*
X376116Y153490D01*
X376056Y153572D01*
X375992Y153650D01*
X375926Y153727D01*
X375856Y153800D01*
X375784Y153871D01*
X375709Y153939D01*
X375631Y154004D01*
X375551Y154066D01*
X375469Y154125D01*
X375384Y154181D01*
X375298Y154233D01*
X375209Y154282D01*
X375118Y154328D01*
X375026Y154369D01*
X374932Y154408D01*
X374837Y154442D01*
X374741Y154473D01*
X374643Y154500D01*
X374545Y154524D01*
X374445Y154543D01*
X374345Y154559D01*
X374245Y154571D01*
X374144Y154579D01*
X374043Y154583D01*
X373941Y154583D01*
X373840Y154579D01*
X373739Y154571D01*
X373639Y154559D01*
X373539Y154543D01*
X373439Y154524D01*
X373341Y154500D01*
X373243Y154473D01*
X373147Y154442D01*
X373052Y154408D01*
X372958Y154369D01*
X372866Y154328D01*
X372775Y154282D01*
X372687Y154233D01*
X372600Y154181D01*
X372515Y154125D01*
X372433Y154066D01*
X372353Y154004D01*
X372275Y153939D01*
X372200Y153871D01*
X372128Y153800D01*
X372058Y153727D01*
X371992Y153650D01*
X371928Y153572D01*
X371868Y153490D01*
X371811Y153407D01*
X371757Y153321D01*
X371706Y153233D01*
X371659Y153144D01*
X371615Y153052D01*
X371575Y152959D01*
X371538Y152865D01*
X371506Y152769D01*
X371477Y152672D01*
X371451Y152574D01*
X371430Y152475D01*
X371412Y152375D01*
X371399Y152275D01*
X371389Y152174D01*
X371383Y152073D01*
X371381Y151972D01*
X371381Y149362D01*
X380779Y149362D01*
X380779Y151972D01*
X380777Y152062D01*
X380771Y152151D01*
X380762Y152241D01*
X380748Y152330D01*
X380731Y152418D01*
X380710Y152505D01*
X380685Y152592D01*
X380656Y152677D01*
X380624Y152761D01*
X380589Y152843D01*
X380549Y152924D01*
X380507Y153003D01*
X380461Y153080D01*
X380411Y153155D01*
X380359Y153228D01*
X380303Y153299D01*
X380245Y153367D01*
X380183Y153432D01*
X380119Y153495D01*
X380052Y153555D01*
X379983Y153612D01*
X379911Y153666D01*
X379837Y153717D01*
X379761Y153765D01*
X379683Y153809D01*
X379603Y153850D01*
X379521Y153888D01*
X379438Y153922D01*
X379353Y153952D01*
X379267Y153979D01*
X379181Y154002D01*
X379093Y154021D01*
X379004Y154036D01*
X378915Y154048D01*
X378826Y154056D01*
X378736Y154060D01*
X378646Y154060D01*
X378556Y154056D01*
X378467Y154048D01*
X378378Y154036D01*
X378289Y154021D01*
X378201Y154002D01*
X378115Y153979D01*
X378029Y153952D01*
X377944Y153922D01*
X377861Y153888D01*
X377779Y153850D01*
X377699Y153809D01*
X377621Y153765D01*
X377545Y153717D01*
X377471Y153666D01*
X377399Y153612D01*
X377330Y153555D01*
X377263Y153495D01*
X377199Y153432D01*
X377137Y153367D01*
X377079Y153299D01*
X377023Y153228D01*
X376971Y153155D01*
X376921Y153080D01*
X376875Y153003D01*
X376833Y152924D01*
X376793Y152843D01*
X376758Y152761D01*
X376726Y152677D01*
X376697Y152592D01*
X376672Y152505D01*
X376651Y152418D01*
X376634Y152330D01*
X376620Y152241D01*
X376611Y152151D01*
X376605Y152062D01*
X376603Y151972D01*
X380779Y158392D02*
X371381Y158392D01*
X371381Y162569D01*
X376341Y168605D02*
X380779Y165472D01*
X376341Y168605D02*
X380779Y171737D01*
X376341Y168605D02*
X371381Y168605D01*
X372164Y179926D02*
X372686Y179926D01*
X372686Y180448D01*
X372164Y180448D01*
X372164Y179926D01*
X376341Y179926D02*
X376863Y179926D01*
X376863Y180448D01*
X376341Y180448D01*
X376341Y179926D01*
X380779Y191160D02*
X371381Y191160D01*
X380779Y188549D02*
X380779Y193770D01*
X371381Y197406D02*
X371381Y201583D01*
X371381Y197406D02*
X380779Y197406D01*
X380779Y201583D01*
X376602Y200539D02*
X376602Y197406D01*
X380779Y207009D02*
X371381Y207009D01*
X380779Y204399D02*
X380779Y209620D01*
X380779Y213238D02*
X371381Y213238D01*
X376602Y213238D02*
X376602Y218459D01*
X380779Y218459D02*
X371381Y218459D01*
X371381Y223009D02*
X371381Y227186D01*
X371381Y223009D02*
X380779Y223009D01*
X380779Y227186D01*
X376602Y226142D02*
X376602Y223009D01*
X380779Y230973D02*
X371381Y230973D01*
X380779Y230973D02*
X380779Y233584D01*
X380777Y233685D01*
X380771Y233786D01*
X380761Y233887D01*
X380748Y233987D01*
X380730Y234087D01*
X380709Y234186D01*
X380683Y234284D01*
X380654Y234381D01*
X380622Y234477D01*
X380585Y234571D01*
X380545Y234664D01*
X380501Y234756D01*
X380454Y234845D01*
X380403Y234933D01*
X380349Y235019D01*
X380292Y235102D01*
X380232Y235184D01*
X380168Y235262D01*
X380102Y235339D01*
X380032Y235412D01*
X379960Y235483D01*
X379885Y235551D01*
X379807Y235616D01*
X379727Y235678D01*
X379645Y235737D01*
X379560Y235793D01*
X379474Y235845D01*
X379385Y235894D01*
X379294Y235940D01*
X379202Y235981D01*
X379108Y236020D01*
X379013Y236054D01*
X378917Y236085D01*
X378819Y236112D01*
X378721Y236136D01*
X378621Y236155D01*
X378521Y236171D01*
X378421Y236183D01*
X378320Y236191D01*
X378219Y236195D01*
X378117Y236195D01*
X378016Y236191D01*
X377915Y236183D01*
X377815Y236171D01*
X377715Y236155D01*
X377615Y236136D01*
X377517Y236112D01*
X377419Y236085D01*
X377323Y236054D01*
X377228Y236020D01*
X377134Y235981D01*
X377042Y235940D01*
X376951Y235894D01*
X376863Y235845D01*
X376776Y235793D01*
X376691Y235737D01*
X376609Y235678D01*
X376529Y235616D01*
X376451Y235551D01*
X376376Y235483D01*
X376304Y235412D01*
X376234Y235339D01*
X376168Y235262D01*
X376104Y235184D01*
X376044Y235102D01*
X375987Y235019D01*
X375933Y234933D01*
X375882Y234845D01*
X375835Y234756D01*
X375791Y234664D01*
X375751Y234571D01*
X375714Y234477D01*
X375682Y234381D01*
X375653Y234284D01*
X375627Y234186D01*
X375606Y234087D01*
X375588Y233987D01*
X375575Y233887D01*
X375565Y233786D01*
X375559Y233685D01*
X375557Y233584D01*
X375558Y233584D02*
X375558Y230973D01*
X375558Y234106D02*
X371381Y236194D01*
X371381Y247000D02*
X371381Y249088D01*
X371381Y247000D02*
X371383Y246911D01*
X371389Y246823D01*
X371398Y246735D01*
X371411Y246647D01*
X371428Y246560D01*
X371448Y246474D01*
X371473Y246389D01*
X371500Y246304D01*
X371532Y246221D01*
X371566Y246140D01*
X371605Y246060D01*
X371646Y245982D01*
X371691Y245905D01*
X371739Y245831D01*
X371790Y245758D01*
X371844Y245688D01*
X371902Y245621D01*
X371962Y245555D01*
X372024Y245493D01*
X372090Y245433D01*
X372157Y245375D01*
X372227Y245321D01*
X372300Y245270D01*
X372374Y245222D01*
X372451Y245177D01*
X372529Y245136D01*
X372609Y245097D01*
X372690Y245063D01*
X372773Y245031D01*
X372858Y245004D01*
X372943Y244979D01*
X373029Y244959D01*
X373116Y244942D01*
X373204Y244929D01*
X373292Y244920D01*
X373380Y244914D01*
X373469Y244912D01*
X373469Y244911D02*
X378691Y244911D01*
X378691Y244912D02*
X378782Y244914D01*
X378873Y244920D01*
X378964Y244930D01*
X379054Y244944D01*
X379143Y244961D01*
X379231Y244983D01*
X379319Y245009D01*
X379405Y245038D01*
X379490Y245071D01*
X379573Y245108D01*
X379655Y245148D01*
X379735Y245192D01*
X379813Y245239D01*
X379889Y245290D01*
X379962Y245343D01*
X380033Y245400D01*
X380102Y245461D01*
X380167Y245524D01*
X380230Y245589D01*
X380290Y245658D01*
X380348Y245729D01*
X380401Y245802D01*
X380452Y245878D01*
X380499Y245956D01*
X380543Y246036D01*
X380583Y246118D01*
X380620Y246201D01*
X380653Y246286D01*
X380682Y246372D01*
X380708Y246460D01*
X380730Y246548D01*
X380747Y246637D01*
X380761Y246727D01*
X380771Y246818D01*
X380777Y246909D01*
X380779Y247000D01*
X380779Y249088D01*
X380779Y252862D02*
X373992Y252862D01*
X373992Y252861D02*
X373891Y252863D01*
X373790Y252869D01*
X373689Y252879D01*
X373589Y252892D01*
X373489Y252910D01*
X373390Y252931D01*
X373292Y252957D01*
X373195Y252986D01*
X373099Y253018D01*
X373005Y253055D01*
X372912Y253095D01*
X372820Y253139D01*
X372731Y253186D01*
X372643Y253237D01*
X372557Y253291D01*
X372474Y253348D01*
X372392Y253408D01*
X372314Y253472D01*
X372237Y253538D01*
X372164Y253608D01*
X372093Y253680D01*
X372025Y253755D01*
X371960Y253833D01*
X371898Y253913D01*
X371839Y253995D01*
X371783Y254080D01*
X371731Y254167D01*
X371682Y254255D01*
X371636Y254346D01*
X371595Y254438D01*
X371556Y254532D01*
X371522Y254627D01*
X371491Y254723D01*
X371464Y254821D01*
X371440Y254919D01*
X371421Y255019D01*
X371405Y255119D01*
X371393Y255219D01*
X371385Y255320D01*
X371381Y255421D01*
X371381Y255523D01*
X371385Y255624D01*
X371393Y255725D01*
X371405Y255825D01*
X371421Y255925D01*
X371440Y256025D01*
X371464Y256123D01*
X371491Y256221D01*
X371522Y256317D01*
X371556Y256412D01*
X371595Y256506D01*
X371636Y256598D01*
X371682Y256689D01*
X371731Y256778D01*
X371783Y256864D01*
X371839Y256949D01*
X371898Y257031D01*
X371960Y257111D01*
X372025Y257189D01*
X372093Y257264D01*
X372164Y257336D01*
X372237Y257406D01*
X372314Y257472D01*
X372392Y257536D01*
X372474Y257596D01*
X372557Y257653D01*
X372643Y257707D01*
X372731Y257758D01*
X372820Y257805D01*
X372912Y257849D01*
X373005Y257889D01*
X373099Y257926D01*
X373195Y257958D01*
X373292Y257987D01*
X373390Y258013D01*
X373489Y258034D01*
X373589Y258052D01*
X373689Y258065D01*
X373790Y258075D01*
X373891Y258081D01*
X373992Y258083D01*
X380779Y258083D01*
X380779Y264311D02*
X371381Y264311D01*
X380779Y261701D02*
X380779Y266922D01*
X380779Y270540D02*
X371381Y270540D01*
X380779Y270540D02*
X380779Y273151D01*
X380777Y273251D01*
X380771Y273351D01*
X380762Y273450D01*
X380748Y273550D01*
X380731Y273648D01*
X380710Y273746D01*
X380686Y273843D01*
X380657Y273939D01*
X380625Y274034D01*
X380590Y274127D01*
X380551Y274219D01*
X380508Y274310D01*
X380462Y274398D01*
X380412Y274485D01*
X380360Y274570D01*
X380304Y274653D01*
X380245Y274734D01*
X380182Y274812D01*
X380117Y274888D01*
X380049Y274962D01*
X379979Y275032D01*
X379905Y275100D01*
X379829Y275165D01*
X379751Y275228D01*
X379670Y275287D01*
X379587Y275343D01*
X379502Y275395D01*
X379415Y275445D01*
X379327Y275491D01*
X379236Y275534D01*
X379144Y275573D01*
X379051Y275608D01*
X378956Y275640D01*
X378860Y275669D01*
X378763Y275693D01*
X378665Y275714D01*
X378567Y275731D01*
X378467Y275745D01*
X378368Y275754D01*
X378268Y275760D01*
X378168Y275762D01*
X378168Y275761D02*
X373992Y275761D01*
X373992Y275762D02*
X373892Y275760D01*
X373792Y275754D01*
X373693Y275745D01*
X373593Y275731D01*
X373495Y275714D01*
X373397Y275693D01*
X373300Y275669D01*
X373204Y275640D01*
X373109Y275608D01*
X373016Y275573D01*
X372924Y275534D01*
X372833Y275491D01*
X372745Y275445D01*
X372658Y275395D01*
X372573Y275343D01*
X372490Y275287D01*
X372409Y275228D01*
X372331Y275165D01*
X372255Y275100D01*
X372181Y275032D01*
X372111Y274962D01*
X372043Y274888D01*
X371978Y274812D01*
X371915Y274734D01*
X371856Y274653D01*
X371800Y274570D01*
X371748Y274485D01*
X371698Y274398D01*
X371652Y274310D01*
X371609Y274219D01*
X371570Y274127D01*
X371535Y274034D01*
X371503Y273939D01*
X371474Y273843D01*
X371450Y273746D01*
X371429Y273648D01*
X371412Y273550D01*
X371398Y273450D01*
X371389Y273351D01*
X371383Y273251D01*
X371381Y273151D01*
X371381Y270540D01*
X373992Y279989D02*
X378168Y279989D01*
X378168Y279988D02*
X378269Y279990D01*
X378370Y279996D01*
X378471Y280006D01*
X378571Y280019D01*
X378671Y280037D01*
X378770Y280058D01*
X378868Y280084D01*
X378965Y280113D01*
X379061Y280145D01*
X379155Y280182D01*
X379248Y280222D01*
X379340Y280266D01*
X379429Y280313D01*
X379517Y280364D01*
X379603Y280418D01*
X379686Y280475D01*
X379768Y280535D01*
X379846Y280599D01*
X379923Y280665D01*
X379996Y280735D01*
X380067Y280807D01*
X380135Y280882D01*
X380200Y280960D01*
X380262Y281040D01*
X380321Y281122D01*
X380377Y281207D01*
X380429Y281294D01*
X380478Y281382D01*
X380524Y281473D01*
X380565Y281565D01*
X380604Y281659D01*
X380638Y281754D01*
X380669Y281850D01*
X380696Y281948D01*
X380720Y282046D01*
X380739Y282146D01*
X380755Y282246D01*
X380767Y282346D01*
X380775Y282447D01*
X380779Y282548D01*
X380779Y282650D01*
X380775Y282751D01*
X380767Y282852D01*
X380755Y282952D01*
X380739Y283052D01*
X380720Y283152D01*
X380696Y283250D01*
X380669Y283348D01*
X380638Y283444D01*
X380604Y283539D01*
X380565Y283633D01*
X380524Y283725D01*
X380478Y283816D01*
X380429Y283904D01*
X380377Y283991D01*
X380321Y284076D01*
X380262Y284158D01*
X380200Y284238D01*
X380135Y284316D01*
X380067Y284391D01*
X379996Y284463D01*
X379923Y284533D01*
X379846Y284599D01*
X379768Y284663D01*
X379686Y284723D01*
X379603Y284780D01*
X379517Y284834D01*
X379429Y284885D01*
X379340Y284932D01*
X379248Y284976D01*
X379155Y285016D01*
X379061Y285053D01*
X378965Y285085D01*
X378868Y285114D01*
X378770Y285140D01*
X378671Y285161D01*
X378571Y285179D01*
X378471Y285192D01*
X378370Y285202D01*
X378269Y285208D01*
X378168Y285210D01*
X373992Y285210D01*
X373891Y285208D01*
X373790Y285202D01*
X373689Y285192D01*
X373589Y285179D01*
X373489Y285161D01*
X373390Y285140D01*
X373292Y285114D01*
X373195Y285085D01*
X373099Y285053D01*
X373005Y285016D01*
X372912Y284976D01*
X372820Y284932D01*
X372731Y284885D01*
X372643Y284834D01*
X372557Y284780D01*
X372474Y284723D01*
X372392Y284663D01*
X372314Y284599D01*
X372237Y284533D01*
X372164Y284463D01*
X372093Y284391D01*
X372025Y284316D01*
X371960Y284238D01*
X371898Y284158D01*
X371839Y284076D01*
X371783Y283991D01*
X371731Y283905D01*
X371682Y283816D01*
X371636Y283725D01*
X371595Y283633D01*
X371556Y283539D01*
X371522Y283444D01*
X371491Y283348D01*
X371464Y283250D01*
X371440Y283152D01*
X371421Y283052D01*
X371405Y282952D01*
X371393Y282852D01*
X371385Y282751D01*
X371381Y282650D01*
X371381Y282548D01*
X371385Y282447D01*
X371393Y282346D01*
X371405Y282246D01*
X371421Y282146D01*
X371440Y282046D01*
X371464Y281948D01*
X371491Y281850D01*
X371522Y281754D01*
X371556Y281659D01*
X371595Y281565D01*
X371636Y281473D01*
X371682Y281382D01*
X371731Y281294D01*
X371783Y281207D01*
X371839Y281122D01*
X371898Y281040D01*
X371960Y280960D01*
X372025Y280882D01*
X372093Y280807D01*
X372164Y280735D01*
X372237Y280665D01*
X372314Y280599D01*
X372392Y280535D01*
X372474Y280475D01*
X372557Y280418D01*
X372643Y280364D01*
X372731Y280313D01*
X372820Y280266D01*
X372912Y280222D01*
X373005Y280182D01*
X373099Y280145D01*
X373195Y280113D01*
X373292Y280084D01*
X373390Y280058D01*
X373489Y280037D01*
X373589Y280019D01*
X373689Y280006D01*
X373790Y279996D01*
X373891Y279990D01*
X373992Y279988D01*
X380779Y288786D02*
X371381Y290874D01*
X377646Y292963D01*
X371381Y295051D01*
X380779Y297139D01*
X380779Y301020D02*
X371381Y301020D01*
X371381Y306241D02*
X380779Y301020D01*
X380779Y306241D02*
X371381Y306241D01*
X376602Y319305D02*
X376602Y320871D01*
X371381Y320871D01*
X371381Y317739D01*
X371383Y317650D01*
X371389Y317562D01*
X371398Y317474D01*
X371411Y317386D01*
X371428Y317299D01*
X371448Y317213D01*
X371473Y317128D01*
X371500Y317043D01*
X371532Y316960D01*
X371566Y316879D01*
X371605Y316799D01*
X371646Y316721D01*
X371691Y316644D01*
X371739Y316570D01*
X371790Y316497D01*
X371844Y316427D01*
X371902Y316360D01*
X371962Y316294D01*
X372024Y316232D01*
X372090Y316172D01*
X372157Y316114D01*
X372227Y316060D01*
X372300Y316009D01*
X372374Y315961D01*
X372451Y315916D01*
X372529Y315875D01*
X372609Y315836D01*
X372690Y315802D01*
X372773Y315770D01*
X372858Y315743D01*
X372943Y315718D01*
X373029Y315698D01*
X373116Y315681D01*
X373204Y315668D01*
X373292Y315659D01*
X373380Y315653D01*
X373469Y315651D01*
X373469Y315650D02*
X378691Y315650D01*
X378691Y315651D02*
X378782Y315653D01*
X378873Y315659D01*
X378964Y315669D01*
X379054Y315683D01*
X379143Y315700D01*
X379231Y315722D01*
X379319Y315748D01*
X379405Y315777D01*
X379490Y315810D01*
X379573Y315847D01*
X379655Y315887D01*
X379735Y315931D01*
X379813Y315978D01*
X379889Y316029D01*
X379962Y316082D01*
X380033Y316139D01*
X380102Y316200D01*
X380167Y316263D01*
X380230Y316328D01*
X380290Y316397D01*
X380348Y316468D01*
X380401Y316541D01*
X380452Y316617D01*
X380499Y316695D01*
X380543Y316775D01*
X380583Y316857D01*
X380620Y316940D01*
X380653Y317025D01*
X380682Y317111D01*
X380708Y317199D01*
X380730Y317287D01*
X380747Y317376D01*
X380761Y317466D01*
X380771Y317557D01*
X380777Y317648D01*
X380779Y317739D01*
X380779Y320871D01*
X378168Y325099D02*
X373992Y325099D01*
X378168Y325099D02*
X378269Y325101D01*
X378370Y325107D01*
X378471Y325117D01*
X378571Y325130D01*
X378671Y325148D01*
X378770Y325169D01*
X378868Y325195D01*
X378965Y325224D01*
X379061Y325256D01*
X379155Y325293D01*
X379248Y325333D01*
X379340Y325377D01*
X379429Y325424D01*
X379517Y325475D01*
X379603Y325529D01*
X379686Y325586D01*
X379768Y325646D01*
X379846Y325710D01*
X379923Y325776D01*
X379996Y325846D01*
X380067Y325918D01*
X380135Y325993D01*
X380200Y326071D01*
X380262Y326151D01*
X380321Y326233D01*
X380377Y326318D01*
X380429Y326405D01*
X380478Y326493D01*
X380524Y326584D01*
X380565Y326676D01*
X380604Y326770D01*
X380638Y326865D01*
X380669Y326961D01*
X380696Y327059D01*
X380720Y327157D01*
X380739Y327257D01*
X380755Y327357D01*
X380767Y327457D01*
X380775Y327558D01*
X380779Y327659D01*
X380779Y327761D01*
X380775Y327862D01*
X380767Y327963D01*
X380755Y328063D01*
X380739Y328163D01*
X380720Y328263D01*
X380696Y328361D01*
X380669Y328459D01*
X380638Y328555D01*
X380604Y328650D01*
X380565Y328744D01*
X380524Y328836D01*
X380478Y328927D01*
X380429Y329015D01*
X380377Y329102D01*
X380321Y329187D01*
X380262Y329269D01*
X380200Y329349D01*
X380135Y329427D01*
X380067Y329502D01*
X379996Y329574D01*
X379923Y329644D01*
X379846Y329710D01*
X379768Y329774D01*
X379686Y329834D01*
X379603Y329891D01*
X379517Y329945D01*
X379429Y329996D01*
X379340Y330043D01*
X379248Y330087D01*
X379155Y330127D01*
X379061Y330164D01*
X378965Y330196D01*
X378868Y330225D01*
X378770Y330251D01*
X378671Y330272D01*
X378571Y330290D01*
X378471Y330303D01*
X378370Y330313D01*
X378269Y330319D01*
X378168Y330321D01*
X378168Y330320D02*
X373992Y330320D01*
X373992Y330321D02*
X373891Y330319D01*
X373790Y330313D01*
X373689Y330303D01*
X373589Y330290D01*
X373489Y330272D01*
X373390Y330251D01*
X373292Y330225D01*
X373195Y330196D01*
X373099Y330164D01*
X373005Y330127D01*
X372912Y330087D01*
X372820Y330043D01*
X372731Y329996D01*
X372643Y329945D01*
X372557Y329891D01*
X372474Y329834D01*
X372392Y329774D01*
X372314Y329710D01*
X372237Y329644D01*
X372164Y329574D01*
X372093Y329502D01*
X372025Y329427D01*
X371960Y329349D01*
X371898Y329269D01*
X371839Y329187D01*
X371783Y329102D01*
X371731Y329016D01*
X371682Y328927D01*
X371636Y328836D01*
X371595Y328744D01*
X371556Y328650D01*
X371522Y328555D01*
X371491Y328459D01*
X371464Y328361D01*
X371440Y328263D01*
X371421Y328163D01*
X371405Y328063D01*
X371393Y327963D01*
X371385Y327862D01*
X371381Y327761D01*
X371381Y327659D01*
X371385Y327558D01*
X371393Y327457D01*
X371405Y327357D01*
X371421Y327257D01*
X371440Y327157D01*
X371464Y327059D01*
X371491Y326961D01*
X371522Y326865D01*
X371556Y326770D01*
X371595Y326676D01*
X371636Y326584D01*
X371682Y326493D01*
X371731Y326405D01*
X371783Y326318D01*
X371839Y326233D01*
X371898Y326151D01*
X371960Y326071D01*
X372025Y325993D01*
X372093Y325918D01*
X372164Y325846D01*
X372237Y325776D01*
X372314Y325710D01*
X372392Y325646D01*
X372474Y325586D01*
X372557Y325529D01*
X372643Y325475D01*
X372731Y325424D01*
X372820Y325377D01*
X372912Y325333D01*
X373005Y325293D01*
X373099Y325256D01*
X373195Y325224D01*
X373292Y325195D01*
X373390Y325169D01*
X373489Y325148D01*
X373589Y325130D01*
X373689Y325117D01*
X373790Y325107D01*
X373891Y325101D01*
X373992Y325099D01*
X371381Y334565D02*
X371381Y338742D01*
X371381Y334565D02*
X380779Y334565D01*
X380779Y338742D01*
X376602Y337698D02*
X376602Y334565D01*
X371381Y344996D02*
X371383Y345085D01*
X371389Y345173D01*
X371398Y345261D01*
X371411Y345349D01*
X371428Y345436D01*
X371448Y345522D01*
X371473Y345607D01*
X371500Y345692D01*
X371532Y345775D01*
X371566Y345856D01*
X371605Y345936D01*
X371646Y346014D01*
X371691Y346091D01*
X371739Y346165D01*
X371790Y346238D01*
X371844Y346308D01*
X371902Y346375D01*
X371962Y346441D01*
X372024Y346503D01*
X372090Y346563D01*
X372157Y346621D01*
X372227Y346675D01*
X372300Y346726D01*
X372374Y346774D01*
X372451Y346819D01*
X372529Y346860D01*
X372609Y346899D01*
X372690Y346933D01*
X372773Y346965D01*
X372858Y346992D01*
X372943Y347017D01*
X373029Y347037D01*
X373116Y347054D01*
X373204Y347067D01*
X373292Y347076D01*
X373380Y347082D01*
X373469Y347084D01*
X371381Y344996D02*
X371383Y344867D01*
X371389Y344738D01*
X371398Y344609D01*
X371411Y344481D01*
X371428Y344353D01*
X371449Y344226D01*
X371473Y344099D01*
X371501Y343973D01*
X371533Y343848D01*
X371568Y343724D01*
X371607Y343601D01*
X371650Y343479D01*
X371696Y343359D01*
X371746Y343240D01*
X371799Y343122D01*
X371855Y343006D01*
X371915Y342892D01*
X371978Y342779D01*
X372045Y342669D01*
X372114Y342560D01*
X372187Y342454D01*
X372263Y342349D01*
X372342Y342247D01*
X372424Y342148D01*
X372508Y342050D01*
X372596Y341955D01*
X372686Y341863D01*
X378691Y342125D02*
X378780Y342127D01*
X378868Y342133D01*
X378956Y342142D01*
X379044Y342155D01*
X379131Y342172D01*
X379217Y342192D01*
X379302Y342217D01*
X379387Y342244D01*
X379470Y342276D01*
X379551Y342310D01*
X379631Y342349D01*
X379709Y342390D01*
X379786Y342435D01*
X379860Y342483D01*
X379933Y342534D01*
X380003Y342588D01*
X380070Y342646D01*
X380136Y342706D01*
X380198Y342768D01*
X380258Y342834D01*
X380316Y342901D01*
X380370Y342971D01*
X380421Y343044D01*
X380469Y343118D01*
X380514Y343195D01*
X380555Y343273D01*
X380594Y343353D01*
X380628Y343434D01*
X380660Y343517D01*
X380687Y343602D01*
X380712Y343687D01*
X380732Y343773D01*
X380749Y343860D01*
X380762Y343948D01*
X380771Y344036D01*
X380777Y344124D01*
X380779Y344213D01*
X380779Y344212D02*
X380777Y344332D01*
X380772Y344452D01*
X380762Y344572D01*
X380750Y344691D01*
X380733Y344810D01*
X380713Y344928D01*
X380689Y345046D01*
X380662Y345162D01*
X380631Y345278D01*
X380597Y345393D01*
X380559Y345507D01*
X380517Y345620D01*
X380472Y345731D01*
X380424Y345841D01*
X380373Y345949D01*
X380318Y346056D01*
X380260Y346161D01*
X380198Y346264D01*
X380134Y346365D01*
X380066Y346465D01*
X379996Y346562D01*
X376864Y343168D02*
X376912Y343090D01*
X376964Y343014D01*
X377018Y342941D01*
X377076Y342870D01*
X377137Y342801D01*
X377201Y342735D01*
X377268Y342672D01*
X377337Y342612D01*
X377409Y342555D01*
X377483Y342501D01*
X377560Y342451D01*
X377639Y342403D01*
X377719Y342360D01*
X377802Y342319D01*
X377886Y342283D01*
X377971Y342250D01*
X378058Y342221D01*
X378147Y342195D01*
X378236Y342173D01*
X378326Y342156D01*
X378416Y342142D01*
X378508Y342132D01*
X378599Y342126D01*
X378691Y342124D01*
X375296Y346040D02*
X375248Y346118D01*
X375196Y346194D01*
X375142Y346267D01*
X375084Y346338D01*
X375023Y346407D01*
X374959Y346473D01*
X374892Y346536D01*
X374823Y346596D01*
X374751Y346653D01*
X374677Y346707D01*
X374600Y346757D01*
X374521Y346805D01*
X374441Y346848D01*
X374358Y346889D01*
X374274Y346925D01*
X374189Y346958D01*
X374102Y346987D01*
X374013Y347013D01*
X373924Y347035D01*
X373834Y347052D01*
X373744Y347066D01*
X373652Y347076D01*
X373561Y347082D01*
X373469Y347084D01*
X375297Y346040D02*
X376863Y343168D01*
X380779Y355884D02*
X371381Y355884D01*
X376602Y355884D02*
X376602Y361105D01*
X380779Y361105D02*
X371381Y361105D01*
X371381Y365655D02*
X371381Y369832D01*
X371381Y365655D02*
X380779Y365655D01*
X380779Y369832D01*
X376602Y368787D02*
X376602Y365655D01*
X380779Y373619D02*
X371381Y373619D01*
X380779Y373619D02*
X380779Y376230D01*
X380777Y376331D01*
X380771Y376432D01*
X380761Y376533D01*
X380748Y376633D01*
X380730Y376733D01*
X380709Y376832D01*
X380683Y376930D01*
X380654Y377027D01*
X380622Y377123D01*
X380585Y377217D01*
X380545Y377310D01*
X380501Y377402D01*
X380454Y377491D01*
X380403Y377579D01*
X380349Y377665D01*
X380292Y377748D01*
X380232Y377830D01*
X380168Y377908D01*
X380102Y377985D01*
X380032Y378058D01*
X379960Y378129D01*
X379885Y378197D01*
X379807Y378262D01*
X379727Y378324D01*
X379645Y378383D01*
X379560Y378439D01*
X379474Y378491D01*
X379385Y378540D01*
X379294Y378586D01*
X379202Y378627D01*
X379108Y378666D01*
X379013Y378700D01*
X378917Y378731D01*
X378819Y378758D01*
X378721Y378782D01*
X378621Y378801D01*
X378521Y378817D01*
X378421Y378829D01*
X378320Y378837D01*
X378219Y378841D01*
X378117Y378841D01*
X378016Y378837D01*
X377915Y378829D01*
X377815Y378817D01*
X377715Y378801D01*
X377615Y378782D01*
X377517Y378758D01*
X377419Y378731D01*
X377323Y378700D01*
X377228Y378666D01*
X377134Y378627D01*
X377042Y378586D01*
X376951Y378540D01*
X376863Y378491D01*
X376776Y378439D01*
X376691Y378383D01*
X376609Y378324D01*
X376529Y378262D01*
X376451Y378197D01*
X376376Y378129D01*
X376304Y378058D01*
X376234Y377985D01*
X376168Y377908D01*
X376104Y377830D01*
X376044Y377748D01*
X375987Y377665D01*
X375933Y377579D01*
X375882Y377491D01*
X375835Y377402D01*
X375791Y377310D01*
X375751Y377217D01*
X375714Y377123D01*
X375682Y377027D01*
X375653Y376930D01*
X375627Y376832D01*
X375606Y376733D01*
X375588Y376633D01*
X375575Y376533D01*
X375565Y376432D01*
X375559Y376331D01*
X375557Y376230D01*
X375558Y376230D02*
X375558Y373619D01*
X375558Y376752D02*
X371381Y378840D01*
X371381Y383028D02*
X371381Y387205D01*
X371381Y383028D02*
X380779Y383028D01*
X380779Y387205D01*
X376602Y386161D02*
X376602Y383028D01*
X375036Y395595D02*
X375036Y401860D01*
X377646Y405958D02*
X375036Y412224D01*
X372425Y405958D01*
X120381Y36558D02*
X120381Y34469D01*
X120383Y34380D01*
X120389Y34292D01*
X120398Y34204D01*
X120411Y34116D01*
X120428Y34029D01*
X120448Y33943D01*
X120473Y33858D01*
X120500Y33773D01*
X120532Y33690D01*
X120566Y33609D01*
X120605Y33529D01*
X120646Y33451D01*
X120691Y33374D01*
X120739Y33300D01*
X120790Y33227D01*
X120844Y33157D01*
X120902Y33090D01*
X120962Y33024D01*
X121024Y32962D01*
X121090Y32902D01*
X121157Y32844D01*
X121227Y32790D01*
X121300Y32739D01*
X121374Y32691D01*
X121451Y32646D01*
X121529Y32605D01*
X121609Y32566D01*
X121690Y32532D01*
X121773Y32500D01*
X121858Y32473D01*
X121943Y32448D01*
X122029Y32428D01*
X122116Y32411D01*
X122204Y32398D01*
X122292Y32389D01*
X122380Y32383D01*
X122469Y32381D01*
X127691Y32381D01*
X127782Y32383D01*
X127873Y32389D01*
X127964Y32399D01*
X128054Y32413D01*
X128143Y32430D01*
X128231Y32452D01*
X128319Y32478D01*
X128405Y32507D01*
X128490Y32540D01*
X128573Y32577D01*
X128655Y32617D01*
X128735Y32661D01*
X128813Y32708D01*
X128889Y32759D01*
X128962Y32812D01*
X129033Y32869D01*
X129102Y32930D01*
X129167Y32993D01*
X129230Y33058D01*
X129290Y33127D01*
X129348Y33198D01*
X129401Y33271D01*
X129452Y33347D01*
X129499Y33425D01*
X129543Y33505D01*
X129583Y33587D01*
X129620Y33670D01*
X129653Y33755D01*
X129682Y33841D01*
X129708Y33929D01*
X129730Y34017D01*
X129747Y34106D01*
X129761Y34196D01*
X129771Y34287D01*
X129777Y34378D01*
X129779Y34469D01*
X129779Y36558D01*
X129779Y40332D02*
X122992Y40332D01*
X122992Y40331D02*
X122891Y40333D01*
X122790Y40339D01*
X122689Y40349D01*
X122589Y40362D01*
X122489Y40380D01*
X122390Y40401D01*
X122292Y40427D01*
X122195Y40456D01*
X122099Y40488D01*
X122005Y40525D01*
X121912Y40565D01*
X121820Y40609D01*
X121731Y40656D01*
X121643Y40707D01*
X121557Y40761D01*
X121474Y40818D01*
X121392Y40878D01*
X121314Y40942D01*
X121237Y41008D01*
X121164Y41078D01*
X121093Y41150D01*
X121025Y41225D01*
X120960Y41303D01*
X120898Y41383D01*
X120839Y41465D01*
X120783Y41550D01*
X120731Y41637D01*
X120682Y41725D01*
X120636Y41816D01*
X120595Y41908D01*
X120556Y42002D01*
X120522Y42097D01*
X120491Y42193D01*
X120464Y42291D01*
X120440Y42389D01*
X120421Y42489D01*
X120405Y42589D01*
X120393Y42689D01*
X120385Y42790D01*
X120381Y42891D01*
X120381Y42993D01*
X120385Y43094D01*
X120393Y43195D01*
X120405Y43295D01*
X120421Y43395D01*
X120440Y43495D01*
X120464Y43593D01*
X120491Y43691D01*
X120522Y43787D01*
X120556Y43882D01*
X120595Y43976D01*
X120636Y44068D01*
X120682Y44159D01*
X120731Y44248D01*
X120783Y44334D01*
X120839Y44419D01*
X120898Y44501D01*
X120960Y44581D01*
X121025Y44659D01*
X121093Y44734D01*
X121164Y44806D01*
X121237Y44876D01*
X121314Y44942D01*
X121392Y45006D01*
X121474Y45066D01*
X121557Y45123D01*
X121643Y45177D01*
X121731Y45228D01*
X121820Y45275D01*
X121912Y45319D01*
X122005Y45359D01*
X122099Y45396D01*
X122195Y45428D01*
X122292Y45457D01*
X122390Y45483D01*
X122489Y45504D01*
X122589Y45522D01*
X122689Y45535D01*
X122790Y45545D01*
X122891Y45551D01*
X122992Y45553D01*
X129779Y45553D01*
X129779Y51781D02*
X120381Y51781D01*
X129779Y49171D02*
X129779Y54392D01*
X129779Y58010D02*
X120381Y58010D01*
X129779Y58010D02*
X129779Y60620D01*
X129777Y60720D01*
X129771Y60820D01*
X129762Y60919D01*
X129748Y61019D01*
X129731Y61117D01*
X129710Y61215D01*
X129686Y61312D01*
X129657Y61408D01*
X129625Y61503D01*
X129590Y61596D01*
X129551Y61688D01*
X129508Y61779D01*
X129462Y61867D01*
X129412Y61954D01*
X129360Y62039D01*
X129304Y62122D01*
X129245Y62203D01*
X129182Y62281D01*
X129117Y62357D01*
X129049Y62431D01*
X128979Y62501D01*
X128905Y62569D01*
X128829Y62634D01*
X128751Y62697D01*
X128670Y62756D01*
X128587Y62812D01*
X128502Y62864D01*
X128415Y62914D01*
X128327Y62960D01*
X128236Y63003D01*
X128144Y63042D01*
X128051Y63077D01*
X127956Y63109D01*
X127860Y63138D01*
X127763Y63162D01*
X127665Y63183D01*
X127567Y63200D01*
X127467Y63214D01*
X127368Y63223D01*
X127268Y63229D01*
X127168Y63231D01*
X122992Y63231D01*
X122892Y63229D01*
X122792Y63223D01*
X122693Y63214D01*
X122593Y63200D01*
X122495Y63183D01*
X122397Y63162D01*
X122300Y63138D01*
X122204Y63109D01*
X122109Y63077D01*
X122016Y63042D01*
X121924Y63003D01*
X121833Y62960D01*
X121745Y62914D01*
X121658Y62864D01*
X121573Y62812D01*
X121490Y62756D01*
X121409Y62697D01*
X121331Y62634D01*
X121255Y62569D01*
X121181Y62501D01*
X121111Y62431D01*
X121043Y62357D01*
X120978Y62281D01*
X120915Y62203D01*
X120856Y62122D01*
X120800Y62039D01*
X120748Y61954D01*
X120698Y61867D01*
X120652Y61779D01*
X120609Y61688D01*
X120570Y61596D01*
X120535Y61503D01*
X120503Y61408D01*
X120474Y61312D01*
X120450Y61215D01*
X120429Y61117D01*
X120412Y61019D01*
X120398Y60919D01*
X120389Y60820D01*
X120383Y60720D01*
X120381Y60620D01*
X120381Y58010D01*
X122992Y67459D02*
X127168Y67459D01*
X127168Y67458D02*
X127269Y67460D01*
X127370Y67466D01*
X127471Y67476D01*
X127571Y67489D01*
X127671Y67507D01*
X127770Y67528D01*
X127868Y67554D01*
X127965Y67583D01*
X128061Y67615D01*
X128155Y67652D01*
X128248Y67692D01*
X128340Y67736D01*
X128429Y67783D01*
X128517Y67834D01*
X128603Y67888D01*
X128686Y67945D01*
X128768Y68005D01*
X128846Y68069D01*
X128923Y68135D01*
X128996Y68205D01*
X129067Y68277D01*
X129135Y68352D01*
X129200Y68430D01*
X129262Y68510D01*
X129321Y68592D01*
X129377Y68677D01*
X129429Y68763D01*
X129478Y68852D01*
X129524Y68943D01*
X129565Y69035D01*
X129604Y69129D01*
X129638Y69224D01*
X129669Y69320D01*
X129696Y69418D01*
X129720Y69516D01*
X129739Y69616D01*
X129755Y69716D01*
X129767Y69816D01*
X129775Y69917D01*
X129779Y70018D01*
X129779Y70120D01*
X129775Y70221D01*
X129767Y70322D01*
X129755Y70422D01*
X129739Y70522D01*
X129720Y70622D01*
X129696Y70720D01*
X129669Y70818D01*
X129638Y70914D01*
X129604Y71009D01*
X129565Y71103D01*
X129524Y71195D01*
X129478Y71286D01*
X129429Y71374D01*
X129377Y71461D01*
X129321Y71546D01*
X129262Y71628D01*
X129200Y71708D01*
X129135Y71786D01*
X129067Y71861D01*
X128996Y71933D01*
X128923Y72003D01*
X128846Y72069D01*
X128768Y72133D01*
X128686Y72193D01*
X128603Y72250D01*
X128517Y72304D01*
X128429Y72355D01*
X128340Y72402D01*
X128248Y72446D01*
X128155Y72486D01*
X128061Y72523D01*
X127965Y72555D01*
X127868Y72584D01*
X127770Y72610D01*
X127671Y72631D01*
X127571Y72649D01*
X127471Y72662D01*
X127370Y72672D01*
X127269Y72678D01*
X127168Y72680D01*
X122992Y72680D01*
X122891Y72678D01*
X122790Y72672D01*
X122689Y72662D01*
X122589Y72649D01*
X122489Y72631D01*
X122390Y72610D01*
X122292Y72584D01*
X122195Y72555D01*
X122099Y72523D01*
X122005Y72486D01*
X121912Y72446D01*
X121820Y72402D01*
X121731Y72355D01*
X121643Y72304D01*
X121557Y72250D01*
X121474Y72193D01*
X121392Y72133D01*
X121314Y72069D01*
X121237Y72003D01*
X121164Y71933D01*
X121093Y71861D01*
X121025Y71786D01*
X120960Y71708D01*
X120898Y71628D01*
X120839Y71546D01*
X120783Y71461D01*
X120731Y71375D01*
X120682Y71286D01*
X120636Y71195D01*
X120595Y71103D01*
X120556Y71009D01*
X120522Y70914D01*
X120491Y70818D01*
X120464Y70720D01*
X120440Y70622D01*
X120421Y70522D01*
X120405Y70422D01*
X120393Y70322D01*
X120385Y70221D01*
X120381Y70120D01*
X120381Y70018D01*
X120385Y69917D01*
X120393Y69816D01*
X120405Y69716D01*
X120421Y69616D01*
X120440Y69516D01*
X120464Y69418D01*
X120491Y69320D01*
X120522Y69224D01*
X120556Y69129D01*
X120595Y69035D01*
X120636Y68943D01*
X120682Y68852D01*
X120731Y68764D01*
X120783Y68677D01*
X120839Y68592D01*
X120898Y68510D01*
X120960Y68430D01*
X121025Y68352D01*
X121093Y68277D01*
X121164Y68205D01*
X121237Y68135D01*
X121314Y68069D01*
X121392Y68005D01*
X121474Y67945D01*
X121557Y67888D01*
X121643Y67834D01*
X121731Y67783D01*
X121820Y67736D01*
X121912Y67692D01*
X122005Y67652D01*
X122099Y67615D01*
X122195Y67583D01*
X122292Y67554D01*
X122390Y67528D01*
X122489Y67507D01*
X122589Y67489D01*
X122689Y67476D01*
X122790Y67466D01*
X122891Y67460D01*
X122992Y67458D01*
X129779Y76256D02*
X120381Y78344D01*
X126646Y80432D01*
X120381Y82521D01*
X129779Y84609D01*
X129779Y88490D02*
X120381Y88490D01*
X120381Y93711D02*
X129779Y88490D01*
X129779Y93711D02*
X120381Y93711D01*
X120381Y102293D02*
X129779Y105426D01*
X120381Y108559D01*
X122731Y107775D02*
X122731Y103076D01*
X120381Y114787D02*
X120383Y114876D01*
X120389Y114964D01*
X120398Y115052D01*
X120411Y115140D01*
X120428Y115227D01*
X120448Y115313D01*
X120473Y115398D01*
X120500Y115483D01*
X120532Y115566D01*
X120566Y115647D01*
X120605Y115727D01*
X120646Y115805D01*
X120691Y115882D01*
X120739Y115956D01*
X120790Y116029D01*
X120844Y116099D01*
X120902Y116166D01*
X120962Y116232D01*
X121024Y116294D01*
X121090Y116354D01*
X121157Y116412D01*
X121227Y116466D01*
X121300Y116517D01*
X121374Y116565D01*
X121451Y116610D01*
X121529Y116651D01*
X121609Y116690D01*
X121690Y116724D01*
X121773Y116756D01*
X121858Y116783D01*
X121943Y116808D01*
X122029Y116828D01*
X122116Y116845D01*
X122204Y116858D01*
X122292Y116867D01*
X122380Y116873D01*
X122469Y116875D01*
X120381Y114787D02*
X120383Y114658D01*
X120389Y114529D01*
X120398Y114400D01*
X120411Y114272D01*
X120428Y114144D01*
X120449Y114017D01*
X120473Y113890D01*
X120501Y113764D01*
X120533Y113639D01*
X120568Y113515D01*
X120607Y113392D01*
X120650Y113270D01*
X120696Y113150D01*
X120746Y113031D01*
X120799Y112913D01*
X120855Y112797D01*
X120915Y112683D01*
X120978Y112570D01*
X121045Y112460D01*
X121114Y112351D01*
X121187Y112245D01*
X121263Y112140D01*
X121342Y112038D01*
X121424Y111939D01*
X121508Y111841D01*
X121596Y111746D01*
X121686Y111654D01*
X127691Y111916D02*
X127780Y111918D01*
X127868Y111924D01*
X127956Y111933D01*
X128044Y111946D01*
X128131Y111963D01*
X128217Y111983D01*
X128302Y112008D01*
X128387Y112035D01*
X128470Y112067D01*
X128551Y112101D01*
X128631Y112140D01*
X128709Y112181D01*
X128786Y112226D01*
X128860Y112274D01*
X128933Y112325D01*
X129003Y112379D01*
X129070Y112437D01*
X129136Y112497D01*
X129198Y112559D01*
X129258Y112625D01*
X129316Y112692D01*
X129370Y112762D01*
X129421Y112835D01*
X129469Y112909D01*
X129514Y112986D01*
X129555Y113064D01*
X129594Y113144D01*
X129628Y113225D01*
X129660Y113308D01*
X129687Y113393D01*
X129712Y113478D01*
X129732Y113564D01*
X129749Y113651D01*
X129762Y113739D01*
X129771Y113827D01*
X129777Y113915D01*
X129779Y114004D01*
X129777Y114124D01*
X129772Y114244D01*
X129762Y114364D01*
X129750Y114483D01*
X129733Y114602D01*
X129713Y114720D01*
X129689Y114838D01*
X129662Y114954D01*
X129631Y115070D01*
X129597Y115185D01*
X129559Y115299D01*
X129517Y115412D01*
X129472Y115523D01*
X129424Y115633D01*
X129373Y115741D01*
X129318Y115848D01*
X129260Y115953D01*
X129198Y116056D01*
X129134Y116157D01*
X129066Y116257D01*
X128996Y116354D01*
X125864Y112960D02*
X125912Y112882D01*
X125964Y112806D01*
X126018Y112733D01*
X126076Y112662D01*
X126137Y112593D01*
X126201Y112527D01*
X126268Y112464D01*
X126337Y112404D01*
X126409Y112347D01*
X126483Y112293D01*
X126560Y112243D01*
X126639Y112195D01*
X126719Y112152D01*
X126802Y112111D01*
X126886Y112075D01*
X126971Y112042D01*
X127058Y112013D01*
X127147Y111987D01*
X127236Y111965D01*
X127326Y111948D01*
X127416Y111934D01*
X127508Y111924D01*
X127599Y111918D01*
X127691Y111916D01*
X124296Y115832D02*
X124248Y115910D01*
X124196Y115986D01*
X124142Y116059D01*
X124084Y116130D01*
X124023Y116199D01*
X123959Y116265D01*
X123892Y116328D01*
X123823Y116388D01*
X123751Y116445D01*
X123677Y116499D01*
X123600Y116549D01*
X123521Y116597D01*
X123441Y116640D01*
X123358Y116681D01*
X123274Y116717D01*
X123189Y116750D01*
X123102Y116779D01*
X123013Y116805D01*
X122924Y116827D01*
X122834Y116844D01*
X122744Y116858D01*
X122652Y116868D01*
X122561Y116874D01*
X122469Y116876D01*
X124297Y115831D02*
X125863Y112960D01*
X120381Y123321D02*
X120383Y123410D01*
X120389Y123498D01*
X120398Y123586D01*
X120411Y123674D01*
X120428Y123761D01*
X120448Y123847D01*
X120473Y123932D01*
X120500Y124017D01*
X120532Y124100D01*
X120566Y124181D01*
X120605Y124261D01*
X120646Y124339D01*
X120691Y124416D01*
X120739Y124490D01*
X120790Y124563D01*
X120844Y124633D01*
X120902Y124700D01*
X120962Y124766D01*
X121024Y124828D01*
X121090Y124888D01*
X121157Y124946D01*
X121227Y125000D01*
X121300Y125051D01*
X121374Y125099D01*
X121451Y125144D01*
X121529Y125185D01*
X121609Y125224D01*
X121690Y125258D01*
X121773Y125290D01*
X121858Y125317D01*
X121943Y125342D01*
X122029Y125362D01*
X122116Y125379D01*
X122204Y125392D01*
X122292Y125401D01*
X122380Y125407D01*
X122469Y125409D01*
X120381Y123321D02*
X120383Y123192D01*
X120389Y123063D01*
X120398Y122934D01*
X120411Y122806D01*
X120428Y122678D01*
X120449Y122551D01*
X120473Y122424D01*
X120501Y122298D01*
X120533Y122173D01*
X120568Y122049D01*
X120607Y121926D01*
X120650Y121804D01*
X120696Y121684D01*
X120746Y121565D01*
X120799Y121447D01*
X120855Y121331D01*
X120915Y121217D01*
X120978Y121104D01*
X121045Y120994D01*
X121114Y120885D01*
X121187Y120779D01*
X121263Y120674D01*
X121342Y120572D01*
X121424Y120473D01*
X121508Y120375D01*
X121596Y120280D01*
X121686Y120188D01*
X127691Y120450D02*
X127780Y120452D01*
X127868Y120458D01*
X127956Y120467D01*
X128044Y120480D01*
X128131Y120497D01*
X128217Y120517D01*
X128302Y120542D01*
X128387Y120569D01*
X128470Y120601D01*
X128551Y120635D01*
X128631Y120674D01*
X128709Y120715D01*
X128786Y120760D01*
X128860Y120808D01*
X128933Y120859D01*
X129003Y120913D01*
X129070Y120971D01*
X129136Y121031D01*
X129198Y121093D01*
X129258Y121159D01*
X129316Y121226D01*
X129370Y121296D01*
X129421Y121369D01*
X129469Y121443D01*
X129514Y121520D01*
X129555Y121598D01*
X129594Y121678D01*
X129628Y121759D01*
X129660Y121842D01*
X129687Y121927D01*
X129712Y122012D01*
X129732Y122098D01*
X129749Y122185D01*
X129762Y122273D01*
X129771Y122361D01*
X129777Y122449D01*
X129779Y122538D01*
X129777Y122658D01*
X129772Y122778D01*
X129762Y122898D01*
X129750Y123017D01*
X129733Y123136D01*
X129713Y123254D01*
X129689Y123372D01*
X129662Y123488D01*
X129631Y123604D01*
X129597Y123719D01*
X129559Y123833D01*
X129517Y123946D01*
X129472Y124057D01*
X129424Y124167D01*
X129373Y124275D01*
X129318Y124382D01*
X129260Y124487D01*
X129198Y124590D01*
X129134Y124691D01*
X129066Y124791D01*
X128996Y124888D01*
X125864Y121494D02*
X125912Y121416D01*
X125964Y121340D01*
X126018Y121267D01*
X126076Y121196D01*
X126137Y121127D01*
X126201Y121061D01*
X126268Y120998D01*
X126337Y120938D01*
X126409Y120881D01*
X126483Y120827D01*
X126560Y120777D01*
X126639Y120729D01*
X126719Y120686D01*
X126802Y120645D01*
X126886Y120609D01*
X126971Y120576D01*
X127058Y120547D01*
X127147Y120521D01*
X127236Y120499D01*
X127326Y120482D01*
X127416Y120468D01*
X127508Y120458D01*
X127599Y120452D01*
X127691Y120450D01*
X124296Y124366D02*
X124248Y124444D01*
X124196Y124520D01*
X124142Y124593D01*
X124084Y124664D01*
X124023Y124733D01*
X123959Y124799D01*
X123892Y124862D01*
X123823Y124922D01*
X123751Y124979D01*
X123677Y125033D01*
X123600Y125083D01*
X123521Y125131D01*
X123441Y125174D01*
X123358Y125215D01*
X123274Y125251D01*
X123189Y125284D01*
X123102Y125313D01*
X123013Y125339D01*
X122924Y125361D01*
X122834Y125378D01*
X122744Y125392D01*
X122652Y125402D01*
X122561Y125408D01*
X122469Y125410D01*
X124297Y124366D02*
X125863Y121494D01*
X120381Y129350D02*
X120381Y133527D01*
X120381Y129350D02*
X129779Y129350D01*
X129779Y133527D01*
X125602Y132483D02*
X125602Y129350D01*
X129779Y137345D02*
X120381Y137345D01*
X124558Y140478D02*
X129779Y137345D01*
X124558Y140478D02*
X129779Y143610D01*
X120381Y143610D01*
X125602Y148362D02*
X125602Y150972D01*
X125603Y150972D02*
X125601Y151073D01*
X125595Y151174D01*
X125585Y151275D01*
X125572Y151375D01*
X125554Y151475D01*
X125533Y151574D01*
X125507Y151672D01*
X125478Y151769D01*
X125446Y151865D01*
X125409Y151959D01*
X125369Y152052D01*
X125325Y152144D01*
X125278Y152233D01*
X125227Y152321D01*
X125173Y152407D01*
X125116Y152490D01*
X125056Y152572D01*
X124992Y152650D01*
X124926Y152727D01*
X124856Y152800D01*
X124784Y152871D01*
X124709Y152939D01*
X124631Y153004D01*
X124551Y153066D01*
X124469Y153125D01*
X124384Y153181D01*
X124298Y153233D01*
X124209Y153282D01*
X124118Y153328D01*
X124026Y153369D01*
X123932Y153408D01*
X123837Y153442D01*
X123741Y153473D01*
X123643Y153500D01*
X123545Y153524D01*
X123445Y153543D01*
X123345Y153559D01*
X123245Y153571D01*
X123144Y153579D01*
X123043Y153583D01*
X122941Y153583D01*
X122840Y153579D01*
X122739Y153571D01*
X122639Y153559D01*
X122539Y153543D01*
X122439Y153524D01*
X122341Y153500D01*
X122243Y153473D01*
X122147Y153442D01*
X122052Y153408D01*
X121958Y153369D01*
X121866Y153328D01*
X121775Y153282D01*
X121687Y153233D01*
X121600Y153181D01*
X121515Y153125D01*
X121433Y153066D01*
X121353Y153004D01*
X121275Y152939D01*
X121200Y152871D01*
X121128Y152800D01*
X121058Y152727D01*
X120992Y152650D01*
X120928Y152572D01*
X120868Y152490D01*
X120811Y152407D01*
X120757Y152321D01*
X120706Y152233D01*
X120659Y152144D01*
X120615Y152052D01*
X120575Y151959D01*
X120538Y151865D01*
X120506Y151769D01*
X120477Y151672D01*
X120451Y151574D01*
X120430Y151475D01*
X120412Y151375D01*
X120399Y151275D01*
X120389Y151174D01*
X120383Y151073D01*
X120381Y150972D01*
X120381Y148362D01*
X129779Y148362D01*
X129779Y150972D01*
X129777Y151062D01*
X129771Y151151D01*
X129762Y151241D01*
X129748Y151330D01*
X129731Y151418D01*
X129710Y151505D01*
X129685Y151592D01*
X129656Y151677D01*
X129624Y151761D01*
X129589Y151843D01*
X129549Y151924D01*
X129507Y152003D01*
X129461Y152080D01*
X129411Y152155D01*
X129359Y152228D01*
X129303Y152299D01*
X129245Y152367D01*
X129183Y152432D01*
X129119Y152495D01*
X129052Y152555D01*
X128983Y152612D01*
X128911Y152666D01*
X128837Y152717D01*
X128761Y152765D01*
X128683Y152809D01*
X128603Y152850D01*
X128521Y152888D01*
X128438Y152922D01*
X128353Y152952D01*
X128267Y152979D01*
X128181Y153002D01*
X128093Y153021D01*
X128004Y153036D01*
X127915Y153048D01*
X127826Y153056D01*
X127736Y153060D01*
X127646Y153060D01*
X127556Y153056D01*
X127467Y153048D01*
X127378Y153036D01*
X127289Y153021D01*
X127201Y153002D01*
X127115Y152979D01*
X127029Y152952D01*
X126944Y152922D01*
X126861Y152888D01*
X126779Y152850D01*
X126699Y152809D01*
X126621Y152765D01*
X126545Y152717D01*
X126471Y152666D01*
X126399Y152612D01*
X126330Y152555D01*
X126263Y152495D01*
X126199Y152432D01*
X126137Y152367D01*
X126079Y152299D01*
X126023Y152228D01*
X125971Y152155D01*
X125921Y152080D01*
X125875Y152003D01*
X125833Y151924D01*
X125793Y151843D01*
X125758Y151761D01*
X125726Y151677D01*
X125697Y151592D01*
X125672Y151505D01*
X125651Y151418D01*
X125634Y151330D01*
X125620Y151241D01*
X125611Y151151D01*
X125605Y151062D01*
X125603Y150972D01*
X129779Y157392D02*
X120381Y157392D01*
X120381Y161569D01*
X125341Y167605D02*
X129779Y164472D01*
X125341Y167605D02*
X129779Y170737D01*
X125341Y167605D02*
X120381Y167605D01*
X121164Y178926D02*
X121686Y178926D01*
X121686Y179448D01*
X121164Y179448D01*
X121164Y178926D01*
X125341Y178926D02*
X125863Y178926D01*
X125863Y179448D01*
X125341Y179448D01*
X125341Y178926D01*
X129779Y190160D02*
X120381Y190160D01*
X129779Y187549D02*
X129779Y192770D01*
X120381Y196406D02*
X120381Y200583D01*
X120381Y196406D02*
X129779Y196406D01*
X129779Y200583D01*
X125602Y199539D02*
X125602Y196406D01*
X129779Y206009D02*
X120381Y206009D01*
X129779Y203399D02*
X129779Y208620D01*
X129779Y212238D02*
X120381Y212238D01*
X125602Y212238D02*
X125602Y217459D01*
X129779Y217459D02*
X120381Y217459D01*
X120381Y222009D02*
X120381Y226186D01*
X120381Y222009D02*
X129779Y222009D01*
X129779Y226186D01*
X125602Y225142D02*
X125602Y222009D01*
X129779Y229973D02*
X120381Y229973D01*
X129779Y229973D02*
X129779Y232584D01*
X129777Y232685D01*
X129771Y232786D01*
X129761Y232887D01*
X129748Y232987D01*
X129730Y233087D01*
X129709Y233186D01*
X129683Y233284D01*
X129654Y233381D01*
X129622Y233477D01*
X129585Y233571D01*
X129545Y233664D01*
X129501Y233756D01*
X129454Y233845D01*
X129403Y233933D01*
X129349Y234019D01*
X129292Y234102D01*
X129232Y234184D01*
X129168Y234262D01*
X129102Y234339D01*
X129032Y234412D01*
X128960Y234483D01*
X128885Y234551D01*
X128807Y234616D01*
X128727Y234678D01*
X128645Y234737D01*
X128560Y234793D01*
X128474Y234845D01*
X128385Y234894D01*
X128294Y234940D01*
X128202Y234981D01*
X128108Y235020D01*
X128013Y235054D01*
X127917Y235085D01*
X127819Y235112D01*
X127721Y235136D01*
X127621Y235155D01*
X127521Y235171D01*
X127421Y235183D01*
X127320Y235191D01*
X127219Y235195D01*
X127117Y235195D01*
X127016Y235191D01*
X126915Y235183D01*
X126815Y235171D01*
X126715Y235155D01*
X126615Y235136D01*
X126517Y235112D01*
X126419Y235085D01*
X126323Y235054D01*
X126228Y235020D01*
X126134Y234981D01*
X126042Y234940D01*
X125951Y234894D01*
X125863Y234845D01*
X125776Y234793D01*
X125691Y234737D01*
X125609Y234678D01*
X125529Y234616D01*
X125451Y234551D01*
X125376Y234483D01*
X125304Y234412D01*
X125234Y234339D01*
X125168Y234262D01*
X125104Y234184D01*
X125044Y234102D01*
X124987Y234019D01*
X124933Y233933D01*
X124882Y233845D01*
X124835Y233756D01*
X124791Y233664D01*
X124751Y233571D01*
X124714Y233477D01*
X124682Y233381D01*
X124653Y233284D01*
X124627Y233186D01*
X124606Y233087D01*
X124588Y232987D01*
X124575Y232887D01*
X124565Y232786D01*
X124559Y232685D01*
X124557Y232584D01*
X124558Y232584D02*
X124558Y229973D01*
X124558Y233106D02*
X120381Y235194D01*
X120381Y246000D02*
X120381Y248088D01*
X120381Y246000D02*
X120383Y245911D01*
X120389Y245823D01*
X120398Y245735D01*
X120411Y245647D01*
X120428Y245560D01*
X120448Y245474D01*
X120473Y245389D01*
X120500Y245304D01*
X120532Y245221D01*
X120566Y245140D01*
X120605Y245060D01*
X120646Y244982D01*
X120691Y244905D01*
X120739Y244831D01*
X120790Y244758D01*
X120844Y244688D01*
X120902Y244621D01*
X120962Y244555D01*
X121024Y244493D01*
X121090Y244433D01*
X121157Y244375D01*
X121227Y244321D01*
X121300Y244270D01*
X121374Y244222D01*
X121451Y244177D01*
X121529Y244136D01*
X121609Y244097D01*
X121690Y244063D01*
X121773Y244031D01*
X121858Y244004D01*
X121943Y243979D01*
X122029Y243959D01*
X122116Y243942D01*
X122204Y243929D01*
X122292Y243920D01*
X122380Y243914D01*
X122469Y243912D01*
X122469Y243911D02*
X127691Y243911D01*
X127691Y243912D02*
X127782Y243914D01*
X127873Y243920D01*
X127964Y243930D01*
X128054Y243944D01*
X128143Y243961D01*
X128231Y243983D01*
X128319Y244009D01*
X128405Y244038D01*
X128490Y244071D01*
X128573Y244108D01*
X128655Y244148D01*
X128735Y244192D01*
X128813Y244239D01*
X128889Y244290D01*
X128962Y244343D01*
X129033Y244400D01*
X129102Y244461D01*
X129167Y244524D01*
X129230Y244589D01*
X129290Y244658D01*
X129348Y244729D01*
X129401Y244802D01*
X129452Y244878D01*
X129499Y244956D01*
X129543Y245036D01*
X129583Y245118D01*
X129620Y245201D01*
X129653Y245286D01*
X129682Y245372D01*
X129708Y245460D01*
X129730Y245548D01*
X129747Y245637D01*
X129761Y245727D01*
X129771Y245818D01*
X129777Y245909D01*
X129779Y246000D01*
X129779Y248088D01*
X129779Y251862D02*
X122992Y251862D01*
X122992Y251861D02*
X122891Y251863D01*
X122790Y251869D01*
X122689Y251879D01*
X122589Y251892D01*
X122489Y251910D01*
X122390Y251931D01*
X122292Y251957D01*
X122195Y251986D01*
X122099Y252018D01*
X122005Y252055D01*
X121912Y252095D01*
X121820Y252139D01*
X121731Y252186D01*
X121643Y252237D01*
X121557Y252291D01*
X121474Y252348D01*
X121392Y252408D01*
X121314Y252472D01*
X121237Y252538D01*
X121164Y252608D01*
X121093Y252680D01*
X121025Y252755D01*
X120960Y252833D01*
X120898Y252913D01*
X120839Y252995D01*
X120783Y253080D01*
X120731Y253167D01*
X120682Y253255D01*
X120636Y253346D01*
X120595Y253438D01*
X120556Y253532D01*
X120522Y253627D01*
X120491Y253723D01*
X120464Y253821D01*
X120440Y253919D01*
X120421Y254019D01*
X120405Y254119D01*
X120393Y254219D01*
X120385Y254320D01*
X120381Y254421D01*
X120381Y254523D01*
X120385Y254624D01*
X120393Y254725D01*
X120405Y254825D01*
X120421Y254925D01*
X120440Y255025D01*
X120464Y255123D01*
X120491Y255221D01*
X120522Y255317D01*
X120556Y255412D01*
X120595Y255506D01*
X120636Y255598D01*
X120682Y255689D01*
X120731Y255778D01*
X120783Y255864D01*
X120839Y255949D01*
X120898Y256031D01*
X120960Y256111D01*
X121025Y256189D01*
X121093Y256264D01*
X121164Y256336D01*
X121237Y256406D01*
X121314Y256472D01*
X121392Y256536D01*
X121474Y256596D01*
X121557Y256653D01*
X121643Y256707D01*
X121731Y256758D01*
X121820Y256805D01*
X121912Y256849D01*
X122005Y256889D01*
X122099Y256926D01*
X122195Y256958D01*
X122292Y256987D01*
X122390Y257013D01*
X122489Y257034D01*
X122589Y257052D01*
X122689Y257065D01*
X122790Y257075D01*
X122891Y257081D01*
X122992Y257083D01*
X129779Y257083D01*
X129779Y263311D02*
X120381Y263311D01*
X129779Y260701D02*
X129779Y265922D01*
X129779Y269540D02*
X120381Y269540D01*
X129779Y269540D02*
X129779Y272151D01*
X129777Y272251D01*
X129771Y272351D01*
X129762Y272450D01*
X129748Y272550D01*
X129731Y272648D01*
X129710Y272746D01*
X129686Y272843D01*
X129657Y272939D01*
X129625Y273034D01*
X129590Y273127D01*
X129551Y273219D01*
X129508Y273310D01*
X129462Y273398D01*
X129412Y273485D01*
X129360Y273570D01*
X129304Y273653D01*
X129245Y273734D01*
X129182Y273812D01*
X129117Y273888D01*
X129049Y273962D01*
X128979Y274032D01*
X128905Y274100D01*
X128829Y274165D01*
X128751Y274228D01*
X128670Y274287D01*
X128587Y274343D01*
X128502Y274395D01*
X128415Y274445D01*
X128327Y274491D01*
X128236Y274534D01*
X128144Y274573D01*
X128051Y274608D01*
X127956Y274640D01*
X127860Y274669D01*
X127763Y274693D01*
X127665Y274714D01*
X127567Y274731D01*
X127467Y274745D01*
X127368Y274754D01*
X127268Y274760D01*
X127168Y274762D01*
X127168Y274761D02*
X122992Y274761D01*
X122992Y274762D02*
X122892Y274760D01*
X122792Y274754D01*
X122693Y274745D01*
X122593Y274731D01*
X122495Y274714D01*
X122397Y274693D01*
X122300Y274669D01*
X122204Y274640D01*
X122109Y274608D01*
X122016Y274573D01*
X121924Y274534D01*
X121833Y274491D01*
X121745Y274445D01*
X121658Y274395D01*
X121573Y274343D01*
X121490Y274287D01*
X121409Y274228D01*
X121331Y274165D01*
X121255Y274100D01*
X121181Y274032D01*
X121111Y273962D01*
X121043Y273888D01*
X120978Y273812D01*
X120915Y273734D01*
X120856Y273653D01*
X120800Y273570D01*
X120748Y273485D01*
X120698Y273398D01*
X120652Y273310D01*
X120609Y273219D01*
X120570Y273127D01*
X120535Y273034D01*
X120503Y272939D01*
X120474Y272843D01*
X120450Y272746D01*
X120429Y272648D01*
X120412Y272550D01*
X120398Y272450D01*
X120389Y272351D01*
X120383Y272251D01*
X120381Y272151D01*
X120381Y269540D01*
X122992Y278989D02*
X127168Y278989D01*
X127168Y278988D02*
X127269Y278990D01*
X127370Y278996D01*
X127471Y279006D01*
X127571Y279019D01*
X127671Y279037D01*
X127770Y279058D01*
X127868Y279084D01*
X127965Y279113D01*
X128061Y279145D01*
X128155Y279182D01*
X128248Y279222D01*
X128340Y279266D01*
X128429Y279313D01*
X128517Y279364D01*
X128603Y279418D01*
X128686Y279475D01*
X128768Y279535D01*
X128846Y279599D01*
X128923Y279665D01*
X128996Y279735D01*
X129067Y279807D01*
X129135Y279882D01*
X129200Y279960D01*
X129262Y280040D01*
X129321Y280122D01*
X129377Y280207D01*
X129429Y280294D01*
X129478Y280382D01*
X129524Y280473D01*
X129565Y280565D01*
X129604Y280659D01*
X129638Y280754D01*
X129669Y280850D01*
X129696Y280948D01*
X129720Y281046D01*
X129739Y281146D01*
X129755Y281246D01*
X129767Y281346D01*
X129775Y281447D01*
X129779Y281548D01*
X129779Y281650D01*
X129775Y281751D01*
X129767Y281852D01*
X129755Y281952D01*
X129739Y282052D01*
X129720Y282152D01*
X129696Y282250D01*
X129669Y282348D01*
X129638Y282444D01*
X129604Y282539D01*
X129565Y282633D01*
X129524Y282725D01*
X129478Y282816D01*
X129429Y282904D01*
X129377Y282991D01*
X129321Y283076D01*
X129262Y283158D01*
X129200Y283238D01*
X129135Y283316D01*
X129067Y283391D01*
X128996Y283463D01*
X128923Y283533D01*
X128846Y283599D01*
X128768Y283663D01*
X128686Y283723D01*
X128603Y283780D01*
X128517Y283834D01*
X128429Y283885D01*
X128340Y283932D01*
X128248Y283976D01*
X128155Y284016D01*
X128061Y284053D01*
X127965Y284085D01*
X127868Y284114D01*
X127770Y284140D01*
X127671Y284161D01*
X127571Y284179D01*
X127471Y284192D01*
X127370Y284202D01*
X127269Y284208D01*
X127168Y284210D01*
X122992Y284210D01*
X122891Y284208D01*
X122790Y284202D01*
X122689Y284192D01*
X122589Y284179D01*
X122489Y284161D01*
X122390Y284140D01*
X122292Y284114D01*
X122195Y284085D01*
X122099Y284053D01*
X122005Y284016D01*
X121912Y283976D01*
X121820Y283932D01*
X121731Y283885D01*
X121643Y283834D01*
X121557Y283780D01*
X121474Y283723D01*
X121392Y283663D01*
X121314Y283599D01*
X121237Y283533D01*
X121164Y283463D01*
X121093Y283391D01*
X121025Y283316D01*
X120960Y283238D01*
X120898Y283158D01*
X120839Y283076D01*
X120783Y282991D01*
X120731Y282905D01*
X120682Y282816D01*
X120636Y282725D01*
X120595Y282633D01*
X120556Y282539D01*
X120522Y282444D01*
X120491Y282348D01*
X120464Y282250D01*
X120440Y282152D01*
X120421Y282052D01*
X120405Y281952D01*
X120393Y281852D01*
X120385Y281751D01*
X120381Y281650D01*
X120381Y281548D01*
X120385Y281447D01*
X120393Y281346D01*
X120405Y281246D01*
X120421Y281146D01*
X120440Y281046D01*
X120464Y280948D01*
X120491Y280850D01*
X120522Y280754D01*
X120556Y280659D01*
X120595Y280565D01*
X120636Y280473D01*
X120682Y280382D01*
X120731Y280294D01*
X120783Y280207D01*
X120839Y280122D01*
X120898Y280040D01*
X120960Y279960D01*
X121025Y279882D01*
X121093Y279807D01*
X121164Y279735D01*
X121237Y279665D01*
X121314Y279599D01*
X121392Y279535D01*
X121474Y279475D01*
X121557Y279418D01*
X121643Y279364D01*
X121731Y279313D01*
X121820Y279266D01*
X121912Y279222D01*
X122005Y279182D01*
X122099Y279145D01*
X122195Y279113D01*
X122292Y279084D01*
X122390Y279058D01*
X122489Y279037D01*
X122589Y279019D01*
X122689Y279006D01*
X122790Y278996D01*
X122891Y278990D01*
X122992Y278988D01*
X129779Y287786D02*
X120381Y289874D01*
X126646Y291963D01*
X120381Y294051D01*
X129779Y296139D01*
X129779Y300020D02*
X120381Y300020D01*
X120381Y305241D02*
X129779Y300020D01*
X129779Y305241D02*
X120381Y305241D01*
X125602Y318305D02*
X125602Y319871D01*
X120381Y319871D01*
X120381Y316739D01*
X120383Y316650D01*
X120389Y316562D01*
X120398Y316474D01*
X120411Y316386D01*
X120428Y316299D01*
X120448Y316213D01*
X120473Y316128D01*
X120500Y316043D01*
X120532Y315960D01*
X120566Y315879D01*
X120605Y315799D01*
X120646Y315721D01*
X120691Y315644D01*
X120739Y315570D01*
X120790Y315497D01*
X120844Y315427D01*
X120902Y315360D01*
X120962Y315294D01*
X121024Y315232D01*
X121090Y315172D01*
X121157Y315114D01*
X121227Y315060D01*
X121300Y315009D01*
X121374Y314961D01*
X121451Y314916D01*
X121529Y314875D01*
X121609Y314836D01*
X121690Y314802D01*
X121773Y314770D01*
X121858Y314743D01*
X121943Y314718D01*
X122029Y314698D01*
X122116Y314681D01*
X122204Y314668D01*
X122292Y314659D01*
X122380Y314653D01*
X122469Y314651D01*
X122469Y314650D02*
X127691Y314650D01*
X127691Y314651D02*
X127782Y314653D01*
X127873Y314659D01*
X127964Y314669D01*
X128054Y314683D01*
X128143Y314700D01*
X128231Y314722D01*
X128319Y314748D01*
X128405Y314777D01*
X128490Y314810D01*
X128573Y314847D01*
X128655Y314887D01*
X128735Y314931D01*
X128813Y314978D01*
X128889Y315029D01*
X128962Y315082D01*
X129033Y315139D01*
X129102Y315200D01*
X129167Y315263D01*
X129230Y315328D01*
X129290Y315397D01*
X129348Y315468D01*
X129401Y315541D01*
X129452Y315617D01*
X129499Y315695D01*
X129543Y315775D01*
X129583Y315857D01*
X129620Y315940D01*
X129653Y316025D01*
X129682Y316111D01*
X129708Y316199D01*
X129730Y316287D01*
X129747Y316376D01*
X129761Y316466D01*
X129771Y316557D01*
X129777Y316648D01*
X129779Y316739D01*
X129779Y319871D01*
X127168Y324099D02*
X122992Y324099D01*
X127168Y324099D02*
X127269Y324101D01*
X127370Y324107D01*
X127471Y324117D01*
X127571Y324130D01*
X127671Y324148D01*
X127770Y324169D01*
X127868Y324195D01*
X127965Y324224D01*
X128061Y324256D01*
X128155Y324293D01*
X128248Y324333D01*
X128340Y324377D01*
X128429Y324424D01*
X128517Y324475D01*
X128603Y324529D01*
X128686Y324586D01*
X128768Y324646D01*
X128846Y324710D01*
X128923Y324776D01*
X128996Y324846D01*
X129067Y324918D01*
X129135Y324993D01*
X129200Y325071D01*
X129262Y325151D01*
X129321Y325233D01*
X129377Y325318D01*
X129429Y325405D01*
X129478Y325493D01*
X129524Y325584D01*
X129565Y325676D01*
X129604Y325770D01*
X129638Y325865D01*
X129669Y325961D01*
X129696Y326059D01*
X129720Y326157D01*
X129739Y326257D01*
X129755Y326357D01*
X129767Y326457D01*
X129775Y326558D01*
X129779Y326659D01*
X129779Y326761D01*
X129775Y326862D01*
X129767Y326963D01*
X129755Y327063D01*
X129739Y327163D01*
X129720Y327263D01*
X129696Y327361D01*
X129669Y327459D01*
X129638Y327555D01*
X129604Y327650D01*
X129565Y327744D01*
X129524Y327836D01*
X129478Y327927D01*
X129429Y328015D01*
X129377Y328102D01*
X129321Y328187D01*
X129262Y328269D01*
X129200Y328349D01*
X129135Y328427D01*
X129067Y328502D01*
X128996Y328574D01*
X128923Y328644D01*
X128846Y328710D01*
X128768Y328774D01*
X128686Y328834D01*
X128603Y328891D01*
X128517Y328945D01*
X128429Y328996D01*
X128340Y329043D01*
X128248Y329087D01*
X128155Y329127D01*
X128061Y329164D01*
X127965Y329196D01*
X127868Y329225D01*
X127770Y329251D01*
X127671Y329272D01*
X127571Y329290D01*
X127471Y329303D01*
X127370Y329313D01*
X127269Y329319D01*
X127168Y329321D01*
X127168Y329320D02*
X122992Y329320D01*
X122992Y329321D02*
X122891Y329319D01*
X122790Y329313D01*
X122689Y329303D01*
X122589Y329290D01*
X122489Y329272D01*
X122390Y329251D01*
X122292Y329225D01*
X122195Y329196D01*
X122099Y329164D01*
X122005Y329127D01*
X121912Y329087D01*
X121820Y329043D01*
X121731Y328996D01*
X121643Y328945D01*
X121557Y328891D01*
X121474Y328834D01*
X121392Y328774D01*
X121314Y328710D01*
X121237Y328644D01*
X121164Y328574D01*
X121093Y328502D01*
X121025Y328427D01*
X120960Y328349D01*
X120898Y328269D01*
X120839Y328187D01*
X120783Y328102D01*
X120731Y328016D01*
X120682Y327927D01*
X120636Y327836D01*
X120595Y327744D01*
X120556Y327650D01*
X120522Y327555D01*
X120491Y327459D01*
X120464Y327361D01*
X120440Y327263D01*
X120421Y327163D01*
X120405Y327063D01*
X120393Y326963D01*
X120385Y326862D01*
X120381Y326761D01*
X120381Y326659D01*
X120385Y326558D01*
X120393Y326457D01*
X120405Y326357D01*
X120421Y326257D01*
X120440Y326157D01*
X120464Y326059D01*
X120491Y325961D01*
X120522Y325865D01*
X120556Y325770D01*
X120595Y325676D01*
X120636Y325584D01*
X120682Y325493D01*
X120731Y325405D01*
X120783Y325318D01*
X120839Y325233D01*
X120898Y325151D01*
X120960Y325071D01*
X121025Y324993D01*
X121093Y324918D01*
X121164Y324846D01*
X121237Y324776D01*
X121314Y324710D01*
X121392Y324646D01*
X121474Y324586D01*
X121557Y324529D01*
X121643Y324475D01*
X121731Y324424D01*
X121820Y324377D01*
X121912Y324333D01*
X122005Y324293D01*
X122099Y324256D01*
X122195Y324224D01*
X122292Y324195D01*
X122390Y324169D01*
X122489Y324148D01*
X122589Y324130D01*
X122689Y324117D01*
X122790Y324107D01*
X122891Y324101D01*
X122992Y324099D01*
X120381Y333565D02*
X120381Y337742D01*
X120381Y333565D02*
X129779Y333565D01*
X129779Y337742D01*
X125602Y336698D02*
X125602Y333565D01*
X120381Y343996D02*
X120383Y344085D01*
X120389Y344173D01*
X120398Y344261D01*
X120411Y344349D01*
X120428Y344436D01*
X120448Y344522D01*
X120473Y344607D01*
X120500Y344692D01*
X120532Y344775D01*
X120566Y344856D01*
X120605Y344936D01*
X120646Y345014D01*
X120691Y345091D01*
X120739Y345165D01*
X120790Y345238D01*
X120844Y345308D01*
X120902Y345375D01*
X120962Y345441D01*
X121024Y345503D01*
X121090Y345563D01*
X121157Y345621D01*
X121227Y345675D01*
X121300Y345726D01*
X121374Y345774D01*
X121451Y345819D01*
X121529Y345860D01*
X121609Y345899D01*
X121690Y345933D01*
X121773Y345965D01*
X121858Y345992D01*
X121943Y346017D01*
X122029Y346037D01*
X122116Y346054D01*
X122204Y346067D01*
X122292Y346076D01*
X122380Y346082D01*
X122469Y346084D01*
X120381Y343996D02*
X120383Y343867D01*
X120389Y343738D01*
X120398Y343609D01*
X120411Y343481D01*
X120428Y343353D01*
X120449Y343226D01*
X120473Y343099D01*
X120501Y342973D01*
X120533Y342848D01*
X120568Y342724D01*
X120607Y342601D01*
X120650Y342479D01*
X120696Y342359D01*
X120746Y342240D01*
X120799Y342122D01*
X120855Y342006D01*
X120915Y341892D01*
X120978Y341779D01*
X121045Y341669D01*
X121114Y341560D01*
X121187Y341454D01*
X121263Y341349D01*
X121342Y341247D01*
X121424Y341148D01*
X121508Y341050D01*
X121596Y340955D01*
X121686Y340863D01*
X127691Y341125D02*
X127780Y341127D01*
X127868Y341133D01*
X127956Y341142D01*
X128044Y341155D01*
X128131Y341172D01*
X128217Y341192D01*
X128302Y341217D01*
X128387Y341244D01*
X128470Y341276D01*
X128551Y341310D01*
X128631Y341349D01*
X128709Y341390D01*
X128786Y341435D01*
X128860Y341483D01*
X128933Y341534D01*
X129003Y341588D01*
X129070Y341646D01*
X129136Y341706D01*
X129198Y341768D01*
X129258Y341834D01*
X129316Y341901D01*
X129370Y341971D01*
X129421Y342044D01*
X129469Y342118D01*
X129514Y342195D01*
X129555Y342273D01*
X129594Y342353D01*
X129628Y342434D01*
X129660Y342517D01*
X129687Y342602D01*
X129712Y342687D01*
X129732Y342773D01*
X129749Y342860D01*
X129762Y342948D01*
X129771Y343036D01*
X129777Y343124D01*
X129779Y343213D01*
X129779Y343212D02*
X129777Y343332D01*
X129772Y343452D01*
X129762Y343572D01*
X129750Y343691D01*
X129733Y343810D01*
X129713Y343928D01*
X129689Y344046D01*
X129662Y344162D01*
X129631Y344278D01*
X129597Y344393D01*
X129559Y344507D01*
X129517Y344620D01*
X129472Y344731D01*
X129424Y344841D01*
X129373Y344949D01*
X129318Y345056D01*
X129260Y345161D01*
X129198Y345264D01*
X129134Y345365D01*
X129066Y345465D01*
X128996Y345562D01*
X125864Y342168D02*
X125912Y342090D01*
X125964Y342014D01*
X126018Y341941D01*
X126076Y341870D01*
X126137Y341801D01*
X126201Y341735D01*
X126268Y341672D01*
X126337Y341612D01*
X126409Y341555D01*
X126483Y341501D01*
X126560Y341451D01*
X126639Y341403D01*
X126719Y341360D01*
X126802Y341319D01*
X126886Y341283D01*
X126971Y341250D01*
X127058Y341221D01*
X127147Y341195D01*
X127236Y341173D01*
X127326Y341156D01*
X127416Y341142D01*
X127508Y341132D01*
X127599Y341126D01*
X127691Y341124D01*
X124296Y345040D02*
X124248Y345118D01*
X124196Y345194D01*
X124142Y345267D01*
X124084Y345338D01*
X124023Y345407D01*
X123959Y345473D01*
X123892Y345536D01*
X123823Y345596D01*
X123751Y345653D01*
X123677Y345707D01*
X123600Y345757D01*
X123521Y345805D01*
X123441Y345848D01*
X123358Y345889D01*
X123274Y345925D01*
X123189Y345958D01*
X123102Y345987D01*
X123013Y346013D01*
X122924Y346035D01*
X122834Y346052D01*
X122744Y346066D01*
X122652Y346076D01*
X122561Y346082D01*
X122469Y346084D01*
X124297Y345040D02*
X125863Y342168D01*
X129779Y354884D02*
X120381Y354884D01*
X125602Y354884D02*
X125602Y360105D01*
X129779Y360105D02*
X120381Y360105D01*
X120381Y364655D02*
X120381Y368832D01*
X120381Y364655D02*
X129779Y364655D01*
X129779Y368832D01*
X125602Y367787D02*
X125602Y364655D01*
X129779Y372619D02*
X120381Y372619D01*
X129779Y372619D02*
X129779Y375230D01*
X129777Y375331D01*
X129771Y375432D01*
X129761Y375533D01*
X129748Y375633D01*
X129730Y375733D01*
X129709Y375832D01*
X129683Y375930D01*
X129654Y376027D01*
X129622Y376123D01*
X129585Y376217D01*
X129545Y376310D01*
X129501Y376402D01*
X129454Y376491D01*
X129403Y376579D01*
X129349Y376665D01*
X129292Y376748D01*
X129232Y376830D01*
X129168Y376908D01*
X129102Y376985D01*
X129032Y377058D01*
X128960Y377129D01*
X128885Y377197D01*
X128807Y377262D01*
X128727Y377324D01*
X128645Y377383D01*
X128560Y377439D01*
X128474Y377491D01*
X128385Y377540D01*
X128294Y377586D01*
X128202Y377627D01*
X128108Y377666D01*
X128013Y377700D01*
X127917Y377731D01*
X127819Y377758D01*
X127721Y377782D01*
X127621Y377801D01*
X127521Y377817D01*
X127421Y377829D01*
X127320Y377837D01*
X127219Y377841D01*
X127117Y377841D01*
X127016Y377837D01*
X126915Y377829D01*
X126815Y377817D01*
X126715Y377801D01*
X126615Y377782D01*
X126517Y377758D01*
X126419Y377731D01*
X126323Y377700D01*
X126228Y377666D01*
X126134Y377627D01*
X126042Y377586D01*
X125951Y377540D01*
X125863Y377491D01*
X125776Y377439D01*
X125691Y377383D01*
X125609Y377324D01*
X125529Y377262D01*
X125451Y377197D01*
X125376Y377129D01*
X125304Y377058D01*
X125234Y376985D01*
X125168Y376908D01*
X125104Y376830D01*
X125044Y376748D01*
X124987Y376665D01*
X124933Y376579D01*
X124882Y376491D01*
X124835Y376402D01*
X124791Y376310D01*
X124751Y376217D01*
X124714Y376123D01*
X124682Y376027D01*
X124653Y375930D01*
X124627Y375832D01*
X124606Y375733D01*
X124588Y375633D01*
X124575Y375533D01*
X124565Y375432D01*
X124559Y375331D01*
X124557Y375230D01*
X124558Y375230D02*
X124558Y372619D01*
X124558Y375752D02*
X120381Y377840D01*
X120381Y382028D02*
X120381Y386205D01*
X120381Y382028D02*
X129779Y382028D01*
X129779Y386205D01*
X125602Y385161D02*
X125602Y382028D01*
X124036Y394595D02*
X124036Y400860D01*
X126646Y404958D02*
X124036Y411224D01*
X121425Y404958D01*
X370381Y563381D02*
X370381Y567558D01*
X370381Y563381D02*
X379779Y563381D01*
X379779Y567558D01*
X375602Y566514D02*
X375602Y563381D01*
X379779Y571376D02*
X370381Y571376D01*
X374558Y574508D02*
X379779Y571376D01*
X374558Y574508D02*
X379779Y577641D01*
X370381Y577641D01*
X370381Y584784D02*
X370383Y584873D01*
X370389Y584961D01*
X370398Y585049D01*
X370411Y585137D01*
X370428Y585224D01*
X370448Y585310D01*
X370473Y585395D01*
X370500Y585480D01*
X370532Y585563D01*
X370566Y585644D01*
X370605Y585724D01*
X370646Y585802D01*
X370691Y585879D01*
X370739Y585953D01*
X370790Y586026D01*
X370844Y586096D01*
X370902Y586163D01*
X370962Y586229D01*
X371024Y586291D01*
X371090Y586351D01*
X371157Y586409D01*
X371227Y586463D01*
X371300Y586514D01*
X371374Y586562D01*
X371451Y586607D01*
X371529Y586648D01*
X371609Y586687D01*
X371690Y586721D01*
X371773Y586753D01*
X371858Y586780D01*
X371943Y586805D01*
X372029Y586825D01*
X372116Y586842D01*
X372204Y586855D01*
X372292Y586864D01*
X372380Y586870D01*
X372469Y586872D01*
X370381Y584784D02*
X370383Y584655D01*
X370389Y584526D01*
X370398Y584397D01*
X370411Y584269D01*
X370428Y584141D01*
X370449Y584014D01*
X370473Y583887D01*
X370501Y583761D01*
X370533Y583636D01*
X370568Y583512D01*
X370607Y583389D01*
X370650Y583267D01*
X370696Y583147D01*
X370746Y583028D01*
X370799Y582910D01*
X370855Y582794D01*
X370915Y582680D01*
X370978Y582567D01*
X371045Y582457D01*
X371114Y582348D01*
X371187Y582242D01*
X371263Y582137D01*
X371342Y582035D01*
X371424Y581936D01*
X371508Y581838D01*
X371596Y581743D01*
X371686Y581651D01*
X377691Y581913D02*
X377780Y581915D01*
X377868Y581921D01*
X377956Y581930D01*
X378044Y581943D01*
X378131Y581960D01*
X378217Y581980D01*
X378302Y582005D01*
X378387Y582032D01*
X378470Y582064D01*
X378551Y582098D01*
X378631Y582137D01*
X378709Y582178D01*
X378786Y582223D01*
X378860Y582271D01*
X378933Y582322D01*
X379003Y582376D01*
X379070Y582434D01*
X379136Y582494D01*
X379198Y582556D01*
X379258Y582622D01*
X379316Y582689D01*
X379370Y582759D01*
X379421Y582832D01*
X379469Y582906D01*
X379514Y582983D01*
X379555Y583061D01*
X379594Y583141D01*
X379628Y583222D01*
X379660Y583305D01*
X379687Y583390D01*
X379712Y583475D01*
X379732Y583561D01*
X379749Y583648D01*
X379762Y583736D01*
X379771Y583824D01*
X379777Y583912D01*
X379779Y584001D01*
X379777Y584121D01*
X379772Y584241D01*
X379762Y584361D01*
X379750Y584480D01*
X379733Y584599D01*
X379713Y584717D01*
X379689Y584835D01*
X379662Y584951D01*
X379631Y585067D01*
X379597Y585182D01*
X379559Y585296D01*
X379517Y585409D01*
X379472Y585520D01*
X379424Y585630D01*
X379373Y585738D01*
X379318Y585845D01*
X379260Y585950D01*
X379198Y586053D01*
X379134Y586154D01*
X379066Y586254D01*
X378996Y586351D01*
X375864Y582956D02*
X375912Y582878D01*
X375964Y582802D01*
X376018Y582729D01*
X376076Y582658D01*
X376137Y582589D01*
X376201Y582523D01*
X376268Y582460D01*
X376337Y582400D01*
X376409Y582343D01*
X376483Y582289D01*
X376560Y582239D01*
X376639Y582191D01*
X376719Y582148D01*
X376802Y582107D01*
X376886Y582071D01*
X376971Y582038D01*
X377058Y582009D01*
X377147Y581983D01*
X377236Y581961D01*
X377326Y581944D01*
X377416Y581930D01*
X377508Y581920D01*
X377599Y581914D01*
X377691Y581912D01*
X374296Y585828D02*
X374248Y585906D01*
X374196Y585982D01*
X374142Y586055D01*
X374084Y586126D01*
X374023Y586195D01*
X373959Y586261D01*
X373892Y586324D01*
X373823Y586384D01*
X373751Y586441D01*
X373677Y586495D01*
X373600Y586545D01*
X373521Y586593D01*
X373441Y586636D01*
X373358Y586677D01*
X373274Y586713D01*
X373189Y586746D01*
X373102Y586775D01*
X373013Y586801D01*
X372924Y586823D01*
X372834Y586840D01*
X372744Y586854D01*
X372652Y586864D01*
X372561Y586870D01*
X372469Y586872D01*
X374297Y585828D02*
X375863Y582957D01*
X370381Y593318D02*
X370383Y593407D01*
X370389Y593495D01*
X370398Y593583D01*
X370411Y593671D01*
X370428Y593758D01*
X370448Y593844D01*
X370473Y593929D01*
X370500Y594014D01*
X370532Y594097D01*
X370566Y594178D01*
X370605Y594258D01*
X370646Y594336D01*
X370691Y594413D01*
X370739Y594487D01*
X370790Y594560D01*
X370844Y594630D01*
X370902Y594697D01*
X370962Y594763D01*
X371024Y594825D01*
X371090Y594885D01*
X371157Y594943D01*
X371227Y594997D01*
X371300Y595048D01*
X371374Y595096D01*
X371451Y595141D01*
X371529Y595182D01*
X371609Y595221D01*
X371690Y595255D01*
X371773Y595287D01*
X371858Y595314D01*
X371943Y595339D01*
X372029Y595359D01*
X372116Y595376D01*
X372204Y595389D01*
X372292Y595398D01*
X372380Y595404D01*
X372469Y595406D01*
X370381Y593318D02*
X370383Y593189D01*
X370389Y593060D01*
X370398Y592931D01*
X370411Y592803D01*
X370428Y592675D01*
X370449Y592548D01*
X370473Y592421D01*
X370501Y592295D01*
X370533Y592170D01*
X370568Y592046D01*
X370607Y591923D01*
X370650Y591801D01*
X370696Y591681D01*
X370746Y591562D01*
X370799Y591444D01*
X370855Y591328D01*
X370915Y591214D01*
X370978Y591101D01*
X371045Y590991D01*
X371114Y590882D01*
X371187Y590776D01*
X371263Y590671D01*
X371342Y590569D01*
X371424Y590470D01*
X371508Y590372D01*
X371596Y590277D01*
X371686Y590185D01*
X377691Y590447D02*
X377780Y590449D01*
X377868Y590455D01*
X377956Y590464D01*
X378044Y590477D01*
X378131Y590494D01*
X378217Y590514D01*
X378302Y590539D01*
X378387Y590566D01*
X378470Y590598D01*
X378551Y590632D01*
X378631Y590671D01*
X378709Y590712D01*
X378786Y590757D01*
X378860Y590805D01*
X378933Y590856D01*
X379003Y590910D01*
X379070Y590968D01*
X379136Y591028D01*
X379198Y591090D01*
X379258Y591156D01*
X379316Y591223D01*
X379370Y591293D01*
X379421Y591366D01*
X379469Y591440D01*
X379514Y591517D01*
X379555Y591595D01*
X379594Y591675D01*
X379628Y591756D01*
X379660Y591839D01*
X379687Y591924D01*
X379712Y592009D01*
X379732Y592095D01*
X379749Y592182D01*
X379762Y592270D01*
X379771Y592358D01*
X379777Y592446D01*
X379779Y592535D01*
X379777Y592655D01*
X379772Y592775D01*
X379762Y592895D01*
X379750Y593014D01*
X379733Y593133D01*
X379713Y593251D01*
X379689Y593369D01*
X379662Y593485D01*
X379631Y593601D01*
X379597Y593716D01*
X379559Y593830D01*
X379517Y593943D01*
X379472Y594054D01*
X379424Y594164D01*
X379373Y594272D01*
X379318Y594379D01*
X379260Y594484D01*
X379198Y594587D01*
X379134Y594688D01*
X379066Y594788D01*
X378996Y594885D01*
X375864Y591491D02*
X375912Y591413D01*
X375964Y591337D01*
X376018Y591264D01*
X376076Y591193D01*
X376137Y591124D01*
X376201Y591058D01*
X376268Y590995D01*
X376337Y590935D01*
X376409Y590878D01*
X376483Y590824D01*
X376560Y590774D01*
X376639Y590726D01*
X376719Y590683D01*
X376802Y590642D01*
X376886Y590606D01*
X376971Y590573D01*
X377058Y590544D01*
X377147Y590518D01*
X377236Y590496D01*
X377326Y590479D01*
X377416Y590465D01*
X377508Y590455D01*
X377599Y590449D01*
X377691Y590447D01*
X374296Y594363D02*
X374248Y594441D01*
X374196Y594517D01*
X374142Y594590D01*
X374084Y594661D01*
X374023Y594730D01*
X373959Y594796D01*
X373892Y594859D01*
X373823Y594919D01*
X373751Y594976D01*
X373677Y595030D01*
X373600Y595080D01*
X373521Y595128D01*
X373441Y595171D01*
X373358Y595212D01*
X373274Y595248D01*
X373189Y595281D01*
X373102Y595310D01*
X373013Y595336D01*
X372924Y595358D01*
X372834Y595375D01*
X372744Y595389D01*
X372652Y595399D01*
X372561Y595405D01*
X372469Y595407D01*
X374297Y594363D02*
X375863Y591491D01*
X379779Y599347D02*
X370381Y599347D01*
X370381Y603524D01*
X375602Y612262D02*
X375602Y614873D01*
X375603Y614873D02*
X375601Y614974D01*
X375595Y615075D01*
X375585Y615176D01*
X375572Y615276D01*
X375554Y615376D01*
X375533Y615475D01*
X375507Y615573D01*
X375478Y615670D01*
X375446Y615766D01*
X375409Y615860D01*
X375369Y615953D01*
X375325Y616045D01*
X375278Y616134D01*
X375227Y616222D01*
X375173Y616308D01*
X375116Y616391D01*
X375056Y616473D01*
X374992Y616551D01*
X374926Y616628D01*
X374856Y616701D01*
X374784Y616772D01*
X374709Y616840D01*
X374631Y616905D01*
X374551Y616967D01*
X374469Y617026D01*
X374384Y617082D01*
X374298Y617134D01*
X374209Y617183D01*
X374118Y617229D01*
X374026Y617270D01*
X373932Y617309D01*
X373837Y617343D01*
X373741Y617374D01*
X373643Y617401D01*
X373545Y617425D01*
X373445Y617444D01*
X373345Y617460D01*
X373245Y617472D01*
X373144Y617480D01*
X373043Y617484D01*
X372941Y617484D01*
X372840Y617480D01*
X372739Y617472D01*
X372639Y617460D01*
X372539Y617444D01*
X372439Y617425D01*
X372341Y617401D01*
X372243Y617374D01*
X372147Y617343D01*
X372052Y617309D01*
X371958Y617270D01*
X371866Y617229D01*
X371775Y617183D01*
X371687Y617134D01*
X371600Y617082D01*
X371515Y617026D01*
X371433Y616967D01*
X371353Y616905D01*
X371275Y616840D01*
X371200Y616772D01*
X371128Y616701D01*
X371058Y616628D01*
X370992Y616551D01*
X370928Y616473D01*
X370868Y616391D01*
X370811Y616308D01*
X370757Y616222D01*
X370706Y616134D01*
X370659Y616045D01*
X370615Y615953D01*
X370575Y615860D01*
X370538Y615766D01*
X370506Y615670D01*
X370477Y615573D01*
X370451Y615475D01*
X370430Y615376D01*
X370412Y615276D01*
X370399Y615176D01*
X370389Y615075D01*
X370383Y614974D01*
X370381Y614873D01*
X370381Y612262D01*
X379779Y612262D01*
X379779Y614873D01*
X379777Y614963D01*
X379771Y615052D01*
X379762Y615142D01*
X379748Y615231D01*
X379731Y615319D01*
X379710Y615406D01*
X379685Y615493D01*
X379656Y615578D01*
X379624Y615662D01*
X379589Y615744D01*
X379549Y615825D01*
X379507Y615904D01*
X379461Y615981D01*
X379411Y616056D01*
X379359Y616129D01*
X379303Y616200D01*
X379245Y616268D01*
X379183Y616333D01*
X379119Y616396D01*
X379052Y616456D01*
X378983Y616513D01*
X378911Y616567D01*
X378837Y616618D01*
X378761Y616666D01*
X378683Y616710D01*
X378603Y616751D01*
X378521Y616789D01*
X378438Y616823D01*
X378353Y616853D01*
X378267Y616880D01*
X378181Y616903D01*
X378093Y616922D01*
X378004Y616937D01*
X377915Y616949D01*
X377826Y616957D01*
X377736Y616961D01*
X377646Y616961D01*
X377556Y616957D01*
X377467Y616949D01*
X377378Y616937D01*
X377289Y616922D01*
X377201Y616903D01*
X377115Y616880D01*
X377029Y616853D01*
X376944Y616823D01*
X376861Y616789D01*
X376779Y616751D01*
X376699Y616710D01*
X376621Y616666D01*
X376545Y616618D01*
X376471Y616567D01*
X376399Y616513D01*
X376330Y616456D01*
X376263Y616396D01*
X376199Y616333D01*
X376137Y616268D01*
X376079Y616200D01*
X376023Y616129D01*
X375971Y616056D01*
X375921Y615981D01*
X375875Y615904D01*
X375833Y615825D01*
X375793Y615744D01*
X375758Y615662D01*
X375726Y615578D01*
X375697Y615493D01*
X375672Y615406D01*
X375651Y615319D01*
X375634Y615231D01*
X375620Y615142D01*
X375611Y615052D01*
X375605Y614963D01*
X375603Y614873D01*
X370381Y620448D02*
X379779Y623581D01*
X370381Y626714D01*
X372731Y625930D02*
X372731Y621231D01*
X370381Y630437D02*
X379779Y630437D01*
X370381Y630437D02*
X370381Y634613D01*
X370381Y638361D02*
X379779Y638361D01*
X370381Y638361D02*
X370381Y642538D01*
X372992Y645964D02*
X377168Y645964D01*
X377168Y645963D02*
X377269Y645965D01*
X377370Y645971D01*
X377471Y645981D01*
X377571Y645994D01*
X377671Y646012D01*
X377770Y646033D01*
X377868Y646059D01*
X377965Y646088D01*
X378061Y646120D01*
X378155Y646157D01*
X378248Y646197D01*
X378340Y646241D01*
X378429Y646288D01*
X378517Y646339D01*
X378603Y646393D01*
X378686Y646450D01*
X378768Y646510D01*
X378846Y646574D01*
X378923Y646640D01*
X378996Y646710D01*
X379067Y646782D01*
X379135Y646857D01*
X379200Y646935D01*
X379262Y647015D01*
X379321Y647097D01*
X379377Y647182D01*
X379429Y647269D01*
X379478Y647357D01*
X379524Y647448D01*
X379565Y647540D01*
X379604Y647634D01*
X379638Y647729D01*
X379669Y647825D01*
X379696Y647923D01*
X379720Y648021D01*
X379739Y648121D01*
X379755Y648221D01*
X379767Y648321D01*
X379775Y648422D01*
X379779Y648523D01*
X379779Y648625D01*
X379775Y648726D01*
X379767Y648827D01*
X379755Y648927D01*
X379739Y649027D01*
X379720Y649127D01*
X379696Y649225D01*
X379669Y649323D01*
X379638Y649419D01*
X379604Y649514D01*
X379565Y649608D01*
X379524Y649700D01*
X379478Y649791D01*
X379429Y649880D01*
X379377Y649966D01*
X379321Y650051D01*
X379262Y650133D01*
X379200Y650213D01*
X379135Y650291D01*
X379067Y650366D01*
X378996Y650438D01*
X378923Y650508D01*
X378846Y650574D01*
X378768Y650638D01*
X378686Y650698D01*
X378603Y650755D01*
X378517Y650809D01*
X378429Y650860D01*
X378340Y650907D01*
X378248Y650951D01*
X378155Y650991D01*
X378061Y651028D01*
X377965Y651060D01*
X377868Y651089D01*
X377770Y651115D01*
X377671Y651136D01*
X377571Y651154D01*
X377471Y651167D01*
X377370Y651177D01*
X377269Y651183D01*
X377168Y651185D01*
X372992Y651185D01*
X372891Y651183D01*
X372790Y651177D01*
X372689Y651167D01*
X372589Y651154D01*
X372489Y651136D01*
X372390Y651115D01*
X372292Y651089D01*
X372195Y651060D01*
X372099Y651028D01*
X372005Y650991D01*
X371912Y650951D01*
X371820Y650907D01*
X371731Y650860D01*
X371643Y650809D01*
X371557Y650755D01*
X371474Y650698D01*
X371392Y650638D01*
X371314Y650574D01*
X371237Y650508D01*
X371164Y650438D01*
X371093Y650366D01*
X371025Y650291D01*
X370960Y650213D01*
X370898Y650133D01*
X370839Y650051D01*
X370783Y649966D01*
X370731Y649880D01*
X370682Y649791D01*
X370636Y649700D01*
X370595Y649608D01*
X370556Y649514D01*
X370522Y649419D01*
X370491Y649323D01*
X370464Y649225D01*
X370440Y649127D01*
X370421Y649027D01*
X370405Y648927D01*
X370393Y648827D01*
X370385Y648726D01*
X370381Y648625D01*
X370381Y648523D01*
X370385Y648422D01*
X370393Y648321D01*
X370405Y648221D01*
X370421Y648121D01*
X370440Y648021D01*
X370464Y647923D01*
X370491Y647825D01*
X370522Y647729D01*
X370556Y647634D01*
X370595Y647540D01*
X370636Y647448D01*
X370682Y647357D01*
X370731Y647269D01*
X370783Y647182D01*
X370839Y647097D01*
X370898Y647015D01*
X370960Y646935D01*
X371025Y646857D01*
X371093Y646782D01*
X371164Y646710D01*
X371237Y646640D01*
X371314Y646574D01*
X371392Y646510D01*
X371474Y646450D01*
X371557Y646393D01*
X371643Y646339D01*
X371731Y646288D01*
X371820Y646241D01*
X371912Y646197D01*
X372005Y646157D01*
X372099Y646120D01*
X372195Y646088D01*
X372292Y646059D01*
X372390Y646033D01*
X372489Y646012D01*
X372589Y645994D01*
X372689Y645981D01*
X372790Y645971D01*
X372891Y645965D01*
X372992Y645963D01*
X372992Y655108D02*
X377168Y655108D01*
X377168Y655107D02*
X377269Y655109D01*
X377370Y655115D01*
X377471Y655125D01*
X377571Y655138D01*
X377671Y655156D01*
X377770Y655177D01*
X377868Y655203D01*
X377965Y655232D01*
X378061Y655264D01*
X378155Y655301D01*
X378248Y655341D01*
X378340Y655385D01*
X378429Y655432D01*
X378517Y655483D01*
X378603Y655537D01*
X378686Y655594D01*
X378768Y655654D01*
X378846Y655718D01*
X378923Y655784D01*
X378996Y655854D01*
X379067Y655926D01*
X379135Y656001D01*
X379200Y656079D01*
X379262Y656159D01*
X379321Y656241D01*
X379377Y656326D01*
X379429Y656413D01*
X379478Y656501D01*
X379524Y656592D01*
X379565Y656684D01*
X379604Y656778D01*
X379638Y656873D01*
X379669Y656969D01*
X379696Y657067D01*
X379720Y657165D01*
X379739Y657265D01*
X379755Y657365D01*
X379767Y657465D01*
X379775Y657566D01*
X379779Y657667D01*
X379779Y657769D01*
X379775Y657870D01*
X379767Y657971D01*
X379755Y658071D01*
X379739Y658171D01*
X379720Y658271D01*
X379696Y658369D01*
X379669Y658467D01*
X379638Y658563D01*
X379604Y658658D01*
X379565Y658752D01*
X379524Y658844D01*
X379478Y658935D01*
X379429Y659024D01*
X379377Y659110D01*
X379321Y659195D01*
X379262Y659277D01*
X379200Y659357D01*
X379135Y659435D01*
X379067Y659510D01*
X378996Y659582D01*
X378923Y659652D01*
X378846Y659718D01*
X378768Y659782D01*
X378686Y659842D01*
X378603Y659899D01*
X378517Y659953D01*
X378429Y660004D01*
X378340Y660051D01*
X378248Y660095D01*
X378155Y660135D01*
X378061Y660172D01*
X377965Y660204D01*
X377868Y660233D01*
X377770Y660259D01*
X377671Y660280D01*
X377571Y660298D01*
X377471Y660311D01*
X377370Y660321D01*
X377269Y660327D01*
X377168Y660329D01*
X372992Y660329D01*
X372891Y660327D01*
X372790Y660321D01*
X372689Y660311D01*
X372589Y660298D01*
X372489Y660280D01*
X372390Y660259D01*
X372292Y660233D01*
X372195Y660204D01*
X372099Y660172D01*
X372005Y660135D01*
X371912Y660095D01*
X371820Y660051D01*
X371731Y660004D01*
X371643Y659953D01*
X371557Y659899D01*
X371474Y659842D01*
X371392Y659782D01*
X371314Y659718D01*
X371237Y659652D01*
X371164Y659582D01*
X371093Y659510D01*
X371025Y659435D01*
X370960Y659357D01*
X370898Y659277D01*
X370839Y659195D01*
X370783Y659110D01*
X370731Y659024D01*
X370682Y658935D01*
X370636Y658844D01*
X370595Y658752D01*
X370556Y658658D01*
X370522Y658563D01*
X370491Y658467D01*
X370464Y658369D01*
X370440Y658271D01*
X370421Y658171D01*
X370405Y658071D01*
X370393Y657971D01*
X370385Y657870D01*
X370381Y657769D01*
X370381Y657667D01*
X370385Y657566D01*
X370393Y657465D01*
X370405Y657365D01*
X370421Y657265D01*
X370440Y657165D01*
X370464Y657067D01*
X370491Y656969D01*
X370522Y656873D01*
X370556Y656778D01*
X370595Y656684D01*
X370636Y656592D01*
X370682Y656501D01*
X370731Y656413D01*
X370783Y656326D01*
X370839Y656241D01*
X370898Y656159D01*
X370960Y656079D01*
X371025Y656001D01*
X371093Y655926D01*
X371164Y655854D01*
X371237Y655784D01*
X371314Y655718D01*
X371392Y655654D01*
X371474Y655594D01*
X371557Y655537D01*
X371643Y655483D01*
X371731Y655432D01*
X371820Y655385D01*
X371912Y655341D01*
X372005Y655301D01*
X372099Y655264D01*
X372195Y655232D01*
X372292Y655203D01*
X372390Y655177D01*
X372489Y655156D01*
X372589Y655138D01*
X372689Y655125D01*
X372790Y655115D01*
X372891Y655109D01*
X372992Y655107D01*
X370381Y664557D02*
X379779Y664557D01*
X370381Y669778D01*
X379779Y669778D01*
X379779Y680883D02*
X370381Y680883D01*
X379779Y678273D02*
X379779Y683494D01*
X370381Y687129D02*
X370381Y691306D01*
X370381Y687129D02*
X379779Y687129D01*
X379779Y691306D01*
X375602Y690262D02*
X375602Y687129D01*
X370381Y694210D02*
X379779Y697342D01*
X370381Y700475D01*
X372731Y699692D02*
X372731Y694993D01*
X370381Y704268D02*
X379779Y704268D01*
X374558Y707401D01*
X379779Y710533D01*
X370381Y710533D01*
X379780Y722597D02*
X379778Y722692D01*
X379772Y722786D01*
X379763Y722880D01*
X379750Y722974D01*
X379733Y723067D01*
X379712Y723159D01*
X379687Y723251D01*
X379659Y723341D01*
X379627Y723430D01*
X379592Y723518D01*
X379553Y723604D01*
X379511Y723689D01*
X379465Y723772D01*
X379416Y723853D01*
X379364Y723932D01*
X379309Y724009D01*
X379250Y724083D01*
X379189Y724155D01*
X379125Y724225D01*
X379058Y724292D01*
X378988Y724356D01*
X378916Y724417D01*
X378842Y724476D01*
X378765Y724531D01*
X378686Y724583D01*
X378605Y724632D01*
X378522Y724678D01*
X378437Y724720D01*
X378351Y724759D01*
X378263Y724794D01*
X378174Y724826D01*
X378084Y724854D01*
X377992Y724879D01*
X377900Y724900D01*
X377807Y724917D01*
X377713Y724930D01*
X377619Y724939D01*
X377525Y724945D01*
X377430Y724947D01*
X379779Y722597D02*
X379777Y722489D01*
X379771Y722380D01*
X379761Y722272D01*
X379748Y722165D01*
X379730Y722058D01*
X379709Y721951D01*
X379684Y721846D01*
X379655Y721741D01*
X379623Y721638D01*
X379586Y721536D01*
X379546Y721435D01*
X379503Y721336D01*
X379456Y721238D01*
X379405Y721142D01*
X379351Y721048D01*
X379294Y720956D01*
X379233Y720866D01*
X379169Y720778D01*
X379103Y720693D01*
X379033Y720610D01*
X378960Y720530D01*
X378884Y720452D01*
X378806Y720377D01*
X378725Y720305D01*
X378641Y720236D01*
X378555Y720170D01*
X378467Y720107D01*
X378376Y720048D01*
X378284Y719991D01*
X378189Y719938D01*
X378093Y719889D01*
X377994Y719843D01*
X377895Y719800D01*
X377793Y719761D01*
X377691Y719726D01*
X375602Y724164D02*
X375671Y724233D01*
X375742Y724299D01*
X375815Y724363D01*
X375891Y724424D01*
X375970Y724482D01*
X376050Y724536D01*
X376133Y724588D01*
X376217Y724636D01*
X376303Y724682D01*
X376391Y724723D01*
X376481Y724762D01*
X376572Y724797D01*
X376664Y724828D01*
X376757Y724856D01*
X376851Y724880D01*
X376946Y724900D01*
X377042Y724917D01*
X377139Y724930D01*
X377236Y724939D01*
X377333Y724945D01*
X377430Y724947D01*
X375602Y724163D02*
X370381Y719725D01*
X370381Y724946D01*
X375080Y728869D02*
X375265Y728871D01*
X375450Y728878D01*
X375634Y728889D01*
X375818Y728904D01*
X376002Y728924D01*
X376186Y728948D01*
X376368Y728977D01*
X376550Y729010D01*
X376731Y729047D01*
X376911Y729089D01*
X377091Y729135D01*
X377269Y729185D01*
X377445Y729239D01*
X377621Y729298D01*
X377795Y729360D01*
X377967Y729427D01*
X378138Y729498D01*
X378307Y729573D01*
X378474Y729652D01*
X378554Y729682D01*
X378633Y729715D01*
X378710Y729752D01*
X378786Y729792D01*
X378860Y729835D01*
X378932Y729881D01*
X379001Y729931D01*
X379069Y729983D01*
X379134Y730039D01*
X379197Y730097D01*
X379256Y730159D01*
X379314Y730222D01*
X379368Y730289D01*
X379419Y730357D01*
X379467Y730428D01*
X379512Y730501D01*
X379554Y730575D01*
X379592Y730652D01*
X379627Y730730D01*
X379659Y730809D01*
X379687Y730890D01*
X379711Y730972D01*
X379732Y731056D01*
X379749Y731139D01*
X379762Y731224D01*
X379771Y731309D01*
X379777Y731394D01*
X379779Y731480D01*
X379777Y731566D01*
X379771Y731651D01*
X379762Y731736D01*
X379749Y731821D01*
X379732Y731904D01*
X379711Y731988D01*
X379687Y732070D01*
X379659Y732151D01*
X379627Y732230D01*
X379592Y732308D01*
X379554Y732385D01*
X379512Y732459D01*
X379467Y732532D01*
X379419Y732603D01*
X379368Y732671D01*
X379314Y732738D01*
X379256Y732801D01*
X379197Y732863D01*
X379134Y732921D01*
X379069Y732977D01*
X379001Y733029D01*
X378932Y733079D01*
X378860Y733125D01*
X378786Y733168D01*
X378710Y733208D01*
X378633Y733245D01*
X378554Y733278D01*
X378474Y733308D01*
X378474Y733307D02*
X378307Y733386D01*
X378138Y733461D01*
X377967Y733532D01*
X377795Y733599D01*
X377621Y733661D01*
X377445Y733720D01*
X377269Y733774D01*
X377091Y733824D01*
X376911Y733870D01*
X376731Y733912D01*
X376550Y733949D01*
X376368Y733982D01*
X376186Y734011D01*
X376002Y734035D01*
X375818Y734055D01*
X375634Y734070D01*
X375450Y734081D01*
X375265Y734088D01*
X375080Y734090D01*
X375080Y728869D02*
X374895Y728871D01*
X374710Y728878D01*
X374526Y728889D01*
X374342Y728904D01*
X374158Y728924D01*
X373974Y728948D01*
X373792Y728977D01*
X373610Y729010D01*
X373429Y729047D01*
X373249Y729089D01*
X373069Y729135D01*
X372891Y729185D01*
X372715Y729239D01*
X372539Y729298D01*
X372365Y729360D01*
X372193Y729427D01*
X372022Y729498D01*
X371853Y729573D01*
X371686Y729652D01*
X371606Y729682D01*
X371527Y729715D01*
X371450Y729752D01*
X371374Y729792D01*
X371300Y729835D01*
X371228Y729881D01*
X371159Y729931D01*
X371091Y729984D01*
X371026Y730039D01*
X370963Y730098D01*
X370904Y730159D01*
X370846Y730222D01*
X370792Y730289D01*
X370741Y730357D01*
X370693Y730428D01*
X370648Y730501D01*
X370606Y730575D01*
X370568Y730652D01*
X370533Y730730D01*
X370501Y730809D01*
X370473Y730890D01*
X370449Y730972D01*
X370428Y731056D01*
X370411Y731139D01*
X370398Y731224D01*
X370389Y731309D01*
X370383Y731394D01*
X370381Y731480D01*
X371686Y733307D02*
X371853Y733386D01*
X372022Y733461D01*
X372193Y733532D01*
X372365Y733599D01*
X372539Y733661D01*
X372715Y733720D01*
X372891Y733774D01*
X373069Y733824D01*
X373249Y733870D01*
X373429Y733912D01*
X373610Y733949D01*
X373792Y733982D01*
X373974Y734011D01*
X374158Y734035D01*
X374342Y734055D01*
X374526Y734070D01*
X374710Y734081D01*
X374895Y734088D01*
X375080Y734090D01*
X371686Y733308D02*
X371606Y733278D01*
X371527Y733245D01*
X371450Y733208D01*
X371374Y733168D01*
X371300Y733125D01*
X371228Y733079D01*
X371159Y733029D01*
X371091Y732977D01*
X371026Y732921D01*
X370963Y732863D01*
X370904Y732801D01*
X370846Y732738D01*
X370792Y732671D01*
X370741Y732603D01*
X370693Y732532D01*
X370648Y732459D01*
X370606Y732385D01*
X370568Y732308D01*
X370533Y732230D01*
X370501Y732151D01*
X370473Y732070D01*
X370449Y731988D01*
X370428Y731904D01*
X370411Y731821D01*
X370398Y731736D01*
X370389Y731651D01*
X370383Y731566D01*
X370381Y731480D01*
X372469Y729391D02*
X377691Y733568D01*
X377691Y738013D02*
X379779Y740624D01*
X370381Y740624D01*
X370381Y743234D02*
X370381Y738013D01*
X374558Y749245D02*
X374558Y752378D01*
X374558Y749245D02*
X374560Y749156D01*
X374566Y749068D01*
X374575Y748980D01*
X374588Y748892D01*
X374605Y748805D01*
X374625Y748719D01*
X374650Y748634D01*
X374677Y748549D01*
X374709Y748466D01*
X374743Y748385D01*
X374782Y748305D01*
X374823Y748227D01*
X374868Y748150D01*
X374916Y748076D01*
X374967Y748003D01*
X375021Y747933D01*
X375079Y747866D01*
X375139Y747800D01*
X375201Y747738D01*
X375267Y747678D01*
X375334Y747620D01*
X375404Y747566D01*
X375477Y747515D01*
X375551Y747467D01*
X375628Y747422D01*
X375706Y747381D01*
X375786Y747342D01*
X375867Y747308D01*
X375950Y747276D01*
X376035Y747249D01*
X376120Y747224D01*
X376206Y747204D01*
X376293Y747187D01*
X376381Y747174D01*
X376469Y747165D01*
X376557Y747159D01*
X376646Y747157D01*
X377168Y747157D01*
X377269Y747159D01*
X377370Y747165D01*
X377471Y747175D01*
X377571Y747188D01*
X377671Y747206D01*
X377770Y747227D01*
X377868Y747253D01*
X377965Y747282D01*
X378061Y747314D01*
X378155Y747351D01*
X378248Y747391D01*
X378340Y747435D01*
X378429Y747482D01*
X378517Y747533D01*
X378603Y747587D01*
X378686Y747644D01*
X378768Y747704D01*
X378846Y747768D01*
X378923Y747834D01*
X378996Y747904D01*
X379067Y747976D01*
X379135Y748051D01*
X379200Y748129D01*
X379262Y748209D01*
X379321Y748291D01*
X379377Y748376D01*
X379429Y748463D01*
X379478Y748551D01*
X379524Y748642D01*
X379565Y748734D01*
X379604Y748828D01*
X379638Y748923D01*
X379669Y749019D01*
X379696Y749117D01*
X379720Y749215D01*
X379739Y749315D01*
X379755Y749415D01*
X379767Y749515D01*
X379775Y749616D01*
X379779Y749717D01*
X379779Y749819D01*
X379775Y749920D01*
X379767Y750021D01*
X379755Y750121D01*
X379739Y750221D01*
X379720Y750321D01*
X379696Y750419D01*
X379669Y750517D01*
X379638Y750613D01*
X379604Y750708D01*
X379565Y750802D01*
X379524Y750894D01*
X379478Y750985D01*
X379429Y751074D01*
X379377Y751160D01*
X379321Y751245D01*
X379262Y751327D01*
X379200Y751407D01*
X379135Y751485D01*
X379067Y751560D01*
X378996Y751632D01*
X378923Y751702D01*
X378846Y751768D01*
X378768Y751832D01*
X378686Y751892D01*
X378603Y751949D01*
X378517Y752003D01*
X378429Y752054D01*
X378340Y752101D01*
X378248Y752145D01*
X378155Y752185D01*
X378061Y752222D01*
X377965Y752254D01*
X377868Y752283D01*
X377770Y752309D01*
X377671Y752330D01*
X377571Y752348D01*
X377471Y752361D01*
X377370Y752371D01*
X377269Y752377D01*
X377168Y752379D01*
X377168Y752378D02*
X374558Y752378D01*
X374432Y752376D01*
X374306Y752370D01*
X374180Y752361D01*
X374055Y752348D01*
X373930Y752330D01*
X373805Y752310D01*
X373681Y752285D01*
X373558Y752257D01*
X373436Y752225D01*
X373315Y752189D01*
X373195Y752150D01*
X373077Y752107D01*
X372960Y752060D01*
X372844Y752010D01*
X372729Y751956D01*
X372617Y751900D01*
X372506Y751839D01*
X372397Y751776D01*
X372290Y751709D01*
X372185Y751639D01*
X372082Y751565D01*
X371982Y751489D01*
X371884Y751410D01*
X371788Y751328D01*
X371695Y751242D01*
X371604Y751155D01*
X371517Y751064D01*
X371431Y750971D01*
X371349Y750875D01*
X371270Y750777D01*
X371194Y750677D01*
X371120Y750574D01*
X371050Y750469D01*
X370983Y750362D01*
X370920Y750253D01*
X370859Y750142D01*
X370803Y750030D01*
X370749Y749915D01*
X370699Y749799D01*
X370652Y749682D01*
X370609Y749564D01*
X370570Y749444D01*
X370534Y749323D01*
X370502Y749201D01*
X370474Y749078D01*
X370449Y748954D01*
X370429Y748829D01*
X370411Y748704D01*
X370398Y748579D01*
X370389Y748453D01*
X370383Y748327D01*
X370381Y748201D01*
X120381Y569558D02*
X120381Y565381D01*
X129779Y565381D01*
X129779Y569558D01*
X125602Y568514D02*
X125602Y565381D01*
X129779Y573376D02*
X120381Y573376D01*
X124558Y576508D02*
X129779Y573376D01*
X124558Y576508D02*
X129779Y579641D01*
X120381Y579641D01*
X120381Y586784D02*
X120383Y586873D01*
X120389Y586961D01*
X120398Y587049D01*
X120411Y587137D01*
X120428Y587224D01*
X120448Y587310D01*
X120473Y587395D01*
X120500Y587480D01*
X120532Y587563D01*
X120566Y587644D01*
X120605Y587724D01*
X120646Y587802D01*
X120691Y587879D01*
X120739Y587953D01*
X120790Y588026D01*
X120844Y588096D01*
X120902Y588163D01*
X120962Y588229D01*
X121024Y588291D01*
X121090Y588351D01*
X121157Y588409D01*
X121227Y588463D01*
X121300Y588514D01*
X121374Y588562D01*
X121451Y588607D01*
X121529Y588648D01*
X121609Y588687D01*
X121690Y588721D01*
X121773Y588753D01*
X121858Y588780D01*
X121943Y588805D01*
X122029Y588825D01*
X122116Y588842D01*
X122204Y588855D01*
X122292Y588864D01*
X122380Y588870D01*
X122469Y588872D01*
X120381Y586784D02*
X120383Y586655D01*
X120389Y586526D01*
X120398Y586397D01*
X120411Y586269D01*
X120428Y586141D01*
X120449Y586014D01*
X120473Y585887D01*
X120501Y585761D01*
X120533Y585636D01*
X120568Y585512D01*
X120607Y585389D01*
X120650Y585267D01*
X120696Y585147D01*
X120746Y585028D01*
X120799Y584910D01*
X120855Y584794D01*
X120915Y584680D01*
X120978Y584567D01*
X121045Y584457D01*
X121114Y584348D01*
X121187Y584242D01*
X121263Y584137D01*
X121342Y584035D01*
X121424Y583936D01*
X121508Y583838D01*
X121596Y583743D01*
X121686Y583651D01*
X127691Y583913D02*
X127780Y583915D01*
X127868Y583921D01*
X127956Y583930D01*
X128044Y583943D01*
X128131Y583960D01*
X128217Y583980D01*
X128302Y584005D01*
X128387Y584032D01*
X128470Y584064D01*
X128551Y584098D01*
X128631Y584137D01*
X128709Y584178D01*
X128786Y584223D01*
X128860Y584271D01*
X128933Y584322D01*
X129003Y584376D01*
X129070Y584434D01*
X129136Y584494D01*
X129198Y584556D01*
X129258Y584622D01*
X129316Y584689D01*
X129370Y584759D01*
X129421Y584832D01*
X129469Y584906D01*
X129514Y584983D01*
X129555Y585061D01*
X129594Y585141D01*
X129628Y585222D01*
X129660Y585305D01*
X129687Y585390D01*
X129712Y585475D01*
X129732Y585561D01*
X129749Y585648D01*
X129762Y585736D01*
X129771Y585824D01*
X129777Y585912D01*
X129779Y586001D01*
X129777Y586121D01*
X129772Y586241D01*
X129762Y586361D01*
X129750Y586480D01*
X129733Y586599D01*
X129713Y586717D01*
X129689Y586835D01*
X129662Y586951D01*
X129631Y587067D01*
X129597Y587182D01*
X129559Y587296D01*
X129517Y587409D01*
X129472Y587520D01*
X129424Y587630D01*
X129373Y587738D01*
X129318Y587845D01*
X129260Y587950D01*
X129198Y588053D01*
X129134Y588154D01*
X129066Y588254D01*
X128996Y588351D01*
X125864Y584956D02*
X125912Y584878D01*
X125964Y584802D01*
X126018Y584729D01*
X126076Y584658D01*
X126137Y584589D01*
X126201Y584523D01*
X126268Y584460D01*
X126337Y584400D01*
X126409Y584343D01*
X126483Y584289D01*
X126560Y584239D01*
X126639Y584191D01*
X126719Y584148D01*
X126802Y584107D01*
X126886Y584071D01*
X126971Y584038D01*
X127058Y584009D01*
X127147Y583983D01*
X127236Y583961D01*
X127326Y583944D01*
X127416Y583930D01*
X127508Y583920D01*
X127599Y583914D01*
X127691Y583912D01*
X124296Y587828D02*
X124248Y587906D01*
X124196Y587982D01*
X124142Y588055D01*
X124084Y588126D01*
X124023Y588195D01*
X123959Y588261D01*
X123892Y588324D01*
X123823Y588384D01*
X123751Y588441D01*
X123677Y588495D01*
X123600Y588545D01*
X123521Y588593D01*
X123441Y588636D01*
X123358Y588677D01*
X123274Y588713D01*
X123189Y588746D01*
X123102Y588775D01*
X123013Y588801D01*
X122924Y588823D01*
X122834Y588840D01*
X122744Y588854D01*
X122652Y588864D01*
X122561Y588870D01*
X122469Y588872D01*
X124297Y587828D02*
X125863Y584957D01*
X120381Y595318D02*
X120383Y595407D01*
X120389Y595495D01*
X120398Y595583D01*
X120411Y595671D01*
X120428Y595758D01*
X120448Y595844D01*
X120473Y595929D01*
X120500Y596014D01*
X120532Y596097D01*
X120566Y596178D01*
X120605Y596258D01*
X120646Y596336D01*
X120691Y596413D01*
X120739Y596487D01*
X120790Y596560D01*
X120844Y596630D01*
X120902Y596697D01*
X120962Y596763D01*
X121024Y596825D01*
X121090Y596885D01*
X121157Y596943D01*
X121227Y596997D01*
X121300Y597048D01*
X121374Y597096D01*
X121451Y597141D01*
X121529Y597182D01*
X121609Y597221D01*
X121690Y597255D01*
X121773Y597287D01*
X121858Y597314D01*
X121943Y597339D01*
X122029Y597359D01*
X122116Y597376D01*
X122204Y597389D01*
X122292Y597398D01*
X122380Y597404D01*
X122469Y597406D01*
X120381Y595318D02*
X120383Y595189D01*
X120389Y595060D01*
X120398Y594931D01*
X120411Y594803D01*
X120428Y594675D01*
X120449Y594548D01*
X120473Y594421D01*
X120501Y594295D01*
X120533Y594170D01*
X120568Y594046D01*
X120607Y593923D01*
X120650Y593801D01*
X120696Y593681D01*
X120746Y593562D01*
X120799Y593444D01*
X120855Y593328D01*
X120915Y593214D01*
X120978Y593101D01*
X121045Y592991D01*
X121114Y592882D01*
X121187Y592776D01*
X121263Y592671D01*
X121342Y592569D01*
X121424Y592470D01*
X121508Y592372D01*
X121596Y592277D01*
X121686Y592185D01*
X127691Y592447D02*
X127780Y592449D01*
X127868Y592455D01*
X127956Y592464D01*
X128044Y592477D01*
X128131Y592494D01*
X128217Y592514D01*
X128302Y592539D01*
X128387Y592566D01*
X128470Y592598D01*
X128551Y592632D01*
X128631Y592671D01*
X128709Y592712D01*
X128786Y592757D01*
X128860Y592805D01*
X128933Y592856D01*
X129003Y592910D01*
X129070Y592968D01*
X129136Y593028D01*
X129198Y593090D01*
X129258Y593156D01*
X129316Y593223D01*
X129370Y593293D01*
X129421Y593366D01*
X129469Y593440D01*
X129514Y593517D01*
X129555Y593595D01*
X129594Y593675D01*
X129628Y593756D01*
X129660Y593839D01*
X129687Y593924D01*
X129712Y594009D01*
X129732Y594095D01*
X129749Y594182D01*
X129762Y594270D01*
X129771Y594358D01*
X129777Y594446D01*
X129779Y594535D01*
X129777Y594655D01*
X129772Y594775D01*
X129762Y594895D01*
X129750Y595014D01*
X129733Y595133D01*
X129713Y595251D01*
X129689Y595369D01*
X129662Y595485D01*
X129631Y595601D01*
X129597Y595716D01*
X129559Y595830D01*
X129517Y595943D01*
X129472Y596054D01*
X129424Y596164D01*
X129373Y596272D01*
X129318Y596379D01*
X129260Y596484D01*
X129198Y596587D01*
X129134Y596688D01*
X129066Y596788D01*
X128996Y596885D01*
X125864Y593491D02*
X125912Y593413D01*
X125964Y593337D01*
X126018Y593264D01*
X126076Y593193D01*
X126137Y593124D01*
X126201Y593058D01*
X126268Y592995D01*
X126337Y592935D01*
X126409Y592878D01*
X126483Y592824D01*
X126560Y592774D01*
X126639Y592726D01*
X126719Y592683D01*
X126802Y592642D01*
X126886Y592606D01*
X126971Y592573D01*
X127058Y592544D01*
X127147Y592518D01*
X127236Y592496D01*
X127326Y592479D01*
X127416Y592465D01*
X127508Y592455D01*
X127599Y592449D01*
X127691Y592447D01*
X124296Y596363D02*
X124248Y596441D01*
X124196Y596517D01*
X124142Y596590D01*
X124084Y596661D01*
X124023Y596730D01*
X123959Y596796D01*
X123892Y596859D01*
X123823Y596919D01*
X123751Y596976D01*
X123677Y597030D01*
X123600Y597080D01*
X123521Y597128D01*
X123441Y597171D01*
X123358Y597212D01*
X123274Y597248D01*
X123189Y597281D01*
X123102Y597310D01*
X123013Y597336D01*
X122924Y597358D01*
X122834Y597375D01*
X122744Y597389D01*
X122652Y597399D01*
X122561Y597405D01*
X122469Y597407D01*
X124297Y596363D02*
X125863Y593491D01*
X129779Y601347D02*
X120381Y601347D01*
X120381Y605524D01*
X125602Y614262D02*
X125602Y616873D01*
X125603Y616873D02*
X125601Y616974D01*
X125595Y617075D01*
X125585Y617176D01*
X125572Y617276D01*
X125554Y617376D01*
X125533Y617475D01*
X125507Y617573D01*
X125478Y617670D01*
X125446Y617766D01*
X125409Y617860D01*
X125369Y617953D01*
X125325Y618045D01*
X125278Y618134D01*
X125227Y618222D01*
X125173Y618308D01*
X125116Y618391D01*
X125056Y618473D01*
X124992Y618551D01*
X124926Y618628D01*
X124856Y618701D01*
X124784Y618772D01*
X124709Y618840D01*
X124631Y618905D01*
X124551Y618967D01*
X124469Y619026D01*
X124384Y619082D01*
X124298Y619134D01*
X124209Y619183D01*
X124118Y619229D01*
X124026Y619270D01*
X123932Y619309D01*
X123837Y619343D01*
X123741Y619374D01*
X123643Y619401D01*
X123545Y619425D01*
X123445Y619444D01*
X123345Y619460D01*
X123245Y619472D01*
X123144Y619480D01*
X123043Y619484D01*
X122941Y619484D01*
X122840Y619480D01*
X122739Y619472D01*
X122639Y619460D01*
X122539Y619444D01*
X122439Y619425D01*
X122341Y619401D01*
X122243Y619374D01*
X122147Y619343D01*
X122052Y619309D01*
X121958Y619270D01*
X121866Y619229D01*
X121775Y619183D01*
X121687Y619134D01*
X121600Y619082D01*
X121515Y619026D01*
X121433Y618967D01*
X121353Y618905D01*
X121275Y618840D01*
X121200Y618772D01*
X121128Y618701D01*
X121058Y618628D01*
X120992Y618551D01*
X120928Y618473D01*
X120868Y618391D01*
X120811Y618308D01*
X120757Y618222D01*
X120706Y618134D01*
X120659Y618045D01*
X120615Y617953D01*
X120575Y617860D01*
X120538Y617766D01*
X120506Y617670D01*
X120477Y617573D01*
X120451Y617475D01*
X120430Y617376D01*
X120412Y617276D01*
X120399Y617176D01*
X120389Y617075D01*
X120383Y616974D01*
X120381Y616873D01*
X120381Y614262D01*
X129779Y614262D01*
X129779Y616873D01*
X129777Y616963D01*
X129771Y617052D01*
X129762Y617142D01*
X129748Y617231D01*
X129731Y617319D01*
X129710Y617406D01*
X129685Y617493D01*
X129656Y617578D01*
X129624Y617662D01*
X129589Y617744D01*
X129549Y617825D01*
X129507Y617904D01*
X129461Y617981D01*
X129411Y618056D01*
X129359Y618129D01*
X129303Y618200D01*
X129245Y618268D01*
X129183Y618333D01*
X129119Y618396D01*
X129052Y618456D01*
X128983Y618513D01*
X128911Y618567D01*
X128837Y618618D01*
X128761Y618666D01*
X128683Y618710D01*
X128603Y618751D01*
X128521Y618789D01*
X128438Y618823D01*
X128353Y618853D01*
X128267Y618880D01*
X128181Y618903D01*
X128093Y618922D01*
X128004Y618937D01*
X127915Y618949D01*
X127826Y618957D01*
X127736Y618961D01*
X127646Y618961D01*
X127556Y618957D01*
X127467Y618949D01*
X127378Y618937D01*
X127289Y618922D01*
X127201Y618903D01*
X127115Y618880D01*
X127029Y618853D01*
X126944Y618823D01*
X126861Y618789D01*
X126779Y618751D01*
X126699Y618710D01*
X126621Y618666D01*
X126545Y618618D01*
X126471Y618567D01*
X126399Y618513D01*
X126330Y618456D01*
X126263Y618396D01*
X126199Y618333D01*
X126137Y618268D01*
X126079Y618200D01*
X126023Y618129D01*
X125971Y618056D01*
X125921Y617981D01*
X125875Y617904D01*
X125833Y617825D01*
X125793Y617744D01*
X125758Y617662D01*
X125726Y617578D01*
X125697Y617493D01*
X125672Y617406D01*
X125651Y617319D01*
X125634Y617231D01*
X125620Y617142D01*
X125611Y617052D01*
X125605Y616963D01*
X125603Y616873D01*
X120381Y622448D02*
X129779Y625581D01*
X120381Y628714D01*
X122731Y627930D02*
X122731Y623231D01*
X120381Y632437D02*
X129779Y632437D01*
X120381Y632437D02*
X120381Y636613D01*
X120381Y640361D02*
X129779Y640361D01*
X120381Y640361D02*
X120381Y644538D01*
X122992Y647964D02*
X127168Y647964D01*
X127168Y647963D02*
X127269Y647965D01*
X127370Y647971D01*
X127471Y647981D01*
X127571Y647994D01*
X127671Y648012D01*
X127770Y648033D01*
X127868Y648059D01*
X127965Y648088D01*
X128061Y648120D01*
X128155Y648157D01*
X128248Y648197D01*
X128340Y648241D01*
X128429Y648288D01*
X128517Y648339D01*
X128603Y648393D01*
X128686Y648450D01*
X128768Y648510D01*
X128846Y648574D01*
X128923Y648640D01*
X128996Y648710D01*
X129067Y648782D01*
X129135Y648857D01*
X129200Y648935D01*
X129262Y649015D01*
X129321Y649097D01*
X129377Y649182D01*
X129429Y649269D01*
X129478Y649357D01*
X129524Y649448D01*
X129565Y649540D01*
X129604Y649634D01*
X129638Y649729D01*
X129669Y649825D01*
X129696Y649923D01*
X129720Y650021D01*
X129739Y650121D01*
X129755Y650221D01*
X129767Y650321D01*
X129775Y650422D01*
X129779Y650523D01*
X129779Y650625D01*
X129775Y650726D01*
X129767Y650827D01*
X129755Y650927D01*
X129739Y651027D01*
X129720Y651127D01*
X129696Y651225D01*
X129669Y651323D01*
X129638Y651419D01*
X129604Y651514D01*
X129565Y651608D01*
X129524Y651700D01*
X129478Y651791D01*
X129429Y651880D01*
X129377Y651966D01*
X129321Y652051D01*
X129262Y652133D01*
X129200Y652213D01*
X129135Y652291D01*
X129067Y652366D01*
X128996Y652438D01*
X128923Y652508D01*
X128846Y652574D01*
X128768Y652638D01*
X128686Y652698D01*
X128603Y652755D01*
X128517Y652809D01*
X128429Y652860D01*
X128340Y652907D01*
X128248Y652951D01*
X128155Y652991D01*
X128061Y653028D01*
X127965Y653060D01*
X127868Y653089D01*
X127770Y653115D01*
X127671Y653136D01*
X127571Y653154D01*
X127471Y653167D01*
X127370Y653177D01*
X127269Y653183D01*
X127168Y653185D01*
X122992Y653185D01*
X122891Y653183D01*
X122790Y653177D01*
X122689Y653167D01*
X122589Y653154D01*
X122489Y653136D01*
X122390Y653115D01*
X122292Y653089D01*
X122195Y653060D01*
X122099Y653028D01*
X122005Y652991D01*
X121912Y652951D01*
X121820Y652907D01*
X121731Y652860D01*
X121643Y652809D01*
X121557Y652755D01*
X121474Y652698D01*
X121392Y652638D01*
X121314Y652574D01*
X121237Y652508D01*
X121164Y652438D01*
X121093Y652366D01*
X121025Y652291D01*
X120960Y652213D01*
X120898Y652133D01*
X120839Y652051D01*
X120783Y651966D01*
X120731Y651880D01*
X120682Y651791D01*
X120636Y651700D01*
X120595Y651608D01*
X120556Y651514D01*
X120522Y651419D01*
X120491Y651323D01*
X120464Y651225D01*
X120440Y651127D01*
X120421Y651027D01*
X120405Y650927D01*
X120393Y650827D01*
X120385Y650726D01*
X120381Y650625D01*
X120381Y650523D01*
X120385Y650422D01*
X120393Y650321D01*
X120405Y650221D01*
X120421Y650121D01*
X120440Y650021D01*
X120464Y649923D01*
X120491Y649825D01*
X120522Y649729D01*
X120556Y649634D01*
X120595Y649540D01*
X120636Y649448D01*
X120682Y649357D01*
X120731Y649269D01*
X120783Y649182D01*
X120839Y649097D01*
X120898Y649015D01*
X120960Y648935D01*
X121025Y648857D01*
X121093Y648782D01*
X121164Y648710D01*
X121237Y648640D01*
X121314Y648574D01*
X121392Y648510D01*
X121474Y648450D01*
X121557Y648393D01*
X121643Y648339D01*
X121731Y648288D01*
X121820Y648241D01*
X121912Y648197D01*
X122005Y648157D01*
X122099Y648120D01*
X122195Y648088D01*
X122292Y648059D01*
X122390Y648033D01*
X122489Y648012D01*
X122589Y647994D01*
X122689Y647981D01*
X122790Y647971D01*
X122891Y647965D01*
X122992Y647963D01*
X122992Y657108D02*
X127168Y657108D01*
X127168Y657107D02*
X127269Y657109D01*
X127370Y657115D01*
X127471Y657125D01*
X127571Y657138D01*
X127671Y657156D01*
X127770Y657177D01*
X127868Y657203D01*
X127965Y657232D01*
X128061Y657264D01*
X128155Y657301D01*
X128248Y657341D01*
X128340Y657385D01*
X128429Y657432D01*
X128517Y657483D01*
X128603Y657537D01*
X128686Y657594D01*
X128768Y657654D01*
X128846Y657718D01*
X128923Y657784D01*
X128996Y657854D01*
X129067Y657926D01*
X129135Y658001D01*
X129200Y658079D01*
X129262Y658159D01*
X129321Y658241D01*
X129377Y658326D01*
X129429Y658413D01*
X129478Y658501D01*
X129524Y658592D01*
X129565Y658684D01*
X129604Y658778D01*
X129638Y658873D01*
X129669Y658969D01*
X129696Y659067D01*
X129720Y659165D01*
X129739Y659265D01*
X129755Y659365D01*
X129767Y659465D01*
X129775Y659566D01*
X129779Y659667D01*
X129779Y659769D01*
X129775Y659870D01*
X129767Y659971D01*
X129755Y660071D01*
X129739Y660171D01*
X129720Y660271D01*
X129696Y660369D01*
X129669Y660467D01*
X129638Y660563D01*
X129604Y660658D01*
X129565Y660752D01*
X129524Y660844D01*
X129478Y660935D01*
X129429Y661024D01*
X129377Y661110D01*
X129321Y661195D01*
X129262Y661277D01*
X129200Y661357D01*
X129135Y661435D01*
X129067Y661510D01*
X128996Y661582D01*
X128923Y661652D01*
X128846Y661718D01*
X128768Y661782D01*
X128686Y661842D01*
X128603Y661899D01*
X128517Y661953D01*
X128429Y662004D01*
X128340Y662051D01*
X128248Y662095D01*
X128155Y662135D01*
X128061Y662172D01*
X127965Y662204D01*
X127868Y662233D01*
X127770Y662259D01*
X127671Y662280D01*
X127571Y662298D01*
X127471Y662311D01*
X127370Y662321D01*
X127269Y662327D01*
X127168Y662329D01*
X122992Y662329D01*
X122891Y662327D01*
X122790Y662321D01*
X122689Y662311D01*
X122589Y662298D01*
X122489Y662280D01*
X122390Y662259D01*
X122292Y662233D01*
X122195Y662204D01*
X122099Y662172D01*
X122005Y662135D01*
X121912Y662095D01*
X121820Y662051D01*
X121731Y662004D01*
X121643Y661953D01*
X121557Y661899D01*
X121474Y661842D01*
X121392Y661782D01*
X121314Y661718D01*
X121237Y661652D01*
X121164Y661582D01*
X121093Y661510D01*
X121025Y661435D01*
X120960Y661357D01*
X120898Y661277D01*
X120839Y661195D01*
X120783Y661110D01*
X120731Y661024D01*
X120682Y660935D01*
X120636Y660844D01*
X120595Y660752D01*
X120556Y660658D01*
X120522Y660563D01*
X120491Y660467D01*
X120464Y660369D01*
X120440Y660271D01*
X120421Y660171D01*
X120405Y660071D01*
X120393Y659971D01*
X120385Y659870D01*
X120381Y659769D01*
X120381Y659667D01*
X120385Y659566D01*
X120393Y659465D01*
X120405Y659365D01*
X120421Y659265D01*
X120440Y659165D01*
X120464Y659067D01*
X120491Y658969D01*
X120522Y658873D01*
X120556Y658778D01*
X120595Y658684D01*
X120636Y658592D01*
X120682Y658501D01*
X120731Y658413D01*
X120783Y658326D01*
X120839Y658241D01*
X120898Y658159D01*
X120960Y658079D01*
X121025Y658001D01*
X121093Y657926D01*
X121164Y657854D01*
X121237Y657784D01*
X121314Y657718D01*
X121392Y657654D01*
X121474Y657594D01*
X121557Y657537D01*
X121643Y657483D01*
X121731Y657432D01*
X121820Y657385D01*
X121912Y657341D01*
X122005Y657301D01*
X122099Y657264D01*
X122195Y657232D01*
X122292Y657203D01*
X122390Y657177D01*
X122489Y657156D01*
X122589Y657138D01*
X122689Y657125D01*
X122790Y657115D01*
X122891Y657109D01*
X122992Y657107D01*
X120381Y666557D02*
X129779Y666557D01*
X120381Y671778D01*
X129779Y671778D01*
X129779Y682883D02*
X120381Y682883D01*
X129779Y680273D02*
X129779Y685494D01*
X120381Y689129D02*
X120381Y693306D01*
X120381Y689129D02*
X129779Y689129D01*
X129779Y693306D01*
X125602Y692262D02*
X125602Y689129D01*
X120381Y696210D02*
X129779Y699342D01*
X120381Y702475D01*
X122731Y701692D02*
X122731Y696993D01*
X120381Y706268D02*
X129779Y706268D01*
X124558Y709401D01*
X129779Y712533D01*
X120381Y712533D01*
X129780Y724597D02*
X129778Y724692D01*
X129772Y724786D01*
X129763Y724880D01*
X129750Y724974D01*
X129733Y725067D01*
X129712Y725159D01*
X129687Y725251D01*
X129659Y725341D01*
X129627Y725430D01*
X129592Y725518D01*
X129553Y725604D01*
X129511Y725689D01*
X129465Y725772D01*
X129416Y725853D01*
X129364Y725932D01*
X129309Y726009D01*
X129250Y726083D01*
X129189Y726155D01*
X129125Y726225D01*
X129058Y726292D01*
X128988Y726356D01*
X128916Y726417D01*
X128842Y726476D01*
X128765Y726531D01*
X128686Y726583D01*
X128605Y726632D01*
X128522Y726678D01*
X128437Y726720D01*
X128351Y726759D01*
X128263Y726794D01*
X128174Y726826D01*
X128084Y726854D01*
X127992Y726879D01*
X127900Y726900D01*
X127807Y726917D01*
X127713Y726930D01*
X127619Y726939D01*
X127525Y726945D01*
X127430Y726947D01*
X129779Y724597D02*
X129777Y724489D01*
X129771Y724380D01*
X129761Y724272D01*
X129748Y724165D01*
X129730Y724058D01*
X129709Y723951D01*
X129684Y723846D01*
X129655Y723741D01*
X129623Y723638D01*
X129586Y723536D01*
X129546Y723435D01*
X129503Y723336D01*
X129456Y723238D01*
X129405Y723142D01*
X129351Y723048D01*
X129294Y722956D01*
X129233Y722866D01*
X129169Y722778D01*
X129103Y722693D01*
X129033Y722610D01*
X128960Y722530D01*
X128884Y722452D01*
X128806Y722377D01*
X128725Y722305D01*
X128641Y722236D01*
X128555Y722170D01*
X128467Y722107D01*
X128376Y722048D01*
X128284Y721991D01*
X128189Y721938D01*
X128093Y721889D01*
X127994Y721843D01*
X127895Y721800D01*
X127793Y721761D01*
X127691Y721726D01*
X125602Y726164D02*
X125671Y726233D01*
X125742Y726299D01*
X125815Y726363D01*
X125891Y726424D01*
X125970Y726482D01*
X126050Y726536D01*
X126133Y726588D01*
X126217Y726636D01*
X126303Y726682D01*
X126391Y726723D01*
X126481Y726762D01*
X126572Y726797D01*
X126664Y726828D01*
X126757Y726856D01*
X126851Y726880D01*
X126946Y726900D01*
X127042Y726917D01*
X127139Y726930D01*
X127236Y726939D01*
X127333Y726945D01*
X127430Y726947D01*
X125602Y726163D02*
X120381Y721725D01*
X120381Y726946D01*
X125080Y730869D02*
X125265Y730871D01*
X125450Y730878D01*
X125634Y730889D01*
X125818Y730904D01*
X126002Y730924D01*
X126186Y730948D01*
X126368Y730977D01*
X126550Y731010D01*
X126731Y731047D01*
X126911Y731089D01*
X127091Y731135D01*
X127269Y731185D01*
X127445Y731239D01*
X127621Y731298D01*
X127795Y731360D01*
X127967Y731427D01*
X128138Y731498D01*
X128307Y731573D01*
X128474Y731652D01*
X128554Y731682D01*
X128633Y731715D01*
X128710Y731752D01*
X128786Y731792D01*
X128860Y731835D01*
X128932Y731881D01*
X129001Y731931D01*
X129069Y731983D01*
X129134Y732039D01*
X129197Y732097D01*
X129256Y732159D01*
X129314Y732222D01*
X129368Y732289D01*
X129419Y732357D01*
X129467Y732428D01*
X129512Y732501D01*
X129554Y732575D01*
X129592Y732652D01*
X129627Y732730D01*
X129659Y732809D01*
X129687Y732890D01*
X129711Y732972D01*
X129732Y733056D01*
X129749Y733139D01*
X129762Y733224D01*
X129771Y733309D01*
X129777Y733394D01*
X129779Y733480D01*
X129777Y733566D01*
X129771Y733651D01*
X129762Y733736D01*
X129749Y733821D01*
X129732Y733904D01*
X129711Y733988D01*
X129687Y734070D01*
X129659Y734151D01*
X129627Y734230D01*
X129592Y734308D01*
X129554Y734385D01*
X129512Y734459D01*
X129467Y734532D01*
X129419Y734603D01*
X129368Y734671D01*
X129314Y734738D01*
X129256Y734801D01*
X129197Y734863D01*
X129134Y734921D01*
X129069Y734977D01*
X129001Y735029D01*
X128932Y735079D01*
X128860Y735125D01*
X128786Y735168D01*
X128710Y735208D01*
X128633Y735245D01*
X128554Y735278D01*
X128474Y735308D01*
X128474Y735307D02*
X128307Y735386D01*
X128138Y735461D01*
X127967Y735532D01*
X127795Y735599D01*
X127621Y735661D01*
X127445Y735720D01*
X127269Y735774D01*
X127091Y735824D01*
X126911Y735870D01*
X126731Y735912D01*
X126550Y735949D01*
X126368Y735982D01*
X126186Y736011D01*
X126002Y736035D01*
X125818Y736055D01*
X125634Y736070D01*
X125450Y736081D01*
X125265Y736088D01*
X125080Y736090D01*
X125080Y730869D02*
X124895Y730871D01*
X124710Y730878D01*
X124526Y730889D01*
X124342Y730904D01*
X124158Y730924D01*
X123974Y730948D01*
X123792Y730977D01*
X123610Y731010D01*
X123429Y731047D01*
X123249Y731089D01*
X123069Y731135D01*
X122891Y731185D01*
X122715Y731239D01*
X122539Y731298D01*
X122365Y731360D01*
X122193Y731427D01*
X122022Y731498D01*
X121853Y731573D01*
X121686Y731652D01*
X121606Y731682D01*
X121527Y731715D01*
X121450Y731752D01*
X121374Y731792D01*
X121300Y731835D01*
X121228Y731881D01*
X121159Y731931D01*
X121091Y731984D01*
X121026Y732039D01*
X120963Y732098D01*
X120904Y732159D01*
X120846Y732222D01*
X120792Y732289D01*
X120741Y732357D01*
X120693Y732428D01*
X120648Y732501D01*
X120606Y732575D01*
X120568Y732652D01*
X120533Y732730D01*
X120501Y732809D01*
X120473Y732890D01*
X120449Y732972D01*
X120428Y733056D01*
X120411Y733139D01*
X120398Y733224D01*
X120389Y733309D01*
X120383Y733394D01*
X120381Y733480D01*
X121686Y735307D02*
X121853Y735386D01*
X122022Y735461D01*
X122193Y735532D01*
X122365Y735599D01*
X122539Y735661D01*
X122715Y735720D01*
X122891Y735774D01*
X123069Y735824D01*
X123249Y735870D01*
X123429Y735912D01*
X123610Y735949D01*
X123792Y735982D01*
X123974Y736011D01*
X124158Y736035D01*
X124342Y736055D01*
X124526Y736070D01*
X124710Y736081D01*
X124895Y736088D01*
X125080Y736090D01*
X121686Y735308D02*
X121606Y735278D01*
X121527Y735245D01*
X121450Y735208D01*
X121374Y735168D01*
X121300Y735125D01*
X121228Y735079D01*
X121159Y735029D01*
X121091Y734977D01*
X121026Y734921D01*
X120963Y734863D01*
X120904Y734801D01*
X120846Y734738D01*
X120792Y734671D01*
X120741Y734603D01*
X120693Y734532D01*
X120648Y734459D01*
X120606Y734385D01*
X120568Y734308D01*
X120533Y734230D01*
X120501Y734151D01*
X120473Y734070D01*
X120449Y733988D01*
X120428Y733904D01*
X120411Y733821D01*
X120398Y733736D01*
X120389Y733651D01*
X120383Y733566D01*
X120381Y733480D01*
X122469Y731391D02*
X127691Y735568D01*
X127691Y740013D02*
X129779Y742624D01*
X120381Y742624D01*
X120381Y745234D02*
X120381Y740013D01*
X124558Y751245D02*
X124558Y754378D01*
X124558Y751245D02*
X124560Y751156D01*
X124566Y751068D01*
X124575Y750980D01*
X124588Y750892D01*
X124605Y750805D01*
X124625Y750719D01*
X124650Y750634D01*
X124677Y750549D01*
X124709Y750466D01*
X124743Y750385D01*
X124782Y750305D01*
X124823Y750227D01*
X124868Y750150D01*
X124916Y750076D01*
X124967Y750003D01*
X125021Y749933D01*
X125079Y749866D01*
X125139Y749800D01*
X125201Y749738D01*
X125267Y749678D01*
X125334Y749620D01*
X125404Y749566D01*
X125477Y749515D01*
X125551Y749467D01*
X125628Y749422D01*
X125706Y749381D01*
X125786Y749342D01*
X125867Y749308D01*
X125950Y749276D01*
X126035Y749249D01*
X126120Y749224D01*
X126206Y749204D01*
X126293Y749187D01*
X126381Y749174D01*
X126469Y749165D01*
X126557Y749159D01*
X126646Y749157D01*
X127168Y749157D01*
X127269Y749159D01*
X127370Y749165D01*
X127471Y749175D01*
X127571Y749188D01*
X127671Y749206D01*
X127770Y749227D01*
X127868Y749253D01*
X127965Y749282D01*
X128061Y749314D01*
X128155Y749351D01*
X128248Y749391D01*
X128340Y749435D01*
X128429Y749482D01*
X128517Y749533D01*
X128603Y749587D01*
X128686Y749644D01*
X128768Y749704D01*
X128846Y749768D01*
X128923Y749834D01*
X128996Y749904D01*
X129067Y749976D01*
X129135Y750051D01*
X129200Y750129D01*
X129262Y750209D01*
X129321Y750291D01*
X129377Y750376D01*
X129429Y750463D01*
X129478Y750551D01*
X129524Y750642D01*
X129565Y750734D01*
X129604Y750828D01*
X129638Y750923D01*
X129669Y751019D01*
X129696Y751117D01*
X129720Y751215D01*
X129739Y751315D01*
X129755Y751415D01*
X129767Y751515D01*
X129775Y751616D01*
X129779Y751717D01*
X129779Y751819D01*
X129775Y751920D01*
X129767Y752021D01*
X129755Y752121D01*
X129739Y752221D01*
X129720Y752321D01*
X129696Y752419D01*
X129669Y752517D01*
X129638Y752613D01*
X129604Y752708D01*
X129565Y752802D01*
X129524Y752894D01*
X129478Y752985D01*
X129429Y753074D01*
X129377Y753160D01*
X129321Y753245D01*
X129262Y753327D01*
X129200Y753407D01*
X129135Y753485D01*
X129067Y753560D01*
X128996Y753632D01*
X128923Y753702D01*
X128846Y753768D01*
X128768Y753832D01*
X128686Y753892D01*
X128603Y753949D01*
X128517Y754003D01*
X128429Y754054D01*
X128340Y754101D01*
X128248Y754145D01*
X128155Y754185D01*
X128061Y754222D01*
X127965Y754254D01*
X127868Y754283D01*
X127770Y754309D01*
X127671Y754330D01*
X127571Y754348D01*
X127471Y754361D01*
X127370Y754371D01*
X127269Y754377D01*
X127168Y754379D01*
X127168Y754378D02*
X124558Y754378D01*
X124432Y754376D01*
X124306Y754370D01*
X124180Y754361D01*
X124055Y754348D01*
X123930Y754330D01*
X123805Y754310D01*
X123681Y754285D01*
X123558Y754257D01*
X123436Y754225D01*
X123315Y754189D01*
X123195Y754150D01*
X123077Y754107D01*
X122960Y754060D01*
X122844Y754010D01*
X122729Y753956D01*
X122617Y753900D01*
X122506Y753839D01*
X122397Y753776D01*
X122290Y753709D01*
X122185Y753639D01*
X122082Y753565D01*
X121982Y753489D01*
X121884Y753410D01*
X121788Y753328D01*
X121695Y753242D01*
X121604Y753155D01*
X121517Y753064D01*
X121431Y752971D01*
X121349Y752875D01*
X121270Y752777D01*
X121194Y752677D01*
X121120Y752574D01*
X121050Y752469D01*
X120983Y752362D01*
X120920Y752253D01*
X120859Y752142D01*
X120803Y752030D01*
X120749Y751915D01*
X120699Y751799D01*
X120652Y751682D01*
X120609Y751564D01*
X120570Y751444D01*
X120534Y751323D01*
X120502Y751201D01*
X120474Y751078D01*
X120449Y750954D01*
X120429Y750829D01*
X120411Y750704D01*
X120398Y750579D01*
X120389Y750453D01*
X120383Y750327D01*
X120381Y750201D01*
D11*
X402193Y504659D02*
X411111Y504659D01*
X161111Y504659D02*
X152193Y504659D01*
X333734Y498692D02*
X347111Y498692D01*
X340422Y492004D02*
X340422Y505381D01*
X97111Y498692D02*
X83734Y498692D01*
X90422Y492004D02*
X90422Y505381D01*
M02*
