G04 EAGLE Gerber RS-274X export*
G75*
%MOMM*%
%FSLAX34Y34*%
%LPD*%
%INSilkscreen Top*%
%IPPOS*%
%AMOC8*
5,1,8,0,0,1.08239X$1,22.5*%
G01*
%ADD10C,0.076200*%
%ADD11C,0.152400*%
%ADD12C,0.177800*%


D10*
X129619Y569558D02*
X129619Y565381D01*
X120221Y565381D01*
X120221Y569558D01*
X124398Y568514D02*
X124398Y565381D01*
X120221Y573376D02*
X129619Y573376D01*
X125442Y576508D02*
X120221Y573376D01*
X125442Y576508D02*
X120221Y579641D01*
X129619Y579641D01*
X129619Y586784D02*
X129617Y586873D01*
X129611Y586961D01*
X129602Y587049D01*
X129589Y587137D01*
X129572Y587224D01*
X129552Y587310D01*
X129527Y587395D01*
X129500Y587480D01*
X129468Y587563D01*
X129434Y587644D01*
X129395Y587724D01*
X129354Y587802D01*
X129309Y587879D01*
X129261Y587953D01*
X129210Y588026D01*
X129156Y588096D01*
X129098Y588163D01*
X129038Y588229D01*
X128976Y588291D01*
X128910Y588351D01*
X128843Y588409D01*
X128773Y588463D01*
X128700Y588514D01*
X128626Y588562D01*
X128549Y588607D01*
X128471Y588648D01*
X128391Y588687D01*
X128310Y588721D01*
X128227Y588753D01*
X128142Y588780D01*
X128057Y588805D01*
X127971Y588825D01*
X127884Y588842D01*
X127796Y588855D01*
X127708Y588864D01*
X127620Y588870D01*
X127531Y588872D01*
X129619Y586784D02*
X129617Y586655D01*
X129611Y586526D01*
X129602Y586397D01*
X129589Y586269D01*
X129572Y586141D01*
X129551Y586014D01*
X129527Y585887D01*
X129499Y585761D01*
X129467Y585636D01*
X129432Y585512D01*
X129393Y585389D01*
X129350Y585267D01*
X129304Y585147D01*
X129254Y585028D01*
X129201Y584910D01*
X129145Y584794D01*
X129085Y584680D01*
X129022Y584567D01*
X128955Y584457D01*
X128886Y584348D01*
X128813Y584242D01*
X128737Y584137D01*
X128658Y584035D01*
X128576Y583936D01*
X128492Y583838D01*
X128404Y583743D01*
X128314Y583651D01*
X122309Y583913D02*
X122220Y583915D01*
X122132Y583921D01*
X122044Y583930D01*
X121956Y583943D01*
X121869Y583960D01*
X121783Y583980D01*
X121698Y584005D01*
X121613Y584032D01*
X121530Y584064D01*
X121449Y584098D01*
X121369Y584137D01*
X121291Y584178D01*
X121214Y584223D01*
X121140Y584271D01*
X121067Y584322D01*
X120997Y584376D01*
X120930Y584434D01*
X120864Y584494D01*
X120802Y584556D01*
X120742Y584622D01*
X120684Y584689D01*
X120630Y584759D01*
X120579Y584832D01*
X120531Y584906D01*
X120486Y584983D01*
X120445Y585061D01*
X120406Y585141D01*
X120372Y585222D01*
X120340Y585305D01*
X120313Y585390D01*
X120288Y585475D01*
X120268Y585561D01*
X120251Y585648D01*
X120238Y585736D01*
X120229Y585824D01*
X120223Y585912D01*
X120221Y586001D01*
X120223Y586121D01*
X120228Y586241D01*
X120238Y586360D01*
X120250Y586480D01*
X120267Y586599D01*
X120287Y586717D01*
X120311Y586835D01*
X120338Y586951D01*
X120369Y587067D01*
X120403Y587182D01*
X120441Y587296D01*
X120483Y587409D01*
X120528Y587520D01*
X120576Y587630D01*
X120627Y587738D01*
X120682Y587845D01*
X120740Y587950D01*
X120802Y588053D01*
X120866Y588154D01*
X120934Y588254D01*
X121004Y588351D01*
X124136Y584956D02*
X124088Y584878D01*
X124036Y584802D01*
X123982Y584729D01*
X123924Y584658D01*
X123863Y584589D01*
X123799Y584523D01*
X123732Y584460D01*
X123663Y584400D01*
X123591Y584343D01*
X123517Y584289D01*
X123440Y584239D01*
X123361Y584191D01*
X123281Y584148D01*
X123198Y584107D01*
X123114Y584071D01*
X123029Y584038D01*
X122942Y584009D01*
X122853Y583983D01*
X122764Y583961D01*
X122674Y583944D01*
X122584Y583930D01*
X122492Y583920D01*
X122401Y583914D01*
X122309Y583912D01*
X125704Y587828D02*
X125752Y587906D01*
X125804Y587982D01*
X125858Y588055D01*
X125916Y588126D01*
X125977Y588195D01*
X126041Y588261D01*
X126108Y588324D01*
X126177Y588384D01*
X126249Y588441D01*
X126323Y588495D01*
X126400Y588545D01*
X126479Y588593D01*
X126559Y588636D01*
X126642Y588677D01*
X126726Y588713D01*
X126811Y588746D01*
X126898Y588775D01*
X126987Y588801D01*
X127076Y588823D01*
X127166Y588840D01*
X127256Y588854D01*
X127348Y588864D01*
X127439Y588870D01*
X127531Y588872D01*
X125703Y587828D02*
X124137Y584957D01*
X129619Y595318D02*
X129617Y595407D01*
X129611Y595495D01*
X129602Y595583D01*
X129589Y595671D01*
X129572Y595758D01*
X129552Y595844D01*
X129527Y595929D01*
X129500Y596014D01*
X129468Y596097D01*
X129434Y596178D01*
X129395Y596258D01*
X129354Y596336D01*
X129309Y596413D01*
X129261Y596487D01*
X129210Y596560D01*
X129156Y596630D01*
X129098Y596697D01*
X129038Y596763D01*
X128976Y596825D01*
X128910Y596885D01*
X128843Y596943D01*
X128773Y596997D01*
X128700Y597048D01*
X128626Y597096D01*
X128549Y597141D01*
X128471Y597182D01*
X128391Y597221D01*
X128310Y597255D01*
X128227Y597287D01*
X128142Y597314D01*
X128057Y597339D01*
X127971Y597359D01*
X127884Y597376D01*
X127796Y597389D01*
X127708Y597398D01*
X127620Y597404D01*
X127531Y597406D01*
X129619Y595318D02*
X129617Y595189D01*
X129611Y595060D01*
X129602Y594931D01*
X129589Y594803D01*
X129572Y594675D01*
X129551Y594548D01*
X129527Y594421D01*
X129499Y594295D01*
X129467Y594170D01*
X129432Y594046D01*
X129393Y593923D01*
X129350Y593801D01*
X129304Y593681D01*
X129254Y593562D01*
X129201Y593444D01*
X129145Y593328D01*
X129085Y593214D01*
X129022Y593101D01*
X128955Y592991D01*
X128886Y592882D01*
X128813Y592776D01*
X128737Y592671D01*
X128658Y592569D01*
X128576Y592470D01*
X128492Y592372D01*
X128404Y592277D01*
X128314Y592185D01*
X122309Y592447D02*
X122220Y592449D01*
X122132Y592455D01*
X122044Y592464D01*
X121956Y592477D01*
X121869Y592494D01*
X121783Y592514D01*
X121698Y592539D01*
X121613Y592566D01*
X121530Y592598D01*
X121449Y592632D01*
X121369Y592671D01*
X121291Y592712D01*
X121214Y592757D01*
X121140Y592805D01*
X121067Y592856D01*
X120997Y592910D01*
X120930Y592968D01*
X120864Y593028D01*
X120802Y593090D01*
X120742Y593156D01*
X120684Y593223D01*
X120630Y593293D01*
X120579Y593366D01*
X120531Y593440D01*
X120486Y593517D01*
X120445Y593595D01*
X120406Y593675D01*
X120372Y593756D01*
X120340Y593839D01*
X120313Y593924D01*
X120288Y594009D01*
X120268Y594095D01*
X120251Y594182D01*
X120238Y594270D01*
X120229Y594358D01*
X120223Y594446D01*
X120221Y594535D01*
X120223Y594655D01*
X120228Y594775D01*
X120238Y594894D01*
X120250Y595014D01*
X120267Y595133D01*
X120287Y595251D01*
X120311Y595369D01*
X120338Y595485D01*
X120369Y595601D01*
X120403Y595716D01*
X120441Y595830D01*
X120483Y595943D01*
X120528Y596054D01*
X120576Y596164D01*
X120627Y596272D01*
X120682Y596379D01*
X120740Y596484D01*
X120802Y596587D01*
X120866Y596688D01*
X120934Y596788D01*
X121004Y596885D01*
X124136Y593491D02*
X124088Y593413D01*
X124036Y593337D01*
X123982Y593264D01*
X123924Y593193D01*
X123863Y593124D01*
X123799Y593058D01*
X123732Y592995D01*
X123663Y592935D01*
X123591Y592878D01*
X123517Y592824D01*
X123440Y592774D01*
X123361Y592726D01*
X123281Y592683D01*
X123198Y592642D01*
X123114Y592606D01*
X123029Y592573D01*
X122942Y592544D01*
X122853Y592518D01*
X122764Y592496D01*
X122674Y592479D01*
X122584Y592465D01*
X122492Y592455D01*
X122401Y592449D01*
X122309Y592447D01*
X125704Y596363D02*
X125752Y596441D01*
X125804Y596517D01*
X125858Y596590D01*
X125916Y596661D01*
X125977Y596730D01*
X126041Y596796D01*
X126108Y596859D01*
X126177Y596919D01*
X126249Y596976D01*
X126323Y597030D01*
X126400Y597080D01*
X126479Y597128D01*
X126559Y597171D01*
X126642Y597212D01*
X126726Y597248D01*
X126811Y597281D01*
X126898Y597310D01*
X126987Y597336D01*
X127076Y597358D01*
X127166Y597375D01*
X127256Y597389D01*
X127348Y597399D01*
X127439Y597405D01*
X127531Y597407D01*
X125703Y596363D02*
X124137Y593491D01*
X120221Y601347D02*
X129619Y601347D01*
X129619Y605524D01*
X124398Y614262D02*
X124398Y616873D01*
X124397Y616873D02*
X124399Y616974D01*
X124405Y617075D01*
X124415Y617176D01*
X124428Y617276D01*
X124446Y617376D01*
X124467Y617475D01*
X124493Y617573D01*
X124522Y617670D01*
X124554Y617766D01*
X124591Y617860D01*
X124631Y617953D01*
X124675Y618045D01*
X124722Y618134D01*
X124773Y618222D01*
X124827Y618308D01*
X124884Y618391D01*
X124944Y618473D01*
X125008Y618551D01*
X125074Y618628D01*
X125144Y618701D01*
X125216Y618772D01*
X125291Y618840D01*
X125369Y618905D01*
X125449Y618967D01*
X125531Y619026D01*
X125616Y619082D01*
X125703Y619134D01*
X125791Y619183D01*
X125882Y619229D01*
X125974Y619270D01*
X126068Y619309D01*
X126163Y619343D01*
X126259Y619374D01*
X126357Y619401D01*
X126455Y619425D01*
X126555Y619444D01*
X126655Y619460D01*
X126755Y619472D01*
X126856Y619480D01*
X126957Y619484D01*
X127059Y619484D01*
X127160Y619480D01*
X127261Y619472D01*
X127361Y619460D01*
X127461Y619444D01*
X127561Y619425D01*
X127659Y619401D01*
X127757Y619374D01*
X127853Y619343D01*
X127948Y619309D01*
X128042Y619270D01*
X128134Y619229D01*
X128225Y619183D01*
X128314Y619134D01*
X128400Y619082D01*
X128485Y619026D01*
X128567Y618967D01*
X128647Y618905D01*
X128725Y618840D01*
X128800Y618772D01*
X128872Y618701D01*
X128942Y618628D01*
X129008Y618551D01*
X129072Y618473D01*
X129132Y618391D01*
X129189Y618308D01*
X129243Y618222D01*
X129294Y618134D01*
X129341Y618045D01*
X129385Y617953D01*
X129425Y617860D01*
X129462Y617766D01*
X129494Y617670D01*
X129523Y617573D01*
X129549Y617475D01*
X129570Y617376D01*
X129588Y617276D01*
X129601Y617176D01*
X129611Y617075D01*
X129617Y616974D01*
X129619Y616873D01*
X129619Y614262D01*
X120221Y614262D01*
X120221Y616873D01*
X120223Y616963D01*
X120229Y617052D01*
X120238Y617142D01*
X120252Y617231D01*
X120269Y617319D01*
X120290Y617406D01*
X120315Y617493D01*
X120344Y617578D01*
X120376Y617662D01*
X120411Y617744D01*
X120451Y617825D01*
X120493Y617904D01*
X120539Y617981D01*
X120589Y618056D01*
X120641Y618129D01*
X120697Y618200D01*
X120755Y618268D01*
X120817Y618333D01*
X120881Y618396D01*
X120948Y618456D01*
X121017Y618513D01*
X121089Y618567D01*
X121163Y618618D01*
X121239Y618666D01*
X121317Y618710D01*
X121397Y618751D01*
X121479Y618789D01*
X121562Y618823D01*
X121647Y618853D01*
X121733Y618880D01*
X121819Y618903D01*
X121907Y618922D01*
X121996Y618937D01*
X122085Y618949D01*
X122174Y618957D01*
X122264Y618961D01*
X122354Y618961D01*
X122444Y618957D01*
X122533Y618949D01*
X122622Y618937D01*
X122711Y618922D01*
X122799Y618903D01*
X122885Y618880D01*
X122971Y618853D01*
X123056Y618823D01*
X123139Y618789D01*
X123221Y618751D01*
X123301Y618710D01*
X123379Y618666D01*
X123455Y618618D01*
X123529Y618567D01*
X123601Y618513D01*
X123670Y618456D01*
X123737Y618396D01*
X123801Y618333D01*
X123863Y618268D01*
X123921Y618200D01*
X123977Y618129D01*
X124029Y618056D01*
X124079Y617981D01*
X124125Y617904D01*
X124167Y617825D01*
X124207Y617744D01*
X124242Y617662D01*
X124274Y617578D01*
X124303Y617493D01*
X124328Y617406D01*
X124349Y617319D01*
X124366Y617231D01*
X124380Y617142D01*
X124389Y617052D01*
X124395Y616963D01*
X124397Y616873D01*
X129619Y622448D02*
X120221Y625581D01*
X129619Y628714D01*
X127270Y627930D02*
X127270Y623231D01*
X129619Y632437D02*
X120221Y632437D01*
X129619Y632437D02*
X129619Y636613D01*
X129619Y640361D02*
X120221Y640361D01*
X129619Y640361D02*
X129619Y644538D01*
X127008Y647964D02*
X122832Y647964D01*
X122832Y647963D02*
X122731Y647965D01*
X122630Y647971D01*
X122529Y647981D01*
X122429Y647994D01*
X122329Y648012D01*
X122230Y648033D01*
X122132Y648059D01*
X122035Y648088D01*
X121939Y648120D01*
X121845Y648157D01*
X121752Y648197D01*
X121660Y648241D01*
X121571Y648288D01*
X121483Y648339D01*
X121397Y648393D01*
X121314Y648450D01*
X121232Y648510D01*
X121154Y648574D01*
X121077Y648640D01*
X121004Y648710D01*
X120933Y648782D01*
X120865Y648857D01*
X120800Y648935D01*
X120738Y649015D01*
X120679Y649097D01*
X120623Y649182D01*
X120571Y649269D01*
X120522Y649357D01*
X120476Y649448D01*
X120435Y649540D01*
X120396Y649634D01*
X120362Y649729D01*
X120331Y649825D01*
X120304Y649923D01*
X120280Y650021D01*
X120261Y650121D01*
X120245Y650221D01*
X120233Y650321D01*
X120225Y650422D01*
X120221Y650523D01*
X120221Y650625D01*
X120225Y650726D01*
X120233Y650827D01*
X120245Y650927D01*
X120261Y651027D01*
X120280Y651127D01*
X120304Y651225D01*
X120331Y651323D01*
X120362Y651419D01*
X120396Y651514D01*
X120435Y651608D01*
X120476Y651700D01*
X120522Y651791D01*
X120571Y651880D01*
X120623Y651966D01*
X120679Y652051D01*
X120738Y652133D01*
X120800Y652213D01*
X120865Y652291D01*
X120933Y652366D01*
X121004Y652438D01*
X121077Y652508D01*
X121154Y652574D01*
X121232Y652638D01*
X121314Y652698D01*
X121397Y652755D01*
X121483Y652809D01*
X121571Y652860D01*
X121660Y652907D01*
X121752Y652951D01*
X121845Y652991D01*
X121939Y653028D01*
X122035Y653060D01*
X122132Y653089D01*
X122230Y653115D01*
X122329Y653136D01*
X122429Y653154D01*
X122529Y653167D01*
X122630Y653177D01*
X122731Y653183D01*
X122832Y653185D01*
X127008Y653185D01*
X127109Y653183D01*
X127210Y653177D01*
X127311Y653167D01*
X127411Y653154D01*
X127511Y653136D01*
X127610Y653115D01*
X127708Y653089D01*
X127805Y653060D01*
X127901Y653028D01*
X127995Y652991D01*
X128088Y652951D01*
X128180Y652907D01*
X128269Y652860D01*
X128357Y652809D01*
X128443Y652755D01*
X128526Y652698D01*
X128608Y652638D01*
X128686Y652574D01*
X128763Y652508D01*
X128836Y652438D01*
X128907Y652366D01*
X128975Y652291D01*
X129040Y652213D01*
X129102Y652133D01*
X129161Y652051D01*
X129217Y651966D01*
X129269Y651880D01*
X129318Y651791D01*
X129364Y651700D01*
X129405Y651608D01*
X129444Y651514D01*
X129478Y651419D01*
X129509Y651323D01*
X129536Y651225D01*
X129560Y651127D01*
X129579Y651027D01*
X129595Y650927D01*
X129607Y650827D01*
X129615Y650726D01*
X129619Y650625D01*
X129619Y650523D01*
X129615Y650422D01*
X129607Y650321D01*
X129595Y650221D01*
X129579Y650121D01*
X129560Y650021D01*
X129536Y649923D01*
X129509Y649825D01*
X129478Y649729D01*
X129444Y649634D01*
X129405Y649540D01*
X129364Y649448D01*
X129318Y649357D01*
X129269Y649269D01*
X129217Y649182D01*
X129161Y649097D01*
X129102Y649015D01*
X129040Y648935D01*
X128975Y648857D01*
X128907Y648782D01*
X128836Y648710D01*
X128763Y648640D01*
X128686Y648574D01*
X128608Y648510D01*
X128526Y648450D01*
X128443Y648393D01*
X128357Y648339D01*
X128269Y648288D01*
X128180Y648241D01*
X128088Y648197D01*
X127995Y648157D01*
X127901Y648120D01*
X127805Y648088D01*
X127708Y648059D01*
X127610Y648033D01*
X127511Y648012D01*
X127411Y647994D01*
X127311Y647981D01*
X127210Y647971D01*
X127109Y647965D01*
X127008Y647963D01*
X127008Y657108D02*
X122832Y657108D01*
X122832Y657107D02*
X122731Y657109D01*
X122630Y657115D01*
X122529Y657125D01*
X122429Y657138D01*
X122329Y657156D01*
X122230Y657177D01*
X122132Y657203D01*
X122035Y657232D01*
X121939Y657264D01*
X121845Y657301D01*
X121752Y657341D01*
X121660Y657385D01*
X121571Y657432D01*
X121483Y657483D01*
X121397Y657537D01*
X121314Y657594D01*
X121232Y657654D01*
X121154Y657718D01*
X121077Y657784D01*
X121004Y657854D01*
X120933Y657926D01*
X120865Y658001D01*
X120800Y658079D01*
X120738Y658159D01*
X120679Y658241D01*
X120623Y658326D01*
X120571Y658413D01*
X120522Y658501D01*
X120476Y658592D01*
X120435Y658684D01*
X120396Y658778D01*
X120362Y658873D01*
X120331Y658969D01*
X120304Y659067D01*
X120280Y659165D01*
X120261Y659265D01*
X120245Y659365D01*
X120233Y659465D01*
X120225Y659566D01*
X120221Y659667D01*
X120221Y659769D01*
X120225Y659870D01*
X120233Y659971D01*
X120245Y660071D01*
X120261Y660171D01*
X120280Y660271D01*
X120304Y660369D01*
X120331Y660467D01*
X120362Y660563D01*
X120396Y660658D01*
X120435Y660752D01*
X120476Y660844D01*
X120522Y660935D01*
X120571Y661024D01*
X120623Y661110D01*
X120679Y661195D01*
X120738Y661277D01*
X120800Y661357D01*
X120865Y661435D01*
X120933Y661510D01*
X121004Y661582D01*
X121077Y661652D01*
X121154Y661718D01*
X121232Y661782D01*
X121314Y661842D01*
X121397Y661899D01*
X121483Y661953D01*
X121571Y662004D01*
X121660Y662051D01*
X121752Y662095D01*
X121845Y662135D01*
X121939Y662172D01*
X122035Y662204D01*
X122132Y662233D01*
X122230Y662259D01*
X122329Y662280D01*
X122429Y662298D01*
X122529Y662311D01*
X122630Y662321D01*
X122731Y662327D01*
X122832Y662329D01*
X127008Y662329D01*
X127109Y662327D01*
X127210Y662321D01*
X127311Y662311D01*
X127411Y662298D01*
X127511Y662280D01*
X127610Y662259D01*
X127708Y662233D01*
X127805Y662204D01*
X127901Y662172D01*
X127995Y662135D01*
X128088Y662095D01*
X128180Y662051D01*
X128269Y662004D01*
X128357Y661953D01*
X128443Y661899D01*
X128526Y661842D01*
X128608Y661782D01*
X128686Y661718D01*
X128763Y661652D01*
X128836Y661582D01*
X128907Y661510D01*
X128975Y661435D01*
X129040Y661357D01*
X129102Y661277D01*
X129161Y661195D01*
X129217Y661110D01*
X129269Y661024D01*
X129318Y660935D01*
X129364Y660844D01*
X129405Y660752D01*
X129444Y660658D01*
X129478Y660563D01*
X129509Y660467D01*
X129536Y660369D01*
X129560Y660271D01*
X129579Y660171D01*
X129595Y660071D01*
X129607Y659971D01*
X129615Y659870D01*
X129619Y659769D01*
X129619Y659667D01*
X129615Y659566D01*
X129607Y659465D01*
X129595Y659365D01*
X129579Y659265D01*
X129560Y659165D01*
X129536Y659067D01*
X129509Y658969D01*
X129478Y658873D01*
X129444Y658778D01*
X129405Y658684D01*
X129364Y658592D01*
X129318Y658501D01*
X129269Y658413D01*
X129217Y658326D01*
X129161Y658241D01*
X129102Y658159D01*
X129040Y658079D01*
X128975Y658001D01*
X128907Y657926D01*
X128836Y657854D01*
X128763Y657784D01*
X128686Y657718D01*
X128608Y657654D01*
X128526Y657594D01*
X128443Y657537D01*
X128357Y657483D01*
X128269Y657432D01*
X128180Y657385D01*
X128088Y657341D01*
X127995Y657301D01*
X127901Y657264D01*
X127805Y657232D01*
X127708Y657203D01*
X127610Y657177D01*
X127511Y657156D01*
X127411Y657138D01*
X127311Y657125D01*
X127210Y657115D01*
X127109Y657109D01*
X127008Y657107D01*
X129619Y666557D02*
X120221Y666557D01*
X129619Y671778D01*
X120221Y671778D01*
X120221Y682883D02*
X129619Y682883D01*
X120221Y680273D02*
X120221Y685494D01*
X129619Y689129D02*
X129619Y693306D01*
X129619Y689129D02*
X120221Y689129D01*
X120221Y693306D01*
X124398Y692262D02*
X124398Y689129D01*
X129619Y696210D02*
X120221Y699342D01*
X129619Y702475D01*
X127270Y701692D02*
X127270Y696993D01*
X129619Y706268D02*
X120221Y706268D01*
X125442Y709401D01*
X120221Y712533D01*
X129619Y712533D01*
X120221Y724597D02*
X120223Y724692D01*
X120229Y724786D01*
X120238Y724880D01*
X120251Y724974D01*
X120268Y725067D01*
X120289Y725159D01*
X120314Y725251D01*
X120342Y725341D01*
X120374Y725430D01*
X120409Y725518D01*
X120448Y725604D01*
X120490Y725689D01*
X120536Y725772D01*
X120585Y725853D01*
X120637Y725932D01*
X120692Y726009D01*
X120751Y726083D01*
X120812Y726155D01*
X120876Y726225D01*
X120943Y726292D01*
X121013Y726356D01*
X121085Y726417D01*
X121159Y726476D01*
X121236Y726531D01*
X121315Y726583D01*
X121396Y726632D01*
X121479Y726678D01*
X121564Y726720D01*
X121650Y726759D01*
X121738Y726794D01*
X121827Y726826D01*
X121917Y726854D01*
X122009Y726879D01*
X122101Y726900D01*
X122194Y726917D01*
X122288Y726930D01*
X122382Y726939D01*
X122476Y726945D01*
X122571Y726947D01*
X120221Y724597D02*
X120223Y724489D01*
X120229Y724380D01*
X120239Y724272D01*
X120252Y724165D01*
X120270Y724058D01*
X120291Y723951D01*
X120316Y723846D01*
X120345Y723741D01*
X120377Y723638D01*
X120414Y723536D01*
X120454Y723435D01*
X120497Y723336D01*
X120544Y723238D01*
X120595Y723142D01*
X120649Y723048D01*
X120706Y722956D01*
X120767Y722866D01*
X120831Y722778D01*
X120897Y722693D01*
X120967Y722610D01*
X121040Y722530D01*
X121116Y722452D01*
X121194Y722377D01*
X121275Y722305D01*
X121359Y722236D01*
X121445Y722170D01*
X121533Y722107D01*
X121624Y722048D01*
X121716Y721991D01*
X121811Y721938D01*
X121908Y721889D01*
X122006Y721843D01*
X122105Y721800D01*
X122207Y721761D01*
X122309Y721726D01*
X124399Y726164D02*
X124330Y726233D01*
X124259Y726299D01*
X124186Y726363D01*
X124110Y726424D01*
X124031Y726482D01*
X123951Y726536D01*
X123868Y726588D01*
X123784Y726636D01*
X123698Y726682D01*
X123610Y726723D01*
X123520Y726762D01*
X123429Y726797D01*
X123337Y726828D01*
X123244Y726856D01*
X123150Y726880D01*
X123055Y726900D01*
X122959Y726917D01*
X122862Y726930D01*
X122765Y726939D01*
X122668Y726945D01*
X122571Y726947D01*
X124398Y726163D02*
X129619Y721725D01*
X129619Y726946D01*
X124920Y730869D02*
X124735Y730871D01*
X124550Y730878D01*
X124366Y730889D01*
X124182Y730904D01*
X123998Y730924D01*
X123814Y730948D01*
X123632Y730977D01*
X123450Y731010D01*
X123269Y731047D01*
X123089Y731089D01*
X122909Y731135D01*
X122731Y731185D01*
X122555Y731239D01*
X122379Y731298D01*
X122205Y731360D01*
X122033Y731427D01*
X121862Y731498D01*
X121693Y731573D01*
X121526Y731652D01*
X121446Y731682D01*
X121367Y731715D01*
X121290Y731752D01*
X121214Y731792D01*
X121140Y731835D01*
X121068Y731881D01*
X120999Y731931D01*
X120931Y731983D01*
X120866Y732039D01*
X120803Y732097D01*
X120744Y732159D01*
X120686Y732222D01*
X120632Y732289D01*
X120581Y732357D01*
X120533Y732428D01*
X120488Y732501D01*
X120446Y732575D01*
X120408Y732652D01*
X120373Y732730D01*
X120341Y732809D01*
X120313Y732890D01*
X120289Y732972D01*
X120268Y733056D01*
X120251Y733139D01*
X120238Y733224D01*
X120229Y733309D01*
X120223Y733394D01*
X120221Y733480D01*
X120223Y733566D01*
X120229Y733651D01*
X120238Y733736D01*
X120251Y733821D01*
X120268Y733904D01*
X120289Y733988D01*
X120313Y734070D01*
X120341Y734151D01*
X120373Y734230D01*
X120408Y734308D01*
X120446Y734385D01*
X120488Y734459D01*
X120533Y734532D01*
X120581Y734603D01*
X120632Y734671D01*
X120686Y734738D01*
X120744Y734801D01*
X120803Y734863D01*
X120866Y734921D01*
X120931Y734977D01*
X120999Y735029D01*
X121068Y735079D01*
X121140Y735125D01*
X121214Y735168D01*
X121290Y735208D01*
X121367Y735245D01*
X121446Y735278D01*
X121526Y735308D01*
X121526Y735307D02*
X121693Y735386D01*
X121862Y735461D01*
X122033Y735532D01*
X122205Y735599D01*
X122379Y735661D01*
X122555Y735720D01*
X122731Y735774D01*
X122909Y735824D01*
X123089Y735870D01*
X123269Y735912D01*
X123450Y735949D01*
X123632Y735982D01*
X123814Y736011D01*
X123998Y736035D01*
X124182Y736055D01*
X124366Y736070D01*
X124550Y736081D01*
X124735Y736088D01*
X124920Y736090D01*
X124920Y730869D02*
X125105Y730871D01*
X125290Y730878D01*
X125474Y730889D01*
X125658Y730904D01*
X125842Y730924D01*
X126026Y730948D01*
X126208Y730977D01*
X126390Y731010D01*
X126571Y731047D01*
X126751Y731089D01*
X126931Y731135D01*
X127109Y731185D01*
X127285Y731239D01*
X127461Y731298D01*
X127635Y731360D01*
X127807Y731427D01*
X127978Y731498D01*
X128147Y731573D01*
X128314Y731652D01*
X128394Y731682D01*
X128473Y731715D01*
X128550Y731752D01*
X128626Y731792D01*
X128700Y731835D01*
X128772Y731881D01*
X128841Y731931D01*
X128909Y731984D01*
X128974Y732039D01*
X129037Y732098D01*
X129096Y732159D01*
X129154Y732222D01*
X129208Y732289D01*
X129259Y732357D01*
X129307Y732428D01*
X129352Y732501D01*
X129394Y732575D01*
X129432Y732652D01*
X129467Y732730D01*
X129499Y732809D01*
X129527Y732890D01*
X129551Y732972D01*
X129572Y733056D01*
X129589Y733139D01*
X129602Y733224D01*
X129611Y733309D01*
X129617Y733394D01*
X129619Y733480D01*
X128314Y735307D02*
X128147Y735386D01*
X127978Y735461D01*
X127807Y735532D01*
X127635Y735599D01*
X127461Y735661D01*
X127285Y735720D01*
X127109Y735774D01*
X126931Y735824D01*
X126751Y735870D01*
X126571Y735912D01*
X126390Y735949D01*
X126208Y735982D01*
X126026Y736011D01*
X125842Y736035D01*
X125658Y736055D01*
X125474Y736070D01*
X125290Y736081D01*
X125105Y736088D01*
X124920Y736090D01*
X128314Y735308D02*
X128394Y735278D01*
X128473Y735245D01*
X128550Y735208D01*
X128626Y735168D01*
X128700Y735125D01*
X128772Y735079D01*
X128841Y735029D01*
X128909Y734977D01*
X128974Y734921D01*
X129037Y734863D01*
X129096Y734801D01*
X129154Y734738D01*
X129208Y734671D01*
X129259Y734603D01*
X129307Y734532D01*
X129352Y734459D01*
X129394Y734385D01*
X129432Y734308D01*
X129467Y734230D01*
X129499Y734151D01*
X129527Y734070D01*
X129551Y733988D01*
X129572Y733904D01*
X129589Y733821D01*
X129602Y733736D01*
X129611Y733651D01*
X129617Y733566D01*
X129619Y733480D01*
X127531Y731391D02*
X122309Y735568D01*
X122309Y740013D02*
X120221Y742624D01*
X129619Y742624D01*
X129619Y745234D02*
X129619Y740013D01*
X125442Y751245D02*
X125442Y754378D01*
X125442Y751245D02*
X125440Y751156D01*
X125434Y751068D01*
X125425Y750980D01*
X125412Y750892D01*
X125395Y750805D01*
X125375Y750719D01*
X125350Y750634D01*
X125323Y750549D01*
X125291Y750466D01*
X125257Y750385D01*
X125218Y750305D01*
X125177Y750227D01*
X125132Y750150D01*
X125084Y750076D01*
X125033Y750003D01*
X124979Y749933D01*
X124921Y749866D01*
X124861Y749800D01*
X124799Y749738D01*
X124733Y749678D01*
X124666Y749620D01*
X124596Y749566D01*
X124523Y749515D01*
X124449Y749467D01*
X124372Y749422D01*
X124294Y749381D01*
X124214Y749342D01*
X124133Y749308D01*
X124050Y749276D01*
X123965Y749249D01*
X123880Y749224D01*
X123794Y749204D01*
X123707Y749187D01*
X123619Y749174D01*
X123531Y749165D01*
X123443Y749159D01*
X123354Y749157D01*
X122832Y749157D01*
X122731Y749159D01*
X122630Y749165D01*
X122529Y749175D01*
X122429Y749188D01*
X122329Y749206D01*
X122230Y749227D01*
X122132Y749253D01*
X122035Y749282D01*
X121939Y749314D01*
X121845Y749351D01*
X121752Y749391D01*
X121660Y749435D01*
X121571Y749482D01*
X121483Y749533D01*
X121397Y749587D01*
X121314Y749644D01*
X121232Y749704D01*
X121154Y749768D01*
X121077Y749834D01*
X121004Y749904D01*
X120933Y749976D01*
X120865Y750051D01*
X120800Y750129D01*
X120738Y750209D01*
X120679Y750291D01*
X120623Y750376D01*
X120571Y750463D01*
X120522Y750551D01*
X120476Y750642D01*
X120435Y750734D01*
X120396Y750828D01*
X120362Y750923D01*
X120331Y751019D01*
X120304Y751117D01*
X120280Y751215D01*
X120261Y751315D01*
X120245Y751415D01*
X120233Y751515D01*
X120225Y751616D01*
X120221Y751717D01*
X120221Y751819D01*
X120225Y751920D01*
X120233Y752021D01*
X120245Y752121D01*
X120261Y752221D01*
X120280Y752321D01*
X120304Y752419D01*
X120331Y752517D01*
X120362Y752613D01*
X120396Y752708D01*
X120435Y752802D01*
X120476Y752894D01*
X120522Y752985D01*
X120571Y753074D01*
X120623Y753160D01*
X120679Y753245D01*
X120738Y753327D01*
X120800Y753407D01*
X120865Y753485D01*
X120933Y753560D01*
X121004Y753632D01*
X121077Y753702D01*
X121154Y753768D01*
X121232Y753832D01*
X121314Y753892D01*
X121397Y753949D01*
X121483Y754003D01*
X121571Y754054D01*
X121660Y754101D01*
X121752Y754145D01*
X121845Y754185D01*
X121939Y754222D01*
X122035Y754254D01*
X122132Y754283D01*
X122230Y754309D01*
X122329Y754330D01*
X122429Y754348D01*
X122529Y754361D01*
X122630Y754371D01*
X122731Y754377D01*
X122832Y754379D01*
X122832Y754378D02*
X125442Y754378D01*
X125568Y754376D01*
X125694Y754370D01*
X125820Y754361D01*
X125945Y754348D01*
X126070Y754330D01*
X126195Y754310D01*
X126319Y754285D01*
X126442Y754257D01*
X126564Y754225D01*
X126685Y754189D01*
X126805Y754150D01*
X126923Y754107D01*
X127040Y754060D01*
X127156Y754010D01*
X127271Y753956D01*
X127383Y753900D01*
X127494Y753839D01*
X127603Y753776D01*
X127710Y753709D01*
X127815Y753639D01*
X127918Y753565D01*
X128018Y753489D01*
X128116Y753410D01*
X128212Y753328D01*
X128305Y753242D01*
X128396Y753155D01*
X128483Y753064D01*
X128569Y752971D01*
X128651Y752875D01*
X128730Y752777D01*
X128806Y752677D01*
X128880Y752574D01*
X128950Y752469D01*
X129017Y752362D01*
X129080Y752253D01*
X129141Y752142D01*
X129197Y752030D01*
X129251Y751915D01*
X129301Y751799D01*
X129348Y751682D01*
X129391Y751564D01*
X129430Y751444D01*
X129466Y751323D01*
X129498Y751201D01*
X129526Y751078D01*
X129551Y750954D01*
X129571Y750829D01*
X129589Y750704D01*
X129602Y750579D01*
X129611Y750453D01*
X129617Y750327D01*
X129619Y750201D01*
X379619Y567558D02*
X379619Y563381D01*
X370221Y563381D01*
X370221Y567558D01*
X374398Y566514D02*
X374398Y563381D01*
X370221Y571376D02*
X379619Y571376D01*
X375442Y574508D02*
X370221Y571376D01*
X375442Y574508D02*
X370221Y577641D01*
X379619Y577641D01*
X379619Y584784D02*
X379617Y584873D01*
X379611Y584961D01*
X379602Y585049D01*
X379589Y585137D01*
X379572Y585224D01*
X379552Y585310D01*
X379527Y585395D01*
X379500Y585480D01*
X379468Y585563D01*
X379434Y585644D01*
X379395Y585724D01*
X379354Y585802D01*
X379309Y585879D01*
X379261Y585953D01*
X379210Y586026D01*
X379156Y586096D01*
X379098Y586163D01*
X379038Y586229D01*
X378976Y586291D01*
X378910Y586351D01*
X378843Y586409D01*
X378773Y586463D01*
X378700Y586514D01*
X378626Y586562D01*
X378549Y586607D01*
X378471Y586648D01*
X378391Y586687D01*
X378310Y586721D01*
X378227Y586753D01*
X378142Y586780D01*
X378057Y586805D01*
X377971Y586825D01*
X377884Y586842D01*
X377796Y586855D01*
X377708Y586864D01*
X377620Y586870D01*
X377531Y586872D01*
X379619Y584784D02*
X379617Y584655D01*
X379611Y584526D01*
X379602Y584397D01*
X379589Y584269D01*
X379572Y584141D01*
X379551Y584014D01*
X379527Y583887D01*
X379499Y583761D01*
X379467Y583636D01*
X379432Y583512D01*
X379393Y583389D01*
X379350Y583267D01*
X379304Y583147D01*
X379254Y583028D01*
X379201Y582910D01*
X379145Y582794D01*
X379085Y582680D01*
X379022Y582567D01*
X378955Y582457D01*
X378886Y582348D01*
X378813Y582242D01*
X378737Y582137D01*
X378658Y582035D01*
X378576Y581936D01*
X378492Y581838D01*
X378404Y581743D01*
X378314Y581651D01*
X372309Y581913D02*
X372220Y581915D01*
X372132Y581921D01*
X372044Y581930D01*
X371956Y581943D01*
X371869Y581960D01*
X371783Y581980D01*
X371698Y582005D01*
X371613Y582032D01*
X371530Y582064D01*
X371449Y582098D01*
X371369Y582137D01*
X371291Y582178D01*
X371214Y582223D01*
X371140Y582271D01*
X371067Y582322D01*
X370997Y582376D01*
X370930Y582434D01*
X370864Y582494D01*
X370802Y582556D01*
X370742Y582622D01*
X370684Y582689D01*
X370630Y582759D01*
X370579Y582832D01*
X370531Y582906D01*
X370486Y582983D01*
X370445Y583061D01*
X370406Y583141D01*
X370372Y583222D01*
X370340Y583305D01*
X370313Y583390D01*
X370288Y583475D01*
X370268Y583561D01*
X370251Y583648D01*
X370238Y583736D01*
X370229Y583824D01*
X370223Y583912D01*
X370221Y584001D01*
X370223Y584121D01*
X370228Y584241D01*
X370238Y584360D01*
X370250Y584480D01*
X370267Y584599D01*
X370287Y584717D01*
X370311Y584835D01*
X370338Y584951D01*
X370369Y585067D01*
X370403Y585182D01*
X370441Y585296D01*
X370483Y585409D01*
X370528Y585520D01*
X370576Y585630D01*
X370627Y585738D01*
X370682Y585845D01*
X370740Y585950D01*
X370802Y586053D01*
X370866Y586154D01*
X370934Y586254D01*
X371004Y586351D01*
X374136Y582956D02*
X374088Y582878D01*
X374036Y582802D01*
X373982Y582729D01*
X373924Y582658D01*
X373863Y582589D01*
X373799Y582523D01*
X373732Y582460D01*
X373663Y582400D01*
X373591Y582343D01*
X373517Y582289D01*
X373440Y582239D01*
X373361Y582191D01*
X373281Y582148D01*
X373198Y582107D01*
X373114Y582071D01*
X373029Y582038D01*
X372942Y582009D01*
X372853Y581983D01*
X372764Y581961D01*
X372674Y581944D01*
X372584Y581930D01*
X372492Y581920D01*
X372401Y581914D01*
X372309Y581912D01*
X375704Y585828D02*
X375752Y585906D01*
X375804Y585982D01*
X375858Y586055D01*
X375916Y586126D01*
X375977Y586195D01*
X376041Y586261D01*
X376108Y586324D01*
X376177Y586384D01*
X376249Y586441D01*
X376323Y586495D01*
X376400Y586545D01*
X376479Y586593D01*
X376559Y586636D01*
X376642Y586677D01*
X376726Y586713D01*
X376811Y586746D01*
X376898Y586775D01*
X376987Y586801D01*
X377076Y586823D01*
X377166Y586840D01*
X377256Y586854D01*
X377348Y586864D01*
X377439Y586870D01*
X377531Y586872D01*
X375703Y585828D02*
X374137Y582957D01*
X379619Y593318D02*
X379617Y593407D01*
X379611Y593495D01*
X379602Y593583D01*
X379589Y593671D01*
X379572Y593758D01*
X379552Y593844D01*
X379527Y593929D01*
X379500Y594014D01*
X379468Y594097D01*
X379434Y594178D01*
X379395Y594258D01*
X379354Y594336D01*
X379309Y594413D01*
X379261Y594487D01*
X379210Y594560D01*
X379156Y594630D01*
X379098Y594697D01*
X379038Y594763D01*
X378976Y594825D01*
X378910Y594885D01*
X378843Y594943D01*
X378773Y594997D01*
X378700Y595048D01*
X378626Y595096D01*
X378549Y595141D01*
X378471Y595182D01*
X378391Y595221D01*
X378310Y595255D01*
X378227Y595287D01*
X378142Y595314D01*
X378057Y595339D01*
X377971Y595359D01*
X377884Y595376D01*
X377796Y595389D01*
X377708Y595398D01*
X377620Y595404D01*
X377531Y595406D01*
X379619Y593318D02*
X379617Y593189D01*
X379611Y593060D01*
X379602Y592931D01*
X379589Y592803D01*
X379572Y592675D01*
X379551Y592548D01*
X379527Y592421D01*
X379499Y592295D01*
X379467Y592170D01*
X379432Y592046D01*
X379393Y591923D01*
X379350Y591801D01*
X379304Y591681D01*
X379254Y591562D01*
X379201Y591444D01*
X379145Y591328D01*
X379085Y591214D01*
X379022Y591101D01*
X378955Y590991D01*
X378886Y590882D01*
X378813Y590776D01*
X378737Y590671D01*
X378658Y590569D01*
X378576Y590470D01*
X378492Y590372D01*
X378404Y590277D01*
X378314Y590185D01*
X372309Y590447D02*
X372220Y590449D01*
X372132Y590455D01*
X372044Y590464D01*
X371956Y590477D01*
X371869Y590494D01*
X371783Y590514D01*
X371698Y590539D01*
X371613Y590566D01*
X371530Y590598D01*
X371449Y590632D01*
X371369Y590671D01*
X371291Y590712D01*
X371214Y590757D01*
X371140Y590805D01*
X371067Y590856D01*
X370997Y590910D01*
X370930Y590968D01*
X370864Y591028D01*
X370802Y591090D01*
X370742Y591156D01*
X370684Y591223D01*
X370630Y591293D01*
X370579Y591366D01*
X370531Y591440D01*
X370486Y591517D01*
X370445Y591595D01*
X370406Y591675D01*
X370372Y591756D01*
X370340Y591839D01*
X370313Y591924D01*
X370288Y592009D01*
X370268Y592095D01*
X370251Y592182D01*
X370238Y592270D01*
X370229Y592358D01*
X370223Y592446D01*
X370221Y592535D01*
X370223Y592655D01*
X370228Y592775D01*
X370238Y592894D01*
X370250Y593014D01*
X370267Y593133D01*
X370287Y593251D01*
X370311Y593369D01*
X370338Y593485D01*
X370369Y593601D01*
X370403Y593716D01*
X370441Y593830D01*
X370483Y593943D01*
X370528Y594054D01*
X370576Y594164D01*
X370627Y594272D01*
X370682Y594379D01*
X370740Y594484D01*
X370802Y594587D01*
X370866Y594688D01*
X370934Y594788D01*
X371004Y594885D01*
X374136Y591491D02*
X374088Y591413D01*
X374036Y591337D01*
X373982Y591264D01*
X373924Y591193D01*
X373863Y591124D01*
X373799Y591058D01*
X373732Y590995D01*
X373663Y590935D01*
X373591Y590878D01*
X373517Y590824D01*
X373440Y590774D01*
X373361Y590726D01*
X373281Y590683D01*
X373198Y590642D01*
X373114Y590606D01*
X373029Y590573D01*
X372942Y590544D01*
X372853Y590518D01*
X372764Y590496D01*
X372674Y590479D01*
X372584Y590465D01*
X372492Y590455D01*
X372401Y590449D01*
X372309Y590447D01*
X375704Y594363D02*
X375752Y594441D01*
X375804Y594517D01*
X375858Y594590D01*
X375916Y594661D01*
X375977Y594730D01*
X376041Y594796D01*
X376108Y594859D01*
X376177Y594919D01*
X376249Y594976D01*
X376323Y595030D01*
X376400Y595080D01*
X376479Y595128D01*
X376559Y595171D01*
X376642Y595212D01*
X376726Y595248D01*
X376811Y595281D01*
X376898Y595310D01*
X376987Y595336D01*
X377076Y595358D01*
X377166Y595375D01*
X377256Y595389D01*
X377348Y595399D01*
X377439Y595405D01*
X377531Y595407D01*
X375703Y594363D02*
X374137Y591491D01*
X370221Y599347D02*
X379619Y599347D01*
X379619Y603524D01*
X374398Y612262D02*
X374398Y614873D01*
X374397Y614873D02*
X374399Y614974D01*
X374405Y615075D01*
X374415Y615176D01*
X374428Y615276D01*
X374446Y615376D01*
X374467Y615475D01*
X374493Y615573D01*
X374522Y615670D01*
X374554Y615766D01*
X374591Y615860D01*
X374631Y615953D01*
X374675Y616045D01*
X374722Y616134D01*
X374773Y616222D01*
X374827Y616308D01*
X374884Y616391D01*
X374944Y616473D01*
X375008Y616551D01*
X375074Y616628D01*
X375144Y616701D01*
X375216Y616772D01*
X375291Y616840D01*
X375369Y616905D01*
X375449Y616967D01*
X375531Y617026D01*
X375616Y617082D01*
X375703Y617134D01*
X375791Y617183D01*
X375882Y617229D01*
X375974Y617270D01*
X376068Y617309D01*
X376163Y617343D01*
X376259Y617374D01*
X376357Y617401D01*
X376455Y617425D01*
X376555Y617444D01*
X376655Y617460D01*
X376755Y617472D01*
X376856Y617480D01*
X376957Y617484D01*
X377059Y617484D01*
X377160Y617480D01*
X377261Y617472D01*
X377361Y617460D01*
X377461Y617444D01*
X377561Y617425D01*
X377659Y617401D01*
X377757Y617374D01*
X377853Y617343D01*
X377948Y617309D01*
X378042Y617270D01*
X378134Y617229D01*
X378225Y617183D01*
X378314Y617134D01*
X378400Y617082D01*
X378485Y617026D01*
X378567Y616967D01*
X378647Y616905D01*
X378725Y616840D01*
X378800Y616772D01*
X378872Y616701D01*
X378942Y616628D01*
X379008Y616551D01*
X379072Y616473D01*
X379132Y616391D01*
X379189Y616308D01*
X379243Y616222D01*
X379294Y616134D01*
X379341Y616045D01*
X379385Y615953D01*
X379425Y615860D01*
X379462Y615766D01*
X379494Y615670D01*
X379523Y615573D01*
X379549Y615475D01*
X379570Y615376D01*
X379588Y615276D01*
X379601Y615176D01*
X379611Y615075D01*
X379617Y614974D01*
X379619Y614873D01*
X379619Y612262D01*
X370221Y612262D01*
X370221Y614873D01*
X370223Y614963D01*
X370229Y615052D01*
X370238Y615142D01*
X370252Y615231D01*
X370269Y615319D01*
X370290Y615406D01*
X370315Y615493D01*
X370344Y615578D01*
X370376Y615662D01*
X370411Y615744D01*
X370451Y615825D01*
X370493Y615904D01*
X370539Y615981D01*
X370589Y616056D01*
X370641Y616129D01*
X370697Y616200D01*
X370755Y616268D01*
X370817Y616333D01*
X370881Y616396D01*
X370948Y616456D01*
X371017Y616513D01*
X371089Y616567D01*
X371163Y616618D01*
X371239Y616666D01*
X371317Y616710D01*
X371397Y616751D01*
X371479Y616789D01*
X371562Y616823D01*
X371647Y616853D01*
X371733Y616880D01*
X371819Y616903D01*
X371907Y616922D01*
X371996Y616937D01*
X372085Y616949D01*
X372174Y616957D01*
X372264Y616961D01*
X372354Y616961D01*
X372444Y616957D01*
X372533Y616949D01*
X372622Y616937D01*
X372711Y616922D01*
X372799Y616903D01*
X372885Y616880D01*
X372971Y616853D01*
X373056Y616823D01*
X373139Y616789D01*
X373221Y616751D01*
X373301Y616710D01*
X373379Y616666D01*
X373455Y616618D01*
X373529Y616567D01*
X373601Y616513D01*
X373670Y616456D01*
X373737Y616396D01*
X373801Y616333D01*
X373863Y616268D01*
X373921Y616200D01*
X373977Y616129D01*
X374029Y616056D01*
X374079Y615981D01*
X374125Y615904D01*
X374167Y615825D01*
X374207Y615744D01*
X374242Y615662D01*
X374274Y615578D01*
X374303Y615493D01*
X374328Y615406D01*
X374349Y615319D01*
X374366Y615231D01*
X374380Y615142D01*
X374389Y615052D01*
X374395Y614963D01*
X374397Y614873D01*
X379619Y620448D02*
X370221Y623581D01*
X379619Y626714D01*
X377270Y625930D02*
X377270Y621231D01*
X379619Y630437D02*
X370221Y630437D01*
X379619Y630437D02*
X379619Y634613D01*
X379619Y638361D02*
X370221Y638361D01*
X379619Y638361D02*
X379619Y642538D01*
X377008Y645964D02*
X372832Y645964D01*
X372832Y645963D02*
X372731Y645965D01*
X372630Y645971D01*
X372529Y645981D01*
X372429Y645994D01*
X372329Y646012D01*
X372230Y646033D01*
X372132Y646059D01*
X372035Y646088D01*
X371939Y646120D01*
X371845Y646157D01*
X371752Y646197D01*
X371660Y646241D01*
X371571Y646288D01*
X371483Y646339D01*
X371397Y646393D01*
X371314Y646450D01*
X371232Y646510D01*
X371154Y646574D01*
X371077Y646640D01*
X371004Y646710D01*
X370933Y646782D01*
X370865Y646857D01*
X370800Y646935D01*
X370738Y647015D01*
X370679Y647097D01*
X370623Y647182D01*
X370571Y647269D01*
X370522Y647357D01*
X370476Y647448D01*
X370435Y647540D01*
X370396Y647634D01*
X370362Y647729D01*
X370331Y647825D01*
X370304Y647923D01*
X370280Y648021D01*
X370261Y648121D01*
X370245Y648221D01*
X370233Y648321D01*
X370225Y648422D01*
X370221Y648523D01*
X370221Y648625D01*
X370225Y648726D01*
X370233Y648827D01*
X370245Y648927D01*
X370261Y649027D01*
X370280Y649127D01*
X370304Y649225D01*
X370331Y649323D01*
X370362Y649419D01*
X370396Y649514D01*
X370435Y649608D01*
X370476Y649700D01*
X370522Y649791D01*
X370571Y649880D01*
X370623Y649966D01*
X370679Y650051D01*
X370738Y650133D01*
X370800Y650213D01*
X370865Y650291D01*
X370933Y650366D01*
X371004Y650438D01*
X371077Y650508D01*
X371154Y650574D01*
X371232Y650638D01*
X371314Y650698D01*
X371397Y650755D01*
X371483Y650809D01*
X371571Y650860D01*
X371660Y650907D01*
X371752Y650951D01*
X371845Y650991D01*
X371939Y651028D01*
X372035Y651060D01*
X372132Y651089D01*
X372230Y651115D01*
X372329Y651136D01*
X372429Y651154D01*
X372529Y651167D01*
X372630Y651177D01*
X372731Y651183D01*
X372832Y651185D01*
X377008Y651185D01*
X377109Y651183D01*
X377210Y651177D01*
X377311Y651167D01*
X377411Y651154D01*
X377511Y651136D01*
X377610Y651115D01*
X377708Y651089D01*
X377805Y651060D01*
X377901Y651028D01*
X377995Y650991D01*
X378088Y650951D01*
X378180Y650907D01*
X378269Y650860D01*
X378357Y650809D01*
X378443Y650755D01*
X378526Y650698D01*
X378608Y650638D01*
X378686Y650574D01*
X378763Y650508D01*
X378836Y650438D01*
X378907Y650366D01*
X378975Y650291D01*
X379040Y650213D01*
X379102Y650133D01*
X379161Y650051D01*
X379217Y649966D01*
X379269Y649880D01*
X379318Y649791D01*
X379364Y649700D01*
X379405Y649608D01*
X379444Y649514D01*
X379478Y649419D01*
X379509Y649323D01*
X379536Y649225D01*
X379560Y649127D01*
X379579Y649027D01*
X379595Y648927D01*
X379607Y648827D01*
X379615Y648726D01*
X379619Y648625D01*
X379619Y648523D01*
X379615Y648422D01*
X379607Y648321D01*
X379595Y648221D01*
X379579Y648121D01*
X379560Y648021D01*
X379536Y647923D01*
X379509Y647825D01*
X379478Y647729D01*
X379444Y647634D01*
X379405Y647540D01*
X379364Y647448D01*
X379318Y647357D01*
X379269Y647269D01*
X379217Y647182D01*
X379161Y647097D01*
X379102Y647015D01*
X379040Y646935D01*
X378975Y646857D01*
X378907Y646782D01*
X378836Y646710D01*
X378763Y646640D01*
X378686Y646574D01*
X378608Y646510D01*
X378526Y646450D01*
X378443Y646393D01*
X378357Y646339D01*
X378269Y646288D01*
X378180Y646241D01*
X378088Y646197D01*
X377995Y646157D01*
X377901Y646120D01*
X377805Y646088D01*
X377708Y646059D01*
X377610Y646033D01*
X377511Y646012D01*
X377411Y645994D01*
X377311Y645981D01*
X377210Y645971D01*
X377109Y645965D01*
X377008Y645963D01*
X377008Y655108D02*
X372832Y655108D01*
X372832Y655107D02*
X372731Y655109D01*
X372630Y655115D01*
X372529Y655125D01*
X372429Y655138D01*
X372329Y655156D01*
X372230Y655177D01*
X372132Y655203D01*
X372035Y655232D01*
X371939Y655264D01*
X371845Y655301D01*
X371752Y655341D01*
X371660Y655385D01*
X371571Y655432D01*
X371483Y655483D01*
X371397Y655537D01*
X371314Y655594D01*
X371232Y655654D01*
X371154Y655718D01*
X371077Y655784D01*
X371004Y655854D01*
X370933Y655926D01*
X370865Y656001D01*
X370800Y656079D01*
X370738Y656159D01*
X370679Y656241D01*
X370623Y656326D01*
X370571Y656413D01*
X370522Y656501D01*
X370476Y656592D01*
X370435Y656684D01*
X370396Y656778D01*
X370362Y656873D01*
X370331Y656969D01*
X370304Y657067D01*
X370280Y657165D01*
X370261Y657265D01*
X370245Y657365D01*
X370233Y657465D01*
X370225Y657566D01*
X370221Y657667D01*
X370221Y657769D01*
X370225Y657870D01*
X370233Y657971D01*
X370245Y658071D01*
X370261Y658171D01*
X370280Y658271D01*
X370304Y658369D01*
X370331Y658467D01*
X370362Y658563D01*
X370396Y658658D01*
X370435Y658752D01*
X370476Y658844D01*
X370522Y658935D01*
X370571Y659024D01*
X370623Y659110D01*
X370679Y659195D01*
X370738Y659277D01*
X370800Y659357D01*
X370865Y659435D01*
X370933Y659510D01*
X371004Y659582D01*
X371077Y659652D01*
X371154Y659718D01*
X371232Y659782D01*
X371314Y659842D01*
X371397Y659899D01*
X371483Y659953D01*
X371571Y660004D01*
X371660Y660051D01*
X371752Y660095D01*
X371845Y660135D01*
X371939Y660172D01*
X372035Y660204D01*
X372132Y660233D01*
X372230Y660259D01*
X372329Y660280D01*
X372429Y660298D01*
X372529Y660311D01*
X372630Y660321D01*
X372731Y660327D01*
X372832Y660329D01*
X377008Y660329D01*
X377109Y660327D01*
X377210Y660321D01*
X377311Y660311D01*
X377411Y660298D01*
X377511Y660280D01*
X377610Y660259D01*
X377708Y660233D01*
X377805Y660204D01*
X377901Y660172D01*
X377995Y660135D01*
X378088Y660095D01*
X378180Y660051D01*
X378269Y660004D01*
X378357Y659953D01*
X378443Y659899D01*
X378526Y659842D01*
X378608Y659782D01*
X378686Y659718D01*
X378763Y659652D01*
X378836Y659582D01*
X378907Y659510D01*
X378975Y659435D01*
X379040Y659357D01*
X379102Y659277D01*
X379161Y659195D01*
X379217Y659110D01*
X379269Y659024D01*
X379318Y658935D01*
X379364Y658844D01*
X379405Y658752D01*
X379444Y658658D01*
X379478Y658563D01*
X379509Y658467D01*
X379536Y658369D01*
X379560Y658271D01*
X379579Y658171D01*
X379595Y658071D01*
X379607Y657971D01*
X379615Y657870D01*
X379619Y657769D01*
X379619Y657667D01*
X379615Y657566D01*
X379607Y657465D01*
X379595Y657365D01*
X379579Y657265D01*
X379560Y657165D01*
X379536Y657067D01*
X379509Y656969D01*
X379478Y656873D01*
X379444Y656778D01*
X379405Y656684D01*
X379364Y656592D01*
X379318Y656501D01*
X379269Y656413D01*
X379217Y656326D01*
X379161Y656241D01*
X379102Y656159D01*
X379040Y656079D01*
X378975Y656001D01*
X378907Y655926D01*
X378836Y655854D01*
X378763Y655784D01*
X378686Y655718D01*
X378608Y655654D01*
X378526Y655594D01*
X378443Y655537D01*
X378357Y655483D01*
X378269Y655432D01*
X378180Y655385D01*
X378088Y655341D01*
X377995Y655301D01*
X377901Y655264D01*
X377805Y655232D01*
X377708Y655203D01*
X377610Y655177D01*
X377511Y655156D01*
X377411Y655138D01*
X377311Y655125D01*
X377210Y655115D01*
X377109Y655109D01*
X377008Y655107D01*
X379619Y664557D02*
X370221Y664557D01*
X379619Y669778D01*
X370221Y669778D01*
X370221Y680883D02*
X379619Y680883D01*
X370221Y678273D02*
X370221Y683494D01*
X379619Y687129D02*
X379619Y691306D01*
X379619Y687129D02*
X370221Y687129D01*
X370221Y691306D01*
X374398Y690262D02*
X374398Y687129D01*
X379619Y694210D02*
X370221Y697342D01*
X379619Y700475D01*
X377270Y699692D02*
X377270Y694993D01*
X379619Y704268D02*
X370221Y704268D01*
X375442Y707401D01*
X370221Y710533D01*
X379619Y710533D01*
X370221Y722597D02*
X370223Y722692D01*
X370229Y722786D01*
X370238Y722880D01*
X370251Y722974D01*
X370268Y723067D01*
X370289Y723159D01*
X370314Y723251D01*
X370342Y723341D01*
X370374Y723430D01*
X370409Y723518D01*
X370448Y723604D01*
X370490Y723689D01*
X370536Y723772D01*
X370585Y723853D01*
X370637Y723932D01*
X370692Y724009D01*
X370751Y724083D01*
X370812Y724155D01*
X370876Y724225D01*
X370943Y724292D01*
X371013Y724356D01*
X371085Y724417D01*
X371159Y724476D01*
X371236Y724531D01*
X371315Y724583D01*
X371396Y724632D01*
X371479Y724678D01*
X371564Y724720D01*
X371650Y724759D01*
X371738Y724794D01*
X371827Y724826D01*
X371917Y724854D01*
X372009Y724879D01*
X372101Y724900D01*
X372194Y724917D01*
X372288Y724930D01*
X372382Y724939D01*
X372476Y724945D01*
X372571Y724947D01*
X370221Y722597D02*
X370223Y722489D01*
X370229Y722380D01*
X370239Y722272D01*
X370252Y722165D01*
X370270Y722058D01*
X370291Y721951D01*
X370316Y721846D01*
X370345Y721741D01*
X370377Y721638D01*
X370414Y721536D01*
X370454Y721435D01*
X370497Y721336D01*
X370544Y721238D01*
X370595Y721142D01*
X370649Y721048D01*
X370706Y720956D01*
X370767Y720866D01*
X370831Y720778D01*
X370897Y720693D01*
X370967Y720610D01*
X371040Y720530D01*
X371116Y720452D01*
X371194Y720377D01*
X371275Y720305D01*
X371359Y720236D01*
X371445Y720170D01*
X371533Y720107D01*
X371624Y720048D01*
X371716Y719991D01*
X371811Y719938D01*
X371908Y719889D01*
X372006Y719843D01*
X372105Y719800D01*
X372207Y719761D01*
X372309Y719726D01*
X374399Y724164D02*
X374330Y724233D01*
X374259Y724299D01*
X374186Y724363D01*
X374110Y724424D01*
X374031Y724482D01*
X373951Y724536D01*
X373868Y724588D01*
X373784Y724636D01*
X373698Y724682D01*
X373610Y724723D01*
X373520Y724762D01*
X373429Y724797D01*
X373337Y724828D01*
X373244Y724856D01*
X373150Y724880D01*
X373055Y724900D01*
X372959Y724917D01*
X372862Y724930D01*
X372765Y724939D01*
X372668Y724945D01*
X372571Y724947D01*
X374398Y724163D02*
X379619Y719725D01*
X379619Y724946D01*
X374920Y728869D02*
X374735Y728871D01*
X374550Y728878D01*
X374366Y728889D01*
X374182Y728904D01*
X373998Y728924D01*
X373814Y728948D01*
X373632Y728977D01*
X373450Y729010D01*
X373269Y729047D01*
X373089Y729089D01*
X372909Y729135D01*
X372731Y729185D01*
X372555Y729239D01*
X372379Y729298D01*
X372205Y729360D01*
X372033Y729427D01*
X371862Y729498D01*
X371693Y729573D01*
X371526Y729652D01*
X371446Y729682D01*
X371367Y729715D01*
X371290Y729752D01*
X371214Y729792D01*
X371140Y729835D01*
X371068Y729881D01*
X370999Y729931D01*
X370931Y729983D01*
X370866Y730039D01*
X370803Y730097D01*
X370744Y730159D01*
X370686Y730222D01*
X370632Y730289D01*
X370581Y730357D01*
X370533Y730428D01*
X370488Y730501D01*
X370446Y730575D01*
X370408Y730652D01*
X370373Y730730D01*
X370341Y730809D01*
X370313Y730890D01*
X370289Y730972D01*
X370268Y731056D01*
X370251Y731139D01*
X370238Y731224D01*
X370229Y731309D01*
X370223Y731394D01*
X370221Y731480D01*
X370223Y731566D01*
X370229Y731651D01*
X370238Y731736D01*
X370251Y731821D01*
X370268Y731904D01*
X370289Y731988D01*
X370313Y732070D01*
X370341Y732151D01*
X370373Y732230D01*
X370408Y732308D01*
X370446Y732385D01*
X370488Y732459D01*
X370533Y732532D01*
X370581Y732603D01*
X370632Y732671D01*
X370686Y732738D01*
X370744Y732801D01*
X370803Y732863D01*
X370866Y732921D01*
X370931Y732977D01*
X370999Y733029D01*
X371068Y733079D01*
X371140Y733125D01*
X371214Y733168D01*
X371290Y733208D01*
X371367Y733245D01*
X371446Y733278D01*
X371526Y733308D01*
X371526Y733307D02*
X371693Y733386D01*
X371862Y733461D01*
X372033Y733532D01*
X372205Y733599D01*
X372379Y733661D01*
X372555Y733720D01*
X372731Y733774D01*
X372909Y733824D01*
X373089Y733870D01*
X373269Y733912D01*
X373450Y733949D01*
X373632Y733982D01*
X373814Y734011D01*
X373998Y734035D01*
X374182Y734055D01*
X374366Y734070D01*
X374550Y734081D01*
X374735Y734088D01*
X374920Y734090D01*
X374920Y728869D02*
X375105Y728871D01*
X375290Y728878D01*
X375474Y728889D01*
X375658Y728904D01*
X375842Y728924D01*
X376026Y728948D01*
X376208Y728977D01*
X376390Y729010D01*
X376571Y729047D01*
X376751Y729089D01*
X376931Y729135D01*
X377109Y729185D01*
X377285Y729239D01*
X377461Y729298D01*
X377635Y729360D01*
X377807Y729427D01*
X377978Y729498D01*
X378147Y729573D01*
X378314Y729652D01*
X378394Y729682D01*
X378473Y729715D01*
X378550Y729752D01*
X378626Y729792D01*
X378700Y729835D01*
X378772Y729881D01*
X378841Y729931D01*
X378909Y729984D01*
X378974Y730039D01*
X379037Y730098D01*
X379096Y730159D01*
X379154Y730222D01*
X379208Y730289D01*
X379259Y730357D01*
X379307Y730428D01*
X379352Y730501D01*
X379394Y730575D01*
X379432Y730652D01*
X379467Y730730D01*
X379499Y730809D01*
X379527Y730890D01*
X379551Y730972D01*
X379572Y731056D01*
X379589Y731139D01*
X379602Y731224D01*
X379611Y731309D01*
X379617Y731394D01*
X379619Y731480D01*
X378314Y733307D02*
X378147Y733386D01*
X377978Y733461D01*
X377807Y733532D01*
X377635Y733599D01*
X377461Y733661D01*
X377285Y733720D01*
X377109Y733774D01*
X376931Y733824D01*
X376751Y733870D01*
X376571Y733912D01*
X376390Y733949D01*
X376208Y733982D01*
X376026Y734011D01*
X375842Y734035D01*
X375658Y734055D01*
X375474Y734070D01*
X375290Y734081D01*
X375105Y734088D01*
X374920Y734090D01*
X378314Y733308D02*
X378394Y733278D01*
X378473Y733245D01*
X378550Y733208D01*
X378626Y733168D01*
X378700Y733125D01*
X378772Y733079D01*
X378841Y733029D01*
X378909Y732977D01*
X378974Y732921D01*
X379037Y732863D01*
X379096Y732801D01*
X379154Y732738D01*
X379208Y732671D01*
X379259Y732603D01*
X379307Y732532D01*
X379352Y732459D01*
X379394Y732385D01*
X379432Y732308D01*
X379467Y732230D01*
X379499Y732151D01*
X379527Y732070D01*
X379551Y731988D01*
X379572Y731904D01*
X379589Y731821D01*
X379602Y731736D01*
X379611Y731651D01*
X379617Y731566D01*
X379619Y731480D01*
X377531Y729391D02*
X372309Y733568D01*
X372309Y738013D02*
X370221Y740624D01*
X379619Y740624D01*
X379619Y743234D02*
X379619Y738013D01*
X375442Y749245D02*
X375442Y752378D01*
X375442Y749245D02*
X375440Y749156D01*
X375434Y749068D01*
X375425Y748980D01*
X375412Y748892D01*
X375395Y748805D01*
X375375Y748719D01*
X375350Y748634D01*
X375323Y748549D01*
X375291Y748466D01*
X375257Y748385D01*
X375218Y748305D01*
X375177Y748227D01*
X375132Y748150D01*
X375084Y748076D01*
X375033Y748003D01*
X374979Y747933D01*
X374921Y747866D01*
X374861Y747800D01*
X374799Y747738D01*
X374733Y747678D01*
X374666Y747620D01*
X374596Y747566D01*
X374523Y747515D01*
X374449Y747467D01*
X374372Y747422D01*
X374294Y747381D01*
X374214Y747342D01*
X374133Y747308D01*
X374050Y747276D01*
X373965Y747249D01*
X373880Y747224D01*
X373794Y747204D01*
X373707Y747187D01*
X373619Y747174D01*
X373531Y747165D01*
X373443Y747159D01*
X373354Y747157D01*
X372832Y747157D01*
X372731Y747159D01*
X372630Y747165D01*
X372529Y747175D01*
X372429Y747188D01*
X372329Y747206D01*
X372230Y747227D01*
X372132Y747253D01*
X372035Y747282D01*
X371939Y747314D01*
X371845Y747351D01*
X371752Y747391D01*
X371660Y747435D01*
X371571Y747482D01*
X371483Y747533D01*
X371397Y747587D01*
X371314Y747644D01*
X371232Y747704D01*
X371154Y747768D01*
X371077Y747834D01*
X371004Y747904D01*
X370933Y747976D01*
X370865Y748051D01*
X370800Y748129D01*
X370738Y748209D01*
X370679Y748291D01*
X370623Y748376D01*
X370571Y748463D01*
X370522Y748551D01*
X370476Y748642D01*
X370435Y748734D01*
X370396Y748828D01*
X370362Y748923D01*
X370331Y749019D01*
X370304Y749117D01*
X370280Y749215D01*
X370261Y749315D01*
X370245Y749415D01*
X370233Y749515D01*
X370225Y749616D01*
X370221Y749717D01*
X370221Y749819D01*
X370225Y749920D01*
X370233Y750021D01*
X370245Y750121D01*
X370261Y750221D01*
X370280Y750321D01*
X370304Y750419D01*
X370331Y750517D01*
X370362Y750613D01*
X370396Y750708D01*
X370435Y750802D01*
X370476Y750894D01*
X370522Y750985D01*
X370571Y751074D01*
X370623Y751160D01*
X370679Y751245D01*
X370738Y751327D01*
X370800Y751407D01*
X370865Y751485D01*
X370933Y751560D01*
X371004Y751632D01*
X371077Y751702D01*
X371154Y751768D01*
X371232Y751832D01*
X371314Y751892D01*
X371397Y751949D01*
X371483Y752003D01*
X371571Y752054D01*
X371660Y752101D01*
X371752Y752145D01*
X371845Y752185D01*
X371939Y752222D01*
X372035Y752254D01*
X372132Y752283D01*
X372230Y752309D01*
X372329Y752330D01*
X372429Y752348D01*
X372529Y752361D01*
X372630Y752371D01*
X372731Y752377D01*
X372832Y752379D01*
X372832Y752378D02*
X375442Y752378D01*
X375568Y752376D01*
X375694Y752370D01*
X375820Y752361D01*
X375945Y752348D01*
X376070Y752330D01*
X376195Y752310D01*
X376319Y752285D01*
X376442Y752257D01*
X376564Y752225D01*
X376685Y752189D01*
X376805Y752150D01*
X376923Y752107D01*
X377040Y752060D01*
X377156Y752010D01*
X377271Y751956D01*
X377383Y751900D01*
X377494Y751839D01*
X377603Y751776D01*
X377710Y751709D01*
X377815Y751639D01*
X377918Y751565D01*
X378018Y751489D01*
X378116Y751410D01*
X378212Y751328D01*
X378305Y751242D01*
X378396Y751155D01*
X378483Y751064D01*
X378569Y750971D01*
X378651Y750875D01*
X378730Y750777D01*
X378806Y750677D01*
X378880Y750574D01*
X378950Y750469D01*
X379017Y750362D01*
X379080Y750253D01*
X379141Y750142D01*
X379197Y750030D01*
X379251Y749915D01*
X379301Y749799D01*
X379348Y749682D01*
X379391Y749564D01*
X379430Y749444D01*
X379466Y749323D01*
X379498Y749201D01*
X379526Y749078D01*
X379551Y748954D01*
X379571Y748829D01*
X379589Y748704D01*
X379602Y748579D01*
X379611Y748453D01*
X379617Y748327D01*
X379619Y748201D01*
X380619Y37558D02*
X380619Y35469D01*
X380617Y35380D01*
X380611Y35292D01*
X380602Y35204D01*
X380589Y35116D01*
X380572Y35029D01*
X380552Y34943D01*
X380527Y34858D01*
X380500Y34773D01*
X380468Y34690D01*
X380434Y34609D01*
X380395Y34529D01*
X380354Y34451D01*
X380309Y34374D01*
X380261Y34300D01*
X380210Y34227D01*
X380156Y34157D01*
X380098Y34090D01*
X380038Y34024D01*
X379976Y33962D01*
X379910Y33902D01*
X379843Y33844D01*
X379773Y33790D01*
X379700Y33739D01*
X379626Y33691D01*
X379549Y33646D01*
X379471Y33605D01*
X379391Y33566D01*
X379310Y33532D01*
X379227Y33500D01*
X379142Y33473D01*
X379057Y33448D01*
X378971Y33428D01*
X378884Y33411D01*
X378796Y33398D01*
X378708Y33389D01*
X378620Y33383D01*
X378531Y33381D01*
X373309Y33381D01*
X373218Y33383D01*
X373127Y33389D01*
X373036Y33399D01*
X372946Y33413D01*
X372857Y33431D01*
X372768Y33452D01*
X372681Y33478D01*
X372595Y33507D01*
X372510Y33540D01*
X372426Y33577D01*
X372344Y33617D01*
X372265Y33661D01*
X372187Y33708D01*
X372111Y33759D01*
X372037Y33813D01*
X371966Y33870D01*
X371898Y33930D01*
X371832Y33993D01*
X371769Y34059D01*
X371709Y34127D01*
X371652Y34198D01*
X371598Y34272D01*
X371547Y34348D01*
X371500Y34425D01*
X371456Y34505D01*
X371416Y34587D01*
X371379Y34671D01*
X371346Y34755D01*
X371317Y34842D01*
X371291Y34929D01*
X371270Y35018D01*
X371252Y35107D01*
X371238Y35197D01*
X371228Y35288D01*
X371222Y35379D01*
X371220Y35470D01*
X371221Y35469D02*
X371221Y37558D01*
X371221Y41332D02*
X378008Y41332D01*
X378008Y41331D02*
X378109Y41333D01*
X378210Y41339D01*
X378311Y41349D01*
X378411Y41362D01*
X378511Y41380D01*
X378610Y41401D01*
X378708Y41427D01*
X378805Y41456D01*
X378901Y41488D01*
X378995Y41525D01*
X379088Y41565D01*
X379180Y41609D01*
X379269Y41656D01*
X379357Y41707D01*
X379443Y41761D01*
X379526Y41818D01*
X379608Y41878D01*
X379686Y41942D01*
X379763Y42008D01*
X379836Y42078D01*
X379907Y42150D01*
X379975Y42225D01*
X380040Y42303D01*
X380102Y42383D01*
X380161Y42465D01*
X380217Y42550D01*
X380269Y42636D01*
X380318Y42725D01*
X380364Y42816D01*
X380405Y42908D01*
X380444Y43002D01*
X380478Y43097D01*
X380509Y43193D01*
X380536Y43291D01*
X380560Y43389D01*
X380579Y43489D01*
X380595Y43589D01*
X380607Y43689D01*
X380615Y43790D01*
X380619Y43891D01*
X380619Y43993D01*
X380615Y44094D01*
X380607Y44195D01*
X380595Y44295D01*
X380579Y44395D01*
X380560Y44495D01*
X380536Y44593D01*
X380509Y44691D01*
X380478Y44787D01*
X380444Y44882D01*
X380405Y44976D01*
X380364Y45068D01*
X380318Y45159D01*
X380269Y45247D01*
X380217Y45334D01*
X380161Y45419D01*
X380102Y45501D01*
X380040Y45581D01*
X379975Y45659D01*
X379907Y45734D01*
X379836Y45806D01*
X379763Y45876D01*
X379686Y45942D01*
X379608Y46006D01*
X379526Y46066D01*
X379443Y46123D01*
X379357Y46177D01*
X379269Y46228D01*
X379180Y46275D01*
X379088Y46319D01*
X378995Y46359D01*
X378901Y46396D01*
X378805Y46428D01*
X378708Y46457D01*
X378610Y46483D01*
X378511Y46504D01*
X378411Y46522D01*
X378311Y46535D01*
X378210Y46545D01*
X378109Y46551D01*
X378008Y46553D01*
X371221Y46553D01*
X371221Y52781D02*
X380619Y52781D01*
X371221Y50171D02*
X371221Y55392D01*
X371221Y59010D02*
X380619Y59010D01*
X371221Y59010D02*
X371221Y61620D01*
X371223Y61720D01*
X371229Y61820D01*
X371238Y61919D01*
X371252Y62019D01*
X371269Y62117D01*
X371290Y62215D01*
X371314Y62312D01*
X371343Y62408D01*
X371375Y62503D01*
X371410Y62596D01*
X371449Y62688D01*
X371492Y62779D01*
X371538Y62867D01*
X371588Y62954D01*
X371640Y63039D01*
X371696Y63122D01*
X371755Y63203D01*
X371818Y63281D01*
X371883Y63357D01*
X371951Y63431D01*
X372021Y63501D01*
X372095Y63569D01*
X372171Y63634D01*
X372249Y63697D01*
X372330Y63756D01*
X372413Y63812D01*
X372498Y63864D01*
X372585Y63914D01*
X372673Y63960D01*
X372764Y64003D01*
X372856Y64042D01*
X372949Y64077D01*
X373044Y64109D01*
X373140Y64138D01*
X373237Y64162D01*
X373335Y64183D01*
X373433Y64200D01*
X373533Y64214D01*
X373632Y64223D01*
X373732Y64229D01*
X373832Y64231D01*
X378008Y64231D01*
X378108Y64229D01*
X378208Y64223D01*
X378307Y64214D01*
X378407Y64200D01*
X378505Y64183D01*
X378603Y64162D01*
X378700Y64138D01*
X378796Y64109D01*
X378891Y64077D01*
X378984Y64042D01*
X379076Y64003D01*
X379167Y63960D01*
X379255Y63914D01*
X379342Y63864D01*
X379427Y63812D01*
X379510Y63756D01*
X379591Y63697D01*
X379669Y63634D01*
X379745Y63569D01*
X379819Y63501D01*
X379889Y63431D01*
X379957Y63357D01*
X380022Y63281D01*
X380085Y63203D01*
X380144Y63122D01*
X380200Y63039D01*
X380252Y62954D01*
X380302Y62867D01*
X380348Y62779D01*
X380391Y62688D01*
X380430Y62596D01*
X380465Y62503D01*
X380497Y62408D01*
X380526Y62312D01*
X380550Y62215D01*
X380571Y62117D01*
X380588Y62019D01*
X380602Y61919D01*
X380611Y61820D01*
X380617Y61720D01*
X380619Y61620D01*
X380619Y59010D01*
X378008Y68459D02*
X373832Y68459D01*
X373832Y68458D02*
X373731Y68460D01*
X373630Y68466D01*
X373529Y68476D01*
X373429Y68489D01*
X373329Y68507D01*
X373230Y68528D01*
X373132Y68554D01*
X373035Y68583D01*
X372939Y68615D01*
X372845Y68652D01*
X372752Y68692D01*
X372660Y68736D01*
X372571Y68783D01*
X372483Y68834D01*
X372397Y68888D01*
X372314Y68945D01*
X372232Y69005D01*
X372154Y69069D01*
X372077Y69135D01*
X372004Y69205D01*
X371933Y69277D01*
X371865Y69352D01*
X371800Y69430D01*
X371738Y69510D01*
X371679Y69592D01*
X371623Y69677D01*
X371571Y69764D01*
X371522Y69852D01*
X371476Y69943D01*
X371435Y70035D01*
X371396Y70129D01*
X371362Y70224D01*
X371331Y70320D01*
X371304Y70418D01*
X371280Y70516D01*
X371261Y70616D01*
X371245Y70716D01*
X371233Y70816D01*
X371225Y70917D01*
X371221Y71018D01*
X371221Y71120D01*
X371225Y71221D01*
X371233Y71322D01*
X371245Y71422D01*
X371261Y71522D01*
X371280Y71622D01*
X371304Y71720D01*
X371331Y71818D01*
X371362Y71914D01*
X371396Y72009D01*
X371435Y72103D01*
X371476Y72195D01*
X371522Y72286D01*
X371571Y72375D01*
X371623Y72461D01*
X371679Y72546D01*
X371738Y72628D01*
X371800Y72708D01*
X371865Y72786D01*
X371933Y72861D01*
X372004Y72933D01*
X372077Y73003D01*
X372154Y73069D01*
X372232Y73133D01*
X372314Y73193D01*
X372397Y73250D01*
X372483Y73304D01*
X372571Y73355D01*
X372660Y73402D01*
X372752Y73446D01*
X372845Y73486D01*
X372939Y73523D01*
X373035Y73555D01*
X373132Y73584D01*
X373230Y73610D01*
X373329Y73631D01*
X373429Y73649D01*
X373529Y73662D01*
X373630Y73672D01*
X373731Y73678D01*
X373832Y73680D01*
X378008Y73680D01*
X378109Y73678D01*
X378210Y73672D01*
X378311Y73662D01*
X378411Y73649D01*
X378511Y73631D01*
X378610Y73610D01*
X378708Y73584D01*
X378805Y73555D01*
X378901Y73523D01*
X378995Y73486D01*
X379088Y73446D01*
X379180Y73402D01*
X379269Y73355D01*
X379357Y73304D01*
X379443Y73250D01*
X379526Y73193D01*
X379608Y73133D01*
X379686Y73069D01*
X379763Y73003D01*
X379836Y72933D01*
X379907Y72861D01*
X379975Y72786D01*
X380040Y72708D01*
X380102Y72628D01*
X380161Y72546D01*
X380217Y72461D01*
X380269Y72374D01*
X380318Y72286D01*
X380364Y72195D01*
X380405Y72103D01*
X380444Y72009D01*
X380478Y71914D01*
X380509Y71818D01*
X380536Y71720D01*
X380560Y71622D01*
X380579Y71522D01*
X380595Y71422D01*
X380607Y71322D01*
X380615Y71221D01*
X380619Y71120D01*
X380619Y71018D01*
X380615Y70917D01*
X380607Y70816D01*
X380595Y70716D01*
X380579Y70616D01*
X380560Y70516D01*
X380536Y70418D01*
X380509Y70320D01*
X380478Y70224D01*
X380444Y70129D01*
X380405Y70035D01*
X380364Y69943D01*
X380318Y69852D01*
X380269Y69763D01*
X380217Y69677D01*
X380161Y69592D01*
X380102Y69510D01*
X380040Y69430D01*
X379975Y69352D01*
X379907Y69277D01*
X379836Y69205D01*
X379763Y69135D01*
X379686Y69069D01*
X379608Y69005D01*
X379526Y68945D01*
X379443Y68888D01*
X379357Y68834D01*
X379269Y68783D01*
X379180Y68736D01*
X379088Y68692D01*
X378995Y68652D01*
X378901Y68615D01*
X378805Y68583D01*
X378708Y68554D01*
X378610Y68528D01*
X378511Y68507D01*
X378411Y68489D01*
X378311Y68476D01*
X378210Y68466D01*
X378109Y68460D01*
X378008Y68458D01*
X371221Y77256D02*
X380619Y79344D01*
X374354Y81432D01*
X380619Y83521D01*
X371221Y85609D01*
X371221Y89490D02*
X380619Y89490D01*
X380619Y94711D02*
X371221Y89490D01*
X371221Y94711D02*
X380619Y94711D01*
X380619Y103293D02*
X371221Y106426D01*
X380619Y109559D01*
X378270Y108775D02*
X378270Y104076D01*
X380619Y115787D02*
X380617Y115876D01*
X380611Y115964D01*
X380602Y116052D01*
X380589Y116140D01*
X380572Y116227D01*
X380552Y116313D01*
X380527Y116398D01*
X380500Y116483D01*
X380468Y116566D01*
X380434Y116647D01*
X380395Y116727D01*
X380354Y116805D01*
X380309Y116882D01*
X380261Y116956D01*
X380210Y117029D01*
X380156Y117099D01*
X380098Y117166D01*
X380038Y117232D01*
X379976Y117294D01*
X379910Y117354D01*
X379843Y117412D01*
X379773Y117466D01*
X379700Y117517D01*
X379626Y117565D01*
X379549Y117610D01*
X379471Y117651D01*
X379391Y117690D01*
X379310Y117724D01*
X379227Y117756D01*
X379142Y117783D01*
X379057Y117808D01*
X378971Y117828D01*
X378884Y117845D01*
X378796Y117858D01*
X378708Y117867D01*
X378620Y117873D01*
X378531Y117875D01*
X380619Y115787D02*
X380617Y115658D01*
X380611Y115529D01*
X380602Y115400D01*
X380589Y115272D01*
X380572Y115144D01*
X380551Y115017D01*
X380527Y114890D01*
X380499Y114764D01*
X380467Y114639D01*
X380432Y114515D01*
X380393Y114392D01*
X380350Y114270D01*
X380304Y114150D01*
X380254Y114031D01*
X380201Y113913D01*
X380145Y113797D01*
X380085Y113683D01*
X380022Y113570D01*
X379955Y113460D01*
X379886Y113351D01*
X379813Y113245D01*
X379737Y113140D01*
X379658Y113038D01*
X379576Y112939D01*
X379492Y112841D01*
X379404Y112746D01*
X379314Y112654D01*
X373309Y112916D02*
X373220Y112918D01*
X373132Y112924D01*
X373044Y112933D01*
X372956Y112946D01*
X372869Y112963D01*
X372783Y112983D01*
X372698Y113008D01*
X372613Y113035D01*
X372530Y113067D01*
X372449Y113101D01*
X372369Y113140D01*
X372291Y113181D01*
X372214Y113226D01*
X372140Y113274D01*
X372067Y113325D01*
X371997Y113379D01*
X371930Y113437D01*
X371864Y113497D01*
X371802Y113559D01*
X371742Y113625D01*
X371684Y113692D01*
X371630Y113762D01*
X371579Y113835D01*
X371531Y113909D01*
X371486Y113986D01*
X371445Y114064D01*
X371406Y114144D01*
X371372Y114225D01*
X371340Y114308D01*
X371313Y114393D01*
X371288Y114478D01*
X371268Y114564D01*
X371251Y114651D01*
X371238Y114739D01*
X371229Y114827D01*
X371223Y114915D01*
X371221Y115004D01*
X371223Y115124D01*
X371228Y115244D01*
X371238Y115363D01*
X371250Y115483D01*
X371267Y115602D01*
X371287Y115720D01*
X371311Y115838D01*
X371338Y115954D01*
X371369Y116070D01*
X371403Y116185D01*
X371441Y116299D01*
X371483Y116412D01*
X371528Y116523D01*
X371576Y116633D01*
X371627Y116741D01*
X371682Y116848D01*
X371740Y116953D01*
X371802Y117056D01*
X371866Y117157D01*
X371934Y117257D01*
X372004Y117354D01*
X375136Y113960D02*
X375088Y113882D01*
X375036Y113806D01*
X374982Y113733D01*
X374924Y113662D01*
X374863Y113593D01*
X374799Y113527D01*
X374732Y113464D01*
X374663Y113404D01*
X374591Y113347D01*
X374517Y113293D01*
X374440Y113243D01*
X374361Y113195D01*
X374281Y113152D01*
X374198Y113111D01*
X374114Y113075D01*
X374029Y113042D01*
X373942Y113013D01*
X373853Y112987D01*
X373764Y112965D01*
X373674Y112948D01*
X373584Y112934D01*
X373492Y112924D01*
X373401Y112918D01*
X373309Y112916D01*
X376704Y116832D02*
X376752Y116910D01*
X376804Y116986D01*
X376858Y117059D01*
X376916Y117130D01*
X376977Y117199D01*
X377041Y117265D01*
X377108Y117328D01*
X377177Y117388D01*
X377249Y117445D01*
X377323Y117499D01*
X377400Y117549D01*
X377479Y117597D01*
X377559Y117640D01*
X377642Y117681D01*
X377726Y117717D01*
X377811Y117750D01*
X377898Y117779D01*
X377987Y117805D01*
X378076Y117827D01*
X378166Y117844D01*
X378256Y117858D01*
X378348Y117868D01*
X378439Y117874D01*
X378531Y117876D01*
X376703Y116831D02*
X375137Y113960D01*
X380619Y124321D02*
X380617Y124410D01*
X380611Y124498D01*
X380602Y124586D01*
X380589Y124674D01*
X380572Y124761D01*
X380552Y124847D01*
X380527Y124932D01*
X380500Y125017D01*
X380468Y125100D01*
X380434Y125181D01*
X380395Y125261D01*
X380354Y125339D01*
X380309Y125416D01*
X380261Y125490D01*
X380210Y125563D01*
X380156Y125633D01*
X380098Y125700D01*
X380038Y125766D01*
X379976Y125828D01*
X379910Y125888D01*
X379843Y125946D01*
X379773Y126000D01*
X379700Y126051D01*
X379626Y126099D01*
X379549Y126144D01*
X379471Y126185D01*
X379391Y126224D01*
X379310Y126258D01*
X379227Y126290D01*
X379142Y126317D01*
X379057Y126342D01*
X378971Y126362D01*
X378884Y126379D01*
X378796Y126392D01*
X378708Y126401D01*
X378620Y126407D01*
X378531Y126409D01*
X380619Y124321D02*
X380617Y124192D01*
X380611Y124063D01*
X380602Y123934D01*
X380589Y123806D01*
X380572Y123678D01*
X380551Y123551D01*
X380527Y123424D01*
X380499Y123298D01*
X380467Y123173D01*
X380432Y123049D01*
X380393Y122926D01*
X380350Y122804D01*
X380304Y122684D01*
X380254Y122565D01*
X380201Y122447D01*
X380145Y122331D01*
X380085Y122217D01*
X380022Y122104D01*
X379955Y121994D01*
X379886Y121885D01*
X379813Y121779D01*
X379737Y121674D01*
X379658Y121572D01*
X379576Y121473D01*
X379492Y121375D01*
X379404Y121280D01*
X379314Y121188D01*
X373309Y121450D02*
X373220Y121452D01*
X373132Y121458D01*
X373044Y121467D01*
X372956Y121480D01*
X372869Y121497D01*
X372783Y121517D01*
X372698Y121542D01*
X372613Y121569D01*
X372530Y121601D01*
X372449Y121635D01*
X372369Y121674D01*
X372291Y121715D01*
X372214Y121760D01*
X372140Y121808D01*
X372067Y121859D01*
X371997Y121913D01*
X371930Y121971D01*
X371864Y122031D01*
X371802Y122093D01*
X371742Y122159D01*
X371684Y122226D01*
X371630Y122296D01*
X371579Y122369D01*
X371531Y122443D01*
X371486Y122520D01*
X371445Y122598D01*
X371406Y122678D01*
X371372Y122759D01*
X371340Y122842D01*
X371313Y122927D01*
X371288Y123012D01*
X371268Y123098D01*
X371251Y123185D01*
X371238Y123273D01*
X371229Y123361D01*
X371223Y123449D01*
X371221Y123538D01*
X371223Y123658D01*
X371228Y123778D01*
X371238Y123897D01*
X371250Y124017D01*
X371267Y124136D01*
X371287Y124254D01*
X371311Y124372D01*
X371338Y124488D01*
X371369Y124604D01*
X371403Y124719D01*
X371441Y124833D01*
X371483Y124946D01*
X371528Y125057D01*
X371576Y125167D01*
X371627Y125275D01*
X371682Y125382D01*
X371740Y125487D01*
X371802Y125590D01*
X371866Y125691D01*
X371934Y125791D01*
X372004Y125888D01*
X375136Y122494D02*
X375088Y122416D01*
X375036Y122340D01*
X374982Y122267D01*
X374924Y122196D01*
X374863Y122127D01*
X374799Y122061D01*
X374732Y121998D01*
X374663Y121938D01*
X374591Y121881D01*
X374517Y121827D01*
X374440Y121777D01*
X374361Y121729D01*
X374281Y121686D01*
X374198Y121645D01*
X374114Y121609D01*
X374029Y121576D01*
X373942Y121547D01*
X373853Y121521D01*
X373764Y121499D01*
X373674Y121482D01*
X373584Y121468D01*
X373492Y121458D01*
X373401Y121452D01*
X373309Y121450D01*
X376704Y125366D02*
X376752Y125444D01*
X376804Y125520D01*
X376858Y125593D01*
X376916Y125664D01*
X376977Y125733D01*
X377041Y125799D01*
X377108Y125862D01*
X377177Y125922D01*
X377249Y125979D01*
X377323Y126033D01*
X377400Y126083D01*
X377479Y126131D01*
X377559Y126174D01*
X377642Y126215D01*
X377726Y126251D01*
X377811Y126284D01*
X377898Y126313D01*
X377987Y126339D01*
X378076Y126361D01*
X378166Y126378D01*
X378256Y126392D01*
X378348Y126402D01*
X378439Y126408D01*
X378531Y126410D01*
X376703Y125366D02*
X375137Y122494D01*
X380619Y130350D02*
X380619Y134527D01*
X380619Y130350D02*
X371221Y130350D01*
X371221Y134527D01*
X375398Y133483D02*
X375398Y130350D01*
X371221Y138345D02*
X380619Y138345D01*
X376442Y141478D02*
X371221Y138345D01*
X376442Y141478D02*
X371221Y144610D01*
X380619Y144610D01*
X375398Y149362D02*
X375398Y151972D01*
X375397Y151972D02*
X375399Y152073D01*
X375405Y152174D01*
X375415Y152275D01*
X375428Y152375D01*
X375446Y152475D01*
X375467Y152574D01*
X375493Y152672D01*
X375522Y152769D01*
X375554Y152865D01*
X375591Y152959D01*
X375631Y153052D01*
X375675Y153144D01*
X375722Y153233D01*
X375773Y153321D01*
X375827Y153407D01*
X375884Y153490D01*
X375944Y153572D01*
X376008Y153650D01*
X376074Y153727D01*
X376144Y153800D01*
X376216Y153871D01*
X376291Y153939D01*
X376369Y154004D01*
X376449Y154066D01*
X376531Y154125D01*
X376616Y154181D01*
X376703Y154233D01*
X376791Y154282D01*
X376882Y154328D01*
X376974Y154369D01*
X377068Y154408D01*
X377163Y154442D01*
X377259Y154473D01*
X377357Y154500D01*
X377455Y154524D01*
X377555Y154543D01*
X377655Y154559D01*
X377755Y154571D01*
X377856Y154579D01*
X377957Y154583D01*
X378059Y154583D01*
X378160Y154579D01*
X378261Y154571D01*
X378361Y154559D01*
X378461Y154543D01*
X378561Y154524D01*
X378659Y154500D01*
X378757Y154473D01*
X378853Y154442D01*
X378948Y154408D01*
X379042Y154369D01*
X379134Y154328D01*
X379225Y154282D01*
X379314Y154233D01*
X379400Y154181D01*
X379485Y154125D01*
X379567Y154066D01*
X379647Y154004D01*
X379725Y153939D01*
X379800Y153871D01*
X379872Y153800D01*
X379942Y153727D01*
X380008Y153650D01*
X380072Y153572D01*
X380132Y153490D01*
X380189Y153407D01*
X380243Y153321D01*
X380294Y153233D01*
X380341Y153144D01*
X380385Y153052D01*
X380425Y152959D01*
X380462Y152865D01*
X380494Y152769D01*
X380523Y152672D01*
X380549Y152574D01*
X380570Y152475D01*
X380588Y152375D01*
X380601Y152275D01*
X380611Y152174D01*
X380617Y152073D01*
X380619Y151972D01*
X380619Y149362D01*
X371221Y149362D01*
X371221Y151972D01*
X371223Y152062D01*
X371229Y152151D01*
X371238Y152241D01*
X371252Y152330D01*
X371269Y152418D01*
X371290Y152505D01*
X371315Y152592D01*
X371344Y152677D01*
X371376Y152761D01*
X371411Y152843D01*
X371451Y152924D01*
X371493Y153003D01*
X371539Y153080D01*
X371589Y153155D01*
X371641Y153228D01*
X371697Y153299D01*
X371755Y153367D01*
X371817Y153432D01*
X371881Y153495D01*
X371948Y153555D01*
X372017Y153612D01*
X372089Y153666D01*
X372163Y153717D01*
X372239Y153765D01*
X372317Y153809D01*
X372397Y153850D01*
X372479Y153888D01*
X372562Y153922D01*
X372647Y153952D01*
X372733Y153979D01*
X372819Y154002D01*
X372907Y154021D01*
X372996Y154036D01*
X373085Y154048D01*
X373174Y154056D01*
X373264Y154060D01*
X373354Y154060D01*
X373444Y154056D01*
X373533Y154048D01*
X373622Y154036D01*
X373711Y154021D01*
X373799Y154002D01*
X373885Y153979D01*
X373971Y153952D01*
X374056Y153922D01*
X374139Y153888D01*
X374221Y153850D01*
X374301Y153809D01*
X374379Y153765D01*
X374455Y153717D01*
X374529Y153666D01*
X374601Y153612D01*
X374670Y153555D01*
X374737Y153495D01*
X374801Y153432D01*
X374863Y153367D01*
X374921Y153299D01*
X374977Y153228D01*
X375029Y153155D01*
X375079Y153080D01*
X375125Y153003D01*
X375167Y152924D01*
X375207Y152843D01*
X375242Y152761D01*
X375274Y152677D01*
X375303Y152592D01*
X375328Y152505D01*
X375349Y152418D01*
X375366Y152330D01*
X375380Y152241D01*
X375389Y152151D01*
X375395Y152062D01*
X375397Y151972D01*
X371221Y158392D02*
X380619Y158392D01*
X380619Y162569D01*
X375659Y168605D02*
X371221Y165472D01*
X375659Y168605D02*
X371221Y171737D01*
X375659Y168605D02*
X380619Y168605D01*
X379836Y179926D02*
X379314Y179926D01*
X379314Y180448D01*
X379836Y180448D01*
X379836Y179926D01*
X375659Y179926D02*
X375137Y179926D01*
X375137Y180448D01*
X375659Y180448D01*
X375659Y179926D01*
X371221Y191160D02*
X380619Y191160D01*
X371221Y188549D02*
X371221Y193770D01*
X380619Y197406D02*
X380619Y201583D01*
X380619Y197406D02*
X371221Y197406D01*
X371221Y201583D01*
X375398Y200539D02*
X375398Y197406D01*
X371221Y207009D02*
X380619Y207009D01*
X371221Y204399D02*
X371221Y209620D01*
X371221Y213238D02*
X380619Y213238D01*
X375398Y213238D02*
X375398Y218459D01*
X371221Y218459D02*
X380619Y218459D01*
X380619Y223009D02*
X380619Y227186D01*
X380619Y223009D02*
X371221Y223009D01*
X371221Y227186D01*
X375398Y226142D02*
X375398Y223009D01*
X371221Y230973D02*
X380619Y230973D01*
X371221Y230973D02*
X371221Y233584D01*
X371223Y233685D01*
X371229Y233786D01*
X371239Y233887D01*
X371252Y233987D01*
X371270Y234087D01*
X371291Y234186D01*
X371317Y234284D01*
X371346Y234381D01*
X371378Y234477D01*
X371415Y234571D01*
X371455Y234664D01*
X371499Y234756D01*
X371546Y234845D01*
X371597Y234933D01*
X371651Y235019D01*
X371708Y235102D01*
X371768Y235184D01*
X371832Y235262D01*
X371898Y235339D01*
X371968Y235412D01*
X372040Y235483D01*
X372115Y235551D01*
X372193Y235616D01*
X372273Y235678D01*
X372355Y235737D01*
X372440Y235793D01*
X372527Y235845D01*
X372615Y235894D01*
X372706Y235940D01*
X372798Y235981D01*
X372892Y236020D01*
X372987Y236054D01*
X373083Y236085D01*
X373181Y236112D01*
X373279Y236136D01*
X373379Y236155D01*
X373479Y236171D01*
X373579Y236183D01*
X373680Y236191D01*
X373781Y236195D01*
X373883Y236195D01*
X373984Y236191D01*
X374085Y236183D01*
X374185Y236171D01*
X374285Y236155D01*
X374385Y236136D01*
X374483Y236112D01*
X374581Y236085D01*
X374677Y236054D01*
X374772Y236020D01*
X374866Y235981D01*
X374958Y235940D01*
X375049Y235894D01*
X375138Y235845D01*
X375224Y235793D01*
X375309Y235737D01*
X375391Y235678D01*
X375471Y235616D01*
X375549Y235551D01*
X375624Y235483D01*
X375696Y235412D01*
X375766Y235339D01*
X375832Y235262D01*
X375896Y235184D01*
X375956Y235102D01*
X376013Y235019D01*
X376067Y234933D01*
X376118Y234845D01*
X376165Y234756D01*
X376209Y234664D01*
X376249Y234571D01*
X376286Y234477D01*
X376318Y234381D01*
X376347Y234284D01*
X376373Y234186D01*
X376394Y234087D01*
X376412Y233987D01*
X376425Y233887D01*
X376435Y233786D01*
X376441Y233685D01*
X376443Y233584D01*
X376442Y233584D02*
X376442Y230973D01*
X376442Y234106D02*
X380619Y236194D01*
X380619Y247000D02*
X380619Y249088D01*
X380619Y247000D02*
X380617Y246911D01*
X380611Y246823D01*
X380602Y246735D01*
X380589Y246647D01*
X380572Y246560D01*
X380552Y246474D01*
X380527Y246389D01*
X380500Y246304D01*
X380468Y246221D01*
X380434Y246140D01*
X380395Y246060D01*
X380354Y245982D01*
X380309Y245905D01*
X380261Y245831D01*
X380210Y245758D01*
X380156Y245688D01*
X380098Y245621D01*
X380038Y245555D01*
X379976Y245493D01*
X379910Y245433D01*
X379843Y245375D01*
X379773Y245321D01*
X379700Y245270D01*
X379626Y245222D01*
X379549Y245177D01*
X379471Y245136D01*
X379391Y245097D01*
X379310Y245063D01*
X379227Y245031D01*
X379142Y245004D01*
X379057Y244979D01*
X378971Y244959D01*
X378884Y244942D01*
X378796Y244929D01*
X378708Y244920D01*
X378620Y244914D01*
X378531Y244912D01*
X378531Y244911D02*
X373309Y244911D01*
X373218Y244913D01*
X373127Y244919D01*
X373036Y244929D01*
X372946Y244943D01*
X372857Y244961D01*
X372768Y244982D01*
X372681Y245008D01*
X372595Y245037D01*
X372510Y245070D01*
X372426Y245107D01*
X372344Y245147D01*
X372265Y245191D01*
X372187Y245238D01*
X372111Y245289D01*
X372037Y245343D01*
X371966Y245400D01*
X371898Y245460D01*
X371832Y245523D01*
X371769Y245589D01*
X371709Y245657D01*
X371652Y245728D01*
X371598Y245802D01*
X371547Y245878D01*
X371500Y245955D01*
X371456Y246035D01*
X371416Y246117D01*
X371379Y246201D01*
X371346Y246285D01*
X371317Y246372D01*
X371291Y246459D01*
X371270Y246548D01*
X371252Y246637D01*
X371238Y246727D01*
X371228Y246818D01*
X371222Y246909D01*
X371220Y247000D01*
X371221Y247000D02*
X371221Y249088D01*
X371221Y252862D02*
X378008Y252862D01*
X378008Y252861D02*
X378109Y252863D01*
X378210Y252869D01*
X378311Y252879D01*
X378411Y252892D01*
X378511Y252910D01*
X378610Y252931D01*
X378708Y252957D01*
X378805Y252986D01*
X378901Y253018D01*
X378995Y253055D01*
X379088Y253095D01*
X379180Y253139D01*
X379269Y253186D01*
X379357Y253237D01*
X379443Y253291D01*
X379526Y253348D01*
X379608Y253408D01*
X379686Y253472D01*
X379763Y253538D01*
X379836Y253608D01*
X379907Y253680D01*
X379975Y253755D01*
X380040Y253833D01*
X380102Y253913D01*
X380161Y253995D01*
X380217Y254080D01*
X380269Y254166D01*
X380318Y254255D01*
X380364Y254346D01*
X380405Y254438D01*
X380444Y254532D01*
X380478Y254627D01*
X380509Y254723D01*
X380536Y254821D01*
X380560Y254919D01*
X380579Y255019D01*
X380595Y255119D01*
X380607Y255219D01*
X380615Y255320D01*
X380619Y255421D01*
X380619Y255523D01*
X380615Y255624D01*
X380607Y255725D01*
X380595Y255825D01*
X380579Y255925D01*
X380560Y256025D01*
X380536Y256123D01*
X380509Y256221D01*
X380478Y256317D01*
X380444Y256412D01*
X380405Y256506D01*
X380364Y256598D01*
X380318Y256689D01*
X380269Y256777D01*
X380217Y256864D01*
X380161Y256949D01*
X380102Y257031D01*
X380040Y257111D01*
X379975Y257189D01*
X379907Y257264D01*
X379836Y257336D01*
X379763Y257406D01*
X379686Y257472D01*
X379608Y257536D01*
X379526Y257596D01*
X379443Y257653D01*
X379357Y257707D01*
X379269Y257758D01*
X379180Y257805D01*
X379088Y257849D01*
X378995Y257889D01*
X378901Y257926D01*
X378805Y257958D01*
X378708Y257987D01*
X378610Y258013D01*
X378511Y258034D01*
X378411Y258052D01*
X378311Y258065D01*
X378210Y258075D01*
X378109Y258081D01*
X378008Y258083D01*
X371221Y258083D01*
X371221Y264311D02*
X380619Y264311D01*
X371221Y261701D02*
X371221Y266922D01*
X371221Y270540D02*
X380619Y270540D01*
X371221Y270540D02*
X371221Y273151D01*
X371223Y273251D01*
X371229Y273351D01*
X371238Y273450D01*
X371252Y273550D01*
X371269Y273648D01*
X371290Y273746D01*
X371314Y273843D01*
X371343Y273939D01*
X371375Y274034D01*
X371410Y274127D01*
X371449Y274219D01*
X371492Y274310D01*
X371538Y274398D01*
X371588Y274485D01*
X371640Y274570D01*
X371696Y274653D01*
X371755Y274734D01*
X371818Y274812D01*
X371883Y274888D01*
X371951Y274962D01*
X372021Y275032D01*
X372095Y275100D01*
X372171Y275165D01*
X372249Y275228D01*
X372330Y275287D01*
X372413Y275343D01*
X372498Y275395D01*
X372585Y275445D01*
X372673Y275491D01*
X372764Y275534D01*
X372856Y275573D01*
X372949Y275608D01*
X373044Y275640D01*
X373140Y275669D01*
X373237Y275693D01*
X373335Y275714D01*
X373433Y275731D01*
X373533Y275745D01*
X373632Y275754D01*
X373732Y275760D01*
X373832Y275762D01*
X373832Y275761D02*
X378008Y275761D01*
X378008Y275762D02*
X378108Y275760D01*
X378208Y275754D01*
X378307Y275745D01*
X378407Y275731D01*
X378505Y275714D01*
X378603Y275693D01*
X378700Y275669D01*
X378796Y275640D01*
X378891Y275608D01*
X378984Y275573D01*
X379076Y275534D01*
X379167Y275491D01*
X379255Y275445D01*
X379342Y275395D01*
X379427Y275343D01*
X379510Y275287D01*
X379591Y275228D01*
X379669Y275165D01*
X379745Y275100D01*
X379819Y275032D01*
X379889Y274962D01*
X379957Y274888D01*
X380022Y274812D01*
X380085Y274734D01*
X380144Y274653D01*
X380200Y274570D01*
X380252Y274485D01*
X380302Y274398D01*
X380348Y274310D01*
X380391Y274219D01*
X380430Y274127D01*
X380465Y274034D01*
X380497Y273939D01*
X380526Y273843D01*
X380550Y273746D01*
X380571Y273648D01*
X380588Y273550D01*
X380602Y273450D01*
X380611Y273351D01*
X380617Y273251D01*
X380619Y273151D01*
X380619Y270540D01*
X378008Y279989D02*
X373832Y279989D01*
X373832Y279988D02*
X373731Y279990D01*
X373630Y279996D01*
X373529Y280006D01*
X373429Y280019D01*
X373329Y280037D01*
X373230Y280058D01*
X373132Y280084D01*
X373035Y280113D01*
X372939Y280145D01*
X372845Y280182D01*
X372752Y280222D01*
X372660Y280266D01*
X372571Y280313D01*
X372483Y280364D01*
X372397Y280418D01*
X372314Y280475D01*
X372232Y280535D01*
X372154Y280599D01*
X372077Y280665D01*
X372004Y280735D01*
X371933Y280807D01*
X371865Y280882D01*
X371800Y280960D01*
X371738Y281040D01*
X371679Y281122D01*
X371623Y281207D01*
X371571Y281294D01*
X371522Y281382D01*
X371476Y281473D01*
X371435Y281565D01*
X371396Y281659D01*
X371362Y281754D01*
X371331Y281850D01*
X371304Y281948D01*
X371280Y282046D01*
X371261Y282146D01*
X371245Y282246D01*
X371233Y282346D01*
X371225Y282447D01*
X371221Y282548D01*
X371221Y282650D01*
X371225Y282751D01*
X371233Y282852D01*
X371245Y282952D01*
X371261Y283052D01*
X371280Y283152D01*
X371304Y283250D01*
X371331Y283348D01*
X371362Y283444D01*
X371396Y283539D01*
X371435Y283633D01*
X371476Y283725D01*
X371522Y283816D01*
X371571Y283905D01*
X371623Y283991D01*
X371679Y284076D01*
X371738Y284158D01*
X371800Y284238D01*
X371865Y284316D01*
X371933Y284391D01*
X372004Y284463D01*
X372077Y284533D01*
X372154Y284599D01*
X372232Y284663D01*
X372314Y284723D01*
X372397Y284780D01*
X372483Y284834D01*
X372571Y284885D01*
X372660Y284932D01*
X372752Y284976D01*
X372845Y285016D01*
X372939Y285053D01*
X373035Y285085D01*
X373132Y285114D01*
X373230Y285140D01*
X373329Y285161D01*
X373429Y285179D01*
X373529Y285192D01*
X373630Y285202D01*
X373731Y285208D01*
X373832Y285210D01*
X378008Y285210D01*
X378109Y285208D01*
X378210Y285202D01*
X378311Y285192D01*
X378411Y285179D01*
X378511Y285161D01*
X378610Y285140D01*
X378708Y285114D01*
X378805Y285085D01*
X378901Y285053D01*
X378995Y285016D01*
X379088Y284976D01*
X379180Y284932D01*
X379269Y284885D01*
X379357Y284834D01*
X379443Y284780D01*
X379526Y284723D01*
X379608Y284663D01*
X379686Y284599D01*
X379763Y284533D01*
X379836Y284463D01*
X379907Y284391D01*
X379975Y284316D01*
X380040Y284238D01*
X380102Y284158D01*
X380161Y284076D01*
X380217Y283991D01*
X380269Y283904D01*
X380318Y283816D01*
X380364Y283725D01*
X380405Y283633D01*
X380444Y283539D01*
X380478Y283444D01*
X380509Y283348D01*
X380536Y283250D01*
X380560Y283152D01*
X380579Y283052D01*
X380595Y282952D01*
X380607Y282852D01*
X380615Y282751D01*
X380619Y282650D01*
X380619Y282548D01*
X380615Y282447D01*
X380607Y282346D01*
X380595Y282246D01*
X380579Y282146D01*
X380560Y282046D01*
X380536Y281948D01*
X380509Y281850D01*
X380478Y281754D01*
X380444Y281659D01*
X380405Y281565D01*
X380364Y281473D01*
X380318Y281382D01*
X380269Y281294D01*
X380217Y281207D01*
X380161Y281122D01*
X380102Y281040D01*
X380040Y280960D01*
X379975Y280882D01*
X379907Y280807D01*
X379836Y280735D01*
X379763Y280665D01*
X379686Y280599D01*
X379608Y280535D01*
X379526Y280475D01*
X379443Y280418D01*
X379357Y280364D01*
X379269Y280313D01*
X379180Y280266D01*
X379088Y280222D01*
X378995Y280182D01*
X378901Y280145D01*
X378805Y280113D01*
X378708Y280084D01*
X378610Y280058D01*
X378511Y280037D01*
X378411Y280019D01*
X378311Y280006D01*
X378210Y279996D01*
X378109Y279990D01*
X378008Y279988D01*
X371221Y288786D02*
X380619Y290874D01*
X374354Y292963D01*
X380619Y295051D01*
X371221Y297139D01*
X371221Y301020D02*
X380619Y301020D01*
X380619Y306241D02*
X371221Y301020D01*
X371221Y306241D02*
X380619Y306241D01*
X375398Y319305D02*
X375398Y320871D01*
X380619Y320871D01*
X380619Y317739D01*
X380617Y317650D01*
X380611Y317562D01*
X380602Y317474D01*
X380589Y317386D01*
X380572Y317299D01*
X380552Y317213D01*
X380527Y317128D01*
X380500Y317043D01*
X380468Y316960D01*
X380434Y316879D01*
X380395Y316799D01*
X380354Y316721D01*
X380309Y316644D01*
X380261Y316570D01*
X380210Y316497D01*
X380156Y316427D01*
X380098Y316360D01*
X380038Y316294D01*
X379976Y316232D01*
X379910Y316172D01*
X379843Y316114D01*
X379773Y316060D01*
X379700Y316009D01*
X379626Y315961D01*
X379549Y315916D01*
X379471Y315875D01*
X379391Y315836D01*
X379310Y315802D01*
X379227Y315770D01*
X379142Y315743D01*
X379057Y315718D01*
X378971Y315698D01*
X378884Y315681D01*
X378796Y315668D01*
X378708Y315659D01*
X378620Y315653D01*
X378531Y315651D01*
X378531Y315650D02*
X373309Y315650D01*
X373218Y315652D01*
X373127Y315658D01*
X373036Y315668D01*
X372946Y315682D01*
X372857Y315700D01*
X372768Y315721D01*
X372681Y315747D01*
X372595Y315776D01*
X372510Y315809D01*
X372426Y315846D01*
X372344Y315886D01*
X372265Y315930D01*
X372187Y315977D01*
X372111Y316028D01*
X372037Y316082D01*
X371966Y316139D01*
X371898Y316199D01*
X371832Y316262D01*
X371769Y316328D01*
X371709Y316396D01*
X371652Y316467D01*
X371598Y316541D01*
X371547Y316617D01*
X371500Y316694D01*
X371456Y316774D01*
X371416Y316856D01*
X371379Y316940D01*
X371346Y317024D01*
X371317Y317111D01*
X371291Y317198D01*
X371270Y317287D01*
X371252Y317376D01*
X371238Y317466D01*
X371228Y317557D01*
X371222Y317648D01*
X371220Y317739D01*
X371221Y317739D02*
X371221Y320871D01*
X373832Y325099D02*
X378008Y325099D01*
X373832Y325099D02*
X373731Y325101D01*
X373630Y325107D01*
X373529Y325117D01*
X373429Y325130D01*
X373329Y325148D01*
X373230Y325169D01*
X373132Y325195D01*
X373035Y325224D01*
X372939Y325256D01*
X372845Y325293D01*
X372752Y325333D01*
X372660Y325377D01*
X372571Y325424D01*
X372483Y325475D01*
X372397Y325529D01*
X372314Y325586D01*
X372232Y325646D01*
X372154Y325710D01*
X372077Y325776D01*
X372004Y325846D01*
X371933Y325918D01*
X371865Y325993D01*
X371800Y326071D01*
X371738Y326151D01*
X371679Y326233D01*
X371623Y326318D01*
X371571Y326405D01*
X371522Y326493D01*
X371476Y326584D01*
X371435Y326676D01*
X371396Y326770D01*
X371362Y326865D01*
X371331Y326961D01*
X371304Y327059D01*
X371280Y327157D01*
X371261Y327257D01*
X371245Y327357D01*
X371233Y327457D01*
X371225Y327558D01*
X371221Y327659D01*
X371221Y327761D01*
X371225Y327862D01*
X371233Y327963D01*
X371245Y328063D01*
X371261Y328163D01*
X371280Y328263D01*
X371304Y328361D01*
X371331Y328459D01*
X371362Y328555D01*
X371396Y328650D01*
X371435Y328744D01*
X371476Y328836D01*
X371522Y328927D01*
X371571Y329016D01*
X371623Y329102D01*
X371679Y329187D01*
X371738Y329269D01*
X371800Y329349D01*
X371865Y329427D01*
X371933Y329502D01*
X372004Y329574D01*
X372077Y329644D01*
X372154Y329710D01*
X372232Y329774D01*
X372314Y329834D01*
X372397Y329891D01*
X372483Y329945D01*
X372571Y329996D01*
X372660Y330043D01*
X372752Y330087D01*
X372845Y330127D01*
X372939Y330164D01*
X373035Y330196D01*
X373132Y330225D01*
X373230Y330251D01*
X373329Y330272D01*
X373429Y330290D01*
X373529Y330303D01*
X373630Y330313D01*
X373731Y330319D01*
X373832Y330321D01*
X373832Y330320D02*
X378008Y330320D01*
X378008Y330321D02*
X378109Y330319D01*
X378210Y330313D01*
X378311Y330303D01*
X378411Y330290D01*
X378511Y330272D01*
X378610Y330251D01*
X378708Y330225D01*
X378805Y330196D01*
X378901Y330164D01*
X378995Y330127D01*
X379088Y330087D01*
X379180Y330043D01*
X379269Y329996D01*
X379357Y329945D01*
X379443Y329891D01*
X379526Y329834D01*
X379608Y329774D01*
X379686Y329710D01*
X379763Y329644D01*
X379836Y329574D01*
X379907Y329502D01*
X379975Y329427D01*
X380040Y329349D01*
X380102Y329269D01*
X380161Y329187D01*
X380217Y329102D01*
X380269Y329015D01*
X380318Y328927D01*
X380364Y328836D01*
X380405Y328744D01*
X380444Y328650D01*
X380478Y328555D01*
X380509Y328459D01*
X380536Y328361D01*
X380560Y328263D01*
X380579Y328163D01*
X380595Y328063D01*
X380607Y327963D01*
X380615Y327862D01*
X380619Y327761D01*
X380619Y327659D01*
X380615Y327558D01*
X380607Y327457D01*
X380595Y327357D01*
X380579Y327257D01*
X380560Y327157D01*
X380536Y327059D01*
X380509Y326961D01*
X380478Y326865D01*
X380444Y326770D01*
X380405Y326676D01*
X380364Y326584D01*
X380318Y326493D01*
X380269Y326405D01*
X380217Y326318D01*
X380161Y326233D01*
X380102Y326151D01*
X380040Y326071D01*
X379975Y325993D01*
X379907Y325918D01*
X379836Y325846D01*
X379763Y325776D01*
X379686Y325710D01*
X379608Y325646D01*
X379526Y325586D01*
X379443Y325529D01*
X379357Y325475D01*
X379269Y325424D01*
X379180Y325377D01*
X379088Y325333D01*
X378995Y325293D01*
X378901Y325256D01*
X378805Y325224D01*
X378708Y325195D01*
X378610Y325169D01*
X378511Y325148D01*
X378411Y325130D01*
X378311Y325117D01*
X378210Y325107D01*
X378109Y325101D01*
X378008Y325099D01*
X380619Y334565D02*
X380619Y338742D01*
X380619Y334565D02*
X371221Y334565D01*
X371221Y338742D01*
X375398Y337698D02*
X375398Y334565D01*
X380619Y344996D02*
X380617Y345085D01*
X380611Y345173D01*
X380602Y345261D01*
X380589Y345349D01*
X380572Y345436D01*
X380552Y345522D01*
X380527Y345607D01*
X380500Y345692D01*
X380468Y345775D01*
X380434Y345856D01*
X380395Y345936D01*
X380354Y346014D01*
X380309Y346091D01*
X380261Y346165D01*
X380210Y346238D01*
X380156Y346308D01*
X380098Y346375D01*
X380038Y346441D01*
X379976Y346503D01*
X379910Y346563D01*
X379843Y346621D01*
X379773Y346675D01*
X379700Y346726D01*
X379626Y346774D01*
X379549Y346819D01*
X379471Y346860D01*
X379391Y346899D01*
X379310Y346933D01*
X379227Y346965D01*
X379142Y346992D01*
X379057Y347017D01*
X378971Y347037D01*
X378884Y347054D01*
X378796Y347067D01*
X378708Y347076D01*
X378620Y347082D01*
X378531Y347084D01*
X380619Y344996D02*
X380617Y344867D01*
X380611Y344738D01*
X380602Y344609D01*
X380589Y344481D01*
X380572Y344353D01*
X380551Y344226D01*
X380527Y344099D01*
X380499Y343973D01*
X380467Y343848D01*
X380432Y343724D01*
X380393Y343601D01*
X380350Y343479D01*
X380304Y343359D01*
X380254Y343240D01*
X380201Y343122D01*
X380145Y343006D01*
X380085Y342892D01*
X380022Y342779D01*
X379955Y342669D01*
X379886Y342560D01*
X379813Y342454D01*
X379737Y342349D01*
X379658Y342247D01*
X379576Y342148D01*
X379492Y342050D01*
X379404Y341955D01*
X379314Y341863D01*
X373309Y342125D02*
X373220Y342127D01*
X373132Y342133D01*
X373044Y342142D01*
X372956Y342155D01*
X372869Y342172D01*
X372783Y342192D01*
X372698Y342217D01*
X372613Y342244D01*
X372530Y342276D01*
X372449Y342310D01*
X372369Y342349D01*
X372291Y342390D01*
X372214Y342435D01*
X372140Y342483D01*
X372067Y342534D01*
X371997Y342588D01*
X371930Y342646D01*
X371864Y342706D01*
X371802Y342768D01*
X371742Y342834D01*
X371684Y342901D01*
X371630Y342971D01*
X371579Y343044D01*
X371531Y343118D01*
X371486Y343195D01*
X371445Y343273D01*
X371406Y343353D01*
X371372Y343434D01*
X371340Y343517D01*
X371313Y343602D01*
X371288Y343687D01*
X371268Y343773D01*
X371251Y343860D01*
X371238Y343948D01*
X371229Y344036D01*
X371223Y344124D01*
X371221Y344213D01*
X371223Y344333D01*
X371228Y344453D01*
X371238Y344572D01*
X371250Y344692D01*
X371267Y344811D01*
X371287Y344929D01*
X371311Y345047D01*
X371338Y345163D01*
X371369Y345279D01*
X371403Y345394D01*
X371441Y345508D01*
X371483Y345621D01*
X371528Y345732D01*
X371576Y345842D01*
X371627Y345950D01*
X371682Y346057D01*
X371740Y346162D01*
X371802Y346265D01*
X371866Y346366D01*
X371934Y346466D01*
X372004Y346563D01*
X375136Y343168D02*
X375088Y343090D01*
X375036Y343014D01*
X374982Y342941D01*
X374924Y342870D01*
X374863Y342801D01*
X374799Y342735D01*
X374732Y342672D01*
X374663Y342612D01*
X374591Y342555D01*
X374517Y342501D01*
X374440Y342451D01*
X374361Y342403D01*
X374281Y342360D01*
X374198Y342319D01*
X374114Y342283D01*
X374029Y342250D01*
X373942Y342221D01*
X373853Y342195D01*
X373764Y342173D01*
X373674Y342156D01*
X373584Y342142D01*
X373492Y342132D01*
X373401Y342126D01*
X373309Y342124D01*
X376704Y346040D02*
X376752Y346118D01*
X376804Y346194D01*
X376858Y346267D01*
X376916Y346338D01*
X376977Y346407D01*
X377041Y346473D01*
X377108Y346536D01*
X377177Y346596D01*
X377249Y346653D01*
X377323Y346707D01*
X377400Y346757D01*
X377479Y346805D01*
X377559Y346848D01*
X377642Y346889D01*
X377726Y346925D01*
X377811Y346958D01*
X377898Y346987D01*
X377987Y347013D01*
X378076Y347035D01*
X378166Y347052D01*
X378256Y347066D01*
X378348Y347076D01*
X378439Y347082D01*
X378531Y347084D01*
X376703Y346040D02*
X375137Y343168D01*
X371221Y355884D02*
X380619Y355884D01*
X375398Y355884D02*
X375398Y361105D01*
X371221Y361105D02*
X380619Y361105D01*
X380619Y365655D02*
X380619Y369832D01*
X380619Y365655D02*
X371221Y365655D01*
X371221Y369832D01*
X375398Y368787D02*
X375398Y365655D01*
X371221Y373619D02*
X380619Y373619D01*
X371221Y373619D02*
X371221Y376230D01*
X371223Y376331D01*
X371229Y376432D01*
X371239Y376533D01*
X371252Y376633D01*
X371270Y376733D01*
X371291Y376832D01*
X371317Y376930D01*
X371346Y377027D01*
X371378Y377123D01*
X371415Y377217D01*
X371455Y377310D01*
X371499Y377402D01*
X371546Y377491D01*
X371597Y377579D01*
X371651Y377665D01*
X371708Y377748D01*
X371768Y377830D01*
X371832Y377908D01*
X371898Y377985D01*
X371968Y378058D01*
X372040Y378129D01*
X372115Y378197D01*
X372193Y378262D01*
X372273Y378324D01*
X372355Y378383D01*
X372440Y378439D01*
X372527Y378491D01*
X372615Y378540D01*
X372706Y378586D01*
X372798Y378627D01*
X372892Y378666D01*
X372987Y378700D01*
X373083Y378731D01*
X373181Y378758D01*
X373279Y378782D01*
X373379Y378801D01*
X373479Y378817D01*
X373579Y378829D01*
X373680Y378837D01*
X373781Y378841D01*
X373883Y378841D01*
X373984Y378837D01*
X374085Y378829D01*
X374185Y378817D01*
X374285Y378801D01*
X374385Y378782D01*
X374483Y378758D01*
X374581Y378731D01*
X374677Y378700D01*
X374772Y378666D01*
X374866Y378627D01*
X374958Y378586D01*
X375049Y378540D01*
X375138Y378491D01*
X375224Y378439D01*
X375309Y378383D01*
X375391Y378324D01*
X375471Y378262D01*
X375549Y378197D01*
X375624Y378129D01*
X375696Y378058D01*
X375766Y377985D01*
X375832Y377908D01*
X375896Y377830D01*
X375956Y377748D01*
X376013Y377665D01*
X376067Y377579D01*
X376118Y377491D01*
X376165Y377402D01*
X376209Y377310D01*
X376249Y377217D01*
X376286Y377123D01*
X376318Y377027D01*
X376347Y376930D01*
X376373Y376832D01*
X376394Y376733D01*
X376412Y376633D01*
X376425Y376533D01*
X376435Y376432D01*
X376441Y376331D01*
X376443Y376230D01*
X376442Y376230D02*
X376442Y373619D01*
X376442Y376752D02*
X380619Y378840D01*
X380619Y383028D02*
X380619Y387205D01*
X380619Y383028D02*
X371221Y383028D01*
X371221Y387205D01*
X375398Y386161D02*
X375398Y383028D01*
X376964Y395595D02*
X376964Y401860D01*
X374354Y405958D02*
X376964Y412224D01*
X379575Y405958D01*
X129619Y36558D02*
X129619Y34469D01*
X129617Y34380D01*
X129611Y34292D01*
X129602Y34204D01*
X129589Y34116D01*
X129572Y34029D01*
X129552Y33943D01*
X129527Y33858D01*
X129500Y33773D01*
X129468Y33690D01*
X129434Y33609D01*
X129395Y33529D01*
X129354Y33451D01*
X129309Y33374D01*
X129261Y33300D01*
X129210Y33227D01*
X129156Y33157D01*
X129098Y33090D01*
X129038Y33024D01*
X128976Y32962D01*
X128910Y32902D01*
X128843Y32844D01*
X128773Y32790D01*
X128700Y32739D01*
X128626Y32691D01*
X128549Y32646D01*
X128471Y32605D01*
X128391Y32566D01*
X128310Y32532D01*
X128227Y32500D01*
X128142Y32473D01*
X128057Y32448D01*
X127971Y32428D01*
X127884Y32411D01*
X127796Y32398D01*
X127708Y32389D01*
X127620Y32383D01*
X127531Y32381D01*
X122309Y32381D01*
X122218Y32383D01*
X122127Y32389D01*
X122036Y32399D01*
X121946Y32413D01*
X121857Y32431D01*
X121768Y32452D01*
X121681Y32478D01*
X121595Y32507D01*
X121510Y32540D01*
X121426Y32577D01*
X121344Y32617D01*
X121265Y32661D01*
X121187Y32708D01*
X121111Y32759D01*
X121037Y32813D01*
X120966Y32870D01*
X120898Y32930D01*
X120832Y32993D01*
X120769Y33059D01*
X120709Y33127D01*
X120652Y33198D01*
X120598Y33272D01*
X120547Y33348D01*
X120500Y33425D01*
X120456Y33505D01*
X120416Y33587D01*
X120379Y33671D01*
X120346Y33755D01*
X120317Y33842D01*
X120291Y33929D01*
X120270Y34018D01*
X120252Y34107D01*
X120238Y34197D01*
X120228Y34288D01*
X120222Y34379D01*
X120220Y34470D01*
X120221Y34469D02*
X120221Y36558D01*
X120221Y40332D02*
X127008Y40332D01*
X127008Y40331D02*
X127109Y40333D01*
X127210Y40339D01*
X127311Y40349D01*
X127411Y40362D01*
X127511Y40380D01*
X127610Y40401D01*
X127708Y40427D01*
X127805Y40456D01*
X127901Y40488D01*
X127995Y40525D01*
X128088Y40565D01*
X128180Y40609D01*
X128269Y40656D01*
X128357Y40707D01*
X128443Y40761D01*
X128526Y40818D01*
X128608Y40878D01*
X128686Y40942D01*
X128763Y41008D01*
X128836Y41078D01*
X128907Y41150D01*
X128975Y41225D01*
X129040Y41303D01*
X129102Y41383D01*
X129161Y41465D01*
X129217Y41550D01*
X129269Y41636D01*
X129318Y41725D01*
X129364Y41816D01*
X129405Y41908D01*
X129444Y42002D01*
X129478Y42097D01*
X129509Y42193D01*
X129536Y42291D01*
X129560Y42389D01*
X129579Y42489D01*
X129595Y42589D01*
X129607Y42689D01*
X129615Y42790D01*
X129619Y42891D01*
X129619Y42993D01*
X129615Y43094D01*
X129607Y43195D01*
X129595Y43295D01*
X129579Y43395D01*
X129560Y43495D01*
X129536Y43593D01*
X129509Y43691D01*
X129478Y43787D01*
X129444Y43882D01*
X129405Y43976D01*
X129364Y44068D01*
X129318Y44159D01*
X129269Y44247D01*
X129217Y44334D01*
X129161Y44419D01*
X129102Y44501D01*
X129040Y44581D01*
X128975Y44659D01*
X128907Y44734D01*
X128836Y44806D01*
X128763Y44876D01*
X128686Y44942D01*
X128608Y45006D01*
X128526Y45066D01*
X128443Y45123D01*
X128357Y45177D01*
X128269Y45228D01*
X128180Y45275D01*
X128088Y45319D01*
X127995Y45359D01*
X127901Y45396D01*
X127805Y45428D01*
X127708Y45457D01*
X127610Y45483D01*
X127511Y45504D01*
X127411Y45522D01*
X127311Y45535D01*
X127210Y45545D01*
X127109Y45551D01*
X127008Y45553D01*
X120221Y45553D01*
X120221Y51781D02*
X129619Y51781D01*
X120221Y49171D02*
X120221Y54392D01*
X120221Y58010D02*
X129619Y58010D01*
X120221Y58010D02*
X120221Y60620D01*
X120223Y60720D01*
X120229Y60820D01*
X120238Y60919D01*
X120252Y61019D01*
X120269Y61117D01*
X120290Y61215D01*
X120314Y61312D01*
X120343Y61408D01*
X120375Y61503D01*
X120410Y61596D01*
X120449Y61688D01*
X120492Y61779D01*
X120538Y61867D01*
X120588Y61954D01*
X120640Y62039D01*
X120696Y62122D01*
X120755Y62203D01*
X120818Y62281D01*
X120883Y62357D01*
X120951Y62431D01*
X121021Y62501D01*
X121095Y62569D01*
X121171Y62634D01*
X121249Y62697D01*
X121330Y62756D01*
X121413Y62812D01*
X121498Y62864D01*
X121585Y62914D01*
X121673Y62960D01*
X121764Y63003D01*
X121856Y63042D01*
X121949Y63077D01*
X122044Y63109D01*
X122140Y63138D01*
X122237Y63162D01*
X122335Y63183D01*
X122433Y63200D01*
X122533Y63214D01*
X122632Y63223D01*
X122732Y63229D01*
X122832Y63231D01*
X127008Y63231D01*
X127108Y63229D01*
X127208Y63223D01*
X127307Y63214D01*
X127407Y63200D01*
X127505Y63183D01*
X127603Y63162D01*
X127700Y63138D01*
X127796Y63109D01*
X127891Y63077D01*
X127984Y63042D01*
X128076Y63003D01*
X128167Y62960D01*
X128255Y62914D01*
X128342Y62864D01*
X128427Y62812D01*
X128510Y62756D01*
X128591Y62697D01*
X128669Y62634D01*
X128745Y62569D01*
X128819Y62501D01*
X128889Y62431D01*
X128957Y62357D01*
X129022Y62281D01*
X129085Y62203D01*
X129144Y62122D01*
X129200Y62039D01*
X129252Y61954D01*
X129302Y61867D01*
X129348Y61779D01*
X129391Y61688D01*
X129430Y61596D01*
X129465Y61503D01*
X129497Y61408D01*
X129526Y61312D01*
X129550Y61215D01*
X129571Y61117D01*
X129588Y61019D01*
X129602Y60919D01*
X129611Y60820D01*
X129617Y60720D01*
X129619Y60620D01*
X129619Y58010D01*
X127008Y67459D02*
X122832Y67459D01*
X122832Y67458D02*
X122731Y67460D01*
X122630Y67466D01*
X122529Y67476D01*
X122429Y67489D01*
X122329Y67507D01*
X122230Y67528D01*
X122132Y67554D01*
X122035Y67583D01*
X121939Y67615D01*
X121845Y67652D01*
X121752Y67692D01*
X121660Y67736D01*
X121571Y67783D01*
X121483Y67834D01*
X121397Y67888D01*
X121314Y67945D01*
X121232Y68005D01*
X121154Y68069D01*
X121077Y68135D01*
X121004Y68205D01*
X120933Y68277D01*
X120865Y68352D01*
X120800Y68430D01*
X120738Y68510D01*
X120679Y68592D01*
X120623Y68677D01*
X120571Y68764D01*
X120522Y68852D01*
X120476Y68943D01*
X120435Y69035D01*
X120396Y69129D01*
X120362Y69224D01*
X120331Y69320D01*
X120304Y69418D01*
X120280Y69516D01*
X120261Y69616D01*
X120245Y69716D01*
X120233Y69816D01*
X120225Y69917D01*
X120221Y70018D01*
X120221Y70120D01*
X120225Y70221D01*
X120233Y70322D01*
X120245Y70422D01*
X120261Y70522D01*
X120280Y70622D01*
X120304Y70720D01*
X120331Y70818D01*
X120362Y70914D01*
X120396Y71009D01*
X120435Y71103D01*
X120476Y71195D01*
X120522Y71286D01*
X120571Y71375D01*
X120623Y71461D01*
X120679Y71546D01*
X120738Y71628D01*
X120800Y71708D01*
X120865Y71786D01*
X120933Y71861D01*
X121004Y71933D01*
X121077Y72003D01*
X121154Y72069D01*
X121232Y72133D01*
X121314Y72193D01*
X121397Y72250D01*
X121483Y72304D01*
X121571Y72355D01*
X121660Y72402D01*
X121752Y72446D01*
X121845Y72486D01*
X121939Y72523D01*
X122035Y72555D01*
X122132Y72584D01*
X122230Y72610D01*
X122329Y72631D01*
X122429Y72649D01*
X122529Y72662D01*
X122630Y72672D01*
X122731Y72678D01*
X122832Y72680D01*
X127008Y72680D01*
X127109Y72678D01*
X127210Y72672D01*
X127311Y72662D01*
X127411Y72649D01*
X127511Y72631D01*
X127610Y72610D01*
X127708Y72584D01*
X127805Y72555D01*
X127901Y72523D01*
X127995Y72486D01*
X128088Y72446D01*
X128180Y72402D01*
X128269Y72355D01*
X128357Y72304D01*
X128443Y72250D01*
X128526Y72193D01*
X128608Y72133D01*
X128686Y72069D01*
X128763Y72003D01*
X128836Y71933D01*
X128907Y71861D01*
X128975Y71786D01*
X129040Y71708D01*
X129102Y71628D01*
X129161Y71546D01*
X129217Y71461D01*
X129269Y71374D01*
X129318Y71286D01*
X129364Y71195D01*
X129405Y71103D01*
X129444Y71009D01*
X129478Y70914D01*
X129509Y70818D01*
X129536Y70720D01*
X129560Y70622D01*
X129579Y70522D01*
X129595Y70422D01*
X129607Y70322D01*
X129615Y70221D01*
X129619Y70120D01*
X129619Y70018D01*
X129615Y69917D01*
X129607Y69816D01*
X129595Y69716D01*
X129579Y69616D01*
X129560Y69516D01*
X129536Y69418D01*
X129509Y69320D01*
X129478Y69224D01*
X129444Y69129D01*
X129405Y69035D01*
X129364Y68943D01*
X129318Y68852D01*
X129269Y68763D01*
X129217Y68677D01*
X129161Y68592D01*
X129102Y68510D01*
X129040Y68430D01*
X128975Y68352D01*
X128907Y68277D01*
X128836Y68205D01*
X128763Y68135D01*
X128686Y68069D01*
X128608Y68005D01*
X128526Y67945D01*
X128443Y67888D01*
X128357Y67834D01*
X128269Y67783D01*
X128180Y67736D01*
X128088Y67692D01*
X127995Y67652D01*
X127901Y67615D01*
X127805Y67583D01*
X127708Y67554D01*
X127610Y67528D01*
X127511Y67507D01*
X127411Y67489D01*
X127311Y67476D01*
X127210Y67466D01*
X127109Y67460D01*
X127008Y67458D01*
X120221Y76256D02*
X129619Y78344D01*
X123354Y80432D01*
X129619Y82521D01*
X120221Y84609D01*
X120221Y88490D02*
X129619Y88490D01*
X129619Y93711D02*
X120221Y88490D01*
X120221Y93711D02*
X129619Y93711D01*
X129619Y102293D02*
X120221Y105426D01*
X129619Y108559D01*
X127270Y107775D02*
X127270Y103076D01*
X129619Y114787D02*
X129617Y114876D01*
X129611Y114964D01*
X129602Y115052D01*
X129589Y115140D01*
X129572Y115227D01*
X129552Y115313D01*
X129527Y115398D01*
X129500Y115483D01*
X129468Y115566D01*
X129434Y115647D01*
X129395Y115727D01*
X129354Y115805D01*
X129309Y115882D01*
X129261Y115956D01*
X129210Y116029D01*
X129156Y116099D01*
X129098Y116166D01*
X129038Y116232D01*
X128976Y116294D01*
X128910Y116354D01*
X128843Y116412D01*
X128773Y116466D01*
X128700Y116517D01*
X128626Y116565D01*
X128549Y116610D01*
X128471Y116651D01*
X128391Y116690D01*
X128310Y116724D01*
X128227Y116756D01*
X128142Y116783D01*
X128057Y116808D01*
X127971Y116828D01*
X127884Y116845D01*
X127796Y116858D01*
X127708Y116867D01*
X127620Y116873D01*
X127531Y116875D01*
X129619Y114787D02*
X129617Y114658D01*
X129611Y114529D01*
X129602Y114400D01*
X129589Y114272D01*
X129572Y114144D01*
X129551Y114017D01*
X129527Y113890D01*
X129499Y113764D01*
X129467Y113639D01*
X129432Y113515D01*
X129393Y113392D01*
X129350Y113270D01*
X129304Y113150D01*
X129254Y113031D01*
X129201Y112913D01*
X129145Y112797D01*
X129085Y112683D01*
X129022Y112570D01*
X128955Y112460D01*
X128886Y112351D01*
X128813Y112245D01*
X128737Y112140D01*
X128658Y112038D01*
X128576Y111939D01*
X128492Y111841D01*
X128404Y111746D01*
X128314Y111654D01*
X122309Y111916D02*
X122220Y111918D01*
X122132Y111924D01*
X122044Y111933D01*
X121956Y111946D01*
X121869Y111963D01*
X121783Y111983D01*
X121698Y112008D01*
X121613Y112035D01*
X121530Y112067D01*
X121449Y112101D01*
X121369Y112140D01*
X121291Y112181D01*
X121214Y112226D01*
X121140Y112274D01*
X121067Y112325D01*
X120997Y112379D01*
X120930Y112437D01*
X120864Y112497D01*
X120802Y112559D01*
X120742Y112625D01*
X120684Y112692D01*
X120630Y112762D01*
X120579Y112835D01*
X120531Y112909D01*
X120486Y112986D01*
X120445Y113064D01*
X120406Y113144D01*
X120372Y113225D01*
X120340Y113308D01*
X120313Y113393D01*
X120288Y113478D01*
X120268Y113564D01*
X120251Y113651D01*
X120238Y113739D01*
X120229Y113827D01*
X120223Y113915D01*
X120221Y114004D01*
X120223Y114124D01*
X120228Y114244D01*
X120238Y114363D01*
X120250Y114483D01*
X120267Y114602D01*
X120287Y114720D01*
X120311Y114838D01*
X120338Y114954D01*
X120369Y115070D01*
X120403Y115185D01*
X120441Y115299D01*
X120483Y115412D01*
X120528Y115523D01*
X120576Y115633D01*
X120627Y115741D01*
X120682Y115848D01*
X120740Y115953D01*
X120802Y116056D01*
X120866Y116157D01*
X120934Y116257D01*
X121004Y116354D01*
X124136Y112960D02*
X124088Y112882D01*
X124036Y112806D01*
X123982Y112733D01*
X123924Y112662D01*
X123863Y112593D01*
X123799Y112527D01*
X123732Y112464D01*
X123663Y112404D01*
X123591Y112347D01*
X123517Y112293D01*
X123440Y112243D01*
X123361Y112195D01*
X123281Y112152D01*
X123198Y112111D01*
X123114Y112075D01*
X123029Y112042D01*
X122942Y112013D01*
X122853Y111987D01*
X122764Y111965D01*
X122674Y111948D01*
X122584Y111934D01*
X122492Y111924D01*
X122401Y111918D01*
X122309Y111916D01*
X125704Y115832D02*
X125752Y115910D01*
X125804Y115986D01*
X125858Y116059D01*
X125916Y116130D01*
X125977Y116199D01*
X126041Y116265D01*
X126108Y116328D01*
X126177Y116388D01*
X126249Y116445D01*
X126323Y116499D01*
X126400Y116549D01*
X126479Y116597D01*
X126559Y116640D01*
X126642Y116681D01*
X126726Y116717D01*
X126811Y116750D01*
X126898Y116779D01*
X126987Y116805D01*
X127076Y116827D01*
X127166Y116844D01*
X127256Y116858D01*
X127348Y116868D01*
X127439Y116874D01*
X127531Y116876D01*
X125703Y115831D02*
X124137Y112960D01*
X129619Y123321D02*
X129617Y123410D01*
X129611Y123498D01*
X129602Y123586D01*
X129589Y123674D01*
X129572Y123761D01*
X129552Y123847D01*
X129527Y123932D01*
X129500Y124017D01*
X129468Y124100D01*
X129434Y124181D01*
X129395Y124261D01*
X129354Y124339D01*
X129309Y124416D01*
X129261Y124490D01*
X129210Y124563D01*
X129156Y124633D01*
X129098Y124700D01*
X129038Y124766D01*
X128976Y124828D01*
X128910Y124888D01*
X128843Y124946D01*
X128773Y125000D01*
X128700Y125051D01*
X128626Y125099D01*
X128549Y125144D01*
X128471Y125185D01*
X128391Y125224D01*
X128310Y125258D01*
X128227Y125290D01*
X128142Y125317D01*
X128057Y125342D01*
X127971Y125362D01*
X127884Y125379D01*
X127796Y125392D01*
X127708Y125401D01*
X127620Y125407D01*
X127531Y125409D01*
X129619Y123321D02*
X129617Y123192D01*
X129611Y123063D01*
X129602Y122934D01*
X129589Y122806D01*
X129572Y122678D01*
X129551Y122551D01*
X129527Y122424D01*
X129499Y122298D01*
X129467Y122173D01*
X129432Y122049D01*
X129393Y121926D01*
X129350Y121804D01*
X129304Y121684D01*
X129254Y121565D01*
X129201Y121447D01*
X129145Y121331D01*
X129085Y121217D01*
X129022Y121104D01*
X128955Y120994D01*
X128886Y120885D01*
X128813Y120779D01*
X128737Y120674D01*
X128658Y120572D01*
X128576Y120473D01*
X128492Y120375D01*
X128404Y120280D01*
X128314Y120188D01*
X122309Y120450D02*
X122220Y120452D01*
X122132Y120458D01*
X122044Y120467D01*
X121956Y120480D01*
X121869Y120497D01*
X121783Y120517D01*
X121698Y120542D01*
X121613Y120569D01*
X121530Y120601D01*
X121449Y120635D01*
X121369Y120674D01*
X121291Y120715D01*
X121214Y120760D01*
X121140Y120808D01*
X121067Y120859D01*
X120997Y120913D01*
X120930Y120971D01*
X120864Y121031D01*
X120802Y121093D01*
X120742Y121159D01*
X120684Y121226D01*
X120630Y121296D01*
X120579Y121369D01*
X120531Y121443D01*
X120486Y121520D01*
X120445Y121598D01*
X120406Y121678D01*
X120372Y121759D01*
X120340Y121842D01*
X120313Y121927D01*
X120288Y122012D01*
X120268Y122098D01*
X120251Y122185D01*
X120238Y122273D01*
X120229Y122361D01*
X120223Y122449D01*
X120221Y122538D01*
X120223Y122658D01*
X120228Y122778D01*
X120238Y122897D01*
X120250Y123017D01*
X120267Y123136D01*
X120287Y123254D01*
X120311Y123372D01*
X120338Y123488D01*
X120369Y123604D01*
X120403Y123719D01*
X120441Y123833D01*
X120483Y123946D01*
X120528Y124057D01*
X120576Y124167D01*
X120627Y124275D01*
X120682Y124382D01*
X120740Y124487D01*
X120802Y124590D01*
X120866Y124691D01*
X120934Y124791D01*
X121004Y124888D01*
X124136Y121494D02*
X124088Y121416D01*
X124036Y121340D01*
X123982Y121267D01*
X123924Y121196D01*
X123863Y121127D01*
X123799Y121061D01*
X123732Y120998D01*
X123663Y120938D01*
X123591Y120881D01*
X123517Y120827D01*
X123440Y120777D01*
X123361Y120729D01*
X123281Y120686D01*
X123198Y120645D01*
X123114Y120609D01*
X123029Y120576D01*
X122942Y120547D01*
X122853Y120521D01*
X122764Y120499D01*
X122674Y120482D01*
X122584Y120468D01*
X122492Y120458D01*
X122401Y120452D01*
X122309Y120450D01*
X125704Y124366D02*
X125752Y124444D01*
X125804Y124520D01*
X125858Y124593D01*
X125916Y124664D01*
X125977Y124733D01*
X126041Y124799D01*
X126108Y124862D01*
X126177Y124922D01*
X126249Y124979D01*
X126323Y125033D01*
X126400Y125083D01*
X126479Y125131D01*
X126559Y125174D01*
X126642Y125215D01*
X126726Y125251D01*
X126811Y125284D01*
X126898Y125313D01*
X126987Y125339D01*
X127076Y125361D01*
X127166Y125378D01*
X127256Y125392D01*
X127348Y125402D01*
X127439Y125408D01*
X127531Y125410D01*
X125703Y124366D02*
X124137Y121494D01*
X129619Y129350D02*
X129619Y133527D01*
X129619Y129350D02*
X120221Y129350D01*
X120221Y133527D01*
X124398Y132483D02*
X124398Y129350D01*
X120221Y137345D02*
X129619Y137345D01*
X125442Y140478D02*
X120221Y137345D01*
X125442Y140478D02*
X120221Y143610D01*
X129619Y143610D01*
X124398Y148362D02*
X124398Y150972D01*
X124397Y150972D02*
X124399Y151073D01*
X124405Y151174D01*
X124415Y151275D01*
X124428Y151375D01*
X124446Y151475D01*
X124467Y151574D01*
X124493Y151672D01*
X124522Y151769D01*
X124554Y151865D01*
X124591Y151959D01*
X124631Y152052D01*
X124675Y152144D01*
X124722Y152233D01*
X124773Y152321D01*
X124827Y152407D01*
X124884Y152490D01*
X124944Y152572D01*
X125008Y152650D01*
X125074Y152727D01*
X125144Y152800D01*
X125216Y152871D01*
X125291Y152939D01*
X125369Y153004D01*
X125449Y153066D01*
X125531Y153125D01*
X125616Y153181D01*
X125703Y153233D01*
X125791Y153282D01*
X125882Y153328D01*
X125974Y153369D01*
X126068Y153408D01*
X126163Y153442D01*
X126259Y153473D01*
X126357Y153500D01*
X126455Y153524D01*
X126555Y153543D01*
X126655Y153559D01*
X126755Y153571D01*
X126856Y153579D01*
X126957Y153583D01*
X127059Y153583D01*
X127160Y153579D01*
X127261Y153571D01*
X127361Y153559D01*
X127461Y153543D01*
X127561Y153524D01*
X127659Y153500D01*
X127757Y153473D01*
X127853Y153442D01*
X127948Y153408D01*
X128042Y153369D01*
X128134Y153328D01*
X128225Y153282D01*
X128314Y153233D01*
X128400Y153181D01*
X128485Y153125D01*
X128567Y153066D01*
X128647Y153004D01*
X128725Y152939D01*
X128800Y152871D01*
X128872Y152800D01*
X128942Y152727D01*
X129008Y152650D01*
X129072Y152572D01*
X129132Y152490D01*
X129189Y152407D01*
X129243Y152321D01*
X129294Y152233D01*
X129341Y152144D01*
X129385Y152052D01*
X129425Y151959D01*
X129462Y151865D01*
X129494Y151769D01*
X129523Y151672D01*
X129549Y151574D01*
X129570Y151475D01*
X129588Y151375D01*
X129601Y151275D01*
X129611Y151174D01*
X129617Y151073D01*
X129619Y150972D01*
X129619Y148362D01*
X120221Y148362D01*
X120221Y150972D01*
X120223Y151062D01*
X120229Y151151D01*
X120238Y151241D01*
X120252Y151330D01*
X120269Y151418D01*
X120290Y151505D01*
X120315Y151592D01*
X120344Y151677D01*
X120376Y151761D01*
X120411Y151843D01*
X120451Y151924D01*
X120493Y152003D01*
X120539Y152080D01*
X120589Y152155D01*
X120641Y152228D01*
X120697Y152299D01*
X120755Y152367D01*
X120817Y152432D01*
X120881Y152495D01*
X120948Y152555D01*
X121017Y152612D01*
X121089Y152666D01*
X121163Y152717D01*
X121239Y152765D01*
X121317Y152809D01*
X121397Y152850D01*
X121479Y152888D01*
X121562Y152922D01*
X121647Y152952D01*
X121733Y152979D01*
X121819Y153002D01*
X121907Y153021D01*
X121996Y153036D01*
X122085Y153048D01*
X122174Y153056D01*
X122264Y153060D01*
X122354Y153060D01*
X122444Y153056D01*
X122533Y153048D01*
X122622Y153036D01*
X122711Y153021D01*
X122799Y153002D01*
X122885Y152979D01*
X122971Y152952D01*
X123056Y152922D01*
X123139Y152888D01*
X123221Y152850D01*
X123301Y152809D01*
X123379Y152765D01*
X123455Y152717D01*
X123529Y152666D01*
X123601Y152612D01*
X123670Y152555D01*
X123737Y152495D01*
X123801Y152432D01*
X123863Y152367D01*
X123921Y152299D01*
X123977Y152228D01*
X124029Y152155D01*
X124079Y152080D01*
X124125Y152003D01*
X124167Y151924D01*
X124207Y151843D01*
X124242Y151761D01*
X124274Y151677D01*
X124303Y151592D01*
X124328Y151505D01*
X124349Y151418D01*
X124366Y151330D01*
X124380Y151241D01*
X124389Y151151D01*
X124395Y151062D01*
X124397Y150972D01*
X120221Y157392D02*
X129619Y157392D01*
X129619Y161569D01*
X124659Y167605D02*
X120221Y164472D01*
X124659Y167605D02*
X120221Y170737D01*
X124659Y167605D02*
X129619Y167605D01*
X128836Y178926D02*
X128314Y178926D01*
X128314Y179448D01*
X128836Y179448D01*
X128836Y178926D01*
X124659Y178926D02*
X124137Y178926D01*
X124137Y179448D01*
X124659Y179448D01*
X124659Y178926D01*
X120221Y190160D02*
X129619Y190160D01*
X120221Y187549D02*
X120221Y192770D01*
X129619Y196406D02*
X129619Y200583D01*
X129619Y196406D02*
X120221Y196406D01*
X120221Y200583D01*
X124398Y199539D02*
X124398Y196406D01*
X120221Y206009D02*
X129619Y206009D01*
X120221Y203399D02*
X120221Y208620D01*
X120221Y212238D02*
X129619Y212238D01*
X124398Y212238D02*
X124398Y217459D01*
X120221Y217459D02*
X129619Y217459D01*
X129619Y222009D02*
X129619Y226186D01*
X129619Y222009D02*
X120221Y222009D01*
X120221Y226186D01*
X124398Y225142D02*
X124398Y222009D01*
X120221Y229973D02*
X129619Y229973D01*
X120221Y229973D02*
X120221Y232584D01*
X120223Y232685D01*
X120229Y232786D01*
X120239Y232887D01*
X120252Y232987D01*
X120270Y233087D01*
X120291Y233186D01*
X120317Y233284D01*
X120346Y233381D01*
X120378Y233477D01*
X120415Y233571D01*
X120455Y233664D01*
X120499Y233756D01*
X120546Y233845D01*
X120597Y233933D01*
X120651Y234019D01*
X120708Y234102D01*
X120768Y234184D01*
X120832Y234262D01*
X120898Y234339D01*
X120968Y234412D01*
X121040Y234483D01*
X121115Y234551D01*
X121193Y234616D01*
X121273Y234678D01*
X121355Y234737D01*
X121440Y234793D01*
X121527Y234845D01*
X121615Y234894D01*
X121706Y234940D01*
X121798Y234981D01*
X121892Y235020D01*
X121987Y235054D01*
X122083Y235085D01*
X122181Y235112D01*
X122279Y235136D01*
X122379Y235155D01*
X122479Y235171D01*
X122579Y235183D01*
X122680Y235191D01*
X122781Y235195D01*
X122883Y235195D01*
X122984Y235191D01*
X123085Y235183D01*
X123185Y235171D01*
X123285Y235155D01*
X123385Y235136D01*
X123483Y235112D01*
X123581Y235085D01*
X123677Y235054D01*
X123772Y235020D01*
X123866Y234981D01*
X123958Y234940D01*
X124049Y234894D01*
X124138Y234845D01*
X124224Y234793D01*
X124309Y234737D01*
X124391Y234678D01*
X124471Y234616D01*
X124549Y234551D01*
X124624Y234483D01*
X124696Y234412D01*
X124766Y234339D01*
X124832Y234262D01*
X124896Y234184D01*
X124956Y234102D01*
X125013Y234019D01*
X125067Y233933D01*
X125118Y233845D01*
X125165Y233756D01*
X125209Y233664D01*
X125249Y233571D01*
X125286Y233477D01*
X125318Y233381D01*
X125347Y233284D01*
X125373Y233186D01*
X125394Y233087D01*
X125412Y232987D01*
X125425Y232887D01*
X125435Y232786D01*
X125441Y232685D01*
X125443Y232584D01*
X125442Y232584D02*
X125442Y229973D01*
X125442Y233106D02*
X129619Y235194D01*
X129619Y246000D02*
X129619Y248088D01*
X129619Y246000D02*
X129617Y245911D01*
X129611Y245823D01*
X129602Y245735D01*
X129589Y245647D01*
X129572Y245560D01*
X129552Y245474D01*
X129527Y245389D01*
X129500Y245304D01*
X129468Y245221D01*
X129434Y245140D01*
X129395Y245060D01*
X129354Y244982D01*
X129309Y244905D01*
X129261Y244831D01*
X129210Y244758D01*
X129156Y244688D01*
X129098Y244621D01*
X129038Y244555D01*
X128976Y244493D01*
X128910Y244433D01*
X128843Y244375D01*
X128773Y244321D01*
X128700Y244270D01*
X128626Y244222D01*
X128549Y244177D01*
X128471Y244136D01*
X128391Y244097D01*
X128310Y244063D01*
X128227Y244031D01*
X128142Y244004D01*
X128057Y243979D01*
X127971Y243959D01*
X127884Y243942D01*
X127796Y243929D01*
X127708Y243920D01*
X127620Y243914D01*
X127531Y243912D01*
X127531Y243911D02*
X122309Y243911D01*
X122218Y243913D01*
X122127Y243919D01*
X122036Y243929D01*
X121946Y243943D01*
X121857Y243961D01*
X121768Y243982D01*
X121681Y244008D01*
X121595Y244037D01*
X121510Y244070D01*
X121426Y244107D01*
X121344Y244147D01*
X121265Y244191D01*
X121187Y244238D01*
X121111Y244289D01*
X121037Y244343D01*
X120966Y244400D01*
X120898Y244460D01*
X120832Y244523D01*
X120769Y244589D01*
X120709Y244657D01*
X120652Y244728D01*
X120598Y244802D01*
X120547Y244878D01*
X120500Y244955D01*
X120456Y245035D01*
X120416Y245117D01*
X120379Y245201D01*
X120346Y245285D01*
X120317Y245372D01*
X120291Y245459D01*
X120270Y245548D01*
X120252Y245637D01*
X120238Y245727D01*
X120228Y245818D01*
X120222Y245909D01*
X120220Y246000D01*
X120221Y246000D02*
X120221Y248088D01*
X120221Y251862D02*
X127008Y251862D01*
X127008Y251861D02*
X127109Y251863D01*
X127210Y251869D01*
X127311Y251879D01*
X127411Y251892D01*
X127511Y251910D01*
X127610Y251931D01*
X127708Y251957D01*
X127805Y251986D01*
X127901Y252018D01*
X127995Y252055D01*
X128088Y252095D01*
X128180Y252139D01*
X128269Y252186D01*
X128357Y252237D01*
X128443Y252291D01*
X128526Y252348D01*
X128608Y252408D01*
X128686Y252472D01*
X128763Y252538D01*
X128836Y252608D01*
X128907Y252680D01*
X128975Y252755D01*
X129040Y252833D01*
X129102Y252913D01*
X129161Y252995D01*
X129217Y253080D01*
X129269Y253166D01*
X129318Y253255D01*
X129364Y253346D01*
X129405Y253438D01*
X129444Y253532D01*
X129478Y253627D01*
X129509Y253723D01*
X129536Y253821D01*
X129560Y253919D01*
X129579Y254019D01*
X129595Y254119D01*
X129607Y254219D01*
X129615Y254320D01*
X129619Y254421D01*
X129619Y254523D01*
X129615Y254624D01*
X129607Y254725D01*
X129595Y254825D01*
X129579Y254925D01*
X129560Y255025D01*
X129536Y255123D01*
X129509Y255221D01*
X129478Y255317D01*
X129444Y255412D01*
X129405Y255506D01*
X129364Y255598D01*
X129318Y255689D01*
X129269Y255777D01*
X129217Y255864D01*
X129161Y255949D01*
X129102Y256031D01*
X129040Y256111D01*
X128975Y256189D01*
X128907Y256264D01*
X128836Y256336D01*
X128763Y256406D01*
X128686Y256472D01*
X128608Y256536D01*
X128526Y256596D01*
X128443Y256653D01*
X128357Y256707D01*
X128269Y256758D01*
X128180Y256805D01*
X128088Y256849D01*
X127995Y256889D01*
X127901Y256926D01*
X127805Y256958D01*
X127708Y256987D01*
X127610Y257013D01*
X127511Y257034D01*
X127411Y257052D01*
X127311Y257065D01*
X127210Y257075D01*
X127109Y257081D01*
X127008Y257083D01*
X120221Y257083D01*
X120221Y263311D02*
X129619Y263311D01*
X120221Y260701D02*
X120221Y265922D01*
X120221Y269540D02*
X129619Y269540D01*
X120221Y269540D02*
X120221Y272151D01*
X120223Y272251D01*
X120229Y272351D01*
X120238Y272450D01*
X120252Y272550D01*
X120269Y272648D01*
X120290Y272746D01*
X120314Y272843D01*
X120343Y272939D01*
X120375Y273034D01*
X120410Y273127D01*
X120449Y273219D01*
X120492Y273310D01*
X120538Y273398D01*
X120588Y273485D01*
X120640Y273570D01*
X120696Y273653D01*
X120755Y273734D01*
X120818Y273812D01*
X120883Y273888D01*
X120951Y273962D01*
X121021Y274032D01*
X121095Y274100D01*
X121171Y274165D01*
X121249Y274228D01*
X121330Y274287D01*
X121413Y274343D01*
X121498Y274395D01*
X121585Y274445D01*
X121673Y274491D01*
X121764Y274534D01*
X121856Y274573D01*
X121949Y274608D01*
X122044Y274640D01*
X122140Y274669D01*
X122237Y274693D01*
X122335Y274714D01*
X122433Y274731D01*
X122533Y274745D01*
X122632Y274754D01*
X122732Y274760D01*
X122832Y274762D01*
X122832Y274761D02*
X127008Y274761D01*
X127008Y274762D02*
X127108Y274760D01*
X127208Y274754D01*
X127307Y274745D01*
X127407Y274731D01*
X127505Y274714D01*
X127603Y274693D01*
X127700Y274669D01*
X127796Y274640D01*
X127891Y274608D01*
X127984Y274573D01*
X128076Y274534D01*
X128167Y274491D01*
X128255Y274445D01*
X128342Y274395D01*
X128427Y274343D01*
X128510Y274287D01*
X128591Y274228D01*
X128669Y274165D01*
X128745Y274100D01*
X128819Y274032D01*
X128889Y273962D01*
X128957Y273888D01*
X129022Y273812D01*
X129085Y273734D01*
X129144Y273653D01*
X129200Y273570D01*
X129252Y273485D01*
X129302Y273398D01*
X129348Y273310D01*
X129391Y273219D01*
X129430Y273127D01*
X129465Y273034D01*
X129497Y272939D01*
X129526Y272843D01*
X129550Y272746D01*
X129571Y272648D01*
X129588Y272550D01*
X129602Y272450D01*
X129611Y272351D01*
X129617Y272251D01*
X129619Y272151D01*
X129619Y269540D01*
X127008Y278989D02*
X122832Y278989D01*
X122832Y278988D02*
X122731Y278990D01*
X122630Y278996D01*
X122529Y279006D01*
X122429Y279019D01*
X122329Y279037D01*
X122230Y279058D01*
X122132Y279084D01*
X122035Y279113D01*
X121939Y279145D01*
X121845Y279182D01*
X121752Y279222D01*
X121660Y279266D01*
X121571Y279313D01*
X121483Y279364D01*
X121397Y279418D01*
X121314Y279475D01*
X121232Y279535D01*
X121154Y279599D01*
X121077Y279665D01*
X121004Y279735D01*
X120933Y279807D01*
X120865Y279882D01*
X120800Y279960D01*
X120738Y280040D01*
X120679Y280122D01*
X120623Y280207D01*
X120571Y280294D01*
X120522Y280382D01*
X120476Y280473D01*
X120435Y280565D01*
X120396Y280659D01*
X120362Y280754D01*
X120331Y280850D01*
X120304Y280948D01*
X120280Y281046D01*
X120261Y281146D01*
X120245Y281246D01*
X120233Y281346D01*
X120225Y281447D01*
X120221Y281548D01*
X120221Y281650D01*
X120225Y281751D01*
X120233Y281852D01*
X120245Y281952D01*
X120261Y282052D01*
X120280Y282152D01*
X120304Y282250D01*
X120331Y282348D01*
X120362Y282444D01*
X120396Y282539D01*
X120435Y282633D01*
X120476Y282725D01*
X120522Y282816D01*
X120571Y282905D01*
X120623Y282991D01*
X120679Y283076D01*
X120738Y283158D01*
X120800Y283238D01*
X120865Y283316D01*
X120933Y283391D01*
X121004Y283463D01*
X121077Y283533D01*
X121154Y283599D01*
X121232Y283663D01*
X121314Y283723D01*
X121397Y283780D01*
X121483Y283834D01*
X121571Y283885D01*
X121660Y283932D01*
X121752Y283976D01*
X121845Y284016D01*
X121939Y284053D01*
X122035Y284085D01*
X122132Y284114D01*
X122230Y284140D01*
X122329Y284161D01*
X122429Y284179D01*
X122529Y284192D01*
X122630Y284202D01*
X122731Y284208D01*
X122832Y284210D01*
X127008Y284210D01*
X127109Y284208D01*
X127210Y284202D01*
X127311Y284192D01*
X127411Y284179D01*
X127511Y284161D01*
X127610Y284140D01*
X127708Y284114D01*
X127805Y284085D01*
X127901Y284053D01*
X127995Y284016D01*
X128088Y283976D01*
X128180Y283932D01*
X128269Y283885D01*
X128357Y283834D01*
X128443Y283780D01*
X128526Y283723D01*
X128608Y283663D01*
X128686Y283599D01*
X128763Y283533D01*
X128836Y283463D01*
X128907Y283391D01*
X128975Y283316D01*
X129040Y283238D01*
X129102Y283158D01*
X129161Y283076D01*
X129217Y282991D01*
X129269Y282904D01*
X129318Y282816D01*
X129364Y282725D01*
X129405Y282633D01*
X129444Y282539D01*
X129478Y282444D01*
X129509Y282348D01*
X129536Y282250D01*
X129560Y282152D01*
X129579Y282052D01*
X129595Y281952D01*
X129607Y281852D01*
X129615Y281751D01*
X129619Y281650D01*
X129619Y281548D01*
X129615Y281447D01*
X129607Y281346D01*
X129595Y281246D01*
X129579Y281146D01*
X129560Y281046D01*
X129536Y280948D01*
X129509Y280850D01*
X129478Y280754D01*
X129444Y280659D01*
X129405Y280565D01*
X129364Y280473D01*
X129318Y280382D01*
X129269Y280294D01*
X129217Y280207D01*
X129161Y280122D01*
X129102Y280040D01*
X129040Y279960D01*
X128975Y279882D01*
X128907Y279807D01*
X128836Y279735D01*
X128763Y279665D01*
X128686Y279599D01*
X128608Y279535D01*
X128526Y279475D01*
X128443Y279418D01*
X128357Y279364D01*
X128269Y279313D01*
X128180Y279266D01*
X128088Y279222D01*
X127995Y279182D01*
X127901Y279145D01*
X127805Y279113D01*
X127708Y279084D01*
X127610Y279058D01*
X127511Y279037D01*
X127411Y279019D01*
X127311Y279006D01*
X127210Y278996D01*
X127109Y278990D01*
X127008Y278988D01*
X120221Y287786D02*
X129619Y289874D01*
X123354Y291963D01*
X129619Y294051D01*
X120221Y296139D01*
X120221Y300020D02*
X129619Y300020D01*
X129619Y305241D02*
X120221Y300020D01*
X120221Y305241D02*
X129619Y305241D01*
X124398Y318305D02*
X124398Y319871D01*
X129619Y319871D01*
X129619Y316739D01*
X129617Y316650D01*
X129611Y316562D01*
X129602Y316474D01*
X129589Y316386D01*
X129572Y316299D01*
X129552Y316213D01*
X129527Y316128D01*
X129500Y316043D01*
X129468Y315960D01*
X129434Y315879D01*
X129395Y315799D01*
X129354Y315721D01*
X129309Y315644D01*
X129261Y315570D01*
X129210Y315497D01*
X129156Y315427D01*
X129098Y315360D01*
X129038Y315294D01*
X128976Y315232D01*
X128910Y315172D01*
X128843Y315114D01*
X128773Y315060D01*
X128700Y315009D01*
X128626Y314961D01*
X128549Y314916D01*
X128471Y314875D01*
X128391Y314836D01*
X128310Y314802D01*
X128227Y314770D01*
X128142Y314743D01*
X128057Y314718D01*
X127971Y314698D01*
X127884Y314681D01*
X127796Y314668D01*
X127708Y314659D01*
X127620Y314653D01*
X127531Y314651D01*
X127531Y314650D02*
X122309Y314650D01*
X122218Y314652D01*
X122127Y314658D01*
X122036Y314668D01*
X121946Y314682D01*
X121857Y314700D01*
X121768Y314721D01*
X121681Y314747D01*
X121595Y314776D01*
X121510Y314809D01*
X121426Y314846D01*
X121344Y314886D01*
X121265Y314930D01*
X121187Y314977D01*
X121111Y315028D01*
X121037Y315082D01*
X120966Y315139D01*
X120898Y315199D01*
X120832Y315262D01*
X120769Y315328D01*
X120709Y315396D01*
X120652Y315467D01*
X120598Y315541D01*
X120547Y315617D01*
X120500Y315694D01*
X120456Y315774D01*
X120416Y315856D01*
X120379Y315940D01*
X120346Y316024D01*
X120317Y316111D01*
X120291Y316198D01*
X120270Y316287D01*
X120252Y316376D01*
X120238Y316466D01*
X120228Y316557D01*
X120222Y316648D01*
X120220Y316739D01*
X120221Y316739D02*
X120221Y319871D01*
X122832Y324099D02*
X127008Y324099D01*
X122832Y324099D02*
X122731Y324101D01*
X122630Y324107D01*
X122529Y324117D01*
X122429Y324130D01*
X122329Y324148D01*
X122230Y324169D01*
X122132Y324195D01*
X122035Y324224D01*
X121939Y324256D01*
X121845Y324293D01*
X121752Y324333D01*
X121660Y324377D01*
X121571Y324424D01*
X121483Y324475D01*
X121397Y324529D01*
X121314Y324586D01*
X121232Y324646D01*
X121154Y324710D01*
X121077Y324776D01*
X121004Y324846D01*
X120933Y324918D01*
X120865Y324993D01*
X120800Y325071D01*
X120738Y325151D01*
X120679Y325233D01*
X120623Y325318D01*
X120571Y325405D01*
X120522Y325493D01*
X120476Y325584D01*
X120435Y325676D01*
X120396Y325770D01*
X120362Y325865D01*
X120331Y325961D01*
X120304Y326059D01*
X120280Y326157D01*
X120261Y326257D01*
X120245Y326357D01*
X120233Y326457D01*
X120225Y326558D01*
X120221Y326659D01*
X120221Y326761D01*
X120225Y326862D01*
X120233Y326963D01*
X120245Y327063D01*
X120261Y327163D01*
X120280Y327263D01*
X120304Y327361D01*
X120331Y327459D01*
X120362Y327555D01*
X120396Y327650D01*
X120435Y327744D01*
X120476Y327836D01*
X120522Y327927D01*
X120571Y328016D01*
X120623Y328102D01*
X120679Y328187D01*
X120738Y328269D01*
X120800Y328349D01*
X120865Y328427D01*
X120933Y328502D01*
X121004Y328574D01*
X121077Y328644D01*
X121154Y328710D01*
X121232Y328774D01*
X121314Y328834D01*
X121397Y328891D01*
X121483Y328945D01*
X121571Y328996D01*
X121660Y329043D01*
X121752Y329087D01*
X121845Y329127D01*
X121939Y329164D01*
X122035Y329196D01*
X122132Y329225D01*
X122230Y329251D01*
X122329Y329272D01*
X122429Y329290D01*
X122529Y329303D01*
X122630Y329313D01*
X122731Y329319D01*
X122832Y329321D01*
X122832Y329320D02*
X127008Y329320D01*
X127008Y329321D02*
X127109Y329319D01*
X127210Y329313D01*
X127311Y329303D01*
X127411Y329290D01*
X127511Y329272D01*
X127610Y329251D01*
X127708Y329225D01*
X127805Y329196D01*
X127901Y329164D01*
X127995Y329127D01*
X128088Y329087D01*
X128180Y329043D01*
X128269Y328996D01*
X128357Y328945D01*
X128443Y328891D01*
X128526Y328834D01*
X128608Y328774D01*
X128686Y328710D01*
X128763Y328644D01*
X128836Y328574D01*
X128907Y328502D01*
X128975Y328427D01*
X129040Y328349D01*
X129102Y328269D01*
X129161Y328187D01*
X129217Y328102D01*
X129269Y328015D01*
X129318Y327927D01*
X129364Y327836D01*
X129405Y327744D01*
X129444Y327650D01*
X129478Y327555D01*
X129509Y327459D01*
X129536Y327361D01*
X129560Y327263D01*
X129579Y327163D01*
X129595Y327063D01*
X129607Y326963D01*
X129615Y326862D01*
X129619Y326761D01*
X129619Y326659D01*
X129615Y326558D01*
X129607Y326457D01*
X129595Y326357D01*
X129579Y326257D01*
X129560Y326157D01*
X129536Y326059D01*
X129509Y325961D01*
X129478Y325865D01*
X129444Y325770D01*
X129405Y325676D01*
X129364Y325584D01*
X129318Y325493D01*
X129269Y325405D01*
X129217Y325318D01*
X129161Y325233D01*
X129102Y325151D01*
X129040Y325071D01*
X128975Y324993D01*
X128907Y324918D01*
X128836Y324846D01*
X128763Y324776D01*
X128686Y324710D01*
X128608Y324646D01*
X128526Y324586D01*
X128443Y324529D01*
X128357Y324475D01*
X128269Y324424D01*
X128180Y324377D01*
X128088Y324333D01*
X127995Y324293D01*
X127901Y324256D01*
X127805Y324224D01*
X127708Y324195D01*
X127610Y324169D01*
X127511Y324148D01*
X127411Y324130D01*
X127311Y324117D01*
X127210Y324107D01*
X127109Y324101D01*
X127008Y324099D01*
X129619Y333565D02*
X129619Y337742D01*
X129619Y333565D02*
X120221Y333565D01*
X120221Y337742D01*
X124398Y336698D02*
X124398Y333565D01*
X129619Y343996D02*
X129617Y344085D01*
X129611Y344173D01*
X129602Y344261D01*
X129589Y344349D01*
X129572Y344436D01*
X129552Y344522D01*
X129527Y344607D01*
X129500Y344692D01*
X129468Y344775D01*
X129434Y344856D01*
X129395Y344936D01*
X129354Y345014D01*
X129309Y345091D01*
X129261Y345165D01*
X129210Y345238D01*
X129156Y345308D01*
X129098Y345375D01*
X129038Y345441D01*
X128976Y345503D01*
X128910Y345563D01*
X128843Y345621D01*
X128773Y345675D01*
X128700Y345726D01*
X128626Y345774D01*
X128549Y345819D01*
X128471Y345860D01*
X128391Y345899D01*
X128310Y345933D01*
X128227Y345965D01*
X128142Y345992D01*
X128057Y346017D01*
X127971Y346037D01*
X127884Y346054D01*
X127796Y346067D01*
X127708Y346076D01*
X127620Y346082D01*
X127531Y346084D01*
X129619Y343996D02*
X129617Y343867D01*
X129611Y343738D01*
X129602Y343609D01*
X129589Y343481D01*
X129572Y343353D01*
X129551Y343226D01*
X129527Y343099D01*
X129499Y342973D01*
X129467Y342848D01*
X129432Y342724D01*
X129393Y342601D01*
X129350Y342479D01*
X129304Y342359D01*
X129254Y342240D01*
X129201Y342122D01*
X129145Y342006D01*
X129085Y341892D01*
X129022Y341779D01*
X128955Y341669D01*
X128886Y341560D01*
X128813Y341454D01*
X128737Y341349D01*
X128658Y341247D01*
X128576Y341148D01*
X128492Y341050D01*
X128404Y340955D01*
X128314Y340863D01*
X122309Y341125D02*
X122220Y341127D01*
X122132Y341133D01*
X122044Y341142D01*
X121956Y341155D01*
X121869Y341172D01*
X121783Y341192D01*
X121698Y341217D01*
X121613Y341244D01*
X121530Y341276D01*
X121449Y341310D01*
X121369Y341349D01*
X121291Y341390D01*
X121214Y341435D01*
X121140Y341483D01*
X121067Y341534D01*
X120997Y341588D01*
X120930Y341646D01*
X120864Y341706D01*
X120802Y341768D01*
X120742Y341834D01*
X120684Y341901D01*
X120630Y341971D01*
X120579Y342044D01*
X120531Y342118D01*
X120486Y342195D01*
X120445Y342273D01*
X120406Y342353D01*
X120372Y342434D01*
X120340Y342517D01*
X120313Y342602D01*
X120288Y342687D01*
X120268Y342773D01*
X120251Y342860D01*
X120238Y342948D01*
X120229Y343036D01*
X120223Y343124D01*
X120221Y343213D01*
X120223Y343333D01*
X120228Y343453D01*
X120238Y343572D01*
X120250Y343692D01*
X120267Y343811D01*
X120287Y343929D01*
X120311Y344047D01*
X120338Y344163D01*
X120369Y344279D01*
X120403Y344394D01*
X120441Y344508D01*
X120483Y344621D01*
X120528Y344732D01*
X120576Y344842D01*
X120627Y344950D01*
X120682Y345057D01*
X120740Y345162D01*
X120802Y345265D01*
X120866Y345366D01*
X120934Y345466D01*
X121004Y345563D01*
X124136Y342168D02*
X124088Y342090D01*
X124036Y342014D01*
X123982Y341941D01*
X123924Y341870D01*
X123863Y341801D01*
X123799Y341735D01*
X123732Y341672D01*
X123663Y341612D01*
X123591Y341555D01*
X123517Y341501D01*
X123440Y341451D01*
X123361Y341403D01*
X123281Y341360D01*
X123198Y341319D01*
X123114Y341283D01*
X123029Y341250D01*
X122942Y341221D01*
X122853Y341195D01*
X122764Y341173D01*
X122674Y341156D01*
X122584Y341142D01*
X122492Y341132D01*
X122401Y341126D01*
X122309Y341124D01*
X125704Y345040D02*
X125752Y345118D01*
X125804Y345194D01*
X125858Y345267D01*
X125916Y345338D01*
X125977Y345407D01*
X126041Y345473D01*
X126108Y345536D01*
X126177Y345596D01*
X126249Y345653D01*
X126323Y345707D01*
X126400Y345757D01*
X126479Y345805D01*
X126559Y345848D01*
X126642Y345889D01*
X126726Y345925D01*
X126811Y345958D01*
X126898Y345987D01*
X126987Y346013D01*
X127076Y346035D01*
X127166Y346052D01*
X127256Y346066D01*
X127348Y346076D01*
X127439Y346082D01*
X127531Y346084D01*
X125703Y345040D02*
X124137Y342168D01*
X120221Y354884D02*
X129619Y354884D01*
X124398Y354884D02*
X124398Y360105D01*
X120221Y360105D02*
X129619Y360105D01*
X129619Y364655D02*
X129619Y368832D01*
X129619Y364655D02*
X120221Y364655D01*
X120221Y368832D01*
X124398Y367787D02*
X124398Y364655D01*
X120221Y372619D02*
X129619Y372619D01*
X120221Y372619D02*
X120221Y375230D01*
X120223Y375331D01*
X120229Y375432D01*
X120239Y375533D01*
X120252Y375633D01*
X120270Y375733D01*
X120291Y375832D01*
X120317Y375930D01*
X120346Y376027D01*
X120378Y376123D01*
X120415Y376217D01*
X120455Y376310D01*
X120499Y376402D01*
X120546Y376491D01*
X120597Y376579D01*
X120651Y376665D01*
X120708Y376748D01*
X120768Y376830D01*
X120832Y376908D01*
X120898Y376985D01*
X120968Y377058D01*
X121040Y377129D01*
X121115Y377197D01*
X121193Y377262D01*
X121273Y377324D01*
X121355Y377383D01*
X121440Y377439D01*
X121527Y377491D01*
X121615Y377540D01*
X121706Y377586D01*
X121798Y377627D01*
X121892Y377666D01*
X121987Y377700D01*
X122083Y377731D01*
X122181Y377758D01*
X122279Y377782D01*
X122379Y377801D01*
X122479Y377817D01*
X122579Y377829D01*
X122680Y377837D01*
X122781Y377841D01*
X122883Y377841D01*
X122984Y377837D01*
X123085Y377829D01*
X123185Y377817D01*
X123285Y377801D01*
X123385Y377782D01*
X123483Y377758D01*
X123581Y377731D01*
X123677Y377700D01*
X123772Y377666D01*
X123866Y377627D01*
X123958Y377586D01*
X124049Y377540D01*
X124138Y377491D01*
X124224Y377439D01*
X124309Y377383D01*
X124391Y377324D01*
X124471Y377262D01*
X124549Y377197D01*
X124624Y377129D01*
X124696Y377058D01*
X124766Y376985D01*
X124832Y376908D01*
X124896Y376830D01*
X124956Y376748D01*
X125013Y376665D01*
X125067Y376579D01*
X125118Y376491D01*
X125165Y376402D01*
X125209Y376310D01*
X125249Y376217D01*
X125286Y376123D01*
X125318Y376027D01*
X125347Y375930D01*
X125373Y375832D01*
X125394Y375733D01*
X125412Y375633D01*
X125425Y375533D01*
X125435Y375432D01*
X125441Y375331D01*
X125443Y375230D01*
X125442Y375230D02*
X125442Y372619D01*
X125442Y375752D02*
X129619Y377840D01*
X129619Y382028D02*
X129619Y386205D01*
X129619Y382028D02*
X120221Y382028D01*
X120221Y386205D01*
X124398Y385161D02*
X124398Y382028D01*
X125964Y394595D02*
X125964Y400860D01*
X123354Y404958D02*
X125964Y411224D01*
X128575Y404958D01*
D11*
X269885Y425141D02*
X269885Y475141D01*
X479885Y475141D02*
X479885Y425141D01*
X349885Y345141D02*
X349885Y150141D01*
X399885Y150141D02*
X399885Y345141D01*
X349885Y555141D02*
X349885Y755141D01*
X399885Y750141D02*
X399885Y555141D01*
X399885Y750141D02*
X399885Y755141D01*
X319885Y780141D02*
X318677Y780156D01*
X317469Y780199D01*
X316263Y780272D01*
X315059Y780374D01*
X313858Y780506D01*
X312661Y780666D01*
X311467Y780855D01*
X310279Y781072D01*
X309096Y781319D01*
X307919Y781594D01*
X306750Y781897D01*
X305588Y782229D01*
X304434Y782588D01*
X303290Y782975D01*
X302155Y783390D01*
X301030Y783832D01*
X299917Y784301D01*
X298815Y784797D01*
X297725Y785320D01*
X296649Y785868D01*
X295586Y786443D01*
X294537Y787043D01*
X293503Y787668D01*
X292484Y788317D01*
X291482Y788992D01*
X290496Y789690D01*
X289527Y790412D01*
X288576Y791157D01*
X287643Y791925D01*
X286729Y792715D01*
X285834Y793528D01*
X284959Y794361D01*
X284105Y795215D01*
X283272Y796090D01*
X282459Y796985D01*
X281669Y797899D01*
X280901Y798832D01*
X280156Y799783D01*
X279434Y800752D01*
X278736Y801738D01*
X278061Y802740D01*
X277412Y803759D01*
X276787Y804793D01*
X276187Y805842D01*
X275612Y806905D01*
X275064Y807981D01*
X274541Y809071D01*
X274045Y810173D01*
X273576Y811286D01*
X273134Y812411D01*
X272719Y813546D01*
X272332Y814690D01*
X271973Y815844D01*
X271641Y817006D01*
X271338Y818175D01*
X271063Y819352D01*
X270816Y820535D01*
X270599Y821723D01*
X270410Y822917D01*
X270250Y824114D01*
X270118Y825315D01*
X270016Y826519D01*
X269943Y827725D01*
X269900Y828933D01*
X269885Y830141D01*
X319885Y780141D02*
X320617Y780138D01*
X321349Y780117D01*
X322080Y780079D01*
X322810Y780023D01*
X323538Y779949D01*
X324264Y779858D01*
X324988Y779749D01*
X325709Y779622D01*
X326427Y779478D01*
X327141Y779317D01*
X327851Y779138D01*
X328557Y778943D01*
X329257Y778730D01*
X329952Y778500D01*
X330642Y778254D01*
X331325Y777991D01*
X332001Y777711D01*
X332671Y777415D01*
X333333Y777103D01*
X333988Y776775D01*
X334634Y776432D01*
X335272Y776072D01*
X335901Y775698D01*
X336521Y775308D01*
X337131Y774903D01*
X337731Y774484D01*
X338321Y774050D01*
X338900Y773602D01*
X339468Y773140D01*
X340024Y772665D01*
X340569Y772176D01*
X341102Y771674D01*
X341623Y771160D01*
X342131Y770633D01*
X342626Y770093D01*
X343108Y769542D01*
X343577Y768980D01*
X344031Y768406D01*
X344472Y767821D01*
X344898Y767226D01*
X345310Y766621D01*
X345707Y766006D01*
X346089Y765381D01*
X346455Y764747D01*
X346807Y764105D01*
X347142Y763455D01*
X347462Y762796D01*
X347766Y762130D01*
X348053Y761456D01*
X348324Y760776D01*
X348579Y760090D01*
X348816Y759398D01*
X349037Y758700D01*
X349241Y757997D01*
X349428Y757289D01*
X349598Y756577D01*
X349750Y755860D01*
X349885Y755141D01*
X429885Y780141D02*
X431093Y780156D01*
X432301Y780199D01*
X433507Y780272D01*
X434711Y780374D01*
X435912Y780506D01*
X437109Y780666D01*
X438303Y780855D01*
X439491Y781072D01*
X440674Y781319D01*
X441851Y781594D01*
X443020Y781897D01*
X444182Y782229D01*
X445336Y782588D01*
X446480Y782975D01*
X447615Y783390D01*
X448740Y783832D01*
X449853Y784301D01*
X450955Y784797D01*
X452045Y785320D01*
X453121Y785868D01*
X454184Y786443D01*
X455233Y787043D01*
X456267Y787668D01*
X457286Y788317D01*
X458288Y788992D01*
X459274Y789690D01*
X460243Y790412D01*
X461194Y791157D01*
X462127Y791925D01*
X463041Y792715D01*
X463936Y793528D01*
X464811Y794361D01*
X465665Y795215D01*
X466498Y796090D01*
X467311Y796985D01*
X468101Y797899D01*
X468869Y798832D01*
X469614Y799783D01*
X470336Y800752D01*
X471034Y801738D01*
X471709Y802740D01*
X472358Y803759D01*
X472983Y804793D01*
X473583Y805842D01*
X474158Y806905D01*
X474706Y807981D01*
X475229Y809071D01*
X475725Y810173D01*
X476194Y811286D01*
X476636Y812411D01*
X477051Y813546D01*
X477438Y814690D01*
X477797Y815844D01*
X478129Y817006D01*
X478432Y818175D01*
X478707Y819352D01*
X478954Y820535D01*
X479171Y821723D01*
X479360Y822917D01*
X479520Y824114D01*
X479652Y825315D01*
X479754Y826519D01*
X479827Y827725D01*
X479870Y828933D01*
X479885Y830141D01*
X429885Y780141D02*
X429215Y780193D01*
X428544Y780230D01*
X427872Y780250D01*
X427201Y780253D01*
X426529Y780241D01*
X425857Y780212D01*
X425187Y780166D01*
X424518Y780105D01*
X423850Y780027D01*
X423185Y779933D01*
X422522Y779822D01*
X421862Y779696D01*
X421206Y779554D01*
X420553Y779395D01*
X419904Y779221D01*
X419259Y779031D01*
X418619Y778826D01*
X417985Y778605D01*
X417356Y778368D01*
X416733Y778117D01*
X416116Y777850D01*
X415506Y777568D01*
X414903Y777272D01*
X414307Y776961D01*
X413719Y776635D01*
X413140Y776296D01*
X412568Y775942D01*
X412006Y775575D01*
X411452Y775194D01*
X410908Y774799D01*
X410374Y774392D01*
X409850Y773972D01*
X409336Y773539D01*
X408833Y773093D01*
X408341Y772636D01*
X407860Y772166D01*
X407390Y771685D01*
X406933Y771193D01*
X406487Y770690D01*
X406054Y770176D01*
X405634Y769652D01*
X405227Y769118D01*
X404832Y768574D01*
X404451Y768020D01*
X404084Y767458D01*
X403730Y766886D01*
X403391Y766307D01*
X403065Y765719D01*
X402754Y765123D01*
X402458Y764520D01*
X402176Y763910D01*
X401909Y763293D01*
X401658Y762670D01*
X401421Y762041D01*
X401200Y761407D01*
X400995Y760767D01*
X400805Y760122D01*
X400631Y759473D01*
X400472Y758820D01*
X400330Y758164D01*
X400204Y757504D01*
X400093Y756841D01*
X399999Y756176D01*
X399921Y755508D01*
X399860Y754839D01*
X399814Y754169D01*
X399785Y753497D01*
X399773Y752825D01*
X399776Y752154D01*
X399796Y751482D01*
X399833Y750811D01*
X399885Y750141D01*
X319885Y120141D02*
X318677Y120126D01*
X317469Y120083D01*
X316263Y120010D01*
X315059Y119908D01*
X313858Y119776D01*
X312661Y119616D01*
X311467Y119427D01*
X310279Y119210D01*
X309096Y118963D01*
X307919Y118688D01*
X306750Y118385D01*
X305588Y118053D01*
X304434Y117694D01*
X303290Y117307D01*
X302155Y116892D01*
X301030Y116450D01*
X299917Y115981D01*
X298815Y115485D01*
X297725Y114962D01*
X296649Y114414D01*
X295586Y113839D01*
X294537Y113239D01*
X293503Y112614D01*
X292484Y111965D01*
X291482Y111290D01*
X290496Y110592D01*
X289527Y109870D01*
X288576Y109125D01*
X287643Y108357D01*
X286729Y107567D01*
X285834Y106754D01*
X284959Y105921D01*
X284105Y105067D01*
X283272Y104192D01*
X282459Y103297D01*
X281669Y102383D01*
X280901Y101450D01*
X280156Y100499D01*
X279434Y99530D01*
X278736Y98544D01*
X278061Y97542D01*
X277412Y96523D01*
X276787Y95489D01*
X276187Y94440D01*
X275612Y93377D01*
X275064Y92301D01*
X274541Y91211D01*
X274045Y90109D01*
X273576Y88996D01*
X273134Y87871D01*
X272719Y86736D01*
X272332Y85592D01*
X271973Y84438D01*
X271641Y83276D01*
X271338Y82107D01*
X271063Y80930D01*
X270816Y79747D01*
X270599Y78559D01*
X270410Y77365D01*
X270250Y76168D01*
X270118Y74967D01*
X270016Y73763D01*
X269943Y72557D01*
X269900Y71349D01*
X269885Y70141D01*
X319885Y120141D02*
X320610Y120150D01*
X321334Y120176D01*
X322058Y120220D01*
X322780Y120281D01*
X323501Y120360D01*
X324220Y120456D01*
X324936Y120569D01*
X325649Y120700D01*
X326359Y120848D01*
X327064Y121013D01*
X327766Y121195D01*
X328463Y121394D01*
X329156Y121609D01*
X329842Y121842D01*
X330523Y122091D01*
X331198Y122356D01*
X331866Y122637D01*
X332527Y122935D01*
X333181Y123248D01*
X333827Y123577D01*
X334465Y123922D01*
X335094Y124282D01*
X335714Y124657D01*
X336325Y125047D01*
X336927Y125451D01*
X337519Y125870D01*
X338100Y126304D01*
X338671Y126751D01*
X339230Y127212D01*
X339779Y127686D01*
X340315Y128173D01*
X340840Y128673D01*
X341353Y129186D01*
X341853Y129711D01*
X342340Y130247D01*
X342814Y130796D01*
X343275Y131355D01*
X343722Y131926D01*
X344156Y132507D01*
X344575Y133099D01*
X344979Y133701D01*
X345369Y134312D01*
X345744Y134932D01*
X346104Y135561D01*
X346449Y136199D01*
X346778Y136845D01*
X347091Y137499D01*
X347389Y138160D01*
X347670Y138828D01*
X347935Y139503D01*
X348184Y140184D01*
X348417Y140870D01*
X348632Y141563D01*
X348831Y142260D01*
X349013Y142962D01*
X349178Y143667D01*
X349326Y144377D01*
X349457Y145090D01*
X349570Y145806D01*
X349666Y146525D01*
X349745Y147246D01*
X349806Y147968D01*
X349850Y148692D01*
X349876Y149416D01*
X349885Y150141D01*
X429885Y120141D02*
X431093Y120126D01*
X432301Y120083D01*
X433507Y120010D01*
X434711Y119908D01*
X435912Y119776D01*
X437109Y119616D01*
X438303Y119427D01*
X439491Y119210D01*
X440674Y118963D01*
X441851Y118688D01*
X443020Y118385D01*
X444182Y118053D01*
X445336Y117694D01*
X446480Y117307D01*
X447615Y116892D01*
X448740Y116450D01*
X449853Y115981D01*
X450955Y115485D01*
X452045Y114962D01*
X453121Y114414D01*
X454184Y113839D01*
X455233Y113239D01*
X456267Y112614D01*
X457286Y111965D01*
X458288Y111290D01*
X459274Y110592D01*
X460243Y109870D01*
X461194Y109125D01*
X462127Y108357D01*
X463041Y107567D01*
X463936Y106754D01*
X464811Y105921D01*
X465665Y105067D01*
X466498Y104192D01*
X467311Y103297D01*
X468101Y102383D01*
X468869Y101450D01*
X469614Y100499D01*
X470336Y99530D01*
X471034Y98544D01*
X471709Y97542D01*
X472358Y96523D01*
X472983Y95489D01*
X473583Y94440D01*
X474158Y93377D01*
X474706Y92301D01*
X475229Y91211D01*
X475725Y90109D01*
X476194Y88996D01*
X476636Y87871D01*
X477051Y86736D01*
X477438Y85592D01*
X477797Y84438D01*
X478129Y83276D01*
X478432Y82107D01*
X478707Y80930D01*
X478954Y79747D01*
X479171Y78559D01*
X479360Y77365D01*
X479520Y76168D01*
X479652Y74967D01*
X479754Y73763D01*
X479827Y72557D01*
X479870Y71349D01*
X479885Y70141D01*
X429885Y120141D02*
X429160Y120150D01*
X428436Y120176D01*
X427712Y120220D01*
X426990Y120281D01*
X426269Y120360D01*
X425550Y120456D01*
X424834Y120569D01*
X424121Y120700D01*
X423411Y120848D01*
X422706Y121013D01*
X422004Y121195D01*
X421307Y121394D01*
X420614Y121609D01*
X419928Y121842D01*
X419247Y122091D01*
X418572Y122356D01*
X417904Y122637D01*
X417243Y122935D01*
X416589Y123248D01*
X415943Y123577D01*
X415305Y123922D01*
X414676Y124282D01*
X414056Y124657D01*
X413445Y125047D01*
X412843Y125451D01*
X412251Y125870D01*
X411670Y126304D01*
X411099Y126751D01*
X410540Y127212D01*
X409991Y127686D01*
X409455Y128173D01*
X408930Y128673D01*
X408417Y129186D01*
X407917Y129711D01*
X407430Y130247D01*
X406956Y130796D01*
X406495Y131355D01*
X406048Y131926D01*
X405614Y132507D01*
X405195Y133099D01*
X404791Y133701D01*
X404401Y134312D01*
X404026Y134932D01*
X403666Y135561D01*
X403321Y136199D01*
X402992Y136845D01*
X402679Y137499D01*
X402381Y138160D01*
X402100Y138828D01*
X401835Y139503D01*
X401586Y140184D01*
X401353Y140870D01*
X401138Y141563D01*
X400939Y142260D01*
X400757Y142962D01*
X400592Y143667D01*
X400444Y144377D01*
X400313Y145090D01*
X400200Y145806D01*
X400104Y146525D01*
X400025Y147246D01*
X399964Y147968D01*
X399920Y148692D01*
X399894Y149416D01*
X399885Y150141D01*
X349885Y345141D02*
X349876Y345866D01*
X349850Y346590D01*
X349806Y347314D01*
X349745Y348036D01*
X349666Y348757D01*
X349570Y349476D01*
X349457Y350192D01*
X349326Y350905D01*
X349178Y351615D01*
X349013Y352320D01*
X348831Y353022D01*
X348632Y353719D01*
X348417Y354412D01*
X348184Y355098D01*
X347935Y355779D01*
X347670Y356454D01*
X347389Y357122D01*
X347091Y357783D01*
X346778Y358437D01*
X346449Y359083D01*
X346104Y359721D01*
X345744Y360350D01*
X345369Y360970D01*
X344979Y361581D01*
X344575Y362183D01*
X344156Y362775D01*
X343722Y363356D01*
X343275Y363927D01*
X342814Y364486D01*
X342340Y365035D01*
X341853Y365571D01*
X341353Y366096D01*
X340840Y366609D01*
X340315Y367109D01*
X339779Y367596D01*
X339230Y368070D01*
X338671Y368531D01*
X338100Y368978D01*
X337519Y369412D01*
X336927Y369831D01*
X336325Y370235D01*
X335714Y370625D01*
X335094Y371000D01*
X334465Y371360D01*
X333827Y371705D01*
X333181Y372034D01*
X332527Y372347D01*
X331866Y372645D01*
X331198Y372926D01*
X330523Y373191D01*
X329842Y373440D01*
X329156Y373673D01*
X328463Y373888D01*
X327766Y374087D01*
X327064Y374269D01*
X326359Y374434D01*
X325649Y374582D01*
X324936Y374713D01*
X324220Y374826D01*
X323501Y374922D01*
X322780Y375001D01*
X322058Y375062D01*
X321334Y375106D01*
X320610Y375132D01*
X319885Y375141D01*
X399885Y345141D02*
X399894Y345866D01*
X399920Y346590D01*
X399964Y347314D01*
X400025Y348036D01*
X400104Y348757D01*
X400200Y349476D01*
X400313Y350192D01*
X400444Y350905D01*
X400592Y351615D01*
X400757Y352320D01*
X400939Y353022D01*
X401138Y353719D01*
X401353Y354412D01*
X401586Y355098D01*
X401835Y355779D01*
X402100Y356454D01*
X402381Y357122D01*
X402679Y357783D01*
X402992Y358437D01*
X403321Y359083D01*
X403666Y359721D01*
X404026Y360350D01*
X404401Y360970D01*
X404791Y361581D01*
X405195Y362183D01*
X405614Y362775D01*
X406048Y363356D01*
X406495Y363927D01*
X406956Y364486D01*
X407430Y365035D01*
X407917Y365571D01*
X408417Y366096D01*
X408930Y366609D01*
X409455Y367109D01*
X409991Y367596D01*
X410540Y368070D01*
X411099Y368531D01*
X411670Y368978D01*
X412251Y369412D01*
X412843Y369831D01*
X413445Y370235D01*
X414056Y370625D01*
X414676Y371000D01*
X415305Y371360D01*
X415943Y371705D01*
X416589Y372034D01*
X417243Y372347D01*
X417904Y372645D01*
X418572Y372926D01*
X419247Y373191D01*
X419928Y373440D01*
X420614Y373673D01*
X421307Y373888D01*
X422004Y374087D01*
X422706Y374269D01*
X423411Y374434D01*
X424121Y374582D01*
X424834Y374713D01*
X425550Y374826D01*
X426269Y374922D01*
X426990Y375001D01*
X427712Y375062D01*
X428436Y375106D01*
X429160Y375132D01*
X429885Y375141D01*
X429885Y525141D02*
X429160Y525150D01*
X428436Y525176D01*
X427712Y525220D01*
X426990Y525281D01*
X426269Y525360D01*
X425550Y525456D01*
X424834Y525569D01*
X424121Y525700D01*
X423411Y525848D01*
X422706Y526013D01*
X422004Y526195D01*
X421307Y526394D01*
X420614Y526609D01*
X419928Y526842D01*
X419247Y527091D01*
X418572Y527356D01*
X417904Y527637D01*
X417243Y527935D01*
X416589Y528248D01*
X415943Y528577D01*
X415305Y528922D01*
X414676Y529282D01*
X414056Y529657D01*
X413445Y530047D01*
X412843Y530451D01*
X412251Y530870D01*
X411670Y531304D01*
X411099Y531751D01*
X410540Y532212D01*
X409991Y532686D01*
X409455Y533173D01*
X408930Y533673D01*
X408417Y534186D01*
X407917Y534711D01*
X407430Y535247D01*
X406956Y535796D01*
X406495Y536355D01*
X406048Y536926D01*
X405614Y537507D01*
X405195Y538099D01*
X404791Y538701D01*
X404401Y539312D01*
X404026Y539932D01*
X403666Y540561D01*
X403321Y541199D01*
X402992Y541845D01*
X402679Y542499D01*
X402381Y543160D01*
X402100Y543828D01*
X401835Y544503D01*
X401586Y545184D01*
X401353Y545870D01*
X401138Y546563D01*
X400939Y547260D01*
X400757Y547962D01*
X400592Y548667D01*
X400444Y549377D01*
X400313Y550090D01*
X400200Y550806D01*
X400104Y551525D01*
X400025Y552246D01*
X399964Y552968D01*
X399920Y553692D01*
X399894Y554416D01*
X399885Y555141D01*
X349885Y555141D02*
X349876Y554416D01*
X349850Y553692D01*
X349806Y552968D01*
X349745Y552246D01*
X349666Y551525D01*
X349570Y550806D01*
X349457Y550090D01*
X349326Y549377D01*
X349178Y548667D01*
X349013Y547962D01*
X348831Y547260D01*
X348632Y546563D01*
X348417Y545870D01*
X348184Y545184D01*
X347935Y544503D01*
X347670Y543828D01*
X347389Y543160D01*
X347091Y542499D01*
X346778Y541845D01*
X346449Y541199D01*
X346104Y540561D01*
X345744Y539932D01*
X345369Y539312D01*
X344979Y538701D01*
X344575Y538099D01*
X344156Y537507D01*
X343722Y536926D01*
X343275Y536355D01*
X342814Y535796D01*
X342340Y535247D01*
X341853Y534711D01*
X341353Y534186D01*
X340840Y533673D01*
X340315Y533173D01*
X339779Y532686D01*
X339230Y532212D01*
X338671Y531751D01*
X338100Y531304D01*
X337519Y530870D01*
X336927Y530451D01*
X336325Y530047D01*
X335714Y529657D01*
X335094Y529282D01*
X334465Y528922D01*
X333827Y528577D01*
X333181Y528248D01*
X332527Y527935D01*
X331866Y527637D01*
X331198Y527356D01*
X330523Y527091D01*
X329842Y526842D01*
X329156Y526609D01*
X328463Y526394D01*
X327766Y526195D01*
X327064Y526013D01*
X326359Y525848D01*
X325649Y525700D01*
X324936Y525569D01*
X324220Y525456D01*
X323501Y525360D01*
X322780Y525281D01*
X322058Y525220D01*
X321334Y525176D01*
X320610Y525150D01*
X319885Y525141D01*
X269885Y425141D02*
X269900Y423933D01*
X269943Y422725D01*
X270016Y421519D01*
X270118Y420315D01*
X270250Y419114D01*
X270410Y417917D01*
X270599Y416723D01*
X270816Y415535D01*
X271063Y414352D01*
X271338Y413175D01*
X271641Y412006D01*
X271973Y410844D01*
X272332Y409690D01*
X272719Y408546D01*
X273134Y407411D01*
X273576Y406286D01*
X274045Y405173D01*
X274541Y404071D01*
X275064Y402981D01*
X275612Y401905D01*
X276187Y400842D01*
X276787Y399793D01*
X277412Y398759D01*
X278061Y397740D01*
X278736Y396738D01*
X279434Y395752D01*
X280156Y394783D01*
X280901Y393832D01*
X281669Y392899D01*
X282459Y391985D01*
X283272Y391090D01*
X284105Y390215D01*
X284959Y389361D01*
X285834Y388528D01*
X286729Y387715D01*
X287643Y386925D01*
X288576Y386157D01*
X289527Y385412D01*
X290496Y384690D01*
X291482Y383992D01*
X292484Y383317D01*
X293503Y382668D01*
X294537Y382043D01*
X295586Y381443D01*
X296649Y380868D01*
X297725Y380320D01*
X298815Y379797D01*
X299917Y379301D01*
X301030Y378832D01*
X302155Y378390D01*
X303290Y377975D01*
X304434Y377588D01*
X305588Y377229D01*
X306750Y376897D01*
X307919Y376594D01*
X309096Y376319D01*
X310279Y376072D01*
X311467Y375855D01*
X312661Y375666D01*
X313858Y375506D01*
X315059Y375374D01*
X316263Y375272D01*
X317469Y375199D01*
X318677Y375156D01*
X319885Y375141D01*
X429885Y375141D02*
X431093Y375156D01*
X432301Y375199D01*
X433507Y375272D01*
X434711Y375374D01*
X435912Y375506D01*
X437109Y375666D01*
X438303Y375855D01*
X439491Y376072D01*
X440674Y376319D01*
X441851Y376594D01*
X443020Y376897D01*
X444182Y377229D01*
X445336Y377588D01*
X446480Y377975D01*
X447615Y378390D01*
X448740Y378832D01*
X449853Y379301D01*
X450955Y379797D01*
X452045Y380320D01*
X453121Y380868D01*
X454184Y381443D01*
X455233Y382043D01*
X456267Y382668D01*
X457286Y383317D01*
X458288Y383992D01*
X459274Y384690D01*
X460243Y385412D01*
X461194Y386157D01*
X462127Y386925D01*
X463041Y387715D01*
X463936Y388528D01*
X464811Y389361D01*
X465665Y390215D01*
X466498Y391090D01*
X467311Y391985D01*
X468101Y392899D01*
X468869Y393832D01*
X469614Y394783D01*
X470336Y395752D01*
X471034Y396738D01*
X471709Y397740D01*
X472358Y398759D01*
X472983Y399793D01*
X473583Y400842D01*
X474158Y401905D01*
X474706Y402981D01*
X475229Y404071D01*
X475725Y405173D01*
X476194Y406286D01*
X476636Y407411D01*
X477051Y408546D01*
X477438Y409690D01*
X477797Y410844D01*
X478129Y412006D01*
X478432Y413175D01*
X478707Y414352D01*
X478954Y415535D01*
X479171Y416723D01*
X479360Y417917D01*
X479520Y419114D01*
X479652Y420315D01*
X479754Y421519D01*
X479827Y422725D01*
X479870Y423933D01*
X479885Y425141D01*
X479885Y475141D02*
X479870Y476349D01*
X479827Y477557D01*
X479754Y478763D01*
X479652Y479967D01*
X479520Y481168D01*
X479360Y482365D01*
X479171Y483559D01*
X478954Y484747D01*
X478707Y485930D01*
X478432Y487107D01*
X478129Y488276D01*
X477797Y489438D01*
X477438Y490592D01*
X477051Y491736D01*
X476636Y492871D01*
X476194Y493996D01*
X475725Y495109D01*
X475229Y496211D01*
X474706Y497301D01*
X474158Y498377D01*
X473583Y499440D01*
X472983Y500489D01*
X472358Y501523D01*
X471709Y502542D01*
X471034Y503544D01*
X470336Y504530D01*
X469614Y505499D01*
X468869Y506450D01*
X468101Y507383D01*
X467311Y508297D01*
X466498Y509192D01*
X465665Y510067D01*
X464811Y510921D01*
X463936Y511754D01*
X463041Y512567D01*
X462127Y513357D01*
X461194Y514125D01*
X460243Y514870D01*
X459274Y515592D01*
X458288Y516290D01*
X457286Y516965D01*
X456267Y517614D01*
X455233Y518239D01*
X454184Y518839D01*
X453121Y519414D01*
X452045Y519962D01*
X450955Y520485D01*
X449853Y520981D01*
X448740Y521450D01*
X447615Y521892D01*
X446480Y522307D01*
X445336Y522694D01*
X444182Y523053D01*
X443020Y523385D01*
X441851Y523688D01*
X440674Y523963D01*
X439491Y524210D01*
X438303Y524427D01*
X437109Y524616D01*
X435912Y524776D01*
X434711Y524908D01*
X433507Y525010D01*
X432301Y525083D01*
X431093Y525126D01*
X429885Y525141D01*
X319885Y525141D02*
X318677Y525126D01*
X317469Y525083D01*
X316263Y525010D01*
X315059Y524908D01*
X313858Y524776D01*
X312661Y524616D01*
X311467Y524427D01*
X310279Y524210D01*
X309096Y523963D01*
X307919Y523688D01*
X306750Y523385D01*
X305588Y523053D01*
X304434Y522694D01*
X303290Y522307D01*
X302155Y521892D01*
X301030Y521450D01*
X299917Y520981D01*
X298815Y520485D01*
X297725Y519962D01*
X296649Y519414D01*
X295586Y518839D01*
X294537Y518239D01*
X293503Y517614D01*
X292484Y516965D01*
X291482Y516290D01*
X290496Y515592D01*
X289527Y514870D01*
X288576Y514125D01*
X287643Y513357D01*
X286729Y512567D01*
X285834Y511754D01*
X284959Y510921D01*
X284105Y510067D01*
X283272Y509192D01*
X282459Y508297D01*
X281669Y507383D01*
X280901Y506450D01*
X280156Y505499D01*
X279434Y504530D01*
X278736Y503544D01*
X278061Y502542D01*
X277412Y501523D01*
X276787Y500489D01*
X276187Y499440D01*
X275612Y498377D01*
X275064Y497301D01*
X274541Y496211D01*
X274045Y495109D01*
X273576Y493996D01*
X273134Y492871D01*
X272719Y491736D01*
X272332Y490592D01*
X271973Y489438D01*
X271641Y488276D01*
X271338Y487107D01*
X271063Y485930D01*
X270816Y484747D01*
X270599Y483559D01*
X270410Y482365D01*
X270250Y481168D01*
X270118Y479967D01*
X270016Y478763D01*
X269943Y477557D01*
X269900Y476349D01*
X269885Y475141D01*
X319885Y880141D02*
X429885Y880141D01*
X319885Y880141D02*
X318677Y880126D01*
X317469Y880083D01*
X316263Y880010D01*
X315059Y879908D01*
X313858Y879776D01*
X312661Y879616D01*
X311467Y879427D01*
X310279Y879210D01*
X309096Y878963D01*
X307919Y878688D01*
X306750Y878385D01*
X305588Y878053D01*
X304434Y877694D01*
X303290Y877307D01*
X302155Y876892D01*
X301030Y876450D01*
X299917Y875981D01*
X298815Y875485D01*
X297725Y874962D01*
X296649Y874414D01*
X295586Y873839D01*
X294537Y873239D01*
X293503Y872614D01*
X292484Y871965D01*
X291482Y871290D01*
X290496Y870592D01*
X289527Y869870D01*
X288576Y869125D01*
X287643Y868357D01*
X286729Y867567D01*
X285834Y866754D01*
X284959Y865921D01*
X284105Y865067D01*
X283272Y864192D01*
X282459Y863297D01*
X281669Y862383D01*
X280901Y861450D01*
X280156Y860499D01*
X279434Y859530D01*
X278736Y858544D01*
X278061Y857542D01*
X277412Y856523D01*
X276787Y855489D01*
X276187Y854440D01*
X275612Y853377D01*
X275064Y852301D01*
X274541Y851211D01*
X274045Y850109D01*
X273576Y848996D01*
X273134Y847871D01*
X272719Y846736D01*
X272332Y845592D01*
X271973Y844438D01*
X271641Y843276D01*
X271338Y842107D01*
X271063Y840930D01*
X270816Y839747D01*
X270599Y838559D01*
X270410Y837365D01*
X270250Y836168D01*
X270118Y834967D01*
X270016Y833763D01*
X269943Y832557D01*
X269900Y831349D01*
X269885Y830141D01*
X429885Y880141D02*
X431093Y880126D01*
X432301Y880083D01*
X433507Y880010D01*
X434711Y879908D01*
X435912Y879776D01*
X437109Y879616D01*
X438303Y879427D01*
X439491Y879210D01*
X440674Y878963D01*
X441851Y878688D01*
X443020Y878385D01*
X444182Y878053D01*
X445336Y877694D01*
X446480Y877307D01*
X447615Y876892D01*
X448740Y876450D01*
X449853Y875981D01*
X450955Y875485D01*
X452045Y874962D01*
X453121Y874414D01*
X454184Y873839D01*
X455233Y873239D01*
X456267Y872614D01*
X457286Y871965D01*
X458288Y871290D01*
X459274Y870592D01*
X460243Y869870D01*
X461194Y869125D01*
X462127Y868357D01*
X463041Y867567D01*
X463936Y866754D01*
X464811Y865921D01*
X465665Y865067D01*
X466498Y864192D01*
X467311Y863297D01*
X468101Y862383D01*
X468869Y861450D01*
X469614Y860499D01*
X470336Y859530D01*
X471034Y858544D01*
X471709Y857542D01*
X472358Y856523D01*
X472983Y855489D01*
X473583Y854440D01*
X474158Y853377D01*
X474706Y852301D01*
X475229Y851211D01*
X475725Y850109D01*
X476194Y848996D01*
X476636Y847871D01*
X477051Y846736D01*
X477438Y845592D01*
X477797Y844438D01*
X478129Y843276D01*
X478432Y842107D01*
X478707Y840930D01*
X478954Y839747D01*
X479171Y838559D01*
X479360Y837365D01*
X479520Y836168D01*
X479652Y834967D01*
X479754Y833763D01*
X479827Y832557D01*
X479870Y831349D01*
X479885Y830141D01*
X429885Y20141D02*
X319885Y20141D01*
X318677Y20156D01*
X317469Y20199D01*
X316263Y20272D01*
X315059Y20374D01*
X313858Y20506D01*
X312661Y20666D01*
X311467Y20855D01*
X310279Y21072D01*
X309096Y21319D01*
X307919Y21594D01*
X306750Y21897D01*
X305588Y22229D01*
X304434Y22588D01*
X303290Y22975D01*
X302155Y23390D01*
X301030Y23832D01*
X299917Y24301D01*
X298815Y24797D01*
X297725Y25320D01*
X296649Y25868D01*
X295586Y26443D01*
X294537Y27043D01*
X293503Y27668D01*
X292484Y28317D01*
X291482Y28992D01*
X290496Y29690D01*
X289527Y30412D01*
X288576Y31157D01*
X287643Y31925D01*
X286729Y32715D01*
X285834Y33528D01*
X284959Y34361D01*
X284105Y35215D01*
X283272Y36090D01*
X282459Y36985D01*
X281669Y37899D01*
X280901Y38832D01*
X280156Y39783D01*
X279434Y40752D01*
X278736Y41738D01*
X278061Y42740D01*
X277412Y43759D01*
X276787Y44793D01*
X276187Y45842D01*
X275612Y46905D01*
X275064Y47981D01*
X274541Y49071D01*
X274045Y50173D01*
X273576Y51286D01*
X273134Y52411D01*
X272719Y53546D01*
X272332Y54690D01*
X271973Y55844D01*
X271641Y57006D01*
X271338Y58175D01*
X271063Y59352D01*
X270816Y60535D01*
X270599Y61723D01*
X270410Y62917D01*
X270250Y64114D01*
X270118Y65315D01*
X270016Y66519D01*
X269943Y67725D01*
X269900Y68933D01*
X269885Y70141D01*
X429885Y20141D02*
X431093Y20156D01*
X432301Y20199D01*
X433507Y20272D01*
X434711Y20374D01*
X435912Y20506D01*
X437109Y20666D01*
X438303Y20855D01*
X439491Y21072D01*
X440674Y21319D01*
X441851Y21594D01*
X443020Y21897D01*
X444182Y22229D01*
X445336Y22588D01*
X446480Y22975D01*
X447615Y23390D01*
X448740Y23832D01*
X449853Y24301D01*
X450955Y24797D01*
X452045Y25320D01*
X453121Y25868D01*
X454184Y26443D01*
X455233Y27043D01*
X456267Y27668D01*
X457286Y28317D01*
X458288Y28992D01*
X459274Y29690D01*
X460243Y30412D01*
X461194Y31157D01*
X462127Y31925D01*
X463041Y32715D01*
X463936Y33528D01*
X464811Y34361D01*
X465665Y35215D01*
X466498Y36090D01*
X467311Y36985D01*
X468101Y37899D01*
X468869Y38832D01*
X469614Y39783D01*
X470336Y40752D01*
X471034Y41738D01*
X471709Y42740D01*
X472358Y43759D01*
X472983Y44793D01*
X473583Y45842D01*
X474158Y46905D01*
X474706Y47981D01*
X475229Y49071D01*
X475725Y50173D01*
X476194Y51286D01*
X476636Y52411D01*
X477051Y53546D01*
X477438Y54690D01*
X477797Y55844D01*
X478129Y57006D01*
X478432Y58175D01*
X478707Y59352D01*
X478954Y60535D01*
X479171Y61723D01*
X479360Y62917D01*
X479520Y64114D01*
X479652Y65315D01*
X479754Y66519D01*
X479827Y67725D01*
X479870Y68933D01*
X479885Y70141D01*
D12*
X344151Y498833D02*
X330774Y498833D01*
X337463Y492145D02*
X337463Y505522D01*
X395774Y503800D02*
X404692Y503800D01*
D11*
X499885Y900141D02*
X249885Y900141D01*
X499885Y900141D02*
X499885Y141D01*
X249885Y141D01*
X249885Y900141D01*
X19850Y475090D02*
X19850Y425090D01*
X229850Y425090D02*
X229850Y475090D01*
X99850Y345090D02*
X99850Y150090D01*
X149850Y150090D02*
X149850Y345090D01*
X99850Y555090D02*
X99850Y755090D01*
X149850Y750090D02*
X149850Y555090D01*
X149850Y750090D02*
X149850Y755090D01*
X69850Y780090D02*
X68642Y780105D01*
X67434Y780148D01*
X66228Y780221D01*
X65024Y780323D01*
X63823Y780455D01*
X62626Y780615D01*
X61432Y780804D01*
X60244Y781021D01*
X59061Y781268D01*
X57884Y781543D01*
X56715Y781846D01*
X55553Y782178D01*
X54399Y782537D01*
X53255Y782924D01*
X52120Y783339D01*
X50995Y783781D01*
X49882Y784250D01*
X48780Y784746D01*
X47690Y785269D01*
X46614Y785817D01*
X45551Y786392D01*
X44502Y786992D01*
X43468Y787617D01*
X42449Y788266D01*
X41447Y788941D01*
X40461Y789639D01*
X39492Y790361D01*
X38541Y791106D01*
X37608Y791874D01*
X36694Y792664D01*
X35799Y793477D01*
X34924Y794310D01*
X34070Y795164D01*
X33237Y796039D01*
X32424Y796934D01*
X31634Y797848D01*
X30866Y798781D01*
X30121Y799732D01*
X29399Y800701D01*
X28701Y801687D01*
X28026Y802689D01*
X27377Y803708D01*
X26752Y804742D01*
X26152Y805791D01*
X25577Y806854D01*
X25029Y807930D01*
X24506Y809020D01*
X24010Y810122D01*
X23541Y811235D01*
X23099Y812360D01*
X22684Y813495D01*
X22297Y814639D01*
X21938Y815793D01*
X21606Y816955D01*
X21303Y818124D01*
X21028Y819301D01*
X20781Y820484D01*
X20564Y821672D01*
X20375Y822866D01*
X20215Y824063D01*
X20083Y825264D01*
X19981Y826468D01*
X19908Y827674D01*
X19865Y828882D01*
X19850Y830090D01*
X69850Y780090D02*
X70582Y780087D01*
X71314Y780066D01*
X72045Y780028D01*
X72775Y779972D01*
X73503Y779898D01*
X74229Y779807D01*
X74953Y779698D01*
X75674Y779571D01*
X76392Y779427D01*
X77106Y779266D01*
X77816Y779087D01*
X78522Y778892D01*
X79222Y778679D01*
X79917Y778449D01*
X80607Y778203D01*
X81290Y777940D01*
X81966Y777660D01*
X82636Y777364D01*
X83298Y777052D01*
X83953Y776724D01*
X84599Y776381D01*
X85237Y776021D01*
X85866Y775647D01*
X86486Y775257D01*
X87096Y774852D01*
X87696Y774433D01*
X88286Y773999D01*
X88865Y773551D01*
X89433Y773089D01*
X89989Y772614D01*
X90534Y772125D01*
X91067Y771623D01*
X91588Y771109D01*
X92096Y770582D01*
X92591Y770042D01*
X93073Y769491D01*
X93542Y768929D01*
X93996Y768355D01*
X94437Y767770D01*
X94863Y767175D01*
X95275Y766570D01*
X95672Y765955D01*
X96054Y765330D01*
X96420Y764696D01*
X96772Y764054D01*
X97107Y763404D01*
X97427Y762745D01*
X97731Y762079D01*
X98018Y761405D01*
X98289Y760725D01*
X98544Y760039D01*
X98781Y759347D01*
X99002Y758649D01*
X99206Y757946D01*
X99393Y757238D01*
X99563Y756526D01*
X99715Y755809D01*
X99850Y755090D01*
X179850Y780090D02*
X181058Y780105D01*
X182266Y780148D01*
X183472Y780221D01*
X184676Y780323D01*
X185877Y780455D01*
X187074Y780615D01*
X188268Y780804D01*
X189456Y781021D01*
X190639Y781268D01*
X191816Y781543D01*
X192985Y781846D01*
X194147Y782178D01*
X195301Y782537D01*
X196445Y782924D01*
X197580Y783339D01*
X198705Y783781D01*
X199818Y784250D01*
X200920Y784746D01*
X202010Y785269D01*
X203086Y785817D01*
X204149Y786392D01*
X205198Y786992D01*
X206232Y787617D01*
X207251Y788266D01*
X208253Y788941D01*
X209239Y789639D01*
X210208Y790361D01*
X211159Y791106D01*
X212092Y791874D01*
X213006Y792664D01*
X213901Y793477D01*
X214776Y794310D01*
X215630Y795164D01*
X216463Y796039D01*
X217276Y796934D01*
X218066Y797848D01*
X218834Y798781D01*
X219579Y799732D01*
X220301Y800701D01*
X220999Y801687D01*
X221674Y802689D01*
X222323Y803708D01*
X222948Y804742D01*
X223548Y805791D01*
X224123Y806854D01*
X224671Y807930D01*
X225194Y809020D01*
X225690Y810122D01*
X226159Y811235D01*
X226601Y812360D01*
X227016Y813495D01*
X227403Y814639D01*
X227762Y815793D01*
X228094Y816955D01*
X228397Y818124D01*
X228672Y819301D01*
X228919Y820484D01*
X229136Y821672D01*
X229325Y822866D01*
X229485Y824063D01*
X229617Y825264D01*
X229719Y826468D01*
X229792Y827674D01*
X229835Y828882D01*
X229850Y830090D01*
X179850Y780090D02*
X179180Y780142D01*
X178509Y780179D01*
X177837Y780199D01*
X177166Y780202D01*
X176494Y780190D01*
X175822Y780161D01*
X175152Y780115D01*
X174483Y780054D01*
X173815Y779976D01*
X173150Y779882D01*
X172487Y779771D01*
X171827Y779645D01*
X171171Y779503D01*
X170518Y779344D01*
X169869Y779170D01*
X169224Y778980D01*
X168584Y778775D01*
X167950Y778554D01*
X167321Y778317D01*
X166698Y778066D01*
X166081Y777799D01*
X165471Y777517D01*
X164868Y777221D01*
X164272Y776910D01*
X163684Y776584D01*
X163105Y776245D01*
X162533Y775891D01*
X161971Y775524D01*
X161417Y775143D01*
X160873Y774748D01*
X160339Y774341D01*
X159815Y773921D01*
X159301Y773488D01*
X158798Y773042D01*
X158306Y772585D01*
X157825Y772115D01*
X157355Y771634D01*
X156898Y771142D01*
X156452Y770639D01*
X156019Y770125D01*
X155599Y769601D01*
X155192Y769067D01*
X154797Y768523D01*
X154416Y767969D01*
X154049Y767407D01*
X153695Y766835D01*
X153356Y766256D01*
X153030Y765668D01*
X152719Y765072D01*
X152423Y764469D01*
X152141Y763859D01*
X151874Y763242D01*
X151623Y762619D01*
X151386Y761990D01*
X151165Y761356D01*
X150960Y760716D01*
X150770Y760071D01*
X150596Y759422D01*
X150437Y758769D01*
X150295Y758113D01*
X150169Y757453D01*
X150058Y756790D01*
X149964Y756125D01*
X149886Y755457D01*
X149825Y754788D01*
X149779Y754118D01*
X149750Y753446D01*
X149738Y752774D01*
X149741Y752103D01*
X149761Y751431D01*
X149798Y750760D01*
X149850Y750090D01*
X69850Y120090D02*
X68642Y120075D01*
X67434Y120032D01*
X66228Y119959D01*
X65024Y119857D01*
X63823Y119725D01*
X62626Y119565D01*
X61432Y119376D01*
X60244Y119159D01*
X59061Y118912D01*
X57884Y118637D01*
X56715Y118334D01*
X55553Y118002D01*
X54399Y117643D01*
X53255Y117256D01*
X52120Y116841D01*
X50995Y116399D01*
X49882Y115930D01*
X48780Y115434D01*
X47690Y114911D01*
X46614Y114363D01*
X45551Y113788D01*
X44502Y113188D01*
X43468Y112563D01*
X42449Y111914D01*
X41447Y111239D01*
X40461Y110541D01*
X39492Y109819D01*
X38541Y109074D01*
X37608Y108306D01*
X36694Y107516D01*
X35799Y106703D01*
X34924Y105870D01*
X34070Y105016D01*
X33237Y104141D01*
X32424Y103246D01*
X31634Y102332D01*
X30866Y101399D01*
X30121Y100448D01*
X29399Y99479D01*
X28701Y98493D01*
X28026Y97491D01*
X27377Y96472D01*
X26752Y95438D01*
X26152Y94389D01*
X25577Y93326D01*
X25029Y92250D01*
X24506Y91160D01*
X24010Y90058D01*
X23541Y88945D01*
X23099Y87820D01*
X22684Y86685D01*
X22297Y85541D01*
X21938Y84387D01*
X21606Y83225D01*
X21303Y82056D01*
X21028Y80879D01*
X20781Y79696D01*
X20564Y78508D01*
X20375Y77314D01*
X20215Y76117D01*
X20083Y74916D01*
X19981Y73712D01*
X19908Y72506D01*
X19865Y71298D01*
X19850Y70090D01*
X69850Y120090D02*
X70575Y120099D01*
X71299Y120125D01*
X72023Y120169D01*
X72745Y120230D01*
X73466Y120309D01*
X74185Y120405D01*
X74901Y120518D01*
X75614Y120649D01*
X76324Y120797D01*
X77029Y120962D01*
X77731Y121144D01*
X78428Y121343D01*
X79121Y121558D01*
X79807Y121791D01*
X80488Y122040D01*
X81163Y122305D01*
X81831Y122586D01*
X82492Y122884D01*
X83146Y123197D01*
X83792Y123526D01*
X84430Y123871D01*
X85059Y124231D01*
X85679Y124606D01*
X86290Y124996D01*
X86892Y125400D01*
X87484Y125819D01*
X88065Y126253D01*
X88636Y126700D01*
X89195Y127161D01*
X89744Y127635D01*
X90280Y128122D01*
X90805Y128622D01*
X91318Y129135D01*
X91818Y129660D01*
X92305Y130196D01*
X92779Y130745D01*
X93240Y131304D01*
X93687Y131875D01*
X94121Y132456D01*
X94540Y133048D01*
X94944Y133650D01*
X95334Y134261D01*
X95709Y134881D01*
X96069Y135510D01*
X96414Y136148D01*
X96743Y136794D01*
X97056Y137448D01*
X97354Y138109D01*
X97635Y138777D01*
X97900Y139452D01*
X98149Y140133D01*
X98382Y140819D01*
X98597Y141512D01*
X98796Y142209D01*
X98978Y142911D01*
X99143Y143616D01*
X99291Y144326D01*
X99422Y145039D01*
X99535Y145755D01*
X99631Y146474D01*
X99710Y147195D01*
X99771Y147917D01*
X99815Y148641D01*
X99841Y149365D01*
X99850Y150090D01*
X179850Y120090D02*
X181058Y120075D01*
X182266Y120032D01*
X183472Y119959D01*
X184676Y119857D01*
X185877Y119725D01*
X187074Y119565D01*
X188268Y119376D01*
X189456Y119159D01*
X190639Y118912D01*
X191816Y118637D01*
X192985Y118334D01*
X194147Y118002D01*
X195301Y117643D01*
X196445Y117256D01*
X197580Y116841D01*
X198705Y116399D01*
X199818Y115930D01*
X200920Y115434D01*
X202010Y114911D01*
X203086Y114363D01*
X204149Y113788D01*
X205198Y113188D01*
X206232Y112563D01*
X207251Y111914D01*
X208253Y111239D01*
X209239Y110541D01*
X210208Y109819D01*
X211159Y109074D01*
X212092Y108306D01*
X213006Y107516D01*
X213901Y106703D01*
X214776Y105870D01*
X215630Y105016D01*
X216463Y104141D01*
X217276Y103246D01*
X218066Y102332D01*
X218834Y101399D01*
X219579Y100448D01*
X220301Y99479D01*
X220999Y98493D01*
X221674Y97491D01*
X222323Y96472D01*
X222948Y95438D01*
X223548Y94389D01*
X224123Y93326D01*
X224671Y92250D01*
X225194Y91160D01*
X225690Y90058D01*
X226159Y88945D01*
X226601Y87820D01*
X227016Y86685D01*
X227403Y85541D01*
X227762Y84387D01*
X228094Y83225D01*
X228397Y82056D01*
X228672Y80879D01*
X228919Y79696D01*
X229136Y78508D01*
X229325Y77314D01*
X229485Y76117D01*
X229617Y74916D01*
X229719Y73712D01*
X229792Y72506D01*
X229835Y71298D01*
X229850Y70090D01*
X179850Y120090D02*
X179125Y120099D01*
X178401Y120125D01*
X177677Y120169D01*
X176955Y120230D01*
X176234Y120309D01*
X175515Y120405D01*
X174799Y120518D01*
X174086Y120649D01*
X173376Y120797D01*
X172671Y120962D01*
X171969Y121144D01*
X171272Y121343D01*
X170579Y121558D01*
X169893Y121791D01*
X169212Y122040D01*
X168537Y122305D01*
X167869Y122586D01*
X167208Y122884D01*
X166554Y123197D01*
X165908Y123526D01*
X165270Y123871D01*
X164641Y124231D01*
X164021Y124606D01*
X163410Y124996D01*
X162808Y125400D01*
X162216Y125819D01*
X161635Y126253D01*
X161064Y126700D01*
X160505Y127161D01*
X159956Y127635D01*
X159420Y128122D01*
X158895Y128622D01*
X158382Y129135D01*
X157882Y129660D01*
X157395Y130196D01*
X156921Y130745D01*
X156460Y131304D01*
X156013Y131875D01*
X155579Y132456D01*
X155160Y133048D01*
X154756Y133650D01*
X154366Y134261D01*
X153991Y134881D01*
X153631Y135510D01*
X153286Y136148D01*
X152957Y136794D01*
X152644Y137448D01*
X152346Y138109D01*
X152065Y138777D01*
X151800Y139452D01*
X151551Y140133D01*
X151318Y140819D01*
X151103Y141512D01*
X150904Y142209D01*
X150722Y142911D01*
X150557Y143616D01*
X150409Y144326D01*
X150278Y145039D01*
X150165Y145755D01*
X150069Y146474D01*
X149990Y147195D01*
X149929Y147917D01*
X149885Y148641D01*
X149859Y149365D01*
X149850Y150090D01*
X99850Y345090D02*
X99841Y345815D01*
X99815Y346539D01*
X99771Y347263D01*
X99710Y347985D01*
X99631Y348706D01*
X99535Y349425D01*
X99422Y350141D01*
X99291Y350854D01*
X99143Y351564D01*
X98978Y352269D01*
X98796Y352971D01*
X98597Y353668D01*
X98382Y354361D01*
X98149Y355047D01*
X97900Y355728D01*
X97635Y356403D01*
X97354Y357071D01*
X97056Y357732D01*
X96743Y358386D01*
X96414Y359032D01*
X96069Y359670D01*
X95709Y360299D01*
X95334Y360919D01*
X94944Y361530D01*
X94540Y362132D01*
X94121Y362724D01*
X93687Y363305D01*
X93240Y363876D01*
X92779Y364435D01*
X92305Y364984D01*
X91818Y365520D01*
X91318Y366045D01*
X90805Y366558D01*
X90280Y367058D01*
X89744Y367545D01*
X89195Y368019D01*
X88636Y368480D01*
X88065Y368927D01*
X87484Y369361D01*
X86892Y369780D01*
X86290Y370184D01*
X85679Y370574D01*
X85059Y370949D01*
X84430Y371309D01*
X83792Y371654D01*
X83146Y371983D01*
X82492Y372296D01*
X81831Y372594D01*
X81163Y372875D01*
X80488Y373140D01*
X79807Y373389D01*
X79121Y373622D01*
X78428Y373837D01*
X77731Y374036D01*
X77029Y374218D01*
X76324Y374383D01*
X75614Y374531D01*
X74901Y374662D01*
X74185Y374775D01*
X73466Y374871D01*
X72745Y374950D01*
X72023Y375011D01*
X71299Y375055D01*
X70575Y375081D01*
X69850Y375090D01*
X149850Y345090D02*
X149859Y345815D01*
X149885Y346539D01*
X149929Y347263D01*
X149990Y347985D01*
X150069Y348706D01*
X150165Y349425D01*
X150278Y350141D01*
X150409Y350854D01*
X150557Y351564D01*
X150722Y352269D01*
X150904Y352971D01*
X151103Y353668D01*
X151318Y354361D01*
X151551Y355047D01*
X151800Y355728D01*
X152065Y356403D01*
X152346Y357071D01*
X152644Y357732D01*
X152957Y358386D01*
X153286Y359032D01*
X153631Y359670D01*
X153991Y360299D01*
X154366Y360919D01*
X154756Y361530D01*
X155160Y362132D01*
X155579Y362724D01*
X156013Y363305D01*
X156460Y363876D01*
X156921Y364435D01*
X157395Y364984D01*
X157882Y365520D01*
X158382Y366045D01*
X158895Y366558D01*
X159420Y367058D01*
X159956Y367545D01*
X160505Y368019D01*
X161064Y368480D01*
X161635Y368927D01*
X162216Y369361D01*
X162808Y369780D01*
X163410Y370184D01*
X164021Y370574D01*
X164641Y370949D01*
X165270Y371309D01*
X165908Y371654D01*
X166554Y371983D01*
X167208Y372296D01*
X167869Y372594D01*
X168537Y372875D01*
X169212Y373140D01*
X169893Y373389D01*
X170579Y373622D01*
X171272Y373837D01*
X171969Y374036D01*
X172671Y374218D01*
X173376Y374383D01*
X174086Y374531D01*
X174799Y374662D01*
X175515Y374775D01*
X176234Y374871D01*
X176955Y374950D01*
X177677Y375011D01*
X178401Y375055D01*
X179125Y375081D01*
X179850Y375090D01*
X179850Y525090D02*
X179125Y525099D01*
X178401Y525125D01*
X177677Y525169D01*
X176955Y525230D01*
X176234Y525309D01*
X175515Y525405D01*
X174799Y525518D01*
X174086Y525649D01*
X173376Y525797D01*
X172671Y525962D01*
X171969Y526144D01*
X171272Y526343D01*
X170579Y526558D01*
X169893Y526791D01*
X169212Y527040D01*
X168537Y527305D01*
X167869Y527586D01*
X167208Y527884D01*
X166554Y528197D01*
X165908Y528526D01*
X165270Y528871D01*
X164641Y529231D01*
X164021Y529606D01*
X163410Y529996D01*
X162808Y530400D01*
X162216Y530819D01*
X161635Y531253D01*
X161064Y531700D01*
X160505Y532161D01*
X159956Y532635D01*
X159420Y533122D01*
X158895Y533622D01*
X158382Y534135D01*
X157882Y534660D01*
X157395Y535196D01*
X156921Y535745D01*
X156460Y536304D01*
X156013Y536875D01*
X155579Y537456D01*
X155160Y538048D01*
X154756Y538650D01*
X154366Y539261D01*
X153991Y539881D01*
X153631Y540510D01*
X153286Y541148D01*
X152957Y541794D01*
X152644Y542448D01*
X152346Y543109D01*
X152065Y543777D01*
X151800Y544452D01*
X151551Y545133D01*
X151318Y545819D01*
X151103Y546512D01*
X150904Y547209D01*
X150722Y547911D01*
X150557Y548616D01*
X150409Y549326D01*
X150278Y550039D01*
X150165Y550755D01*
X150069Y551474D01*
X149990Y552195D01*
X149929Y552917D01*
X149885Y553641D01*
X149859Y554365D01*
X149850Y555090D01*
X99850Y555090D02*
X99841Y554365D01*
X99815Y553641D01*
X99771Y552917D01*
X99710Y552195D01*
X99631Y551474D01*
X99535Y550755D01*
X99422Y550039D01*
X99291Y549326D01*
X99143Y548616D01*
X98978Y547911D01*
X98796Y547209D01*
X98597Y546512D01*
X98382Y545819D01*
X98149Y545133D01*
X97900Y544452D01*
X97635Y543777D01*
X97354Y543109D01*
X97056Y542448D01*
X96743Y541794D01*
X96414Y541148D01*
X96069Y540510D01*
X95709Y539881D01*
X95334Y539261D01*
X94944Y538650D01*
X94540Y538048D01*
X94121Y537456D01*
X93687Y536875D01*
X93240Y536304D01*
X92779Y535745D01*
X92305Y535196D01*
X91818Y534660D01*
X91318Y534135D01*
X90805Y533622D01*
X90280Y533122D01*
X89744Y532635D01*
X89195Y532161D01*
X88636Y531700D01*
X88065Y531253D01*
X87484Y530819D01*
X86892Y530400D01*
X86290Y529996D01*
X85679Y529606D01*
X85059Y529231D01*
X84430Y528871D01*
X83792Y528526D01*
X83146Y528197D01*
X82492Y527884D01*
X81831Y527586D01*
X81163Y527305D01*
X80488Y527040D01*
X79807Y526791D01*
X79121Y526558D01*
X78428Y526343D01*
X77731Y526144D01*
X77029Y525962D01*
X76324Y525797D01*
X75614Y525649D01*
X74901Y525518D01*
X74185Y525405D01*
X73466Y525309D01*
X72745Y525230D01*
X72023Y525169D01*
X71299Y525125D01*
X70575Y525099D01*
X69850Y525090D01*
X19850Y425090D02*
X19865Y423882D01*
X19908Y422674D01*
X19981Y421468D01*
X20083Y420264D01*
X20215Y419063D01*
X20375Y417866D01*
X20564Y416672D01*
X20781Y415484D01*
X21028Y414301D01*
X21303Y413124D01*
X21606Y411955D01*
X21938Y410793D01*
X22297Y409639D01*
X22684Y408495D01*
X23099Y407360D01*
X23541Y406235D01*
X24010Y405122D01*
X24506Y404020D01*
X25029Y402930D01*
X25577Y401854D01*
X26152Y400791D01*
X26752Y399742D01*
X27377Y398708D01*
X28026Y397689D01*
X28701Y396687D01*
X29399Y395701D01*
X30121Y394732D01*
X30866Y393781D01*
X31634Y392848D01*
X32424Y391934D01*
X33237Y391039D01*
X34070Y390164D01*
X34924Y389310D01*
X35799Y388477D01*
X36694Y387664D01*
X37608Y386874D01*
X38541Y386106D01*
X39492Y385361D01*
X40461Y384639D01*
X41447Y383941D01*
X42449Y383266D01*
X43468Y382617D01*
X44502Y381992D01*
X45551Y381392D01*
X46614Y380817D01*
X47690Y380269D01*
X48780Y379746D01*
X49882Y379250D01*
X50995Y378781D01*
X52120Y378339D01*
X53255Y377924D01*
X54399Y377537D01*
X55553Y377178D01*
X56715Y376846D01*
X57884Y376543D01*
X59061Y376268D01*
X60244Y376021D01*
X61432Y375804D01*
X62626Y375615D01*
X63823Y375455D01*
X65024Y375323D01*
X66228Y375221D01*
X67434Y375148D01*
X68642Y375105D01*
X69850Y375090D01*
X179850Y375090D02*
X181058Y375105D01*
X182266Y375148D01*
X183472Y375221D01*
X184676Y375323D01*
X185877Y375455D01*
X187074Y375615D01*
X188268Y375804D01*
X189456Y376021D01*
X190639Y376268D01*
X191816Y376543D01*
X192985Y376846D01*
X194147Y377178D01*
X195301Y377537D01*
X196445Y377924D01*
X197580Y378339D01*
X198705Y378781D01*
X199818Y379250D01*
X200920Y379746D01*
X202010Y380269D01*
X203086Y380817D01*
X204149Y381392D01*
X205198Y381992D01*
X206232Y382617D01*
X207251Y383266D01*
X208253Y383941D01*
X209239Y384639D01*
X210208Y385361D01*
X211159Y386106D01*
X212092Y386874D01*
X213006Y387664D01*
X213901Y388477D01*
X214776Y389310D01*
X215630Y390164D01*
X216463Y391039D01*
X217276Y391934D01*
X218066Y392848D01*
X218834Y393781D01*
X219579Y394732D01*
X220301Y395701D01*
X220999Y396687D01*
X221674Y397689D01*
X222323Y398708D01*
X222948Y399742D01*
X223548Y400791D01*
X224123Y401854D01*
X224671Y402930D01*
X225194Y404020D01*
X225690Y405122D01*
X226159Y406235D01*
X226601Y407360D01*
X227016Y408495D01*
X227403Y409639D01*
X227762Y410793D01*
X228094Y411955D01*
X228397Y413124D01*
X228672Y414301D01*
X228919Y415484D01*
X229136Y416672D01*
X229325Y417866D01*
X229485Y419063D01*
X229617Y420264D01*
X229719Y421468D01*
X229792Y422674D01*
X229835Y423882D01*
X229850Y425090D01*
X229850Y475090D02*
X229835Y476298D01*
X229792Y477506D01*
X229719Y478712D01*
X229617Y479916D01*
X229485Y481117D01*
X229325Y482314D01*
X229136Y483508D01*
X228919Y484696D01*
X228672Y485879D01*
X228397Y487056D01*
X228094Y488225D01*
X227762Y489387D01*
X227403Y490541D01*
X227016Y491685D01*
X226601Y492820D01*
X226159Y493945D01*
X225690Y495058D01*
X225194Y496160D01*
X224671Y497250D01*
X224123Y498326D01*
X223548Y499389D01*
X222948Y500438D01*
X222323Y501472D01*
X221674Y502491D01*
X220999Y503493D01*
X220301Y504479D01*
X219579Y505448D01*
X218834Y506399D01*
X218066Y507332D01*
X217276Y508246D01*
X216463Y509141D01*
X215630Y510016D01*
X214776Y510870D01*
X213901Y511703D01*
X213006Y512516D01*
X212092Y513306D01*
X211159Y514074D01*
X210208Y514819D01*
X209239Y515541D01*
X208253Y516239D01*
X207251Y516914D01*
X206232Y517563D01*
X205198Y518188D01*
X204149Y518788D01*
X203086Y519363D01*
X202010Y519911D01*
X200920Y520434D01*
X199818Y520930D01*
X198705Y521399D01*
X197580Y521841D01*
X196445Y522256D01*
X195301Y522643D01*
X194147Y523002D01*
X192985Y523334D01*
X191816Y523637D01*
X190639Y523912D01*
X189456Y524159D01*
X188268Y524376D01*
X187074Y524565D01*
X185877Y524725D01*
X184676Y524857D01*
X183472Y524959D01*
X182266Y525032D01*
X181058Y525075D01*
X179850Y525090D01*
X69850Y525090D02*
X68642Y525075D01*
X67434Y525032D01*
X66228Y524959D01*
X65024Y524857D01*
X63823Y524725D01*
X62626Y524565D01*
X61432Y524376D01*
X60244Y524159D01*
X59061Y523912D01*
X57884Y523637D01*
X56715Y523334D01*
X55553Y523002D01*
X54399Y522643D01*
X53255Y522256D01*
X52120Y521841D01*
X50995Y521399D01*
X49882Y520930D01*
X48780Y520434D01*
X47690Y519911D01*
X46614Y519363D01*
X45551Y518788D01*
X44502Y518188D01*
X43468Y517563D01*
X42449Y516914D01*
X41447Y516239D01*
X40461Y515541D01*
X39492Y514819D01*
X38541Y514074D01*
X37608Y513306D01*
X36694Y512516D01*
X35799Y511703D01*
X34924Y510870D01*
X34070Y510016D01*
X33237Y509141D01*
X32424Y508246D01*
X31634Y507332D01*
X30866Y506399D01*
X30121Y505448D01*
X29399Y504479D01*
X28701Y503493D01*
X28026Y502491D01*
X27377Y501472D01*
X26752Y500438D01*
X26152Y499389D01*
X25577Y498326D01*
X25029Y497250D01*
X24506Y496160D01*
X24010Y495058D01*
X23541Y493945D01*
X23099Y492820D01*
X22684Y491685D01*
X22297Y490541D01*
X21938Y489387D01*
X21606Y488225D01*
X21303Y487056D01*
X21028Y485879D01*
X20781Y484696D01*
X20564Y483508D01*
X20375Y482314D01*
X20215Y481117D01*
X20083Y479916D01*
X19981Y478712D01*
X19908Y477506D01*
X19865Y476298D01*
X19850Y475090D01*
X69850Y880090D02*
X179850Y880090D01*
X69850Y880090D02*
X68642Y880075D01*
X67434Y880032D01*
X66228Y879959D01*
X65024Y879857D01*
X63823Y879725D01*
X62626Y879565D01*
X61432Y879376D01*
X60244Y879159D01*
X59061Y878912D01*
X57884Y878637D01*
X56715Y878334D01*
X55553Y878002D01*
X54399Y877643D01*
X53255Y877256D01*
X52120Y876841D01*
X50995Y876399D01*
X49882Y875930D01*
X48780Y875434D01*
X47690Y874911D01*
X46614Y874363D01*
X45551Y873788D01*
X44502Y873188D01*
X43468Y872563D01*
X42449Y871914D01*
X41447Y871239D01*
X40461Y870541D01*
X39492Y869819D01*
X38541Y869074D01*
X37608Y868306D01*
X36694Y867516D01*
X35799Y866703D01*
X34924Y865870D01*
X34070Y865016D01*
X33237Y864141D01*
X32424Y863246D01*
X31634Y862332D01*
X30866Y861399D01*
X30121Y860448D01*
X29399Y859479D01*
X28701Y858493D01*
X28026Y857491D01*
X27377Y856472D01*
X26752Y855438D01*
X26152Y854389D01*
X25577Y853326D01*
X25029Y852250D01*
X24506Y851160D01*
X24010Y850058D01*
X23541Y848945D01*
X23099Y847820D01*
X22684Y846685D01*
X22297Y845541D01*
X21938Y844387D01*
X21606Y843225D01*
X21303Y842056D01*
X21028Y840879D01*
X20781Y839696D01*
X20564Y838508D01*
X20375Y837314D01*
X20215Y836117D01*
X20083Y834916D01*
X19981Y833712D01*
X19908Y832506D01*
X19865Y831298D01*
X19850Y830090D01*
X179850Y880090D02*
X181058Y880075D01*
X182266Y880032D01*
X183472Y879959D01*
X184676Y879857D01*
X185877Y879725D01*
X187074Y879565D01*
X188268Y879376D01*
X189456Y879159D01*
X190639Y878912D01*
X191816Y878637D01*
X192985Y878334D01*
X194147Y878002D01*
X195301Y877643D01*
X196445Y877256D01*
X197580Y876841D01*
X198705Y876399D01*
X199818Y875930D01*
X200920Y875434D01*
X202010Y874911D01*
X203086Y874363D01*
X204149Y873788D01*
X205198Y873188D01*
X206232Y872563D01*
X207251Y871914D01*
X208253Y871239D01*
X209239Y870541D01*
X210208Y869819D01*
X211159Y869074D01*
X212092Y868306D01*
X213006Y867516D01*
X213901Y866703D01*
X214776Y865870D01*
X215630Y865016D01*
X216463Y864141D01*
X217276Y863246D01*
X218066Y862332D01*
X218834Y861399D01*
X219579Y860448D01*
X220301Y859479D01*
X220999Y858493D01*
X221674Y857491D01*
X222323Y856472D01*
X222948Y855438D01*
X223548Y854389D01*
X224123Y853326D01*
X224671Y852250D01*
X225194Y851160D01*
X225690Y850058D01*
X226159Y848945D01*
X226601Y847820D01*
X227016Y846685D01*
X227403Y845541D01*
X227762Y844387D01*
X228094Y843225D01*
X228397Y842056D01*
X228672Y840879D01*
X228919Y839696D01*
X229136Y838508D01*
X229325Y837314D01*
X229485Y836117D01*
X229617Y834916D01*
X229719Y833712D01*
X229792Y832506D01*
X229835Y831298D01*
X229850Y830090D01*
X179850Y20090D02*
X69850Y20090D01*
X68642Y20105D01*
X67434Y20148D01*
X66228Y20221D01*
X65024Y20323D01*
X63823Y20455D01*
X62626Y20615D01*
X61432Y20804D01*
X60244Y21021D01*
X59061Y21268D01*
X57884Y21543D01*
X56715Y21846D01*
X55553Y22178D01*
X54399Y22537D01*
X53255Y22924D01*
X52120Y23339D01*
X50995Y23781D01*
X49882Y24250D01*
X48780Y24746D01*
X47690Y25269D01*
X46614Y25817D01*
X45551Y26392D01*
X44502Y26992D01*
X43468Y27617D01*
X42449Y28266D01*
X41447Y28941D01*
X40461Y29639D01*
X39492Y30361D01*
X38541Y31106D01*
X37608Y31874D01*
X36694Y32664D01*
X35799Y33477D01*
X34924Y34310D01*
X34070Y35164D01*
X33237Y36039D01*
X32424Y36934D01*
X31634Y37848D01*
X30866Y38781D01*
X30121Y39732D01*
X29399Y40701D01*
X28701Y41687D01*
X28026Y42689D01*
X27377Y43708D01*
X26752Y44742D01*
X26152Y45791D01*
X25577Y46854D01*
X25029Y47930D01*
X24506Y49020D01*
X24010Y50122D01*
X23541Y51235D01*
X23099Y52360D01*
X22684Y53495D01*
X22297Y54639D01*
X21938Y55793D01*
X21606Y56955D01*
X21303Y58124D01*
X21028Y59301D01*
X20781Y60484D01*
X20564Y61672D01*
X20375Y62866D01*
X20215Y64063D01*
X20083Y65264D01*
X19981Y66468D01*
X19908Y67674D01*
X19865Y68882D01*
X19850Y70090D01*
X179850Y20090D02*
X181058Y20105D01*
X182266Y20148D01*
X183472Y20221D01*
X184676Y20323D01*
X185877Y20455D01*
X187074Y20615D01*
X188268Y20804D01*
X189456Y21021D01*
X190639Y21268D01*
X191816Y21543D01*
X192985Y21846D01*
X194147Y22178D01*
X195301Y22537D01*
X196445Y22924D01*
X197580Y23339D01*
X198705Y23781D01*
X199818Y24250D01*
X200920Y24746D01*
X202010Y25269D01*
X203086Y25817D01*
X204149Y26392D01*
X205198Y26992D01*
X206232Y27617D01*
X207251Y28266D01*
X208253Y28941D01*
X209239Y29639D01*
X210208Y30361D01*
X211159Y31106D01*
X212092Y31874D01*
X213006Y32664D01*
X213901Y33477D01*
X214776Y34310D01*
X215630Y35164D01*
X216463Y36039D01*
X217276Y36934D01*
X218066Y37848D01*
X218834Y38781D01*
X219579Y39732D01*
X220301Y40701D01*
X220999Y41687D01*
X221674Y42689D01*
X222323Y43708D01*
X222948Y44742D01*
X223548Y45791D01*
X224123Y46854D01*
X224671Y47930D01*
X225194Y49020D01*
X225690Y50122D01*
X226159Y51235D01*
X226601Y52360D01*
X227016Y53495D01*
X227403Y54639D01*
X227762Y55793D01*
X228094Y56955D01*
X228397Y58124D01*
X228672Y59301D01*
X228919Y60484D01*
X229136Y61672D01*
X229325Y62866D01*
X229485Y64063D01*
X229617Y65264D01*
X229719Y66468D01*
X229792Y67674D01*
X229835Y68882D01*
X229850Y70090D01*
D12*
X94116Y498782D02*
X80739Y498782D01*
X87428Y492094D02*
X87428Y505471D01*
X145739Y503749D02*
X154657Y503749D01*
D11*
X249850Y900090D02*
X-150Y900090D01*
X249850Y900090D02*
X249850Y90D01*
X-150Y90D01*
X-150Y900090D01*
M02*
