M48
;GenerationSoftware,Autodesk,EAGLE,9.3.0*%
;CreationDate,2019-06-22T04:30:52Z*%
FMAT,2
ICI,OFF
METRIC,TZ,000.000
T9C0.350
T8C0.700
T7C0.950
T6C1.000
T5C1.016
T4C1.118
T3C2.300
T2C2.900
T1C3.810
%
G90
M71
T1
X34036Y72390
T2
X5000Y95000
X95000Y75000
X35000Y35000
X95000Y34000
T3
X10160Y42130
X10160Y28990
T4
X13970Y16510
X24130Y16510
X47752Y62738
X47752Y72898
T5
X100584Y35560
X100584Y38100
X100584Y40640
X100584Y43180
X11430Y72390
X11430Y74930
X11430Y80010
X11430Y82550
X11430Y21590
X11430Y19050
X11430Y16510
X11430Y13970
X11430Y11430
X11430Y8890
X11430Y6350
X11430Y3810
X11430Y24130
X15240Y69850
X15240Y72390
X15240Y74930
X11430Y67310
X11430Y64770
X11430Y62230
X11430Y57150
X11430Y54610
X11430Y52070
X11430Y49530
X11430Y46990
T6
X109474Y17780
X109474Y20320
X109474Y22860
X109474Y25400
X109474Y27940
X65380Y3810
X65380Y6350
X65380Y8890
X65380Y11430
X65380Y13970
X65380Y16510
X65380Y19050
X77216Y64770
X77216Y62230
X77216Y59690
X77216Y57150
X77216Y54610
X77216Y52070
X87376Y52070
X87376Y54610
X87376Y57150
X87376Y59690
X87376Y62230
X87376Y64770
X32512Y60198
X35052Y60198
X37592Y60198
X40132Y60198
X42672Y60198
X45212Y60198
X47752Y60198
X50292Y60198
X52832Y60198
X55372Y60198
X57912Y60198
X60452Y60198
X62992Y60198
X65532Y60198
X65532Y55118
X65532Y52578
X65532Y50038
X65532Y47498
X65532Y44958
X62992Y44958
X60452Y44958
X57912Y44958
X55372Y44958
X52832Y44958
X50292Y44958
X47752Y44958
X45212Y44958
X42672Y44958
X40132Y44958
X37592Y44958
X35052Y44958
X32512Y44958
X65532Y57658
X35318Y91360
X35318Y81360
X100318Y91360
X100318Y81360
X31508Y91360
X31508Y81360
X96508Y91360
X96508Y81360
X90170Y20320
X90170Y17780
X90170Y15240
X90170Y12700
X72390Y22860
X72390Y20320
X72390Y17780
X72390Y15240
X72390Y12700
X72390Y10160
X103632Y48260
X103632Y50800
X103632Y53340
X103632Y55880
X103632Y58420
X103632Y60960
X103632Y63500
X103632Y66040
X103632Y68580
X44704Y6350
X44704Y8890
X44704Y11430
X44704Y13970
X44704Y16510
X44704Y19050
X44704Y21590
X44704Y24130
X109474Y5080
X109474Y7620
X109474Y10160
X109474Y12700
X109474Y15240
T7
X12870Y36560
X12870Y34560
X12870Y39060
X12870Y32060
T8
X16510Y82530
X16510Y80030
T9
X68580Y60198
X60452Y51562
X28702Y51562
X28702Y28702
X14732Y28702
X63500Y28702
X57912Y52578
X27686Y52578
X27686Y27178
X62484Y27432
X27686Y35306
X62992Y32766
X50800Y32766
X50800Y16510
X27686Y16510
X60452Y33782
X52324Y33782
X52324Y19050
X28702Y17526
X57912Y34798
X53848Y34798
X30734Y15494
X68580Y57658
X65532Y31750
X49530Y31750
X49530Y21590
X63246Y50546
X29718Y50546
X29718Y10414
X42672Y57658
X22606Y57658
X22606Y30734
X76708Y20066
X76708Y30734
X45212Y56642
X23622Y56642
X23622Y29718
X54864Y29718
X55372Y8128
X100584Y20574
X21590Y58674
X20574Y34036
X55372Y53594
X26670Y53594
X26670Y13716
X52832Y54610
X25654Y54610
X25654Y11684
X50292Y55626
X24638Y55626
X24638Y19050
X53848Y13970
X45000Y49000
X6000Y89000
X35000Y87000
X104000Y88000
X95000Y63000
X99000Y9000
X4000Y8000
X79756Y64770
X10160Y2540
X36000Y22000
X41000Y34000
X17145Y39497
X79756Y40640
X39116Y67310
X27940Y84836
X62992Y62230
X53000Y64000
X4000Y59000
X17145Y64770
X81026Y39370
X21590Y78740
X88392Y22860
X82296Y38354
X15494Y38354
X52832Y35814
X78740Y35814
X72000Y43000
M30