G04 EAGLE Gerber RS-274X export*
G75*
%MOMM*%
%FSLAX34Y34*%
%LPD*%
%INSolderpaste Top*%
%IPPOS*%
%AMOC8*
5,1,8,0,0,1.08239X$1,22.5*%
G01*
%ADD10R,0.711200X0.965200*%
%ADD11R,0.965200X0.711200*%
%ADD12R,0.330000X0.600000*%
%ADD13R,0.600000X0.330000*%
%ADD14R,0.803200X1.750000*%
%ADD15R,1.600200X2.209800*%
%ADD16R,0.500000X0.800000*%
%ADD17R,0.800000X0.500000*%
%ADD18R,1.450000X0.803200*%
%ADD19R,1.750000X0.803200*%
%ADD20R,1.000000X0.553200*%
%ADD21R,2.209800X1.600200*%


D10*
X282256Y497065D03*
X296734Y497065D03*
X243602Y48352D03*
X258080Y48352D03*
D11*
X606891Y369385D03*
X606891Y383863D03*
D10*
X283145Y456047D03*
X297623Y456047D03*
D12*
X295260Y542760D03*
X286960Y542760D03*
D13*
X418113Y304491D03*
X418113Y312791D03*
D12*
X346172Y394440D03*
X337872Y394440D03*
X425812Y294188D03*
X417512Y294188D03*
D11*
X475829Y312812D03*
X475829Y327290D03*
D14*
X558255Y382384D03*
X587287Y382384D03*
X586017Y354444D03*
X556985Y354444D03*
D15*
X397921Y295297D03*
X348645Y295297D03*
D16*
X560071Y312074D03*
X575071Y312074D03*
D17*
X538591Y344594D03*
X538591Y329594D03*
D13*
X538491Y351964D03*
X538491Y360264D03*
X556389Y77334D03*
X556389Y85634D03*
D15*
X227379Y207414D03*
X178103Y207414D03*
X226568Y167640D03*
X177292Y167640D03*
X284020Y411911D03*
X234744Y411911D03*
X412346Y171990D03*
X363070Y171990D03*
X606057Y188247D03*
X556781Y188247D03*
X604660Y274706D03*
X555384Y274706D03*
X604533Y236141D03*
X555257Y236141D03*
X411980Y127307D03*
X362704Y127307D03*
X411795Y92928D03*
X362519Y92928D03*
X608679Y132682D03*
X559403Y132682D03*
X348956Y335970D03*
X398232Y335970D03*
D10*
X415647Y202443D03*
X401169Y202443D03*
D13*
X450823Y185900D03*
X450823Y194200D03*
D18*
X519519Y546193D03*
X519519Y564225D03*
X444509Y546286D03*
X444509Y564318D03*
D19*
X482305Y419134D03*
X482305Y390102D03*
X515771Y418966D03*
X515771Y389934D03*
D11*
X610706Y316642D03*
X610706Y331120D03*
X631190Y331089D03*
X631190Y316611D03*
D20*
X481706Y272806D03*
X481706Y289338D03*
D11*
X590126Y316052D03*
X590126Y330530D03*
D10*
X570360Y329214D03*
X555882Y329214D03*
D21*
X250038Y134581D03*
X250038Y85305D03*
M02*
