G04 EAGLE Gerber RS-274X export*
G75*
%MOMM*%
%FSLAX34Y34*%
%LPD*%
%INSoldermask Bottom*%
%IPPOS*%
%AMOC8*
5,1,8,0,0,1.08239X$1,22.5*%
G01*
%ADD10C,3.703200*%
%ADD11R,1.803200X0.553200*%
%ADD12R,1.203200X1.103200*%
%ADD13C,1.311200*%
%ADD14R,1.703200X1.803200*%
%ADD15R,1.549400X1.549400*%
%ADD16C,1.549400*%
%ADD17C,1.727200*%
%ADD18C,1.209600*%


D10*
X365760Y35560D03*
X482600Y585470D03*
X530860Y36830D03*
X194310Y627380D03*
D11*
X507453Y331419D03*
X507453Y324919D03*
X507453Y318419D03*
X507453Y311919D03*
X507453Y305419D03*
X507453Y298919D03*
X507453Y292419D03*
X507453Y285919D03*
X507453Y279419D03*
X507453Y272919D03*
X507453Y266419D03*
X507453Y259919D03*
X507453Y253419D03*
X507453Y246919D03*
X451453Y331419D03*
X451453Y324919D03*
X451453Y318419D03*
X451453Y311919D03*
X451453Y305419D03*
X451453Y298919D03*
X451453Y292419D03*
X451453Y285919D03*
X451453Y279419D03*
X451453Y272919D03*
X451453Y266419D03*
X451453Y259919D03*
X451453Y253419D03*
X451453Y246919D03*
D12*
X358664Y381728D03*
X358664Y360728D03*
X339664Y381728D03*
X339664Y360728D03*
D13*
X271850Y478270D03*
X306850Y478270D03*
X273030Y563150D03*
X308030Y563150D03*
D11*
X507256Y148626D03*
X451256Y148626D03*
X507256Y155126D03*
X507256Y161626D03*
X507256Y168126D03*
X507256Y142126D03*
X507256Y135626D03*
X507256Y129126D03*
X451256Y155126D03*
X451256Y161626D03*
X451256Y168126D03*
X451256Y142126D03*
X451256Y135626D03*
X451256Y129126D03*
D14*
X584843Y77209D03*
X606843Y77209D03*
X584843Y102609D03*
X606843Y102609D03*
D13*
X281520Y47963D03*
X281520Y73363D03*
X281520Y98763D03*
X281520Y124163D03*
X281520Y149563D03*
X281520Y174963D03*
X281520Y200363D03*
X281520Y225763D03*
X281520Y251163D03*
X281520Y276563D03*
X281520Y301963D03*
X281520Y327363D03*
X281520Y352763D03*
X281520Y378163D03*
X256120Y378163D03*
X230720Y378163D03*
X205320Y378163D03*
X179920Y378163D03*
X154520Y378163D03*
X129120Y378163D03*
X129120Y352763D03*
X129120Y327363D03*
X129120Y301963D03*
X129120Y276563D03*
X129120Y251163D03*
X129120Y225763D03*
X129120Y200363D03*
X129120Y174963D03*
X129120Y149563D03*
X129120Y124163D03*
X129120Y98763D03*
X129120Y73363D03*
X129120Y47963D03*
D15*
X362749Y444995D03*
D16*
X388149Y419595D03*
X413549Y444995D03*
D15*
X361320Y534524D03*
D16*
X386720Y509124D03*
X412120Y534524D03*
D15*
X600303Y443041D03*
D16*
X574903Y468441D03*
X549503Y443041D03*
D15*
X601099Y534084D03*
D16*
X575699Y559484D03*
X550299Y534084D03*
D13*
X519025Y618790D03*
X549025Y618790D03*
X447368Y618780D03*
X417368Y618780D03*
D17*
X417200Y666870D02*
X417200Y682110D01*
X391800Y682110D02*
X391800Y666870D01*
X366400Y666870D02*
X366400Y682110D01*
X603080Y680250D02*
X603080Y665010D01*
X577680Y665010D02*
X577680Y680250D01*
X552280Y680250D02*
X552280Y665010D01*
X165580Y565620D02*
X150340Y565620D01*
X150340Y540220D02*
X165580Y540220D01*
X166850Y486880D02*
X151610Y486880D01*
X151610Y461480D02*
X166850Y461480D01*
X61328Y48035D02*
X46088Y48035D01*
X46088Y73435D02*
X61328Y73435D01*
X61328Y98835D02*
X46088Y98835D01*
X46088Y124235D02*
X61328Y124235D01*
X61328Y149635D02*
X46088Y149635D01*
X46088Y175035D02*
X61328Y175035D01*
X61328Y200435D02*
X46088Y200435D01*
X46088Y225835D02*
X61328Y225835D01*
X61328Y251235D02*
X46088Y251235D01*
D13*
X631558Y618028D03*
X601558Y618028D03*
X333143Y619034D03*
X363143Y619034D03*
D18*
X346710Y191770D03*
X203200Y187960D03*
X109220Y99060D03*
X407670Y217170D03*
X416560Y264160D03*
X398780Y264160D03*
X398780Y358140D03*
X342900Y163830D03*
X227330Y144780D03*
X218440Y227330D03*
X341630Y135890D03*
X327660Y288290D03*
X450850Y176530D03*
X567690Y77470D03*
X466090Y292100D03*
X434340Y299720D03*
X355600Y394970D03*
X458470Y236220D03*
X379730Y204470D03*
X66040Y350520D03*
X191770Y422910D03*
X115570Y631190D03*
X275590Y632460D03*
X487680Y692150D03*
X571500Y588010D03*
X502920Y477520D03*
X391160Y575310D03*
X201930Y71120D03*
X467360Y55880D03*
X483870Y209550D03*
X632460Y288290D03*
X429260Y311150D03*
X387350Y400050D03*
X605790Y400050D03*
X332740Y440690D03*
X422910Y327660D03*
X492760Y323850D03*
X490220Y304800D03*
X537210Y299720D03*
X525780Y289560D03*
X525780Y314960D03*
X466090Y266700D03*
X488950Y256540D03*
X435610Y255270D03*
X521970Y207010D03*
X443230Y236220D03*
X530860Y139700D03*
X435610Y287020D03*
X307340Y184150D03*
X429260Y152400D03*
X480060Y138430D03*
X307340Y171450D03*
X307340Y149860D03*
X529590Y166370D03*
X525780Y248920D03*
X508000Y236220D03*
X633730Y163830D03*
X553720Y154940D03*
X430530Y129540D03*
X448310Y120650D03*
X201930Y313690D03*
X298450Y93980D03*
X331470Y347980D03*
X624840Y113030D03*
X435610Y170180D03*
X433197Y366141D03*
X469900Y344170D03*
X515620Y443230D03*
X463550Y419100D03*
X524510Y345440D03*
X506730Y344170D03*
X227330Y298450D03*
X204470Y300990D03*
X247650Y299720D03*
X530860Y105410D03*
M02*
