G04 EAGLE Gerber RS-274X export*
G75*
%MOMM*%
%FSLAX34Y34*%
%LPD*%
%INSolderpaste Bottom*%
%IPPOS*%
%AMOC8*
5,1,8,0,0,1.08239X$1,22.5*%
G01*
%ADD10R,1.600000X0.350000*%
%ADD11R,1.000000X0.900000*%
%ADD12R,1.500000X1.600000*%


D10*
X507453Y331419D03*
X507453Y324919D03*
X507453Y318419D03*
X507453Y311919D03*
X507453Y305419D03*
X507453Y298919D03*
X507453Y292419D03*
X507453Y285919D03*
X507453Y279419D03*
X507453Y272919D03*
X507453Y266419D03*
X507453Y259919D03*
X507453Y253419D03*
X507453Y246919D03*
X451453Y331419D03*
X451453Y324919D03*
X451453Y318419D03*
X451453Y311919D03*
X451453Y305419D03*
X451453Y298919D03*
X451453Y292419D03*
X451453Y285919D03*
X451453Y279419D03*
X451453Y272919D03*
X451453Y266419D03*
X451453Y259919D03*
X451453Y253419D03*
X451453Y246919D03*
D11*
X358664Y381728D03*
X358664Y360728D03*
X339664Y381728D03*
X339664Y360728D03*
D10*
X507256Y148626D03*
X451256Y148626D03*
X507256Y155126D03*
X507256Y161626D03*
X507256Y168126D03*
X507256Y142126D03*
X507256Y135626D03*
X507256Y129126D03*
X451256Y155126D03*
X451256Y161626D03*
X451256Y168126D03*
X451256Y142126D03*
X451256Y135626D03*
X451256Y129126D03*
D12*
X584843Y77209D03*
X606843Y77209D03*
X584843Y102609D03*
X606843Y102609D03*
M02*
