G04 EAGLE Gerber RS-274X export*
G75*
%MOMM*%
%FSLAX34Y34*%
%LPD*%
%INSoldermask Top*%
%IPPOS*%
%AMOC8*
5,1,8,0,0,1.08239X$1,22.5*%
G01*
%ADD10C,3.703200*%
%ADD11R,0.914400X1.168400*%
%ADD12R,1.168400X0.914400*%
%ADD13R,0.533200X0.803200*%
%ADD14R,0.803200X0.533200*%
%ADD15R,1.006400X1.953200*%
%ADD16R,1.803400X2.413000*%
%ADD17R,0.703200X1.003200*%
%ADD18R,1.003200X0.703200*%
%ADD19C,1.311200*%
%ADD20R,1.653200X1.006400*%
%ADD21R,1.953200X1.006400*%
%ADD22R,1.549400X1.549400*%
%ADD23C,1.549400*%
%ADD24C,1.727200*%
%ADD25R,1.203200X0.756400*%
%ADD26R,2.413000X1.803400*%
%ADD27C,1.209600*%


D10*
X365760Y35560D03*
X482600Y585470D03*
X530860Y36830D03*
X194310Y627380D03*
D11*
X282256Y497065D03*
X296734Y497065D03*
X243602Y48352D03*
X258080Y48352D03*
D12*
X606891Y369385D03*
X606891Y383863D03*
D11*
X283145Y456047D03*
X297623Y456047D03*
D13*
X295260Y542760D03*
X286960Y542760D03*
D14*
X418113Y304491D03*
X418113Y312791D03*
D13*
X346172Y394440D03*
X337872Y394440D03*
X425812Y294188D03*
X417512Y294188D03*
D12*
X475829Y312812D03*
X475829Y327290D03*
D15*
X558255Y382384D03*
X587287Y382384D03*
X586017Y354444D03*
X556985Y354444D03*
D16*
X397921Y295297D03*
X348645Y295297D03*
D17*
X560071Y312074D03*
X575071Y312074D03*
D18*
X538591Y344594D03*
X538591Y329594D03*
D14*
X538491Y351964D03*
X538491Y360264D03*
D19*
X271850Y478270D03*
X306850Y478270D03*
X273030Y563150D03*
X308030Y563150D03*
D14*
X556389Y77334D03*
X556389Y85634D03*
D19*
X281520Y47963D03*
X281520Y73363D03*
X281520Y98763D03*
X281520Y124163D03*
X281520Y149563D03*
X281520Y174963D03*
X281520Y200363D03*
X281520Y225763D03*
X281520Y251163D03*
X281520Y276563D03*
X281520Y301963D03*
X281520Y327363D03*
X281520Y352763D03*
X281520Y378163D03*
X256120Y378163D03*
X230720Y378163D03*
X205320Y378163D03*
X179920Y378163D03*
X154520Y378163D03*
X129120Y378163D03*
X129120Y352763D03*
X129120Y327363D03*
X129120Y301963D03*
X129120Y276563D03*
X129120Y251163D03*
X129120Y225763D03*
X129120Y200363D03*
X129120Y174963D03*
X129120Y149563D03*
X129120Y124163D03*
X129120Y98763D03*
X129120Y73363D03*
X129120Y47963D03*
D16*
X227379Y207414D03*
X178103Y207414D03*
X226568Y167640D03*
X177292Y167640D03*
X284020Y411911D03*
X234744Y411911D03*
X412346Y171990D03*
X363070Y171990D03*
X606057Y188247D03*
X556781Y188247D03*
X604660Y274706D03*
X555384Y274706D03*
X604533Y236141D03*
X555257Y236141D03*
X411980Y127307D03*
X362704Y127307D03*
X411795Y92928D03*
X362519Y92928D03*
X608679Y132682D03*
X559403Y132682D03*
X348956Y335970D03*
X398232Y335970D03*
D11*
X415647Y202443D03*
X401169Y202443D03*
D14*
X450823Y185900D03*
X450823Y194200D03*
D20*
X519519Y546193D03*
X519519Y564225D03*
X444509Y546286D03*
X444509Y564318D03*
D21*
X482305Y419134D03*
X482305Y390102D03*
X515771Y418966D03*
X515771Y389934D03*
D22*
X362749Y444995D03*
D23*
X388149Y419595D03*
X413549Y444995D03*
D22*
X361320Y534524D03*
D23*
X386720Y509124D03*
X412120Y534524D03*
D22*
X600303Y443041D03*
D23*
X574903Y468441D03*
X549503Y443041D03*
D22*
X601099Y534084D03*
D23*
X575699Y559484D03*
X550299Y534084D03*
D19*
X519025Y618790D03*
X549025Y618790D03*
X447368Y618780D03*
X417368Y618780D03*
D24*
X417200Y666870D02*
X417200Y682110D01*
X391800Y682110D02*
X391800Y666870D01*
X366400Y666870D02*
X366400Y682110D01*
X603080Y680250D02*
X603080Y665010D01*
X577680Y665010D02*
X577680Y680250D01*
X552280Y680250D02*
X552280Y665010D01*
X165580Y565620D02*
X150340Y565620D01*
X150340Y540220D02*
X165580Y540220D01*
X166850Y486880D02*
X151610Y486880D01*
X151610Y461480D02*
X166850Y461480D01*
X61328Y48035D02*
X46088Y48035D01*
X46088Y73435D02*
X61328Y73435D01*
X61328Y98835D02*
X46088Y98835D01*
X46088Y124235D02*
X61328Y124235D01*
X61328Y149635D02*
X46088Y149635D01*
X46088Y175035D02*
X61328Y175035D01*
X61328Y200435D02*
X46088Y200435D01*
X46088Y225835D02*
X61328Y225835D01*
X61328Y251235D02*
X46088Y251235D01*
D19*
X631558Y618028D03*
X601558Y618028D03*
X333143Y619034D03*
X363143Y619034D03*
D12*
X610706Y316642D03*
X610706Y331120D03*
X631190Y331089D03*
X631190Y316611D03*
D25*
X481706Y272806D03*
X481706Y289338D03*
D12*
X590126Y316052D03*
X590126Y330530D03*
D11*
X570360Y329214D03*
X555882Y329214D03*
D26*
X250038Y134581D03*
X250038Y85305D03*
D27*
X346710Y191770D03*
X203200Y187960D03*
X109220Y99060D03*
X407670Y217170D03*
X416560Y264160D03*
X398780Y264160D03*
X398780Y358140D03*
X342900Y163830D03*
X227330Y144780D03*
X218440Y227330D03*
X341630Y135890D03*
X327660Y288290D03*
X450850Y176530D03*
X567690Y77470D03*
X466090Y292100D03*
X434340Y299720D03*
X355600Y394970D03*
X458470Y236220D03*
X379730Y204470D03*
X66040Y350520D03*
X191770Y422910D03*
X115570Y631190D03*
X275590Y632460D03*
X487680Y692150D03*
X571500Y588010D03*
X502920Y477520D03*
X391160Y575310D03*
X201930Y71120D03*
X467360Y55880D03*
X483870Y209550D03*
X632460Y288290D03*
X429260Y311150D03*
X387350Y400050D03*
X605790Y400050D03*
X332740Y440690D03*
X422910Y327660D03*
X492760Y323850D03*
X490220Y304800D03*
X537210Y299720D03*
X525780Y289560D03*
X525780Y314960D03*
X466090Y266700D03*
X488950Y256540D03*
X435610Y255270D03*
X521970Y207010D03*
X443230Y236220D03*
X530860Y139700D03*
X435610Y287020D03*
X307340Y184150D03*
X429260Y152400D03*
X480060Y138430D03*
X307340Y171450D03*
X307340Y149860D03*
X529590Y166370D03*
X525780Y248920D03*
X508000Y236220D03*
X633730Y163830D03*
X553720Y154940D03*
X430530Y129540D03*
X448310Y120650D03*
X201930Y313690D03*
X298450Y93980D03*
X331470Y347980D03*
X624840Y113030D03*
X435610Y170180D03*
X433197Y366141D03*
X469900Y344170D03*
X515620Y443230D03*
X463550Y419100D03*
X524510Y345440D03*
X506730Y344170D03*
X227330Y298450D03*
X204470Y300990D03*
X247650Y299720D03*
X530860Y105410D03*
M02*
