G04 EAGLE Gerber RS-274X export*
G75*
%MOMM*%
%FSLAX34Y34*%
%LPD*%
%INBottom Copper*%
%IPPOS*%
%AMOC8*
5,1,8,0,0,1.08239X$1,22.5*%
G01*
%ADD10C,1.524000*%
%ADD11C,1.508000*%
%ADD12C,0.756400*%
%ADD13C,0.254000*%

G36*
X573637Y9578D02*
X573637Y9578D01*
X573776Y9591D01*
X573795Y9598D01*
X573815Y9601D01*
X573944Y9652D01*
X574075Y9699D01*
X574092Y9710D01*
X574111Y9718D01*
X574223Y9799D01*
X574338Y9877D01*
X574352Y9893D01*
X574368Y9904D01*
X574457Y10012D01*
X574549Y10116D01*
X574558Y10134D01*
X574571Y10149D01*
X574630Y10275D01*
X574693Y10399D01*
X574698Y10419D01*
X574706Y10437D01*
X574733Y10573D01*
X574763Y10709D01*
X574762Y10730D01*
X574766Y10749D01*
X574758Y10888D01*
X574753Y11027D01*
X574748Y11047D01*
X574746Y11067D01*
X574704Y11199D01*
X574665Y11333D01*
X574655Y11350D01*
X574648Y11369D01*
X574574Y11487D01*
X574503Y11607D01*
X574485Y11628D01*
X574478Y11638D01*
X574463Y11652D01*
X574397Y11727D01*
X570266Y15858D01*
X567020Y21481D01*
X565339Y27753D01*
X565339Y34247D01*
X567020Y40519D01*
X570266Y46142D01*
X574858Y50734D01*
X580481Y53980D01*
X586753Y55661D01*
X593247Y55661D01*
X599519Y53980D01*
X605142Y50734D01*
X609773Y46103D01*
X609882Y46018D01*
X609989Y45929D01*
X610008Y45920D01*
X610024Y45908D01*
X610152Y45853D01*
X610277Y45794D01*
X610297Y45790D01*
X610316Y45782D01*
X610454Y45760D01*
X610590Y45734D01*
X610610Y45735D01*
X610630Y45732D01*
X610769Y45745D01*
X610907Y45754D01*
X610926Y45760D01*
X610946Y45762D01*
X611078Y45809D01*
X611209Y45852D01*
X611227Y45862D01*
X611246Y45869D01*
X611361Y45947D01*
X611478Y46022D01*
X611492Y46037D01*
X611509Y46048D01*
X611601Y46152D01*
X611696Y46253D01*
X611706Y46271D01*
X611719Y46286D01*
X611783Y46410D01*
X611850Y46532D01*
X611855Y46551D01*
X611864Y46570D01*
X611894Y46705D01*
X611929Y46840D01*
X611931Y46868D01*
X611934Y46880D01*
X611933Y46900D01*
X611939Y47000D01*
X611939Y632370D01*
X611924Y632488D01*
X611917Y632607D01*
X611904Y632645D01*
X611899Y632686D01*
X611856Y632796D01*
X611819Y632909D01*
X611797Y632944D01*
X611782Y632981D01*
X611713Y633077D01*
X611649Y633178D01*
X611619Y633206D01*
X611596Y633239D01*
X611504Y633315D01*
X611417Y633396D01*
X611382Y633416D01*
X611351Y633441D01*
X611243Y633492D01*
X611139Y633550D01*
X611099Y633560D01*
X611063Y633577D01*
X610946Y633599D01*
X610831Y633629D01*
X610771Y633633D01*
X610751Y633637D01*
X610730Y633635D01*
X610670Y633639D01*
X11430Y633639D01*
X11312Y633624D01*
X11193Y633617D01*
X11155Y633604D01*
X11114Y633599D01*
X11004Y633556D01*
X10891Y633519D01*
X10856Y633497D01*
X10819Y633482D01*
X10723Y633413D01*
X10622Y633349D01*
X10594Y633319D01*
X10561Y633296D01*
X10485Y633204D01*
X10404Y633117D01*
X10384Y633082D01*
X10359Y633051D01*
X10308Y632943D01*
X10250Y632839D01*
X10240Y632799D01*
X10223Y632763D01*
X10201Y632646D01*
X10171Y632531D01*
X10167Y632471D01*
X10163Y632451D01*
X10165Y632430D01*
X10161Y632370D01*
X10161Y49100D01*
X10178Y48963D01*
X10191Y48824D01*
X10198Y48805D01*
X10201Y48785D01*
X10252Y48656D01*
X10299Y48525D01*
X10310Y48508D01*
X10318Y48489D01*
X10399Y48377D01*
X10477Y48262D01*
X10493Y48248D01*
X10504Y48232D01*
X10612Y48143D01*
X10716Y48051D01*
X10734Y48042D01*
X10749Y48029D01*
X10875Y47970D01*
X10999Y47907D01*
X11019Y47902D01*
X11037Y47894D01*
X11173Y47867D01*
X11309Y47837D01*
X11330Y47838D01*
X11349Y47834D01*
X11488Y47842D01*
X11627Y47847D01*
X11647Y47852D01*
X11667Y47854D01*
X11799Y47896D01*
X11933Y47935D01*
X11950Y47945D01*
X11969Y47952D01*
X12087Y48026D01*
X12207Y48097D01*
X12228Y48115D01*
X12238Y48122D01*
X12252Y48137D01*
X12327Y48203D01*
X14858Y50734D01*
X20481Y53980D01*
X26753Y55661D01*
X33247Y55661D01*
X39519Y53980D01*
X45142Y50734D01*
X49734Y46142D01*
X52980Y40519D01*
X54661Y34247D01*
X54661Y27753D01*
X52980Y21481D01*
X49734Y15858D01*
X45603Y11727D01*
X45518Y11618D01*
X45429Y11511D01*
X45420Y11492D01*
X45408Y11476D01*
X45353Y11348D01*
X45294Y11223D01*
X45290Y11203D01*
X45282Y11184D01*
X45260Y11046D01*
X45234Y10910D01*
X45235Y10890D01*
X45232Y10870D01*
X45245Y10731D01*
X45254Y10593D01*
X45260Y10574D01*
X45262Y10554D01*
X45309Y10422D01*
X45352Y10291D01*
X45362Y10273D01*
X45369Y10254D01*
X45447Y10139D01*
X45522Y10022D01*
X45537Y10008D01*
X45548Y9991D01*
X45652Y9899D01*
X45753Y9804D01*
X45771Y9794D01*
X45786Y9781D01*
X45910Y9717D01*
X46032Y9650D01*
X46051Y9645D01*
X46070Y9636D01*
X46205Y9606D01*
X46340Y9571D01*
X46368Y9569D01*
X46380Y9566D01*
X46400Y9567D01*
X46500Y9561D01*
X573500Y9561D01*
X573637Y9578D01*
G37*
%LPC*%
G36*
X61176Y195995D02*
X61176Y195995D01*
X56881Y197774D01*
X53594Y201061D01*
X51815Y205356D01*
X51815Y225244D01*
X53594Y229539D01*
X56881Y232826D01*
X57382Y233033D01*
X57407Y233048D01*
X57435Y233057D01*
X57545Y233126D01*
X57658Y233191D01*
X57679Y233211D01*
X57704Y233227D01*
X57793Y233322D01*
X57886Y233412D01*
X57902Y233437D01*
X57922Y233459D01*
X57962Y233530D01*
X57967Y233537D01*
X57979Y233561D01*
X57985Y233573D01*
X58053Y233683D01*
X58061Y233711D01*
X58076Y233737D01*
X58093Y233803D01*
X58103Y233825D01*
X58114Y233881D01*
X58146Y233987D01*
X58148Y234017D01*
X58155Y234045D01*
X58160Y234124D01*
X58163Y234137D01*
X58162Y234152D01*
X58165Y234206D01*
X58165Y483061D01*
X58977Y485022D01*
X187478Y613523D01*
X189439Y614335D01*
X282061Y614335D01*
X284022Y613523D01*
X347423Y550122D01*
X348235Y548161D01*
X348235Y489620D01*
X348243Y489551D01*
X348242Y489481D01*
X348263Y489393D01*
X348275Y489304D01*
X348300Y489239D01*
X348317Y489172D01*
X348359Y489092D01*
X348392Y489009D01*
X348433Y488952D01*
X348465Y488891D01*
X348526Y488824D01*
X348578Y488751D01*
X348632Y488707D01*
X348679Y488655D01*
X348754Y488606D01*
X348823Y488549D01*
X348887Y488519D01*
X348945Y488480D01*
X349030Y488451D01*
X349111Y488413D01*
X349180Y488400D01*
X349246Y488377D01*
X349335Y488370D01*
X349423Y488353D01*
X349493Y488358D01*
X349563Y488352D01*
X349651Y488367D01*
X349741Y488373D01*
X349807Y488394D01*
X349876Y488406D01*
X349958Y488443D01*
X350043Y488471D01*
X350102Y488508D01*
X350166Y488537D01*
X350236Y488593D01*
X350312Y488641D01*
X350360Y488692D01*
X350414Y488736D01*
X350469Y488807D01*
X350530Y488873D01*
X350564Y488934D01*
X350606Y488990D01*
X350677Y489134D01*
X351077Y490102D01*
X352757Y491781D01*
X356609Y495633D01*
X356627Y495657D01*
X356649Y495676D01*
X356724Y495782D01*
X356804Y495884D01*
X356815Y495912D01*
X356832Y495936D01*
X356878Y496057D01*
X356930Y496176D01*
X356935Y496205D01*
X356945Y496233D01*
X356959Y496362D01*
X356980Y496490D01*
X356977Y496520D01*
X356980Y496549D01*
X356962Y496678D01*
X356950Y496807D01*
X356940Y496835D01*
X356936Y496864D01*
X356884Y497016D01*
X356695Y497472D01*
X356695Y502088D01*
X358462Y506354D01*
X361726Y509618D01*
X365805Y511307D01*
X365925Y511376D01*
X366049Y511441D01*
X366064Y511455D01*
X366081Y511465D01*
X366181Y511562D01*
X366284Y511655D01*
X366295Y511672D01*
X366310Y511686D01*
X366382Y511804D01*
X366459Y511921D01*
X366465Y511940D01*
X366476Y511957D01*
X366517Y512090D01*
X366562Y512222D01*
X366564Y512242D01*
X366569Y512261D01*
X366576Y512400D01*
X366587Y512539D01*
X366584Y512559D01*
X366585Y512579D01*
X366556Y512715D01*
X366533Y512852D01*
X366524Y512871D01*
X366520Y512890D01*
X366459Y513015D01*
X366402Y513142D01*
X366390Y513158D01*
X366381Y513176D01*
X366290Y513282D01*
X366204Y513390D01*
X366187Y513403D01*
X366174Y513418D01*
X366061Y513498D01*
X365949Y513582D01*
X365924Y513594D01*
X365914Y513601D01*
X365895Y513608D01*
X365805Y513653D01*
X361726Y515342D01*
X358462Y518606D01*
X356695Y522872D01*
X356695Y527488D01*
X358462Y531754D01*
X361726Y535018D01*
X365805Y536707D01*
X365925Y536776D01*
X366049Y536841D01*
X366064Y536855D01*
X366081Y536865D01*
X366181Y536962D01*
X366284Y537055D01*
X366295Y537072D01*
X366310Y537086D01*
X366382Y537204D01*
X366459Y537321D01*
X366465Y537340D01*
X366476Y537357D01*
X366517Y537490D01*
X366562Y537622D01*
X366564Y537642D01*
X366569Y537661D01*
X366576Y537800D01*
X366587Y537939D01*
X366584Y537959D01*
X366585Y537979D01*
X366556Y538115D01*
X366533Y538252D01*
X366524Y538271D01*
X366520Y538290D01*
X366459Y538415D01*
X366402Y538542D01*
X366390Y538558D01*
X366381Y538576D01*
X366290Y538682D01*
X366204Y538790D01*
X366187Y538803D01*
X366174Y538818D01*
X366061Y538898D01*
X365949Y538982D01*
X365924Y538994D01*
X365914Y539001D01*
X365895Y539008D01*
X365805Y539053D01*
X361726Y540742D01*
X358462Y544006D01*
X356695Y548272D01*
X356695Y552888D01*
X358462Y557154D01*
X361726Y560418D01*
X365992Y562185D01*
X370608Y562185D01*
X374874Y560418D01*
X378138Y557154D01*
X378327Y556698D01*
X378341Y556673D01*
X378350Y556645D01*
X378420Y556535D01*
X378484Y556422D01*
X378505Y556401D01*
X378520Y556376D01*
X378615Y556287D01*
X378705Y556194D01*
X378731Y556178D01*
X378752Y556158D01*
X378866Y556095D01*
X378977Y556027D01*
X379005Y556019D01*
X379031Y556004D01*
X379156Y555972D01*
X379280Y555934D01*
X379310Y555932D01*
X379339Y555925D01*
X379499Y555915D01*
X381281Y555915D01*
X383242Y555103D01*
X499823Y438522D01*
X500635Y436561D01*
X500635Y234206D01*
X500638Y234176D01*
X500636Y234147D01*
X500653Y234052D01*
X500657Y233981D01*
X500667Y233950D01*
X500675Y233890D01*
X500685Y233863D01*
X500690Y233834D01*
X500741Y233721D01*
X500755Y233679D01*
X500764Y233665D01*
X500792Y233595D01*
X500809Y233571D01*
X500821Y233544D01*
X500902Y233442D01*
X500922Y233415D01*
X500925Y233410D01*
X500927Y233408D01*
X500978Y233337D01*
X501001Y233318D01*
X501020Y233295D01*
X501123Y233217D01*
X501223Y233134D01*
X501250Y233122D01*
X501274Y233104D01*
X501418Y233033D01*
X501919Y232826D01*
X505206Y229539D01*
X506985Y225244D01*
X506985Y205356D01*
X505206Y201061D01*
X501919Y197774D01*
X497624Y195995D01*
X492976Y195995D01*
X488681Y197774D01*
X485394Y201061D01*
X483773Y204976D01*
X483704Y205096D01*
X483639Y205220D01*
X483625Y205234D01*
X483615Y205252D01*
X483518Y205352D01*
X483425Y205455D01*
X483408Y205466D01*
X483394Y205481D01*
X483276Y205553D01*
X483159Y205630D01*
X483140Y205636D01*
X483123Y205647D01*
X482990Y205688D01*
X482858Y205733D01*
X482838Y205734D01*
X482819Y205740D01*
X482680Y205747D01*
X482541Y205758D01*
X482521Y205755D01*
X482501Y205756D01*
X482365Y205727D01*
X482228Y205704D01*
X482210Y205695D01*
X482190Y205691D01*
X482064Y205630D01*
X481938Y205573D01*
X481922Y205560D01*
X481904Y205552D01*
X481798Y205461D01*
X481690Y205374D01*
X481677Y205358D01*
X481662Y205345D01*
X481582Y205231D01*
X481498Y205120D01*
X481486Y205095D01*
X481479Y205085D01*
X481472Y205066D01*
X481427Y204976D01*
X479806Y201061D01*
X476519Y197774D01*
X472224Y195995D01*
X467576Y195995D01*
X463281Y197774D01*
X459994Y201061D01*
X458373Y204976D01*
X458304Y205096D01*
X458239Y205220D01*
X458225Y205234D01*
X458215Y205252D01*
X458118Y205352D01*
X458025Y205455D01*
X458008Y205466D01*
X457994Y205481D01*
X457876Y205553D01*
X457759Y205630D01*
X457740Y205636D01*
X457723Y205647D01*
X457590Y205688D01*
X457458Y205733D01*
X457438Y205734D01*
X457419Y205740D01*
X457280Y205747D01*
X457141Y205758D01*
X457121Y205755D01*
X457101Y205756D01*
X456965Y205727D01*
X456828Y205704D01*
X456810Y205695D01*
X456790Y205691D01*
X456664Y205630D01*
X456538Y205573D01*
X456522Y205560D01*
X456504Y205552D01*
X456398Y205461D01*
X456290Y205374D01*
X456277Y205358D01*
X456262Y205345D01*
X456182Y205231D01*
X456098Y205120D01*
X456086Y205095D01*
X456079Y205085D01*
X456072Y205066D01*
X456027Y204976D01*
X454406Y201061D01*
X451119Y197774D01*
X446824Y195995D01*
X442176Y195995D01*
X437881Y197774D01*
X434594Y201061D01*
X432973Y204976D01*
X432904Y205096D01*
X432839Y205220D01*
X432825Y205234D01*
X432815Y205252D01*
X432718Y205352D01*
X432625Y205455D01*
X432608Y205466D01*
X432594Y205481D01*
X432476Y205553D01*
X432359Y205630D01*
X432340Y205636D01*
X432323Y205647D01*
X432190Y205688D01*
X432058Y205733D01*
X432038Y205734D01*
X432019Y205740D01*
X431880Y205747D01*
X431741Y205758D01*
X431721Y205755D01*
X431701Y205756D01*
X431565Y205727D01*
X431428Y205704D01*
X431410Y205695D01*
X431390Y205691D01*
X431264Y205630D01*
X431138Y205573D01*
X431122Y205560D01*
X431104Y205552D01*
X430998Y205461D01*
X430890Y205374D01*
X430877Y205358D01*
X430862Y205345D01*
X430782Y205231D01*
X430698Y205120D01*
X430686Y205095D01*
X430679Y205085D01*
X430672Y205066D01*
X430627Y204976D01*
X429006Y201061D01*
X425719Y197774D01*
X421424Y195995D01*
X416776Y195995D01*
X412481Y197774D01*
X409194Y201061D01*
X407573Y204976D01*
X407504Y205096D01*
X407439Y205220D01*
X407425Y205234D01*
X407415Y205252D01*
X407318Y205352D01*
X407225Y205455D01*
X407208Y205466D01*
X407194Y205481D01*
X407076Y205553D01*
X406959Y205630D01*
X406940Y205636D01*
X406923Y205647D01*
X406790Y205688D01*
X406658Y205733D01*
X406638Y205734D01*
X406619Y205740D01*
X406480Y205747D01*
X406341Y205758D01*
X406321Y205755D01*
X406301Y205756D01*
X406165Y205727D01*
X406028Y205704D01*
X406010Y205695D01*
X405990Y205691D01*
X405864Y205630D01*
X405738Y205573D01*
X405722Y205560D01*
X405704Y205552D01*
X405598Y205461D01*
X405490Y205374D01*
X405477Y205358D01*
X405462Y205345D01*
X405382Y205231D01*
X405298Y205120D01*
X405286Y205095D01*
X405279Y205085D01*
X405272Y205066D01*
X405227Y204976D01*
X403606Y201061D01*
X400319Y197774D01*
X396024Y195995D01*
X391376Y195995D01*
X387081Y197774D01*
X383794Y201061D01*
X382173Y204976D01*
X382104Y205096D01*
X382039Y205220D01*
X382025Y205234D01*
X382015Y205252D01*
X381918Y205352D01*
X381825Y205455D01*
X381808Y205466D01*
X381794Y205481D01*
X381676Y205553D01*
X381559Y205630D01*
X381540Y205636D01*
X381523Y205647D01*
X381390Y205688D01*
X381258Y205733D01*
X381238Y205734D01*
X381219Y205740D01*
X381080Y205747D01*
X380941Y205758D01*
X380921Y205755D01*
X380901Y205756D01*
X380765Y205727D01*
X380628Y205704D01*
X380610Y205695D01*
X380590Y205691D01*
X380464Y205630D01*
X380338Y205573D01*
X380322Y205560D01*
X380304Y205552D01*
X380198Y205461D01*
X380090Y205374D01*
X380077Y205358D01*
X380062Y205345D01*
X379982Y205231D01*
X379898Y205120D01*
X379886Y205095D01*
X379879Y205085D01*
X379872Y205066D01*
X379827Y204976D01*
X378206Y201061D01*
X374919Y197774D01*
X370624Y195995D01*
X365976Y195995D01*
X361681Y197774D01*
X358394Y201061D01*
X356773Y204976D01*
X356704Y205096D01*
X356639Y205220D01*
X356625Y205234D01*
X356615Y205252D01*
X356518Y205352D01*
X356425Y205455D01*
X356408Y205466D01*
X356394Y205481D01*
X356276Y205553D01*
X356159Y205630D01*
X356140Y205636D01*
X356123Y205647D01*
X355990Y205688D01*
X355858Y205733D01*
X355838Y205734D01*
X355819Y205740D01*
X355680Y205747D01*
X355541Y205758D01*
X355521Y205755D01*
X355501Y205756D01*
X355365Y205727D01*
X355228Y205704D01*
X355210Y205695D01*
X355190Y205691D01*
X355064Y205630D01*
X354938Y205573D01*
X354922Y205560D01*
X354904Y205552D01*
X354798Y205461D01*
X354690Y205374D01*
X354677Y205358D01*
X354662Y205345D01*
X354582Y205231D01*
X354498Y205120D01*
X354486Y205095D01*
X354479Y205085D01*
X354472Y205066D01*
X354427Y204976D01*
X352806Y201061D01*
X349519Y197774D01*
X345224Y195995D01*
X340576Y195995D01*
X336281Y197774D01*
X332994Y201061D01*
X331373Y204976D01*
X331304Y205096D01*
X331239Y205220D01*
X331225Y205234D01*
X331215Y205252D01*
X331118Y205352D01*
X331025Y205455D01*
X331008Y205466D01*
X330994Y205481D01*
X330876Y205553D01*
X330759Y205630D01*
X330740Y205636D01*
X330723Y205647D01*
X330590Y205688D01*
X330458Y205733D01*
X330438Y205734D01*
X330419Y205740D01*
X330280Y205747D01*
X330141Y205758D01*
X330121Y205755D01*
X330101Y205756D01*
X329965Y205727D01*
X329828Y205704D01*
X329810Y205695D01*
X329790Y205691D01*
X329664Y205630D01*
X329538Y205573D01*
X329522Y205560D01*
X329504Y205552D01*
X329398Y205461D01*
X329290Y205374D01*
X329277Y205358D01*
X329262Y205345D01*
X329182Y205231D01*
X329098Y205120D01*
X329086Y205095D01*
X329079Y205085D01*
X329072Y205066D01*
X329027Y204976D01*
X327406Y201061D01*
X324119Y197774D01*
X319824Y195995D01*
X315176Y195995D01*
X310881Y197774D01*
X307594Y201061D01*
X305973Y204976D01*
X305904Y205096D01*
X305839Y205220D01*
X305825Y205234D01*
X305815Y205252D01*
X305718Y205352D01*
X305625Y205455D01*
X305608Y205466D01*
X305594Y205481D01*
X305476Y205553D01*
X305359Y205630D01*
X305340Y205636D01*
X305323Y205647D01*
X305190Y205688D01*
X305058Y205733D01*
X305038Y205734D01*
X305019Y205740D01*
X304880Y205747D01*
X304741Y205758D01*
X304721Y205755D01*
X304701Y205756D01*
X304565Y205727D01*
X304428Y205704D01*
X304410Y205695D01*
X304390Y205691D01*
X304264Y205630D01*
X304138Y205573D01*
X304122Y205560D01*
X304104Y205552D01*
X303998Y205461D01*
X303890Y205374D01*
X303877Y205358D01*
X303862Y205345D01*
X303782Y205231D01*
X303698Y205120D01*
X303686Y205095D01*
X303679Y205085D01*
X303672Y205066D01*
X303627Y204976D01*
X302006Y201061D01*
X298719Y197774D01*
X294424Y195995D01*
X289776Y195995D01*
X285481Y197774D01*
X282194Y201061D01*
X280573Y204976D01*
X280504Y205096D01*
X280439Y205220D01*
X280425Y205234D01*
X280415Y205252D01*
X280318Y205352D01*
X280225Y205455D01*
X280208Y205466D01*
X280194Y205481D01*
X280076Y205553D01*
X279959Y205630D01*
X279940Y205636D01*
X279923Y205647D01*
X279790Y205688D01*
X279658Y205733D01*
X279638Y205734D01*
X279619Y205740D01*
X279480Y205747D01*
X279341Y205758D01*
X279321Y205755D01*
X279301Y205756D01*
X279165Y205727D01*
X279028Y205704D01*
X279010Y205695D01*
X278990Y205691D01*
X278864Y205630D01*
X278738Y205573D01*
X278722Y205560D01*
X278704Y205552D01*
X278598Y205461D01*
X278490Y205374D01*
X278477Y205358D01*
X278462Y205345D01*
X278382Y205231D01*
X278298Y205120D01*
X278286Y205095D01*
X278279Y205085D01*
X278272Y205066D01*
X278227Y204976D01*
X276606Y201061D01*
X273319Y197774D01*
X269024Y195995D01*
X264376Y195995D01*
X260081Y197774D01*
X256794Y201061D01*
X255173Y204976D01*
X255104Y205096D01*
X255039Y205220D01*
X255025Y205234D01*
X255015Y205252D01*
X254918Y205352D01*
X254825Y205455D01*
X254808Y205466D01*
X254794Y205481D01*
X254676Y205553D01*
X254559Y205630D01*
X254540Y205636D01*
X254523Y205647D01*
X254390Y205688D01*
X254258Y205733D01*
X254238Y205734D01*
X254219Y205740D01*
X254080Y205747D01*
X253941Y205758D01*
X253921Y205755D01*
X253901Y205756D01*
X253765Y205727D01*
X253628Y205704D01*
X253610Y205695D01*
X253590Y205691D01*
X253464Y205630D01*
X253338Y205573D01*
X253322Y205560D01*
X253304Y205552D01*
X253198Y205461D01*
X253090Y205374D01*
X253077Y205358D01*
X253062Y205345D01*
X252982Y205231D01*
X252898Y205120D01*
X252886Y205095D01*
X252879Y205085D01*
X252872Y205066D01*
X252827Y204976D01*
X251206Y201061D01*
X247919Y197774D01*
X243624Y195995D01*
X238976Y195995D01*
X234681Y197774D01*
X231394Y201061D01*
X229773Y204976D01*
X229704Y205096D01*
X229639Y205220D01*
X229625Y205234D01*
X229615Y205252D01*
X229518Y205352D01*
X229425Y205455D01*
X229408Y205466D01*
X229394Y205481D01*
X229276Y205553D01*
X229159Y205630D01*
X229140Y205636D01*
X229123Y205647D01*
X228990Y205688D01*
X228858Y205733D01*
X228838Y205734D01*
X228819Y205740D01*
X228680Y205747D01*
X228541Y205758D01*
X228521Y205755D01*
X228501Y205756D01*
X228365Y205727D01*
X228228Y205704D01*
X228210Y205695D01*
X228190Y205691D01*
X228064Y205630D01*
X227938Y205573D01*
X227922Y205560D01*
X227904Y205552D01*
X227798Y205461D01*
X227690Y205374D01*
X227677Y205358D01*
X227662Y205345D01*
X227582Y205231D01*
X227498Y205120D01*
X227486Y205095D01*
X227479Y205085D01*
X227472Y205066D01*
X227427Y204976D01*
X225806Y201061D01*
X222519Y197774D01*
X218224Y195995D01*
X213576Y195995D01*
X209281Y197774D01*
X205994Y201061D01*
X204373Y204976D01*
X204304Y205096D01*
X204239Y205219D01*
X204225Y205234D01*
X204215Y205252D01*
X204118Y205352D01*
X204025Y205455D01*
X204008Y205466D01*
X203994Y205480D01*
X203876Y205553D01*
X203759Y205630D01*
X203740Y205636D01*
X203723Y205647D01*
X203590Y205688D01*
X203458Y205733D01*
X203438Y205734D01*
X203419Y205740D01*
X203280Y205747D01*
X203141Y205758D01*
X203121Y205755D01*
X203101Y205755D01*
X202965Y205727D01*
X202828Y205704D01*
X202810Y205695D01*
X202790Y205691D01*
X202664Y205630D01*
X202538Y205573D01*
X202522Y205560D01*
X202504Y205551D01*
X202398Y205461D01*
X202290Y205374D01*
X202277Y205358D01*
X202262Y205345D01*
X202182Y205231D01*
X202098Y205120D01*
X202086Y205095D01*
X202079Y205085D01*
X202072Y205066D01*
X202027Y204976D01*
X200406Y201061D01*
X197119Y197774D01*
X192824Y195995D01*
X188176Y195995D01*
X183881Y197774D01*
X180594Y201061D01*
X178973Y204976D01*
X178904Y205096D01*
X178839Y205219D01*
X178825Y205234D01*
X178815Y205252D01*
X178718Y205352D01*
X178625Y205455D01*
X178608Y205466D01*
X178594Y205480D01*
X178476Y205553D01*
X178359Y205630D01*
X178340Y205636D01*
X178323Y205647D01*
X178190Y205688D01*
X178058Y205733D01*
X178038Y205734D01*
X178019Y205740D01*
X177880Y205747D01*
X177741Y205758D01*
X177721Y205755D01*
X177701Y205755D01*
X177565Y205727D01*
X177428Y205704D01*
X177410Y205695D01*
X177390Y205691D01*
X177264Y205630D01*
X177138Y205573D01*
X177122Y205560D01*
X177104Y205551D01*
X176998Y205461D01*
X176890Y205374D01*
X176877Y205358D01*
X176862Y205345D01*
X176782Y205231D01*
X176698Y205120D01*
X176686Y205095D01*
X176679Y205085D01*
X176672Y205066D01*
X176627Y204976D01*
X175006Y201061D01*
X171719Y197774D01*
X167424Y195995D01*
X162776Y195995D01*
X158481Y197774D01*
X155194Y201061D01*
X153573Y204976D01*
X153504Y205096D01*
X153439Y205219D01*
X153425Y205234D01*
X153415Y205252D01*
X153318Y205352D01*
X153225Y205455D01*
X153208Y205466D01*
X153194Y205480D01*
X153076Y205553D01*
X152959Y205630D01*
X152940Y205636D01*
X152923Y205647D01*
X152790Y205688D01*
X152658Y205733D01*
X152638Y205734D01*
X152619Y205740D01*
X152480Y205747D01*
X152341Y205758D01*
X152321Y205755D01*
X152301Y205755D01*
X152165Y205727D01*
X152028Y205704D01*
X152010Y205695D01*
X151990Y205691D01*
X151864Y205630D01*
X151738Y205573D01*
X151722Y205560D01*
X151704Y205551D01*
X151598Y205461D01*
X151490Y205374D01*
X151477Y205358D01*
X151462Y205345D01*
X151382Y205231D01*
X151298Y205120D01*
X151286Y205095D01*
X151279Y205085D01*
X151272Y205066D01*
X151227Y204976D01*
X149606Y201061D01*
X146319Y197774D01*
X142024Y195995D01*
X137376Y195995D01*
X133081Y197774D01*
X129794Y201061D01*
X128173Y204976D01*
X128104Y205096D01*
X128039Y205219D01*
X128025Y205234D01*
X128015Y205252D01*
X127918Y205352D01*
X127825Y205455D01*
X127808Y205466D01*
X127794Y205480D01*
X127676Y205553D01*
X127559Y205630D01*
X127540Y205636D01*
X127523Y205647D01*
X127390Y205688D01*
X127258Y205733D01*
X127238Y205734D01*
X127219Y205740D01*
X127080Y205747D01*
X126941Y205758D01*
X126921Y205755D01*
X126901Y205755D01*
X126765Y205727D01*
X126628Y205704D01*
X126610Y205695D01*
X126590Y205691D01*
X126464Y205630D01*
X126338Y205573D01*
X126322Y205560D01*
X126304Y205551D01*
X126198Y205461D01*
X126090Y205374D01*
X126077Y205358D01*
X126062Y205345D01*
X125982Y205231D01*
X125898Y205120D01*
X125886Y205095D01*
X125879Y205085D01*
X125872Y205066D01*
X125827Y204976D01*
X124206Y201061D01*
X120919Y197774D01*
X116624Y195995D01*
X111976Y195995D01*
X107681Y197774D01*
X104394Y201061D01*
X102773Y204976D01*
X102704Y205096D01*
X102639Y205219D01*
X102625Y205234D01*
X102615Y205252D01*
X102518Y205352D01*
X102425Y205455D01*
X102408Y205466D01*
X102394Y205480D01*
X102276Y205553D01*
X102159Y205630D01*
X102140Y205636D01*
X102123Y205647D01*
X101990Y205688D01*
X101858Y205733D01*
X101838Y205734D01*
X101819Y205740D01*
X101680Y205747D01*
X101541Y205758D01*
X101521Y205755D01*
X101501Y205755D01*
X101365Y205727D01*
X101228Y205704D01*
X101210Y205695D01*
X101190Y205691D01*
X101064Y205630D01*
X100938Y205573D01*
X100922Y205560D01*
X100904Y205551D01*
X100798Y205461D01*
X100690Y205374D01*
X100677Y205358D01*
X100662Y205345D01*
X100582Y205231D01*
X100498Y205120D01*
X100486Y205095D01*
X100479Y205085D01*
X100472Y205066D01*
X100427Y204976D01*
X98806Y201061D01*
X95519Y197774D01*
X91224Y195995D01*
X86576Y195995D01*
X82281Y197774D01*
X78994Y201061D01*
X77373Y204976D01*
X77304Y205096D01*
X77239Y205219D01*
X77225Y205234D01*
X77215Y205252D01*
X77118Y205352D01*
X77025Y205455D01*
X77008Y205466D01*
X76994Y205480D01*
X76876Y205553D01*
X76759Y205630D01*
X76740Y205636D01*
X76723Y205647D01*
X76590Y205688D01*
X76458Y205733D01*
X76438Y205734D01*
X76419Y205740D01*
X76280Y205747D01*
X76141Y205758D01*
X76121Y205755D01*
X76101Y205755D01*
X75965Y205727D01*
X75828Y205704D01*
X75810Y205695D01*
X75790Y205691D01*
X75664Y205630D01*
X75538Y205573D01*
X75522Y205560D01*
X75504Y205551D01*
X75398Y205461D01*
X75290Y205374D01*
X75277Y205358D01*
X75262Y205345D01*
X75182Y205231D01*
X75098Y205120D01*
X75086Y205095D01*
X75079Y205085D01*
X75072Y205066D01*
X75027Y204976D01*
X73406Y201061D01*
X70119Y197774D01*
X65824Y195995D01*
X61176Y195995D01*
G37*
%LPD*%
G36*
X152479Y224845D02*
X152479Y224845D01*
X152499Y224845D01*
X152635Y224873D01*
X152772Y224896D01*
X152791Y224905D01*
X152810Y224909D01*
X152936Y224970D01*
X153062Y225027D01*
X153078Y225040D01*
X153096Y225049D01*
X153202Y225139D01*
X153310Y225226D01*
X153323Y225242D01*
X153338Y225255D01*
X153418Y225369D01*
X153502Y225480D01*
X153514Y225505D01*
X153521Y225515D01*
X153528Y225534D01*
X153573Y225624D01*
X155194Y229539D01*
X158481Y232826D01*
X158982Y233033D01*
X159007Y233048D01*
X159035Y233057D01*
X159145Y233126D01*
X159258Y233191D01*
X159279Y233211D01*
X159304Y233227D01*
X159393Y233322D01*
X159486Y233412D01*
X159502Y233437D01*
X159522Y233459D01*
X159562Y233530D01*
X159567Y233537D01*
X159579Y233561D01*
X159585Y233573D01*
X159653Y233683D01*
X159661Y233711D01*
X159676Y233737D01*
X159693Y233803D01*
X159703Y233825D01*
X159714Y233881D01*
X159746Y233987D01*
X159748Y234017D01*
X159755Y234045D01*
X159760Y234124D01*
X159763Y234137D01*
X159762Y234152D01*
X159765Y234206D01*
X159765Y424641D01*
X160577Y426602D01*
X162257Y428281D01*
X229609Y495633D01*
X229627Y495657D01*
X229649Y495676D01*
X229724Y495782D01*
X229804Y495884D01*
X229815Y495912D01*
X229832Y495936D01*
X229878Y496057D01*
X229930Y496176D01*
X229935Y496205D01*
X229945Y496233D01*
X229959Y496362D01*
X229980Y496490D01*
X229977Y496520D01*
X229980Y496549D01*
X229962Y496678D01*
X229950Y496807D01*
X229940Y496835D01*
X229936Y496864D01*
X229884Y497016D01*
X229695Y497472D01*
X229695Y502088D01*
X231462Y506354D01*
X234726Y509618D01*
X238805Y511307D01*
X238926Y511376D01*
X239049Y511441D01*
X239064Y511455D01*
X239081Y511465D01*
X239181Y511562D01*
X239284Y511655D01*
X239295Y511672D01*
X239310Y511686D01*
X239383Y511805D01*
X239459Y511921D01*
X239465Y511940D01*
X239476Y511957D01*
X239517Y512090D01*
X239562Y512222D01*
X239563Y512242D01*
X239569Y512261D01*
X239576Y512400D01*
X239587Y512539D01*
X239584Y512559D01*
X239585Y512579D01*
X239556Y512715D01*
X239533Y512852D01*
X239524Y512871D01*
X239520Y512890D01*
X239459Y513016D01*
X239402Y513142D01*
X239390Y513158D01*
X239381Y513176D01*
X239290Y513282D01*
X239204Y513390D01*
X239187Y513403D01*
X239174Y513418D01*
X239060Y513498D01*
X238949Y513582D01*
X238924Y513594D01*
X238914Y513601D01*
X238895Y513608D01*
X238805Y513653D01*
X234726Y515342D01*
X231462Y518606D01*
X229695Y522872D01*
X229695Y527488D01*
X231462Y531754D01*
X234726Y535018D01*
X238992Y536785D01*
X243608Y536785D01*
X247874Y535018D01*
X251138Y531754D01*
X252905Y527488D01*
X252905Y522872D01*
X251138Y518606D01*
X247874Y515342D01*
X243795Y513653D01*
X243675Y513584D01*
X243551Y513519D01*
X243536Y513505D01*
X243519Y513495D01*
X243419Y513398D01*
X243316Y513305D01*
X243305Y513288D01*
X243290Y513274D01*
X243218Y513156D01*
X243141Y513039D01*
X243135Y513020D01*
X243124Y513003D01*
X243083Y512870D01*
X243038Y512738D01*
X243036Y512718D01*
X243031Y512699D01*
X243024Y512560D01*
X243013Y512421D01*
X243016Y512401D01*
X243015Y512381D01*
X243044Y512245D01*
X243067Y512108D01*
X243076Y512089D01*
X243080Y512070D01*
X243141Y511945D01*
X243198Y511818D01*
X243210Y511802D01*
X243219Y511784D01*
X243310Y511678D01*
X243396Y511570D01*
X243413Y511557D01*
X243426Y511542D01*
X243539Y511462D01*
X243651Y511378D01*
X243676Y511366D01*
X243686Y511359D01*
X243705Y511352D01*
X243795Y511307D01*
X247874Y509618D01*
X251138Y506354D01*
X252905Y502088D01*
X252905Y497472D01*
X251138Y493206D01*
X247874Y489942D01*
X243795Y488253D01*
X243675Y488184D01*
X243551Y488119D01*
X243536Y488105D01*
X243519Y488095D01*
X243419Y487998D01*
X243316Y487905D01*
X243305Y487888D01*
X243290Y487874D01*
X243218Y487756D01*
X243141Y487639D01*
X243135Y487620D01*
X243124Y487603D01*
X243083Y487470D01*
X243038Y487338D01*
X243036Y487318D01*
X243031Y487299D01*
X243024Y487160D01*
X243013Y487021D01*
X243016Y487001D01*
X243015Y486981D01*
X243044Y486845D01*
X243067Y486708D01*
X243076Y486689D01*
X243080Y486670D01*
X243141Y486545D01*
X243198Y486418D01*
X243210Y486402D01*
X243219Y486384D01*
X243310Y486278D01*
X243396Y486170D01*
X243413Y486157D01*
X243426Y486142D01*
X243539Y486062D01*
X243651Y485978D01*
X243676Y485966D01*
X243686Y485959D01*
X243705Y485952D01*
X243795Y485907D01*
X247874Y484218D01*
X251138Y480954D01*
X252905Y476688D01*
X252905Y472072D01*
X251138Y467806D01*
X247874Y464542D01*
X243795Y462853D01*
X243675Y462784D01*
X243551Y462719D01*
X243536Y462705D01*
X243519Y462695D01*
X243419Y462598D01*
X243316Y462505D01*
X243305Y462488D01*
X243290Y462474D01*
X243218Y462356D01*
X243141Y462239D01*
X243135Y462220D01*
X243124Y462203D01*
X243083Y462070D01*
X243038Y461938D01*
X243036Y461918D01*
X243031Y461899D01*
X243024Y461760D01*
X243013Y461621D01*
X243016Y461601D01*
X243015Y461581D01*
X243044Y461445D01*
X243067Y461308D01*
X243076Y461289D01*
X243080Y461270D01*
X243141Y461145D01*
X243198Y461018D01*
X243210Y461002D01*
X243219Y460984D01*
X243310Y460878D01*
X243396Y460770D01*
X243413Y460757D01*
X243426Y460742D01*
X243539Y460662D01*
X243651Y460578D01*
X243676Y460566D01*
X243686Y460559D01*
X243705Y460552D01*
X243795Y460507D01*
X247874Y458818D01*
X251138Y455554D01*
X252905Y451288D01*
X252905Y446672D01*
X251138Y442406D01*
X247874Y439142D01*
X243795Y437453D01*
X243675Y437384D01*
X243551Y437319D01*
X243536Y437305D01*
X243519Y437295D01*
X243419Y437198D01*
X243316Y437105D01*
X243305Y437088D01*
X243290Y437074D01*
X243218Y436956D01*
X243141Y436839D01*
X243135Y436820D01*
X243124Y436803D01*
X243083Y436670D01*
X243038Y436538D01*
X243036Y436518D01*
X243031Y436499D01*
X243024Y436360D01*
X243013Y436221D01*
X243016Y436201D01*
X243015Y436181D01*
X243044Y436045D01*
X243067Y435908D01*
X243076Y435889D01*
X243080Y435870D01*
X243141Y435745D01*
X243198Y435618D01*
X243210Y435602D01*
X243219Y435584D01*
X243310Y435478D01*
X243396Y435370D01*
X243413Y435357D01*
X243426Y435342D01*
X243539Y435262D01*
X243651Y435178D01*
X243676Y435166D01*
X243686Y435159D01*
X243705Y435152D01*
X243795Y435107D01*
X247874Y433418D01*
X251138Y430154D01*
X251327Y429698D01*
X251341Y429673D01*
X251350Y429645D01*
X251420Y429535D01*
X251484Y429422D01*
X251505Y429401D01*
X251520Y429376D01*
X251615Y429287D01*
X251705Y429194D01*
X251731Y429178D01*
X251752Y429158D01*
X251866Y429095D01*
X251977Y429027D01*
X252005Y429019D01*
X252031Y429004D01*
X252156Y428972D01*
X252280Y428934D01*
X252310Y428932D01*
X252339Y428925D01*
X252499Y428915D01*
X288081Y428915D01*
X290042Y428103D01*
X294943Y423201D01*
X296623Y421522D01*
X297023Y420554D01*
X297058Y420493D01*
X297084Y420429D01*
X297136Y420356D01*
X297181Y420278D01*
X297229Y420228D01*
X297270Y420171D01*
X297340Y420114D01*
X297402Y420050D01*
X297462Y420013D01*
X297515Y419969D01*
X297597Y419930D01*
X297673Y419883D01*
X297740Y419863D01*
X297803Y419833D01*
X297891Y419816D01*
X297977Y419790D01*
X298047Y419786D01*
X298116Y419773D01*
X298205Y419779D01*
X298295Y419774D01*
X298363Y419789D01*
X298433Y419793D01*
X298518Y419821D01*
X298606Y419839D01*
X298669Y419869D01*
X298735Y419891D01*
X298811Y419939D01*
X298892Y419979D01*
X298945Y420024D01*
X299004Y420061D01*
X299066Y420127D01*
X299134Y420185D01*
X299174Y420242D01*
X299222Y420293D01*
X299265Y420371D01*
X299317Y420445D01*
X299342Y420510D01*
X299376Y420571D01*
X299398Y420658D01*
X299430Y420742D01*
X299438Y420812D01*
X299455Y420879D01*
X299465Y421040D01*
X299465Y512465D01*
X299453Y512563D01*
X299450Y512662D01*
X299433Y512720D01*
X299425Y512780D01*
X299389Y512872D01*
X299361Y512967D01*
X299331Y513019D01*
X299308Y513076D01*
X299250Y513156D01*
X299200Y513241D01*
X299134Y513317D01*
X299122Y513333D01*
X299112Y513341D01*
X299094Y513362D01*
X247262Y565194D01*
X247184Y565254D01*
X247112Y565322D01*
X247059Y565351D01*
X247011Y565388D01*
X246920Y565428D01*
X246833Y565476D01*
X246775Y565491D01*
X246719Y565515D01*
X246621Y565530D01*
X246525Y565555D01*
X246425Y565561D01*
X246405Y565565D01*
X246393Y565563D01*
X246365Y565565D01*
X231335Y565565D01*
X231237Y565553D01*
X231138Y565550D01*
X231080Y565533D01*
X231020Y565525D01*
X230928Y565489D01*
X230833Y565461D01*
X230781Y565431D01*
X230724Y565408D01*
X230644Y565350D01*
X230559Y565300D01*
X230483Y565234D01*
X230467Y565222D01*
X230459Y565212D01*
X230438Y565194D01*
X145406Y480162D01*
X145346Y480084D01*
X145278Y480012D01*
X145249Y479959D01*
X145212Y479911D01*
X145172Y479820D01*
X145124Y479733D01*
X145109Y479675D01*
X145085Y479619D01*
X145070Y479521D01*
X145045Y479425D01*
X145039Y479325D01*
X145035Y479305D01*
X145037Y479293D01*
X145035Y479265D01*
X145035Y234206D01*
X145038Y234176D01*
X145036Y234147D01*
X145053Y234052D01*
X145057Y233981D01*
X145067Y233950D01*
X145075Y233890D01*
X145085Y233863D01*
X145090Y233834D01*
X145141Y233721D01*
X145155Y233679D01*
X145164Y233665D01*
X145192Y233595D01*
X145209Y233571D01*
X145221Y233544D01*
X145302Y233442D01*
X145322Y233415D01*
X145325Y233410D01*
X145327Y233408D01*
X145378Y233337D01*
X145401Y233318D01*
X145420Y233295D01*
X145523Y233217D01*
X145623Y233134D01*
X145650Y233122D01*
X145674Y233104D01*
X145818Y233033D01*
X146319Y232826D01*
X149606Y229539D01*
X151227Y225624D01*
X151296Y225503D01*
X151361Y225381D01*
X151375Y225366D01*
X151385Y225348D01*
X151482Y225248D01*
X151575Y225145D01*
X151592Y225134D01*
X151606Y225119D01*
X151725Y225047D01*
X151841Y224970D01*
X151860Y224964D01*
X151877Y224953D01*
X152010Y224912D01*
X152142Y224867D01*
X152162Y224866D01*
X152181Y224860D01*
X152320Y224853D01*
X152459Y224842D01*
X152479Y224845D01*
G37*
G36*
X260731Y233162D02*
X260731Y233162D01*
X260841Y233169D01*
X260888Y233185D01*
X260937Y233192D01*
X261090Y233244D01*
X264376Y234605D01*
X269024Y234605D01*
X272310Y233244D01*
X272358Y233230D01*
X272403Y233209D01*
X272511Y233189D01*
X272617Y233160D01*
X272667Y233159D01*
X272716Y233150D01*
X272825Y233156D01*
X272935Y233155D01*
X272983Y233166D01*
X273033Y233169D01*
X273137Y233203D01*
X273244Y233229D01*
X273288Y233252D01*
X273335Y233267D01*
X273428Y233326D01*
X273525Y233377D01*
X273562Y233411D01*
X273604Y233437D01*
X273679Y233518D01*
X273761Y233591D01*
X273788Y233633D01*
X273822Y233669D01*
X273875Y233765D01*
X273935Y233857D01*
X273952Y233904D01*
X273976Y233948D01*
X274003Y234054D01*
X274039Y234158D01*
X274043Y234207D01*
X274055Y234256D01*
X274065Y234416D01*
X274065Y262850D01*
X274060Y262889D01*
X274063Y262929D01*
X274040Y263047D01*
X274025Y263165D01*
X274011Y263202D01*
X274003Y263241D01*
X273952Y263350D01*
X273908Y263461D01*
X273885Y263493D01*
X273868Y263529D01*
X273792Y263621D01*
X273722Y263718D01*
X273691Y263744D01*
X273665Y263774D01*
X273569Y263845D01*
X273477Y263921D01*
X273440Y263938D01*
X273408Y263961D01*
X273297Y264006D01*
X273189Y264057D01*
X273150Y264064D01*
X273113Y264079D01*
X272994Y264094D01*
X272877Y264116D01*
X272837Y264114D01*
X272797Y264119D01*
X272678Y264104D01*
X272559Y264097D01*
X272521Y264084D01*
X272482Y264079D01*
X272370Y264035D01*
X272257Y263999D01*
X272223Y263977D01*
X272186Y263963D01*
X272050Y263876D01*
X271983Y263828D01*
X270570Y263108D01*
X269199Y262663D01*
X269199Y271220D01*
X269184Y271338D01*
X269177Y271457D01*
X269164Y271495D01*
X269159Y271535D01*
X269116Y271646D01*
X269079Y271759D01*
X269057Y271793D01*
X269042Y271831D01*
X268973Y271927D01*
X268909Y272028D01*
X268879Y272056D01*
X268856Y272088D01*
X268764Y272164D01*
X268677Y272246D01*
X268642Y272265D01*
X268611Y272291D01*
X268503Y272342D01*
X268399Y272399D01*
X268359Y272409D01*
X268323Y272427D01*
X268216Y272447D01*
X268246Y272451D01*
X268356Y272495D01*
X268469Y272531D01*
X268504Y272553D01*
X268541Y272568D01*
X268637Y272638D01*
X268738Y272701D01*
X268766Y272731D01*
X268799Y272755D01*
X268875Y272846D01*
X268956Y272933D01*
X268976Y272968D01*
X269001Y273000D01*
X269052Y273107D01*
X269110Y273212D01*
X269120Y273251D01*
X269137Y273287D01*
X269159Y273404D01*
X269189Y273520D01*
X269193Y273580D01*
X269197Y273600D01*
X269195Y273620D01*
X269199Y273680D01*
X269199Y282237D01*
X270570Y281792D01*
X271983Y281072D01*
X272050Y281024D01*
X272085Y281004D01*
X272115Y280979D01*
X272224Y280928D01*
X272328Y280870D01*
X272367Y280860D01*
X272403Y280843D01*
X272520Y280821D01*
X272636Y280791D01*
X272676Y280791D01*
X272716Y280784D01*
X272835Y280791D01*
X272955Y280791D01*
X272993Y280801D01*
X273033Y280803D01*
X273147Y280840D01*
X273263Y280870D01*
X273298Y280889D01*
X273335Y280901D01*
X273437Y280965D01*
X273541Y281023D01*
X273570Y281050D01*
X273604Y281072D01*
X273686Y281159D01*
X273773Y281241D01*
X273795Y281274D01*
X273822Y281303D01*
X273880Y281408D01*
X273944Y281509D01*
X273956Y281547D01*
X273976Y281582D01*
X274005Y281697D01*
X274043Y281811D01*
X274045Y281851D01*
X274055Y281890D01*
X274065Y282050D01*
X274065Y341092D01*
X274053Y341190D01*
X274050Y341289D01*
X274033Y341347D01*
X274025Y341408D01*
X273989Y341500D01*
X273961Y341595D01*
X273931Y341647D01*
X273908Y341703D01*
X273850Y341783D01*
X273800Y341869D01*
X273734Y341944D01*
X273722Y341961D01*
X273712Y341968D01*
X273694Y341990D01*
X272748Y342935D01*
X271553Y345819D01*
X271553Y348941D01*
X272748Y351825D01*
X274955Y354032D01*
X277839Y355227D01*
X280961Y355227D01*
X283845Y354032D01*
X284599Y353278D01*
X284708Y353193D01*
X284815Y353105D01*
X284834Y353096D01*
X284850Y353084D01*
X284978Y353028D01*
X285103Y352969D01*
X285123Y352965D01*
X285142Y352957D01*
X285280Y352935D01*
X285416Y352909D01*
X285436Y352910D01*
X285456Y352907D01*
X285595Y352920D01*
X285733Y352929D01*
X285752Y352935D01*
X285772Y352937D01*
X285904Y352984D01*
X286035Y353027D01*
X286053Y353038D01*
X286072Y353045D01*
X286187Y353123D01*
X286304Y353197D01*
X286318Y353212D01*
X286335Y353223D01*
X286427Y353327D01*
X286522Y353429D01*
X286532Y353447D01*
X286545Y353462D01*
X286608Y353585D01*
X286676Y353707D01*
X286681Y353727D01*
X286690Y353745D01*
X286720Y353881D01*
X286755Y354015D01*
X286757Y354043D01*
X286760Y354055D01*
X286759Y354076D01*
X286765Y354176D01*
X286765Y415765D01*
X286753Y415863D01*
X286750Y415962D01*
X286733Y416020D01*
X286725Y416080D01*
X286689Y416172D01*
X286661Y416267D01*
X286631Y416319D01*
X286608Y416376D01*
X286550Y416456D01*
X286500Y416541D01*
X286434Y416617D01*
X286422Y416633D01*
X286412Y416641D01*
X286394Y416662D01*
X285182Y417874D01*
X285104Y417934D01*
X285032Y418002D01*
X284979Y418031D01*
X284931Y418068D01*
X284840Y418108D01*
X284753Y418156D01*
X284695Y418171D01*
X284639Y418195D01*
X284541Y418210D01*
X284445Y418235D01*
X284345Y418241D01*
X284325Y418245D01*
X284313Y418243D01*
X284285Y418245D01*
X252499Y418245D01*
X252470Y418242D01*
X252440Y418244D01*
X252313Y418222D01*
X252184Y418205D01*
X252156Y418195D01*
X252127Y418189D01*
X252009Y418136D01*
X251888Y418088D01*
X251864Y418071D01*
X251837Y418059D01*
X251736Y417978D01*
X251631Y417902D01*
X251612Y417879D01*
X251589Y417860D01*
X251511Y417757D01*
X251428Y417657D01*
X251415Y417630D01*
X251398Y417606D01*
X251327Y417462D01*
X251138Y417006D01*
X247874Y413742D01*
X243795Y412053D01*
X243675Y411984D01*
X243551Y411919D01*
X243536Y411905D01*
X243519Y411895D01*
X243419Y411798D01*
X243316Y411705D01*
X243305Y411688D01*
X243290Y411674D01*
X243218Y411556D01*
X243141Y411439D01*
X243135Y411420D01*
X243124Y411403D01*
X243083Y411270D01*
X243038Y411138D01*
X243036Y411118D01*
X243031Y411099D01*
X243024Y410960D01*
X243013Y410821D01*
X243016Y410801D01*
X243015Y410781D01*
X243044Y410645D01*
X243067Y410508D01*
X243076Y410489D01*
X243080Y410470D01*
X243141Y410345D01*
X243198Y410218D01*
X243210Y410202D01*
X243219Y410184D01*
X243310Y410078D01*
X243396Y409970D01*
X243413Y409957D01*
X243426Y409942D01*
X243539Y409862D01*
X243651Y409778D01*
X243676Y409766D01*
X243686Y409759D01*
X243705Y409752D01*
X243795Y409707D01*
X247874Y408018D01*
X251138Y404754D01*
X252905Y400488D01*
X252905Y395872D01*
X251138Y391606D01*
X247874Y388342D01*
X243795Y386653D01*
X243675Y386584D01*
X243551Y386519D01*
X243536Y386505D01*
X243519Y386495D01*
X243419Y386398D01*
X243316Y386305D01*
X243305Y386288D01*
X243290Y386274D01*
X243218Y386156D01*
X243141Y386039D01*
X243135Y386020D01*
X243124Y386003D01*
X243083Y385870D01*
X243038Y385738D01*
X243036Y385718D01*
X243031Y385699D01*
X243024Y385560D01*
X243013Y385421D01*
X243016Y385401D01*
X243015Y385381D01*
X243044Y385245D01*
X243067Y385108D01*
X243076Y385089D01*
X243080Y385070D01*
X243141Y384945D01*
X243198Y384818D01*
X243210Y384802D01*
X243219Y384784D01*
X243310Y384678D01*
X243396Y384570D01*
X243413Y384557D01*
X243426Y384542D01*
X243539Y384462D01*
X243651Y384378D01*
X243676Y384366D01*
X243686Y384359D01*
X243705Y384352D01*
X243795Y384307D01*
X247874Y382618D01*
X251138Y379354D01*
X252905Y375088D01*
X252905Y370472D01*
X252716Y370016D01*
X252708Y369988D01*
X252695Y369962D01*
X252666Y369835D01*
X252632Y369710D01*
X252632Y369680D01*
X252625Y369651D01*
X252629Y369522D01*
X252627Y369392D01*
X252634Y369363D01*
X252635Y369333D01*
X252671Y369209D01*
X252701Y369082D01*
X252715Y369056D01*
X252723Y369028D01*
X252789Y368916D01*
X252850Y368801D01*
X252870Y368779D01*
X252885Y368754D01*
X252991Y368633D01*
X258523Y363102D01*
X259335Y361141D01*
X259335Y282050D01*
X259340Y282011D01*
X259337Y281971D01*
X259360Y281853D01*
X259375Y281735D01*
X259389Y281698D01*
X259397Y281659D01*
X259448Y281550D01*
X259492Y281439D01*
X259515Y281407D01*
X259532Y281371D01*
X259608Y281279D01*
X259678Y281182D01*
X259709Y281156D01*
X259735Y281126D01*
X259831Y281055D01*
X259923Y280979D01*
X259960Y280962D01*
X259992Y280939D01*
X260103Y280894D01*
X260211Y280843D01*
X260250Y280836D01*
X260287Y280821D01*
X260406Y280806D01*
X260523Y280784D01*
X260563Y280786D01*
X260603Y280781D01*
X260722Y280796D01*
X260841Y280803D01*
X260879Y280816D01*
X260918Y280821D01*
X261030Y280865D01*
X261143Y280901D01*
X261177Y280923D01*
X261214Y280937D01*
X261350Y281024D01*
X261417Y281072D01*
X262830Y281792D01*
X264201Y282237D01*
X264201Y273680D01*
X264216Y273562D01*
X264223Y273443D01*
X264235Y273405D01*
X264241Y273365D01*
X264284Y273254D01*
X264321Y273141D01*
X264343Y273107D01*
X264358Y273069D01*
X264427Y272973D01*
X264491Y272872D01*
X264521Y272844D01*
X264544Y272812D01*
X264636Y272736D01*
X264723Y272654D01*
X264758Y272635D01*
X264789Y272609D01*
X264897Y272558D01*
X265001Y272501D01*
X265041Y272491D01*
X265077Y272473D01*
X265184Y272453D01*
X265154Y272449D01*
X265044Y272405D01*
X264931Y272369D01*
X264896Y272347D01*
X264859Y272332D01*
X264762Y272262D01*
X264662Y272199D01*
X264634Y272169D01*
X264601Y272145D01*
X264525Y272054D01*
X264444Y271967D01*
X264424Y271932D01*
X264399Y271900D01*
X264348Y271793D01*
X264290Y271688D01*
X264280Y271649D01*
X264263Y271613D01*
X264241Y271496D01*
X264211Y271380D01*
X264207Y271320D01*
X264203Y271300D01*
X264205Y271280D01*
X264201Y271220D01*
X264201Y262663D01*
X262830Y263108D01*
X261417Y263828D01*
X261350Y263876D01*
X261315Y263896D01*
X261285Y263921D01*
X261176Y263972D01*
X261072Y264030D01*
X261033Y264040D01*
X260997Y264057D01*
X260880Y264079D01*
X260764Y264109D01*
X260724Y264109D01*
X260684Y264116D01*
X260565Y264109D01*
X260445Y264109D01*
X260407Y264099D01*
X260367Y264097D01*
X260253Y264060D01*
X260137Y264030D01*
X260102Y264011D01*
X260065Y263999D01*
X259963Y263935D01*
X259859Y263877D01*
X259830Y263850D01*
X259796Y263828D01*
X259714Y263741D01*
X259627Y263659D01*
X259605Y263626D01*
X259578Y263597D01*
X259520Y263492D01*
X259456Y263391D01*
X259444Y263353D01*
X259424Y263318D01*
X259395Y263203D01*
X259357Y263089D01*
X259355Y263049D01*
X259345Y263010D01*
X259335Y262850D01*
X259335Y234416D01*
X259341Y234367D01*
X259339Y234317D01*
X259361Y234210D01*
X259375Y234101D01*
X259393Y234054D01*
X259403Y234006D01*
X259451Y233907D01*
X259492Y233805D01*
X259521Y233765D01*
X259543Y233720D01*
X259614Y233637D01*
X259678Y233548D01*
X259717Y233516D01*
X259749Y233478D01*
X259839Y233415D01*
X259923Y233345D01*
X259968Y233324D01*
X260009Y233295D01*
X260112Y233256D01*
X260211Y233209D01*
X260260Y233200D01*
X260306Y233182D01*
X260416Y233170D01*
X260523Y233150D01*
X260573Y233153D01*
X260622Y233147D01*
X260731Y233162D01*
G37*
%LPC*%
G36*
X576753Y576339D02*
X576753Y576339D01*
X570481Y578020D01*
X564858Y581266D01*
X560266Y585858D01*
X557020Y591481D01*
X555339Y597753D01*
X555339Y604247D01*
X557020Y610519D01*
X560266Y616142D01*
X564858Y620734D01*
X570481Y623980D01*
X576753Y625661D01*
X583247Y625661D01*
X589519Y623980D01*
X595142Y620734D01*
X599734Y616142D01*
X602980Y610519D01*
X604661Y604247D01*
X604661Y597753D01*
X602980Y591481D01*
X599734Y585858D01*
X595142Y581266D01*
X589519Y578020D01*
X583247Y576339D01*
X576753Y576339D01*
G37*
%LPD*%
%LPC*%
G36*
X36753Y576339D02*
X36753Y576339D01*
X30481Y578020D01*
X24858Y581266D01*
X20266Y585858D01*
X17020Y591481D01*
X15339Y597753D01*
X15339Y604247D01*
X17020Y610519D01*
X20266Y616142D01*
X24858Y620734D01*
X30481Y623980D01*
X36753Y625661D01*
X43247Y625661D01*
X49519Y623980D01*
X55142Y620734D01*
X59734Y616142D01*
X62980Y610519D01*
X64661Y604247D01*
X64661Y597753D01*
X62980Y591481D01*
X59734Y585858D01*
X55142Y581266D01*
X49519Y578020D01*
X43247Y576339D01*
X36753Y576339D01*
G37*
%LPD*%
%LPC*%
G36*
X543776Y195995D02*
X543776Y195995D01*
X539481Y197774D01*
X536194Y201061D01*
X534415Y205356D01*
X534415Y225244D01*
X536194Y229539D01*
X539481Y232826D01*
X543776Y234605D01*
X548424Y234605D01*
X552719Y232826D01*
X556006Y229539D01*
X557785Y225244D01*
X557785Y205356D01*
X556006Y201061D01*
X552719Y197774D01*
X548424Y195995D01*
X543776Y195995D01*
G37*
%LPD*%
G36*
X242648Y296556D02*
X242648Y296556D01*
X242767Y296563D01*
X242805Y296576D01*
X242846Y296581D01*
X242956Y296625D01*
X243069Y296661D01*
X243104Y296683D01*
X243141Y296698D01*
X243237Y296768D01*
X243338Y296831D01*
X243366Y296861D01*
X243399Y296885D01*
X243475Y296976D01*
X243556Y297063D01*
X243576Y297098D01*
X243601Y297130D01*
X243652Y297237D01*
X243710Y297342D01*
X243720Y297381D01*
X243737Y297417D01*
X243759Y297534D01*
X243789Y297650D01*
X243793Y297710D01*
X243797Y297730D01*
X243795Y297750D01*
X243799Y297810D01*
X243799Y306367D01*
X245170Y305922D01*
X246583Y305202D01*
X246650Y305154D01*
X246685Y305134D01*
X246715Y305109D01*
X246824Y305058D01*
X246928Y305000D01*
X246967Y304990D01*
X247003Y304973D01*
X247120Y304951D01*
X247236Y304921D01*
X247276Y304921D01*
X247316Y304914D01*
X247435Y304921D01*
X247555Y304921D01*
X247593Y304931D01*
X247633Y304933D01*
X247747Y304970D01*
X247863Y305000D01*
X247898Y305019D01*
X247935Y305031D01*
X248037Y305095D01*
X248141Y305153D01*
X248170Y305180D01*
X248204Y305202D01*
X248286Y305289D01*
X248373Y305371D01*
X248395Y305404D01*
X248422Y305433D01*
X248480Y305538D01*
X248544Y305639D01*
X248556Y305677D01*
X248576Y305712D01*
X248605Y305827D01*
X248643Y305941D01*
X248645Y305981D01*
X248655Y306020D01*
X248665Y306180D01*
X248665Y310570D01*
X248659Y310620D01*
X248661Y310669D01*
X248639Y310777D01*
X248625Y310886D01*
X248607Y310932D01*
X248597Y310981D01*
X248549Y311080D01*
X248508Y311182D01*
X248479Y311222D01*
X248457Y311266D01*
X248386Y311350D01*
X248322Y311439D01*
X248283Y311471D01*
X248251Y311508D01*
X248161Y311572D01*
X248077Y311642D01*
X248032Y311663D01*
X247991Y311692D01*
X247888Y311731D01*
X247789Y311777D01*
X247740Y311787D01*
X247694Y311804D01*
X247584Y311816D01*
X247477Y311837D01*
X247427Y311834D01*
X247378Y311839D01*
X247269Y311824D01*
X247159Y311817D01*
X247112Y311802D01*
X247063Y311795D01*
X246910Y311743D01*
X243608Y310375D01*
X238992Y310375D01*
X235690Y311743D01*
X235642Y311756D01*
X235597Y311777D01*
X235489Y311798D01*
X235383Y311827D01*
X235333Y311828D01*
X235284Y311837D01*
X235175Y311830D01*
X235065Y311832D01*
X235017Y311820D01*
X234967Y311817D01*
X234863Y311784D01*
X234756Y311758D01*
X234712Y311735D01*
X234665Y311719D01*
X234572Y311661D01*
X234475Y311609D01*
X234438Y311576D01*
X234396Y311549D01*
X234321Y311469D01*
X234239Y311395D01*
X234212Y311354D01*
X234178Y311317D01*
X234125Y311221D01*
X234065Y311129D01*
X234048Y311082D01*
X234024Y311039D01*
X233997Y310933D01*
X233961Y310829D01*
X233957Y310779D01*
X233945Y310731D01*
X233935Y310570D01*
X233935Y306180D01*
X233940Y306141D01*
X233937Y306101D01*
X233960Y305983D01*
X233975Y305865D01*
X233989Y305828D01*
X233997Y305789D01*
X234048Y305680D01*
X234092Y305569D01*
X234115Y305537D01*
X234132Y305501D01*
X234208Y305409D01*
X234278Y305312D01*
X234309Y305286D01*
X234335Y305256D01*
X234431Y305185D01*
X234523Y305109D01*
X234560Y305092D01*
X234592Y305069D01*
X234703Y305024D01*
X234811Y304973D01*
X234850Y304966D01*
X234887Y304951D01*
X235006Y304936D01*
X235123Y304914D01*
X235163Y304916D01*
X235203Y304911D01*
X235322Y304926D01*
X235441Y304933D01*
X235479Y304946D01*
X235518Y304951D01*
X235630Y304995D01*
X235743Y305031D01*
X235777Y305053D01*
X235814Y305067D01*
X235950Y305154D01*
X236017Y305202D01*
X237430Y305922D01*
X238801Y306367D01*
X238801Y297810D01*
X238816Y297692D01*
X238823Y297573D01*
X238835Y297535D01*
X238841Y297495D01*
X238884Y297384D01*
X238921Y297271D01*
X238943Y297237D01*
X238958Y297199D01*
X239027Y297103D01*
X239091Y297002D01*
X239121Y296974D01*
X239144Y296942D01*
X239236Y296866D01*
X239323Y296784D01*
X239358Y296765D01*
X239389Y296739D01*
X239497Y296688D01*
X239601Y296631D01*
X239641Y296621D01*
X239677Y296603D01*
X239794Y296581D01*
X239909Y296551D01*
X239969Y296547D01*
X239989Y296544D01*
X240010Y296545D01*
X240070Y296541D01*
X242530Y296541D01*
X242648Y296556D01*
G37*
%LPC*%
G36*
X523239Y217839D02*
X523239Y217839D01*
X523239Y232779D01*
X524600Y232336D01*
X526025Y231610D01*
X527319Y230670D01*
X528450Y229539D01*
X529390Y228245D01*
X530116Y226820D01*
X530611Y225299D01*
X530861Y223720D01*
X530861Y217839D01*
X523239Y217839D01*
G37*
%LPD*%
%LPC*%
G36*
X523239Y212761D02*
X523239Y212761D01*
X530861Y212761D01*
X530861Y206880D01*
X530611Y205301D01*
X530116Y203780D01*
X529390Y202355D01*
X528450Y201061D01*
X527319Y199930D01*
X526025Y198990D01*
X524600Y198264D01*
X523239Y197821D01*
X523239Y212761D01*
G37*
%LPD*%
%LPC*%
G36*
X510539Y217839D02*
X510539Y217839D01*
X510539Y223720D01*
X510789Y225299D01*
X511284Y226820D01*
X512010Y228245D01*
X512950Y229539D01*
X514081Y230670D01*
X515375Y231610D01*
X516800Y232336D01*
X518161Y232779D01*
X518161Y217839D01*
X510539Y217839D01*
G37*
%LPD*%
%LPC*%
G36*
X516800Y198264D02*
X516800Y198264D01*
X515375Y198990D01*
X514081Y199930D01*
X512950Y201061D01*
X512010Y202355D01*
X511284Y203780D01*
X510789Y205301D01*
X510539Y206880D01*
X510539Y212761D01*
X518161Y212761D01*
X518161Y197821D01*
X516800Y198264D01*
G37*
%LPD*%
%LPC*%
G36*
X243799Y553079D02*
X243799Y553079D01*
X243799Y560367D01*
X245170Y559922D01*
X246583Y559202D01*
X247867Y558269D01*
X248989Y557147D01*
X249922Y555863D01*
X250642Y554450D01*
X251087Y553079D01*
X243799Y553079D01*
G37*
%LPD*%
%LPC*%
G36*
X231513Y553079D02*
X231513Y553079D01*
X231958Y554450D01*
X232678Y555863D01*
X233611Y557147D01*
X234733Y558269D01*
X236017Y559202D01*
X237430Y559922D01*
X238801Y560367D01*
X238801Y553079D01*
X231513Y553079D01*
G37*
%LPD*%
%LPC*%
G36*
X243799Y548081D02*
X243799Y548081D01*
X251087Y548081D01*
X250642Y546710D01*
X249922Y545297D01*
X248989Y544013D01*
X247867Y542891D01*
X246583Y541958D01*
X245170Y541238D01*
X243799Y540793D01*
X243799Y548081D01*
G37*
%LPD*%
%LPC*%
G36*
X237430Y541238D02*
X237430Y541238D01*
X236017Y541958D01*
X234733Y542891D01*
X233611Y544013D01*
X232678Y545297D01*
X231958Y546710D01*
X231513Y548081D01*
X238801Y548081D01*
X238801Y540793D01*
X237430Y541238D01*
G37*
%LPD*%
%LPC*%
G36*
X520699Y215299D02*
X520699Y215299D01*
X520699Y215301D01*
X520701Y215301D01*
X520701Y215299D01*
X520699Y215299D01*
G37*
%LPD*%
D10*
X546100Y222920D02*
X546100Y207680D01*
X520700Y207680D02*
X520700Y222920D01*
X495300Y222920D02*
X495300Y207680D01*
X469900Y207680D02*
X469900Y222920D01*
X444500Y222920D02*
X444500Y207680D01*
X419100Y207680D02*
X419100Y222920D01*
X393700Y222920D02*
X393700Y207680D01*
X368300Y207680D02*
X368300Y222920D01*
X342900Y222920D02*
X342900Y207680D01*
X317500Y207680D02*
X317500Y222920D01*
X292100Y222920D02*
X292100Y207680D01*
X266700Y207680D02*
X266700Y222920D01*
X241300Y222920D02*
X241300Y207680D01*
X215900Y207680D02*
X215900Y222920D01*
X190500Y222920D02*
X190500Y207680D01*
X165100Y207680D02*
X165100Y222920D01*
X139700Y222920D02*
X139700Y207680D01*
X114300Y207680D02*
X114300Y222920D01*
X88900Y222920D02*
X88900Y207680D01*
X63500Y207680D02*
X63500Y222920D01*
D11*
X241300Y550580D03*
X241300Y525180D03*
X241300Y499780D03*
X241300Y474380D03*
X241300Y448980D03*
X241300Y423580D03*
X241300Y398180D03*
X241300Y372780D03*
X241300Y347380D03*
X241300Y321980D03*
X241300Y296580D03*
X368300Y296580D03*
X368300Y321980D03*
X368300Y347380D03*
X368300Y372780D03*
X368300Y398180D03*
X368300Y423580D03*
X368300Y448980D03*
X368300Y474380D03*
X368300Y499780D03*
X368300Y525180D03*
X368300Y550580D03*
X241300Y272450D03*
X266700Y272450D03*
X292100Y272450D03*
X317500Y272450D03*
X342900Y272450D03*
X368300Y272450D03*
D12*
X393700Y437550D03*
D13*
X393700Y215300D01*
X287020Y423580D02*
X241300Y423580D01*
X287020Y423580D02*
X292100Y418500D01*
X292100Y342300D01*
X304800Y329600D01*
X317500Y329600D01*
X330200Y316900D01*
X330200Y228000D01*
X317500Y215300D01*
X368300Y550580D02*
X380220Y550580D01*
X495300Y435500D01*
X495300Y215300D01*
D12*
X469900Y418500D03*
D13*
X469900Y215300D01*
D12*
X444500Y469300D03*
D13*
X444500Y215300D01*
X374020Y525180D02*
X368300Y525180D01*
X374020Y525180D02*
X419100Y480100D01*
X419100Y215300D01*
X373380Y316900D02*
X368300Y321980D01*
X373380Y316900D02*
X382270Y316900D01*
X368300Y254026D02*
X368300Y215300D01*
X368300Y254026D02*
X382270Y267996D01*
X382270Y316900D01*
X355600Y487080D02*
X368300Y499780D01*
X355600Y487080D02*
X355600Y228000D01*
X342900Y215300D01*
D12*
X270000Y461000D03*
X570000Y81000D03*
X550000Y471000D03*
X90000Y561000D03*
X40000Y91000D03*
X310000Y81000D03*
X304800Y316900D03*
D13*
X304800Y228000D01*
X292100Y215300D01*
X279400Y228000D02*
X266700Y215300D01*
X279400Y228000D02*
X279400Y347380D01*
D12*
X279400Y347380D03*
D13*
X254000Y360080D02*
X241300Y372780D01*
X254000Y360080D02*
X254000Y228000D01*
X241300Y215300D01*
X236220Y393100D02*
X241300Y398180D01*
X236220Y393100D02*
X228600Y393100D01*
X228600Y228000D01*
X215900Y215300D01*
X190500Y215300D02*
X190500Y423580D01*
X241300Y474380D01*
X241300Y499780D02*
X165100Y423580D01*
X165100Y215300D01*
D12*
X304800Y355000D03*
D13*
X304800Y515200D01*
X249100Y570900D01*
X228600Y570900D01*
X139700Y482000D01*
X139700Y215300D01*
D12*
X317500Y380400D03*
D13*
X317500Y526100D01*
X260000Y583600D01*
X215900Y583600D01*
X114300Y482000D01*
X114300Y215300D01*
D12*
X330200Y405800D03*
D13*
X330200Y536100D01*
X270000Y596300D01*
X203200Y596300D01*
X88900Y482000D01*
X88900Y215300D01*
X342900Y456600D02*
X342900Y547100D01*
X281000Y609000D01*
X190500Y609000D01*
X63500Y482000D01*
X63500Y215300D01*
D12*
X342900Y456600D03*
M02*
