G04 EAGLE Gerber RS-274X export*
G75*
%MOMM*%
%FSLAX34Y34*%
%LPD*%
%INBottom Copper*%
%IPPOS*%
%AMOC8*
5,1,8,0,0,1.08239X$1,22.5*%
G01*
%ADD10C,1.524000*%
%ADD11C,1.508000*%
%ADD12C,0.756400*%
%ADD13C,0.254000*%

G36*
X573637Y9578D02*
X573637Y9578D01*
X573776Y9591D01*
X573795Y9598D01*
X573815Y9601D01*
X573944Y9652D01*
X574075Y9699D01*
X574092Y9710D01*
X574111Y9718D01*
X574223Y9799D01*
X574338Y9877D01*
X574352Y9893D01*
X574368Y9904D01*
X574457Y10012D01*
X574549Y10116D01*
X574558Y10134D01*
X574571Y10149D01*
X574630Y10275D01*
X574693Y10399D01*
X574698Y10419D01*
X574706Y10437D01*
X574733Y10573D01*
X574763Y10709D01*
X574762Y10730D01*
X574766Y10749D01*
X574758Y10888D01*
X574753Y11027D01*
X574748Y11047D01*
X574746Y11067D01*
X574704Y11199D01*
X574665Y11333D01*
X574655Y11350D01*
X574648Y11369D01*
X574574Y11487D01*
X574503Y11607D01*
X574485Y11628D01*
X574478Y11638D01*
X574463Y11652D01*
X574397Y11727D01*
X570266Y15858D01*
X567020Y21481D01*
X565339Y27753D01*
X565339Y34247D01*
X567020Y40519D01*
X570266Y46142D01*
X574858Y50734D01*
X580481Y53980D01*
X586753Y55661D01*
X593247Y55661D01*
X599519Y53980D01*
X605142Y50734D01*
X609773Y46103D01*
X609882Y46018D01*
X609989Y45929D01*
X610008Y45920D01*
X610024Y45908D01*
X610152Y45853D01*
X610277Y45794D01*
X610297Y45790D01*
X610316Y45782D01*
X610454Y45760D01*
X610590Y45734D01*
X610610Y45735D01*
X610630Y45732D01*
X610769Y45745D01*
X610907Y45754D01*
X610926Y45760D01*
X610946Y45762D01*
X611078Y45809D01*
X611209Y45852D01*
X611227Y45862D01*
X611246Y45869D01*
X611361Y45947D01*
X611478Y46022D01*
X611492Y46037D01*
X611509Y46048D01*
X611601Y46152D01*
X611696Y46253D01*
X611706Y46271D01*
X611719Y46286D01*
X611783Y46410D01*
X611850Y46532D01*
X611855Y46551D01*
X611864Y46570D01*
X611894Y46705D01*
X611929Y46840D01*
X611931Y46868D01*
X611934Y46880D01*
X611933Y46900D01*
X611939Y47000D01*
X611939Y632370D01*
X611924Y632488D01*
X611917Y632607D01*
X611904Y632645D01*
X611899Y632686D01*
X611856Y632796D01*
X611819Y632909D01*
X611797Y632944D01*
X611782Y632981D01*
X611713Y633077D01*
X611649Y633178D01*
X611619Y633206D01*
X611596Y633239D01*
X611504Y633315D01*
X611417Y633396D01*
X611382Y633416D01*
X611351Y633441D01*
X611243Y633492D01*
X611139Y633550D01*
X611099Y633560D01*
X611063Y633577D01*
X610946Y633599D01*
X610831Y633629D01*
X610771Y633633D01*
X610751Y633637D01*
X610730Y633635D01*
X610670Y633639D01*
X11430Y633639D01*
X11312Y633624D01*
X11193Y633617D01*
X11155Y633604D01*
X11114Y633599D01*
X11004Y633556D01*
X10891Y633519D01*
X10856Y633497D01*
X10819Y633482D01*
X10723Y633413D01*
X10622Y633349D01*
X10594Y633319D01*
X10561Y633296D01*
X10485Y633204D01*
X10404Y633117D01*
X10384Y633082D01*
X10359Y633051D01*
X10308Y632943D01*
X10250Y632839D01*
X10240Y632799D01*
X10223Y632763D01*
X10201Y632646D01*
X10171Y632531D01*
X10167Y632471D01*
X10163Y632451D01*
X10165Y632430D01*
X10161Y632370D01*
X10161Y49100D01*
X10178Y48963D01*
X10191Y48824D01*
X10198Y48805D01*
X10201Y48785D01*
X10252Y48656D01*
X10299Y48525D01*
X10310Y48508D01*
X10318Y48489D01*
X10399Y48377D01*
X10477Y48262D01*
X10493Y48248D01*
X10504Y48232D01*
X10612Y48143D01*
X10716Y48051D01*
X10734Y48042D01*
X10749Y48029D01*
X10875Y47970D01*
X10999Y47907D01*
X11019Y47902D01*
X11037Y47894D01*
X11173Y47867D01*
X11309Y47837D01*
X11330Y47838D01*
X11349Y47834D01*
X11488Y47842D01*
X11627Y47847D01*
X11647Y47852D01*
X11667Y47854D01*
X11799Y47896D01*
X11933Y47935D01*
X11950Y47945D01*
X11969Y47952D01*
X12087Y48026D01*
X12207Y48097D01*
X12228Y48115D01*
X12238Y48122D01*
X12252Y48137D01*
X12327Y48203D01*
X14858Y50734D01*
X20481Y53980D01*
X26753Y55661D01*
X33247Y55661D01*
X39519Y53980D01*
X45142Y50734D01*
X49734Y46142D01*
X52980Y40519D01*
X54661Y34247D01*
X54661Y27753D01*
X52980Y21481D01*
X49734Y15858D01*
X45603Y11727D01*
X45518Y11618D01*
X45429Y11511D01*
X45420Y11492D01*
X45408Y11476D01*
X45353Y11348D01*
X45294Y11223D01*
X45290Y11203D01*
X45282Y11184D01*
X45260Y11046D01*
X45234Y10910D01*
X45235Y10890D01*
X45232Y10870D01*
X45245Y10731D01*
X45254Y10593D01*
X45260Y10574D01*
X45262Y10554D01*
X45309Y10422D01*
X45352Y10291D01*
X45362Y10273D01*
X45369Y10254D01*
X45447Y10139D01*
X45522Y10022D01*
X45537Y10008D01*
X45548Y9991D01*
X45652Y9899D01*
X45753Y9804D01*
X45771Y9794D01*
X45786Y9781D01*
X45910Y9717D01*
X46032Y9650D01*
X46051Y9645D01*
X46070Y9636D01*
X46205Y9606D01*
X46340Y9571D01*
X46368Y9569D01*
X46380Y9566D01*
X46400Y9567D01*
X46500Y9561D01*
X573500Y9561D01*
X573637Y9578D01*
G37*
%LPC*%
G36*
X61176Y195995D02*
X61176Y195995D01*
X56881Y197774D01*
X53594Y201061D01*
X51815Y205356D01*
X51815Y225244D01*
X53594Y229539D01*
X56881Y232826D01*
X61176Y234605D01*
X65824Y234605D01*
X70119Y232826D01*
X73406Y229539D01*
X75027Y225624D01*
X75096Y225503D01*
X75161Y225381D01*
X75175Y225366D01*
X75185Y225348D01*
X75282Y225248D01*
X75375Y225145D01*
X75392Y225134D01*
X75406Y225119D01*
X75525Y225047D01*
X75641Y224970D01*
X75660Y224964D01*
X75677Y224953D01*
X75810Y224912D01*
X75942Y224867D01*
X75962Y224866D01*
X75981Y224860D01*
X76120Y224853D01*
X76259Y224842D01*
X76279Y224845D01*
X76299Y224845D01*
X76435Y224873D01*
X76572Y224896D01*
X76591Y224905D01*
X76610Y224909D01*
X76736Y224970D01*
X76862Y225027D01*
X76878Y225040D01*
X76896Y225049D01*
X77002Y225139D01*
X77110Y225226D01*
X77123Y225242D01*
X77138Y225255D01*
X77218Y225369D01*
X77302Y225480D01*
X77314Y225505D01*
X77321Y225515D01*
X77328Y225534D01*
X77373Y225624D01*
X78994Y229539D01*
X82281Y232826D01*
X86576Y234605D01*
X91224Y234605D01*
X95519Y232826D01*
X98806Y229539D01*
X100427Y225624D01*
X100496Y225503D01*
X100561Y225381D01*
X100575Y225366D01*
X100585Y225348D01*
X100682Y225248D01*
X100775Y225145D01*
X100792Y225134D01*
X100806Y225119D01*
X100925Y225047D01*
X101041Y224970D01*
X101060Y224964D01*
X101077Y224953D01*
X101210Y224912D01*
X101342Y224867D01*
X101362Y224866D01*
X101381Y224860D01*
X101520Y224853D01*
X101659Y224842D01*
X101679Y224845D01*
X101699Y224845D01*
X101835Y224873D01*
X101972Y224896D01*
X101991Y224905D01*
X102010Y224909D01*
X102136Y224970D01*
X102262Y225027D01*
X102278Y225040D01*
X102296Y225049D01*
X102402Y225139D01*
X102510Y225226D01*
X102523Y225242D01*
X102538Y225255D01*
X102618Y225369D01*
X102702Y225480D01*
X102714Y225505D01*
X102721Y225515D01*
X102728Y225534D01*
X102773Y225624D01*
X104394Y229539D01*
X107681Y232826D01*
X111976Y234605D01*
X116624Y234605D01*
X120919Y232826D01*
X124206Y229539D01*
X125827Y225624D01*
X125896Y225503D01*
X125961Y225381D01*
X125975Y225366D01*
X125985Y225348D01*
X126082Y225248D01*
X126175Y225145D01*
X126192Y225134D01*
X126206Y225119D01*
X126325Y225047D01*
X126441Y224970D01*
X126460Y224964D01*
X126477Y224953D01*
X126610Y224912D01*
X126742Y224867D01*
X126762Y224866D01*
X126781Y224860D01*
X126920Y224853D01*
X127059Y224842D01*
X127079Y224845D01*
X127099Y224845D01*
X127235Y224873D01*
X127372Y224896D01*
X127391Y224905D01*
X127410Y224909D01*
X127536Y224970D01*
X127662Y225027D01*
X127678Y225040D01*
X127696Y225049D01*
X127802Y225139D01*
X127910Y225226D01*
X127923Y225242D01*
X127938Y225255D01*
X128018Y225369D01*
X128102Y225480D01*
X128114Y225505D01*
X128121Y225515D01*
X128128Y225534D01*
X128173Y225624D01*
X129794Y229539D01*
X133081Y232826D01*
X137376Y234605D01*
X142024Y234605D01*
X146319Y232826D01*
X149606Y229539D01*
X151227Y225624D01*
X151296Y225503D01*
X151361Y225381D01*
X151375Y225366D01*
X151385Y225348D01*
X151482Y225248D01*
X151575Y225145D01*
X151592Y225134D01*
X151606Y225119D01*
X151725Y225047D01*
X151841Y224970D01*
X151860Y224964D01*
X151877Y224953D01*
X152010Y224912D01*
X152142Y224867D01*
X152162Y224866D01*
X152181Y224860D01*
X152320Y224853D01*
X152459Y224842D01*
X152479Y224845D01*
X152499Y224845D01*
X152635Y224873D01*
X152772Y224896D01*
X152791Y224905D01*
X152810Y224909D01*
X152936Y224970D01*
X153062Y225027D01*
X153078Y225040D01*
X153096Y225049D01*
X153202Y225139D01*
X153310Y225226D01*
X153323Y225242D01*
X153338Y225255D01*
X153418Y225369D01*
X153502Y225480D01*
X153514Y225505D01*
X153521Y225515D01*
X153528Y225534D01*
X153573Y225624D01*
X155194Y229539D01*
X158481Y232826D01*
X158982Y233033D01*
X159007Y233048D01*
X159035Y233057D01*
X159145Y233126D01*
X159258Y233191D01*
X159279Y233211D01*
X159304Y233227D01*
X159393Y233322D01*
X159486Y233412D01*
X159502Y233437D01*
X159522Y233459D01*
X159562Y233530D01*
X159567Y233537D01*
X159579Y233561D01*
X159585Y233573D01*
X159653Y233683D01*
X159661Y233711D01*
X159676Y233737D01*
X159693Y233803D01*
X159703Y233825D01*
X159714Y233881D01*
X159746Y233987D01*
X159748Y234017D01*
X159755Y234045D01*
X159760Y234124D01*
X159763Y234137D01*
X159762Y234152D01*
X159765Y234206D01*
X159765Y488412D01*
X159753Y488510D01*
X159750Y488609D01*
X159733Y488667D01*
X159725Y488728D01*
X159689Y488820D01*
X159661Y488915D01*
X159631Y488967D01*
X159608Y489023D01*
X159550Y489103D01*
X159500Y489189D01*
X159434Y489264D01*
X159422Y489281D01*
X159412Y489288D01*
X159394Y489310D01*
X158448Y490255D01*
X157253Y493139D01*
X157253Y496261D01*
X158448Y499145D01*
X160655Y501352D01*
X163539Y502547D01*
X166661Y502547D01*
X169545Y501352D01*
X171752Y499145D01*
X172947Y496261D01*
X172947Y493139D01*
X171752Y490255D01*
X170806Y489310D01*
X170746Y489231D01*
X170678Y489159D01*
X170649Y489106D01*
X170612Y489058D01*
X170572Y488967D01*
X170524Y488881D01*
X170509Y488822D01*
X170485Y488766D01*
X170470Y488668D01*
X170445Y488573D01*
X170439Y488473D01*
X170435Y488452D01*
X170437Y488440D01*
X170435Y488412D01*
X170435Y234206D01*
X170438Y234176D01*
X170436Y234147D01*
X170453Y234052D01*
X170457Y233981D01*
X170467Y233950D01*
X170475Y233890D01*
X170485Y233863D01*
X170490Y233834D01*
X170541Y233721D01*
X170555Y233679D01*
X170564Y233665D01*
X170592Y233595D01*
X170609Y233571D01*
X170621Y233544D01*
X170702Y233442D01*
X170722Y233415D01*
X170725Y233410D01*
X170727Y233408D01*
X170778Y233337D01*
X170801Y233318D01*
X170820Y233295D01*
X170923Y233217D01*
X171023Y233134D01*
X171050Y233122D01*
X171074Y233104D01*
X171218Y233033D01*
X171719Y232826D01*
X175006Y229539D01*
X176627Y225624D01*
X176696Y225503D01*
X176761Y225381D01*
X176775Y225366D01*
X176785Y225348D01*
X176882Y225248D01*
X176975Y225145D01*
X176992Y225134D01*
X177006Y225119D01*
X177125Y225047D01*
X177241Y224970D01*
X177260Y224964D01*
X177277Y224953D01*
X177410Y224912D01*
X177542Y224867D01*
X177562Y224866D01*
X177581Y224860D01*
X177720Y224853D01*
X177859Y224842D01*
X177879Y224845D01*
X177899Y224845D01*
X178035Y224873D01*
X178172Y224896D01*
X178191Y224905D01*
X178210Y224909D01*
X178336Y224970D01*
X178462Y225027D01*
X178478Y225040D01*
X178496Y225049D01*
X178602Y225139D01*
X178710Y225226D01*
X178723Y225242D01*
X178738Y225255D01*
X178818Y225369D01*
X178902Y225480D01*
X178914Y225505D01*
X178921Y225515D01*
X178928Y225534D01*
X178973Y225624D01*
X180594Y229539D01*
X183881Y232826D01*
X184382Y233033D01*
X184407Y233048D01*
X184435Y233057D01*
X184545Y233126D01*
X184658Y233191D01*
X184679Y233211D01*
X184704Y233227D01*
X184793Y233322D01*
X184886Y233412D01*
X184902Y233437D01*
X184922Y233459D01*
X184962Y233530D01*
X184967Y233537D01*
X184979Y233561D01*
X184985Y233573D01*
X185053Y233683D01*
X185061Y233711D01*
X185076Y233737D01*
X185093Y233803D01*
X185103Y233825D01*
X185114Y233881D01*
X185146Y233987D01*
X185148Y234017D01*
X185155Y234045D01*
X185160Y234124D01*
X185163Y234137D01*
X185162Y234152D01*
X185165Y234206D01*
X185165Y463012D01*
X185153Y463110D01*
X185150Y463209D01*
X185133Y463268D01*
X185125Y463328D01*
X185089Y463420D01*
X185061Y463515D01*
X185031Y463567D01*
X185008Y463623D01*
X184950Y463703D01*
X184900Y463789D01*
X184834Y463864D01*
X184822Y463881D01*
X184812Y463888D01*
X184793Y463910D01*
X183848Y464855D01*
X182653Y467739D01*
X182653Y470861D01*
X183848Y473745D01*
X186055Y475952D01*
X188939Y477147D01*
X192061Y477147D01*
X194945Y475952D01*
X197152Y473745D01*
X198347Y470861D01*
X198347Y467739D01*
X197152Y464855D01*
X196207Y463910D01*
X196146Y463831D01*
X196078Y463759D01*
X196049Y463706D01*
X196012Y463658D01*
X195972Y463567D01*
X195924Y463481D01*
X195909Y463422D01*
X195885Y463366D01*
X195870Y463268D01*
X195845Y463173D01*
X195839Y463073D01*
X195835Y463052D01*
X195837Y463040D01*
X195835Y463012D01*
X195835Y234206D01*
X195838Y234176D01*
X195836Y234147D01*
X195853Y234052D01*
X195857Y233981D01*
X195867Y233950D01*
X195875Y233890D01*
X195885Y233863D01*
X195890Y233834D01*
X195941Y233721D01*
X195955Y233679D01*
X195964Y233665D01*
X195992Y233595D01*
X196009Y233571D01*
X196021Y233544D01*
X196102Y233442D01*
X196122Y233415D01*
X196125Y233410D01*
X196127Y233408D01*
X196178Y233337D01*
X196201Y233318D01*
X196220Y233295D01*
X196323Y233217D01*
X196423Y233134D01*
X196450Y233122D01*
X196474Y233104D01*
X196618Y233033D01*
X197119Y232826D01*
X200406Y229539D01*
X202027Y225624D01*
X202096Y225503D01*
X202161Y225381D01*
X202175Y225366D01*
X202185Y225348D01*
X202282Y225248D01*
X202375Y225145D01*
X202392Y225134D01*
X202406Y225119D01*
X202525Y225047D01*
X202641Y224970D01*
X202660Y224964D01*
X202677Y224953D01*
X202810Y224912D01*
X202942Y224867D01*
X202962Y224866D01*
X202981Y224860D01*
X203120Y224853D01*
X203259Y224842D01*
X203279Y224845D01*
X203299Y224845D01*
X203435Y224873D01*
X203572Y224896D01*
X203591Y224905D01*
X203610Y224909D01*
X203736Y224970D01*
X203862Y225027D01*
X203878Y225040D01*
X203896Y225049D01*
X204002Y225139D01*
X204110Y225226D01*
X204123Y225242D01*
X204138Y225255D01*
X204218Y225369D01*
X204302Y225480D01*
X204314Y225505D01*
X204321Y225515D01*
X204328Y225534D01*
X204373Y225624D01*
X205994Y229539D01*
X209281Y232826D01*
X213576Y234605D01*
X218224Y234605D01*
X221510Y233244D01*
X221558Y233230D01*
X221603Y233209D01*
X221711Y233189D01*
X221817Y233160D01*
X221867Y233159D01*
X221916Y233150D01*
X222025Y233156D01*
X222135Y233155D01*
X222183Y233166D01*
X222233Y233169D01*
X222337Y233203D01*
X222444Y233229D01*
X222488Y233252D01*
X222535Y233267D01*
X222628Y233326D01*
X222725Y233377D01*
X222762Y233411D01*
X222804Y233437D01*
X222879Y233518D01*
X222961Y233591D01*
X222988Y233633D01*
X223022Y233669D01*
X223075Y233765D01*
X223135Y233857D01*
X223152Y233904D01*
X223176Y233948D01*
X223203Y234054D01*
X223239Y234158D01*
X223243Y234207D01*
X223255Y234256D01*
X223265Y234416D01*
X223265Y394161D01*
X224077Y396122D01*
X225578Y397623D01*
X227539Y398435D01*
X228426Y398435D01*
X228544Y398450D01*
X228663Y398457D01*
X228701Y398470D01*
X228742Y398475D01*
X228852Y398518D01*
X228965Y398555D01*
X229000Y398577D01*
X229037Y398592D01*
X229133Y398661D01*
X229234Y398725D01*
X229262Y398755D01*
X229295Y398778D01*
X229371Y398870D01*
X229452Y398957D01*
X229472Y398992D01*
X229497Y399023D01*
X229548Y399131D01*
X229606Y399235D01*
X229616Y399275D01*
X229633Y399311D01*
X229655Y399428D01*
X229685Y399543D01*
X229689Y399603D01*
X229693Y399623D01*
X229691Y399644D01*
X229695Y399704D01*
X229695Y400488D01*
X231462Y404754D01*
X234726Y408018D01*
X238805Y409707D01*
X238926Y409776D01*
X239049Y409841D01*
X239064Y409855D01*
X239081Y409865D01*
X239181Y409962D01*
X239284Y410055D01*
X239295Y410072D01*
X239310Y410086D01*
X239383Y410205D01*
X239459Y410321D01*
X239465Y410340D01*
X239476Y410357D01*
X239517Y410490D01*
X239562Y410622D01*
X239563Y410642D01*
X239569Y410661D01*
X239576Y410800D01*
X239587Y410939D01*
X239584Y410959D01*
X239585Y410979D01*
X239556Y411115D01*
X239533Y411252D01*
X239524Y411271D01*
X239520Y411290D01*
X239459Y411416D01*
X239402Y411542D01*
X239390Y411558D01*
X239381Y411576D01*
X239290Y411682D01*
X239204Y411790D01*
X239187Y411803D01*
X239174Y411818D01*
X239060Y411898D01*
X238949Y411982D01*
X238924Y411994D01*
X238914Y412001D01*
X238895Y412008D01*
X238805Y412053D01*
X234726Y413742D01*
X231462Y417006D01*
X229695Y421272D01*
X229695Y425888D01*
X231462Y430154D01*
X234726Y433418D01*
X238805Y435107D01*
X238926Y435176D01*
X239049Y435241D01*
X239064Y435255D01*
X239081Y435265D01*
X239181Y435362D01*
X239284Y435455D01*
X239295Y435472D01*
X239310Y435486D01*
X239383Y435605D01*
X239459Y435721D01*
X239465Y435740D01*
X239476Y435757D01*
X239517Y435890D01*
X239562Y436022D01*
X239563Y436042D01*
X239569Y436061D01*
X239576Y436200D01*
X239587Y436339D01*
X239584Y436359D01*
X239585Y436379D01*
X239556Y436515D01*
X239533Y436652D01*
X239524Y436671D01*
X239520Y436690D01*
X239459Y436816D01*
X239402Y436942D01*
X239390Y436958D01*
X239381Y436976D01*
X239290Y437082D01*
X239204Y437190D01*
X239187Y437203D01*
X239174Y437218D01*
X239060Y437298D01*
X238949Y437382D01*
X238924Y437394D01*
X238914Y437401D01*
X238895Y437408D01*
X238805Y437453D01*
X234726Y439142D01*
X231462Y442406D01*
X229695Y446672D01*
X229695Y451288D01*
X231462Y455554D01*
X234726Y458818D01*
X238805Y460507D01*
X238926Y460576D01*
X239049Y460641D01*
X239064Y460655D01*
X239081Y460665D01*
X239181Y460762D01*
X239284Y460855D01*
X239295Y460872D01*
X239310Y460886D01*
X239383Y461005D01*
X239459Y461121D01*
X239465Y461140D01*
X239476Y461157D01*
X239517Y461290D01*
X239562Y461422D01*
X239563Y461442D01*
X239569Y461461D01*
X239576Y461600D01*
X239587Y461739D01*
X239584Y461759D01*
X239585Y461779D01*
X239556Y461915D01*
X239533Y462052D01*
X239524Y462071D01*
X239520Y462090D01*
X239459Y462216D01*
X239402Y462342D01*
X239390Y462358D01*
X239381Y462376D01*
X239290Y462482D01*
X239204Y462590D01*
X239187Y462603D01*
X239174Y462618D01*
X239060Y462698D01*
X238949Y462782D01*
X238924Y462794D01*
X238914Y462801D01*
X238895Y462808D01*
X238805Y462853D01*
X234726Y464542D01*
X231462Y467806D01*
X229695Y472072D01*
X229695Y476688D01*
X231462Y480954D01*
X234726Y484218D01*
X238805Y485907D01*
X238926Y485976D01*
X239049Y486041D01*
X239064Y486055D01*
X239081Y486065D01*
X239181Y486162D01*
X239284Y486255D01*
X239295Y486272D01*
X239310Y486286D01*
X239383Y486405D01*
X239459Y486521D01*
X239465Y486540D01*
X239476Y486557D01*
X239517Y486690D01*
X239562Y486822D01*
X239563Y486842D01*
X239569Y486861D01*
X239576Y487000D01*
X239587Y487139D01*
X239584Y487159D01*
X239585Y487179D01*
X239556Y487315D01*
X239533Y487452D01*
X239524Y487471D01*
X239520Y487490D01*
X239459Y487616D01*
X239402Y487742D01*
X239390Y487758D01*
X239381Y487776D01*
X239290Y487882D01*
X239204Y487990D01*
X239187Y488003D01*
X239174Y488018D01*
X239060Y488098D01*
X238949Y488182D01*
X238924Y488194D01*
X238914Y488201D01*
X238895Y488208D01*
X238805Y488253D01*
X234726Y489942D01*
X231462Y493206D01*
X229695Y497472D01*
X229695Y502088D01*
X231462Y506354D01*
X234726Y509618D01*
X238805Y511307D01*
X238926Y511376D01*
X239049Y511441D01*
X239064Y511455D01*
X239081Y511465D01*
X239181Y511562D01*
X239284Y511655D01*
X239295Y511672D01*
X239310Y511686D01*
X239383Y511805D01*
X239459Y511921D01*
X239465Y511940D01*
X239476Y511957D01*
X239517Y512090D01*
X239562Y512222D01*
X239563Y512242D01*
X239569Y512261D01*
X239576Y512400D01*
X239587Y512539D01*
X239584Y512559D01*
X239585Y512579D01*
X239556Y512715D01*
X239533Y512852D01*
X239524Y512871D01*
X239520Y512890D01*
X239459Y513016D01*
X239402Y513142D01*
X239390Y513158D01*
X239381Y513176D01*
X239290Y513282D01*
X239204Y513390D01*
X239187Y513403D01*
X239174Y513418D01*
X239060Y513498D01*
X238949Y513582D01*
X238924Y513594D01*
X238914Y513601D01*
X238895Y513608D01*
X238805Y513653D01*
X234726Y515342D01*
X231462Y518606D01*
X229695Y522872D01*
X229695Y527488D01*
X231462Y531754D01*
X234726Y535018D01*
X238992Y536785D01*
X243608Y536785D01*
X247874Y535018D01*
X251138Y531754D01*
X252905Y527488D01*
X252905Y522872D01*
X251138Y518606D01*
X247874Y515342D01*
X243795Y513653D01*
X243675Y513584D01*
X243551Y513519D01*
X243536Y513505D01*
X243519Y513495D01*
X243419Y513398D01*
X243316Y513305D01*
X243305Y513288D01*
X243290Y513274D01*
X243218Y513156D01*
X243141Y513039D01*
X243135Y513020D01*
X243124Y513003D01*
X243083Y512870D01*
X243038Y512738D01*
X243036Y512718D01*
X243031Y512699D01*
X243024Y512560D01*
X243013Y512421D01*
X243016Y512401D01*
X243015Y512381D01*
X243044Y512245D01*
X243067Y512108D01*
X243076Y512089D01*
X243080Y512070D01*
X243141Y511945D01*
X243198Y511818D01*
X243210Y511802D01*
X243219Y511784D01*
X243310Y511678D01*
X243396Y511570D01*
X243413Y511557D01*
X243426Y511542D01*
X243539Y511462D01*
X243651Y511378D01*
X243676Y511366D01*
X243686Y511359D01*
X243705Y511352D01*
X243795Y511307D01*
X247874Y509618D01*
X251138Y506354D01*
X252905Y502088D01*
X252905Y497472D01*
X251138Y493206D01*
X247874Y489942D01*
X243795Y488253D01*
X243675Y488184D01*
X243551Y488119D01*
X243536Y488105D01*
X243519Y488095D01*
X243419Y487998D01*
X243316Y487905D01*
X243305Y487888D01*
X243290Y487874D01*
X243218Y487756D01*
X243141Y487639D01*
X243135Y487620D01*
X243124Y487603D01*
X243083Y487470D01*
X243038Y487338D01*
X243036Y487318D01*
X243031Y487299D01*
X243024Y487160D01*
X243013Y487021D01*
X243016Y487001D01*
X243015Y486981D01*
X243044Y486845D01*
X243067Y486708D01*
X243076Y486689D01*
X243080Y486670D01*
X243141Y486545D01*
X243198Y486418D01*
X243210Y486402D01*
X243219Y486384D01*
X243310Y486278D01*
X243396Y486170D01*
X243413Y486157D01*
X243426Y486142D01*
X243539Y486062D01*
X243651Y485978D01*
X243676Y485966D01*
X243686Y485959D01*
X243705Y485952D01*
X243795Y485907D01*
X247874Y484218D01*
X251138Y480954D01*
X252905Y476688D01*
X252905Y472072D01*
X251138Y467806D01*
X247874Y464542D01*
X243795Y462853D01*
X243675Y462784D01*
X243551Y462719D01*
X243536Y462705D01*
X243519Y462695D01*
X243419Y462598D01*
X243316Y462505D01*
X243305Y462488D01*
X243290Y462474D01*
X243218Y462356D01*
X243141Y462239D01*
X243135Y462220D01*
X243124Y462203D01*
X243083Y462070D01*
X243038Y461938D01*
X243036Y461918D01*
X243031Y461899D01*
X243024Y461760D01*
X243013Y461621D01*
X243016Y461601D01*
X243015Y461581D01*
X243044Y461445D01*
X243067Y461308D01*
X243076Y461289D01*
X243080Y461270D01*
X243141Y461145D01*
X243198Y461018D01*
X243210Y461002D01*
X243219Y460984D01*
X243310Y460878D01*
X243396Y460770D01*
X243413Y460757D01*
X243426Y460742D01*
X243539Y460662D01*
X243651Y460578D01*
X243676Y460566D01*
X243686Y460559D01*
X243705Y460552D01*
X243795Y460507D01*
X247874Y458818D01*
X251138Y455554D01*
X252905Y451288D01*
X252905Y446672D01*
X251138Y442406D01*
X247874Y439142D01*
X243795Y437453D01*
X243675Y437384D01*
X243551Y437319D01*
X243536Y437305D01*
X243519Y437295D01*
X243419Y437198D01*
X243316Y437105D01*
X243305Y437088D01*
X243290Y437074D01*
X243218Y436956D01*
X243141Y436839D01*
X243135Y436820D01*
X243124Y436803D01*
X243083Y436670D01*
X243038Y436538D01*
X243036Y436518D01*
X243031Y436499D01*
X243024Y436360D01*
X243013Y436221D01*
X243016Y436201D01*
X243015Y436181D01*
X243044Y436045D01*
X243067Y435908D01*
X243076Y435889D01*
X243080Y435870D01*
X243141Y435745D01*
X243198Y435618D01*
X243210Y435602D01*
X243219Y435584D01*
X243310Y435478D01*
X243396Y435370D01*
X243413Y435357D01*
X243426Y435342D01*
X243539Y435262D01*
X243651Y435178D01*
X243676Y435166D01*
X243686Y435159D01*
X243705Y435152D01*
X243795Y435107D01*
X247874Y433418D01*
X251138Y430154D01*
X252905Y425888D01*
X252905Y421272D01*
X251138Y417006D01*
X247874Y413742D01*
X243795Y412053D01*
X243675Y411984D01*
X243551Y411919D01*
X243536Y411905D01*
X243519Y411895D01*
X243419Y411798D01*
X243316Y411705D01*
X243305Y411688D01*
X243290Y411674D01*
X243218Y411556D01*
X243141Y411439D01*
X243135Y411420D01*
X243124Y411403D01*
X243083Y411270D01*
X243038Y411138D01*
X243036Y411118D01*
X243031Y411099D01*
X243024Y410960D01*
X243013Y410821D01*
X243016Y410801D01*
X243015Y410781D01*
X243044Y410645D01*
X243067Y410508D01*
X243076Y410489D01*
X243080Y410470D01*
X243141Y410345D01*
X243198Y410218D01*
X243210Y410202D01*
X243219Y410184D01*
X243310Y410078D01*
X243396Y409970D01*
X243413Y409957D01*
X243426Y409942D01*
X243539Y409862D01*
X243651Y409778D01*
X243676Y409766D01*
X243686Y409759D01*
X243705Y409752D01*
X243795Y409707D01*
X247874Y408018D01*
X251138Y404754D01*
X252905Y400488D01*
X252905Y395872D01*
X251138Y391606D01*
X247874Y388342D01*
X243795Y386653D01*
X243675Y386584D01*
X243551Y386519D01*
X243536Y386505D01*
X243519Y386495D01*
X243419Y386398D01*
X243316Y386305D01*
X243305Y386288D01*
X243290Y386274D01*
X243218Y386156D01*
X243141Y386039D01*
X243135Y386020D01*
X243124Y386003D01*
X243083Y385870D01*
X243038Y385738D01*
X243036Y385718D01*
X243031Y385699D01*
X243024Y385560D01*
X243013Y385421D01*
X243016Y385401D01*
X243015Y385381D01*
X243044Y385245D01*
X243067Y385108D01*
X243076Y385089D01*
X243080Y385070D01*
X243141Y384945D01*
X243198Y384818D01*
X243210Y384802D01*
X243219Y384784D01*
X243310Y384678D01*
X243396Y384570D01*
X243413Y384557D01*
X243426Y384542D01*
X243539Y384462D01*
X243651Y384378D01*
X243676Y384366D01*
X243686Y384359D01*
X243705Y384352D01*
X243795Y384307D01*
X247874Y382618D01*
X251138Y379354D01*
X252905Y375088D01*
X252905Y370472D01*
X252716Y370016D01*
X252708Y369988D01*
X252695Y369962D01*
X252666Y369835D01*
X252632Y369710D01*
X252632Y369680D01*
X252625Y369651D01*
X252629Y369522D01*
X252627Y369392D01*
X252634Y369363D01*
X252635Y369333D01*
X252671Y369209D01*
X252701Y369082D01*
X252715Y369056D01*
X252723Y369028D01*
X252789Y368916D01*
X252850Y368801D01*
X252870Y368779D01*
X252885Y368754D01*
X252991Y368633D01*
X258523Y363102D01*
X259335Y361141D01*
X259335Y282050D01*
X259340Y282011D01*
X259337Y281971D01*
X259360Y281853D01*
X259375Y281735D01*
X259389Y281698D01*
X259397Y281659D01*
X259448Y281550D01*
X259492Y281439D01*
X259515Y281407D01*
X259532Y281371D01*
X259608Y281279D01*
X259678Y281182D01*
X259709Y281156D01*
X259735Y281126D01*
X259831Y281055D01*
X259923Y280979D01*
X259960Y280962D01*
X259992Y280939D01*
X260103Y280894D01*
X260211Y280843D01*
X260250Y280836D01*
X260287Y280821D01*
X260406Y280806D01*
X260523Y280784D01*
X260563Y280786D01*
X260603Y280781D01*
X260722Y280796D01*
X260841Y280803D01*
X260879Y280816D01*
X260918Y280821D01*
X261030Y280865D01*
X261143Y280901D01*
X261177Y280923D01*
X261214Y280937D01*
X261350Y281024D01*
X261417Y281072D01*
X262830Y281792D01*
X264201Y282237D01*
X264201Y273680D01*
X264216Y273562D01*
X264223Y273443D01*
X264235Y273405D01*
X264241Y273365D01*
X264284Y273254D01*
X264321Y273141D01*
X264343Y273107D01*
X264358Y273069D01*
X264427Y272973D01*
X264491Y272872D01*
X264521Y272844D01*
X264544Y272812D01*
X264636Y272736D01*
X264723Y272654D01*
X264758Y272635D01*
X264789Y272609D01*
X264897Y272558D01*
X265001Y272501D01*
X265041Y272491D01*
X265077Y272473D01*
X265184Y272453D01*
X265154Y272449D01*
X265044Y272405D01*
X264931Y272369D01*
X264896Y272347D01*
X264859Y272332D01*
X264762Y272262D01*
X264662Y272199D01*
X264634Y272169D01*
X264601Y272145D01*
X264525Y272054D01*
X264444Y271967D01*
X264424Y271932D01*
X264399Y271900D01*
X264348Y271793D01*
X264290Y271688D01*
X264280Y271649D01*
X264263Y271613D01*
X264241Y271496D01*
X264211Y271380D01*
X264207Y271320D01*
X264203Y271300D01*
X264205Y271280D01*
X264201Y271220D01*
X264201Y262663D01*
X262830Y263108D01*
X261417Y263828D01*
X261350Y263876D01*
X261315Y263896D01*
X261285Y263921D01*
X261176Y263972D01*
X261072Y264030D01*
X261033Y264040D01*
X260997Y264057D01*
X260880Y264079D01*
X260764Y264109D01*
X260724Y264109D01*
X260684Y264116D01*
X260565Y264109D01*
X260445Y264109D01*
X260407Y264099D01*
X260367Y264097D01*
X260253Y264060D01*
X260137Y264030D01*
X260102Y264011D01*
X260065Y263999D01*
X259963Y263935D01*
X259859Y263877D01*
X259830Y263850D01*
X259796Y263828D01*
X259714Y263741D01*
X259627Y263659D01*
X259605Y263626D01*
X259578Y263597D01*
X259520Y263492D01*
X259456Y263391D01*
X259444Y263353D01*
X259424Y263318D01*
X259395Y263203D01*
X259357Y263089D01*
X259355Y263049D01*
X259345Y263010D01*
X259335Y262850D01*
X259335Y234416D01*
X259341Y234367D01*
X259339Y234317D01*
X259361Y234210D01*
X259375Y234101D01*
X259393Y234054D01*
X259403Y234006D01*
X259451Y233907D01*
X259492Y233805D01*
X259521Y233765D01*
X259543Y233720D01*
X259614Y233637D01*
X259678Y233548D01*
X259717Y233516D01*
X259749Y233478D01*
X259839Y233415D01*
X259923Y233345D01*
X259968Y233324D01*
X260009Y233295D01*
X260112Y233256D01*
X260211Y233209D01*
X260260Y233200D01*
X260306Y233182D01*
X260416Y233170D01*
X260523Y233150D01*
X260573Y233153D01*
X260622Y233147D01*
X260731Y233162D01*
X260841Y233169D01*
X260888Y233185D01*
X260937Y233192D01*
X261090Y233244D01*
X264376Y234605D01*
X269024Y234605D01*
X272310Y233244D01*
X272358Y233230D01*
X272403Y233209D01*
X272511Y233189D01*
X272617Y233160D01*
X272667Y233159D01*
X272716Y233150D01*
X272825Y233156D01*
X272935Y233155D01*
X272983Y233166D01*
X273033Y233169D01*
X273137Y233203D01*
X273244Y233229D01*
X273288Y233252D01*
X273335Y233267D01*
X273428Y233326D01*
X273525Y233377D01*
X273562Y233411D01*
X273604Y233437D01*
X273679Y233518D01*
X273761Y233591D01*
X273788Y233633D01*
X273822Y233669D01*
X273875Y233765D01*
X273935Y233857D01*
X273952Y233904D01*
X273976Y233948D01*
X274003Y234054D01*
X274039Y234158D01*
X274043Y234207D01*
X274055Y234256D01*
X274065Y234416D01*
X274065Y262850D01*
X274060Y262889D01*
X274063Y262929D01*
X274040Y263047D01*
X274025Y263165D01*
X274011Y263202D01*
X274003Y263241D01*
X273952Y263350D01*
X273908Y263461D01*
X273885Y263493D01*
X273868Y263529D01*
X273792Y263621D01*
X273722Y263718D01*
X273691Y263744D01*
X273665Y263774D01*
X273569Y263845D01*
X273477Y263921D01*
X273440Y263938D01*
X273408Y263961D01*
X273297Y264006D01*
X273189Y264057D01*
X273150Y264064D01*
X273113Y264079D01*
X272994Y264094D01*
X272877Y264116D01*
X272837Y264114D01*
X272797Y264119D01*
X272678Y264104D01*
X272559Y264097D01*
X272521Y264084D01*
X272482Y264079D01*
X272370Y264035D01*
X272257Y263999D01*
X272223Y263977D01*
X272186Y263963D01*
X272050Y263876D01*
X271983Y263828D01*
X270570Y263108D01*
X269199Y262663D01*
X269199Y271220D01*
X269184Y271338D01*
X269177Y271457D01*
X269164Y271495D01*
X269159Y271535D01*
X269116Y271646D01*
X269079Y271759D01*
X269057Y271793D01*
X269042Y271831D01*
X268973Y271927D01*
X268909Y272028D01*
X268879Y272056D01*
X268856Y272088D01*
X268764Y272164D01*
X268677Y272246D01*
X268642Y272265D01*
X268611Y272291D01*
X268503Y272342D01*
X268399Y272399D01*
X268359Y272409D01*
X268323Y272427D01*
X268216Y272447D01*
X268246Y272451D01*
X268356Y272495D01*
X268469Y272531D01*
X268504Y272553D01*
X268541Y272568D01*
X268637Y272638D01*
X268738Y272701D01*
X268766Y272731D01*
X268799Y272755D01*
X268875Y272846D01*
X268956Y272933D01*
X268976Y272968D01*
X269001Y273000D01*
X269052Y273107D01*
X269110Y273212D01*
X269120Y273251D01*
X269137Y273287D01*
X269159Y273404D01*
X269189Y273520D01*
X269193Y273580D01*
X269197Y273600D01*
X269195Y273620D01*
X269199Y273680D01*
X269199Y282237D01*
X270570Y281792D01*
X271983Y281072D01*
X272050Y281024D01*
X272085Y281004D01*
X272115Y280979D01*
X272224Y280928D01*
X272328Y280870D01*
X272367Y280860D01*
X272403Y280843D01*
X272520Y280821D01*
X272636Y280791D01*
X272676Y280791D01*
X272716Y280784D01*
X272835Y280791D01*
X272955Y280791D01*
X272993Y280801D01*
X273033Y280803D01*
X273147Y280840D01*
X273263Y280870D01*
X273298Y280889D01*
X273335Y280901D01*
X273437Y280965D01*
X273541Y281023D01*
X273570Y281050D01*
X273604Y281072D01*
X273686Y281159D01*
X273773Y281241D01*
X273795Y281274D01*
X273822Y281303D01*
X273880Y281408D01*
X273944Y281509D01*
X273956Y281547D01*
X273976Y281582D01*
X274005Y281697D01*
X274043Y281811D01*
X274045Y281851D01*
X274055Y281890D01*
X274065Y282050D01*
X274065Y341092D01*
X274053Y341190D01*
X274050Y341289D01*
X274033Y341347D01*
X274025Y341408D01*
X273989Y341500D01*
X273961Y341595D01*
X273931Y341647D01*
X273908Y341703D01*
X273850Y341783D01*
X273800Y341869D01*
X273734Y341944D01*
X273722Y341961D01*
X273712Y341968D01*
X273694Y341990D01*
X272748Y342935D01*
X271553Y345819D01*
X271553Y348941D01*
X272748Y351825D01*
X274955Y354032D01*
X277839Y355227D01*
X280961Y355227D01*
X283845Y354032D01*
X286052Y351825D01*
X287247Y348941D01*
X287247Y345819D01*
X286052Y342935D01*
X285106Y341990D01*
X285046Y341911D01*
X284978Y341839D01*
X284949Y341786D01*
X284912Y341738D01*
X284872Y341647D01*
X284824Y341561D01*
X284809Y341502D01*
X284785Y341446D01*
X284770Y341348D01*
X284745Y341253D01*
X284739Y341153D01*
X284735Y341132D01*
X284737Y341120D01*
X284735Y341092D01*
X284735Y283860D01*
X284741Y283810D01*
X284739Y283761D01*
X284761Y283653D01*
X284775Y283544D01*
X284793Y283498D01*
X284803Y283449D01*
X284851Y283350D01*
X284892Y283248D01*
X284921Y283208D01*
X284943Y283164D01*
X285014Y283080D01*
X285078Y282991D01*
X285117Y282959D01*
X285149Y282922D01*
X285239Y282858D01*
X285323Y282788D01*
X285368Y282767D01*
X285409Y282738D01*
X285512Y282699D01*
X285611Y282653D01*
X285660Y282643D01*
X285706Y282626D01*
X285816Y282614D01*
X285923Y282593D01*
X285973Y282596D01*
X286022Y282591D01*
X286131Y282606D01*
X286241Y282613D01*
X286288Y282628D01*
X286337Y282635D01*
X286490Y282687D01*
X289792Y284055D01*
X294408Y284055D01*
X297710Y282687D01*
X297758Y282674D01*
X297803Y282653D01*
X297911Y282632D01*
X298017Y282603D01*
X298067Y282602D01*
X298116Y282593D01*
X298225Y282600D01*
X298335Y282598D01*
X298383Y282610D01*
X298433Y282613D01*
X298537Y282646D01*
X298644Y282672D01*
X298688Y282695D01*
X298735Y282711D01*
X298828Y282769D01*
X298925Y282821D01*
X298962Y282854D01*
X299004Y282881D01*
X299079Y282961D01*
X299161Y283035D01*
X299188Y283076D01*
X299222Y283113D01*
X299275Y283209D01*
X299335Y283301D01*
X299352Y283348D01*
X299376Y283391D01*
X299403Y283497D01*
X299439Y283601D01*
X299443Y283651D01*
X299455Y283699D01*
X299465Y283860D01*
X299465Y310612D01*
X299453Y310710D01*
X299450Y310809D01*
X299433Y310867D01*
X299425Y310928D01*
X299389Y311020D01*
X299361Y311115D01*
X299331Y311167D01*
X299308Y311223D01*
X299250Y311303D01*
X299200Y311389D01*
X299134Y311464D01*
X299122Y311481D01*
X299112Y311488D01*
X299094Y311510D01*
X298148Y312455D01*
X296953Y315339D01*
X296953Y318461D01*
X298148Y321345D01*
X300355Y323552D01*
X303239Y324747D01*
X306361Y324747D01*
X309150Y323591D01*
X309284Y323555D01*
X309417Y323514D01*
X309438Y323513D01*
X309457Y323507D01*
X309597Y323505D01*
X309735Y323499D01*
X309755Y323503D01*
X309775Y323502D01*
X309911Y323535D01*
X310046Y323563D01*
X310065Y323572D01*
X310084Y323576D01*
X310207Y323641D01*
X310332Y323703D01*
X310348Y323716D01*
X310365Y323725D01*
X310468Y323819D01*
X310574Y323909D01*
X310586Y323925D01*
X310601Y323939D01*
X310677Y324055D01*
X310757Y324169D01*
X310764Y324188D01*
X310776Y324205D01*
X310821Y324336D01*
X310870Y324466D01*
X310872Y324486D01*
X310879Y324506D01*
X310890Y324644D01*
X310905Y324782D01*
X310902Y324802D01*
X310904Y324823D01*
X310880Y324960D01*
X310861Y325097D01*
X310852Y325124D01*
X310850Y325136D01*
X310841Y325155D01*
X310809Y325250D01*
X309653Y328039D01*
X309653Y331161D01*
X310848Y334045D01*
X313055Y336252D01*
X315939Y337447D01*
X319061Y337447D01*
X321945Y336252D01*
X324152Y334045D01*
X325347Y331161D01*
X325347Y329823D01*
X325359Y329725D01*
X325362Y329626D01*
X325379Y329568D01*
X325387Y329508D01*
X325423Y329416D01*
X325451Y329321D01*
X325481Y329269D01*
X325504Y329212D01*
X325562Y329132D01*
X325612Y329047D01*
X325678Y328971D01*
X325690Y328955D01*
X325700Y328947D01*
X325718Y328926D01*
X333043Y321601D01*
X334723Y319922D01*
X335535Y317961D01*
X335535Y283860D01*
X335541Y283810D01*
X335539Y283761D01*
X335561Y283653D01*
X335575Y283544D01*
X335593Y283498D01*
X335603Y283449D01*
X335651Y283350D01*
X335692Y283248D01*
X335721Y283208D01*
X335743Y283164D01*
X335814Y283080D01*
X335878Y282991D01*
X335917Y282959D01*
X335949Y282922D01*
X336039Y282858D01*
X336123Y282788D01*
X336168Y282767D01*
X336209Y282738D01*
X336312Y282699D01*
X336411Y282653D01*
X336460Y282643D01*
X336506Y282626D01*
X336616Y282614D01*
X336723Y282593D01*
X336773Y282596D01*
X336822Y282591D01*
X336931Y282606D01*
X337041Y282613D01*
X337088Y282628D01*
X337137Y282635D01*
X337290Y282687D01*
X340592Y284055D01*
X345208Y284055D01*
X348510Y282687D01*
X348558Y282674D01*
X348603Y282653D01*
X348711Y282632D01*
X348817Y282603D01*
X348867Y282602D01*
X348916Y282593D01*
X349025Y282600D01*
X349135Y282598D01*
X349183Y282610D01*
X349233Y282613D01*
X349337Y282646D01*
X349444Y282672D01*
X349488Y282695D01*
X349535Y282711D01*
X349628Y282769D01*
X349725Y282821D01*
X349762Y282854D01*
X349804Y282881D01*
X349879Y282961D01*
X349961Y283035D01*
X349988Y283076D01*
X350022Y283113D01*
X350075Y283209D01*
X350135Y283301D01*
X350152Y283348D01*
X350176Y283391D01*
X350203Y283497D01*
X350239Y283601D01*
X350243Y283651D01*
X350255Y283699D01*
X350265Y283860D01*
X350265Y449804D01*
X350248Y449942D01*
X350235Y450080D01*
X350228Y450099D01*
X350225Y450120D01*
X350174Y450249D01*
X350127Y450380D01*
X350116Y450397D01*
X350108Y450415D01*
X350027Y450528D01*
X349949Y450643D01*
X349933Y450656D01*
X349922Y450673D01*
X349814Y450761D01*
X349710Y450853D01*
X349692Y450863D01*
X349677Y450875D01*
X349551Y450935D01*
X349427Y450998D01*
X349407Y451002D01*
X349389Y451011D01*
X349252Y451037D01*
X349117Y451068D01*
X349096Y451067D01*
X349077Y451071D01*
X348938Y451062D01*
X348799Y451058D01*
X348779Y451052D01*
X348759Y451051D01*
X348627Y451008D01*
X348493Y450970D01*
X348476Y450959D01*
X348457Y450953D01*
X348339Y450879D01*
X348219Y450808D01*
X348198Y450789D01*
X348188Y450783D01*
X348174Y450768D01*
X348099Y450702D01*
X347345Y449948D01*
X344461Y448753D01*
X341339Y448753D01*
X338455Y449948D01*
X337701Y450702D01*
X337592Y450787D01*
X337485Y450875D01*
X337466Y450884D01*
X337450Y450896D01*
X337322Y450952D01*
X337197Y451011D01*
X337177Y451015D01*
X337158Y451023D01*
X337020Y451045D01*
X336884Y451071D01*
X336864Y451070D01*
X336844Y451073D01*
X336705Y451060D01*
X336567Y451051D01*
X336548Y451045D01*
X336528Y451043D01*
X336396Y450996D01*
X336265Y450953D01*
X336247Y450942D01*
X336228Y450935D01*
X336113Y450857D01*
X335996Y450783D01*
X335982Y450768D01*
X335965Y450757D01*
X335873Y450653D01*
X335778Y450551D01*
X335768Y450533D01*
X335755Y450518D01*
X335692Y450395D01*
X335624Y450273D01*
X335619Y450253D01*
X335610Y450235D01*
X335580Y450099D01*
X335545Y449965D01*
X335543Y449937D01*
X335540Y449925D01*
X335541Y449904D01*
X335535Y449804D01*
X335535Y412088D01*
X335547Y411990D01*
X335550Y411891D01*
X335567Y411833D01*
X335575Y411772D01*
X335611Y411680D01*
X335639Y411585D01*
X335669Y411533D01*
X335692Y411477D01*
X335750Y411397D01*
X335800Y411311D01*
X335866Y411236D01*
X335878Y411219D01*
X335888Y411212D01*
X335906Y411190D01*
X336852Y410245D01*
X338047Y407361D01*
X338047Y404239D01*
X336852Y401355D01*
X334645Y399148D01*
X331761Y397953D01*
X328639Y397953D01*
X325755Y399148D01*
X325001Y399902D01*
X324892Y399987D01*
X324785Y400075D01*
X324766Y400084D01*
X324750Y400096D01*
X324622Y400152D01*
X324497Y400211D01*
X324477Y400215D01*
X324458Y400223D01*
X324320Y400245D01*
X324184Y400271D01*
X324164Y400270D01*
X324144Y400273D01*
X324005Y400260D01*
X323867Y400251D01*
X323848Y400245D01*
X323828Y400243D01*
X323696Y400196D01*
X323565Y400153D01*
X323547Y400142D01*
X323528Y400135D01*
X323413Y400057D01*
X323296Y399983D01*
X323282Y399968D01*
X323265Y399957D01*
X323173Y399853D01*
X323078Y399751D01*
X323068Y399733D01*
X323055Y399718D01*
X322992Y399595D01*
X322924Y399473D01*
X322919Y399453D01*
X322910Y399435D01*
X322880Y399299D01*
X322845Y399165D01*
X322843Y399137D01*
X322840Y399125D01*
X322841Y399104D01*
X322835Y399004D01*
X322835Y386688D01*
X322847Y386590D01*
X322850Y386491D01*
X322867Y386433D01*
X322875Y386372D01*
X322911Y386280D01*
X322939Y386185D01*
X322969Y386133D01*
X322992Y386077D01*
X323050Y385997D01*
X323100Y385911D01*
X323166Y385836D01*
X323178Y385819D01*
X323188Y385812D01*
X323206Y385790D01*
X324152Y384845D01*
X325347Y381961D01*
X325347Y378839D01*
X324152Y375955D01*
X321945Y373748D01*
X319061Y372553D01*
X315939Y372553D01*
X313055Y373748D01*
X312301Y374502D01*
X312192Y374587D01*
X312085Y374675D01*
X312066Y374684D01*
X312050Y374696D01*
X311922Y374752D01*
X311797Y374811D01*
X311777Y374815D01*
X311758Y374823D01*
X311620Y374845D01*
X311484Y374871D01*
X311464Y374870D01*
X311444Y374873D01*
X311305Y374860D01*
X311167Y374851D01*
X311148Y374845D01*
X311128Y374843D01*
X310996Y374796D01*
X310865Y374753D01*
X310847Y374742D01*
X310828Y374735D01*
X310713Y374657D01*
X310596Y374583D01*
X310582Y374568D01*
X310565Y374557D01*
X310473Y374453D01*
X310378Y374351D01*
X310368Y374333D01*
X310355Y374318D01*
X310292Y374195D01*
X310224Y374073D01*
X310219Y374053D01*
X310210Y374035D01*
X310180Y373899D01*
X310145Y373765D01*
X310143Y373737D01*
X310140Y373725D01*
X310141Y373704D01*
X310135Y373604D01*
X310135Y361288D01*
X310147Y361190D01*
X310150Y361091D01*
X310167Y361033D01*
X310175Y360972D01*
X310211Y360880D01*
X310239Y360785D01*
X310269Y360733D01*
X310292Y360677D01*
X310350Y360597D01*
X310400Y360511D01*
X310466Y360436D01*
X310478Y360419D01*
X310488Y360412D01*
X310506Y360390D01*
X311452Y359445D01*
X312647Y356561D01*
X312647Y353439D01*
X311452Y350555D01*
X309245Y348348D01*
X306361Y347153D01*
X303239Y347153D01*
X300355Y348348D01*
X298148Y350555D01*
X296953Y353439D01*
X296953Y356561D01*
X298148Y359445D01*
X299094Y360390D01*
X299154Y360469D01*
X299222Y360541D01*
X299251Y360594D01*
X299288Y360642D01*
X299328Y360733D01*
X299376Y360819D01*
X299391Y360878D01*
X299415Y360934D01*
X299430Y361032D01*
X299455Y361127D01*
X299461Y361227D01*
X299465Y361248D01*
X299463Y361260D01*
X299465Y361288D01*
X299465Y564612D01*
X299453Y564710D01*
X299450Y564809D01*
X299433Y564867D01*
X299425Y564928D01*
X299389Y565020D01*
X299361Y565115D01*
X299331Y565167D01*
X299308Y565223D01*
X299250Y565303D01*
X299200Y565389D01*
X299134Y565464D01*
X299122Y565481D01*
X299112Y565488D01*
X299094Y565510D01*
X298148Y566455D01*
X296953Y569339D01*
X296953Y572461D01*
X298148Y575345D01*
X300355Y577552D01*
X303239Y578747D01*
X306361Y578747D01*
X309150Y577591D01*
X309284Y577555D01*
X309417Y577514D01*
X309438Y577513D01*
X309457Y577507D01*
X309597Y577505D01*
X309735Y577499D01*
X309755Y577503D01*
X309775Y577502D01*
X309911Y577535D01*
X310046Y577563D01*
X310065Y577572D01*
X310084Y577576D01*
X310207Y577641D01*
X310332Y577703D01*
X310348Y577716D01*
X310365Y577725D01*
X310468Y577819D01*
X310574Y577909D01*
X310586Y577925D01*
X310601Y577939D01*
X310677Y578055D01*
X310757Y578169D01*
X310764Y578188D01*
X310776Y578205D01*
X310821Y578336D01*
X310870Y578466D01*
X310872Y578486D01*
X310879Y578506D01*
X310890Y578644D01*
X310905Y578782D01*
X310902Y578802D01*
X310904Y578823D01*
X310880Y578960D01*
X310861Y579097D01*
X310852Y579124D01*
X310850Y579136D01*
X310841Y579155D01*
X310809Y579250D01*
X309653Y582039D01*
X309653Y585161D01*
X310848Y588045D01*
X313055Y590252D01*
X315939Y591447D01*
X319061Y591447D01*
X321850Y590291D01*
X321984Y590255D01*
X322117Y590214D01*
X322138Y590213D01*
X322157Y590207D01*
X322297Y590205D01*
X322435Y590199D01*
X322455Y590203D01*
X322475Y590202D01*
X322611Y590235D01*
X322746Y590263D01*
X322765Y590272D01*
X322784Y590276D01*
X322907Y590341D01*
X323032Y590403D01*
X323048Y590416D01*
X323065Y590425D01*
X323168Y590519D01*
X323274Y590609D01*
X323286Y590625D01*
X323301Y590639D01*
X323377Y590755D01*
X323457Y590869D01*
X323464Y590888D01*
X323476Y590905D01*
X323521Y591036D01*
X323570Y591166D01*
X323572Y591186D01*
X323579Y591206D01*
X323590Y591344D01*
X323605Y591482D01*
X323602Y591502D01*
X323604Y591523D01*
X323580Y591660D01*
X323561Y591797D01*
X323552Y591824D01*
X323550Y591836D01*
X323541Y591855D01*
X323509Y591950D01*
X322353Y594739D01*
X322353Y597861D01*
X323548Y600745D01*
X325755Y602952D01*
X328639Y604147D01*
X331761Y604147D01*
X334550Y602991D01*
X334684Y602955D01*
X334817Y602914D01*
X334838Y602913D01*
X334857Y602907D01*
X334997Y602905D01*
X335135Y602899D01*
X335155Y602903D01*
X335175Y602902D01*
X335311Y602935D01*
X335446Y602963D01*
X335465Y602972D01*
X335484Y602976D01*
X335607Y603041D01*
X335732Y603103D01*
X335748Y603116D01*
X335765Y603125D01*
X335868Y603219D01*
X335974Y603309D01*
X335986Y603325D01*
X336001Y603339D01*
X336077Y603455D01*
X336157Y603569D01*
X336164Y603588D01*
X336176Y603605D01*
X336221Y603736D01*
X336270Y603866D01*
X336272Y603886D01*
X336279Y603906D01*
X336290Y604044D01*
X336305Y604182D01*
X336302Y604202D01*
X336304Y604223D01*
X336280Y604360D01*
X336261Y604497D01*
X336252Y604524D01*
X336250Y604536D01*
X336241Y604555D01*
X336209Y604650D01*
X335053Y607439D01*
X335053Y610561D01*
X336248Y613445D01*
X338455Y615652D01*
X341339Y616847D01*
X344461Y616847D01*
X347345Y615652D01*
X349552Y613445D01*
X350747Y610561D01*
X350747Y607439D01*
X349552Y604555D01*
X348606Y603610D01*
X348546Y603531D01*
X348478Y603459D01*
X348449Y603406D01*
X348412Y603358D01*
X348372Y603267D01*
X348324Y603181D01*
X348309Y603122D01*
X348285Y603066D01*
X348270Y602968D01*
X348245Y602873D01*
X348239Y602773D01*
X348235Y602752D01*
X348237Y602740D01*
X348235Y602712D01*
X348235Y489620D01*
X348243Y489551D01*
X348242Y489481D01*
X348263Y489393D01*
X348275Y489304D01*
X348300Y489239D01*
X348317Y489172D01*
X348359Y489092D01*
X348392Y489009D01*
X348433Y488952D01*
X348465Y488890D01*
X348526Y488824D01*
X348578Y488751D01*
X348632Y488707D01*
X348679Y488655D01*
X348754Y488606D01*
X348823Y488549D01*
X348887Y488519D01*
X348945Y488480D01*
X349030Y488451D01*
X349111Y488413D01*
X349180Y488400D01*
X349246Y488377D01*
X349335Y488370D01*
X349423Y488353D01*
X349493Y488358D01*
X349563Y488352D01*
X349651Y488367D01*
X349741Y488373D01*
X349807Y488394D01*
X349876Y488406D01*
X349958Y488443D01*
X350043Y488471D01*
X350102Y488508D01*
X350166Y488537D01*
X350236Y488593D01*
X350312Y488641D01*
X350360Y488692D01*
X350414Y488736D01*
X350469Y488807D01*
X350530Y488873D01*
X350564Y488934D01*
X350606Y488990D01*
X350677Y489134D01*
X351077Y490102D01*
X352757Y491781D01*
X356609Y495633D01*
X356627Y495657D01*
X356649Y495676D01*
X356724Y495782D01*
X356804Y495884D01*
X356815Y495912D01*
X356832Y495936D01*
X356878Y496057D01*
X356930Y496176D01*
X356935Y496205D01*
X356945Y496233D01*
X356959Y496362D01*
X356980Y496490D01*
X356977Y496520D01*
X356980Y496549D01*
X356962Y496678D01*
X356950Y496807D01*
X356940Y496835D01*
X356936Y496864D01*
X356884Y497016D01*
X356695Y497472D01*
X356695Y502088D01*
X358462Y506354D01*
X361726Y509618D01*
X365805Y511307D01*
X365925Y511376D01*
X366049Y511441D01*
X366064Y511455D01*
X366081Y511465D01*
X366181Y511562D01*
X366284Y511655D01*
X366295Y511672D01*
X366310Y511686D01*
X366382Y511804D01*
X366459Y511921D01*
X366465Y511940D01*
X366476Y511957D01*
X366517Y512090D01*
X366562Y512222D01*
X366564Y512242D01*
X366569Y512261D01*
X366576Y512400D01*
X366587Y512539D01*
X366584Y512559D01*
X366585Y512579D01*
X366556Y512715D01*
X366533Y512852D01*
X366524Y512871D01*
X366520Y512890D01*
X366459Y513015D01*
X366402Y513142D01*
X366390Y513158D01*
X366381Y513176D01*
X366290Y513282D01*
X366204Y513390D01*
X366187Y513403D01*
X366174Y513418D01*
X366061Y513498D01*
X365949Y513582D01*
X365924Y513594D01*
X365914Y513601D01*
X365895Y513608D01*
X365805Y513653D01*
X361726Y515342D01*
X358462Y518606D01*
X356695Y522872D01*
X356695Y527488D01*
X358462Y531754D01*
X361726Y535018D01*
X365805Y536707D01*
X365925Y536776D01*
X366049Y536841D01*
X366064Y536855D01*
X366081Y536865D01*
X366181Y536962D01*
X366284Y537055D01*
X366295Y537072D01*
X366310Y537086D01*
X366382Y537204D01*
X366459Y537321D01*
X366465Y537340D01*
X366476Y537357D01*
X366517Y537490D01*
X366562Y537622D01*
X366564Y537642D01*
X366569Y537661D01*
X366576Y537800D01*
X366587Y537939D01*
X366584Y537959D01*
X366585Y537979D01*
X366556Y538115D01*
X366533Y538252D01*
X366524Y538271D01*
X366520Y538290D01*
X366459Y538415D01*
X366402Y538542D01*
X366390Y538558D01*
X366381Y538576D01*
X366290Y538682D01*
X366204Y538790D01*
X366187Y538803D01*
X366174Y538818D01*
X366061Y538898D01*
X365949Y538982D01*
X365924Y538994D01*
X365914Y539001D01*
X365895Y539008D01*
X365805Y539053D01*
X361726Y540742D01*
X358462Y544006D01*
X356695Y548272D01*
X356695Y552888D01*
X358462Y557154D01*
X361726Y560418D01*
X365992Y562185D01*
X370608Y562185D01*
X374874Y560418D01*
X378138Y557154D01*
X379905Y552888D01*
X379905Y548272D01*
X378138Y544006D01*
X374874Y540742D01*
X370795Y539053D01*
X370674Y538984D01*
X370551Y538919D01*
X370536Y538905D01*
X370519Y538895D01*
X370419Y538798D01*
X370316Y538705D01*
X370305Y538688D01*
X370290Y538674D01*
X370217Y538555D01*
X370141Y538439D01*
X370135Y538420D01*
X370124Y538403D01*
X370083Y538270D01*
X370038Y538138D01*
X370037Y538118D01*
X370031Y538099D01*
X370024Y537960D01*
X370013Y537821D01*
X370016Y537801D01*
X370015Y537781D01*
X370044Y537645D01*
X370067Y537508D01*
X370076Y537489D01*
X370080Y537470D01*
X370141Y537344D01*
X370198Y537218D01*
X370210Y537202D01*
X370219Y537184D01*
X370310Y537078D01*
X370396Y536970D01*
X370413Y536957D01*
X370426Y536942D01*
X370540Y536862D01*
X370651Y536778D01*
X370676Y536766D01*
X370686Y536759D01*
X370705Y536752D01*
X370795Y536707D01*
X374874Y535018D01*
X378138Y531754D01*
X379905Y527488D01*
X379905Y522872D01*
X378138Y518606D01*
X374874Y515342D01*
X370795Y513653D01*
X370674Y513584D01*
X370551Y513519D01*
X370536Y513505D01*
X370519Y513495D01*
X370419Y513398D01*
X370316Y513305D01*
X370305Y513288D01*
X370290Y513274D01*
X370217Y513155D01*
X370141Y513039D01*
X370135Y513020D01*
X370124Y513003D01*
X370083Y512870D01*
X370038Y512738D01*
X370037Y512718D01*
X370031Y512699D01*
X370024Y512560D01*
X370013Y512421D01*
X370016Y512401D01*
X370015Y512381D01*
X370044Y512245D01*
X370067Y512108D01*
X370076Y512089D01*
X370080Y512070D01*
X370141Y511944D01*
X370198Y511818D01*
X370210Y511802D01*
X370219Y511784D01*
X370310Y511678D01*
X370396Y511570D01*
X370413Y511557D01*
X370426Y511542D01*
X370540Y511462D01*
X370651Y511378D01*
X370676Y511366D01*
X370686Y511359D01*
X370705Y511352D01*
X370795Y511307D01*
X374874Y509618D01*
X378138Y506354D01*
X379905Y502088D01*
X379905Y497472D01*
X378138Y493206D01*
X374874Y489942D01*
X370795Y488253D01*
X370674Y488184D01*
X370551Y488119D01*
X370536Y488105D01*
X370519Y488095D01*
X370419Y487998D01*
X370316Y487905D01*
X370305Y487888D01*
X370290Y487874D01*
X370217Y487755D01*
X370141Y487639D01*
X370135Y487620D01*
X370124Y487603D01*
X370083Y487470D01*
X370038Y487338D01*
X370037Y487318D01*
X370031Y487299D01*
X370024Y487160D01*
X370013Y487021D01*
X370016Y487001D01*
X370015Y486981D01*
X370044Y486845D01*
X370067Y486708D01*
X370076Y486689D01*
X370080Y486670D01*
X370141Y486544D01*
X370198Y486418D01*
X370210Y486402D01*
X370219Y486384D01*
X370310Y486278D01*
X370396Y486170D01*
X370413Y486157D01*
X370426Y486142D01*
X370540Y486062D01*
X370651Y485978D01*
X370676Y485966D01*
X370686Y485959D01*
X370705Y485952D01*
X370795Y485907D01*
X374874Y484218D01*
X378138Y480954D01*
X379905Y476688D01*
X379905Y472072D01*
X378138Y467806D01*
X374874Y464542D01*
X370795Y462853D01*
X370674Y462784D01*
X370551Y462719D01*
X370536Y462705D01*
X370519Y462695D01*
X370419Y462598D01*
X370316Y462505D01*
X370305Y462488D01*
X370290Y462474D01*
X370217Y462355D01*
X370141Y462239D01*
X370135Y462220D01*
X370124Y462203D01*
X370083Y462070D01*
X370038Y461938D01*
X370037Y461918D01*
X370031Y461899D01*
X370024Y461760D01*
X370013Y461621D01*
X370016Y461601D01*
X370015Y461581D01*
X370044Y461445D01*
X370067Y461308D01*
X370076Y461289D01*
X370080Y461270D01*
X370141Y461144D01*
X370198Y461018D01*
X370210Y461002D01*
X370219Y460984D01*
X370310Y460878D01*
X370396Y460770D01*
X370413Y460757D01*
X370426Y460742D01*
X370540Y460662D01*
X370651Y460578D01*
X370676Y460566D01*
X370686Y460559D01*
X370705Y460552D01*
X370795Y460507D01*
X374874Y458818D01*
X378138Y455554D01*
X379905Y451288D01*
X379905Y446672D01*
X378138Y442406D01*
X374874Y439142D01*
X370795Y437453D01*
X370674Y437384D01*
X370551Y437319D01*
X370536Y437305D01*
X370519Y437295D01*
X370419Y437198D01*
X370316Y437105D01*
X370305Y437088D01*
X370290Y437074D01*
X370217Y436955D01*
X370141Y436839D01*
X370135Y436820D01*
X370124Y436803D01*
X370083Y436670D01*
X370038Y436538D01*
X370037Y436518D01*
X370031Y436499D01*
X370024Y436360D01*
X370013Y436221D01*
X370016Y436201D01*
X370015Y436181D01*
X370044Y436045D01*
X370067Y435908D01*
X370076Y435889D01*
X370080Y435870D01*
X370141Y435744D01*
X370198Y435618D01*
X370210Y435602D01*
X370219Y435584D01*
X370310Y435478D01*
X370396Y435370D01*
X370413Y435357D01*
X370426Y435342D01*
X370540Y435262D01*
X370651Y435178D01*
X370676Y435166D01*
X370686Y435159D01*
X370705Y435152D01*
X370795Y435107D01*
X374874Y433418D01*
X378138Y430154D01*
X379905Y425888D01*
X379905Y421272D01*
X378138Y417006D01*
X374874Y413742D01*
X370795Y412053D01*
X370674Y411984D01*
X370551Y411919D01*
X370536Y411905D01*
X370519Y411895D01*
X370419Y411798D01*
X370316Y411705D01*
X370305Y411688D01*
X370290Y411674D01*
X370217Y411555D01*
X370141Y411439D01*
X370135Y411420D01*
X370124Y411403D01*
X370083Y411270D01*
X370038Y411138D01*
X370037Y411118D01*
X370031Y411099D01*
X370024Y410960D01*
X370013Y410821D01*
X370016Y410801D01*
X370015Y410781D01*
X370044Y410645D01*
X370067Y410508D01*
X370076Y410489D01*
X370080Y410470D01*
X370141Y410344D01*
X370198Y410218D01*
X370210Y410202D01*
X370219Y410184D01*
X370310Y410078D01*
X370396Y409970D01*
X370413Y409957D01*
X370426Y409942D01*
X370540Y409862D01*
X370651Y409778D01*
X370676Y409766D01*
X370686Y409759D01*
X370705Y409752D01*
X370795Y409707D01*
X374874Y408018D01*
X378138Y404754D01*
X379905Y400488D01*
X379905Y395872D01*
X378138Y391606D01*
X374874Y388342D01*
X370795Y386653D01*
X370674Y386584D01*
X370551Y386519D01*
X370536Y386505D01*
X370519Y386495D01*
X370419Y386398D01*
X370316Y386305D01*
X370305Y386288D01*
X370290Y386274D01*
X370217Y386155D01*
X370141Y386039D01*
X370135Y386020D01*
X370124Y386003D01*
X370083Y385870D01*
X370038Y385738D01*
X370037Y385718D01*
X370031Y385699D01*
X370024Y385560D01*
X370013Y385421D01*
X370016Y385401D01*
X370015Y385381D01*
X370044Y385245D01*
X370067Y385108D01*
X370076Y385089D01*
X370080Y385070D01*
X370141Y384944D01*
X370198Y384818D01*
X370210Y384802D01*
X370219Y384784D01*
X370310Y384678D01*
X370396Y384570D01*
X370413Y384557D01*
X370426Y384542D01*
X370540Y384462D01*
X370651Y384378D01*
X370676Y384366D01*
X370686Y384359D01*
X370705Y384352D01*
X370795Y384307D01*
X374874Y382618D01*
X378138Y379354D01*
X379905Y375088D01*
X379905Y370472D01*
X378138Y366206D01*
X374874Y362942D01*
X370795Y361253D01*
X370674Y361184D01*
X370551Y361119D01*
X370536Y361105D01*
X370519Y361095D01*
X370419Y360998D01*
X370316Y360905D01*
X370305Y360888D01*
X370290Y360874D01*
X370217Y360755D01*
X370141Y360639D01*
X370135Y360620D01*
X370124Y360603D01*
X370083Y360470D01*
X370038Y360338D01*
X370037Y360318D01*
X370031Y360299D01*
X370024Y360160D01*
X370013Y360021D01*
X370016Y360001D01*
X370015Y359981D01*
X370044Y359845D01*
X370067Y359708D01*
X370076Y359689D01*
X370080Y359670D01*
X370141Y359544D01*
X370198Y359418D01*
X370210Y359402D01*
X370219Y359384D01*
X370310Y359278D01*
X370396Y359170D01*
X370413Y359157D01*
X370426Y359142D01*
X370540Y359062D01*
X370651Y358978D01*
X370676Y358966D01*
X370686Y358959D01*
X370705Y358952D01*
X370795Y358907D01*
X374874Y357218D01*
X378138Y353954D01*
X379905Y349688D01*
X379905Y345072D01*
X378138Y340806D01*
X374874Y337542D01*
X370795Y335853D01*
X370674Y335784D01*
X370551Y335719D01*
X370536Y335705D01*
X370519Y335695D01*
X370419Y335598D01*
X370316Y335505D01*
X370305Y335488D01*
X370290Y335474D01*
X370217Y335355D01*
X370141Y335239D01*
X370135Y335220D01*
X370124Y335203D01*
X370083Y335070D01*
X370038Y334938D01*
X370037Y334918D01*
X370031Y334899D01*
X370024Y334760D01*
X370013Y334621D01*
X370016Y334601D01*
X370015Y334581D01*
X370044Y334445D01*
X370067Y334308D01*
X370076Y334289D01*
X370080Y334270D01*
X370141Y334144D01*
X370198Y334018D01*
X370210Y334002D01*
X370219Y333984D01*
X370310Y333878D01*
X370396Y333770D01*
X370413Y333757D01*
X370426Y333742D01*
X370540Y333662D01*
X370651Y333578D01*
X370676Y333566D01*
X370686Y333559D01*
X370705Y333552D01*
X370795Y333507D01*
X374874Y331818D01*
X378138Y328554D01*
X379905Y324288D01*
X379905Y323504D01*
X379920Y323386D01*
X379927Y323267D01*
X379940Y323229D01*
X379945Y323188D01*
X379988Y323078D01*
X380025Y322965D01*
X380047Y322930D01*
X380062Y322893D01*
X380131Y322797D01*
X380195Y322696D01*
X380225Y322668D01*
X380248Y322635D01*
X380340Y322559D01*
X380427Y322478D01*
X380462Y322458D01*
X380493Y322433D01*
X380601Y322382D01*
X380705Y322324D01*
X380745Y322314D01*
X380781Y322297D01*
X380898Y322275D01*
X381013Y322245D01*
X381073Y322241D01*
X381093Y322237D01*
X381114Y322239D01*
X381174Y322235D01*
X383331Y322235D01*
X385292Y321423D01*
X386199Y320516D01*
X386308Y320431D01*
X386415Y320342D01*
X386434Y320333D01*
X386450Y320321D01*
X386577Y320266D01*
X386703Y320206D01*
X386723Y320203D01*
X386742Y320195D01*
X386880Y320173D01*
X387016Y320147D01*
X387036Y320148D01*
X387056Y320145D01*
X387195Y320158D01*
X387333Y320166D01*
X387352Y320173D01*
X387372Y320175D01*
X387504Y320222D01*
X387635Y320264D01*
X387653Y320275D01*
X387672Y320282D01*
X387787Y320360D01*
X387904Y320435D01*
X387918Y320449D01*
X387935Y320461D01*
X388027Y320565D01*
X388122Y320666D01*
X388132Y320684D01*
X388145Y320699D01*
X388208Y320823D01*
X388276Y320945D01*
X388281Y320964D01*
X388290Y320982D01*
X388320Y321118D01*
X388355Y321253D01*
X388357Y321281D01*
X388360Y321293D01*
X388359Y321313D01*
X388365Y321413D01*
X388365Y431262D01*
X388353Y431360D01*
X388350Y431459D01*
X388333Y431517D01*
X388325Y431578D01*
X388289Y431670D01*
X388261Y431765D01*
X388231Y431817D01*
X388208Y431873D01*
X388150Y431953D01*
X388100Y432039D01*
X388034Y432114D01*
X388022Y432131D01*
X388012Y432138D01*
X387994Y432160D01*
X387048Y433105D01*
X385853Y435989D01*
X385853Y439111D01*
X387048Y441995D01*
X389255Y444202D01*
X392139Y445397D01*
X395261Y445397D01*
X398145Y444202D01*
X400352Y441995D01*
X401547Y439111D01*
X401547Y435989D01*
X400352Y433105D01*
X399406Y432160D01*
X399346Y432081D01*
X399278Y432009D01*
X399249Y431956D01*
X399212Y431908D01*
X399172Y431817D01*
X399124Y431731D01*
X399109Y431672D01*
X399085Y431616D01*
X399070Y431518D01*
X399045Y431423D01*
X399039Y431323D01*
X399035Y431302D01*
X399037Y431290D01*
X399035Y431262D01*
X399035Y234206D01*
X399038Y234176D01*
X399036Y234147D01*
X399053Y234052D01*
X399057Y233981D01*
X399067Y233950D01*
X399075Y233890D01*
X399085Y233863D01*
X399090Y233834D01*
X399141Y233721D01*
X399155Y233679D01*
X399164Y233665D01*
X399192Y233595D01*
X399209Y233571D01*
X399221Y233544D01*
X399302Y233442D01*
X399322Y233415D01*
X399325Y233410D01*
X399327Y233408D01*
X399378Y233337D01*
X399401Y233318D01*
X399420Y233295D01*
X399523Y233217D01*
X399623Y233134D01*
X399650Y233122D01*
X399674Y233104D01*
X399818Y233033D01*
X400319Y232826D01*
X403606Y229539D01*
X405227Y225624D01*
X405296Y225503D01*
X405361Y225380D01*
X405375Y225365D01*
X405385Y225348D01*
X405482Y225248D01*
X405575Y225145D01*
X405592Y225134D01*
X405606Y225119D01*
X405725Y225047D01*
X405841Y224970D01*
X405860Y224964D01*
X405877Y224953D01*
X406010Y224912D01*
X406142Y224867D01*
X406162Y224866D01*
X406181Y224860D01*
X406320Y224853D01*
X406459Y224842D01*
X406479Y224845D01*
X406499Y224844D01*
X406635Y224873D01*
X406772Y224896D01*
X406791Y224905D01*
X406810Y224909D01*
X406936Y224970D01*
X407062Y225027D01*
X407078Y225040D01*
X407096Y225048D01*
X407202Y225139D01*
X407310Y225226D01*
X407323Y225242D01*
X407338Y225255D01*
X407418Y225369D01*
X407502Y225480D01*
X407514Y225505D01*
X407521Y225515D01*
X407528Y225534D01*
X407573Y225624D01*
X409194Y229539D01*
X412481Y232826D01*
X412982Y233033D01*
X413007Y233048D01*
X413035Y233057D01*
X413145Y233126D01*
X413258Y233191D01*
X413279Y233211D01*
X413304Y233227D01*
X413393Y233322D01*
X413486Y233412D01*
X413502Y233437D01*
X413522Y233459D01*
X413562Y233530D01*
X413567Y233537D01*
X413579Y233561D01*
X413585Y233573D01*
X413653Y233683D01*
X413661Y233711D01*
X413676Y233737D01*
X413693Y233803D01*
X413703Y233825D01*
X413714Y233881D01*
X413746Y233987D01*
X413748Y234017D01*
X413755Y234045D01*
X413760Y234124D01*
X413763Y234137D01*
X413762Y234152D01*
X413765Y234206D01*
X413765Y513812D01*
X413753Y513910D01*
X413750Y514009D01*
X413733Y514067D01*
X413725Y514128D01*
X413689Y514220D01*
X413661Y514315D01*
X413631Y514367D01*
X413608Y514423D01*
X413550Y514503D01*
X413500Y514589D01*
X413434Y514664D01*
X413422Y514681D01*
X413412Y514688D01*
X413394Y514710D01*
X412448Y515655D01*
X411253Y518539D01*
X411253Y521661D01*
X412448Y524545D01*
X414655Y526752D01*
X417539Y527947D01*
X420661Y527947D01*
X423545Y526752D01*
X425752Y524545D01*
X426947Y521661D01*
X426947Y518539D01*
X425752Y515655D01*
X424806Y514710D01*
X424746Y514631D01*
X424678Y514559D01*
X424649Y514506D01*
X424612Y514458D01*
X424572Y514367D01*
X424524Y514281D01*
X424509Y514222D01*
X424485Y514166D01*
X424470Y514068D01*
X424445Y513973D01*
X424439Y513873D01*
X424435Y513852D01*
X424437Y513840D01*
X424435Y513812D01*
X424435Y234206D01*
X424438Y234176D01*
X424436Y234147D01*
X424453Y234052D01*
X424457Y233981D01*
X424467Y233950D01*
X424475Y233890D01*
X424485Y233863D01*
X424490Y233834D01*
X424541Y233721D01*
X424555Y233679D01*
X424564Y233665D01*
X424592Y233595D01*
X424609Y233571D01*
X424621Y233544D01*
X424702Y233442D01*
X424722Y233415D01*
X424725Y233410D01*
X424727Y233408D01*
X424778Y233337D01*
X424801Y233318D01*
X424820Y233295D01*
X424923Y233217D01*
X425023Y233134D01*
X425050Y233122D01*
X425074Y233104D01*
X425218Y233033D01*
X425719Y232826D01*
X429006Y229539D01*
X430627Y225624D01*
X430696Y225503D01*
X430761Y225380D01*
X430775Y225365D01*
X430785Y225348D01*
X430882Y225248D01*
X430975Y225145D01*
X430992Y225134D01*
X431006Y225119D01*
X431125Y225047D01*
X431241Y224970D01*
X431260Y224964D01*
X431277Y224953D01*
X431410Y224912D01*
X431542Y224867D01*
X431562Y224866D01*
X431581Y224860D01*
X431720Y224853D01*
X431859Y224842D01*
X431879Y224845D01*
X431899Y224844D01*
X432035Y224873D01*
X432172Y224896D01*
X432191Y224905D01*
X432210Y224909D01*
X432336Y224970D01*
X432462Y225027D01*
X432478Y225040D01*
X432496Y225048D01*
X432602Y225139D01*
X432710Y225226D01*
X432723Y225242D01*
X432738Y225255D01*
X432818Y225369D01*
X432902Y225480D01*
X432914Y225505D01*
X432921Y225515D01*
X432928Y225534D01*
X432973Y225624D01*
X434594Y229539D01*
X437881Y232826D01*
X438382Y233033D01*
X438407Y233048D01*
X438435Y233057D01*
X438545Y233126D01*
X438658Y233191D01*
X438679Y233211D01*
X438704Y233227D01*
X438793Y233322D01*
X438886Y233412D01*
X438902Y233437D01*
X438922Y233459D01*
X438962Y233530D01*
X438967Y233537D01*
X438979Y233561D01*
X438985Y233573D01*
X439053Y233683D01*
X439061Y233711D01*
X439076Y233737D01*
X439093Y233803D01*
X439103Y233825D01*
X439114Y233881D01*
X439146Y233987D01*
X439148Y234017D01*
X439155Y234045D01*
X439160Y234124D01*
X439163Y234137D01*
X439162Y234152D01*
X439165Y234206D01*
X439165Y463012D01*
X439153Y463110D01*
X439150Y463209D01*
X439133Y463267D01*
X439125Y463328D01*
X439089Y463420D01*
X439061Y463515D01*
X439031Y463567D01*
X439008Y463623D01*
X438950Y463703D01*
X438900Y463789D01*
X438834Y463864D01*
X438822Y463881D01*
X438812Y463888D01*
X438794Y463910D01*
X437848Y464855D01*
X436653Y467739D01*
X436653Y470861D01*
X437848Y473745D01*
X440055Y475952D01*
X442939Y477147D01*
X446061Y477147D01*
X448945Y475952D01*
X451152Y473745D01*
X452347Y470861D01*
X452347Y467739D01*
X451152Y464855D01*
X450206Y463910D01*
X450146Y463831D01*
X450078Y463759D01*
X450049Y463706D01*
X450012Y463658D01*
X449972Y463567D01*
X449924Y463481D01*
X449909Y463422D01*
X449885Y463366D01*
X449870Y463268D01*
X449845Y463173D01*
X449839Y463073D01*
X449835Y463052D01*
X449837Y463040D01*
X449835Y463012D01*
X449835Y234206D01*
X449838Y234176D01*
X449836Y234147D01*
X449853Y234052D01*
X449857Y233981D01*
X449867Y233950D01*
X449875Y233890D01*
X449885Y233863D01*
X449890Y233834D01*
X449941Y233721D01*
X449955Y233679D01*
X449964Y233665D01*
X449992Y233595D01*
X450009Y233571D01*
X450021Y233544D01*
X450102Y233442D01*
X450122Y233415D01*
X450125Y233410D01*
X450127Y233408D01*
X450178Y233337D01*
X450201Y233318D01*
X450220Y233295D01*
X450323Y233217D01*
X450423Y233134D01*
X450450Y233122D01*
X450474Y233104D01*
X450618Y233033D01*
X451119Y232826D01*
X454406Y229539D01*
X456027Y225624D01*
X456096Y225503D01*
X456161Y225380D01*
X456175Y225365D01*
X456185Y225348D01*
X456282Y225248D01*
X456375Y225145D01*
X456392Y225134D01*
X456406Y225119D01*
X456525Y225047D01*
X456641Y224970D01*
X456660Y224964D01*
X456677Y224953D01*
X456810Y224912D01*
X456942Y224867D01*
X456962Y224866D01*
X456981Y224860D01*
X457120Y224853D01*
X457259Y224842D01*
X457279Y224845D01*
X457299Y224844D01*
X457435Y224873D01*
X457572Y224896D01*
X457591Y224905D01*
X457610Y224909D01*
X457736Y224970D01*
X457862Y225027D01*
X457878Y225040D01*
X457896Y225048D01*
X458002Y225139D01*
X458110Y225226D01*
X458123Y225242D01*
X458138Y225255D01*
X458218Y225369D01*
X458302Y225480D01*
X458314Y225505D01*
X458321Y225515D01*
X458328Y225534D01*
X458373Y225624D01*
X459994Y229539D01*
X463281Y232826D01*
X463782Y233033D01*
X463807Y233048D01*
X463835Y233057D01*
X463945Y233126D01*
X464058Y233191D01*
X464079Y233211D01*
X464104Y233227D01*
X464193Y233322D01*
X464286Y233412D01*
X464302Y233437D01*
X464322Y233459D01*
X464362Y233530D01*
X464367Y233537D01*
X464379Y233561D01*
X464385Y233573D01*
X464453Y233683D01*
X464461Y233711D01*
X464476Y233737D01*
X464493Y233803D01*
X464503Y233825D01*
X464514Y233881D01*
X464546Y233987D01*
X464548Y234017D01*
X464555Y234045D01*
X464560Y234124D01*
X464563Y234137D01*
X464562Y234152D01*
X464565Y234206D01*
X464565Y412212D01*
X464553Y412310D01*
X464550Y412409D01*
X464533Y412467D01*
X464525Y412528D01*
X464489Y412620D01*
X464461Y412715D01*
X464431Y412767D01*
X464408Y412823D01*
X464350Y412903D01*
X464300Y412989D01*
X464234Y413064D01*
X464222Y413081D01*
X464212Y413088D01*
X464194Y413110D01*
X463248Y414055D01*
X462053Y416939D01*
X462053Y420061D01*
X463248Y422945D01*
X465455Y425152D01*
X468339Y426347D01*
X471461Y426347D01*
X474345Y425152D01*
X476552Y422945D01*
X477747Y420061D01*
X477747Y416939D01*
X476552Y414055D01*
X475606Y413110D01*
X475546Y413031D01*
X475478Y412959D01*
X475449Y412906D01*
X475412Y412858D01*
X475372Y412767D01*
X475324Y412681D01*
X475309Y412622D01*
X475285Y412566D01*
X475270Y412468D01*
X475245Y412373D01*
X475239Y412273D01*
X475235Y412252D01*
X475237Y412240D01*
X475235Y412212D01*
X475235Y234206D01*
X475238Y234176D01*
X475236Y234147D01*
X475253Y234052D01*
X475257Y233981D01*
X475267Y233950D01*
X475275Y233890D01*
X475285Y233863D01*
X475290Y233834D01*
X475341Y233721D01*
X475355Y233679D01*
X475364Y233665D01*
X475392Y233595D01*
X475409Y233571D01*
X475421Y233544D01*
X475502Y233442D01*
X475522Y233415D01*
X475525Y233410D01*
X475527Y233408D01*
X475578Y233337D01*
X475601Y233318D01*
X475620Y233295D01*
X475723Y233217D01*
X475823Y233134D01*
X475850Y233122D01*
X475874Y233104D01*
X476018Y233033D01*
X476519Y232826D01*
X479806Y229539D01*
X481427Y225624D01*
X481496Y225503D01*
X481561Y225380D01*
X481575Y225365D01*
X481585Y225348D01*
X481682Y225248D01*
X481775Y225145D01*
X481792Y225134D01*
X481806Y225119D01*
X481925Y225047D01*
X482041Y224970D01*
X482060Y224964D01*
X482077Y224953D01*
X482210Y224912D01*
X482342Y224867D01*
X482362Y224866D01*
X482381Y224860D01*
X482520Y224853D01*
X482659Y224842D01*
X482679Y224845D01*
X482699Y224844D01*
X482835Y224873D01*
X482972Y224896D01*
X482991Y224905D01*
X483010Y224909D01*
X483136Y224970D01*
X483262Y225027D01*
X483278Y225040D01*
X483296Y225048D01*
X483402Y225139D01*
X483510Y225226D01*
X483523Y225242D01*
X483538Y225255D01*
X483618Y225369D01*
X483702Y225480D01*
X483714Y225505D01*
X483721Y225515D01*
X483728Y225534D01*
X483773Y225624D01*
X485394Y229539D01*
X488681Y232826D01*
X489182Y233033D01*
X489207Y233048D01*
X489235Y233057D01*
X489345Y233126D01*
X489458Y233191D01*
X489479Y233211D01*
X489504Y233227D01*
X489593Y233322D01*
X489686Y233412D01*
X489702Y233437D01*
X489722Y233459D01*
X489762Y233530D01*
X489767Y233537D01*
X489779Y233561D01*
X489785Y233573D01*
X489853Y233683D01*
X489861Y233711D01*
X489876Y233737D01*
X489893Y233803D01*
X489903Y233825D01*
X489914Y233881D01*
X489946Y233987D01*
X489948Y234017D01*
X489955Y234045D01*
X489960Y234124D01*
X489963Y234137D01*
X489962Y234152D01*
X489965Y234206D01*
X489965Y539212D01*
X489953Y539310D01*
X489950Y539409D01*
X489933Y539467D01*
X489925Y539528D01*
X489889Y539620D01*
X489861Y539715D01*
X489831Y539767D01*
X489808Y539823D01*
X489750Y539903D01*
X489700Y539989D01*
X489634Y540064D01*
X489622Y540081D01*
X489612Y540088D01*
X489594Y540110D01*
X488648Y541055D01*
X487453Y543939D01*
X487453Y547061D01*
X488648Y549945D01*
X490855Y552152D01*
X493739Y553347D01*
X496861Y553347D01*
X499745Y552152D01*
X501952Y549945D01*
X503147Y547061D01*
X503147Y543939D01*
X501952Y541055D01*
X501006Y540110D01*
X500946Y540031D01*
X500878Y539959D01*
X500849Y539906D01*
X500812Y539858D01*
X500772Y539767D01*
X500724Y539681D01*
X500709Y539622D01*
X500685Y539566D01*
X500670Y539468D01*
X500645Y539373D01*
X500639Y539273D01*
X500635Y539252D01*
X500637Y539240D01*
X500635Y539212D01*
X500635Y234206D01*
X500638Y234176D01*
X500636Y234147D01*
X500653Y234052D01*
X500657Y233981D01*
X500667Y233950D01*
X500675Y233890D01*
X500685Y233863D01*
X500690Y233834D01*
X500741Y233721D01*
X500755Y233679D01*
X500764Y233665D01*
X500792Y233595D01*
X500809Y233571D01*
X500821Y233544D01*
X500902Y233442D01*
X500922Y233415D01*
X500925Y233410D01*
X500927Y233408D01*
X500978Y233337D01*
X501001Y233318D01*
X501020Y233295D01*
X501123Y233217D01*
X501223Y233134D01*
X501250Y233122D01*
X501274Y233104D01*
X501418Y233033D01*
X501919Y232826D01*
X505206Y229539D01*
X506985Y225244D01*
X506985Y205356D01*
X505206Y201061D01*
X501919Y197774D01*
X497624Y195995D01*
X492976Y195995D01*
X488681Y197774D01*
X485394Y201061D01*
X483773Y204976D01*
X483704Y205096D01*
X483639Y205220D01*
X483625Y205234D01*
X483615Y205252D01*
X483518Y205352D01*
X483425Y205455D01*
X483408Y205466D01*
X483394Y205481D01*
X483276Y205553D01*
X483159Y205630D01*
X483140Y205636D01*
X483123Y205647D01*
X482990Y205688D01*
X482858Y205733D01*
X482838Y205734D01*
X482819Y205740D01*
X482680Y205747D01*
X482541Y205758D01*
X482521Y205755D01*
X482501Y205756D01*
X482365Y205727D01*
X482228Y205704D01*
X482210Y205695D01*
X482190Y205691D01*
X482064Y205630D01*
X481938Y205573D01*
X481922Y205560D01*
X481904Y205552D01*
X481798Y205461D01*
X481690Y205374D01*
X481677Y205358D01*
X481662Y205345D01*
X481582Y205231D01*
X481498Y205120D01*
X481486Y205095D01*
X481479Y205085D01*
X481472Y205066D01*
X481427Y204976D01*
X479806Y201061D01*
X476519Y197774D01*
X472224Y195995D01*
X467576Y195995D01*
X463281Y197774D01*
X459994Y201061D01*
X458373Y204976D01*
X458304Y205096D01*
X458239Y205220D01*
X458225Y205234D01*
X458215Y205252D01*
X458118Y205352D01*
X458025Y205455D01*
X458008Y205466D01*
X457994Y205481D01*
X457876Y205553D01*
X457759Y205630D01*
X457740Y205636D01*
X457723Y205647D01*
X457590Y205688D01*
X457458Y205733D01*
X457438Y205734D01*
X457419Y205740D01*
X457280Y205747D01*
X457141Y205758D01*
X457121Y205755D01*
X457101Y205756D01*
X456965Y205727D01*
X456828Y205704D01*
X456810Y205695D01*
X456790Y205691D01*
X456664Y205630D01*
X456538Y205573D01*
X456522Y205560D01*
X456504Y205552D01*
X456398Y205461D01*
X456290Y205374D01*
X456277Y205358D01*
X456262Y205345D01*
X456182Y205231D01*
X456098Y205120D01*
X456086Y205095D01*
X456079Y205085D01*
X456072Y205066D01*
X456027Y204976D01*
X454406Y201061D01*
X451119Y197774D01*
X446824Y195995D01*
X442176Y195995D01*
X437881Y197774D01*
X434594Y201061D01*
X432973Y204976D01*
X432904Y205096D01*
X432839Y205220D01*
X432825Y205234D01*
X432815Y205252D01*
X432718Y205352D01*
X432625Y205455D01*
X432608Y205466D01*
X432594Y205481D01*
X432476Y205553D01*
X432359Y205630D01*
X432340Y205636D01*
X432323Y205647D01*
X432190Y205688D01*
X432058Y205733D01*
X432038Y205734D01*
X432019Y205740D01*
X431880Y205747D01*
X431741Y205758D01*
X431721Y205755D01*
X431701Y205756D01*
X431565Y205727D01*
X431428Y205704D01*
X431410Y205695D01*
X431390Y205691D01*
X431264Y205630D01*
X431138Y205573D01*
X431122Y205560D01*
X431104Y205552D01*
X430998Y205461D01*
X430890Y205374D01*
X430877Y205358D01*
X430862Y205345D01*
X430782Y205231D01*
X430698Y205120D01*
X430686Y205095D01*
X430679Y205085D01*
X430672Y205066D01*
X430627Y204976D01*
X429006Y201061D01*
X425719Y197774D01*
X421424Y195995D01*
X416776Y195995D01*
X412481Y197774D01*
X409194Y201061D01*
X407573Y204976D01*
X407504Y205096D01*
X407439Y205220D01*
X407425Y205234D01*
X407415Y205252D01*
X407318Y205352D01*
X407225Y205455D01*
X407208Y205466D01*
X407194Y205481D01*
X407076Y205553D01*
X406959Y205630D01*
X406940Y205636D01*
X406923Y205647D01*
X406790Y205688D01*
X406658Y205733D01*
X406638Y205734D01*
X406619Y205740D01*
X406480Y205747D01*
X406341Y205758D01*
X406321Y205755D01*
X406301Y205756D01*
X406165Y205727D01*
X406028Y205704D01*
X406010Y205695D01*
X405990Y205691D01*
X405864Y205630D01*
X405738Y205573D01*
X405722Y205560D01*
X405704Y205552D01*
X405598Y205461D01*
X405490Y205374D01*
X405477Y205358D01*
X405462Y205345D01*
X405382Y205231D01*
X405298Y205120D01*
X405286Y205095D01*
X405279Y205085D01*
X405272Y205066D01*
X405227Y204976D01*
X403606Y201061D01*
X400319Y197774D01*
X396024Y195995D01*
X391376Y195995D01*
X387081Y197774D01*
X383794Y201061D01*
X382173Y204976D01*
X382104Y205096D01*
X382039Y205220D01*
X382025Y205234D01*
X382015Y205252D01*
X381918Y205352D01*
X381825Y205455D01*
X381808Y205466D01*
X381794Y205481D01*
X381676Y205553D01*
X381559Y205630D01*
X381540Y205636D01*
X381523Y205647D01*
X381390Y205688D01*
X381258Y205733D01*
X381238Y205734D01*
X381219Y205740D01*
X381080Y205747D01*
X380941Y205758D01*
X380921Y205755D01*
X380901Y205756D01*
X380765Y205727D01*
X380628Y205704D01*
X380610Y205695D01*
X380590Y205691D01*
X380464Y205630D01*
X380338Y205573D01*
X380322Y205560D01*
X380304Y205552D01*
X380198Y205461D01*
X380090Y205374D01*
X380077Y205358D01*
X380062Y205345D01*
X379982Y205231D01*
X379898Y205120D01*
X379886Y205095D01*
X379879Y205085D01*
X379872Y205066D01*
X379827Y204976D01*
X378206Y201061D01*
X374919Y197774D01*
X370624Y195995D01*
X365976Y195995D01*
X361681Y197774D01*
X358394Y201061D01*
X356773Y204976D01*
X356704Y205096D01*
X356639Y205220D01*
X356625Y205234D01*
X356615Y205252D01*
X356518Y205352D01*
X356425Y205455D01*
X356408Y205466D01*
X356394Y205481D01*
X356276Y205553D01*
X356159Y205630D01*
X356140Y205636D01*
X356123Y205647D01*
X355990Y205688D01*
X355858Y205733D01*
X355838Y205734D01*
X355819Y205740D01*
X355680Y205747D01*
X355541Y205758D01*
X355521Y205755D01*
X355501Y205756D01*
X355365Y205727D01*
X355228Y205704D01*
X355210Y205695D01*
X355190Y205691D01*
X355064Y205630D01*
X354938Y205573D01*
X354922Y205560D01*
X354904Y205552D01*
X354798Y205461D01*
X354690Y205374D01*
X354677Y205358D01*
X354662Y205345D01*
X354582Y205231D01*
X354498Y205120D01*
X354486Y205095D01*
X354479Y205085D01*
X354472Y205066D01*
X354427Y204976D01*
X352806Y201061D01*
X349519Y197774D01*
X345224Y195995D01*
X340576Y195995D01*
X336281Y197774D01*
X332994Y201061D01*
X331373Y204976D01*
X331304Y205096D01*
X331239Y205220D01*
X331225Y205234D01*
X331215Y205252D01*
X331118Y205352D01*
X331025Y205455D01*
X331008Y205466D01*
X330994Y205481D01*
X330876Y205553D01*
X330759Y205630D01*
X330740Y205636D01*
X330723Y205647D01*
X330590Y205688D01*
X330458Y205733D01*
X330438Y205734D01*
X330419Y205740D01*
X330280Y205747D01*
X330141Y205758D01*
X330121Y205755D01*
X330101Y205756D01*
X329965Y205727D01*
X329828Y205704D01*
X329810Y205695D01*
X329790Y205691D01*
X329664Y205630D01*
X329538Y205573D01*
X329522Y205560D01*
X329504Y205552D01*
X329398Y205461D01*
X329290Y205374D01*
X329277Y205358D01*
X329262Y205345D01*
X329182Y205231D01*
X329098Y205120D01*
X329086Y205095D01*
X329079Y205085D01*
X329072Y205066D01*
X329027Y204976D01*
X327406Y201061D01*
X324119Y197774D01*
X319824Y195995D01*
X315176Y195995D01*
X310881Y197774D01*
X307594Y201061D01*
X305973Y204976D01*
X305904Y205096D01*
X305839Y205220D01*
X305825Y205234D01*
X305815Y205252D01*
X305718Y205352D01*
X305625Y205455D01*
X305608Y205466D01*
X305594Y205481D01*
X305476Y205553D01*
X305359Y205630D01*
X305340Y205636D01*
X305323Y205647D01*
X305190Y205688D01*
X305058Y205733D01*
X305038Y205734D01*
X305019Y205740D01*
X304880Y205747D01*
X304741Y205758D01*
X304721Y205755D01*
X304701Y205756D01*
X304565Y205727D01*
X304428Y205704D01*
X304410Y205695D01*
X304390Y205691D01*
X304264Y205630D01*
X304138Y205573D01*
X304122Y205560D01*
X304104Y205552D01*
X303998Y205461D01*
X303890Y205374D01*
X303877Y205358D01*
X303862Y205345D01*
X303782Y205231D01*
X303698Y205120D01*
X303686Y205095D01*
X303679Y205085D01*
X303672Y205066D01*
X303627Y204976D01*
X302006Y201061D01*
X298719Y197774D01*
X294424Y195995D01*
X289776Y195995D01*
X285481Y197774D01*
X282194Y201061D01*
X280573Y204976D01*
X280504Y205096D01*
X280439Y205220D01*
X280425Y205234D01*
X280415Y205252D01*
X280318Y205352D01*
X280225Y205455D01*
X280208Y205466D01*
X280194Y205481D01*
X280076Y205553D01*
X279959Y205630D01*
X279940Y205636D01*
X279923Y205647D01*
X279790Y205688D01*
X279658Y205733D01*
X279638Y205734D01*
X279619Y205740D01*
X279480Y205747D01*
X279341Y205758D01*
X279321Y205755D01*
X279301Y205756D01*
X279165Y205727D01*
X279028Y205704D01*
X279010Y205695D01*
X278990Y205691D01*
X278864Y205630D01*
X278738Y205573D01*
X278722Y205560D01*
X278704Y205552D01*
X278598Y205461D01*
X278490Y205374D01*
X278477Y205358D01*
X278462Y205345D01*
X278382Y205231D01*
X278298Y205120D01*
X278286Y205095D01*
X278279Y205085D01*
X278272Y205066D01*
X278227Y204976D01*
X276606Y201061D01*
X273319Y197774D01*
X269024Y195995D01*
X264376Y195995D01*
X260081Y197774D01*
X256794Y201061D01*
X255173Y204976D01*
X255104Y205096D01*
X255039Y205220D01*
X255025Y205234D01*
X255015Y205252D01*
X254918Y205352D01*
X254825Y205455D01*
X254808Y205466D01*
X254794Y205481D01*
X254676Y205553D01*
X254559Y205630D01*
X254540Y205636D01*
X254523Y205647D01*
X254390Y205688D01*
X254258Y205733D01*
X254238Y205734D01*
X254219Y205740D01*
X254080Y205747D01*
X253941Y205758D01*
X253921Y205755D01*
X253901Y205756D01*
X253765Y205727D01*
X253628Y205704D01*
X253610Y205695D01*
X253590Y205691D01*
X253464Y205630D01*
X253338Y205573D01*
X253322Y205560D01*
X253304Y205552D01*
X253198Y205461D01*
X253090Y205374D01*
X253077Y205358D01*
X253062Y205345D01*
X252982Y205231D01*
X252898Y205120D01*
X252886Y205095D01*
X252879Y205085D01*
X252872Y205066D01*
X252827Y204976D01*
X251206Y201061D01*
X247919Y197774D01*
X243624Y195995D01*
X238976Y195995D01*
X234681Y197774D01*
X231394Y201061D01*
X229773Y204976D01*
X229704Y205096D01*
X229639Y205220D01*
X229625Y205234D01*
X229615Y205252D01*
X229518Y205352D01*
X229425Y205455D01*
X229408Y205466D01*
X229394Y205481D01*
X229276Y205553D01*
X229159Y205630D01*
X229140Y205636D01*
X229123Y205647D01*
X228990Y205688D01*
X228858Y205733D01*
X228838Y205734D01*
X228819Y205740D01*
X228680Y205747D01*
X228541Y205758D01*
X228521Y205755D01*
X228501Y205756D01*
X228365Y205727D01*
X228228Y205704D01*
X228210Y205695D01*
X228190Y205691D01*
X228064Y205630D01*
X227938Y205573D01*
X227922Y205560D01*
X227904Y205552D01*
X227798Y205461D01*
X227690Y205374D01*
X227677Y205358D01*
X227662Y205345D01*
X227582Y205231D01*
X227498Y205120D01*
X227486Y205095D01*
X227479Y205085D01*
X227472Y205066D01*
X227427Y204976D01*
X225806Y201061D01*
X222519Y197774D01*
X218224Y195995D01*
X213576Y195995D01*
X209281Y197774D01*
X205994Y201061D01*
X204373Y204976D01*
X204304Y205096D01*
X204239Y205219D01*
X204225Y205234D01*
X204215Y205252D01*
X204118Y205352D01*
X204025Y205455D01*
X204008Y205466D01*
X203994Y205480D01*
X203876Y205553D01*
X203759Y205630D01*
X203740Y205636D01*
X203723Y205647D01*
X203590Y205688D01*
X203458Y205733D01*
X203438Y205734D01*
X203419Y205740D01*
X203280Y205747D01*
X203141Y205758D01*
X203121Y205755D01*
X203101Y205755D01*
X202965Y205727D01*
X202828Y205704D01*
X202810Y205695D01*
X202790Y205691D01*
X202664Y205630D01*
X202538Y205573D01*
X202522Y205560D01*
X202504Y205551D01*
X202398Y205461D01*
X202290Y205374D01*
X202277Y205358D01*
X202262Y205345D01*
X202182Y205231D01*
X202098Y205120D01*
X202086Y205095D01*
X202079Y205085D01*
X202072Y205066D01*
X202027Y204976D01*
X200406Y201061D01*
X197119Y197774D01*
X192824Y195995D01*
X188176Y195995D01*
X183881Y197774D01*
X180594Y201061D01*
X178973Y204976D01*
X178904Y205096D01*
X178839Y205219D01*
X178825Y205234D01*
X178815Y205252D01*
X178718Y205352D01*
X178625Y205455D01*
X178608Y205466D01*
X178594Y205480D01*
X178476Y205553D01*
X178359Y205630D01*
X178340Y205636D01*
X178323Y205647D01*
X178190Y205688D01*
X178058Y205733D01*
X178038Y205734D01*
X178019Y205740D01*
X177880Y205747D01*
X177741Y205758D01*
X177721Y205755D01*
X177701Y205755D01*
X177565Y205727D01*
X177428Y205704D01*
X177410Y205695D01*
X177390Y205691D01*
X177264Y205630D01*
X177138Y205573D01*
X177122Y205560D01*
X177104Y205551D01*
X176998Y205461D01*
X176890Y205374D01*
X176877Y205358D01*
X176862Y205345D01*
X176782Y205231D01*
X176698Y205120D01*
X176686Y205095D01*
X176679Y205085D01*
X176672Y205066D01*
X176627Y204976D01*
X175006Y201061D01*
X171719Y197774D01*
X167424Y195995D01*
X162776Y195995D01*
X158481Y197774D01*
X155194Y201061D01*
X153573Y204976D01*
X153504Y205096D01*
X153439Y205219D01*
X153425Y205234D01*
X153415Y205252D01*
X153318Y205352D01*
X153225Y205455D01*
X153208Y205466D01*
X153194Y205480D01*
X153076Y205553D01*
X152959Y205630D01*
X152940Y205636D01*
X152923Y205647D01*
X152790Y205688D01*
X152658Y205733D01*
X152638Y205734D01*
X152619Y205740D01*
X152480Y205747D01*
X152341Y205758D01*
X152321Y205755D01*
X152301Y205755D01*
X152165Y205727D01*
X152028Y205704D01*
X152010Y205695D01*
X151990Y205691D01*
X151864Y205630D01*
X151738Y205573D01*
X151722Y205560D01*
X151704Y205551D01*
X151598Y205461D01*
X151490Y205374D01*
X151477Y205358D01*
X151462Y205345D01*
X151382Y205231D01*
X151298Y205120D01*
X151286Y205095D01*
X151279Y205085D01*
X151272Y205066D01*
X151227Y204976D01*
X149606Y201061D01*
X146319Y197774D01*
X142024Y195995D01*
X137376Y195995D01*
X133081Y197774D01*
X129794Y201061D01*
X128173Y204976D01*
X128104Y205096D01*
X128039Y205219D01*
X128025Y205234D01*
X128015Y205252D01*
X127918Y205352D01*
X127825Y205455D01*
X127808Y205466D01*
X127794Y205480D01*
X127676Y205553D01*
X127559Y205630D01*
X127540Y205636D01*
X127523Y205647D01*
X127390Y205688D01*
X127258Y205733D01*
X127238Y205734D01*
X127219Y205740D01*
X127080Y205747D01*
X126941Y205758D01*
X126921Y205755D01*
X126901Y205755D01*
X126765Y205727D01*
X126628Y205704D01*
X126610Y205695D01*
X126590Y205691D01*
X126464Y205630D01*
X126338Y205573D01*
X126322Y205560D01*
X126304Y205551D01*
X126198Y205461D01*
X126090Y205374D01*
X126077Y205358D01*
X126062Y205345D01*
X125982Y205231D01*
X125898Y205120D01*
X125886Y205095D01*
X125879Y205085D01*
X125872Y205066D01*
X125827Y204976D01*
X124206Y201061D01*
X120919Y197774D01*
X116624Y195995D01*
X111976Y195995D01*
X107681Y197774D01*
X104394Y201061D01*
X102773Y204976D01*
X102704Y205096D01*
X102639Y205219D01*
X102625Y205234D01*
X102615Y205252D01*
X102518Y205352D01*
X102425Y205455D01*
X102408Y205466D01*
X102394Y205480D01*
X102276Y205553D01*
X102159Y205630D01*
X102140Y205636D01*
X102123Y205647D01*
X101990Y205688D01*
X101858Y205733D01*
X101838Y205734D01*
X101819Y205740D01*
X101680Y205747D01*
X101541Y205758D01*
X101521Y205755D01*
X101501Y205755D01*
X101365Y205727D01*
X101228Y205704D01*
X101210Y205695D01*
X101190Y205691D01*
X101064Y205630D01*
X100938Y205573D01*
X100922Y205560D01*
X100904Y205551D01*
X100798Y205461D01*
X100690Y205374D01*
X100677Y205358D01*
X100662Y205345D01*
X100582Y205231D01*
X100498Y205120D01*
X100486Y205095D01*
X100479Y205085D01*
X100472Y205066D01*
X100427Y204976D01*
X98806Y201061D01*
X95519Y197774D01*
X91224Y195995D01*
X86576Y195995D01*
X82281Y197774D01*
X78994Y201061D01*
X77373Y204976D01*
X77304Y205096D01*
X77239Y205219D01*
X77225Y205234D01*
X77215Y205252D01*
X77118Y205352D01*
X77025Y205455D01*
X77008Y205466D01*
X76994Y205480D01*
X76876Y205553D01*
X76759Y205630D01*
X76740Y205636D01*
X76723Y205647D01*
X76590Y205688D01*
X76458Y205733D01*
X76438Y205734D01*
X76419Y205740D01*
X76280Y205747D01*
X76141Y205758D01*
X76121Y205755D01*
X76101Y205755D01*
X75965Y205727D01*
X75828Y205704D01*
X75810Y205695D01*
X75790Y205691D01*
X75664Y205630D01*
X75538Y205573D01*
X75522Y205560D01*
X75504Y205551D01*
X75398Y205461D01*
X75290Y205374D01*
X75277Y205358D01*
X75262Y205345D01*
X75182Y205231D01*
X75098Y205120D01*
X75086Y205095D01*
X75079Y205085D01*
X75072Y205066D01*
X75027Y204976D01*
X73406Y201061D01*
X70119Y197774D01*
X65824Y195995D01*
X61176Y195995D01*
G37*
%LPD*%
%LPC*%
G36*
X576753Y576339D02*
X576753Y576339D01*
X570481Y578020D01*
X564858Y581266D01*
X560266Y585858D01*
X557020Y591481D01*
X555339Y597753D01*
X555339Y604247D01*
X557020Y610519D01*
X560266Y616142D01*
X564858Y620734D01*
X570481Y623980D01*
X576753Y625661D01*
X583247Y625661D01*
X589519Y623980D01*
X595142Y620734D01*
X599734Y616142D01*
X602980Y610519D01*
X604661Y604247D01*
X604661Y597753D01*
X602980Y591481D01*
X599734Y585858D01*
X595142Y581266D01*
X589519Y578020D01*
X583247Y576339D01*
X576753Y576339D01*
G37*
%LPD*%
%LPC*%
G36*
X36753Y576339D02*
X36753Y576339D01*
X30481Y578020D01*
X24858Y581266D01*
X20266Y585858D01*
X17020Y591481D01*
X15339Y597753D01*
X15339Y604247D01*
X17020Y610519D01*
X20266Y616142D01*
X24858Y620734D01*
X30481Y623980D01*
X36753Y625661D01*
X43247Y625661D01*
X49519Y623980D01*
X55142Y620734D01*
X59734Y616142D01*
X62980Y610519D01*
X64661Y604247D01*
X64661Y597753D01*
X62980Y591481D01*
X59734Y585858D01*
X55142Y581266D01*
X49519Y578020D01*
X43247Y576339D01*
X36753Y576339D01*
G37*
%LPD*%
%LPC*%
G36*
X543776Y195995D02*
X543776Y195995D01*
X539481Y197774D01*
X536194Y201061D01*
X534415Y205356D01*
X534415Y225244D01*
X536194Y229539D01*
X539481Y232826D01*
X539982Y233033D01*
X540007Y233048D01*
X540035Y233057D01*
X540145Y233126D01*
X540258Y233191D01*
X540279Y233211D01*
X540304Y233227D01*
X540393Y233322D01*
X540486Y233412D01*
X540502Y233437D01*
X540522Y233459D01*
X540562Y233530D01*
X540567Y233537D01*
X540579Y233561D01*
X540585Y233573D01*
X540653Y233683D01*
X540661Y233711D01*
X540676Y233737D01*
X540693Y233803D01*
X540703Y233825D01*
X540714Y233881D01*
X540746Y233987D01*
X540748Y234017D01*
X540755Y234045D01*
X540760Y234124D01*
X540763Y234137D01*
X540762Y234152D01*
X540765Y234206D01*
X540765Y285212D01*
X540753Y285310D01*
X540750Y285409D01*
X540733Y285467D01*
X540725Y285528D01*
X540689Y285620D01*
X540661Y285715D01*
X540631Y285767D01*
X540608Y285823D01*
X540550Y285903D01*
X540500Y285989D01*
X540434Y286064D01*
X540422Y286081D01*
X540412Y286088D01*
X540394Y286110D01*
X539448Y287055D01*
X538253Y289939D01*
X538253Y293061D01*
X539448Y295945D01*
X541655Y298152D01*
X544539Y299347D01*
X547661Y299347D01*
X550545Y298152D01*
X552752Y295945D01*
X553947Y293061D01*
X553947Y289939D01*
X552752Y287055D01*
X551806Y286110D01*
X551746Y286031D01*
X551678Y285959D01*
X551649Y285906D01*
X551612Y285858D01*
X551572Y285767D01*
X551524Y285681D01*
X551509Y285622D01*
X551485Y285566D01*
X551470Y285468D01*
X551445Y285373D01*
X551439Y285273D01*
X551435Y285252D01*
X551437Y285240D01*
X551435Y285212D01*
X551435Y234206D01*
X551438Y234176D01*
X551436Y234147D01*
X551453Y234052D01*
X551457Y233981D01*
X551467Y233950D01*
X551475Y233890D01*
X551485Y233863D01*
X551490Y233834D01*
X551541Y233721D01*
X551555Y233679D01*
X551564Y233665D01*
X551592Y233595D01*
X551609Y233571D01*
X551621Y233544D01*
X551702Y233442D01*
X551722Y233415D01*
X551725Y233410D01*
X551727Y233408D01*
X551778Y233337D01*
X551801Y233318D01*
X551820Y233295D01*
X551923Y233217D01*
X552023Y233134D01*
X552050Y233122D01*
X552074Y233104D01*
X552218Y233033D01*
X552719Y232826D01*
X556006Y229539D01*
X557785Y225244D01*
X557785Y205356D01*
X556006Y201061D01*
X552719Y197774D01*
X548424Y195995D01*
X543776Y195995D01*
G37*
%LPD*%
%LPC*%
G36*
X88439Y553153D02*
X88439Y553153D01*
X85555Y554348D01*
X83348Y556555D01*
X82153Y559439D01*
X82153Y562561D01*
X83348Y565445D01*
X85555Y567652D01*
X88439Y568847D01*
X91561Y568847D01*
X94445Y567652D01*
X96652Y565445D01*
X97847Y562561D01*
X97847Y559439D01*
X96652Y556555D01*
X94445Y554348D01*
X91561Y553153D01*
X88439Y553153D01*
G37*
%LPD*%
%LPC*%
G36*
X548439Y463153D02*
X548439Y463153D01*
X545555Y464348D01*
X543348Y466555D01*
X542153Y469439D01*
X542153Y472561D01*
X543348Y475445D01*
X545555Y477652D01*
X548439Y478847D01*
X551561Y478847D01*
X554445Y477652D01*
X556652Y475445D01*
X557847Y472561D01*
X557847Y469439D01*
X556652Y466555D01*
X554445Y464348D01*
X551561Y463153D01*
X548439Y463153D01*
G37*
%LPD*%
%LPC*%
G36*
X268439Y453153D02*
X268439Y453153D01*
X265555Y454348D01*
X263348Y456555D01*
X262153Y459439D01*
X262153Y462561D01*
X263348Y465445D01*
X265555Y467652D01*
X268439Y468847D01*
X271561Y468847D01*
X274445Y467652D01*
X276652Y465445D01*
X277847Y462561D01*
X277847Y459439D01*
X276652Y456555D01*
X274445Y454348D01*
X271561Y453153D01*
X268439Y453153D01*
G37*
%LPD*%
%LPC*%
G36*
X38439Y83153D02*
X38439Y83153D01*
X35555Y84348D01*
X33348Y86555D01*
X32153Y89439D01*
X32153Y92561D01*
X33348Y95445D01*
X35555Y97652D01*
X38439Y98847D01*
X41561Y98847D01*
X44445Y97652D01*
X46652Y95445D01*
X47847Y92561D01*
X47847Y89439D01*
X46652Y86555D01*
X44445Y84348D01*
X41561Y83153D01*
X38439Y83153D01*
G37*
%LPD*%
%LPC*%
G36*
X568439Y73153D02*
X568439Y73153D01*
X565555Y74348D01*
X563348Y76555D01*
X562153Y79439D01*
X562153Y82561D01*
X563348Y85445D01*
X565555Y87652D01*
X568439Y88847D01*
X571561Y88847D01*
X574445Y87652D01*
X576652Y85445D01*
X577847Y82561D01*
X577847Y79439D01*
X576652Y76555D01*
X574445Y74348D01*
X571561Y73153D01*
X568439Y73153D01*
G37*
%LPD*%
%LPC*%
G36*
X308439Y73153D02*
X308439Y73153D01*
X305555Y74348D01*
X303348Y76555D01*
X302153Y79439D01*
X302153Y82561D01*
X303348Y85445D01*
X305555Y87652D01*
X308439Y88847D01*
X311561Y88847D01*
X314445Y87652D01*
X316652Y85445D01*
X317847Y82561D01*
X317847Y79439D01*
X316652Y76555D01*
X314445Y74348D01*
X311561Y73153D01*
X308439Y73153D01*
G37*
%LPD*%
G36*
X242648Y296556D02*
X242648Y296556D01*
X242767Y296563D01*
X242805Y296576D01*
X242846Y296581D01*
X242956Y296625D01*
X243069Y296661D01*
X243104Y296683D01*
X243141Y296698D01*
X243237Y296768D01*
X243338Y296831D01*
X243366Y296861D01*
X243399Y296885D01*
X243475Y296976D01*
X243556Y297063D01*
X243576Y297098D01*
X243601Y297130D01*
X243652Y297237D01*
X243710Y297342D01*
X243720Y297381D01*
X243737Y297417D01*
X243759Y297534D01*
X243789Y297650D01*
X243793Y297710D01*
X243797Y297730D01*
X243795Y297750D01*
X243799Y297810D01*
X243799Y306367D01*
X245170Y305922D01*
X246583Y305202D01*
X246650Y305154D01*
X246685Y305134D01*
X246715Y305109D01*
X246824Y305058D01*
X246928Y305000D01*
X246967Y304990D01*
X247003Y304973D01*
X247120Y304951D01*
X247236Y304921D01*
X247276Y304921D01*
X247316Y304914D01*
X247435Y304921D01*
X247555Y304921D01*
X247593Y304931D01*
X247633Y304933D01*
X247747Y304970D01*
X247863Y305000D01*
X247898Y305019D01*
X247935Y305031D01*
X248037Y305095D01*
X248141Y305153D01*
X248170Y305180D01*
X248204Y305202D01*
X248286Y305289D01*
X248373Y305371D01*
X248395Y305404D01*
X248422Y305433D01*
X248480Y305538D01*
X248544Y305639D01*
X248556Y305677D01*
X248576Y305712D01*
X248605Y305827D01*
X248643Y305941D01*
X248645Y305981D01*
X248655Y306020D01*
X248665Y306180D01*
X248665Y310570D01*
X248659Y310620D01*
X248661Y310669D01*
X248639Y310777D01*
X248625Y310886D01*
X248607Y310932D01*
X248597Y310981D01*
X248549Y311080D01*
X248508Y311182D01*
X248479Y311222D01*
X248457Y311266D01*
X248386Y311350D01*
X248322Y311439D01*
X248283Y311471D01*
X248251Y311508D01*
X248161Y311572D01*
X248077Y311642D01*
X248032Y311663D01*
X247991Y311692D01*
X247888Y311731D01*
X247789Y311777D01*
X247740Y311787D01*
X247694Y311804D01*
X247584Y311816D01*
X247477Y311837D01*
X247427Y311834D01*
X247378Y311839D01*
X247269Y311824D01*
X247159Y311817D01*
X247112Y311802D01*
X247063Y311795D01*
X246910Y311743D01*
X243608Y310375D01*
X238992Y310375D01*
X235690Y311743D01*
X235642Y311756D01*
X235597Y311777D01*
X235489Y311798D01*
X235383Y311827D01*
X235333Y311828D01*
X235284Y311837D01*
X235175Y311830D01*
X235065Y311832D01*
X235017Y311820D01*
X234967Y311817D01*
X234863Y311784D01*
X234756Y311758D01*
X234712Y311735D01*
X234665Y311719D01*
X234572Y311661D01*
X234475Y311609D01*
X234438Y311576D01*
X234396Y311549D01*
X234321Y311469D01*
X234239Y311395D01*
X234212Y311354D01*
X234178Y311317D01*
X234125Y311221D01*
X234065Y311129D01*
X234048Y311082D01*
X234024Y311039D01*
X233997Y310933D01*
X233961Y310829D01*
X233957Y310779D01*
X233945Y310731D01*
X233935Y310570D01*
X233935Y306180D01*
X233940Y306141D01*
X233937Y306101D01*
X233960Y305983D01*
X233975Y305865D01*
X233989Y305828D01*
X233997Y305789D01*
X234048Y305680D01*
X234092Y305569D01*
X234115Y305537D01*
X234132Y305501D01*
X234208Y305409D01*
X234278Y305312D01*
X234309Y305286D01*
X234335Y305256D01*
X234431Y305185D01*
X234523Y305109D01*
X234560Y305092D01*
X234592Y305069D01*
X234703Y305024D01*
X234811Y304973D01*
X234850Y304966D01*
X234887Y304951D01*
X235006Y304936D01*
X235123Y304914D01*
X235163Y304916D01*
X235203Y304911D01*
X235322Y304926D01*
X235441Y304933D01*
X235479Y304946D01*
X235518Y304951D01*
X235630Y304995D01*
X235743Y305031D01*
X235777Y305053D01*
X235814Y305067D01*
X235950Y305154D01*
X236017Y305202D01*
X237430Y305922D01*
X238801Y306367D01*
X238801Y297810D01*
X238816Y297692D01*
X238823Y297573D01*
X238835Y297535D01*
X238841Y297495D01*
X238884Y297384D01*
X238921Y297271D01*
X238943Y297237D01*
X238958Y297199D01*
X239027Y297103D01*
X239091Y297002D01*
X239121Y296974D01*
X239144Y296942D01*
X239236Y296866D01*
X239323Y296784D01*
X239358Y296765D01*
X239389Y296739D01*
X239497Y296688D01*
X239601Y296631D01*
X239641Y296621D01*
X239677Y296603D01*
X239794Y296581D01*
X239909Y296551D01*
X239969Y296547D01*
X239989Y296544D01*
X240010Y296545D01*
X240070Y296541D01*
X242530Y296541D01*
X242648Y296556D01*
G37*
%LPC*%
G36*
X523239Y217839D02*
X523239Y217839D01*
X523239Y232779D01*
X524600Y232336D01*
X526025Y231610D01*
X527319Y230670D01*
X528450Y229539D01*
X529390Y228245D01*
X530116Y226820D01*
X530611Y225299D01*
X530861Y223720D01*
X530861Y217839D01*
X523239Y217839D01*
G37*
%LPD*%
%LPC*%
G36*
X523239Y212761D02*
X523239Y212761D01*
X530861Y212761D01*
X530861Y206880D01*
X530611Y205301D01*
X530116Y203780D01*
X529390Y202355D01*
X528450Y201061D01*
X527319Y199930D01*
X526025Y198990D01*
X524600Y198264D01*
X523239Y197821D01*
X523239Y212761D01*
G37*
%LPD*%
%LPC*%
G36*
X510539Y217839D02*
X510539Y217839D01*
X510539Y223720D01*
X510789Y225299D01*
X511284Y226820D01*
X512010Y228245D01*
X512950Y229539D01*
X514081Y230670D01*
X515375Y231610D01*
X516800Y232336D01*
X518161Y232779D01*
X518161Y217839D01*
X510539Y217839D01*
G37*
%LPD*%
%LPC*%
G36*
X516800Y198264D02*
X516800Y198264D01*
X515375Y198990D01*
X514081Y199930D01*
X512950Y201061D01*
X512010Y202355D01*
X511284Y203780D01*
X510789Y205301D01*
X510539Y206880D01*
X510539Y212761D01*
X518161Y212761D01*
X518161Y197821D01*
X516800Y198264D01*
G37*
%LPD*%
%LPC*%
G36*
X243799Y553079D02*
X243799Y553079D01*
X243799Y560367D01*
X245170Y559922D01*
X246583Y559202D01*
X247867Y558269D01*
X248989Y557147D01*
X249922Y555863D01*
X250642Y554450D01*
X251087Y553079D01*
X243799Y553079D01*
G37*
%LPD*%
%LPC*%
G36*
X231513Y553079D02*
X231513Y553079D01*
X231958Y554450D01*
X232678Y555863D01*
X233611Y557147D01*
X234733Y558269D01*
X236017Y559202D01*
X237430Y559922D01*
X238801Y560367D01*
X238801Y553079D01*
X231513Y553079D01*
G37*
%LPD*%
%LPC*%
G36*
X243799Y548081D02*
X243799Y548081D01*
X251087Y548081D01*
X250642Y546710D01*
X249922Y545297D01*
X248989Y544013D01*
X247867Y542891D01*
X246583Y541958D01*
X245170Y541238D01*
X243799Y540793D01*
X243799Y548081D01*
G37*
%LPD*%
%LPC*%
G36*
X237430Y541238D02*
X237430Y541238D01*
X236017Y541958D01*
X234733Y542891D01*
X233611Y544013D01*
X232678Y545297D01*
X231958Y546710D01*
X231513Y548081D01*
X238801Y548081D01*
X238801Y540793D01*
X237430Y541238D01*
G37*
%LPD*%
%LPC*%
G36*
X520699Y215299D02*
X520699Y215299D01*
X520699Y215301D01*
X520701Y215301D01*
X520701Y215299D01*
X520699Y215299D01*
G37*
%LPD*%
D10*
X546100Y222920D02*
X546100Y207680D01*
X520700Y207680D02*
X520700Y222920D01*
X495300Y222920D02*
X495300Y207680D01*
X469900Y207680D02*
X469900Y222920D01*
X444500Y222920D02*
X444500Y207680D01*
X419100Y207680D02*
X419100Y222920D01*
X393700Y222920D02*
X393700Y207680D01*
X368300Y207680D02*
X368300Y222920D01*
X342900Y222920D02*
X342900Y207680D01*
X317500Y207680D02*
X317500Y222920D01*
X292100Y222920D02*
X292100Y207680D01*
X266700Y207680D02*
X266700Y222920D01*
X241300Y222920D02*
X241300Y207680D01*
X215900Y207680D02*
X215900Y222920D01*
X190500Y222920D02*
X190500Y207680D01*
X165100Y207680D02*
X165100Y222920D01*
X139700Y222920D02*
X139700Y207680D01*
X114300Y207680D02*
X114300Y222920D01*
X88900Y222920D02*
X88900Y207680D01*
X63500Y207680D02*
X63500Y222920D01*
D11*
X241300Y550580D03*
X241300Y525180D03*
X241300Y499780D03*
X241300Y474380D03*
X241300Y448980D03*
X241300Y423580D03*
X241300Y398180D03*
X241300Y372780D03*
X241300Y347380D03*
X241300Y321980D03*
X241300Y296580D03*
X368300Y296580D03*
X368300Y321980D03*
X368300Y347380D03*
X368300Y372780D03*
X368300Y398180D03*
X368300Y423580D03*
X368300Y448980D03*
X368300Y474380D03*
X368300Y499780D03*
X368300Y525180D03*
X368300Y550580D03*
X241300Y272450D03*
X266700Y272450D03*
X292100Y272450D03*
X317500Y272450D03*
X342900Y272450D03*
X368300Y272450D03*
D12*
X393700Y437550D03*
D13*
X393700Y215300D01*
D12*
X317500Y329600D03*
D13*
X330200Y316900D01*
X330200Y228000D01*
X317500Y215300D01*
D12*
X495300Y545500D03*
D13*
X495300Y215300D01*
D12*
X469900Y418500D03*
D13*
X469900Y215300D01*
D12*
X444500Y469300D03*
D13*
X444500Y215300D01*
D12*
X419100Y520100D03*
D13*
X419100Y215300D01*
X373380Y316900D02*
X368300Y321980D01*
X373380Y316900D02*
X382270Y316900D01*
X368300Y254026D02*
X368300Y215300D01*
X368300Y254026D02*
X382270Y267996D01*
X382270Y316900D01*
X355600Y487080D02*
X368300Y499780D01*
X355600Y487080D02*
X355600Y228000D01*
X342900Y215300D01*
D12*
X546100Y291500D03*
D13*
X546100Y215300D01*
D12*
X520700Y285150D03*
D13*
X520700Y215300D01*
D12*
X304800Y316900D03*
D13*
X304800Y228000D01*
X292100Y215300D01*
X279400Y228000D02*
X266700Y215300D01*
X279400Y228000D02*
X279400Y347380D01*
D12*
X279400Y347380D03*
D13*
X254000Y360080D02*
X241300Y372780D01*
X254000Y360080D02*
X254000Y228000D01*
X241300Y215300D01*
X236220Y393100D02*
X241300Y398180D01*
X236220Y393100D02*
X228600Y393100D01*
X228600Y228000D01*
X215900Y215300D01*
D12*
X190500Y469300D03*
D13*
X190500Y215300D01*
D12*
X165100Y494700D03*
D13*
X165100Y215300D01*
D12*
X304800Y355000D03*
D13*
X304800Y570900D01*
D12*
X304800Y570900D03*
X317500Y380400D03*
D13*
X317500Y583600D01*
D12*
X317500Y583600D03*
X330200Y405800D03*
D13*
X330200Y596300D01*
D12*
X330200Y596300D03*
X342900Y456600D03*
D13*
X342900Y609000D01*
D12*
X342900Y609000D03*
X270000Y461000D03*
X90000Y561000D03*
X550000Y471000D03*
X40000Y91000D03*
X310000Y81000D03*
X570000Y81000D03*
M02*
