G04 EAGLE Gerber RS-274X export*
G75*
%MOMM*%
%FSLAX34Y34*%
%LPD*%
%IN*%
%IPPOS*%
%AMOC8*
5,1,8,0,0,1.08239X$1,22.5*%
G01*
%ADD10C,0.254000*%


D10*
X0Y-600D02*
X622100Y-600D01*
X622100Y643800D01*
X0Y643800D01*
X0Y-600D01*
X54500Y600482D02*
X54426Y599449D01*
X54279Y598424D01*
X54059Y597412D01*
X53767Y596418D01*
X53405Y595448D01*
X52975Y594505D01*
X52478Y593596D01*
X51918Y592725D01*
X51298Y591896D01*
X50619Y591113D01*
X49887Y590381D01*
X49104Y589703D01*
X48275Y589082D01*
X47404Y588522D01*
X46495Y588025D01*
X45552Y587595D01*
X44582Y587233D01*
X43588Y586941D01*
X42576Y586721D01*
X41551Y586574D01*
X40518Y586500D01*
X39482Y586500D01*
X38449Y586574D01*
X37424Y586721D01*
X36412Y586941D01*
X35418Y587233D01*
X34448Y587595D01*
X33505Y588025D01*
X32596Y588522D01*
X31725Y589082D01*
X30896Y589703D01*
X30113Y590381D01*
X29381Y591113D01*
X28703Y591896D01*
X28082Y592725D01*
X27522Y593596D01*
X27025Y594505D01*
X26595Y595448D01*
X26233Y596418D01*
X25941Y597412D01*
X25721Y598424D01*
X25574Y599449D01*
X25500Y600482D01*
X25500Y601518D01*
X25574Y602551D01*
X25721Y603576D01*
X25941Y604588D01*
X26233Y605582D01*
X26595Y606552D01*
X27025Y607495D01*
X27522Y608404D01*
X28082Y609275D01*
X28703Y610104D01*
X29381Y610887D01*
X30113Y611619D01*
X30896Y612298D01*
X31725Y612918D01*
X32596Y613478D01*
X33505Y613975D01*
X34448Y614405D01*
X35418Y614767D01*
X36412Y615059D01*
X37424Y615279D01*
X38449Y615426D01*
X39482Y615500D01*
X40518Y615500D01*
X41551Y615426D01*
X42576Y615279D01*
X43588Y615059D01*
X44582Y614767D01*
X45552Y614405D01*
X46495Y613975D01*
X47404Y613478D01*
X48275Y612918D01*
X49104Y612298D01*
X49887Y611619D01*
X50619Y610887D01*
X51298Y610104D01*
X51918Y609275D01*
X52478Y608404D01*
X52975Y607495D01*
X53405Y606552D01*
X53767Y605582D01*
X54059Y604588D01*
X54279Y603576D01*
X54426Y602551D01*
X54500Y601518D01*
X54500Y600482D01*
X594500Y600482D02*
X594426Y599449D01*
X594279Y598424D01*
X594059Y597412D01*
X593767Y596418D01*
X593405Y595448D01*
X592975Y594505D01*
X592478Y593596D01*
X591918Y592725D01*
X591298Y591896D01*
X590619Y591113D01*
X589887Y590381D01*
X589104Y589703D01*
X588275Y589082D01*
X587404Y588522D01*
X586495Y588025D01*
X585552Y587595D01*
X584582Y587233D01*
X583588Y586941D01*
X582576Y586721D01*
X581551Y586574D01*
X580518Y586500D01*
X579482Y586500D01*
X578449Y586574D01*
X577424Y586721D01*
X576412Y586941D01*
X575418Y587233D01*
X574448Y587595D01*
X573505Y588025D01*
X572596Y588522D01*
X571725Y589082D01*
X570896Y589703D01*
X570113Y590381D01*
X569381Y591113D01*
X568703Y591896D01*
X568082Y592725D01*
X567522Y593596D01*
X567025Y594505D01*
X566595Y595448D01*
X566233Y596418D01*
X565941Y597412D01*
X565721Y598424D01*
X565574Y599449D01*
X565500Y600482D01*
X565500Y601518D01*
X565574Y602551D01*
X565721Y603576D01*
X565941Y604588D01*
X566233Y605582D01*
X566595Y606552D01*
X567025Y607495D01*
X567522Y608404D01*
X568082Y609275D01*
X568703Y610104D01*
X569381Y610887D01*
X570113Y611619D01*
X570896Y612298D01*
X571725Y612918D01*
X572596Y613478D01*
X573505Y613975D01*
X574448Y614405D01*
X575418Y614767D01*
X576412Y615059D01*
X577424Y615279D01*
X578449Y615426D01*
X579482Y615500D01*
X580518Y615500D01*
X581551Y615426D01*
X582576Y615279D01*
X583588Y615059D01*
X584582Y614767D01*
X585552Y614405D01*
X586495Y613975D01*
X587404Y613478D01*
X588275Y612918D01*
X589104Y612298D01*
X589887Y611619D01*
X590619Y610887D01*
X591298Y610104D01*
X591918Y609275D01*
X592478Y608404D01*
X592975Y607495D01*
X593405Y606552D01*
X593767Y605582D01*
X594059Y604588D01*
X594279Y603576D01*
X594426Y602551D01*
X594500Y601518D01*
X594500Y600482D01*
X44500Y30482D02*
X44426Y29449D01*
X44279Y28424D01*
X44059Y27412D01*
X43767Y26418D01*
X43405Y25448D01*
X42975Y24505D01*
X42478Y23596D01*
X41918Y22725D01*
X41298Y21896D01*
X40619Y21113D01*
X39887Y20381D01*
X39104Y19703D01*
X38275Y19082D01*
X37404Y18522D01*
X36495Y18025D01*
X35552Y17595D01*
X34582Y17233D01*
X33588Y16941D01*
X32576Y16721D01*
X31551Y16574D01*
X30518Y16500D01*
X29482Y16500D01*
X28449Y16574D01*
X27424Y16721D01*
X26412Y16941D01*
X25418Y17233D01*
X24448Y17595D01*
X23505Y18025D01*
X22596Y18522D01*
X21725Y19082D01*
X20896Y19703D01*
X20113Y20381D01*
X19381Y21113D01*
X18703Y21896D01*
X18082Y22725D01*
X17522Y23596D01*
X17025Y24505D01*
X16595Y25448D01*
X16233Y26418D01*
X15941Y27412D01*
X15721Y28424D01*
X15574Y29449D01*
X15500Y30482D01*
X15500Y31518D01*
X15574Y32551D01*
X15721Y33576D01*
X15941Y34588D01*
X16233Y35582D01*
X16595Y36552D01*
X17025Y37495D01*
X17522Y38404D01*
X18082Y39275D01*
X18703Y40104D01*
X19381Y40887D01*
X20113Y41619D01*
X20896Y42298D01*
X21725Y42918D01*
X22596Y43478D01*
X23505Y43975D01*
X24448Y44405D01*
X25418Y44767D01*
X26412Y45059D01*
X27424Y45279D01*
X28449Y45426D01*
X29482Y45500D01*
X30518Y45500D01*
X31551Y45426D01*
X32576Y45279D01*
X33588Y45059D01*
X34582Y44767D01*
X35552Y44405D01*
X36495Y43975D01*
X37404Y43478D01*
X38275Y42918D01*
X39104Y42298D01*
X39887Y41619D01*
X40619Y40887D01*
X41298Y40104D01*
X41918Y39275D01*
X42478Y38404D01*
X42975Y37495D01*
X43405Y36552D01*
X43767Y35582D01*
X44059Y34588D01*
X44279Y33576D01*
X44426Y32551D01*
X44500Y31518D01*
X44500Y30482D01*
X604500Y30482D02*
X604426Y29449D01*
X604279Y28424D01*
X604059Y27412D01*
X603767Y26418D01*
X603405Y25448D01*
X602975Y24505D01*
X602478Y23596D01*
X601918Y22725D01*
X601298Y21896D01*
X600619Y21113D01*
X599887Y20381D01*
X599104Y19703D01*
X598275Y19082D01*
X597404Y18522D01*
X596495Y18025D01*
X595552Y17595D01*
X594582Y17233D01*
X593588Y16941D01*
X592576Y16721D01*
X591551Y16574D01*
X590518Y16500D01*
X589482Y16500D01*
X588449Y16574D01*
X587424Y16721D01*
X586412Y16941D01*
X585418Y17233D01*
X584448Y17595D01*
X583505Y18025D01*
X582596Y18522D01*
X581725Y19082D01*
X580896Y19703D01*
X580113Y20381D01*
X579381Y21113D01*
X578703Y21896D01*
X578082Y22725D01*
X577522Y23596D01*
X577025Y24505D01*
X576595Y25448D01*
X576233Y26418D01*
X575941Y27412D01*
X575721Y28424D01*
X575574Y29449D01*
X575500Y30482D01*
X575500Y31518D01*
X575574Y32551D01*
X575721Y33576D01*
X575941Y34588D01*
X576233Y35582D01*
X576595Y36552D01*
X577025Y37495D01*
X577522Y38404D01*
X578082Y39275D01*
X578703Y40104D01*
X579381Y40887D01*
X580113Y41619D01*
X580896Y42298D01*
X581725Y42918D01*
X582596Y43478D01*
X583505Y43975D01*
X584448Y44405D01*
X585418Y44767D01*
X586412Y45059D01*
X587424Y45279D01*
X588449Y45426D01*
X589482Y45500D01*
X590518Y45500D01*
X591551Y45426D01*
X592576Y45279D01*
X593588Y45059D01*
X594582Y44767D01*
X595552Y44405D01*
X596495Y43975D01*
X597404Y43478D01*
X598275Y42918D01*
X599104Y42298D01*
X599887Y41619D01*
X600619Y40887D01*
X601298Y40104D01*
X601918Y39275D01*
X602478Y38404D01*
X602975Y37495D01*
X603405Y36552D01*
X603767Y35582D01*
X604059Y34588D01*
X604279Y33576D01*
X604426Y32551D01*
X604500Y31518D01*
X604500Y30482D01*
M02*
