G04 EAGLE Gerber RS-274X export*
G75*
%MOMM*%
%FSLAX34Y34*%
%LPD*%
%INSilkscreen Bottom*%
%IPPOS*%
%AMOC8*
5,1,8,0,0,1.08239X$1,22.5*%
G01*
%ADD10C,2.540000*%
%ADD11C,0.200000*%
%ADD12C,0.254000*%
%ADD13C,0.101600*%
%ADD14C,1.016000*%


D10*
X60000Y325000D02*
X60075Y331135D01*
X60301Y337267D01*
X60677Y343391D01*
X61204Y349504D01*
X61880Y355603D01*
X62706Y361683D01*
X63681Y367740D01*
X64804Y373773D01*
X66074Y379775D01*
X67492Y385745D01*
X69056Y391678D01*
X70765Y397571D01*
X72618Y403420D01*
X74614Y409222D01*
X76752Y414974D01*
X79030Y420671D01*
X81448Y426310D01*
X84003Y431889D01*
X86694Y437403D01*
X89520Y442849D01*
X92478Y448225D01*
X95568Y453526D01*
X98787Y458749D01*
X102133Y463893D01*
X105604Y468952D01*
X109198Y473925D01*
X112913Y478808D01*
X116747Y483598D01*
X120698Y488293D01*
X124762Y492890D01*
X128938Y497385D01*
X133223Y501777D01*
X137615Y506062D01*
X142110Y510238D01*
X146707Y514302D01*
X151402Y518253D01*
X156192Y522087D01*
X161075Y525802D01*
X166048Y529396D01*
X171107Y532867D01*
X176251Y536213D01*
X181474Y539432D01*
X186775Y542522D01*
X192151Y545480D01*
X197597Y548306D01*
X203111Y550997D01*
X208690Y553552D01*
X214329Y555970D01*
X220026Y558248D01*
X225778Y560386D01*
X231580Y562382D01*
X237429Y564235D01*
X243322Y565944D01*
X249255Y567508D01*
X255225Y568926D01*
X261227Y570196D01*
X267260Y571319D01*
X273317Y572294D01*
X279397Y573120D01*
X285496Y573796D01*
X291609Y574323D01*
X297733Y574699D01*
X303865Y574925D01*
X310000Y575000D01*
X316135Y574925D01*
X322267Y574699D01*
X328391Y574323D01*
X334504Y573796D01*
X340603Y573120D01*
X346683Y572294D01*
X352740Y571319D01*
X358773Y570196D01*
X364775Y568926D01*
X370745Y567508D01*
X376678Y565944D01*
X382571Y564235D01*
X388420Y562382D01*
X394222Y560386D01*
X399974Y558248D01*
X405671Y555970D01*
X411310Y553552D01*
X416889Y550997D01*
X422403Y548306D01*
X427849Y545480D01*
X433225Y542522D01*
X438526Y539432D01*
X443749Y536213D01*
X448893Y532867D01*
X453952Y529396D01*
X458925Y525802D01*
X463808Y522087D01*
X468598Y518253D01*
X473293Y514302D01*
X477890Y510238D01*
X482385Y506062D01*
X486777Y501777D01*
X491062Y497385D01*
X495238Y492890D01*
X499302Y488293D01*
X503253Y483598D01*
X507087Y478808D01*
X510802Y473925D01*
X514396Y468952D01*
X517867Y463893D01*
X521213Y458749D01*
X524432Y453526D01*
X527522Y448225D01*
X530480Y442849D01*
X533306Y437403D01*
X535997Y431889D01*
X538552Y426310D01*
X540970Y420671D01*
X543248Y414974D01*
X545386Y409222D01*
X547382Y403420D01*
X549235Y397571D01*
X550944Y391678D01*
X552508Y385745D01*
X553926Y379775D01*
X555196Y373773D01*
X556319Y367740D01*
X557294Y361683D01*
X558120Y355603D01*
X558796Y349504D01*
X559323Y343391D01*
X559699Y337267D01*
X559925Y331135D01*
X560000Y325000D01*
X559925Y318865D01*
X559699Y312733D01*
X559323Y306609D01*
X558796Y300496D01*
X558120Y294397D01*
X557294Y288317D01*
X556319Y282260D01*
X555196Y276227D01*
X553926Y270225D01*
X552508Y264255D01*
X550944Y258322D01*
X549235Y252429D01*
X547382Y246580D01*
X545386Y240778D01*
X543248Y235026D01*
X540970Y229329D01*
X538552Y223690D01*
X535997Y218111D01*
X533306Y212597D01*
X530480Y207151D01*
X527522Y201775D01*
X524432Y196474D01*
X521213Y191251D01*
X517867Y186107D01*
X514396Y181048D01*
X510802Y176075D01*
X507087Y171192D01*
X503253Y166402D01*
X499302Y161707D01*
X495238Y157110D01*
X491062Y152615D01*
X486777Y148223D01*
X482385Y143938D01*
X477890Y139762D01*
X473293Y135698D01*
X468598Y131747D01*
X463808Y127913D01*
X458925Y124198D01*
X453952Y120604D01*
X448893Y117133D01*
X443749Y113787D01*
X438526Y110568D01*
X433225Y107478D01*
X427849Y104520D01*
X422403Y101694D01*
X416889Y99003D01*
X411310Y96448D01*
X405671Y94030D01*
X399974Y91752D01*
X394222Y89614D01*
X388420Y87618D01*
X382571Y85765D01*
X376678Y84056D01*
X370745Y82492D01*
X364775Y81074D01*
X358773Y79804D01*
X352740Y78681D01*
X346683Y77706D01*
X340603Y76880D01*
X334504Y76204D01*
X328391Y75677D01*
X322267Y75301D01*
X316135Y75075D01*
X310000Y75000D01*
X303865Y75075D01*
X297733Y75301D01*
X291609Y75677D01*
X285496Y76204D01*
X279397Y76880D01*
X273317Y77706D01*
X267260Y78681D01*
X261227Y79804D01*
X255225Y81074D01*
X249255Y82492D01*
X243322Y84056D01*
X237429Y85765D01*
X231580Y87618D01*
X225778Y89614D01*
X220026Y91752D01*
X214329Y94030D01*
X208690Y96448D01*
X203111Y99003D01*
X197597Y101694D01*
X192151Y104520D01*
X186775Y107478D01*
X181474Y110568D01*
X176251Y113787D01*
X171107Y117133D01*
X166048Y120604D01*
X161075Y124198D01*
X156192Y127913D01*
X151402Y131747D01*
X146707Y135698D01*
X142110Y139762D01*
X137615Y143938D01*
X133223Y148223D01*
X128938Y152615D01*
X124762Y157110D01*
X120698Y161707D01*
X116747Y166402D01*
X112913Y171192D01*
X109198Y176075D01*
X105604Y181048D01*
X102133Y186107D01*
X98787Y191251D01*
X95568Y196474D01*
X92478Y201775D01*
X89520Y207151D01*
X86694Y212597D01*
X84003Y218111D01*
X81448Y223690D01*
X79030Y229329D01*
X76752Y235026D01*
X74614Y240778D01*
X72618Y246580D01*
X70765Y252429D01*
X69056Y258322D01*
X67492Y264255D01*
X66074Y270225D01*
X64804Y276227D01*
X63681Y282260D01*
X62706Y288317D01*
X61880Y294397D01*
X61204Y300496D01*
X60677Y306609D01*
X60301Y312733D01*
X60075Y318865D01*
X60000Y325000D01*
D11*
X516000Y296000D02*
X517000Y296000D01*
X516000Y296000D02*
X450000Y296000D01*
X415000Y296000D01*
X145000Y296000D01*
X383000Y340000D02*
X519000Y340000D01*
X328000Y340000D02*
X146000Y340000D01*
X383000Y340000D02*
X383020Y341656D01*
X383081Y343311D01*
X383181Y344964D01*
X383322Y346614D01*
X383504Y348260D01*
X383725Y349901D01*
X383986Y351536D01*
X384286Y353165D01*
X384627Y354785D01*
X385007Y356397D01*
X385425Y357999D01*
X385883Y359591D01*
X386380Y361171D01*
X386914Y362738D01*
X387487Y364292D01*
X388097Y365831D01*
X388745Y367355D01*
X389430Y368863D01*
X390151Y370354D01*
X390908Y371827D01*
X391701Y373280D01*
X392529Y374715D01*
X393391Y376128D01*
X394288Y377520D01*
X395219Y378890D01*
X396182Y380237D01*
X397178Y381560D01*
X398206Y382858D01*
X399266Y384131D01*
X400355Y385378D01*
X401476Y386597D01*
X402625Y387790D01*
X403803Y388953D01*
X405009Y390088D01*
X406242Y391193D01*
X407502Y392268D01*
X408788Y393312D01*
X410099Y394324D01*
X411434Y395304D01*
X412792Y396251D01*
X414173Y397165D01*
X415576Y398044D01*
X417000Y398890D01*
X418444Y399700D01*
X419908Y400475D01*
X421389Y401214D01*
X422889Y401917D01*
X424405Y402584D01*
X425937Y403213D01*
X427483Y403804D01*
X429044Y404358D01*
X430618Y404873D01*
X432204Y405351D01*
X433801Y405789D01*
X435408Y406188D01*
X437024Y406548D01*
X438649Y406869D01*
X440281Y407150D01*
X441919Y407391D01*
X443563Y407592D01*
X445211Y407753D01*
X446862Y407874D01*
X448517Y407955D01*
X450172Y407995D01*
X451828Y407995D01*
X453483Y407955D01*
X455138Y407874D01*
X456789Y407753D01*
X458437Y407592D01*
X460081Y407391D01*
X461719Y407150D01*
X463351Y406869D01*
X464976Y406548D01*
X466592Y406188D01*
X468199Y405789D01*
X469796Y405351D01*
X471382Y404873D01*
X472956Y404358D01*
X474517Y403804D01*
X476063Y403213D01*
X477595Y402584D01*
X479111Y401917D01*
X480611Y401214D01*
X482092Y400475D01*
X483556Y399700D01*
X485000Y398890D01*
X486424Y398044D01*
X487827Y397165D01*
X489208Y396251D01*
X490566Y395304D01*
X491901Y394324D01*
X493212Y393312D01*
X494498Y392268D01*
X495758Y391193D01*
X496991Y390088D01*
X498197Y388953D01*
X499375Y387790D01*
X500524Y386597D01*
X501645Y385378D01*
X502734Y384131D01*
X503794Y382858D01*
X504822Y381560D01*
X505818Y380237D01*
X506781Y378890D01*
X507712Y377520D01*
X508609Y376128D01*
X509471Y374715D01*
X510299Y373280D01*
X511092Y371827D01*
X511849Y370354D01*
X512570Y368863D01*
X513255Y367355D01*
X513903Y365831D01*
X514513Y364292D01*
X515086Y362738D01*
X515620Y361171D01*
X516117Y359591D01*
X516575Y357999D01*
X516993Y356397D01*
X517373Y354785D01*
X517714Y353165D01*
X518014Y351536D01*
X518275Y349901D01*
X518496Y348260D01*
X518678Y346614D01*
X518819Y344964D01*
X518919Y343311D01*
X518980Y341656D01*
X519000Y340000D01*
X328000Y340000D02*
X327973Y342216D01*
X327892Y344431D01*
X327757Y346643D01*
X327569Y348851D01*
X327326Y351053D01*
X327030Y353250D01*
X326681Y355438D01*
X326278Y357617D01*
X325823Y359786D01*
X325315Y361943D01*
X324754Y364087D01*
X324142Y366217D01*
X323477Y368331D01*
X322762Y370429D01*
X321995Y372508D01*
X321179Y374568D01*
X320312Y376608D01*
X319396Y378626D01*
X318431Y380621D01*
X317417Y382591D01*
X316356Y384537D01*
X315248Y386456D01*
X314094Y388348D01*
X312894Y390211D01*
X311649Y392044D01*
X310359Y393846D01*
X309026Y395617D01*
X307650Y397354D01*
X306233Y399058D01*
X304774Y400726D01*
X303275Y402358D01*
X301737Y403954D01*
X300161Y405511D01*
X298547Y407030D01*
X296896Y408509D01*
X295210Y409947D01*
X293490Y411344D01*
X291736Y412698D01*
X289949Y414009D01*
X288131Y415277D01*
X286283Y416500D01*
X284406Y417677D01*
X282500Y418808D01*
X280567Y419893D01*
X278609Y420930D01*
X276626Y421919D01*
X274619Y422860D01*
X272591Y423752D01*
X270541Y424593D01*
X268471Y425385D01*
X266382Y426126D01*
X264276Y426816D01*
X262154Y427454D01*
X260017Y428041D01*
X257866Y428575D01*
X255703Y429057D01*
X253529Y429486D01*
X251345Y429862D01*
X249152Y430185D01*
X246953Y430454D01*
X244747Y430670D01*
X242537Y430831D01*
X240324Y430939D01*
X238108Y430993D01*
X235892Y430993D01*
X233676Y430939D01*
X231463Y430831D01*
X229253Y430670D01*
X227047Y430454D01*
X224848Y430185D01*
X222655Y429862D01*
X220471Y429486D01*
X218297Y429057D01*
X216134Y428575D01*
X213983Y428041D01*
X211846Y427454D01*
X209724Y426816D01*
X207618Y426126D01*
X205529Y425385D01*
X203459Y424593D01*
X201409Y423752D01*
X199381Y422860D01*
X197374Y421919D01*
X195391Y420930D01*
X193433Y419893D01*
X191500Y418808D01*
X189594Y417677D01*
X187717Y416500D01*
X185869Y415277D01*
X184051Y414009D01*
X182264Y412698D01*
X180510Y411344D01*
X178790Y409947D01*
X177104Y408509D01*
X175453Y407030D01*
X173839Y405511D01*
X172263Y403954D01*
X170725Y402358D01*
X169226Y400726D01*
X167767Y399058D01*
X166350Y397354D01*
X164974Y395617D01*
X163641Y393846D01*
X162351Y392044D01*
X161106Y390211D01*
X159906Y388348D01*
X158752Y386456D01*
X157644Y384537D01*
X156583Y382591D01*
X155569Y380621D01*
X154604Y378626D01*
X153688Y376608D01*
X152821Y374568D01*
X152005Y372508D01*
X151238Y370429D01*
X150523Y368331D01*
X149858Y366217D01*
X149246Y364087D01*
X148685Y361943D01*
X148177Y359786D01*
X147722Y357617D01*
X147319Y355438D01*
X146970Y353250D01*
X146674Y351053D01*
X146431Y348851D01*
X146243Y346643D01*
X146108Y344431D01*
X146027Y342216D01*
X146000Y340000D01*
X447172Y370000D02*
X447174Y370106D01*
X447180Y370211D01*
X447190Y370317D01*
X447204Y370421D01*
X447221Y370526D01*
X447243Y370629D01*
X447268Y370732D01*
X447298Y370834D01*
X447331Y370934D01*
X447367Y371033D01*
X447408Y371131D01*
X447452Y371227D01*
X447500Y371321D01*
X447551Y371414D01*
X447605Y371505D01*
X447663Y371593D01*
X447725Y371679D01*
X447789Y371763D01*
X447856Y371845D01*
X447927Y371924D01*
X448000Y372000D01*
X448076Y372073D01*
X448155Y372144D01*
X448237Y372211D01*
X448321Y372275D01*
X448407Y372337D01*
X448495Y372395D01*
X448586Y372449D01*
X448679Y372500D01*
X448773Y372548D01*
X448869Y372592D01*
X448967Y372633D01*
X449066Y372669D01*
X449166Y372702D01*
X449268Y372732D01*
X449371Y372757D01*
X449474Y372779D01*
X449579Y372796D01*
X449683Y372810D01*
X449789Y372820D01*
X449894Y372826D01*
X450000Y372828D01*
X450106Y372826D01*
X450211Y372820D01*
X450317Y372810D01*
X450421Y372796D01*
X450526Y372779D01*
X450629Y372757D01*
X450732Y372732D01*
X450834Y372702D01*
X450934Y372669D01*
X451033Y372633D01*
X451131Y372592D01*
X451227Y372548D01*
X451321Y372500D01*
X451414Y372449D01*
X451505Y372395D01*
X451593Y372337D01*
X451679Y372275D01*
X451763Y372211D01*
X451845Y372144D01*
X451924Y372073D01*
X452000Y372000D01*
X452073Y371924D01*
X452144Y371845D01*
X452211Y371763D01*
X452275Y371679D01*
X452337Y371593D01*
X452395Y371505D01*
X452449Y371414D01*
X452500Y371321D01*
X452548Y371227D01*
X452592Y371131D01*
X452633Y371033D01*
X452669Y370934D01*
X452702Y370834D01*
X452732Y370732D01*
X452757Y370629D01*
X452779Y370526D01*
X452796Y370421D01*
X452810Y370317D01*
X452820Y370211D01*
X452826Y370106D01*
X452828Y370000D01*
X452826Y369894D01*
X452820Y369789D01*
X452810Y369683D01*
X452796Y369579D01*
X452779Y369474D01*
X452757Y369371D01*
X452732Y369268D01*
X452702Y369166D01*
X452669Y369066D01*
X452633Y368967D01*
X452592Y368869D01*
X452548Y368773D01*
X452500Y368679D01*
X452449Y368586D01*
X452395Y368495D01*
X452337Y368407D01*
X452275Y368321D01*
X452211Y368237D01*
X452144Y368155D01*
X452073Y368076D01*
X452000Y368000D01*
X451924Y367927D01*
X451845Y367856D01*
X451763Y367789D01*
X451679Y367725D01*
X451593Y367663D01*
X451505Y367605D01*
X451414Y367551D01*
X451321Y367500D01*
X451227Y367452D01*
X451131Y367408D01*
X451033Y367367D01*
X450934Y367331D01*
X450834Y367298D01*
X450732Y367268D01*
X450629Y367243D01*
X450526Y367221D01*
X450421Y367204D01*
X450317Y367190D01*
X450211Y367180D01*
X450106Y367174D01*
X450000Y367172D01*
X449894Y367174D01*
X449789Y367180D01*
X449683Y367190D01*
X449579Y367204D01*
X449474Y367221D01*
X449371Y367243D01*
X449268Y367268D01*
X449166Y367298D01*
X449066Y367331D01*
X448967Y367367D01*
X448869Y367408D01*
X448773Y367452D01*
X448679Y367500D01*
X448586Y367551D01*
X448495Y367605D01*
X448407Y367663D01*
X448321Y367725D01*
X448237Y367789D01*
X448155Y367856D01*
X448076Y367927D01*
X448000Y368000D01*
X447927Y368076D01*
X447856Y368155D01*
X447789Y368237D01*
X447725Y368321D01*
X447663Y368407D01*
X447605Y368495D01*
X447551Y368586D01*
X447500Y368679D01*
X447452Y368773D01*
X447408Y368869D01*
X447367Y368967D01*
X447331Y369066D01*
X447298Y369166D01*
X447268Y369268D01*
X447243Y369371D01*
X447221Y369474D01*
X447204Y369579D01*
X447190Y369683D01*
X447180Y369789D01*
X447174Y369894D01*
X447172Y370000D01*
X440780Y370000D02*
X440783Y370226D01*
X440791Y370452D01*
X440805Y370678D01*
X440824Y370904D01*
X440849Y371129D01*
X440880Y371353D01*
X440916Y371576D01*
X440957Y371799D01*
X441004Y372020D01*
X441056Y372240D01*
X441114Y372459D01*
X441177Y372676D01*
X441245Y372892D01*
X441319Y373106D01*
X441398Y373318D01*
X441482Y373528D01*
X441571Y373736D01*
X441665Y373942D01*
X441764Y374145D01*
X441869Y374346D01*
X441978Y374545D01*
X442092Y374740D01*
X442210Y374933D01*
X442334Y375122D01*
X442462Y375309D01*
X442594Y375492D01*
X442731Y375672D01*
X442873Y375849D01*
X443019Y376022D01*
X443168Y376192D01*
X443322Y376358D01*
X443480Y376520D01*
X443642Y376678D01*
X443808Y376832D01*
X443978Y376981D01*
X444151Y377127D01*
X444328Y377269D01*
X444508Y377406D01*
X444691Y377538D01*
X444878Y377666D01*
X445067Y377790D01*
X445260Y377908D01*
X445455Y378022D01*
X445654Y378131D01*
X445855Y378236D01*
X446058Y378335D01*
X446264Y378429D01*
X446472Y378518D01*
X446682Y378602D01*
X446894Y378681D01*
X447108Y378755D01*
X447324Y378823D01*
X447541Y378886D01*
X447760Y378944D01*
X447980Y378996D01*
X448201Y379043D01*
X448424Y379084D01*
X448647Y379120D01*
X448871Y379151D01*
X449096Y379176D01*
X449322Y379195D01*
X449548Y379209D01*
X449774Y379217D01*
X450000Y379220D01*
X450226Y379217D01*
X450452Y379209D01*
X450678Y379195D01*
X450904Y379176D01*
X451129Y379151D01*
X451353Y379120D01*
X451576Y379084D01*
X451799Y379043D01*
X452020Y378996D01*
X452240Y378944D01*
X452459Y378886D01*
X452676Y378823D01*
X452892Y378755D01*
X453106Y378681D01*
X453318Y378602D01*
X453528Y378518D01*
X453736Y378429D01*
X453942Y378335D01*
X454145Y378236D01*
X454346Y378131D01*
X454545Y378022D01*
X454740Y377908D01*
X454933Y377790D01*
X455122Y377666D01*
X455309Y377538D01*
X455492Y377406D01*
X455672Y377269D01*
X455849Y377127D01*
X456022Y376981D01*
X456192Y376832D01*
X456358Y376678D01*
X456520Y376520D01*
X456678Y376358D01*
X456832Y376192D01*
X456981Y376022D01*
X457127Y375849D01*
X457269Y375672D01*
X457406Y375492D01*
X457538Y375309D01*
X457666Y375122D01*
X457790Y374933D01*
X457908Y374740D01*
X458022Y374545D01*
X458131Y374346D01*
X458236Y374145D01*
X458335Y373942D01*
X458429Y373736D01*
X458518Y373528D01*
X458602Y373318D01*
X458681Y373106D01*
X458755Y372892D01*
X458823Y372676D01*
X458886Y372459D01*
X458944Y372240D01*
X458996Y372020D01*
X459043Y371799D01*
X459084Y371576D01*
X459120Y371353D01*
X459151Y371129D01*
X459176Y370904D01*
X459195Y370678D01*
X459209Y370452D01*
X459217Y370226D01*
X459220Y370000D01*
X459217Y369774D01*
X459209Y369548D01*
X459195Y369322D01*
X459176Y369096D01*
X459151Y368871D01*
X459120Y368647D01*
X459084Y368424D01*
X459043Y368201D01*
X458996Y367980D01*
X458944Y367760D01*
X458886Y367541D01*
X458823Y367324D01*
X458755Y367108D01*
X458681Y366894D01*
X458602Y366682D01*
X458518Y366472D01*
X458429Y366264D01*
X458335Y366058D01*
X458236Y365855D01*
X458131Y365654D01*
X458022Y365455D01*
X457908Y365260D01*
X457790Y365067D01*
X457666Y364878D01*
X457538Y364691D01*
X457406Y364508D01*
X457269Y364328D01*
X457127Y364151D01*
X456981Y363978D01*
X456832Y363808D01*
X456678Y363642D01*
X456520Y363480D01*
X456358Y363322D01*
X456192Y363168D01*
X456022Y363019D01*
X455849Y362873D01*
X455672Y362731D01*
X455492Y362594D01*
X455309Y362462D01*
X455122Y362334D01*
X454933Y362210D01*
X454740Y362092D01*
X454545Y361978D01*
X454346Y361869D01*
X454145Y361764D01*
X453942Y361665D01*
X453736Y361571D01*
X453528Y361482D01*
X453318Y361398D01*
X453106Y361319D01*
X452892Y361245D01*
X452676Y361177D01*
X452459Y361114D01*
X452240Y361056D01*
X452020Y361004D01*
X451799Y360957D01*
X451576Y360916D01*
X451353Y360880D01*
X451129Y360849D01*
X450904Y360824D01*
X450678Y360805D01*
X450452Y360791D01*
X450226Y360783D01*
X450000Y360780D01*
X449774Y360783D01*
X449548Y360791D01*
X449322Y360805D01*
X449096Y360824D01*
X448871Y360849D01*
X448647Y360880D01*
X448424Y360916D01*
X448201Y360957D01*
X447980Y361004D01*
X447760Y361056D01*
X447541Y361114D01*
X447324Y361177D01*
X447108Y361245D01*
X446894Y361319D01*
X446682Y361398D01*
X446472Y361482D01*
X446264Y361571D01*
X446058Y361665D01*
X445855Y361764D01*
X445654Y361869D01*
X445455Y361978D01*
X445260Y362092D01*
X445067Y362210D01*
X444878Y362334D01*
X444691Y362462D01*
X444508Y362594D01*
X444328Y362731D01*
X444151Y362873D01*
X443978Y363019D01*
X443808Y363168D01*
X443642Y363322D01*
X443480Y363480D01*
X443322Y363642D01*
X443168Y363808D01*
X443019Y363978D01*
X442873Y364151D01*
X442731Y364328D01*
X442594Y364508D01*
X442462Y364691D01*
X442334Y364878D01*
X442210Y365067D01*
X442092Y365260D01*
X441978Y365455D01*
X441869Y365654D01*
X441764Y365855D01*
X441665Y366058D01*
X441571Y366264D01*
X441482Y366472D01*
X441398Y366682D01*
X441319Y366894D01*
X441245Y367108D01*
X441177Y367324D01*
X441114Y367541D01*
X441056Y367760D01*
X441004Y367980D01*
X440957Y368201D01*
X440916Y368424D01*
X440880Y368647D01*
X440849Y368871D01*
X440824Y369096D01*
X440805Y369322D01*
X440791Y369548D01*
X440783Y369774D01*
X440780Y370000D01*
X249000Y377000D02*
X249002Y377063D01*
X249008Y377125D01*
X249018Y377187D01*
X249031Y377249D01*
X249049Y377309D01*
X249070Y377368D01*
X249095Y377426D01*
X249124Y377482D01*
X249156Y377536D01*
X249191Y377588D01*
X249229Y377637D01*
X249271Y377685D01*
X249315Y377729D01*
X249363Y377771D01*
X249412Y377809D01*
X249464Y377844D01*
X249518Y377876D01*
X249574Y377905D01*
X249632Y377930D01*
X249691Y377951D01*
X249751Y377969D01*
X249813Y377982D01*
X249875Y377992D01*
X249937Y377998D01*
X250000Y378000D01*
X250063Y377998D01*
X250125Y377992D01*
X250187Y377982D01*
X250249Y377969D01*
X250309Y377951D01*
X250368Y377930D01*
X250426Y377905D01*
X250482Y377876D01*
X250536Y377844D01*
X250588Y377809D01*
X250637Y377771D01*
X250685Y377729D01*
X250729Y377685D01*
X250771Y377637D01*
X250809Y377588D01*
X250844Y377536D01*
X250876Y377482D01*
X250905Y377426D01*
X250930Y377368D01*
X250951Y377309D01*
X250969Y377249D01*
X250982Y377187D01*
X250992Y377125D01*
X250998Y377063D01*
X251000Y377000D01*
X250998Y376937D01*
X250992Y376875D01*
X250982Y376813D01*
X250969Y376751D01*
X250951Y376691D01*
X250930Y376632D01*
X250905Y376574D01*
X250876Y376518D01*
X250844Y376464D01*
X250809Y376412D01*
X250771Y376363D01*
X250729Y376315D01*
X250685Y376271D01*
X250637Y376229D01*
X250588Y376191D01*
X250536Y376156D01*
X250482Y376124D01*
X250426Y376095D01*
X250368Y376070D01*
X250309Y376049D01*
X250249Y376031D01*
X250187Y376018D01*
X250125Y376008D01*
X250063Y376002D01*
X250000Y376000D01*
X249937Y376002D01*
X249875Y376008D01*
X249813Y376018D01*
X249751Y376031D01*
X249691Y376049D01*
X249632Y376070D01*
X249574Y376095D01*
X249518Y376124D01*
X249464Y376156D01*
X249412Y376191D01*
X249363Y376229D01*
X249315Y376271D01*
X249271Y376315D01*
X249229Y376363D01*
X249191Y376412D01*
X249156Y376464D01*
X249124Y376518D01*
X249095Y376574D01*
X249070Y376632D01*
X249049Y376691D01*
X249031Y376751D01*
X249018Y376813D01*
X249008Y376875D01*
X249002Y376937D01*
X249000Y377000D01*
X244169Y377000D02*
X244171Y377153D01*
X244177Y377305D01*
X244187Y377457D01*
X244201Y377610D01*
X244219Y377761D01*
X244241Y377912D01*
X244267Y378063D01*
X244296Y378212D01*
X244330Y378361D01*
X244368Y378509D01*
X244409Y378656D01*
X244454Y378802D01*
X244503Y378946D01*
X244556Y379090D01*
X244613Y379231D01*
X244673Y379372D01*
X244737Y379510D01*
X244805Y379647D01*
X244876Y379782D01*
X244950Y379915D01*
X245028Y380047D01*
X245110Y380176D01*
X245195Y380303D01*
X245283Y380427D01*
X245374Y380550D01*
X245468Y380670D01*
X245566Y380787D01*
X245667Y380902D01*
X245770Y381014D01*
X245877Y381123D01*
X245986Y381230D01*
X246098Y381333D01*
X246213Y381434D01*
X246330Y381532D01*
X246450Y381626D01*
X246573Y381717D01*
X246697Y381805D01*
X246824Y381890D01*
X246953Y381972D01*
X247084Y382050D01*
X247218Y382124D01*
X247353Y382195D01*
X247490Y382263D01*
X247628Y382327D01*
X247769Y382387D01*
X247910Y382444D01*
X248054Y382497D01*
X248198Y382546D01*
X248344Y382591D01*
X248491Y382632D01*
X248639Y382670D01*
X248788Y382704D01*
X248937Y382733D01*
X249088Y382759D01*
X249239Y382781D01*
X249390Y382799D01*
X249543Y382813D01*
X249695Y382823D01*
X249847Y382829D01*
X250000Y382831D01*
X250153Y382829D01*
X250305Y382823D01*
X250457Y382813D01*
X250610Y382799D01*
X250761Y382781D01*
X250912Y382759D01*
X251063Y382733D01*
X251212Y382704D01*
X251361Y382670D01*
X251509Y382632D01*
X251656Y382591D01*
X251802Y382546D01*
X251946Y382497D01*
X252090Y382444D01*
X252231Y382387D01*
X252372Y382327D01*
X252510Y382263D01*
X252647Y382195D01*
X252782Y382124D01*
X252915Y382050D01*
X253047Y381972D01*
X253176Y381890D01*
X253303Y381805D01*
X253427Y381717D01*
X253550Y381626D01*
X253670Y381532D01*
X253787Y381434D01*
X253902Y381333D01*
X254014Y381230D01*
X254123Y381123D01*
X254230Y381014D01*
X254333Y380902D01*
X254434Y380787D01*
X254532Y380670D01*
X254626Y380550D01*
X254717Y380427D01*
X254805Y380303D01*
X254890Y380176D01*
X254972Y380047D01*
X255050Y379916D01*
X255124Y379782D01*
X255195Y379647D01*
X255263Y379510D01*
X255327Y379372D01*
X255387Y379231D01*
X255444Y379090D01*
X255497Y378946D01*
X255546Y378802D01*
X255591Y378656D01*
X255632Y378509D01*
X255670Y378361D01*
X255704Y378212D01*
X255733Y378063D01*
X255759Y377912D01*
X255781Y377761D01*
X255799Y377610D01*
X255813Y377457D01*
X255823Y377305D01*
X255829Y377153D01*
X255831Y377000D01*
X255829Y376847D01*
X255823Y376695D01*
X255813Y376543D01*
X255799Y376390D01*
X255781Y376239D01*
X255759Y376088D01*
X255733Y375937D01*
X255704Y375788D01*
X255670Y375639D01*
X255632Y375491D01*
X255591Y375344D01*
X255546Y375198D01*
X255497Y375054D01*
X255444Y374910D01*
X255387Y374769D01*
X255327Y374628D01*
X255263Y374490D01*
X255195Y374353D01*
X255124Y374218D01*
X255050Y374085D01*
X254972Y373953D01*
X254890Y373824D01*
X254805Y373697D01*
X254717Y373573D01*
X254626Y373450D01*
X254532Y373330D01*
X254434Y373213D01*
X254333Y373098D01*
X254230Y372986D01*
X254123Y372877D01*
X254014Y372770D01*
X253902Y372667D01*
X253787Y372566D01*
X253670Y372468D01*
X253550Y372374D01*
X253427Y372283D01*
X253303Y372195D01*
X253176Y372110D01*
X253047Y372028D01*
X252916Y371950D01*
X252782Y371876D01*
X252647Y371805D01*
X252510Y371737D01*
X252372Y371673D01*
X252231Y371613D01*
X252090Y371556D01*
X251946Y371503D01*
X251802Y371454D01*
X251656Y371409D01*
X251509Y371368D01*
X251361Y371330D01*
X251212Y371296D01*
X251063Y371267D01*
X250912Y371241D01*
X250761Y371219D01*
X250610Y371201D01*
X250457Y371187D01*
X250305Y371177D01*
X250153Y371171D01*
X250000Y371169D01*
X249847Y371171D01*
X249695Y371177D01*
X249543Y371187D01*
X249390Y371201D01*
X249239Y371219D01*
X249088Y371241D01*
X248937Y371267D01*
X248788Y371296D01*
X248639Y371330D01*
X248491Y371368D01*
X248344Y371409D01*
X248198Y371454D01*
X248054Y371503D01*
X247910Y371556D01*
X247769Y371613D01*
X247628Y371673D01*
X247490Y371737D01*
X247353Y371805D01*
X247218Y371876D01*
X247085Y371950D01*
X246953Y372028D01*
X246824Y372110D01*
X246697Y372195D01*
X246573Y372283D01*
X246450Y372374D01*
X246330Y372468D01*
X246213Y372566D01*
X246098Y372667D01*
X245986Y372770D01*
X245877Y372877D01*
X245770Y372986D01*
X245667Y373098D01*
X245566Y373213D01*
X245468Y373330D01*
X245374Y373450D01*
X245283Y373573D01*
X245195Y373697D01*
X245110Y373824D01*
X245028Y373953D01*
X244950Y374084D01*
X244876Y374218D01*
X244805Y374353D01*
X244737Y374490D01*
X244673Y374628D01*
X244613Y374769D01*
X244556Y374910D01*
X244503Y375054D01*
X244454Y375198D01*
X244409Y375344D01*
X244368Y375491D01*
X244330Y375639D01*
X244296Y375788D01*
X244267Y375937D01*
X244241Y376088D01*
X244219Y376239D01*
X244201Y376390D01*
X244187Y376543D01*
X244177Y376695D01*
X244171Y376847D01*
X244169Y377000D01*
X236546Y377000D02*
X236550Y377330D01*
X236562Y377660D01*
X236582Y377990D01*
X236611Y378319D01*
X236647Y378647D01*
X236692Y378974D01*
X236744Y379300D01*
X236805Y379625D01*
X236873Y379948D01*
X236949Y380269D01*
X237033Y380588D01*
X237125Y380905D01*
X237225Y381220D01*
X237332Y381533D01*
X237448Y381842D01*
X237570Y382149D01*
X237700Y382452D01*
X237838Y382752D01*
X237983Y383049D01*
X238135Y383342D01*
X238294Y383631D01*
X238460Y383917D01*
X238633Y384198D01*
X238813Y384475D01*
X239000Y384747D01*
X239194Y385015D01*
X239394Y385277D01*
X239600Y385535D01*
X239813Y385788D01*
X240031Y386035D01*
X240256Y386277D01*
X240487Y386513D01*
X240723Y386744D01*
X240965Y386969D01*
X241212Y387187D01*
X241465Y387400D01*
X241723Y387606D01*
X241985Y387806D01*
X242253Y388000D01*
X242525Y388187D01*
X242802Y388367D01*
X243083Y388540D01*
X243369Y388706D01*
X243658Y388865D01*
X243951Y389017D01*
X244248Y389162D01*
X244548Y389300D01*
X244851Y389430D01*
X245158Y389552D01*
X245467Y389668D01*
X245780Y389775D01*
X246095Y389875D01*
X246412Y389967D01*
X246731Y390051D01*
X247052Y390127D01*
X247375Y390195D01*
X247700Y390256D01*
X248026Y390308D01*
X248353Y390353D01*
X248681Y390389D01*
X249010Y390418D01*
X249340Y390438D01*
X249670Y390450D01*
X250000Y390454D01*
X250330Y390450D01*
X250660Y390438D01*
X250990Y390418D01*
X251319Y390389D01*
X251647Y390353D01*
X251974Y390308D01*
X252300Y390256D01*
X252625Y390195D01*
X252948Y390127D01*
X253269Y390051D01*
X253588Y389967D01*
X253905Y389875D01*
X254220Y389775D01*
X254533Y389668D01*
X254842Y389552D01*
X255149Y389430D01*
X255452Y389300D01*
X255752Y389162D01*
X256049Y389017D01*
X256342Y388865D01*
X256631Y388706D01*
X256917Y388540D01*
X257198Y388367D01*
X257475Y388187D01*
X257747Y388000D01*
X258015Y387806D01*
X258277Y387606D01*
X258535Y387400D01*
X258788Y387187D01*
X259035Y386969D01*
X259277Y386744D01*
X259513Y386513D01*
X259744Y386277D01*
X259969Y386035D01*
X260187Y385788D01*
X260400Y385535D01*
X260606Y385277D01*
X260806Y385015D01*
X261000Y384747D01*
X261187Y384475D01*
X261367Y384198D01*
X261540Y383917D01*
X261706Y383631D01*
X261865Y383342D01*
X262017Y383049D01*
X262162Y382752D01*
X262300Y382452D01*
X262430Y382149D01*
X262552Y381842D01*
X262668Y381533D01*
X262775Y381220D01*
X262875Y380905D01*
X262967Y380588D01*
X263051Y380269D01*
X263127Y379948D01*
X263195Y379625D01*
X263256Y379300D01*
X263308Y378974D01*
X263353Y378647D01*
X263389Y378319D01*
X263418Y377990D01*
X263438Y377660D01*
X263450Y377330D01*
X263454Y377000D01*
X263450Y376670D01*
X263438Y376340D01*
X263418Y376010D01*
X263389Y375681D01*
X263353Y375353D01*
X263308Y375026D01*
X263256Y374700D01*
X263195Y374375D01*
X263127Y374052D01*
X263051Y373731D01*
X262967Y373412D01*
X262875Y373095D01*
X262775Y372780D01*
X262668Y372467D01*
X262552Y372158D01*
X262430Y371851D01*
X262300Y371548D01*
X262162Y371248D01*
X262017Y370951D01*
X261865Y370658D01*
X261706Y370369D01*
X261540Y370083D01*
X261367Y369802D01*
X261187Y369525D01*
X261000Y369253D01*
X260806Y368985D01*
X260606Y368723D01*
X260400Y368465D01*
X260187Y368212D01*
X259969Y367965D01*
X259744Y367723D01*
X259513Y367487D01*
X259277Y367256D01*
X259035Y367031D01*
X258788Y366813D01*
X258535Y366600D01*
X258277Y366394D01*
X258015Y366194D01*
X257747Y366000D01*
X257475Y365813D01*
X257198Y365633D01*
X256917Y365460D01*
X256631Y365294D01*
X256342Y365135D01*
X256049Y364983D01*
X255752Y364838D01*
X255452Y364700D01*
X255149Y364570D01*
X254842Y364448D01*
X254533Y364332D01*
X254220Y364225D01*
X253905Y364125D01*
X253588Y364033D01*
X253269Y363949D01*
X252948Y363873D01*
X252625Y363805D01*
X252300Y363744D01*
X251974Y363692D01*
X251647Y363647D01*
X251319Y363611D01*
X250990Y363582D01*
X250660Y363562D01*
X250330Y363550D01*
X250000Y363546D01*
X249670Y363550D01*
X249340Y363562D01*
X249010Y363582D01*
X248681Y363611D01*
X248353Y363647D01*
X248026Y363692D01*
X247700Y363744D01*
X247375Y363805D01*
X247052Y363873D01*
X246731Y363949D01*
X246412Y364033D01*
X246095Y364125D01*
X245780Y364225D01*
X245467Y364332D01*
X245158Y364448D01*
X244851Y364570D01*
X244548Y364700D01*
X244248Y364838D01*
X243951Y364983D01*
X243658Y365135D01*
X243369Y365294D01*
X243083Y365460D01*
X242802Y365633D01*
X242525Y365813D01*
X242253Y366000D01*
X241985Y366194D01*
X241723Y366394D01*
X241465Y366600D01*
X241212Y366813D01*
X240965Y367031D01*
X240723Y367256D01*
X240487Y367487D01*
X240256Y367723D01*
X240031Y367965D01*
X239813Y368212D01*
X239600Y368465D01*
X239394Y368723D01*
X239194Y368985D01*
X239000Y369253D01*
X238813Y369525D01*
X238633Y369802D01*
X238460Y370083D01*
X238294Y370369D01*
X238135Y370658D01*
X237983Y370951D01*
X237838Y371248D01*
X237700Y371548D01*
X237570Y371851D01*
X237448Y372158D01*
X237332Y372467D01*
X237225Y372780D01*
X237125Y373095D01*
X237033Y373412D01*
X236949Y373731D01*
X236873Y374052D01*
X236805Y374375D01*
X236744Y374700D01*
X236692Y375026D01*
X236647Y375353D01*
X236611Y375681D01*
X236582Y376010D01*
X236562Y376340D01*
X236550Y376670D01*
X236546Y377000D01*
X233029Y377000D02*
X233034Y377416D01*
X233049Y377833D01*
X233075Y378248D01*
X233111Y378663D01*
X233157Y379077D01*
X233213Y379490D01*
X233279Y379901D01*
X233355Y380311D01*
X233441Y380718D01*
X233538Y381124D01*
X233644Y381526D01*
X233760Y381926D01*
X233886Y382323D01*
X234021Y382717D01*
X234166Y383108D01*
X234321Y383495D01*
X234485Y383877D01*
X234658Y384256D01*
X234841Y384630D01*
X235033Y385000D01*
X235234Y385365D01*
X235443Y385725D01*
X235662Y386079D01*
X235889Y386429D01*
X236125Y386772D01*
X236369Y387110D01*
X236621Y387441D01*
X236881Y387766D01*
X237149Y388085D01*
X237425Y388397D01*
X237709Y388702D01*
X238000Y389000D01*
X238298Y389291D01*
X238603Y389575D01*
X238915Y389851D01*
X239234Y390119D01*
X239559Y390379D01*
X239890Y390631D01*
X240228Y390875D01*
X240571Y391111D01*
X240921Y391338D01*
X241275Y391557D01*
X241635Y391766D01*
X242000Y391967D01*
X242370Y392159D01*
X242744Y392342D01*
X243123Y392515D01*
X243505Y392679D01*
X243892Y392834D01*
X244283Y392979D01*
X244677Y393114D01*
X245074Y393240D01*
X245474Y393356D01*
X245876Y393462D01*
X246282Y393559D01*
X246689Y393645D01*
X247099Y393721D01*
X247510Y393787D01*
X247923Y393843D01*
X248337Y393889D01*
X248752Y393925D01*
X249167Y393951D01*
X249584Y393966D01*
X250000Y393971D01*
X250416Y393966D01*
X250833Y393951D01*
X251248Y393925D01*
X251663Y393889D01*
X252077Y393843D01*
X252490Y393787D01*
X252901Y393721D01*
X253311Y393645D01*
X253718Y393559D01*
X254124Y393462D01*
X254526Y393356D01*
X254926Y393240D01*
X255323Y393114D01*
X255717Y392979D01*
X256108Y392834D01*
X256495Y392679D01*
X256877Y392515D01*
X257256Y392342D01*
X257630Y392159D01*
X258000Y391967D01*
X258365Y391766D01*
X258725Y391557D01*
X259079Y391338D01*
X259429Y391111D01*
X259772Y390875D01*
X260110Y390631D01*
X260441Y390379D01*
X260766Y390119D01*
X261085Y389851D01*
X261397Y389575D01*
X261702Y389291D01*
X262000Y389000D01*
X262291Y388702D01*
X262575Y388397D01*
X262851Y388085D01*
X263119Y387766D01*
X263379Y387441D01*
X263631Y387110D01*
X263875Y386772D01*
X264111Y386429D01*
X264338Y386079D01*
X264557Y385725D01*
X264766Y385365D01*
X264967Y385000D01*
X265159Y384630D01*
X265342Y384256D01*
X265515Y383877D01*
X265679Y383495D01*
X265834Y383108D01*
X265979Y382717D01*
X266114Y382323D01*
X266240Y381926D01*
X266356Y381526D01*
X266462Y381124D01*
X266559Y380718D01*
X266645Y380311D01*
X266721Y379901D01*
X266787Y379490D01*
X266843Y379077D01*
X266889Y378663D01*
X266925Y378248D01*
X266951Y377833D01*
X266966Y377416D01*
X266971Y377000D01*
X266966Y376584D01*
X266951Y376167D01*
X266925Y375752D01*
X266889Y375337D01*
X266843Y374923D01*
X266787Y374510D01*
X266721Y374099D01*
X266645Y373689D01*
X266559Y373282D01*
X266462Y372876D01*
X266356Y372474D01*
X266240Y372074D01*
X266114Y371677D01*
X265979Y371283D01*
X265834Y370892D01*
X265679Y370505D01*
X265515Y370123D01*
X265342Y369744D01*
X265159Y369370D01*
X264967Y369000D01*
X264766Y368635D01*
X264557Y368275D01*
X264338Y367921D01*
X264111Y367571D01*
X263875Y367228D01*
X263631Y366890D01*
X263379Y366559D01*
X263119Y366234D01*
X262851Y365915D01*
X262575Y365603D01*
X262291Y365298D01*
X262000Y365000D01*
X261702Y364709D01*
X261397Y364425D01*
X261085Y364149D01*
X260766Y363881D01*
X260441Y363621D01*
X260110Y363369D01*
X259772Y363125D01*
X259429Y362889D01*
X259079Y362662D01*
X258725Y362443D01*
X258365Y362234D01*
X258000Y362033D01*
X257630Y361841D01*
X257256Y361658D01*
X256877Y361485D01*
X256495Y361321D01*
X256108Y361166D01*
X255717Y361021D01*
X255323Y360886D01*
X254926Y360760D01*
X254526Y360644D01*
X254124Y360538D01*
X253718Y360441D01*
X253311Y360355D01*
X252901Y360279D01*
X252490Y360213D01*
X252077Y360157D01*
X251663Y360111D01*
X251248Y360075D01*
X250833Y360049D01*
X250416Y360034D01*
X250000Y360029D01*
X249584Y360034D01*
X249167Y360049D01*
X248752Y360075D01*
X248337Y360111D01*
X247923Y360157D01*
X247510Y360213D01*
X247099Y360279D01*
X246689Y360355D01*
X246282Y360441D01*
X245876Y360538D01*
X245474Y360644D01*
X245074Y360760D01*
X244677Y360886D01*
X244283Y361021D01*
X243892Y361166D01*
X243505Y361321D01*
X243123Y361485D01*
X242744Y361658D01*
X242370Y361841D01*
X242000Y362033D01*
X241635Y362234D01*
X241275Y362443D01*
X240921Y362662D01*
X240571Y362889D01*
X240228Y363125D01*
X239890Y363369D01*
X239559Y363621D01*
X239234Y363881D01*
X238915Y364149D01*
X238603Y364425D01*
X238298Y364709D01*
X238000Y365000D01*
X237709Y365298D01*
X237425Y365603D01*
X237149Y365915D01*
X236881Y366234D01*
X236621Y366559D01*
X236369Y366890D01*
X236125Y367228D01*
X235889Y367571D01*
X235662Y367921D01*
X235443Y368275D01*
X235234Y368635D01*
X235033Y369000D01*
X234841Y369370D01*
X234658Y369744D01*
X234485Y370123D01*
X234321Y370505D01*
X234166Y370892D01*
X234021Y371283D01*
X233886Y371677D01*
X233760Y372074D01*
X233644Y372474D01*
X233538Y372876D01*
X233441Y373282D01*
X233355Y373689D01*
X233279Y374099D01*
X233213Y374510D01*
X233157Y374923D01*
X233111Y375337D01*
X233075Y375752D01*
X233049Y376167D01*
X233034Y376584D01*
X233029Y377000D01*
X224761Y377000D02*
X224769Y377619D01*
X224791Y378238D01*
X224829Y378857D01*
X224883Y379474D01*
X224951Y380090D01*
X225034Y380703D01*
X225133Y381315D01*
X225246Y381924D01*
X225374Y382530D01*
X225517Y383133D01*
X225675Y383732D01*
X225848Y384326D01*
X226035Y384917D01*
X226236Y385503D01*
X226452Y386083D01*
X226682Y386659D01*
X226926Y387228D01*
X227184Y387791D01*
X227456Y388348D01*
X227741Y388898D01*
X228040Y389440D01*
X228352Y389975D01*
X228677Y390503D01*
X229015Y391022D01*
X229365Y391533D01*
X229728Y392035D01*
X230103Y392528D01*
X230490Y393011D01*
X230889Y393485D01*
X231299Y393949D01*
X231721Y394403D01*
X232153Y394847D01*
X232597Y395279D01*
X233051Y395701D01*
X233515Y396111D01*
X233989Y396510D01*
X234472Y396897D01*
X234965Y397272D01*
X235467Y397635D01*
X235978Y397985D01*
X236497Y398323D01*
X237025Y398648D01*
X237560Y398960D01*
X238102Y399259D01*
X238652Y399544D01*
X239209Y399816D01*
X239772Y400074D01*
X240341Y400318D01*
X240917Y400548D01*
X241497Y400764D01*
X242083Y400965D01*
X242674Y401152D01*
X243268Y401325D01*
X243867Y401483D01*
X244470Y401626D01*
X245076Y401754D01*
X245685Y401867D01*
X246297Y401966D01*
X246910Y402049D01*
X247526Y402117D01*
X248143Y402171D01*
X248762Y402209D01*
X249381Y402231D01*
X250000Y402239D01*
X250619Y402231D01*
X251238Y402209D01*
X251857Y402171D01*
X252474Y402117D01*
X253090Y402049D01*
X253703Y401966D01*
X254315Y401867D01*
X254924Y401754D01*
X255530Y401626D01*
X256133Y401483D01*
X256732Y401325D01*
X257326Y401152D01*
X257917Y400965D01*
X258503Y400764D01*
X259083Y400548D01*
X259659Y400318D01*
X260228Y400074D01*
X260791Y399816D01*
X261348Y399544D01*
X261898Y399259D01*
X262440Y398960D01*
X262975Y398648D01*
X263503Y398323D01*
X264022Y397985D01*
X264533Y397635D01*
X265035Y397272D01*
X265528Y396897D01*
X266011Y396510D01*
X266485Y396111D01*
X266949Y395701D01*
X267403Y395279D01*
X267847Y394847D01*
X268279Y394403D01*
X268701Y393949D01*
X269111Y393485D01*
X269510Y393011D01*
X269897Y392528D01*
X270272Y392035D01*
X270635Y391533D01*
X270985Y391022D01*
X271323Y390503D01*
X271648Y389975D01*
X271960Y389440D01*
X272259Y388898D01*
X272544Y388348D01*
X272816Y387791D01*
X273074Y387228D01*
X273318Y386659D01*
X273548Y386083D01*
X273764Y385503D01*
X273965Y384917D01*
X274152Y384326D01*
X274325Y383732D01*
X274483Y383133D01*
X274626Y382530D01*
X274754Y381924D01*
X274867Y381315D01*
X274966Y380703D01*
X275049Y380090D01*
X275117Y379474D01*
X275171Y378857D01*
X275209Y378238D01*
X275231Y377619D01*
X275239Y377000D01*
X275231Y376381D01*
X275209Y375762D01*
X275171Y375143D01*
X275117Y374526D01*
X275049Y373910D01*
X274966Y373297D01*
X274867Y372685D01*
X274754Y372076D01*
X274626Y371470D01*
X274483Y370867D01*
X274325Y370268D01*
X274152Y369674D01*
X273965Y369083D01*
X273764Y368497D01*
X273548Y367917D01*
X273318Y367341D01*
X273074Y366772D01*
X272816Y366209D01*
X272544Y365652D01*
X272259Y365102D01*
X271960Y364560D01*
X271648Y364025D01*
X271323Y363497D01*
X270985Y362978D01*
X270635Y362467D01*
X270272Y361965D01*
X269897Y361472D01*
X269510Y360989D01*
X269111Y360515D01*
X268701Y360051D01*
X268279Y359597D01*
X267847Y359153D01*
X267403Y358721D01*
X266949Y358299D01*
X266485Y357889D01*
X266011Y357490D01*
X265528Y357103D01*
X265035Y356728D01*
X264533Y356365D01*
X264022Y356015D01*
X263503Y355677D01*
X262975Y355352D01*
X262440Y355040D01*
X261898Y354741D01*
X261348Y354456D01*
X260791Y354184D01*
X260228Y353926D01*
X259659Y353682D01*
X259083Y353452D01*
X258503Y353236D01*
X257917Y353035D01*
X257326Y352848D01*
X256732Y352675D01*
X256133Y352517D01*
X255530Y352374D01*
X254924Y352246D01*
X254315Y352133D01*
X253703Y352034D01*
X253090Y351951D01*
X252474Y351883D01*
X251857Y351829D01*
X251238Y351791D01*
X250619Y351769D01*
X250000Y351761D01*
X249381Y351769D01*
X248762Y351791D01*
X248143Y351829D01*
X247526Y351883D01*
X246910Y351951D01*
X246297Y352034D01*
X245685Y352133D01*
X245076Y352246D01*
X244470Y352374D01*
X243867Y352517D01*
X243268Y352675D01*
X242674Y352848D01*
X242083Y353035D01*
X241497Y353236D01*
X240917Y353452D01*
X240341Y353682D01*
X239772Y353926D01*
X239209Y354184D01*
X238652Y354456D01*
X238102Y354741D01*
X237560Y355040D01*
X237025Y355352D01*
X236497Y355677D01*
X235978Y356015D01*
X235467Y356365D01*
X234965Y356728D01*
X234472Y357103D01*
X233989Y357490D01*
X233515Y357889D01*
X233051Y358299D01*
X232597Y358721D01*
X232153Y359153D01*
X231721Y359597D01*
X231299Y360051D01*
X230889Y360515D01*
X230490Y360989D01*
X230103Y361472D01*
X229728Y361965D01*
X229365Y362467D01*
X229015Y362978D01*
X228677Y363497D01*
X228352Y364025D01*
X228040Y364560D01*
X227741Y365102D01*
X227456Y365652D01*
X227184Y366209D01*
X226926Y366772D01*
X226682Y367341D01*
X226452Y367917D01*
X226236Y368497D01*
X226035Y369083D01*
X225848Y369674D01*
X225675Y370268D01*
X225517Y370867D01*
X225374Y371470D01*
X225246Y372076D01*
X225133Y372685D01*
X225034Y373297D01*
X224951Y373910D01*
X224883Y374526D01*
X224829Y375143D01*
X224791Y375762D01*
X224769Y376381D01*
X224761Y377000D01*
X223074Y377000D02*
X223082Y377661D01*
X223106Y378321D01*
X223147Y378981D01*
X223204Y379639D01*
X223276Y380296D01*
X223365Y380951D01*
X223470Y381603D01*
X223591Y382253D01*
X223728Y382900D01*
X223881Y383542D01*
X224049Y384182D01*
X224233Y384816D01*
X224433Y385446D01*
X224648Y386071D01*
X224878Y386691D01*
X225124Y387304D01*
X225384Y387912D01*
X225659Y388512D01*
X225949Y389106D01*
X226253Y389693D01*
X226572Y390272D01*
X226905Y390843D01*
X227251Y391405D01*
X227612Y391959D01*
X227986Y392504D01*
X228373Y393040D01*
X228773Y393566D01*
X229186Y394082D01*
X229611Y394587D01*
X230049Y395082D01*
X230499Y395567D01*
X230960Y396040D01*
X231433Y396501D01*
X231918Y396951D01*
X232413Y397389D01*
X232918Y397814D01*
X233434Y398227D01*
X233960Y398627D01*
X234496Y399014D01*
X235041Y399388D01*
X235595Y399749D01*
X236157Y400095D01*
X236728Y400428D01*
X237307Y400747D01*
X237894Y401051D01*
X238488Y401341D01*
X239088Y401616D01*
X239696Y401876D01*
X240309Y402122D01*
X240929Y402352D01*
X241554Y402567D01*
X242184Y402767D01*
X242818Y402951D01*
X243458Y403119D01*
X244100Y403272D01*
X244747Y403409D01*
X245397Y403530D01*
X246049Y403635D01*
X246704Y403724D01*
X247361Y403796D01*
X248019Y403853D01*
X248679Y403894D01*
X249339Y403918D01*
X250000Y403926D01*
X250661Y403918D01*
X251321Y403894D01*
X251981Y403853D01*
X252639Y403796D01*
X253296Y403724D01*
X253951Y403635D01*
X254603Y403530D01*
X255253Y403409D01*
X255900Y403272D01*
X256542Y403119D01*
X257182Y402951D01*
X257816Y402767D01*
X258446Y402567D01*
X259071Y402352D01*
X259691Y402122D01*
X260304Y401876D01*
X260912Y401616D01*
X261512Y401341D01*
X262106Y401051D01*
X262693Y400747D01*
X263272Y400428D01*
X263843Y400095D01*
X264405Y399749D01*
X264959Y399388D01*
X265504Y399014D01*
X266040Y398627D01*
X266566Y398227D01*
X267082Y397814D01*
X267587Y397389D01*
X268082Y396951D01*
X268567Y396501D01*
X269040Y396040D01*
X269501Y395567D01*
X269951Y395082D01*
X270389Y394587D01*
X270814Y394082D01*
X271227Y393566D01*
X271627Y393040D01*
X272014Y392504D01*
X272388Y391959D01*
X272749Y391405D01*
X273095Y390843D01*
X273428Y390272D01*
X273747Y389693D01*
X274051Y389106D01*
X274341Y388512D01*
X274616Y387912D01*
X274876Y387304D01*
X275122Y386691D01*
X275352Y386071D01*
X275567Y385446D01*
X275767Y384816D01*
X275951Y384182D01*
X276119Y383542D01*
X276272Y382900D01*
X276409Y382253D01*
X276530Y381603D01*
X276635Y380951D01*
X276724Y380296D01*
X276796Y379639D01*
X276853Y378981D01*
X276894Y378321D01*
X276918Y377661D01*
X276926Y377000D01*
X276918Y376339D01*
X276894Y375679D01*
X276853Y375019D01*
X276796Y374361D01*
X276724Y373704D01*
X276635Y373049D01*
X276530Y372397D01*
X276409Y371747D01*
X276272Y371100D01*
X276119Y370458D01*
X275951Y369818D01*
X275767Y369184D01*
X275567Y368554D01*
X275352Y367929D01*
X275122Y367309D01*
X274876Y366696D01*
X274616Y366088D01*
X274341Y365488D01*
X274051Y364894D01*
X273747Y364307D01*
X273428Y363728D01*
X273095Y363157D01*
X272749Y362595D01*
X272388Y362041D01*
X272014Y361496D01*
X271627Y360960D01*
X271227Y360434D01*
X270814Y359918D01*
X270389Y359413D01*
X269951Y358918D01*
X269501Y358433D01*
X269040Y357960D01*
X268567Y357499D01*
X268082Y357049D01*
X267587Y356611D01*
X267082Y356186D01*
X266566Y355773D01*
X266040Y355373D01*
X265504Y354986D01*
X264959Y354612D01*
X264405Y354251D01*
X263843Y353905D01*
X263272Y353572D01*
X262693Y353253D01*
X262106Y352949D01*
X261512Y352659D01*
X260912Y352384D01*
X260304Y352124D01*
X259691Y351878D01*
X259071Y351648D01*
X258446Y351433D01*
X257816Y351233D01*
X257182Y351049D01*
X256542Y350881D01*
X255900Y350728D01*
X255253Y350591D01*
X254603Y350470D01*
X253951Y350365D01*
X253296Y350276D01*
X252639Y350204D01*
X251981Y350147D01*
X251321Y350106D01*
X250661Y350082D01*
X250000Y350074D01*
X249339Y350082D01*
X248679Y350106D01*
X248019Y350147D01*
X247361Y350204D01*
X246704Y350276D01*
X246049Y350365D01*
X245397Y350470D01*
X244747Y350591D01*
X244100Y350728D01*
X243458Y350881D01*
X242818Y351049D01*
X242184Y351233D01*
X241554Y351433D01*
X240929Y351648D01*
X240309Y351878D01*
X239696Y352124D01*
X239088Y352384D01*
X238488Y352659D01*
X237894Y352949D01*
X237307Y353253D01*
X236728Y353572D01*
X236157Y353905D01*
X235595Y354251D01*
X235041Y354612D01*
X234496Y354986D01*
X233960Y355373D01*
X233434Y355773D01*
X232918Y356186D01*
X232413Y356611D01*
X231918Y357049D01*
X231433Y357499D01*
X230960Y357960D01*
X230499Y358433D01*
X230049Y358918D01*
X229611Y359413D01*
X229186Y359918D01*
X228773Y360434D01*
X228373Y360960D01*
X227986Y361496D01*
X227612Y362041D01*
X227251Y362595D01*
X226905Y363157D01*
X226572Y363728D01*
X226253Y364307D01*
X225949Y364894D01*
X225659Y365488D01*
X225384Y366088D01*
X225124Y366696D01*
X224878Y367309D01*
X224648Y367929D01*
X224433Y368554D01*
X224233Y369184D01*
X224049Y369818D01*
X223881Y370458D01*
X223728Y371100D01*
X223591Y371747D01*
X223470Y372397D01*
X223365Y373049D01*
X223276Y373704D01*
X223204Y374361D01*
X223147Y375019D01*
X223106Y375679D01*
X223082Y376339D01*
X223074Y377000D01*
X221156Y377000D02*
X221165Y377708D01*
X221191Y378415D01*
X221234Y379122D01*
X221295Y379827D01*
X221373Y380531D01*
X221468Y381232D01*
X221581Y381931D01*
X221710Y382627D01*
X221857Y383320D01*
X222020Y384009D01*
X222201Y384693D01*
X222398Y385373D01*
X222612Y386048D01*
X222842Y386717D01*
X223089Y387381D01*
X223352Y388038D01*
X223631Y388689D01*
X223925Y389332D01*
X224236Y389969D01*
X224562Y390597D01*
X224903Y391217D01*
X225260Y391829D01*
X225631Y392431D01*
X226017Y393025D01*
X226418Y393609D01*
X226832Y394182D01*
X227261Y394746D01*
X227703Y395298D01*
X228159Y395840D01*
X228628Y396370D01*
X229110Y396889D01*
X229604Y397396D01*
X230111Y397890D01*
X230630Y398372D01*
X231160Y398841D01*
X231702Y399297D01*
X232254Y399739D01*
X232818Y400168D01*
X233391Y400582D01*
X233975Y400983D01*
X234569Y401369D01*
X235171Y401740D01*
X235783Y402097D01*
X236403Y402438D01*
X237031Y402764D01*
X237668Y403075D01*
X238311Y403369D01*
X238962Y403648D01*
X239619Y403911D01*
X240283Y404158D01*
X240952Y404388D01*
X241627Y404602D01*
X242307Y404799D01*
X242991Y404980D01*
X243680Y405143D01*
X244373Y405290D01*
X245069Y405419D01*
X245768Y405532D01*
X246469Y405627D01*
X247173Y405705D01*
X247878Y405766D01*
X248585Y405809D01*
X249292Y405835D01*
X250000Y405844D01*
X250708Y405835D01*
X251415Y405809D01*
X252122Y405766D01*
X252827Y405705D01*
X253531Y405627D01*
X254232Y405532D01*
X254931Y405419D01*
X255627Y405290D01*
X256320Y405143D01*
X257009Y404980D01*
X257693Y404799D01*
X258373Y404602D01*
X259048Y404388D01*
X259717Y404158D01*
X260381Y403911D01*
X261038Y403648D01*
X261689Y403369D01*
X262332Y403075D01*
X262969Y402764D01*
X263597Y402438D01*
X264217Y402097D01*
X264829Y401740D01*
X265431Y401369D01*
X266025Y400983D01*
X266609Y400582D01*
X267182Y400168D01*
X267746Y399739D01*
X268298Y399297D01*
X268840Y398841D01*
X269370Y398372D01*
X269889Y397890D01*
X270396Y397396D01*
X270890Y396889D01*
X271372Y396370D01*
X271841Y395840D01*
X272297Y395298D01*
X272739Y394746D01*
X273168Y394182D01*
X273582Y393609D01*
X273983Y393025D01*
X274369Y392431D01*
X274740Y391829D01*
X275097Y391217D01*
X275438Y390597D01*
X275764Y389969D01*
X276075Y389332D01*
X276369Y388689D01*
X276648Y388038D01*
X276911Y387381D01*
X277158Y386717D01*
X277388Y386048D01*
X277602Y385373D01*
X277799Y384693D01*
X277980Y384009D01*
X278143Y383320D01*
X278290Y382627D01*
X278419Y381931D01*
X278532Y381232D01*
X278627Y380531D01*
X278705Y379827D01*
X278766Y379122D01*
X278809Y378415D01*
X278835Y377708D01*
X278844Y377000D01*
X278835Y376292D01*
X278809Y375585D01*
X278766Y374878D01*
X278705Y374173D01*
X278627Y373469D01*
X278532Y372768D01*
X278419Y372069D01*
X278290Y371373D01*
X278143Y370680D01*
X277980Y369991D01*
X277799Y369307D01*
X277602Y368627D01*
X277388Y367952D01*
X277158Y367283D01*
X276911Y366619D01*
X276648Y365962D01*
X276369Y365311D01*
X276075Y364668D01*
X275764Y364031D01*
X275438Y363403D01*
X275097Y362783D01*
X274740Y362171D01*
X274369Y361569D01*
X273983Y360975D01*
X273582Y360391D01*
X273168Y359818D01*
X272739Y359254D01*
X272297Y358702D01*
X271841Y358160D01*
X271372Y357630D01*
X270890Y357111D01*
X270396Y356604D01*
X269889Y356110D01*
X269370Y355628D01*
X268840Y355159D01*
X268298Y354703D01*
X267746Y354261D01*
X267182Y353832D01*
X266609Y353418D01*
X266025Y353017D01*
X265431Y352631D01*
X264829Y352260D01*
X264217Y351903D01*
X263597Y351562D01*
X262969Y351236D01*
X262332Y350925D01*
X261689Y350631D01*
X261038Y350352D01*
X260381Y350089D01*
X259717Y349842D01*
X259048Y349612D01*
X258373Y349398D01*
X257693Y349201D01*
X257009Y349020D01*
X256320Y348857D01*
X255627Y348710D01*
X254931Y348581D01*
X254232Y348468D01*
X253531Y348373D01*
X252827Y348295D01*
X252122Y348234D01*
X251415Y348191D01*
X250708Y348165D01*
X250000Y348156D01*
X249292Y348165D01*
X248585Y348191D01*
X247878Y348234D01*
X247173Y348295D01*
X246469Y348373D01*
X245768Y348468D01*
X245069Y348581D01*
X244373Y348710D01*
X243680Y348857D01*
X242991Y349020D01*
X242307Y349201D01*
X241627Y349398D01*
X240952Y349612D01*
X240283Y349842D01*
X239619Y350089D01*
X238962Y350352D01*
X238311Y350631D01*
X237668Y350925D01*
X237031Y351236D01*
X236403Y351562D01*
X235783Y351903D01*
X235171Y352260D01*
X234569Y352631D01*
X233975Y353017D01*
X233391Y353418D01*
X232818Y353832D01*
X232254Y354261D01*
X231702Y354703D01*
X231160Y355159D01*
X230630Y355628D01*
X230111Y356110D01*
X229604Y356604D01*
X229110Y357111D01*
X228628Y357630D01*
X228159Y358160D01*
X227703Y358702D01*
X227261Y359254D01*
X226832Y359818D01*
X226418Y360391D01*
X226017Y360975D01*
X225631Y361569D01*
X225260Y362171D01*
X224903Y362783D01*
X224562Y363403D01*
X224236Y364031D01*
X223925Y364668D01*
X223631Y365311D01*
X223352Y365962D01*
X223089Y366619D01*
X222842Y367283D01*
X222612Y367952D01*
X222398Y368627D01*
X222201Y369307D01*
X222020Y369991D01*
X221857Y370680D01*
X221710Y371373D01*
X221581Y372069D01*
X221468Y372768D01*
X221373Y373469D01*
X221295Y374173D01*
X221234Y374878D01*
X221191Y375585D01*
X221165Y376292D01*
X221156Y377000D01*
X439370Y370000D02*
X439373Y370261D01*
X439383Y370522D01*
X439399Y370782D01*
X439421Y371042D01*
X439450Y371301D01*
X439485Y371560D01*
X439526Y371817D01*
X439574Y372074D01*
X439628Y372329D01*
X439689Y372583D01*
X439755Y372835D01*
X439828Y373086D01*
X439907Y373334D01*
X439991Y373581D01*
X440082Y373826D01*
X440179Y374068D01*
X440282Y374308D01*
X440391Y374545D01*
X440505Y374779D01*
X440625Y375011D01*
X440751Y375240D01*
X440882Y375465D01*
X441019Y375687D01*
X441161Y375906D01*
X441309Y376121D01*
X441462Y376332D01*
X441620Y376540D01*
X441783Y376744D01*
X441951Y376943D01*
X442124Y377139D01*
X442301Y377330D01*
X442483Y377517D01*
X442670Y377699D01*
X442861Y377876D01*
X443057Y378049D01*
X443256Y378217D01*
X443460Y378380D01*
X443668Y378538D01*
X443879Y378691D01*
X444094Y378839D01*
X444313Y378981D01*
X444535Y379118D01*
X444760Y379249D01*
X444989Y379375D01*
X445221Y379495D01*
X445455Y379609D01*
X445692Y379718D01*
X445932Y379821D01*
X446174Y379918D01*
X446419Y380009D01*
X446666Y380093D01*
X446914Y380172D01*
X447165Y380245D01*
X447417Y380311D01*
X447671Y380372D01*
X447926Y380426D01*
X448183Y380474D01*
X448440Y380515D01*
X448699Y380550D01*
X448958Y380579D01*
X449218Y380601D01*
X449478Y380617D01*
X449739Y380627D01*
X450000Y380630D01*
X450261Y380627D01*
X450522Y380617D01*
X450782Y380601D01*
X451042Y380579D01*
X451301Y380550D01*
X451560Y380515D01*
X451817Y380474D01*
X452074Y380426D01*
X452329Y380372D01*
X452583Y380311D01*
X452835Y380245D01*
X453086Y380172D01*
X453334Y380093D01*
X453581Y380009D01*
X453826Y379918D01*
X454068Y379821D01*
X454308Y379718D01*
X454545Y379609D01*
X454779Y379495D01*
X455011Y379375D01*
X455240Y379249D01*
X455465Y379118D01*
X455687Y378981D01*
X455906Y378839D01*
X456121Y378691D01*
X456332Y378538D01*
X456540Y378380D01*
X456744Y378217D01*
X456943Y378049D01*
X457139Y377876D01*
X457330Y377699D01*
X457517Y377517D01*
X457699Y377330D01*
X457876Y377139D01*
X458049Y376943D01*
X458217Y376744D01*
X458380Y376540D01*
X458538Y376332D01*
X458691Y376121D01*
X458839Y375906D01*
X458981Y375687D01*
X459118Y375465D01*
X459249Y375240D01*
X459375Y375011D01*
X459495Y374779D01*
X459609Y374545D01*
X459718Y374308D01*
X459821Y374068D01*
X459918Y373826D01*
X460009Y373581D01*
X460093Y373334D01*
X460172Y373086D01*
X460245Y372835D01*
X460311Y372583D01*
X460372Y372329D01*
X460426Y372074D01*
X460474Y371817D01*
X460515Y371560D01*
X460550Y371301D01*
X460579Y371042D01*
X460601Y370782D01*
X460617Y370522D01*
X460627Y370261D01*
X460630Y370000D01*
X460627Y369739D01*
X460617Y369478D01*
X460601Y369218D01*
X460579Y368958D01*
X460550Y368699D01*
X460515Y368440D01*
X460474Y368183D01*
X460426Y367926D01*
X460372Y367671D01*
X460311Y367417D01*
X460245Y367165D01*
X460172Y366914D01*
X460093Y366666D01*
X460009Y366419D01*
X459918Y366174D01*
X459821Y365932D01*
X459718Y365692D01*
X459609Y365455D01*
X459495Y365221D01*
X459375Y364989D01*
X459249Y364760D01*
X459118Y364535D01*
X458981Y364313D01*
X458839Y364094D01*
X458691Y363879D01*
X458538Y363668D01*
X458380Y363460D01*
X458217Y363256D01*
X458049Y363057D01*
X457876Y362861D01*
X457699Y362670D01*
X457517Y362483D01*
X457330Y362301D01*
X457139Y362124D01*
X456943Y361951D01*
X456744Y361783D01*
X456540Y361620D01*
X456332Y361462D01*
X456121Y361309D01*
X455906Y361161D01*
X455687Y361019D01*
X455465Y360882D01*
X455240Y360751D01*
X455011Y360625D01*
X454779Y360505D01*
X454545Y360391D01*
X454308Y360282D01*
X454068Y360179D01*
X453826Y360082D01*
X453581Y359991D01*
X453334Y359907D01*
X453086Y359828D01*
X452835Y359755D01*
X452583Y359689D01*
X452329Y359628D01*
X452074Y359574D01*
X451817Y359526D01*
X451560Y359485D01*
X451301Y359450D01*
X451042Y359421D01*
X450782Y359399D01*
X450522Y359383D01*
X450261Y359373D01*
X450000Y359370D01*
X449739Y359373D01*
X449478Y359383D01*
X449218Y359399D01*
X448958Y359421D01*
X448699Y359450D01*
X448440Y359485D01*
X448183Y359526D01*
X447926Y359574D01*
X447671Y359628D01*
X447417Y359689D01*
X447165Y359755D01*
X446914Y359828D01*
X446666Y359907D01*
X446419Y359991D01*
X446174Y360082D01*
X445932Y360179D01*
X445692Y360282D01*
X445455Y360391D01*
X445221Y360505D01*
X444989Y360625D01*
X444760Y360751D01*
X444535Y360882D01*
X444313Y361019D01*
X444094Y361161D01*
X443879Y361309D01*
X443668Y361462D01*
X443460Y361620D01*
X443256Y361783D01*
X443057Y361951D01*
X442861Y362124D01*
X442670Y362301D01*
X442483Y362483D01*
X442301Y362670D01*
X442124Y362861D01*
X441951Y363057D01*
X441783Y363256D01*
X441620Y363460D01*
X441462Y363668D01*
X441309Y363879D01*
X441161Y364094D01*
X441019Y364313D01*
X440882Y364535D01*
X440751Y364760D01*
X440625Y364989D01*
X440505Y365221D01*
X440391Y365455D01*
X440282Y365692D01*
X440179Y365932D01*
X440082Y366174D01*
X439991Y366419D01*
X439907Y366666D01*
X439828Y366914D01*
X439755Y367165D01*
X439689Y367417D01*
X439628Y367671D01*
X439574Y367926D01*
X439526Y368183D01*
X439485Y368440D01*
X439450Y368699D01*
X439421Y368958D01*
X439399Y369218D01*
X439383Y369478D01*
X439373Y369739D01*
X439370Y370000D01*
X437958Y370000D02*
X437962Y370296D01*
X437973Y370591D01*
X437991Y370886D01*
X438016Y371180D01*
X438049Y371474D01*
X438088Y371767D01*
X438135Y372059D01*
X438189Y372349D01*
X438251Y372638D01*
X438319Y372926D01*
X438394Y373212D01*
X438477Y373496D01*
X438566Y373777D01*
X438662Y374057D01*
X438765Y374334D01*
X438875Y374608D01*
X438991Y374880D01*
X439114Y375149D01*
X439244Y375414D01*
X439380Y375677D01*
X439522Y375935D01*
X439671Y376191D01*
X439826Y376442D01*
X439987Y376690D01*
X440155Y376934D01*
X440328Y377173D01*
X440507Y377409D01*
X440691Y377639D01*
X440882Y377866D01*
X441077Y378087D01*
X441279Y378303D01*
X441485Y378515D01*
X441697Y378721D01*
X441913Y378923D01*
X442134Y379118D01*
X442361Y379309D01*
X442591Y379493D01*
X442827Y379672D01*
X443066Y379845D01*
X443310Y380013D01*
X443558Y380174D01*
X443809Y380329D01*
X444065Y380478D01*
X444323Y380620D01*
X444586Y380756D01*
X444851Y380886D01*
X445120Y381009D01*
X445392Y381125D01*
X445666Y381235D01*
X445943Y381338D01*
X446223Y381434D01*
X446504Y381523D01*
X446788Y381606D01*
X447074Y381681D01*
X447362Y381749D01*
X447651Y381811D01*
X447941Y381865D01*
X448233Y381912D01*
X448526Y381951D01*
X448820Y381984D01*
X449114Y382009D01*
X449409Y382027D01*
X449704Y382038D01*
X450000Y382042D01*
X450296Y382038D01*
X450591Y382027D01*
X450886Y382009D01*
X451180Y381984D01*
X451474Y381951D01*
X451767Y381912D01*
X452059Y381865D01*
X452349Y381811D01*
X452638Y381749D01*
X452926Y381681D01*
X453212Y381606D01*
X453496Y381523D01*
X453777Y381434D01*
X454057Y381338D01*
X454334Y381235D01*
X454608Y381125D01*
X454880Y381009D01*
X455149Y380886D01*
X455414Y380756D01*
X455677Y380620D01*
X455935Y380478D01*
X456191Y380329D01*
X456442Y380174D01*
X456690Y380013D01*
X456934Y379845D01*
X457173Y379672D01*
X457409Y379493D01*
X457639Y379309D01*
X457866Y379118D01*
X458087Y378923D01*
X458303Y378721D01*
X458515Y378515D01*
X458721Y378303D01*
X458923Y378087D01*
X459118Y377866D01*
X459309Y377639D01*
X459493Y377409D01*
X459672Y377173D01*
X459845Y376934D01*
X460013Y376690D01*
X460174Y376442D01*
X460329Y376191D01*
X460478Y375935D01*
X460620Y375677D01*
X460756Y375414D01*
X460886Y375149D01*
X461009Y374880D01*
X461125Y374608D01*
X461235Y374334D01*
X461338Y374057D01*
X461434Y373777D01*
X461523Y373496D01*
X461606Y373212D01*
X461681Y372926D01*
X461749Y372638D01*
X461811Y372349D01*
X461865Y372059D01*
X461912Y371767D01*
X461951Y371474D01*
X461984Y371180D01*
X462009Y370886D01*
X462027Y370591D01*
X462038Y370296D01*
X462042Y370000D01*
X462038Y369704D01*
X462027Y369409D01*
X462009Y369114D01*
X461984Y368820D01*
X461951Y368526D01*
X461912Y368233D01*
X461865Y367941D01*
X461811Y367651D01*
X461749Y367362D01*
X461681Y367074D01*
X461606Y366788D01*
X461523Y366504D01*
X461434Y366223D01*
X461338Y365943D01*
X461235Y365666D01*
X461125Y365392D01*
X461009Y365120D01*
X460886Y364851D01*
X460756Y364586D01*
X460620Y364323D01*
X460478Y364065D01*
X460329Y363809D01*
X460174Y363558D01*
X460013Y363310D01*
X459845Y363066D01*
X459672Y362827D01*
X459493Y362591D01*
X459309Y362361D01*
X459118Y362134D01*
X458923Y361913D01*
X458721Y361697D01*
X458515Y361485D01*
X458303Y361279D01*
X458087Y361077D01*
X457866Y360882D01*
X457639Y360691D01*
X457409Y360507D01*
X457173Y360328D01*
X456934Y360155D01*
X456690Y359987D01*
X456442Y359826D01*
X456191Y359671D01*
X455935Y359522D01*
X455677Y359380D01*
X455414Y359244D01*
X455149Y359114D01*
X454880Y358991D01*
X454608Y358875D01*
X454334Y358765D01*
X454057Y358662D01*
X453777Y358566D01*
X453496Y358477D01*
X453212Y358394D01*
X452926Y358319D01*
X452638Y358251D01*
X452349Y358189D01*
X452059Y358135D01*
X451767Y358088D01*
X451474Y358049D01*
X451180Y358016D01*
X450886Y357991D01*
X450591Y357973D01*
X450296Y357962D01*
X450000Y357958D01*
X449704Y357962D01*
X449409Y357973D01*
X449114Y357991D01*
X448820Y358016D01*
X448526Y358049D01*
X448233Y358088D01*
X447941Y358135D01*
X447651Y358189D01*
X447362Y358251D01*
X447074Y358319D01*
X446788Y358394D01*
X446504Y358477D01*
X446223Y358566D01*
X445943Y358662D01*
X445666Y358765D01*
X445392Y358875D01*
X445120Y358991D01*
X444851Y359114D01*
X444586Y359244D01*
X444323Y359380D01*
X444065Y359522D01*
X443809Y359671D01*
X443558Y359826D01*
X443310Y359987D01*
X443066Y360155D01*
X442827Y360328D01*
X442591Y360507D01*
X442361Y360691D01*
X442134Y360882D01*
X441913Y361077D01*
X441697Y361279D01*
X441485Y361485D01*
X441279Y361697D01*
X441077Y361913D01*
X440882Y362134D01*
X440691Y362361D01*
X440507Y362591D01*
X440328Y362827D01*
X440155Y363066D01*
X439987Y363310D01*
X439826Y363558D01*
X439671Y363809D01*
X439522Y364065D01*
X439380Y364323D01*
X439244Y364586D01*
X439114Y364851D01*
X438991Y365120D01*
X438875Y365392D01*
X438765Y365666D01*
X438662Y365943D01*
X438566Y366223D01*
X438477Y366504D01*
X438394Y366788D01*
X438319Y367074D01*
X438251Y367362D01*
X438189Y367651D01*
X438135Y367941D01*
X438088Y368233D01*
X438049Y368526D01*
X438016Y368820D01*
X437991Y369114D01*
X437973Y369409D01*
X437962Y369704D01*
X437958Y370000D01*
X436399Y370000D02*
X436403Y370334D01*
X436415Y370667D01*
X436436Y371001D01*
X436464Y371333D01*
X436501Y371665D01*
X436546Y371996D01*
X436599Y372325D01*
X436660Y372653D01*
X436729Y372980D01*
X436807Y373305D01*
X436892Y373628D01*
X436985Y373948D01*
X437085Y374266D01*
X437194Y374582D01*
X437310Y374895D01*
X437434Y375205D01*
X437566Y375512D01*
X437705Y375815D01*
X437851Y376115D01*
X438005Y376411D01*
X438166Y376704D01*
X438334Y376992D01*
X438509Y377277D01*
X438691Y377556D01*
X438880Y377832D01*
X439076Y378102D01*
X439278Y378368D01*
X439486Y378628D01*
X439701Y378884D01*
X439922Y379134D01*
X440150Y379378D01*
X440383Y379617D01*
X440622Y379850D01*
X440866Y380078D01*
X441116Y380299D01*
X441372Y380514D01*
X441632Y380722D01*
X441898Y380924D01*
X442168Y381120D01*
X442444Y381309D01*
X442723Y381491D01*
X443008Y381666D01*
X443296Y381834D01*
X443589Y381995D01*
X443885Y382149D01*
X444185Y382295D01*
X444488Y382434D01*
X444795Y382566D01*
X445105Y382690D01*
X445418Y382806D01*
X445734Y382915D01*
X446052Y383015D01*
X446372Y383108D01*
X446695Y383193D01*
X447020Y383271D01*
X447347Y383340D01*
X447675Y383401D01*
X448004Y383454D01*
X448335Y383499D01*
X448667Y383536D01*
X448999Y383564D01*
X449333Y383585D01*
X449666Y383597D01*
X450000Y383601D01*
X450334Y383597D01*
X450667Y383585D01*
X451001Y383564D01*
X451333Y383536D01*
X451665Y383499D01*
X451996Y383454D01*
X452325Y383401D01*
X452653Y383340D01*
X452980Y383271D01*
X453305Y383193D01*
X453628Y383108D01*
X453948Y383015D01*
X454266Y382915D01*
X454582Y382806D01*
X454895Y382690D01*
X455205Y382566D01*
X455512Y382434D01*
X455815Y382295D01*
X456115Y382149D01*
X456411Y381995D01*
X456704Y381834D01*
X456992Y381666D01*
X457277Y381491D01*
X457556Y381309D01*
X457832Y381120D01*
X458102Y380924D01*
X458368Y380722D01*
X458628Y380514D01*
X458884Y380299D01*
X459134Y380078D01*
X459378Y379850D01*
X459617Y379617D01*
X459850Y379378D01*
X460078Y379134D01*
X460299Y378884D01*
X460514Y378628D01*
X460722Y378368D01*
X460924Y378102D01*
X461120Y377832D01*
X461309Y377556D01*
X461491Y377277D01*
X461666Y376992D01*
X461834Y376704D01*
X461995Y376411D01*
X462149Y376115D01*
X462295Y375815D01*
X462434Y375512D01*
X462566Y375205D01*
X462690Y374895D01*
X462806Y374582D01*
X462915Y374266D01*
X463015Y373948D01*
X463108Y373628D01*
X463193Y373305D01*
X463271Y372980D01*
X463340Y372653D01*
X463401Y372325D01*
X463454Y371996D01*
X463499Y371665D01*
X463536Y371333D01*
X463564Y371001D01*
X463585Y370667D01*
X463597Y370334D01*
X463601Y370000D01*
X463597Y369666D01*
X463585Y369333D01*
X463564Y368999D01*
X463536Y368667D01*
X463499Y368335D01*
X463454Y368004D01*
X463401Y367675D01*
X463340Y367347D01*
X463271Y367020D01*
X463193Y366695D01*
X463108Y366372D01*
X463015Y366052D01*
X462915Y365734D01*
X462806Y365418D01*
X462690Y365105D01*
X462566Y364795D01*
X462434Y364488D01*
X462295Y364185D01*
X462149Y363885D01*
X461995Y363589D01*
X461834Y363296D01*
X461666Y363008D01*
X461491Y362723D01*
X461309Y362444D01*
X461120Y362168D01*
X460924Y361898D01*
X460722Y361632D01*
X460514Y361372D01*
X460299Y361116D01*
X460078Y360866D01*
X459850Y360622D01*
X459617Y360383D01*
X459378Y360150D01*
X459134Y359922D01*
X458884Y359701D01*
X458628Y359486D01*
X458368Y359278D01*
X458102Y359076D01*
X457832Y358880D01*
X457556Y358691D01*
X457277Y358509D01*
X456992Y358334D01*
X456704Y358166D01*
X456411Y358005D01*
X456115Y357851D01*
X455815Y357705D01*
X455512Y357566D01*
X455205Y357434D01*
X454895Y357310D01*
X454582Y357194D01*
X454266Y357085D01*
X453948Y356985D01*
X453628Y356892D01*
X453305Y356807D01*
X452980Y356729D01*
X452653Y356660D01*
X452325Y356599D01*
X451996Y356546D01*
X451665Y356501D01*
X451333Y356464D01*
X451001Y356436D01*
X450667Y356415D01*
X450334Y356403D01*
X450000Y356399D01*
X449666Y356403D01*
X449333Y356415D01*
X448999Y356436D01*
X448667Y356464D01*
X448335Y356501D01*
X448004Y356546D01*
X447675Y356599D01*
X447347Y356660D01*
X447020Y356729D01*
X446695Y356807D01*
X446372Y356892D01*
X446052Y356985D01*
X445734Y357085D01*
X445418Y357194D01*
X445105Y357310D01*
X444795Y357434D01*
X444488Y357566D01*
X444185Y357705D01*
X443885Y357851D01*
X443589Y358005D01*
X443296Y358166D01*
X443008Y358334D01*
X442723Y358509D01*
X442444Y358691D01*
X442168Y358880D01*
X441898Y359076D01*
X441632Y359278D01*
X441372Y359486D01*
X441116Y359701D01*
X440866Y359922D01*
X440622Y360150D01*
X440383Y360383D01*
X440150Y360622D01*
X439922Y360866D01*
X439701Y361116D01*
X439486Y361372D01*
X439278Y361632D01*
X439076Y361898D01*
X438880Y362168D01*
X438691Y362444D01*
X438509Y362723D01*
X438334Y363008D01*
X438166Y363296D01*
X438005Y363589D01*
X437851Y363885D01*
X437705Y364185D01*
X437566Y364488D01*
X437434Y364795D01*
X437310Y365105D01*
X437194Y365418D01*
X437085Y365734D01*
X436985Y366052D01*
X436892Y366372D01*
X436807Y366695D01*
X436729Y367020D01*
X436660Y367347D01*
X436599Y367675D01*
X436546Y368004D01*
X436501Y368335D01*
X436464Y368667D01*
X436436Y368999D01*
X436415Y369333D01*
X436403Y369666D01*
X436399Y370000D01*
D10*
X84363Y326000D02*
X84434Y331783D01*
X84647Y337562D01*
X85001Y343335D01*
X85498Y349096D01*
X86135Y354844D01*
X86913Y360575D01*
X87832Y366285D01*
X88891Y371970D01*
X90088Y377628D01*
X91425Y383255D01*
X92899Y388847D01*
X94509Y394402D01*
X96256Y399915D01*
X98137Y405384D01*
X100152Y410805D01*
X102300Y416174D01*
X104578Y421490D01*
X106987Y426748D01*
X109523Y431945D01*
X112187Y437079D01*
X114975Y442145D01*
X117887Y447142D01*
X120921Y452065D01*
X124075Y456913D01*
X127347Y461682D01*
X130735Y466369D01*
X134236Y470971D01*
X137850Y475487D01*
X141574Y479912D01*
X145404Y484244D01*
X149341Y488481D01*
X153379Y492621D01*
X157519Y496659D01*
X161756Y500596D01*
X166088Y504426D01*
X170513Y508150D01*
X175029Y511764D01*
X179631Y515265D01*
X184318Y518653D01*
X189087Y521925D01*
X193935Y525079D01*
X198858Y528113D01*
X203855Y531025D01*
X208921Y533813D01*
X214055Y536477D01*
X219252Y539013D01*
X224510Y541422D01*
X229826Y543700D01*
X235195Y545848D01*
X240616Y547863D01*
X246085Y549744D01*
X251598Y551491D01*
X257153Y553101D01*
X262745Y554575D01*
X268372Y555912D01*
X274030Y557109D01*
X279715Y558168D01*
X285425Y559087D01*
X291156Y559865D01*
X296904Y560502D01*
X302665Y560999D01*
X308438Y561353D01*
X314217Y561566D01*
X320000Y561637D01*
X325783Y561566D01*
X331562Y561353D01*
X337335Y560999D01*
X343096Y560502D01*
X348844Y559865D01*
X354575Y559087D01*
X360285Y558168D01*
X365970Y557109D01*
X371628Y555912D01*
X377255Y554575D01*
X382847Y553101D01*
X388402Y551491D01*
X393915Y549744D01*
X399384Y547863D01*
X404805Y545848D01*
X410174Y543700D01*
X415490Y541422D01*
X420748Y539013D01*
X425945Y536477D01*
X431079Y533813D01*
X436145Y531025D01*
X441142Y528113D01*
X446065Y525079D01*
X450913Y521925D01*
X455682Y518653D01*
X460369Y515265D01*
X464971Y511764D01*
X469487Y508150D01*
X473912Y504426D01*
X478244Y500596D01*
X482481Y496659D01*
X486621Y492621D01*
X490659Y488481D01*
X494596Y484244D01*
X498426Y479912D01*
X502150Y475487D01*
X505764Y470971D01*
X509265Y466369D01*
X512653Y461682D01*
X515925Y456913D01*
X519079Y452065D01*
X522113Y447142D01*
X525025Y442145D01*
X527813Y437079D01*
X530477Y431945D01*
X533013Y426748D01*
X535422Y421490D01*
X537700Y416174D01*
X539848Y410805D01*
X541863Y405384D01*
X543744Y399915D01*
X545491Y394402D01*
X547101Y388847D01*
X548575Y383255D01*
X549912Y377628D01*
X551109Y371970D01*
X552168Y366285D01*
X553087Y360575D01*
X553865Y354844D01*
X554502Y349096D01*
X554999Y343335D01*
X555353Y337562D01*
X555566Y331783D01*
X555637Y326000D01*
X555566Y320217D01*
X555353Y314438D01*
X554999Y308665D01*
X554502Y302904D01*
X553865Y297156D01*
X553087Y291425D01*
X552168Y285715D01*
X551109Y280030D01*
X549912Y274372D01*
X548575Y268745D01*
X547101Y263153D01*
X545491Y257598D01*
X543744Y252085D01*
X541863Y246616D01*
X539848Y241195D01*
X537700Y235826D01*
X535422Y230510D01*
X533013Y225252D01*
X530477Y220055D01*
X527813Y214921D01*
X525025Y209855D01*
X522113Y204858D01*
X519079Y199935D01*
X515925Y195087D01*
X512653Y190318D01*
X509265Y185631D01*
X505764Y181029D01*
X502150Y176513D01*
X498426Y172088D01*
X494596Y167756D01*
X490659Y163519D01*
X486621Y159379D01*
X482481Y155341D01*
X478244Y151404D01*
X473912Y147574D01*
X469487Y143850D01*
X464971Y140236D01*
X460369Y136735D01*
X455682Y133347D01*
X450913Y130075D01*
X446065Y126921D01*
X441142Y123887D01*
X436145Y120975D01*
X431079Y118187D01*
X425945Y115523D01*
X420748Y112987D01*
X415490Y110578D01*
X410174Y108300D01*
X404805Y106152D01*
X399384Y104137D01*
X393915Y102256D01*
X388402Y100509D01*
X382847Y98899D01*
X377255Y97425D01*
X371628Y96088D01*
X365970Y94891D01*
X360285Y93832D01*
X354575Y92913D01*
X348844Y92135D01*
X343096Y91498D01*
X337335Y91001D01*
X331562Y90647D01*
X325783Y90434D01*
X320000Y90363D01*
X314217Y90434D01*
X308438Y90647D01*
X302665Y91001D01*
X296904Y91498D01*
X291156Y92135D01*
X285425Y92913D01*
X279715Y93832D01*
X274030Y94891D01*
X268372Y96088D01*
X262745Y97425D01*
X257153Y98899D01*
X251598Y100509D01*
X246085Y102256D01*
X240616Y104137D01*
X235195Y106152D01*
X229826Y108300D01*
X224510Y110578D01*
X219252Y112987D01*
X214055Y115523D01*
X208921Y118187D01*
X203855Y120975D01*
X198858Y123887D01*
X193935Y126921D01*
X189087Y130075D01*
X184318Y133347D01*
X179631Y136735D01*
X175029Y140236D01*
X170513Y143850D01*
X166088Y147574D01*
X161756Y151404D01*
X157519Y155341D01*
X153379Y159379D01*
X149341Y163519D01*
X145404Y167756D01*
X141574Y172088D01*
X137850Y176513D01*
X134236Y181029D01*
X130735Y185631D01*
X127347Y190318D01*
X124075Y195087D01*
X120921Y199935D01*
X117887Y204858D01*
X114975Y209855D01*
X112187Y214921D01*
X109523Y220055D01*
X106987Y225252D01*
X104578Y230510D01*
X102300Y235826D01*
X100152Y241195D01*
X98137Y246616D01*
X96256Y252085D01*
X94509Y257598D01*
X92899Y263153D01*
X91425Y268745D01*
X90088Y274372D01*
X88891Y280030D01*
X87832Y285715D01*
X86913Y291425D01*
X86135Y297156D01*
X85498Y302904D01*
X85001Y308665D01*
X84647Y314438D01*
X84434Y320217D01*
X84363Y326000D01*
X372000Y343000D02*
X372061Y344951D01*
X372170Y346899D01*
X372326Y348844D01*
X372530Y350785D01*
X372782Y352720D01*
X373081Y354649D01*
X373427Y356569D01*
X373820Y358481D01*
X374260Y360382D01*
X374747Y362272D01*
X375280Y364149D01*
X375859Y366013D01*
X376483Y367862D01*
X377153Y369695D01*
X377867Y371511D01*
X378626Y373309D01*
X379428Y375088D01*
X380274Y376847D01*
X381163Y378584D01*
X382094Y380299D01*
X383068Y381990D01*
X384082Y383658D01*
X385137Y385300D01*
X386232Y386915D01*
X387366Y388503D01*
X388539Y390063D01*
X389749Y391593D01*
X390997Y393094D01*
X392282Y394563D01*
X393602Y396000D01*
X394957Y397405D01*
X396346Y398776D01*
X397768Y400112D01*
X399223Y401413D01*
X400709Y402678D01*
X402225Y403906D01*
X403772Y405096D01*
X405347Y406248D01*
X406950Y407362D01*
X408579Y408435D01*
X410235Y409468D01*
X411915Y410460D01*
X413620Y411411D01*
X415347Y412320D01*
X417096Y413186D01*
X418865Y414008D01*
X420655Y414787D01*
X422463Y415522D01*
X424288Y416213D01*
X426130Y416858D01*
X427987Y417458D01*
X429858Y418012D01*
X431742Y418520D01*
X433638Y418982D01*
X435545Y419397D01*
X437462Y419765D01*
X439386Y420086D01*
X441319Y420359D01*
X443257Y420586D01*
X445200Y420764D01*
X447148Y420895D01*
X449097Y420978D01*
X451049Y421013D01*
X453000Y421000D01*
X454951Y420939D01*
X456899Y420830D01*
X458844Y420674D01*
X460785Y420470D01*
X462720Y420218D01*
X464649Y419919D01*
X466569Y419573D01*
X468481Y419180D01*
X470382Y418740D01*
X472272Y418253D01*
X474149Y417720D01*
X476013Y417141D01*
X477862Y416517D01*
X479695Y415847D01*
X481511Y415133D01*
X483309Y414374D01*
X485088Y413572D01*
X486847Y412726D01*
X488584Y411837D01*
X490299Y410906D01*
X491990Y409932D01*
X493658Y408918D01*
X495300Y407863D01*
X496915Y406768D01*
X498503Y405634D01*
X500063Y404461D01*
X501593Y403251D01*
X503094Y402003D01*
X504563Y400718D01*
X506000Y399398D01*
X507405Y398043D01*
X508776Y396654D01*
X510112Y395232D01*
X511413Y393777D01*
X512678Y392291D01*
X513906Y390775D01*
X515096Y389228D01*
X516248Y387653D01*
X517362Y386050D01*
X518435Y384421D01*
X519468Y382765D01*
X520460Y381085D01*
X521411Y379380D01*
X522320Y377653D01*
X523186Y375904D01*
X524008Y374135D01*
X524787Y372345D01*
X525522Y370537D01*
X526213Y368712D01*
X526858Y366870D01*
X527458Y365013D01*
X528012Y363142D01*
X528520Y361258D01*
X528982Y359362D01*
X529397Y357455D01*
X529765Y355538D01*
X530086Y353614D01*
X530359Y351681D01*
X530586Y349743D01*
X530764Y347800D01*
X530895Y345852D01*
X530978Y343903D01*
X531013Y341951D01*
X531000Y340000D01*
X340000Y343000D02*
X339957Y345496D01*
X339854Y347990D01*
X339690Y350481D01*
X339465Y352967D01*
X339180Y355447D01*
X338835Y357919D01*
X338429Y360382D01*
X337964Y362834D01*
X337439Y365275D01*
X336855Y367701D01*
X336211Y370113D01*
X335510Y372509D01*
X334750Y374887D01*
X333933Y377245D01*
X333058Y379583D01*
X332126Y381899D01*
X331139Y384192D01*
X330096Y386459D01*
X328998Y388701D01*
X327846Y390916D01*
X326640Y393101D01*
X325382Y395257D01*
X324071Y397381D01*
X322709Y399473D01*
X321296Y401531D01*
X319834Y403554D01*
X318323Y405541D01*
X316764Y407490D01*
X315157Y409401D01*
X313505Y411272D01*
X311808Y413103D01*
X310067Y414891D01*
X308283Y416637D01*
X306456Y418339D01*
X304589Y419995D01*
X302682Y421606D01*
X300736Y423170D01*
X298753Y424686D01*
X296734Y426153D01*
X294679Y427571D01*
X292591Y428938D01*
X290469Y430254D01*
X288317Y431517D01*
X286134Y432728D01*
X283923Y433886D01*
X281683Y434989D01*
X279418Y436038D01*
X277128Y437031D01*
X274814Y437968D01*
X272478Y438848D01*
X270122Y439671D01*
X267746Y440437D01*
X265352Y441144D01*
X262942Y441793D01*
X260516Y442383D01*
X258077Y442914D01*
X255626Y443386D01*
X253164Y443797D01*
X250693Y444148D01*
X248214Y444440D01*
X245728Y444670D01*
X243238Y444840D01*
X240744Y444950D01*
X238248Y444998D01*
X235752Y444986D01*
X233257Y444913D01*
X230764Y444779D01*
X228276Y444585D01*
X225792Y444330D01*
X223316Y444015D01*
X220848Y443639D01*
X218391Y443204D01*
X215944Y442709D01*
X213510Y442154D01*
X211091Y441540D01*
X208687Y440868D01*
X206300Y440137D01*
X203932Y439348D01*
X201583Y438502D01*
X199256Y437599D01*
X196952Y436640D01*
X194671Y435624D01*
X192416Y434554D01*
X190188Y433429D01*
X187988Y432250D01*
X185817Y431017D01*
X183677Y429733D01*
X181569Y428396D01*
X179494Y427009D01*
X177453Y425571D01*
X175448Y424084D01*
X173480Y422549D01*
X171549Y420966D01*
X169658Y419337D01*
X167807Y417662D01*
X165998Y415943D01*
X164230Y414180D01*
X162507Y412375D01*
X160827Y410528D01*
X159194Y408640D01*
X157606Y406714D01*
X156066Y404749D01*
X154575Y402748D01*
X153132Y400711D01*
X151740Y398639D01*
X150398Y396534D01*
X149108Y394397D01*
X147870Y392229D01*
X146686Y390032D01*
X145556Y387806D01*
X144480Y385554D01*
X143459Y383276D01*
X142494Y380974D01*
X141585Y378649D01*
X140733Y376303D01*
X139939Y373936D01*
X139202Y371551D01*
X138524Y369149D01*
X137904Y366731D01*
X137344Y364299D01*
X136843Y361853D01*
X136401Y359396D01*
X136020Y356929D01*
X135698Y354454D01*
X135438Y351971D01*
X135237Y349483D01*
X135097Y346991D01*
X135018Y344496D01*
X135000Y342000D01*
X128000Y298000D02*
X128000Y293025D01*
X128122Y288052D01*
X128365Y283083D01*
X128730Y278121D01*
X129217Y273170D01*
X129825Y268233D01*
X130553Y263311D01*
X131402Y258410D01*
X132371Y253530D01*
X133459Y248676D01*
X134666Y243849D01*
X135990Y239054D01*
X137432Y234293D01*
X138990Y229568D01*
X140663Y224883D01*
X142451Y220240D01*
X144351Y215643D01*
X146364Y211093D01*
X148488Y206594D01*
X150721Y202149D01*
X153063Y197760D01*
X155511Y193429D01*
X158065Y189160D01*
X160723Y184954D01*
X163483Y180815D01*
X166343Y176745D01*
X169302Y172746D01*
X172359Y168821D01*
X175511Y164972D01*
X178756Y161201D01*
X182092Y157511D01*
X185518Y153903D01*
X189032Y150381D01*
X192630Y146946D01*
X196312Y143600D01*
X200074Y140346D01*
X203916Y137184D01*
X207833Y134118D01*
X211824Y131148D01*
X215887Y128278D01*
X220020Y125507D01*
X224218Y122839D01*
X228481Y120274D01*
X232806Y117815D01*
X237189Y115462D01*
X241629Y113218D01*
X246122Y111083D01*
X250667Y109059D01*
X255259Y107146D01*
X259897Y105347D01*
X264578Y103662D01*
X269299Y102092D01*
X274057Y100638D01*
X278849Y99302D01*
X283672Y98083D01*
X288524Y96982D01*
X293401Y96001D01*
X298300Y95140D01*
X303220Y94399D01*
X308156Y93779D01*
X313106Y93280D01*
X318066Y92902D01*
X323035Y92646D01*
X328008Y92512D01*
X332982Y92500D01*
X337956Y92609D01*
X342926Y92841D01*
X347888Y93194D01*
X352840Y93669D01*
X357779Y94265D01*
X362702Y94981D01*
X367606Y95819D01*
X372488Y96776D01*
X377345Y97852D01*
X382174Y99047D01*
X386973Y100360D01*
X391738Y101790D01*
X396466Y103337D01*
X401155Y104999D01*
X405802Y106775D01*
X410404Y108665D01*
X414958Y110667D01*
X419462Y112780D01*
X423913Y115003D01*
X428308Y117334D01*
X432644Y119772D01*
X436920Y122315D01*
X441132Y124963D01*
X445277Y127713D01*
X449354Y130563D01*
X453360Y133513D01*
X457293Y136560D01*
X461150Y139703D01*
X464928Y142939D01*
X468626Y146266D01*
X472242Y149684D01*
X475772Y153189D01*
X479216Y156779D01*
X482571Y160452D01*
X485834Y164207D01*
X489005Y168041D01*
X492081Y171951D01*
X495060Y175935D01*
X497940Y179991D01*
X500721Y184117D01*
X503399Y188309D01*
X505974Y192566D01*
X508444Y196884D01*
X510807Y201262D01*
X513062Y205696D01*
X515208Y210185D01*
X517243Y214724D01*
X519166Y219312D01*
X520977Y223946D01*
X522673Y228623D01*
X524254Y233340D01*
X525719Y238094D01*
X527068Y242883D01*
X528298Y247703D01*
X529410Y252552D01*
X530403Y257427D01*
X531276Y262324D01*
X532029Y267242D01*
X532661Y272177D01*
X533172Y277125D01*
X533561Y282085D01*
X533829Y287052D01*
X533975Y292025D01*
X533999Y297000D01*
X543000Y312000D02*
X84000Y312000D01*
X83000Y307000D01*
X106000Y302000D02*
X106000Y257000D01*
X118000Y257000D01*
X118000Y210000D01*
X139000Y210000D01*
X139000Y193000D01*
X84000Y326000D02*
X548000Y326000D01*
X532001Y375000D02*
X530716Y380138D01*
X529306Y385243D01*
X527772Y390313D01*
X526115Y395343D01*
X524335Y400331D01*
X522433Y405275D01*
X520412Y410170D01*
X518271Y415015D01*
X516013Y419805D01*
X513638Y424539D01*
X511149Y429214D01*
X508545Y433827D01*
X505830Y438374D01*
X503005Y442854D01*
X500071Y447263D01*
X497030Y451599D01*
X493884Y455860D01*
X490635Y460043D01*
X487284Y464145D01*
X483835Y468164D01*
X480288Y472097D01*
X476646Y475942D01*
X472911Y479698D01*
X469086Y483361D01*
X465172Y486929D01*
X461172Y490401D01*
X457088Y493774D01*
X452924Y497046D01*
X448680Y500215D01*
X444361Y503280D01*
X439968Y506238D01*
X435503Y509088D01*
X430971Y511828D01*
X426373Y514457D01*
X421712Y516972D01*
X416991Y519373D01*
X412213Y521657D01*
X407380Y523824D01*
X402496Y525873D01*
X397563Y527801D01*
X392585Y529608D01*
X387563Y531294D01*
X382503Y532855D01*
X377405Y534293D01*
X372274Y535606D01*
X367113Y536793D01*
X361923Y537853D01*
X356710Y538787D01*
X351475Y539593D01*
X346222Y540270D01*
X340955Y540819D01*
X335675Y541239D01*
X330387Y541530D01*
X325093Y541692D01*
X319797Y541724D01*
X314501Y541627D01*
X309210Y541400D01*
X303925Y541044D01*
X298651Y540559D01*
X293390Y539946D01*
X288146Y539204D01*
X282922Y538334D01*
X277720Y537337D01*
X272545Y536212D01*
X267398Y534962D01*
X262283Y533586D01*
X257204Y532086D01*
X252163Y530462D01*
X247163Y528716D01*
X242207Y526847D01*
X237298Y524858D01*
X232439Y522750D01*
X227634Y520524D01*
X222884Y518181D01*
X218193Y515722D01*
X213563Y513150D01*
X208998Y510465D01*
X204499Y507670D01*
X200070Y504765D01*
X195714Y501753D01*
X191432Y498636D01*
X187228Y495415D01*
X183104Y492092D01*
X179062Y488669D01*
X175105Y485148D01*
X171235Y481532D01*
X167455Y477822D01*
X163767Y474022D01*
X160172Y470132D01*
X156674Y466155D01*
X153274Y462094D01*
X149974Y457951D01*
X146777Y453729D01*
X143683Y449430D01*
X140696Y445057D01*
X137816Y440612D01*
X135046Y436098D01*
X132387Y431517D01*
X129840Y426873D01*
X127408Y422168D01*
X125092Y417405D01*
X122892Y412587D01*
X120812Y407717D01*
X118850Y402797D01*
X117010Y397831D01*
X115291Y392821D01*
X113696Y387771D01*
X112224Y382683D01*
X110877Y377561D01*
X109655Y372407D01*
X108560Y367225D01*
X107592Y362018D01*
X106752Y356789D01*
X106039Y351541D01*
X105455Y346277D01*
X105000Y341000D01*
X117999Y344000D02*
X118849Y348952D01*
X119819Y353881D01*
X120909Y358786D01*
X122117Y363663D01*
X123444Y368509D01*
X124888Y373321D01*
X126449Y378097D01*
X128125Y382833D01*
X129916Y387527D01*
X131820Y392176D01*
X133837Y396778D01*
X135966Y401329D01*
X138204Y405827D01*
X140551Y410270D01*
X143005Y414654D01*
X145565Y418977D01*
X148229Y423237D01*
X150996Y427430D01*
X153865Y431555D01*
X156832Y435609D01*
X159898Y439590D01*
X163059Y443495D01*
X166314Y447322D01*
X169662Y451069D01*
X173099Y454733D01*
X176624Y458313D01*
X180236Y461806D01*
X183931Y465210D01*
X187708Y468523D01*
X191564Y471744D01*
X195498Y474869D01*
X199506Y477899D01*
X203587Y480830D01*
X207738Y483660D01*
X211956Y486389D01*
X216240Y489015D01*
X220586Y491536D01*
X224992Y493950D01*
X229455Y496257D01*
X233974Y498454D01*
X238544Y500541D01*
X243164Y502517D01*
X247830Y504379D01*
X252540Y506127D01*
X257291Y507761D01*
X262081Y509278D01*
X266906Y510678D01*
X271764Y511961D01*
X276651Y513126D01*
X281566Y514171D01*
X286504Y515096D01*
X291463Y515901D01*
X296441Y516585D01*
X301433Y517148D01*
X306438Y517590D01*
X311452Y517910D01*
X316472Y518107D01*
X321496Y518183D01*
X326520Y518137D01*
X331542Y517968D01*
X336557Y517677D01*
X341565Y517265D01*
X346560Y516731D01*
X351542Y516076D01*
X356506Y515299D01*
X361449Y514403D01*
X366369Y513386D01*
X371264Y512250D01*
X376129Y510996D01*
X380962Y509623D01*
X385760Y508134D01*
X390521Y506528D01*
X395241Y504807D01*
X399918Y502972D01*
X404549Y501023D01*
X409132Y498963D01*
X413663Y496792D01*
X418139Y494511D01*
X422559Y492122D01*
X426920Y489627D01*
X431219Y487026D01*
X435453Y484321D01*
X439620Y481515D01*
X443718Y478608D01*
X447744Y475602D01*
X451695Y472499D01*
X455570Y469301D01*
X459366Y466009D01*
X463081Y462627D01*
X466713Y459155D01*
X470259Y455596D01*
X473718Y451952D01*
X477087Y448224D01*
X480364Y444416D01*
X483548Y440529D01*
X486636Y436567D01*
X489628Y432530D01*
X492520Y428421D01*
X495311Y424244D01*
X498000Y420000D01*
X473000Y425000D02*
X469925Y428672D01*
X466761Y432268D01*
X463511Y435786D01*
X460175Y439223D01*
X456758Y442579D01*
X453259Y445850D01*
X449682Y449035D01*
X446028Y452132D01*
X442301Y455140D01*
X438501Y458055D01*
X434631Y460878D01*
X430694Y463605D01*
X426691Y466236D01*
X422626Y468768D01*
X418500Y471201D01*
X414316Y473532D01*
X410077Y475761D01*
X405785Y477887D01*
X401442Y479907D01*
X397051Y481821D01*
X392615Y483627D01*
X388137Y485325D01*
X383618Y486913D01*
X379062Y488391D01*
X374472Y489758D01*
X369849Y491013D01*
X365198Y492154D01*
X360520Y493182D01*
X355818Y494096D01*
X351096Y494895D01*
X346355Y495579D01*
X341599Y496148D01*
X336831Y496600D01*
X332054Y496937D01*
X327269Y497157D01*
X322480Y497260D01*
X317691Y497247D01*
X312903Y497117D01*
X308120Y496871D01*
X303344Y496509D01*
X298578Y496030D01*
X293826Y495435D01*
X289089Y494725D01*
X284371Y493900D01*
X279674Y492961D01*
X275002Y491907D01*
X270357Y490740D01*
X265741Y489460D01*
X261158Y488068D01*
X256611Y486565D01*
X252101Y484952D01*
X247632Y483230D01*
X243206Y481399D01*
X238826Y479461D01*
X234494Y477417D01*
X230214Y475268D01*
X225987Y473016D01*
X221816Y470662D01*
X217703Y468206D01*
X213652Y465652D01*
X209664Y462999D01*
X205742Y460250D01*
X201887Y457407D01*
X198103Y454470D01*
X194392Y451443D01*
X190756Y448325D01*
X187196Y445121D01*
X183716Y441830D01*
X180316Y438456D01*
X177000Y435000D01*
X218000Y453999D02*
X221587Y456276D01*
X225228Y458465D01*
X228920Y460566D01*
X232663Y462576D01*
X236453Y464495D01*
X240288Y466322D01*
X244166Y468056D01*
X248086Y469695D01*
X252043Y471239D01*
X256037Y472687D01*
X260065Y474038D01*
X264125Y475290D01*
X268213Y476444D01*
X272328Y477499D01*
X276468Y478454D01*
X280629Y479309D01*
X284810Y480062D01*
X289008Y480714D01*
X293220Y481265D01*
X297445Y481713D01*
X301679Y482059D01*
X305920Y482302D01*
X310166Y482442D01*
X314414Y482480D01*
X318662Y482415D01*
X322907Y482247D01*
X327147Y481977D01*
X331379Y481603D01*
X335600Y481128D01*
X339809Y480551D01*
X344003Y479872D01*
X348178Y479091D01*
X352334Y478210D01*
X356468Y477228D01*
X360576Y476147D01*
X364657Y474966D01*
X368708Y473688D01*
X372727Y472311D01*
X376712Y470838D01*
X380659Y469268D01*
X384568Y467604D01*
X388435Y465845D01*
X392259Y463994D01*
X396036Y462050D01*
X399766Y460015D01*
X403445Y457891D01*
X407071Y455679D01*
X410643Y453379D01*
X414158Y450993D01*
X417615Y448524D01*
X421011Y445971D01*
X424344Y443337D01*
X427612Y440622D01*
X430813Y437830D01*
X433946Y434961D01*
X437009Y432017D01*
X440000Y429000D01*
X359001Y335000D02*
X359368Y337596D01*
X359671Y340199D01*
X359911Y342810D01*
X360088Y345425D01*
X360201Y348044D01*
X360250Y350665D01*
X360235Y353286D01*
X360156Y355906D01*
X360014Y358524D01*
X359808Y361137D01*
X359538Y363744D01*
X359205Y366344D01*
X358808Y368936D01*
X358349Y371516D01*
X357827Y374085D01*
X357242Y376641D01*
X356596Y379181D01*
X355888Y381705D01*
X355118Y384211D01*
X354288Y386697D01*
X353398Y389163D01*
X352447Y391606D01*
X351438Y394025D01*
X350370Y396419D01*
X349244Y398786D01*
X348060Y401125D01*
X346820Y403434D01*
X345524Y405713D01*
X344173Y407959D01*
X342768Y410172D01*
X341309Y412350D01*
X339798Y414492D01*
X338235Y416596D01*
X336621Y418662D01*
X334957Y420687D01*
X333245Y422672D01*
X331484Y424614D01*
X329677Y426513D01*
X327824Y428367D01*
X325927Y430176D01*
X323986Y431938D01*
X322003Y433652D01*
X319978Y435317D01*
X317914Y436933D01*
X315811Y438498D01*
X313670Y440011D01*
X311494Y441471D01*
X309282Y442878D01*
X307037Y444231D01*
X304759Y445529D01*
X302451Y446771D01*
X300112Y447956D01*
X297746Y449084D01*
X295353Y450154D01*
X292935Y451165D01*
X290493Y452118D01*
X288028Y453010D01*
X285542Y453842D01*
X283037Y454614D01*
X280514Y455324D01*
X277974Y455972D01*
X275419Y456559D01*
X272851Y457083D01*
X270270Y457544D01*
X267679Y457943D01*
X265079Y458278D01*
X262472Y458550D01*
X259859Y458758D01*
X257242Y458903D01*
X254622Y458983D01*
X252000Y459000D01*
X285000Y471000D02*
X287464Y470641D01*
X289918Y470221D01*
X292361Y469742D01*
X294791Y469203D01*
X297208Y468605D01*
X299610Y467948D01*
X301994Y467232D01*
X304361Y466459D01*
X306708Y465628D01*
X309033Y464740D01*
X311337Y463795D01*
X313617Y462794D01*
X315871Y461738D01*
X318099Y460628D01*
X320300Y459463D01*
X322471Y458244D01*
X324612Y456973D01*
X326721Y455650D01*
X328797Y454276D01*
X330839Y452852D01*
X332845Y451378D01*
X334815Y449856D01*
X336748Y448286D01*
X338641Y446669D01*
X340494Y445007D01*
X342306Y443299D01*
X344076Y441548D01*
X345803Y439755D01*
X347485Y437919D01*
X349122Y436043D01*
X350712Y434128D01*
X352255Y432174D01*
X353750Y430183D01*
X355196Y428157D01*
X356592Y426095D01*
X357938Y424000D01*
X359231Y421873D01*
X360473Y419715D01*
X361661Y417527D01*
X362796Y415311D01*
X363876Y413068D01*
X364901Y410799D01*
X365870Y408506D01*
X366783Y406190D01*
X367639Y403852D01*
X368437Y401494D01*
X369178Y399117D01*
X369861Y396723D01*
X370484Y394312D01*
X371049Y391888D01*
X371555Y389450D01*
X372000Y387000D01*
X419000Y427000D02*
X419000Y434000D01*
X365000Y434000D01*
X365000Y449000D01*
X386000Y449000D01*
X386000Y462000D01*
X381000Y462000D01*
X336000Y462000D01*
X381000Y462000D02*
X381000Y409000D01*
X395000Y409000D01*
X395000Y420000D01*
X531000Y297000D02*
X530964Y292117D01*
X530810Y287236D01*
X530536Y282361D01*
X530144Y277493D01*
X529633Y272637D01*
X529004Y267795D01*
X528257Y262969D01*
X527392Y258163D01*
X526410Y253379D01*
X525312Y248621D01*
X524098Y243891D01*
X522769Y239193D01*
X521326Y234528D01*
X519769Y229899D01*
X518100Y225310D01*
X516320Y220763D01*
X514429Y216261D01*
X512429Y211806D01*
X510320Y207402D01*
X508105Y203050D01*
X505784Y198753D01*
X503359Y194515D01*
X500832Y190337D01*
X498203Y186221D01*
X495475Y182171D01*
X492648Y178189D01*
X489726Y174277D01*
X486709Y170438D01*
X483599Y166673D01*
X480398Y162985D01*
X477108Y159377D01*
X473731Y155850D01*
X470269Y152406D01*
X466723Y149048D01*
X463097Y145777D01*
X459393Y142596D01*
X455612Y139506D01*
X451756Y136509D01*
X447829Y133607D01*
X443832Y130802D01*
X439767Y128095D01*
X435638Y125488D01*
X431447Y122983D01*
X427195Y120581D01*
X422886Y118283D01*
X418523Y116091D01*
X414107Y114006D01*
X409642Y112029D01*
X405130Y110162D01*
X400573Y108406D01*
X395975Y106761D01*
X391339Y105229D01*
X386666Y103811D01*
X381960Y102507D01*
X377224Y101318D01*
X372460Y100245D01*
X367671Y99289D01*
X362861Y98450D01*
X358031Y97728D01*
X353186Y97124D01*
X348327Y96639D01*
X343457Y96273D01*
X338580Y96025D01*
X333699Y95897D01*
X328816Y95888D01*
X323934Y95997D01*
X319056Y96226D01*
X314185Y96574D01*
X309324Y97041D01*
X304476Y97626D01*
X299644Y98329D01*
X294830Y99150D01*
X290038Y100088D01*
X285270Y101143D01*
X280529Y102313D01*
X275819Y103600D01*
X271141Y105000D01*
X266498Y106514D01*
X261894Y108142D01*
X257331Y109881D01*
X252812Y111730D01*
X248339Y113690D01*
X243915Y115758D01*
X239543Y117933D01*
X235226Y120215D01*
X230965Y122601D01*
X226764Y125090D01*
X222625Y127681D01*
X218551Y130373D01*
X214543Y133162D01*
X210604Y136049D01*
X206738Y139031D01*
X202945Y142107D01*
X199228Y145274D01*
X195589Y148531D01*
X192032Y151876D01*
X188556Y155306D01*
X185166Y158821D01*
X181862Y162417D01*
X178647Y166092D01*
X175523Y169845D01*
X172491Y173673D01*
X169554Y177574D01*
X166712Y181545D01*
X163968Y185585D01*
X161324Y189690D01*
X158780Y193858D01*
X156340Y198088D01*
X154002Y202375D01*
X151771Y206719D01*
X149646Y211115D01*
X147628Y215562D01*
X145720Y220057D01*
X143922Y224597D01*
X142236Y229180D01*
X140662Y233802D01*
X139201Y238462D01*
X137854Y243156D01*
X136622Y247881D01*
X135506Y252635D01*
X134506Y257415D01*
X133623Y262217D01*
X132857Y267040D01*
X132209Y271880D01*
X131680Y276734D01*
X131269Y281600D01*
X130977Y286475D01*
X130804Y291355D01*
X130750Y296238D01*
X130815Y301121D01*
X131000Y306000D01*
D12*
X142000Y298000D02*
X265000Y298000D01*
X299000Y298000D01*
X446000Y298000D01*
X518000Y298000D01*
X519000Y296000D01*
X516000Y296000D01*
X145000Y296000D02*
X143000Y296000D01*
X383000Y339000D02*
X520000Y339000D01*
X520000Y340000D01*
X331000Y339000D02*
X146000Y339000D01*
D13*
X514000Y279000D02*
X518000Y295000D01*
X508000Y295000D02*
X504000Y279000D01*
X494000Y279000D02*
X498000Y295000D01*
X488000Y295000D02*
X484000Y279000D01*
X474000Y279000D02*
X478000Y295000D01*
X468000Y295000D02*
X464000Y279000D01*
X454000Y279000D02*
X458000Y295000D01*
X448000Y295000D02*
X444000Y279000D01*
X408000Y295000D02*
X404000Y279000D01*
X394000Y279000D02*
X398000Y295000D01*
X388000Y295000D02*
X384000Y279000D01*
X374000Y279000D02*
X378000Y295000D01*
X368000Y295000D02*
X364000Y279000D01*
X354000Y279000D02*
X358000Y295000D01*
X348000Y295000D02*
X344000Y279000D01*
X334000Y279000D02*
X338000Y295000D01*
X328000Y295000D02*
X324000Y279000D01*
X314000Y279000D02*
X318000Y295000D01*
X308000Y295000D02*
X304000Y279000D01*
X294000Y279000D02*
X298000Y295000D01*
X268000Y295000D02*
X264000Y279000D01*
X254000Y279000D02*
X258000Y295000D01*
X248000Y295000D02*
X244000Y279000D01*
X234000Y279000D02*
X238000Y295000D01*
X228000Y295000D02*
X224000Y279000D01*
X214000Y279000D02*
X218000Y295000D01*
X208000Y295000D02*
X204000Y279000D01*
X194000Y279000D02*
X198000Y295000D01*
X188000Y295000D02*
X184000Y279000D01*
X174000Y279000D02*
X178000Y295000D01*
X168000Y295000D02*
X164000Y279000D01*
X154000Y279000D02*
X158000Y295000D01*
X512000Y295000D02*
X514000Y279000D01*
X504000Y279000D02*
X502000Y295000D01*
X492000Y295000D02*
X494000Y279000D01*
X484000Y279000D02*
X482000Y295000D01*
X472000Y295000D02*
X474000Y279000D01*
X464000Y279000D02*
X462000Y295000D01*
X452000Y295000D02*
X454000Y279000D01*
X444000Y279000D02*
X442000Y295000D01*
X422000Y295000D02*
X424000Y279000D01*
X404000Y279000D02*
X402000Y295000D01*
X392000Y295000D02*
X394000Y279000D01*
X384000Y279000D02*
X382000Y295000D01*
X372000Y295000D02*
X374000Y279000D01*
X364000Y279000D02*
X362000Y295000D01*
X352000Y295000D02*
X354000Y279000D01*
X344000Y279000D02*
X342000Y295000D01*
X332000Y295000D02*
X334000Y279000D01*
X324000Y279000D02*
X322000Y295000D01*
X312000Y295000D02*
X314000Y279000D01*
X304000Y279000D02*
X302000Y295000D01*
X292000Y295000D02*
X294000Y279000D01*
X264000Y279000D02*
X262000Y295000D01*
X252000Y295000D02*
X254000Y279000D01*
X244000Y279000D02*
X242000Y295000D01*
X232000Y295000D02*
X234000Y279000D01*
X224000Y279000D02*
X222000Y295000D01*
X212000Y295000D02*
X214000Y279000D01*
X204000Y279000D02*
X202000Y295000D01*
X192000Y295000D02*
X194000Y279000D01*
X184000Y279000D02*
X182000Y295000D01*
X172000Y295000D02*
X174000Y279000D01*
X164000Y279000D02*
X162000Y295000D01*
X152000Y295000D02*
X154000Y279000D01*
D12*
X514400Y283800D02*
X516500Y294200D01*
X506500Y294200D02*
X504400Y283800D01*
X494400Y283800D02*
X496500Y294200D01*
X486500Y294200D02*
X484400Y283800D01*
X474400Y283800D02*
X476500Y294200D01*
X466500Y294200D02*
X464400Y283800D01*
X454400Y283800D02*
X456500Y294200D01*
X446500Y294200D02*
X444400Y283800D01*
X406500Y294200D02*
X404400Y283800D01*
X394400Y283800D02*
X396500Y294200D01*
X386500Y294200D02*
X384400Y283800D01*
X374400Y283800D02*
X376500Y294200D01*
X366500Y294200D02*
X364400Y283800D01*
X354400Y283800D02*
X356500Y294200D01*
X346500Y294200D02*
X344400Y283800D01*
X334400Y283800D02*
X336500Y294200D01*
X326500Y294200D02*
X324400Y283800D01*
X314400Y283800D02*
X316500Y294200D01*
X306500Y294200D02*
X304400Y283800D01*
X294400Y283800D02*
X296500Y294200D01*
X266500Y294200D02*
X264400Y283800D01*
X254400Y283800D02*
X256500Y294200D01*
X246500Y294200D02*
X244400Y283800D01*
X234400Y283800D02*
X236500Y294200D01*
X226500Y294200D02*
X224400Y283800D01*
X214400Y283800D02*
X216500Y294200D01*
X206500Y294200D02*
X204400Y283800D01*
X194400Y283800D02*
X196500Y294200D01*
X186500Y294200D02*
X184400Y283800D01*
X174400Y283800D02*
X176500Y294200D01*
X166500Y294200D02*
X164400Y283800D01*
X154400Y283800D02*
X156500Y294200D01*
D13*
X412000Y185000D02*
X414557Y188242D01*
X417036Y191545D01*
X419434Y194907D01*
X421750Y198326D01*
X423983Y201799D01*
X426131Y205326D01*
X428194Y208903D01*
X430169Y212529D01*
X432057Y216202D01*
X433855Y219919D01*
X435563Y223679D01*
X437180Y227479D01*
X438704Y231317D01*
X440135Y235190D01*
X441473Y239097D01*
X442716Y243035D01*
X443863Y247002D01*
X444914Y250995D01*
X445869Y255013D01*
X446726Y259052D01*
X447485Y263111D01*
X448147Y267187D01*
X448709Y271278D01*
X449173Y275381D01*
X449537Y279495D01*
X449802Y283615D01*
X449968Y287742D01*
X450034Y291870D01*
X450000Y296000D01*
X415000Y296000D02*
X416159Y291644D01*
X417214Y287260D01*
X418164Y282853D01*
X419008Y278424D01*
X419746Y273977D01*
X420377Y269513D01*
X420901Y265035D01*
X421318Y260546D01*
X421628Y256048D01*
X421830Y251544D01*
X421924Y247037D01*
X421910Y242528D01*
X421788Y238021D01*
X421558Y233519D01*
X421221Y229023D01*
X420776Y224537D01*
X420224Y220062D01*
X419565Y215602D01*
X418800Y211159D01*
X417929Y206736D01*
X416952Y202334D01*
X415870Y197958D01*
X414683Y193608D01*
X413393Y189288D01*
X412000Y185000D01*
X300000Y184000D02*
X298666Y188626D01*
X297443Y193282D01*
X296329Y197966D01*
X295327Y202675D01*
X294436Y207406D01*
X293658Y212157D01*
X292992Y216926D01*
X292438Y221708D01*
X291998Y226502D01*
X291672Y231306D01*
X291459Y236115D01*
X291360Y240929D01*
X291375Y245743D01*
X291503Y250556D01*
X291745Y255364D01*
X292101Y260165D01*
X292570Y264957D01*
X293153Y269736D01*
X293848Y274500D01*
X294655Y279246D01*
X295575Y283972D01*
X296606Y288674D01*
X297748Y293351D01*
X299000Y298000D01*
X259000Y297000D02*
X259626Y291205D01*
X260389Y285426D01*
X261290Y279667D01*
X262328Y273931D01*
X263501Y268221D01*
X264810Y262540D01*
X266253Y256893D01*
X267830Y251281D01*
X269540Y245708D01*
X271382Y240178D01*
X273354Y234693D01*
X275457Y229256D01*
X277688Y223871D01*
X280046Y218540D01*
X282531Y213267D01*
X285140Y208054D01*
X287872Y202905D01*
X290726Y197822D01*
X293699Y192808D01*
X296791Y187867D01*
X300000Y183000D01*
D14*
X423999Y212000D02*
X426126Y216206D01*
X428150Y220463D01*
X430071Y224767D01*
X431887Y229116D01*
X433597Y233508D01*
X435201Y237941D01*
X436697Y242410D01*
X438084Y246915D01*
X439363Y251451D01*
X440531Y256017D01*
X441588Y260611D01*
X442534Y265228D01*
X443368Y269867D01*
X444090Y274525D01*
X444699Y279198D01*
X445194Y283886D01*
X445576Y288583D01*
X445845Y293289D01*
X445999Y298000D01*
X417000Y303000D02*
X418349Y299119D01*
X419605Y295206D01*
X420766Y291265D01*
X421831Y287296D01*
X422801Y283303D01*
X423675Y279288D01*
X424451Y275253D01*
X425130Y271201D01*
X425712Y267133D01*
X426195Y263053D01*
X426580Y258962D01*
X426867Y254863D01*
X427054Y250758D01*
X427143Y246650D01*
X427133Y242541D01*
X427024Y238433D01*
X426816Y234329D01*
X426510Y230232D01*
X426105Y226143D01*
X425601Y222065D01*
X425000Y218000D01*
X289000Y212000D02*
X288275Y216622D01*
X287660Y221259D01*
X287153Y225909D01*
X286757Y230571D01*
X286471Y235240D01*
X286295Y239915D01*
X286229Y244592D01*
X286274Y249270D01*
X286429Y253945D01*
X286695Y258616D01*
X287070Y263279D01*
X287556Y267932D01*
X288151Y272572D01*
X288855Y277196D01*
X289668Y281803D01*
X290590Y286389D01*
X291619Y290953D01*
X292756Y295490D01*
X294000Y300000D01*
X265001Y298000D02*
X265330Y293011D01*
X265779Y288031D01*
X266349Y283064D01*
X267040Y278112D01*
X267851Y273178D01*
X268781Y268265D01*
X269831Y263377D01*
X270998Y258515D01*
X272284Y253683D01*
X273686Y248884D01*
X275205Y244120D01*
X276838Y239395D01*
X278586Y234710D01*
X280447Y230070D01*
X282420Y225476D01*
X284505Y220931D01*
X286699Y216438D01*
X289001Y212000D01*
D11*
X414000Y189000D02*
X427000Y209000D01*
X415000Y193000D01*
X421000Y210000D01*
X419000Y210000D01*
X418000Y205000D01*
X422000Y208000D01*
X424000Y207000D01*
X418000Y199000D01*
X422000Y207000D01*
X299000Y186000D02*
X286000Y209000D01*
X293000Y209000D01*
X297000Y191000D01*
X289000Y207000D01*
X291000Y207000D01*
X292000Y207000D01*
X294000Y199000D01*
X291000Y207000D01*
M02*
