G04 EAGLE Gerber RS-274X export*
G75*
%MOMM*%
%FSLAX34Y34*%
%LPD*%
%INSoldermask Top*%
%IPPOS*%
%AMOC8*
5,1,8,0,0,1.08239X$1,22.5*%
G01*
%ADD10C,3.103200*%
%ADD11C,1.727200*%
%ADD12C,1.711200*%
%ADD13C,0.959600*%


D10*
X40000Y601000D03*
X580000Y601000D03*
X30000Y31000D03*
X590000Y31000D03*
D11*
X546100Y207680D02*
X546100Y222920D01*
X520700Y222920D02*
X520700Y207680D01*
X495300Y207680D02*
X495300Y222920D01*
X469900Y222920D02*
X469900Y207680D01*
X444500Y207680D02*
X444500Y222920D01*
X419100Y222920D02*
X419100Y207680D01*
X393700Y207680D02*
X393700Y222920D01*
X368300Y222920D02*
X368300Y207680D01*
X342900Y207680D02*
X342900Y222920D01*
X317500Y222920D02*
X317500Y207680D01*
X292100Y207680D02*
X292100Y222920D01*
X266700Y222920D02*
X266700Y207680D01*
X241300Y207680D02*
X241300Y222920D01*
X215900Y222920D02*
X215900Y207680D01*
X190500Y207680D02*
X190500Y222920D01*
X165100Y222920D02*
X165100Y207680D01*
X139700Y207680D02*
X139700Y222920D01*
X114300Y222920D02*
X114300Y207680D01*
X88900Y207680D02*
X88900Y222920D01*
X63500Y222920D02*
X63500Y207680D01*
D12*
X241300Y550580D03*
X241300Y525180D03*
X241300Y499780D03*
X241300Y474380D03*
X241300Y448980D03*
X241300Y423580D03*
X241300Y398180D03*
X241300Y372780D03*
X241300Y347380D03*
X241300Y321980D03*
X241300Y296580D03*
X368300Y296580D03*
X368300Y321980D03*
X368300Y347380D03*
X368300Y372780D03*
X368300Y398180D03*
X368300Y423580D03*
X368300Y448980D03*
X368300Y474380D03*
X368300Y499780D03*
X368300Y525180D03*
X368300Y550580D03*
X241300Y272450D03*
X266700Y272450D03*
X292100Y272450D03*
X317500Y272450D03*
X342900Y272450D03*
X368300Y272450D03*
D13*
X393700Y437550D03*
X317500Y329600D03*
X495300Y545500D03*
X469900Y418500D03*
X444500Y469300D03*
X419100Y520100D03*
X546100Y291500D03*
X520700Y285150D03*
X304800Y316900D03*
X279400Y347380D03*
X190500Y469300D03*
X165100Y494700D03*
X304800Y355000D03*
X304800Y570900D03*
X317500Y380400D03*
X317500Y583600D03*
X330200Y405800D03*
X330200Y596300D03*
X342900Y456600D03*
X342900Y609000D03*
X270000Y461000D03*
X90000Y561000D03*
X550000Y471000D03*
X40000Y91000D03*
X310000Y81000D03*
X570000Y81000D03*
M02*
