M48
;GenerationSoftware,Autodesk,EAGLE,9.3.0*%
;CreationDate,2019-06-22T04:31:52Z*%
FMAT,2
ICI,OFF
METRIC,TZ,000.000
T4C0.350
T3C1.000
T2C1.016
T1C2.900
%
G90
M71
T1
X4000Y60100
X58000Y60100
X3000Y3100
X59000Y3100
T2
X26670Y21530
X29210Y21530
X54610Y21530
X52070Y21530
X49530Y21530
X31750Y21530
X46990Y21530
X44450Y21530
X41910Y21530
X39370Y21530
X36830Y21530
X34290Y21530
X6350Y21530
X8890Y21530
X11430Y21530
X13970Y21530
X16510Y21530
X19050Y21530
X21590Y21530
X24130Y21530
T3
X36830Y32198
X36830Y34738
X36830Y37278
X36830Y39818
X36830Y42358
X36830Y44898
X36830Y49978
X36830Y52518
X36830Y55058
X24130Y27245
X26670Y27245
X29210Y27245
X31750Y27245
X34290Y27245
X36830Y27245
X36830Y47438
X24130Y55058
X24130Y52518
X24130Y49978
X24130Y47438
X24130Y44898
X24130Y42358
X24130Y39818
X24130Y37278
X24130Y34738
X24130Y32198
X24130Y29658
X36830Y29658
T4
X39370Y43755
X31750Y32960
X49530Y54550
X46990Y41850
X44450Y46930
X41910Y52010
X54610Y29150
X52070Y28515
X30480Y31690
X19050Y46930
X16510Y49470
X30480Y35500
X30480Y57090
X31750Y38040
X31750Y58360
X34290Y45660
X27940Y34738
X33020Y59630
X33020Y40580
X57000Y8100
X31000Y8100
X4000Y9100
X55000Y47100
X9000Y56100
X27000Y46100
X34290Y60900
M30