M48
;GenerationSoftware,Autodesk,EAGLE,9.3.0*%
;CreationDate,2019-07-01T17:31:57Z*%
FMAT,2
ICI,OFF
METRIC,TZ,000.000
T9C0.350
T8C0.700
T7C0.950
T6C1.000
T5C1.016
T4C1.118
T3C2.300
T2C2.900
T1C3.810
%
G90
M71
T1
X-34036Y72390
T2
X-5000Y95000
X-95000Y75000
X-35000Y35000
X-95000Y34000
T3
X-10160Y42130
X-10160Y28990
T4
X-47752Y62738
X-47752Y72898
X-13970Y16510
X-24130Y16510
T5
X-11430Y11430
X-11430Y8890
X-11430Y6350
X-11430Y3810
X-11430Y24130
X-15240Y69850
X-15240Y72390
X-15240Y74930
X-11430Y67310
X-11430Y64770
X-11430Y62230
X-11430Y57150
X-11430Y80010
X-11430Y82550
X-100584Y40640
X-11430Y54610
X-11430Y52070
X-11430Y72390
X-11430Y74930
X-11430Y21590
X-11430Y19050
X-11430Y16510
X-11430Y13970
X-11430Y49530
X-11430Y46990
X-100584Y35560
X-100584Y38100
X-100584Y43180
T6
X-65380Y19050
X-77216Y64770
X-77216Y62230
X-77216Y59690
X-77216Y54610
X-77216Y52070
X-87376Y52070
X-87376Y54610
X-87376Y57150
X-87376Y59690
X-87376Y62230
X-87376Y64770
X-32512Y60198
X-35052Y60198
X-37592Y60198
X-40132Y60198
X-42672Y60198
X-45212Y60198
X-47752Y60198
X-50292Y60198
X-52832Y60198
X-55372Y60198
X-57912Y60198
X-60452Y60198
X-62992Y60198
X-65532Y60198
X-65532Y57658
X-65532Y55118
X-65532Y50038
X-65532Y47498
X-65532Y44958
X-62992Y44958
X-60452Y44958
X-57912Y44958
X-55372Y44958
X-52832Y44958
X-50292Y44958
X-47752Y44958
X-45212Y44958
X-42672Y44958
X-40132Y44958
X-37592Y44958
X-35052Y44958
X-32512Y44958
X-65532Y52578
X-35318Y91360
X-35318Y81360
X-100318Y91360
X-100318Y81360
X-31508Y91360
X-31508Y81360
X-96508Y91360
X-96508Y81360
X-90170Y20320
X-90170Y17780
X-90170Y15240
X-90170Y12700
X-72390Y22860
X-72390Y20320
X-72390Y17780
X-72390Y15240
X-72390Y12700
X-72390Y10160
X-77216Y57150
X-103632Y48260
X-103632Y50800
X-103632Y53340
X-103632Y55880
X-103632Y58420
X-103632Y60960
X-103632Y63500
X-103632Y66040
X-103632Y68580
X-44704Y6350
X-44704Y8890
X-44704Y11430
X-44704Y13970
X-44704Y16510
X-44704Y19050
X-44704Y21590
X-44704Y24130
X-109474Y5080
X-109474Y7620
X-109474Y10160
X-109474Y12700
X-109474Y15240
X-109474Y17780
X-109474Y20320
X-109474Y22860
X-109474Y25400
X-109474Y27940
X-65380Y3810
X-65380Y6350
X-65380Y8890
X-65380Y11430
X-65380Y13970
X-65380Y16510
T7
X-12870Y32060
X-12870Y39060
X-12870Y34560
X-12870Y36560
T8
X-16510Y80030
X-16510Y82530
T9
X-6000Y89000
X-35000Y87000
X-53000Y64000
X-41000Y34000
X-99000Y9000
X-72000Y43000
X-95000Y63000
X-104000Y88000
X-60452Y51562
X-28702Y51562
X-28702Y28702
X-14732Y28702
X-63500Y28702
X-57912Y52578
X-27686Y52578
X-27686Y27178
X-62484Y27432
X-27686Y35306
X-62992Y32766
X-27686Y16510
X-60452Y33782
X-52324Y33782
X-52324Y19050
X-28702Y17526
X-65532Y31750
X-49530Y31750
X-63246Y50546
X-29718Y50546
X-45000Y49000
X-42672Y57658
X-22606Y57658
X-22606Y30734
X-45212Y56642
X-23622Y56642
X-23622Y29718
X-54864Y29718
X-55372Y8128
X-21590Y58674
X-20574Y34036
X-17145Y39497
X-78740Y35814
X-81026Y39370
X-21590Y78740
X-88392Y22860
X-79756Y40640
X-27940Y84836
X-4000Y8000
X-36000Y22000
X-82296Y38354
X-15494Y38354
X-52832Y35814
X-50800Y32766
X-4000Y59000
X-29718Y10414
X-24638Y55626
X-50292Y55626
X-25654Y54610
X-52832Y54610
X-26670Y13716
X-26670Y53594
X-55372Y53594
X-24638Y19050
M30