G04 EAGLE Gerber RS-274X export*
G75*
%MOMM*%
%FSLAX34Y34*%
%LPD*%
%IN*%
%IPPOS*%
%AMOC8*
5,1,8,0,0,1.08239X$1,22.5*%
G01*
%ADD10C,0.254000*%


D10*
X0Y0D02*
X1140000Y0D01*
X1140000Y1000000D01*
X0Y1000000D01*
X0Y0D01*
X64500Y949482D02*
X64426Y948449D01*
X64279Y947424D01*
X64059Y946412D01*
X63767Y945418D01*
X63405Y944448D01*
X62975Y943505D01*
X62478Y942596D01*
X61918Y941725D01*
X61298Y940896D01*
X60619Y940113D01*
X59887Y939381D01*
X59104Y938703D01*
X58275Y938082D01*
X57404Y937522D01*
X56495Y937025D01*
X55552Y936595D01*
X54582Y936233D01*
X53588Y935941D01*
X52576Y935721D01*
X51551Y935574D01*
X50518Y935500D01*
X49482Y935500D01*
X48449Y935574D01*
X47424Y935721D01*
X46412Y935941D01*
X45418Y936233D01*
X44448Y936595D01*
X43505Y937025D01*
X42596Y937522D01*
X41725Y938082D01*
X40896Y938703D01*
X40113Y939381D01*
X39381Y940113D01*
X38703Y940896D01*
X38082Y941725D01*
X37522Y942596D01*
X37025Y943505D01*
X36595Y944448D01*
X36233Y945418D01*
X35941Y946412D01*
X35721Y947424D01*
X35574Y948449D01*
X35500Y949482D01*
X35500Y950518D01*
X35574Y951551D01*
X35721Y952576D01*
X35941Y953588D01*
X36233Y954582D01*
X36595Y955552D01*
X37025Y956495D01*
X37522Y957404D01*
X38082Y958275D01*
X38703Y959104D01*
X39381Y959887D01*
X40113Y960619D01*
X40896Y961298D01*
X41725Y961918D01*
X42596Y962478D01*
X43505Y962975D01*
X44448Y963405D01*
X45418Y963767D01*
X46412Y964059D01*
X47424Y964279D01*
X48449Y964426D01*
X49482Y964500D01*
X50518Y964500D01*
X51551Y964426D01*
X52576Y964279D01*
X53588Y964059D01*
X54582Y963767D01*
X55552Y963405D01*
X56495Y962975D01*
X57404Y962478D01*
X58275Y961918D01*
X59104Y961298D01*
X59887Y960619D01*
X60619Y959887D01*
X61298Y959104D01*
X61918Y958275D01*
X62478Y957404D01*
X62975Y956495D01*
X63405Y955552D01*
X63767Y954582D01*
X64059Y953588D01*
X64279Y952576D01*
X64426Y951551D01*
X64500Y950518D01*
X64500Y949482D01*
X964500Y749482D02*
X964426Y748449D01*
X964279Y747424D01*
X964059Y746412D01*
X963767Y745418D01*
X963405Y744448D01*
X962975Y743505D01*
X962478Y742596D01*
X961918Y741725D01*
X961298Y740896D01*
X960619Y740113D01*
X959887Y739381D01*
X959104Y738703D01*
X958275Y738082D01*
X957404Y737522D01*
X956495Y737025D01*
X955552Y736595D01*
X954582Y736233D01*
X953588Y735941D01*
X952576Y735721D01*
X951551Y735574D01*
X950518Y735500D01*
X949482Y735500D01*
X948449Y735574D01*
X947424Y735721D01*
X946412Y735941D01*
X945418Y736233D01*
X944448Y736595D01*
X943505Y737025D01*
X942596Y737522D01*
X941725Y738082D01*
X940896Y738703D01*
X940113Y739381D01*
X939381Y740113D01*
X938703Y740896D01*
X938082Y741725D01*
X937522Y742596D01*
X937025Y743505D01*
X936595Y744448D01*
X936233Y745418D01*
X935941Y746412D01*
X935721Y747424D01*
X935574Y748449D01*
X935500Y749482D01*
X935500Y750518D01*
X935574Y751551D01*
X935721Y752576D01*
X935941Y753588D01*
X936233Y754582D01*
X936595Y755552D01*
X937025Y756495D01*
X937522Y757404D01*
X938082Y758275D01*
X938703Y759104D01*
X939381Y759887D01*
X940113Y760619D01*
X940896Y761298D01*
X941725Y761918D01*
X942596Y762478D01*
X943505Y762975D01*
X944448Y763405D01*
X945418Y763767D01*
X946412Y764059D01*
X947424Y764279D01*
X948449Y764426D01*
X949482Y764500D01*
X950518Y764500D01*
X951551Y764426D01*
X952576Y764279D01*
X953588Y764059D01*
X954582Y763767D01*
X955552Y763405D01*
X956495Y762975D01*
X957404Y762478D01*
X958275Y761918D01*
X959104Y761298D01*
X959887Y760619D01*
X960619Y759887D01*
X961298Y759104D01*
X961918Y758275D01*
X962478Y757404D01*
X962975Y756495D01*
X963405Y755552D01*
X963767Y754582D01*
X964059Y753588D01*
X964279Y752576D01*
X964426Y751551D01*
X964500Y750518D01*
X964500Y749482D01*
X364500Y349482D02*
X364426Y348449D01*
X364279Y347424D01*
X364059Y346412D01*
X363767Y345418D01*
X363405Y344448D01*
X362975Y343505D01*
X362478Y342596D01*
X361918Y341725D01*
X361298Y340896D01*
X360619Y340113D01*
X359887Y339381D01*
X359104Y338703D01*
X358275Y338082D01*
X357404Y337522D01*
X356495Y337025D01*
X355552Y336595D01*
X354582Y336233D01*
X353588Y335941D01*
X352576Y335721D01*
X351551Y335574D01*
X350518Y335500D01*
X349482Y335500D01*
X348449Y335574D01*
X347424Y335721D01*
X346412Y335941D01*
X345418Y336233D01*
X344448Y336595D01*
X343505Y337025D01*
X342596Y337522D01*
X341725Y338082D01*
X340896Y338703D01*
X340113Y339381D01*
X339381Y340113D01*
X338703Y340896D01*
X338082Y341725D01*
X337522Y342596D01*
X337025Y343505D01*
X336595Y344448D01*
X336233Y345418D01*
X335941Y346412D01*
X335721Y347424D01*
X335574Y348449D01*
X335500Y349482D01*
X335500Y350518D01*
X335574Y351551D01*
X335721Y352576D01*
X335941Y353588D01*
X336233Y354582D01*
X336595Y355552D01*
X337025Y356495D01*
X337522Y357404D01*
X338082Y358275D01*
X338703Y359104D01*
X339381Y359887D01*
X340113Y360619D01*
X340896Y361298D01*
X341725Y361918D01*
X342596Y362478D01*
X343505Y362975D01*
X344448Y363405D01*
X345418Y363767D01*
X346412Y364059D01*
X347424Y364279D01*
X348449Y364426D01*
X349482Y364500D01*
X350518Y364500D01*
X351551Y364426D01*
X352576Y364279D01*
X353588Y364059D01*
X354582Y363767D01*
X355552Y363405D01*
X356495Y362975D01*
X357404Y362478D01*
X358275Y361918D01*
X359104Y361298D01*
X359887Y360619D01*
X360619Y359887D01*
X361298Y359104D01*
X361918Y358275D01*
X362478Y357404D01*
X362975Y356495D01*
X363405Y355552D01*
X363767Y354582D01*
X364059Y353588D01*
X364279Y352576D01*
X364426Y351551D01*
X364500Y350518D01*
X364500Y349482D01*
X964500Y339482D02*
X964426Y338449D01*
X964279Y337424D01*
X964059Y336412D01*
X963767Y335418D01*
X963405Y334448D01*
X962975Y333505D01*
X962478Y332596D01*
X961918Y331725D01*
X961298Y330896D01*
X960619Y330113D01*
X959887Y329381D01*
X959104Y328703D01*
X958275Y328082D01*
X957404Y327522D01*
X956495Y327025D01*
X955552Y326595D01*
X954582Y326233D01*
X953588Y325941D01*
X952576Y325721D01*
X951551Y325574D01*
X950518Y325500D01*
X949482Y325500D01*
X948449Y325574D01*
X947424Y325721D01*
X946412Y325941D01*
X945418Y326233D01*
X944448Y326595D01*
X943505Y327025D01*
X942596Y327522D01*
X941725Y328082D01*
X940896Y328703D01*
X940113Y329381D01*
X939381Y330113D01*
X938703Y330896D01*
X938082Y331725D01*
X937522Y332596D01*
X937025Y333505D01*
X936595Y334448D01*
X936233Y335418D01*
X935941Y336412D01*
X935721Y337424D01*
X935574Y338449D01*
X935500Y339482D01*
X935500Y340518D01*
X935574Y341551D01*
X935721Y342576D01*
X935941Y343588D01*
X936233Y344582D01*
X936595Y345552D01*
X937025Y346495D01*
X937522Y347404D01*
X938082Y348275D01*
X938703Y349104D01*
X939381Y349887D01*
X940113Y350619D01*
X940896Y351298D01*
X941725Y351918D01*
X942596Y352478D01*
X943505Y352975D01*
X944448Y353405D01*
X945418Y353767D01*
X946412Y354059D01*
X947424Y354279D01*
X948449Y354426D01*
X949482Y354500D01*
X950518Y354500D01*
X951551Y354426D01*
X952576Y354279D01*
X953588Y354059D01*
X954582Y353767D01*
X955552Y353405D01*
X956495Y352975D01*
X957404Y352478D01*
X958275Y351918D01*
X959104Y351298D01*
X959887Y350619D01*
X960619Y349887D01*
X961298Y349104D01*
X961918Y348275D01*
X962478Y347404D01*
X962975Y346495D01*
X963405Y345552D01*
X963767Y344582D01*
X964059Y343588D01*
X964279Y342576D01*
X964426Y341551D01*
X964500Y340518D01*
X964500Y339482D01*
X101148Y409800D02*
X100247Y409871D01*
X99355Y410012D01*
X98476Y410223D01*
X97617Y410502D01*
X96782Y410848D01*
X95977Y411259D01*
X95206Y411731D01*
X94475Y412262D01*
X93788Y412849D01*
X93149Y413488D01*
X92562Y414175D01*
X92031Y414906D01*
X91559Y415677D01*
X91148Y416482D01*
X90802Y417317D01*
X90523Y418176D01*
X90312Y419055D01*
X90171Y419947D01*
X90100Y420848D01*
X90100Y421752D01*
X90171Y422653D01*
X90312Y423545D01*
X90523Y424424D01*
X90802Y425283D01*
X91148Y426118D01*
X91559Y426923D01*
X92031Y427694D01*
X92562Y428425D01*
X93149Y429112D01*
X93788Y429751D01*
X94475Y430338D01*
X95206Y430869D01*
X95977Y431341D01*
X96782Y431752D01*
X97617Y432098D01*
X98476Y432377D01*
X99355Y432588D01*
X100247Y432729D01*
X101148Y432800D01*
X102052Y432800D01*
X102953Y432729D01*
X103845Y432588D01*
X104724Y432377D01*
X105583Y432098D01*
X106418Y431752D01*
X107223Y431341D01*
X107994Y430869D01*
X108725Y430338D01*
X109412Y429751D01*
X110051Y429112D01*
X110638Y428425D01*
X111169Y427694D01*
X111641Y426923D01*
X112052Y426118D01*
X112398Y425283D01*
X112677Y424424D01*
X112888Y423545D01*
X113029Y422653D01*
X113100Y421752D01*
X113100Y420848D01*
X113029Y419947D01*
X112888Y419055D01*
X112677Y418176D01*
X112398Y417317D01*
X112052Y416482D01*
X111641Y415677D01*
X111169Y414906D01*
X110638Y414175D01*
X110051Y413488D01*
X109412Y412849D01*
X108725Y412262D01*
X107994Y411731D01*
X107223Y411259D01*
X106418Y410848D01*
X105583Y410502D01*
X104724Y410223D01*
X103845Y410012D01*
X102953Y409871D01*
X102052Y409800D01*
X101148Y409800D01*
X101148Y278400D02*
X100247Y278471D01*
X99355Y278612D01*
X98476Y278823D01*
X97617Y279102D01*
X96782Y279448D01*
X95977Y279859D01*
X95206Y280331D01*
X94475Y280862D01*
X93788Y281449D01*
X93149Y282088D01*
X92562Y282775D01*
X92031Y283506D01*
X91559Y284277D01*
X91148Y285082D01*
X90802Y285917D01*
X90523Y286776D01*
X90312Y287655D01*
X90171Y288547D01*
X90100Y289448D01*
X90100Y290352D01*
X90171Y291253D01*
X90312Y292145D01*
X90523Y293024D01*
X90802Y293883D01*
X91148Y294718D01*
X91559Y295523D01*
X92031Y296294D01*
X92562Y297025D01*
X93149Y297712D01*
X93788Y298351D01*
X94475Y298938D01*
X95206Y299469D01*
X95977Y299941D01*
X96782Y300352D01*
X97617Y300698D01*
X98476Y300977D01*
X99355Y301188D01*
X100247Y301329D01*
X101148Y301400D01*
X102052Y301400D01*
X102953Y301329D01*
X103845Y301188D01*
X104724Y300977D01*
X105583Y300698D01*
X106418Y300352D01*
X107223Y299941D01*
X107994Y299469D01*
X108725Y298938D01*
X109412Y298351D01*
X110051Y297712D01*
X110638Y297025D01*
X111169Y296294D01*
X111641Y295523D01*
X112052Y294718D01*
X112398Y293883D01*
X112677Y293024D01*
X112888Y292145D01*
X113029Y291253D01*
X113100Y290352D01*
X113100Y289448D01*
X113029Y288547D01*
X112888Y287655D01*
X112677Y286776D01*
X112398Y285917D01*
X112052Y285082D01*
X111641Y284277D01*
X111169Y283506D01*
X110638Y282775D01*
X110051Y282088D01*
X109412Y281449D01*
X108725Y280862D01*
X107994Y280331D01*
X107223Y279859D01*
X106418Y279448D01*
X105583Y279102D01*
X104724Y278823D01*
X103845Y278612D01*
X102953Y278471D01*
X102052Y278400D01*
X101148Y278400D01*
X339784Y704850D02*
X338635Y704920D01*
X337492Y705058D01*
X336360Y705266D01*
X335242Y705541D01*
X334143Y705884D01*
X333067Y706292D01*
X332017Y706765D01*
X330997Y707300D01*
X330012Y707895D01*
X329065Y708549D01*
X328158Y709259D01*
X327297Y710023D01*
X326483Y710837D01*
X325719Y711698D01*
X325009Y712605D01*
X324355Y713552D01*
X323760Y714537D01*
X323225Y715557D01*
X322752Y716607D01*
X322344Y717683D01*
X322001Y718782D01*
X321726Y719900D01*
X321518Y721032D01*
X321380Y722175D01*
X321310Y723324D01*
X321310Y724476D01*
X321380Y725625D01*
X321518Y726768D01*
X321726Y727900D01*
X322001Y729018D01*
X322344Y730117D01*
X322752Y731193D01*
X323225Y732243D01*
X323760Y733263D01*
X324355Y734248D01*
X325009Y735195D01*
X325719Y736102D01*
X326483Y736963D01*
X327297Y737777D01*
X328158Y738541D01*
X329065Y739251D01*
X330012Y739905D01*
X330997Y740500D01*
X332017Y741035D01*
X333067Y741508D01*
X334143Y741916D01*
X335242Y742259D01*
X336360Y742534D01*
X337492Y742742D01*
X338635Y742881D01*
X339784Y742950D01*
X340936Y742950D01*
X342085Y742881D01*
X343228Y742742D01*
X344360Y742534D01*
X345478Y742259D01*
X346577Y741916D01*
X347653Y741508D01*
X348703Y741035D01*
X349723Y740500D01*
X350708Y739905D01*
X351655Y739251D01*
X352562Y738541D01*
X353423Y737777D01*
X354237Y736963D01*
X355001Y736102D01*
X355711Y735195D01*
X356365Y734248D01*
X356960Y733263D01*
X357495Y732243D01*
X357968Y731193D01*
X358376Y730117D01*
X358719Y729018D01*
X358994Y727900D01*
X359202Y726768D01*
X359341Y725625D01*
X359410Y724476D01*
X359410Y723324D01*
X359341Y722175D01*
X359202Y721032D01*
X358994Y719900D01*
X358719Y718782D01*
X358376Y717683D01*
X357968Y716607D01*
X357495Y715557D01*
X356960Y714537D01*
X356365Y713552D01*
X355711Y712605D01*
X355001Y711698D01*
X354237Y710837D01*
X353423Y710023D01*
X352562Y709259D01*
X351655Y708549D01*
X350708Y707895D01*
X349723Y707300D01*
X348703Y706765D01*
X347653Y706292D01*
X346577Y705884D01*
X345478Y705541D01*
X344360Y705266D01*
X343228Y705058D01*
X342085Y704920D01*
X340936Y704850D01*
X339784Y704850D01*
M02*
