G04 EAGLE Gerber RS-274X export*
G75*
%MOMM*%
%FSLAX34Y34*%
%LPD*%
%INSilkscreen Bottom*%
%IPPOS*%
%AMOC8*
5,1,8,0,0,1.08239X$1,22.5*%
G01*
%ADD10C,0.152400*%
%ADD11C,0.050800*%
%ADD12C,0.025400*%


D10*
X630300Y78900D02*
X630300Y98900D01*
X614300Y98900D01*
X614300Y78900D01*
X630300Y78900D01*
X741300Y167800D02*
X741300Y187800D01*
X741300Y167800D02*
X757300Y167800D01*
X757300Y187800D01*
X741300Y187800D01*
X157100Y320200D02*
X157100Y340200D01*
X157100Y320200D02*
X173100Y320200D01*
X173100Y340200D01*
X157100Y340200D01*
D11*
X401318Y98172D02*
X405820Y98172D01*
X405820Y99423D01*
X405821Y99423D02*
X405819Y99492D01*
X405813Y99561D01*
X405804Y99629D01*
X405791Y99697D01*
X405774Y99763D01*
X405753Y99829D01*
X405729Y99894D01*
X405701Y99957D01*
X405670Y100018D01*
X405636Y100078D01*
X405598Y100136D01*
X405557Y100191D01*
X405513Y100245D01*
X405467Y100295D01*
X405417Y100343D01*
X405365Y100389D01*
X405311Y100431D01*
X405254Y100470D01*
X405196Y100506D01*
X405135Y100539D01*
X405073Y100569D01*
X405009Y100595D01*
X404943Y100617D01*
X404877Y100636D01*
X404810Y100651D01*
X404742Y100662D01*
X404673Y100670D01*
X404604Y100674D01*
X404536Y100674D01*
X404467Y100670D01*
X404398Y100662D01*
X404330Y100651D01*
X404263Y100636D01*
X404197Y100617D01*
X404131Y100595D01*
X404067Y100569D01*
X404005Y100539D01*
X403945Y100506D01*
X403886Y100470D01*
X403829Y100431D01*
X403775Y100389D01*
X403723Y100343D01*
X403673Y100295D01*
X403627Y100245D01*
X403583Y100191D01*
X403542Y100136D01*
X403504Y100078D01*
X403470Y100018D01*
X403439Y99957D01*
X403411Y99894D01*
X403387Y99829D01*
X403366Y99763D01*
X403349Y99697D01*
X403336Y99629D01*
X403327Y99561D01*
X403321Y99492D01*
X403319Y99423D01*
X403319Y98172D01*
X403319Y99673D02*
X401318Y100673D01*
X404820Y102648D02*
X405820Y103898D01*
X401318Y103898D01*
X401318Y102648D02*
X401318Y105149D01*
X604518Y72772D02*
X609020Y72772D01*
X609020Y74023D01*
X609021Y74023D02*
X609019Y74092D01*
X609013Y74161D01*
X609004Y74229D01*
X608991Y74297D01*
X608974Y74363D01*
X608953Y74429D01*
X608929Y74494D01*
X608901Y74557D01*
X608870Y74618D01*
X608836Y74678D01*
X608798Y74736D01*
X608757Y74791D01*
X608713Y74845D01*
X608667Y74895D01*
X608617Y74943D01*
X608565Y74989D01*
X608511Y75031D01*
X608454Y75070D01*
X608396Y75106D01*
X608335Y75139D01*
X608273Y75169D01*
X608209Y75195D01*
X608143Y75217D01*
X608077Y75236D01*
X608010Y75251D01*
X607942Y75262D01*
X607873Y75270D01*
X607804Y75274D01*
X607736Y75274D01*
X607667Y75270D01*
X607598Y75262D01*
X607530Y75251D01*
X607463Y75236D01*
X607397Y75217D01*
X607331Y75195D01*
X607267Y75169D01*
X607205Y75139D01*
X607145Y75106D01*
X607086Y75070D01*
X607029Y75031D01*
X606975Y74989D01*
X606923Y74943D01*
X606873Y74895D01*
X606827Y74845D01*
X606783Y74791D01*
X606742Y74736D01*
X606704Y74678D01*
X606670Y74618D01*
X606639Y74557D01*
X606611Y74494D01*
X606587Y74429D01*
X606566Y74363D01*
X606549Y74297D01*
X606536Y74229D01*
X606527Y74161D01*
X606521Y74092D01*
X606519Y74023D01*
X606519Y72772D01*
X606519Y74273D02*
X604518Y75273D01*
X607895Y79748D02*
X607960Y79746D01*
X608026Y79740D01*
X608090Y79731D01*
X608154Y79718D01*
X608218Y79701D01*
X608280Y79680D01*
X608341Y79656D01*
X608400Y79628D01*
X608458Y79597D01*
X608513Y79563D01*
X608567Y79525D01*
X608618Y79485D01*
X608667Y79441D01*
X608713Y79395D01*
X608757Y79346D01*
X608797Y79295D01*
X608835Y79241D01*
X608869Y79186D01*
X608900Y79128D01*
X608928Y79069D01*
X608952Y79008D01*
X608973Y78946D01*
X608990Y78882D01*
X609003Y78818D01*
X609012Y78754D01*
X609018Y78688D01*
X609020Y78623D01*
X609018Y78550D01*
X609013Y78478D01*
X609004Y78406D01*
X608991Y78334D01*
X608975Y78263D01*
X608955Y78193D01*
X608931Y78124D01*
X608904Y78057D01*
X608874Y77990D01*
X608841Y77926D01*
X608804Y77863D01*
X608764Y77802D01*
X608722Y77743D01*
X608676Y77687D01*
X608628Y77633D01*
X608576Y77581D01*
X608523Y77532D01*
X608467Y77485D01*
X608408Y77442D01*
X608348Y77401D01*
X608285Y77364D01*
X608221Y77330D01*
X608155Y77299D01*
X608088Y77271D01*
X608019Y77247D01*
X607020Y79374D02*
X607066Y79420D01*
X607114Y79463D01*
X607165Y79504D01*
X607219Y79542D01*
X607274Y79577D01*
X607330Y79609D01*
X607389Y79638D01*
X607449Y79664D01*
X607510Y79686D01*
X607573Y79705D01*
X607636Y79721D01*
X607700Y79733D01*
X607765Y79742D01*
X607830Y79747D01*
X607895Y79749D01*
X607019Y79374D02*
X604518Y77248D01*
X604518Y79749D01*
X762580Y186951D02*
X767082Y186951D01*
X767082Y188202D01*
X767080Y188271D01*
X767074Y188340D01*
X767065Y188408D01*
X767052Y188476D01*
X767035Y188542D01*
X767014Y188608D01*
X766990Y188673D01*
X766962Y188736D01*
X766931Y188797D01*
X766897Y188857D01*
X766859Y188915D01*
X766818Y188970D01*
X766774Y189024D01*
X766728Y189074D01*
X766678Y189122D01*
X766626Y189168D01*
X766572Y189210D01*
X766515Y189249D01*
X766457Y189285D01*
X766396Y189318D01*
X766334Y189348D01*
X766270Y189374D01*
X766204Y189396D01*
X766138Y189415D01*
X766071Y189430D01*
X766003Y189441D01*
X765934Y189449D01*
X765865Y189453D01*
X765797Y189453D01*
X765728Y189449D01*
X765659Y189441D01*
X765591Y189430D01*
X765524Y189415D01*
X765458Y189396D01*
X765392Y189374D01*
X765328Y189348D01*
X765266Y189318D01*
X765206Y189285D01*
X765147Y189249D01*
X765090Y189210D01*
X765036Y189168D01*
X764984Y189122D01*
X764934Y189074D01*
X764888Y189024D01*
X764844Y188970D01*
X764803Y188915D01*
X764765Y188857D01*
X764731Y188797D01*
X764700Y188736D01*
X764672Y188673D01*
X764648Y188608D01*
X764627Y188542D01*
X764610Y188476D01*
X764597Y188408D01*
X764588Y188340D01*
X764582Y188271D01*
X764580Y188202D01*
X764581Y188202D02*
X764581Y186951D01*
X764581Y188452D02*
X762580Y189452D01*
X762580Y191427D02*
X762580Y192677D01*
X762582Y192746D01*
X762588Y192815D01*
X762597Y192883D01*
X762610Y192950D01*
X762627Y193017D01*
X762648Y193083D01*
X762672Y193147D01*
X762700Y193210D01*
X762731Y193272D01*
X762765Y193332D01*
X762803Y193389D01*
X762844Y193445D01*
X762887Y193498D01*
X762934Y193549D01*
X762983Y193597D01*
X763035Y193642D01*
X763090Y193684D01*
X763146Y193723D01*
X763205Y193760D01*
X763266Y193792D01*
X763328Y193822D01*
X763392Y193848D01*
X763457Y193870D01*
X763523Y193889D01*
X763590Y193904D01*
X763658Y193915D01*
X763727Y193923D01*
X763796Y193927D01*
X763864Y193927D01*
X763933Y193923D01*
X764002Y193915D01*
X764070Y193904D01*
X764137Y193889D01*
X764203Y193870D01*
X764268Y193848D01*
X764332Y193822D01*
X764394Y193792D01*
X764455Y193760D01*
X764514Y193723D01*
X764570Y193684D01*
X764625Y193642D01*
X764677Y193597D01*
X764726Y193549D01*
X764773Y193498D01*
X764816Y193445D01*
X764857Y193389D01*
X764895Y193332D01*
X764929Y193272D01*
X764960Y193210D01*
X764988Y193147D01*
X765012Y193083D01*
X765033Y193017D01*
X765050Y192950D01*
X765063Y192883D01*
X765072Y192815D01*
X765078Y192746D01*
X765080Y192677D01*
X767082Y192927D02*
X767082Y191427D01*
X767081Y192927D02*
X767079Y192989D01*
X767073Y193050D01*
X767064Y193111D01*
X767051Y193171D01*
X767034Y193230D01*
X767013Y193288D01*
X766989Y193345D01*
X766962Y193400D01*
X766931Y193453D01*
X766897Y193505D01*
X766860Y193554D01*
X766820Y193601D01*
X766777Y193645D01*
X766732Y193686D01*
X766684Y193725D01*
X766633Y193761D01*
X766581Y193793D01*
X766527Y193822D01*
X766471Y193848D01*
X766413Y193870D01*
X766355Y193889D01*
X766295Y193904D01*
X766234Y193915D01*
X766173Y193923D01*
X766112Y193927D01*
X766050Y193927D01*
X765989Y193923D01*
X765928Y193915D01*
X765867Y193904D01*
X765807Y193889D01*
X765749Y193870D01*
X765691Y193848D01*
X765635Y193822D01*
X765581Y193793D01*
X765529Y193761D01*
X765478Y193725D01*
X765430Y193686D01*
X765385Y193645D01*
X765342Y193601D01*
X765302Y193554D01*
X765265Y193505D01*
X765231Y193453D01*
X765200Y193400D01*
X765173Y193345D01*
X765149Y193288D01*
X765128Y193230D01*
X765111Y193171D01*
X765098Y193111D01*
X765089Y193050D01*
X765083Y192989D01*
X765081Y192927D01*
X765081Y191927D01*
X182882Y339351D02*
X178380Y339351D01*
X182882Y339351D02*
X182882Y340602D01*
X182880Y340671D01*
X182874Y340740D01*
X182865Y340808D01*
X182852Y340876D01*
X182835Y340942D01*
X182814Y341008D01*
X182790Y341073D01*
X182762Y341136D01*
X182731Y341197D01*
X182697Y341257D01*
X182659Y341315D01*
X182618Y341370D01*
X182574Y341424D01*
X182528Y341474D01*
X182478Y341522D01*
X182426Y341568D01*
X182372Y341610D01*
X182315Y341649D01*
X182257Y341685D01*
X182196Y341718D01*
X182134Y341748D01*
X182070Y341774D01*
X182004Y341796D01*
X181938Y341815D01*
X181871Y341830D01*
X181803Y341841D01*
X181734Y341849D01*
X181665Y341853D01*
X181597Y341853D01*
X181528Y341849D01*
X181459Y341841D01*
X181391Y341830D01*
X181324Y341815D01*
X181258Y341796D01*
X181192Y341774D01*
X181128Y341748D01*
X181066Y341718D01*
X181006Y341685D01*
X180947Y341649D01*
X180890Y341610D01*
X180836Y341568D01*
X180784Y341522D01*
X180734Y341474D01*
X180688Y341424D01*
X180644Y341370D01*
X180603Y341315D01*
X180565Y341257D01*
X180531Y341197D01*
X180500Y341136D01*
X180472Y341073D01*
X180448Y341008D01*
X180427Y340942D01*
X180410Y340876D01*
X180397Y340808D01*
X180388Y340740D01*
X180382Y340671D01*
X180380Y340602D01*
X180381Y340602D02*
X180381Y339351D01*
X180381Y340852D02*
X178380Y341852D01*
X179380Y343827D02*
X182882Y344827D01*
X179380Y343827D02*
X179380Y346328D01*
X180381Y345578D02*
X178380Y345578D01*
D10*
X154940Y857250D02*
X149860Y857250D01*
X149860Y844550D02*
X154940Y844550D01*
X133858Y850900D02*
X133856Y850954D01*
X133850Y851008D01*
X133841Y851062D01*
X133827Y851115D01*
X133810Y851166D01*
X133789Y851217D01*
X133765Y851265D01*
X133737Y851312D01*
X133706Y851357D01*
X133672Y851399D01*
X133635Y851439D01*
X133595Y851476D01*
X133553Y851510D01*
X133508Y851541D01*
X133461Y851569D01*
X133413Y851593D01*
X133362Y851614D01*
X133311Y851631D01*
X133258Y851645D01*
X133204Y851654D01*
X133150Y851660D01*
X133096Y851662D01*
X133042Y851660D01*
X132988Y851654D01*
X132934Y851645D01*
X132881Y851631D01*
X132830Y851614D01*
X132779Y851593D01*
X132731Y851569D01*
X132684Y851541D01*
X132639Y851510D01*
X132597Y851476D01*
X132557Y851439D01*
X132520Y851399D01*
X132486Y851357D01*
X132455Y851312D01*
X132427Y851265D01*
X132403Y851217D01*
X132382Y851166D01*
X132365Y851115D01*
X132351Y851062D01*
X132342Y851008D01*
X132336Y850954D01*
X132334Y850900D01*
X132336Y850846D01*
X132342Y850792D01*
X132351Y850738D01*
X132365Y850685D01*
X132382Y850634D01*
X132403Y850583D01*
X132427Y850535D01*
X132455Y850488D01*
X132486Y850443D01*
X132520Y850401D01*
X132557Y850361D01*
X132597Y850324D01*
X132639Y850290D01*
X132684Y850259D01*
X132731Y850231D01*
X132779Y850207D01*
X132830Y850186D01*
X132881Y850169D01*
X132934Y850155D01*
X132988Y850146D01*
X133042Y850140D01*
X133096Y850138D01*
X133150Y850140D01*
X133204Y850146D01*
X133258Y850155D01*
X133311Y850169D01*
X133362Y850186D01*
X133413Y850207D01*
X133461Y850231D01*
X133508Y850259D01*
X133553Y850290D01*
X133595Y850324D01*
X133635Y850361D01*
X133672Y850401D01*
X133706Y850443D01*
X133737Y850488D01*
X133765Y850535D01*
X133789Y850583D01*
X133810Y850634D01*
X133827Y850685D01*
X133841Y850738D01*
X133850Y850792D01*
X133856Y850846D01*
X133858Y850900D01*
D12*
X142621Y839343D02*
X142621Y835533D01*
X143679Y835533D01*
X143743Y835535D01*
X143807Y835541D01*
X143870Y835550D01*
X143932Y835564D01*
X143994Y835581D01*
X144054Y835602D01*
X144113Y835626D01*
X144171Y835654D01*
X144226Y835686D01*
X144280Y835720D01*
X144331Y835758D01*
X144381Y835799D01*
X144427Y835843D01*
X144471Y835889D01*
X144512Y835939D01*
X144550Y835990D01*
X144584Y836044D01*
X144616Y836099D01*
X144644Y836157D01*
X144668Y836216D01*
X144689Y836276D01*
X144706Y836338D01*
X144720Y836400D01*
X144729Y836463D01*
X144735Y836527D01*
X144737Y836591D01*
X144735Y836655D01*
X144729Y836719D01*
X144720Y836782D01*
X144706Y836844D01*
X144689Y836906D01*
X144668Y836966D01*
X144644Y837025D01*
X144616Y837083D01*
X144584Y837138D01*
X144550Y837192D01*
X144512Y837243D01*
X144471Y837293D01*
X144427Y837339D01*
X144381Y837383D01*
X144331Y837424D01*
X144280Y837462D01*
X144226Y837496D01*
X144171Y837528D01*
X144113Y837556D01*
X144054Y837580D01*
X143994Y837601D01*
X143932Y837618D01*
X143870Y837632D01*
X143807Y837641D01*
X143743Y837647D01*
X143679Y837649D01*
X143679Y837650D02*
X142621Y837650D01*
X143891Y837650D02*
X144738Y839343D01*
X146258Y837226D02*
X147528Y837226D01*
X147583Y837228D01*
X147639Y837233D01*
X147693Y837242D01*
X147747Y837255D01*
X147800Y837271D01*
X147852Y837290D01*
X147903Y837313D01*
X147952Y837339D01*
X147999Y837369D01*
X148044Y837401D01*
X148086Y837436D01*
X148127Y837474D01*
X148165Y837515D01*
X148200Y837557D01*
X148232Y837602D01*
X148262Y837650D01*
X148288Y837698D01*
X148311Y837749D01*
X148330Y837801D01*
X148346Y837854D01*
X148359Y837908D01*
X148368Y837962D01*
X148373Y838018D01*
X148375Y838073D01*
X148374Y838073D02*
X148374Y838285D01*
X148372Y838349D01*
X148366Y838413D01*
X148357Y838476D01*
X148343Y838538D01*
X148326Y838600D01*
X148305Y838660D01*
X148281Y838719D01*
X148253Y838777D01*
X148221Y838832D01*
X148187Y838886D01*
X148149Y838937D01*
X148108Y838987D01*
X148064Y839033D01*
X148018Y839077D01*
X147968Y839118D01*
X147917Y839156D01*
X147863Y839190D01*
X147808Y839222D01*
X147750Y839250D01*
X147691Y839274D01*
X147631Y839295D01*
X147569Y839312D01*
X147507Y839326D01*
X147444Y839335D01*
X147380Y839341D01*
X147316Y839343D01*
X147252Y839341D01*
X147188Y839335D01*
X147125Y839326D01*
X147063Y839312D01*
X147001Y839295D01*
X146941Y839274D01*
X146882Y839250D01*
X146824Y839222D01*
X146769Y839190D01*
X146715Y839156D01*
X146664Y839118D01*
X146614Y839077D01*
X146568Y839033D01*
X146524Y838987D01*
X146483Y838937D01*
X146445Y838886D01*
X146411Y838832D01*
X146379Y838777D01*
X146351Y838719D01*
X146327Y838660D01*
X146306Y838600D01*
X146289Y838538D01*
X146275Y838476D01*
X146266Y838413D01*
X146260Y838349D01*
X146258Y838285D01*
X146258Y837226D01*
X146260Y837145D01*
X146266Y837065D01*
X146275Y836985D01*
X146289Y836906D01*
X146306Y836827D01*
X146327Y836749D01*
X146351Y836672D01*
X146379Y836597D01*
X146411Y836523D01*
X146446Y836450D01*
X146485Y836380D01*
X146527Y836311D01*
X146572Y836244D01*
X146620Y836179D01*
X146671Y836117D01*
X146726Y836058D01*
X146783Y836001D01*
X146842Y835947D01*
X146904Y835895D01*
X146969Y835847D01*
X147036Y835802D01*
X147104Y835760D01*
X147175Y835721D01*
X147248Y835686D01*
X147322Y835654D01*
X147397Y835626D01*
X147474Y835602D01*
X147552Y835581D01*
X147631Y835564D01*
X147710Y835550D01*
X147790Y835541D01*
X147870Y835535D01*
X147951Y835533D01*
D10*
X427100Y124300D02*
X427100Y104300D01*
X427100Y124300D02*
X411100Y124300D01*
X411100Y104300D01*
X427100Y104300D01*
X149700Y808100D02*
X129700Y808100D01*
X129700Y792100D01*
X149700Y792100D01*
X149700Y808100D01*
M02*
