M48
;GenerationSoftware,Autodesk,EAGLE,9.3.0*%
;CreationDate,2019-06-22T04:32:29Z*%
FMAT,2
ICI,OFF
METRIC,TZ,000.000
T6C0.350
T5C0.950
T4C1.000
T3C2.300
T2C2.900
T1C3.200
%
G90
M71
T1
X10946Y13885
X10946Y2455
T2
X20000Y21600
X47000Y29000
X47000Y3000
T3
X10398Y18208
X10398Y31348
T4
X19836Y6265
X19836Y8805
X19836Y11345
X17296Y7535
X17296Y10075
X17296Y12615
X24880Y9730
X24880Y12270
X24880Y14810
X24880Y17350
X42660Y7190
X42660Y9730
X42660Y12270
X42660Y14810
X42660Y19890
X42660Y17350
X19836Y3725
X17296Y4995
T5
X13108Y25778
X13108Y23778
X13108Y28278
X13108Y21278
T6
X37000Y6265
X37000Y26000
X22000Y2143
X22000Y14000
X33500Y17600
X39000Y17000
X39000Y28000
X41000Y25000
X32000Y24000
X32000Y3725
X27000Y21000
X24000Y30000
X29000Y13000
X47000Y24000
X5000Y16000
X39000Y8000
M30