M48
;GenerationSoftware,Autodesk,EAGLE,9.3.0*%
;CreationDate,2019-02-25T18:38:22Z*%
FMAT,2
ICI,OFF
METRIC,TZ,000.000
T4C0.600
T3C0.838
T2C1.016
T1C3.500
%
G90
M71
T1
X36576Y3556
X48260Y58547
X53086Y3683
X19431Y62738
T2
X15796Y54022
X60308Y67263
X15923Y48688
X15923Y46148
X5371Y4804
X5371Y7343
X5371Y9884
X5371Y12423
X5371Y14963
X5371Y17504
X5371Y20044
X5371Y22583
X5371Y25123
X41720Y67449
X39180Y67449
X36640Y67449
X57768Y67263
X55228Y67263
X15796Y56562
T3
X36275Y44499
X38815Y41960
X41355Y44499
X36132Y53452
X38672Y50912
X41212Y53452
X60030Y44304
X57490Y46844
X54950Y44304
X60110Y53408
X57570Y55948
X55030Y53408
T4
X38735Y40005
X60579Y40005
X33274Y44069
X42291Y32766
X49276Y32385
X49022Y30480
X53721Y29972
X52578Y28956
X52578Y31496
X46609Y26670
X48895Y25654
X43561Y25527
X52197Y20701
X44323Y23622
X53086Y13970
X43561Y28702
X30734Y18415
X42926Y15240
X48006Y13843
X30734Y17145
X30734Y14986
X52959Y16637
X52578Y24892
X50800Y23622
X63373Y16383
X55372Y15494
X44831Y12065
X20193Y31369
X29845Y9398
X33147Y34798
X62484Y11303
X43561Y17018
X43320Y36614
X46990Y34417
X51562Y44323
X46355Y41910
X52451Y34544
X50673Y34417
X22733Y29845
X20447Y30099
X24765Y29972
X53086Y10541
X6604Y35052
X34671Y19177
X27185Y47827
X30685Y47827
X27303Y56315
X30803Y56315
X28152Y4796
X28152Y7336
X28152Y9876
X28152Y12416
X28152Y14956
X28152Y17496
X28152Y20036
X28152Y22576
X28152Y25116
X28152Y27656
X28152Y30196
X28152Y32736
X28152Y35276
X28152Y37816
X25612Y37816
X23072Y37816
X20532Y37816
X17992Y37816
X15452Y37816
X12912Y37816
X12912Y35276
X12912Y32736
X12912Y30196
X12912Y27656
X12912Y25116
X12912Y22576
X12912Y20036
X12912Y17496
X12912Y14956
X12912Y12416
X12912Y9876
X12912Y7336
X12912Y4796
X20320Y18796
X10922Y9906
X40767Y21717
X41656Y26416
X39878Y26416
X39878Y35814
X34290Y16383
X22733Y14478
X21844Y22733
X34163Y13589
X32766Y28829
X45085Y17653
X51902Y61879
X54902Y61879
X44737Y61878
X41737Y61878
X56769Y7747
X46609Y29210
X43434Y29972
X43053Y12954
X35560Y39497
X45847Y23622
X37973Y20447
X19177Y42291
X11557Y63119
X27559Y63246
X48768Y69215
X57150Y58801
X50292Y47752
X39116Y57531
X20193Y7112
X46736Y5588
X48387Y20955
X63246Y28829
X42926Y31115
X63156Y61803
X60156Y61803
X33314Y61903
X36314Y61903
M30