G04 EAGLE Gerber RS-274X export*
G75*
%MOMM*%
%FSLAX34Y34*%
%LPD*%
%INSilkscreen Top*%
%IPPOS*%
%AMOC8*
5,1,8,0,0,1.08239X$1,22.5*%
G01*
%ADD10C,0.101600*%
%ADD11C,0.254000*%
%ADD12C,0.203200*%
%ADD13C,0.127000*%
%ADD14C,0.152400*%
%ADD15C,0.050800*%
%ADD16C,0.025400*%


D10*
X467808Y219511D02*
X479492Y227300D01*
X479492Y219511D02*
X467808Y227300D01*
X472352Y231703D02*
X472352Y239492D01*
X476246Y235597D02*
X468457Y235597D01*
X204403Y316675D02*
X200508Y322192D01*
X204403Y316675D02*
X208297Y322192D01*
X204403Y316675D02*
X204403Y310508D01*
X212700Y315052D02*
X220489Y315052D01*
X216595Y318946D02*
X216595Y311157D01*
D11*
X230000Y310000D02*
X290000Y310000D01*
X270000Y330000D02*
X270000Y290000D01*
X290000Y310000D01*
X270000Y330000D01*
X470000Y200000D02*
X470000Y100000D01*
X490000Y120000D02*
X450000Y120000D01*
X470000Y100000D01*
X490000Y120000D01*
D12*
X209460Y157900D02*
X209460Y5500D01*
X209460Y157900D02*
X79460Y157900D01*
X79460Y5500D01*
X209460Y5500D01*
D13*
X50151Y25044D02*
X50151Y27188D01*
X50151Y25044D02*
X45325Y25044D01*
X45325Y27188D01*
X47470Y26652D02*
X47470Y25044D01*
X45325Y30571D02*
X50151Y30571D01*
X45325Y29230D02*
X45325Y31911D01*
X45325Y34534D02*
X50151Y34534D01*
X47470Y34534D02*
X47470Y37215D01*
X45325Y37215D02*
X50151Y37215D01*
X50687Y39922D02*
X50687Y42067D01*
X50151Y44873D02*
X45325Y44873D01*
X48006Y46481D01*
X45325Y48090D01*
X50151Y48090D01*
X50151Y52219D02*
X50151Y53292D01*
X50151Y52219D02*
X50149Y52154D01*
X50143Y52090D01*
X50133Y52026D01*
X50120Y51962D01*
X50102Y51900D01*
X50081Y51839D01*
X50057Y51779D01*
X50028Y51721D01*
X49996Y51664D01*
X49961Y51610D01*
X49923Y51558D01*
X49881Y51508D01*
X49837Y51461D01*
X49790Y51417D01*
X49740Y51375D01*
X49688Y51337D01*
X49634Y51302D01*
X49577Y51270D01*
X49519Y51241D01*
X49459Y51217D01*
X49398Y51196D01*
X49336Y51178D01*
X49272Y51165D01*
X49208Y51155D01*
X49144Y51149D01*
X49079Y51147D01*
X46397Y51147D01*
X46397Y51146D02*
X46332Y51148D01*
X46268Y51154D01*
X46204Y51164D01*
X46140Y51177D01*
X46078Y51195D01*
X46017Y51216D01*
X45957Y51241D01*
X45898Y51269D01*
X45842Y51301D01*
X45787Y51336D01*
X45735Y51374D01*
X45685Y51416D01*
X45638Y51460D01*
X45594Y51507D01*
X45552Y51557D01*
X45514Y51609D01*
X45479Y51664D01*
X45447Y51720D01*
X45419Y51779D01*
X45394Y51838D01*
X45373Y51900D01*
X45355Y51962D01*
X45342Y52026D01*
X45332Y52090D01*
X45326Y52154D01*
X45324Y52219D01*
X45325Y52219D02*
X45325Y53292D01*
X45325Y55931D02*
X48810Y55931D01*
X48810Y55930D02*
X48881Y55932D01*
X48953Y55938D01*
X49023Y55947D01*
X49093Y55960D01*
X49163Y55977D01*
X49231Y55998D01*
X49298Y56022D01*
X49364Y56050D01*
X49428Y56081D01*
X49491Y56116D01*
X49551Y56154D01*
X49610Y56195D01*
X49666Y56239D01*
X49720Y56286D01*
X49771Y56335D01*
X49819Y56388D01*
X49865Y56443D01*
X49907Y56500D01*
X49947Y56560D01*
X49983Y56621D01*
X50016Y56685D01*
X50045Y56750D01*
X50071Y56816D01*
X50094Y56884D01*
X50113Y56953D01*
X50128Y57023D01*
X50139Y57093D01*
X50147Y57164D01*
X50151Y57235D01*
X50151Y57307D01*
X50147Y57378D01*
X50139Y57449D01*
X50128Y57519D01*
X50113Y57589D01*
X50094Y57658D01*
X50071Y57726D01*
X50045Y57792D01*
X50016Y57857D01*
X49983Y57921D01*
X49947Y57982D01*
X49907Y58042D01*
X49865Y58099D01*
X49819Y58154D01*
X49771Y58207D01*
X49720Y58256D01*
X49666Y58303D01*
X49610Y58347D01*
X49551Y58388D01*
X49491Y58426D01*
X49428Y58461D01*
X49364Y58492D01*
X49298Y58520D01*
X49231Y58544D01*
X49163Y58565D01*
X49093Y58582D01*
X49023Y58595D01*
X48953Y58604D01*
X48881Y58610D01*
X48810Y58612D01*
X45325Y58612D01*
X50687Y61319D02*
X50687Y63464D01*
X46532Y68670D02*
X46464Y68668D01*
X46397Y68662D01*
X46330Y68653D01*
X46263Y68640D01*
X46198Y68623D01*
X46133Y68602D01*
X46070Y68578D01*
X46008Y68550D01*
X45948Y68519D01*
X45890Y68485D01*
X45834Y68447D01*
X45779Y68407D01*
X45728Y68363D01*
X45679Y68316D01*
X45632Y68267D01*
X45588Y68216D01*
X45548Y68161D01*
X45510Y68105D01*
X45476Y68047D01*
X45445Y67987D01*
X45417Y67925D01*
X45393Y67862D01*
X45372Y67797D01*
X45355Y67732D01*
X45342Y67665D01*
X45333Y67598D01*
X45327Y67531D01*
X45325Y67463D01*
X45327Y67385D01*
X45333Y67307D01*
X45343Y67230D01*
X45356Y67153D01*
X45374Y67077D01*
X45395Y67002D01*
X45420Y66928D01*
X45449Y66856D01*
X45481Y66785D01*
X45517Y66716D01*
X45556Y66648D01*
X45599Y66583D01*
X45645Y66520D01*
X45694Y66459D01*
X45746Y66401D01*
X45801Y66346D01*
X45858Y66293D01*
X45918Y66244D01*
X45981Y66197D01*
X46046Y66154D01*
X46112Y66114D01*
X46181Y66077D01*
X46252Y66044D01*
X46324Y66014D01*
X46398Y65988D01*
X47470Y68268D02*
X47421Y68317D01*
X47369Y68364D01*
X47314Y68407D01*
X47257Y68448D01*
X47198Y68486D01*
X47137Y68520D01*
X47074Y68551D01*
X47010Y68579D01*
X46944Y68603D01*
X46878Y68623D01*
X46810Y68640D01*
X46741Y68653D01*
X46672Y68662D01*
X46602Y68668D01*
X46532Y68670D01*
X47470Y68268D02*
X50151Y65989D01*
X50151Y68670D01*
X50687Y71195D02*
X50687Y73340D01*
X50151Y76108D02*
X45325Y76108D01*
X50151Y75571D02*
X50151Y76644D01*
X45325Y76644D02*
X45325Y75571D01*
X45325Y79437D02*
X50151Y79437D01*
X48006Y81045D02*
X45325Y79437D01*
X48006Y81045D02*
X45325Y82654D01*
X50151Y82654D01*
X48810Y85923D02*
X45325Y85923D01*
X48810Y85922D02*
X48881Y85924D01*
X48953Y85930D01*
X49023Y85939D01*
X49093Y85952D01*
X49163Y85969D01*
X49231Y85990D01*
X49298Y86014D01*
X49364Y86042D01*
X49428Y86073D01*
X49491Y86108D01*
X49551Y86146D01*
X49610Y86187D01*
X49666Y86231D01*
X49720Y86278D01*
X49771Y86327D01*
X49819Y86380D01*
X49865Y86435D01*
X49907Y86492D01*
X49947Y86552D01*
X49983Y86613D01*
X50016Y86677D01*
X50045Y86742D01*
X50071Y86808D01*
X50094Y86876D01*
X50113Y86945D01*
X50128Y87015D01*
X50139Y87085D01*
X50147Y87156D01*
X50151Y87227D01*
X50151Y87299D01*
X50147Y87370D01*
X50139Y87441D01*
X50128Y87511D01*
X50113Y87581D01*
X50094Y87650D01*
X50071Y87718D01*
X50045Y87784D01*
X50016Y87849D01*
X49983Y87913D01*
X49947Y87974D01*
X49907Y88034D01*
X49865Y88091D01*
X49819Y88146D01*
X49771Y88199D01*
X49720Y88248D01*
X49666Y88295D01*
X49610Y88339D01*
X49551Y88380D01*
X49491Y88418D01*
X49428Y88453D01*
X49364Y88484D01*
X49298Y88512D01*
X49231Y88536D01*
X49163Y88557D01*
X49093Y88574D01*
X49023Y88587D01*
X48953Y88596D01*
X48881Y88602D01*
X48810Y88604D01*
X45325Y88604D01*
X45325Y93066D02*
X45327Y93134D01*
X45333Y93201D01*
X45342Y93268D01*
X45355Y93335D01*
X45372Y93400D01*
X45393Y93465D01*
X45417Y93528D01*
X45445Y93590D01*
X45476Y93650D01*
X45510Y93708D01*
X45548Y93764D01*
X45588Y93819D01*
X45632Y93870D01*
X45679Y93919D01*
X45728Y93966D01*
X45779Y94010D01*
X45834Y94050D01*
X45890Y94088D01*
X45948Y94122D01*
X46008Y94153D01*
X46070Y94181D01*
X46133Y94205D01*
X46198Y94226D01*
X46263Y94243D01*
X46330Y94256D01*
X46397Y94265D01*
X46464Y94271D01*
X46532Y94273D01*
X45325Y93066D02*
X45327Y92988D01*
X45333Y92910D01*
X45343Y92833D01*
X45356Y92756D01*
X45374Y92680D01*
X45395Y92605D01*
X45420Y92531D01*
X45449Y92459D01*
X45481Y92388D01*
X45517Y92319D01*
X45556Y92251D01*
X45599Y92186D01*
X45645Y92123D01*
X45694Y92062D01*
X45746Y92004D01*
X45801Y91949D01*
X45858Y91896D01*
X45918Y91847D01*
X45981Y91800D01*
X46046Y91757D01*
X46112Y91717D01*
X46181Y91680D01*
X46252Y91647D01*
X46324Y91617D01*
X46398Y91591D01*
X47470Y93871D02*
X47421Y93920D01*
X47369Y93967D01*
X47314Y94010D01*
X47257Y94051D01*
X47198Y94089D01*
X47137Y94123D01*
X47074Y94154D01*
X47010Y94182D01*
X46944Y94206D01*
X46878Y94226D01*
X46810Y94243D01*
X46741Y94256D01*
X46672Y94265D01*
X46602Y94271D01*
X46532Y94273D01*
X47470Y93871D02*
X50151Y91592D01*
X50151Y94273D01*
X236100Y2050D02*
X439300Y2050D01*
X236100Y2050D02*
X236100Y268750D01*
X439300Y268750D01*
X439300Y2050D01*
D10*
X327032Y121966D02*
X315348Y121966D01*
X327032Y120668D02*
X327032Y123264D01*
X315348Y123264D02*
X315348Y120668D01*
X315348Y128359D02*
X327032Y128359D01*
X321839Y132253D02*
X315348Y128359D01*
X321839Y132253D02*
X315348Y136148D01*
X327032Y136148D01*
X323786Y141962D02*
X315348Y141962D01*
X323786Y141961D02*
X323899Y141963D01*
X324012Y141969D01*
X324125Y141979D01*
X324238Y141993D01*
X324350Y142010D01*
X324461Y142032D01*
X324571Y142057D01*
X324681Y142087D01*
X324789Y142120D01*
X324896Y142157D01*
X325002Y142197D01*
X325106Y142242D01*
X325209Y142290D01*
X325310Y142341D01*
X325409Y142396D01*
X325506Y142454D01*
X325601Y142516D01*
X325694Y142581D01*
X325784Y142649D01*
X325872Y142720D01*
X325958Y142795D01*
X326041Y142872D01*
X326121Y142952D01*
X326198Y143035D01*
X326273Y143121D01*
X326344Y143209D01*
X326412Y143299D01*
X326477Y143392D01*
X326539Y143487D01*
X326597Y143584D01*
X326652Y143683D01*
X326703Y143784D01*
X326751Y143887D01*
X326796Y143991D01*
X326836Y144097D01*
X326873Y144204D01*
X326906Y144312D01*
X326936Y144422D01*
X326961Y144532D01*
X326983Y144643D01*
X327000Y144755D01*
X327014Y144868D01*
X327024Y144981D01*
X327030Y145094D01*
X327032Y145207D01*
X327030Y145320D01*
X327024Y145433D01*
X327014Y145546D01*
X327000Y145659D01*
X326983Y145771D01*
X326961Y145882D01*
X326936Y145992D01*
X326906Y146102D01*
X326873Y146210D01*
X326836Y146317D01*
X326796Y146423D01*
X326751Y146527D01*
X326703Y146630D01*
X326652Y146731D01*
X326597Y146830D01*
X326539Y146927D01*
X326477Y147022D01*
X326412Y147115D01*
X326344Y147205D01*
X326273Y147293D01*
X326198Y147379D01*
X326121Y147462D01*
X326041Y147542D01*
X325958Y147619D01*
X325872Y147694D01*
X325784Y147765D01*
X325694Y147833D01*
X325601Y147898D01*
X325506Y147960D01*
X325409Y148018D01*
X325310Y148073D01*
X325209Y148124D01*
X325106Y148172D01*
X325002Y148217D01*
X324896Y148257D01*
X324789Y148294D01*
X324681Y148327D01*
X324571Y148357D01*
X324461Y148382D01*
X324350Y148404D01*
X324238Y148421D01*
X324125Y148435D01*
X324012Y148445D01*
X323899Y148451D01*
X323786Y148453D01*
X315348Y148453D01*
D14*
X312830Y292440D02*
X340770Y292440D01*
X343310Y310220D02*
X343308Y310320D01*
X343302Y310419D01*
X343292Y310519D01*
X343279Y310617D01*
X343261Y310716D01*
X343240Y310813D01*
X343215Y310909D01*
X343186Y311005D01*
X343153Y311099D01*
X343117Y311192D01*
X343077Y311283D01*
X343033Y311373D01*
X342986Y311461D01*
X342936Y311547D01*
X342882Y311631D01*
X342825Y311713D01*
X342765Y311792D01*
X342701Y311870D01*
X342635Y311944D01*
X342566Y312016D01*
X342494Y312085D01*
X342420Y312151D01*
X342342Y312215D01*
X342263Y312275D01*
X342181Y312332D01*
X342097Y312386D01*
X342011Y312436D01*
X341923Y312483D01*
X341833Y312527D01*
X341742Y312567D01*
X341649Y312603D01*
X341555Y312636D01*
X341459Y312665D01*
X341363Y312690D01*
X341266Y312711D01*
X341167Y312729D01*
X341069Y312742D01*
X340969Y312752D01*
X340870Y312758D01*
X340770Y312760D01*
X312830Y312760D02*
X312730Y312758D01*
X312631Y312752D01*
X312531Y312742D01*
X312433Y312729D01*
X312334Y312711D01*
X312237Y312690D01*
X312141Y312665D01*
X312045Y312636D01*
X311951Y312603D01*
X311858Y312567D01*
X311767Y312527D01*
X311677Y312483D01*
X311589Y312436D01*
X311503Y312386D01*
X311419Y312332D01*
X311337Y312275D01*
X311258Y312215D01*
X311180Y312151D01*
X311106Y312085D01*
X311034Y312016D01*
X310965Y311944D01*
X310899Y311870D01*
X310835Y311792D01*
X310775Y311713D01*
X310718Y311631D01*
X310664Y311547D01*
X310614Y311461D01*
X310567Y311373D01*
X310523Y311283D01*
X310483Y311192D01*
X310447Y311099D01*
X310414Y311005D01*
X310385Y310909D01*
X310360Y310813D01*
X310339Y310716D01*
X310321Y310617D01*
X310308Y310519D01*
X310298Y310419D01*
X310292Y310320D01*
X310290Y310220D01*
X310290Y294980D02*
X310292Y294880D01*
X310298Y294781D01*
X310308Y294681D01*
X310321Y294583D01*
X310339Y294484D01*
X310360Y294387D01*
X310385Y294291D01*
X310414Y294195D01*
X310447Y294101D01*
X310483Y294008D01*
X310523Y293917D01*
X310567Y293827D01*
X310614Y293739D01*
X310664Y293653D01*
X310718Y293569D01*
X310775Y293487D01*
X310835Y293408D01*
X310899Y293330D01*
X310965Y293256D01*
X311034Y293184D01*
X311106Y293115D01*
X311180Y293049D01*
X311258Y292985D01*
X311337Y292925D01*
X311419Y292868D01*
X311503Y292814D01*
X311589Y292764D01*
X311677Y292717D01*
X311767Y292673D01*
X311858Y292633D01*
X311951Y292597D01*
X312045Y292564D01*
X312141Y292535D01*
X312237Y292510D01*
X312334Y292489D01*
X312433Y292471D01*
X312531Y292458D01*
X312631Y292448D01*
X312730Y292442D01*
X312830Y292440D01*
X340770Y292440D02*
X340870Y292442D01*
X340969Y292448D01*
X341069Y292458D01*
X341167Y292471D01*
X341266Y292489D01*
X341363Y292510D01*
X341459Y292535D01*
X341555Y292564D01*
X341649Y292597D01*
X341742Y292633D01*
X341833Y292673D01*
X341923Y292717D01*
X342011Y292764D01*
X342097Y292814D01*
X342181Y292868D01*
X342263Y292925D01*
X342342Y292985D01*
X342420Y293049D01*
X342494Y293115D01*
X342566Y293184D01*
X342635Y293256D01*
X342701Y293330D01*
X342765Y293408D01*
X342825Y293487D01*
X342882Y293569D01*
X342936Y293653D01*
X342986Y293739D01*
X343033Y293827D01*
X343077Y293917D01*
X343117Y294008D01*
X343153Y294101D01*
X343186Y294195D01*
X343215Y294291D01*
X343240Y294387D01*
X343261Y294484D01*
X343279Y294583D01*
X343292Y294681D01*
X343302Y294781D01*
X343308Y294880D01*
X343310Y294980D01*
X343310Y310220D01*
X310290Y310220D02*
X310290Y294980D01*
X312830Y312760D02*
X340770Y312760D01*
D13*
X312195Y314665D02*
X312195Y326095D01*
X310925Y314665D02*
X313465Y314665D01*
X313465Y326095D02*
X310925Y326095D01*
X318672Y326095D02*
X318672Y314665D01*
X322482Y319745D02*
X318672Y326095D01*
X322482Y319745D02*
X326292Y326095D01*
X326292Y314665D01*
X332261Y317840D02*
X332261Y326095D01*
X332261Y317840D02*
X332263Y317729D01*
X332269Y317619D01*
X332278Y317508D01*
X332292Y317398D01*
X332309Y317289D01*
X332330Y317180D01*
X332355Y317072D01*
X332384Y316965D01*
X332416Y316859D01*
X332452Y316754D01*
X332492Y316651D01*
X332535Y316549D01*
X332582Y316448D01*
X332633Y316349D01*
X332686Y316253D01*
X332743Y316158D01*
X332804Y316065D01*
X332867Y315974D01*
X332934Y315885D01*
X333004Y315799D01*
X333077Y315716D01*
X333152Y315634D01*
X333230Y315556D01*
X333312Y315481D01*
X333395Y315408D01*
X333481Y315338D01*
X333570Y315271D01*
X333661Y315208D01*
X333754Y315147D01*
X333849Y315090D01*
X333945Y315037D01*
X334044Y314986D01*
X334145Y314939D01*
X334247Y314896D01*
X334350Y314856D01*
X334455Y314820D01*
X334561Y314788D01*
X334668Y314759D01*
X334776Y314734D01*
X334885Y314713D01*
X334994Y314696D01*
X335104Y314682D01*
X335215Y314673D01*
X335325Y314667D01*
X335436Y314665D01*
X335547Y314667D01*
X335657Y314673D01*
X335768Y314682D01*
X335878Y314696D01*
X335987Y314713D01*
X336096Y314734D01*
X336204Y314759D01*
X336311Y314788D01*
X336417Y314820D01*
X336522Y314856D01*
X336625Y314896D01*
X336727Y314939D01*
X336828Y314986D01*
X336927Y315037D01*
X337023Y315090D01*
X337118Y315147D01*
X337211Y315208D01*
X337302Y315271D01*
X337391Y315338D01*
X337477Y315408D01*
X337560Y315481D01*
X337642Y315556D01*
X337720Y315634D01*
X337795Y315716D01*
X337868Y315799D01*
X337938Y315885D01*
X338005Y315974D01*
X338068Y316065D01*
X338129Y316158D01*
X338186Y316252D01*
X338239Y316349D01*
X338290Y316448D01*
X338337Y316549D01*
X338380Y316651D01*
X338420Y316754D01*
X338456Y316859D01*
X338488Y316965D01*
X338517Y317072D01*
X338542Y317180D01*
X338563Y317289D01*
X338580Y317398D01*
X338594Y317508D01*
X338603Y317619D01*
X338609Y317729D01*
X338611Y317840D01*
X338611Y326095D01*
X347565Y326096D02*
X347669Y326094D01*
X347774Y326088D01*
X347878Y326079D01*
X347981Y326066D01*
X348084Y326048D01*
X348186Y326028D01*
X348288Y326003D01*
X348388Y325975D01*
X348488Y325943D01*
X348586Y325907D01*
X348683Y325868D01*
X348778Y325826D01*
X348872Y325780D01*
X348964Y325730D01*
X349054Y325678D01*
X349142Y325622D01*
X349228Y325562D01*
X349312Y325500D01*
X349393Y325435D01*
X349472Y325367D01*
X349549Y325295D01*
X349622Y325222D01*
X349694Y325145D01*
X349762Y325066D01*
X349827Y324985D01*
X349889Y324901D01*
X349949Y324815D01*
X350005Y324727D01*
X350057Y324637D01*
X350107Y324545D01*
X350153Y324451D01*
X350195Y324356D01*
X350234Y324259D01*
X350270Y324161D01*
X350302Y324061D01*
X350330Y323961D01*
X350355Y323859D01*
X350375Y323757D01*
X350393Y323654D01*
X350406Y323551D01*
X350415Y323447D01*
X350421Y323342D01*
X350423Y323238D01*
X347565Y326095D02*
X347447Y326093D01*
X347328Y326087D01*
X347210Y326078D01*
X347093Y326065D01*
X346976Y326047D01*
X346859Y326027D01*
X346743Y326002D01*
X346628Y325974D01*
X346515Y325941D01*
X346402Y325906D01*
X346290Y325866D01*
X346180Y325824D01*
X346071Y325777D01*
X345963Y325727D01*
X345858Y325674D01*
X345754Y325617D01*
X345652Y325557D01*
X345552Y325494D01*
X345454Y325427D01*
X345358Y325358D01*
X345265Y325285D01*
X345174Y325209D01*
X345085Y325131D01*
X344999Y325049D01*
X344916Y324965D01*
X344835Y324879D01*
X344758Y324789D01*
X344683Y324698D01*
X344611Y324604D01*
X344542Y324507D01*
X344477Y324409D01*
X344414Y324308D01*
X344355Y324205D01*
X344299Y324101D01*
X344247Y323995D01*
X344198Y323887D01*
X344153Y323778D01*
X344111Y323667D01*
X344073Y323555D01*
X349470Y321016D02*
X349546Y321091D01*
X349621Y321170D01*
X349692Y321251D01*
X349761Y321335D01*
X349826Y321421D01*
X349888Y321509D01*
X349948Y321599D01*
X350004Y321691D01*
X350057Y321786D01*
X350106Y321882D01*
X350152Y321980D01*
X350195Y322079D01*
X350234Y322180D01*
X350269Y322282D01*
X350301Y322385D01*
X350329Y322489D01*
X350354Y322594D01*
X350375Y322701D01*
X350392Y322807D01*
X350405Y322914D01*
X350414Y323022D01*
X350420Y323130D01*
X350422Y323238D01*
X349470Y321015D02*
X344072Y314665D01*
X350422Y314665D01*
X354994Y313395D02*
X360074Y313395D01*
X364011Y314665D02*
X367821Y326095D01*
X371631Y314665D01*
X370679Y317523D02*
X364964Y317523D01*
X376457Y314665D02*
X376457Y326095D01*
X379632Y326095D01*
X379743Y326093D01*
X379853Y326087D01*
X379964Y326078D01*
X380074Y326064D01*
X380183Y326047D01*
X380292Y326026D01*
X380400Y326001D01*
X380507Y325972D01*
X380613Y325940D01*
X380718Y325904D01*
X380821Y325864D01*
X380923Y325821D01*
X381024Y325774D01*
X381123Y325723D01*
X381220Y325670D01*
X381314Y325613D01*
X381407Y325552D01*
X381498Y325489D01*
X381587Y325422D01*
X381673Y325352D01*
X381756Y325279D01*
X381838Y325204D01*
X381916Y325126D01*
X381991Y325044D01*
X382064Y324961D01*
X382134Y324875D01*
X382201Y324786D01*
X382264Y324695D01*
X382325Y324602D01*
X382382Y324508D01*
X382435Y324411D01*
X382486Y324312D01*
X382533Y324211D01*
X382576Y324109D01*
X382616Y324006D01*
X382652Y323901D01*
X382684Y323795D01*
X382713Y323688D01*
X382738Y323580D01*
X382759Y323471D01*
X382776Y323362D01*
X382790Y323252D01*
X382799Y323141D01*
X382805Y323031D01*
X382807Y322920D01*
X382807Y317840D01*
X382805Y317729D01*
X382799Y317619D01*
X382790Y317508D01*
X382776Y317398D01*
X382759Y317289D01*
X382738Y317180D01*
X382713Y317072D01*
X382684Y316965D01*
X382652Y316859D01*
X382616Y316754D01*
X382576Y316651D01*
X382533Y316549D01*
X382486Y316448D01*
X382435Y316349D01*
X382382Y316252D01*
X382325Y316158D01*
X382264Y316065D01*
X382201Y315974D01*
X382134Y315885D01*
X382064Y315799D01*
X381991Y315716D01*
X381916Y315634D01*
X381838Y315556D01*
X381756Y315481D01*
X381673Y315408D01*
X381587Y315338D01*
X381498Y315271D01*
X381407Y315208D01*
X381314Y315147D01*
X381220Y315090D01*
X381123Y315037D01*
X381024Y314986D01*
X380923Y314939D01*
X380821Y314896D01*
X380718Y314856D01*
X380613Y314820D01*
X380507Y314788D01*
X380400Y314759D01*
X380292Y314734D01*
X380183Y314713D01*
X380074Y314696D01*
X379964Y314682D01*
X379853Y314673D01*
X379743Y314667D01*
X379632Y314665D01*
X376457Y314665D01*
X388649Y314665D02*
X388649Y326095D01*
X391824Y326095D01*
X391935Y326093D01*
X392045Y326087D01*
X392156Y326078D01*
X392266Y326064D01*
X392375Y326047D01*
X392484Y326026D01*
X392592Y326001D01*
X392699Y325972D01*
X392805Y325940D01*
X392910Y325904D01*
X393013Y325864D01*
X393115Y325821D01*
X393216Y325774D01*
X393315Y325723D01*
X393412Y325670D01*
X393506Y325613D01*
X393599Y325552D01*
X393690Y325489D01*
X393779Y325422D01*
X393865Y325352D01*
X393948Y325279D01*
X394030Y325204D01*
X394108Y325126D01*
X394183Y325044D01*
X394256Y324961D01*
X394326Y324875D01*
X394393Y324786D01*
X394456Y324695D01*
X394517Y324602D01*
X394574Y324508D01*
X394627Y324411D01*
X394678Y324312D01*
X394725Y324211D01*
X394768Y324109D01*
X394808Y324006D01*
X394844Y323901D01*
X394876Y323795D01*
X394905Y323688D01*
X394930Y323580D01*
X394951Y323471D01*
X394968Y323362D01*
X394982Y323252D01*
X394991Y323141D01*
X394997Y323031D01*
X394999Y322920D01*
X394999Y317840D01*
X394997Y317729D01*
X394991Y317619D01*
X394982Y317508D01*
X394968Y317398D01*
X394951Y317289D01*
X394930Y317180D01*
X394905Y317072D01*
X394876Y316965D01*
X394844Y316859D01*
X394808Y316754D01*
X394768Y316651D01*
X394725Y316549D01*
X394678Y316448D01*
X394627Y316349D01*
X394574Y316252D01*
X394517Y316158D01*
X394456Y316065D01*
X394393Y315974D01*
X394326Y315885D01*
X394256Y315799D01*
X394183Y315716D01*
X394108Y315634D01*
X394030Y315556D01*
X393948Y315481D01*
X393865Y315408D01*
X393779Y315338D01*
X393690Y315271D01*
X393599Y315208D01*
X393506Y315147D01*
X393412Y315090D01*
X393315Y315037D01*
X393216Y314986D01*
X393115Y314939D01*
X393013Y314896D01*
X392910Y314856D01*
X392805Y314820D01*
X392699Y314788D01*
X392592Y314759D01*
X392484Y314734D01*
X392375Y314713D01*
X392266Y314696D01*
X392156Y314682D01*
X392045Y314673D01*
X391935Y314667D01*
X391824Y314665D01*
X388649Y314665D01*
X400924Y314665D02*
X400924Y326095D01*
X404099Y326095D01*
X404210Y326093D01*
X404320Y326087D01*
X404431Y326078D01*
X404541Y326064D01*
X404650Y326047D01*
X404759Y326026D01*
X404867Y326001D01*
X404974Y325972D01*
X405080Y325940D01*
X405185Y325904D01*
X405288Y325864D01*
X405390Y325821D01*
X405491Y325774D01*
X405590Y325723D01*
X405687Y325670D01*
X405781Y325613D01*
X405874Y325552D01*
X405965Y325489D01*
X406054Y325422D01*
X406140Y325352D01*
X406223Y325279D01*
X406305Y325204D01*
X406383Y325126D01*
X406458Y325044D01*
X406531Y324961D01*
X406601Y324875D01*
X406668Y324786D01*
X406731Y324695D01*
X406792Y324602D01*
X406849Y324507D01*
X406902Y324411D01*
X406953Y324312D01*
X407000Y324211D01*
X407043Y324109D01*
X407083Y324006D01*
X407119Y323901D01*
X407151Y323795D01*
X407180Y323688D01*
X407205Y323580D01*
X407226Y323471D01*
X407243Y323362D01*
X407257Y323252D01*
X407266Y323141D01*
X407272Y323031D01*
X407274Y322920D01*
X407272Y322809D01*
X407266Y322699D01*
X407257Y322588D01*
X407243Y322478D01*
X407226Y322369D01*
X407205Y322260D01*
X407180Y322152D01*
X407151Y322045D01*
X407119Y321939D01*
X407083Y321834D01*
X407043Y321731D01*
X407000Y321629D01*
X406953Y321528D01*
X406902Y321429D01*
X406849Y321332D01*
X406792Y321238D01*
X406731Y321145D01*
X406668Y321054D01*
X406601Y320965D01*
X406531Y320879D01*
X406458Y320796D01*
X406383Y320714D01*
X406305Y320636D01*
X406223Y320561D01*
X406140Y320488D01*
X406054Y320418D01*
X405965Y320351D01*
X405874Y320288D01*
X405781Y320227D01*
X405687Y320170D01*
X405590Y320117D01*
X405491Y320066D01*
X405390Y320019D01*
X405288Y319976D01*
X405185Y319936D01*
X405080Y319900D01*
X404974Y319868D01*
X404867Y319839D01*
X404759Y319814D01*
X404650Y319793D01*
X404541Y319776D01*
X404431Y319762D01*
X404320Y319753D01*
X404210Y319747D01*
X404099Y319745D01*
X400924Y319745D01*
X404734Y319745D02*
X407274Y314665D01*
X411763Y313395D02*
X416843Y313395D01*
X424007Y317205D02*
X424007Y326095D01*
X424007Y317205D02*
X424005Y317105D01*
X423999Y317006D01*
X423989Y316906D01*
X423976Y316808D01*
X423958Y316709D01*
X423937Y316612D01*
X423912Y316516D01*
X423883Y316420D01*
X423850Y316326D01*
X423814Y316233D01*
X423774Y316142D01*
X423730Y316052D01*
X423683Y315964D01*
X423633Y315878D01*
X423579Y315794D01*
X423522Y315712D01*
X423462Y315633D01*
X423398Y315555D01*
X423332Y315481D01*
X423263Y315409D01*
X423191Y315340D01*
X423117Y315274D01*
X423039Y315210D01*
X422960Y315150D01*
X422878Y315093D01*
X422794Y315039D01*
X422708Y314989D01*
X422620Y314942D01*
X422530Y314898D01*
X422439Y314858D01*
X422346Y314822D01*
X422252Y314789D01*
X422156Y314760D01*
X422060Y314735D01*
X421963Y314714D01*
X421864Y314696D01*
X421766Y314683D01*
X421666Y314673D01*
X421567Y314667D01*
X421467Y314665D01*
X420197Y314665D01*
X429924Y314665D02*
X429924Y326095D01*
X433734Y319745D01*
X437544Y326095D01*
X437544Y314665D01*
X443703Y314665D02*
X443703Y326095D01*
X446878Y326095D01*
X446989Y326093D01*
X447099Y326087D01*
X447210Y326078D01*
X447320Y326064D01*
X447429Y326047D01*
X447538Y326026D01*
X447646Y326001D01*
X447753Y325972D01*
X447859Y325940D01*
X447964Y325904D01*
X448067Y325864D01*
X448169Y325821D01*
X448270Y325774D01*
X448369Y325723D01*
X448466Y325670D01*
X448560Y325613D01*
X448653Y325552D01*
X448744Y325489D01*
X448833Y325422D01*
X448919Y325352D01*
X449002Y325279D01*
X449084Y325204D01*
X449162Y325126D01*
X449237Y325044D01*
X449310Y324961D01*
X449380Y324875D01*
X449447Y324786D01*
X449510Y324695D01*
X449571Y324602D01*
X449628Y324507D01*
X449681Y324411D01*
X449732Y324312D01*
X449779Y324211D01*
X449822Y324109D01*
X449862Y324006D01*
X449898Y323901D01*
X449930Y323795D01*
X449959Y323688D01*
X449984Y323580D01*
X450005Y323471D01*
X450022Y323362D01*
X450036Y323252D01*
X450045Y323141D01*
X450051Y323031D01*
X450053Y322920D01*
X450051Y322809D01*
X450045Y322699D01*
X450036Y322588D01*
X450022Y322478D01*
X450005Y322369D01*
X449984Y322260D01*
X449959Y322152D01*
X449930Y322045D01*
X449898Y321939D01*
X449862Y321834D01*
X449822Y321731D01*
X449779Y321629D01*
X449732Y321528D01*
X449681Y321429D01*
X449628Y321332D01*
X449571Y321238D01*
X449510Y321145D01*
X449447Y321054D01*
X449380Y320965D01*
X449310Y320879D01*
X449237Y320796D01*
X449162Y320714D01*
X449084Y320636D01*
X449002Y320561D01*
X448919Y320488D01*
X448833Y320418D01*
X448744Y320351D01*
X448653Y320288D01*
X448560Y320227D01*
X448466Y320170D01*
X448369Y320117D01*
X448270Y320066D01*
X448169Y320019D01*
X448067Y319976D01*
X447964Y319936D01*
X447859Y319900D01*
X447753Y319868D01*
X447646Y319839D01*
X447538Y319814D01*
X447429Y319793D01*
X447320Y319776D01*
X447210Y319762D01*
X447099Y319753D01*
X446989Y319747D01*
X446878Y319745D01*
X443703Y319745D01*
X455026Y314665D02*
X455026Y326095D01*
X458201Y326095D01*
X458312Y326093D01*
X458422Y326087D01*
X458533Y326078D01*
X458643Y326064D01*
X458752Y326047D01*
X458861Y326026D01*
X458969Y326001D01*
X459076Y325972D01*
X459182Y325940D01*
X459287Y325904D01*
X459390Y325864D01*
X459492Y325821D01*
X459593Y325774D01*
X459692Y325723D01*
X459789Y325670D01*
X459883Y325613D01*
X459976Y325552D01*
X460067Y325489D01*
X460156Y325422D01*
X460242Y325352D01*
X460325Y325279D01*
X460407Y325204D01*
X460485Y325126D01*
X460560Y325044D01*
X460633Y324961D01*
X460703Y324875D01*
X460770Y324786D01*
X460833Y324695D01*
X460894Y324602D01*
X460951Y324507D01*
X461004Y324411D01*
X461055Y324312D01*
X461102Y324211D01*
X461145Y324109D01*
X461185Y324006D01*
X461221Y323901D01*
X461253Y323795D01*
X461282Y323688D01*
X461307Y323580D01*
X461328Y323471D01*
X461345Y323362D01*
X461359Y323252D01*
X461368Y323141D01*
X461374Y323031D01*
X461376Y322920D01*
X461374Y322809D01*
X461368Y322699D01*
X461359Y322588D01*
X461345Y322478D01*
X461328Y322369D01*
X461307Y322260D01*
X461282Y322152D01*
X461253Y322045D01*
X461221Y321939D01*
X461185Y321834D01*
X461145Y321731D01*
X461102Y321629D01*
X461055Y321528D01*
X461004Y321429D01*
X460951Y321332D01*
X460894Y321238D01*
X460833Y321145D01*
X460770Y321054D01*
X460703Y320965D01*
X460633Y320879D01*
X460560Y320796D01*
X460485Y320714D01*
X460407Y320636D01*
X460325Y320561D01*
X460242Y320488D01*
X460156Y320418D01*
X460067Y320351D01*
X459976Y320288D01*
X459883Y320227D01*
X459789Y320170D01*
X459692Y320117D01*
X459593Y320066D01*
X459492Y320019D01*
X459390Y319976D01*
X459287Y319936D01*
X459182Y319900D01*
X459076Y319868D01*
X458969Y319839D01*
X458861Y319814D01*
X458752Y319793D01*
X458643Y319776D01*
X458533Y319762D01*
X458422Y319753D01*
X458312Y319747D01*
X458201Y319745D01*
X455026Y319745D01*
X458836Y319745D02*
X461376Y314665D01*
D11*
X2080Y321780D02*
X2080Y173780D01*
X145080Y173780D01*
X145080Y321780D01*
X2080Y321780D01*
D14*
X16780Y285880D02*
X75280Y298580D01*
X16780Y285880D02*
X16780Y273180D01*
X75280Y260480D01*
X75280Y235080D02*
X16780Y222380D01*
X16780Y209680D01*
X75280Y196980D01*
D15*
X102980Y272380D02*
X102982Y272240D01*
X102988Y272100D01*
X102998Y271960D01*
X103011Y271820D01*
X103029Y271681D01*
X103051Y271542D01*
X103076Y271405D01*
X103105Y271267D01*
X103138Y271131D01*
X103175Y270996D01*
X103216Y270862D01*
X103261Y270729D01*
X103309Y270597D01*
X103361Y270467D01*
X103416Y270338D01*
X103475Y270211D01*
X103538Y270085D01*
X103604Y269961D01*
X103673Y269840D01*
X103746Y269720D01*
X103823Y269602D01*
X103902Y269487D01*
X103985Y269373D01*
X104071Y269263D01*
X104160Y269154D01*
X104252Y269048D01*
X104347Y268945D01*
X104444Y268844D01*
X104545Y268747D01*
X104648Y268652D01*
X104754Y268560D01*
X104863Y268471D01*
X104973Y268385D01*
X105087Y268302D01*
X105202Y268223D01*
X105320Y268146D01*
X105440Y268073D01*
X105561Y268004D01*
X105685Y267938D01*
X105811Y267875D01*
X105938Y267816D01*
X106067Y267761D01*
X106197Y267709D01*
X106329Y267661D01*
X106462Y267616D01*
X106596Y267575D01*
X106731Y267538D01*
X106867Y267505D01*
X107005Y267476D01*
X107142Y267451D01*
X107281Y267429D01*
X107420Y267411D01*
X107560Y267398D01*
X107700Y267388D01*
X107840Y267382D01*
X107980Y267380D01*
X108120Y267382D01*
X108260Y267388D01*
X108400Y267398D01*
X108540Y267411D01*
X108679Y267429D01*
X108818Y267451D01*
X108955Y267476D01*
X109093Y267505D01*
X109229Y267538D01*
X109364Y267575D01*
X109498Y267616D01*
X109631Y267661D01*
X109763Y267709D01*
X109893Y267761D01*
X110022Y267816D01*
X110149Y267875D01*
X110275Y267938D01*
X110399Y268004D01*
X110520Y268073D01*
X110640Y268146D01*
X110758Y268223D01*
X110873Y268302D01*
X110987Y268385D01*
X111097Y268471D01*
X111206Y268560D01*
X111312Y268652D01*
X111415Y268747D01*
X111516Y268844D01*
X111613Y268945D01*
X111708Y269048D01*
X111800Y269154D01*
X111889Y269263D01*
X111975Y269373D01*
X112058Y269487D01*
X112137Y269602D01*
X112214Y269720D01*
X112287Y269840D01*
X112356Y269961D01*
X112422Y270085D01*
X112485Y270211D01*
X112544Y270338D01*
X112599Y270467D01*
X112651Y270597D01*
X112699Y270729D01*
X112744Y270862D01*
X112785Y270996D01*
X112822Y271131D01*
X112855Y271267D01*
X112884Y271405D01*
X112909Y271542D01*
X112931Y271681D01*
X112949Y271820D01*
X112962Y271960D01*
X112972Y272100D01*
X112978Y272240D01*
X112980Y272380D01*
X102980Y272380D02*
X102978Y272240D01*
X102972Y272100D01*
X102962Y271960D01*
X102949Y271820D01*
X102931Y271681D01*
X102909Y271542D01*
X102884Y271405D01*
X102855Y271267D01*
X102822Y271131D01*
X102785Y270996D01*
X102744Y270862D01*
X102699Y270729D01*
X102651Y270597D01*
X102599Y270467D01*
X102544Y270338D01*
X102485Y270211D01*
X102422Y270085D01*
X102356Y269961D01*
X102287Y269840D01*
X102214Y269720D01*
X102137Y269602D01*
X102058Y269487D01*
X101975Y269373D01*
X101889Y269263D01*
X101800Y269154D01*
X101708Y269048D01*
X101613Y268945D01*
X101516Y268844D01*
X101415Y268747D01*
X101312Y268652D01*
X101206Y268560D01*
X101097Y268471D01*
X100987Y268385D01*
X100873Y268302D01*
X100758Y268223D01*
X100640Y268146D01*
X100520Y268073D01*
X100399Y268004D01*
X100275Y267938D01*
X100149Y267875D01*
X100022Y267816D01*
X99893Y267761D01*
X99763Y267709D01*
X99631Y267661D01*
X99498Y267616D01*
X99364Y267575D01*
X99229Y267538D01*
X99093Y267505D01*
X98955Y267476D01*
X98818Y267451D01*
X98679Y267429D01*
X98540Y267411D01*
X98400Y267398D01*
X98260Y267388D01*
X98120Y267382D01*
X97980Y267380D01*
X97840Y267382D01*
X97700Y267388D01*
X97560Y267398D01*
X97420Y267411D01*
X97281Y267429D01*
X97142Y267451D01*
X97005Y267476D01*
X96867Y267505D01*
X96731Y267538D01*
X96596Y267575D01*
X96462Y267616D01*
X96329Y267661D01*
X96197Y267709D01*
X96067Y267761D01*
X95938Y267816D01*
X95811Y267875D01*
X95685Y267938D01*
X95561Y268004D01*
X95440Y268073D01*
X95320Y268146D01*
X95202Y268223D01*
X95087Y268302D01*
X94973Y268385D01*
X94863Y268471D01*
X94754Y268560D01*
X94648Y268652D01*
X94545Y268747D01*
X94444Y268844D01*
X94347Y268945D01*
X94252Y269048D01*
X94160Y269154D01*
X94071Y269263D01*
X93985Y269373D01*
X93902Y269487D01*
X93823Y269602D01*
X93746Y269720D01*
X93673Y269840D01*
X93604Y269961D01*
X93538Y270085D01*
X93475Y270211D01*
X93416Y270338D01*
X93361Y270467D01*
X93309Y270597D01*
X93261Y270729D01*
X93216Y270862D01*
X93175Y270996D01*
X93138Y271131D01*
X93105Y271267D01*
X93076Y271405D01*
X93051Y271542D01*
X93029Y271681D01*
X93011Y271820D01*
X92998Y271960D01*
X92988Y272100D01*
X92982Y272240D01*
X92980Y272380D01*
X97980Y211130D02*
X97982Y211270D01*
X97988Y211410D01*
X97998Y211550D01*
X98011Y211690D01*
X98029Y211829D01*
X98051Y211968D01*
X98076Y212105D01*
X98105Y212243D01*
X98138Y212379D01*
X98175Y212514D01*
X98216Y212648D01*
X98261Y212781D01*
X98309Y212913D01*
X98361Y213043D01*
X98416Y213172D01*
X98475Y213299D01*
X98538Y213425D01*
X98604Y213549D01*
X98673Y213670D01*
X98746Y213790D01*
X98823Y213908D01*
X98902Y214023D01*
X98985Y214137D01*
X99071Y214247D01*
X99160Y214356D01*
X99252Y214462D01*
X99347Y214565D01*
X99444Y214666D01*
X99545Y214763D01*
X99648Y214858D01*
X99754Y214950D01*
X99863Y215039D01*
X99973Y215125D01*
X100087Y215208D01*
X100202Y215287D01*
X100320Y215364D01*
X100440Y215437D01*
X100561Y215506D01*
X100685Y215572D01*
X100811Y215635D01*
X100938Y215694D01*
X101067Y215749D01*
X101197Y215801D01*
X101329Y215849D01*
X101462Y215894D01*
X101596Y215935D01*
X101731Y215972D01*
X101867Y216005D01*
X102005Y216034D01*
X102142Y216059D01*
X102281Y216081D01*
X102420Y216099D01*
X102560Y216112D01*
X102700Y216122D01*
X102840Y216128D01*
X102980Y216130D01*
X103120Y216128D01*
X103260Y216122D01*
X103400Y216112D01*
X103540Y216099D01*
X103679Y216081D01*
X103818Y216059D01*
X103955Y216034D01*
X104093Y216005D01*
X104229Y215972D01*
X104364Y215935D01*
X104498Y215894D01*
X104631Y215849D01*
X104763Y215801D01*
X104893Y215749D01*
X105022Y215694D01*
X105149Y215635D01*
X105275Y215572D01*
X105399Y215506D01*
X105520Y215437D01*
X105640Y215364D01*
X105758Y215287D01*
X105873Y215208D01*
X105987Y215125D01*
X106097Y215039D01*
X106206Y214950D01*
X106312Y214858D01*
X106415Y214763D01*
X106516Y214666D01*
X106613Y214565D01*
X106708Y214462D01*
X106800Y214356D01*
X106889Y214247D01*
X106975Y214137D01*
X107058Y214023D01*
X107137Y213908D01*
X107214Y213790D01*
X107287Y213670D01*
X107356Y213549D01*
X107422Y213425D01*
X107485Y213299D01*
X107544Y213172D01*
X107599Y213043D01*
X107651Y212913D01*
X107699Y212781D01*
X107744Y212648D01*
X107785Y212514D01*
X107822Y212379D01*
X107855Y212243D01*
X107884Y212105D01*
X107909Y211968D01*
X107931Y211829D01*
X107949Y211690D01*
X107962Y211550D01*
X107972Y211410D01*
X107978Y211270D01*
X107980Y211130D01*
X112980Y213630D02*
X112977Y213874D01*
X112968Y214117D01*
X112953Y214360D01*
X112933Y214603D01*
X112906Y214845D01*
X112873Y215086D01*
X112835Y215326D01*
X112791Y215566D01*
X112741Y215804D01*
X112685Y216041D01*
X112623Y216277D01*
X112556Y216511D01*
X112483Y216743D01*
X112404Y216974D01*
X112320Y217202D01*
X112230Y217429D01*
X112135Y217653D01*
X112034Y217875D01*
X111928Y218094D01*
X111817Y218310D01*
X111700Y218524D01*
X111579Y218735D01*
X111452Y218943D01*
X111320Y219148D01*
X111183Y219349D01*
X111041Y219547D01*
X110895Y219742D01*
X110744Y219933D01*
X110588Y220120D01*
X110428Y220303D01*
X110263Y220483D01*
X110094Y220658D01*
X109921Y220829D01*
X109743Y220996D01*
X109562Y221158D01*
X109377Y221316D01*
X109188Y221470D01*
X108995Y221619D01*
X108799Y221763D01*
X108599Y221902D01*
X108396Y222037D01*
X108189Y222166D01*
X107980Y222290D01*
X107768Y222409D01*
X107552Y222523D01*
X107335Y222632D01*
X107114Y222735D01*
X106891Y222833D01*
X106666Y222926D01*
X106438Y223013D01*
X106209Y223094D01*
X105977Y223170D01*
X105744Y223240D01*
X105509Y223305D01*
X105273Y223364D01*
X105035Y223417D01*
X104796Y223464D01*
X104556Y223505D01*
X104315Y223540D01*
X104074Y223570D01*
X103831Y223594D01*
X103588Y223611D01*
X103345Y223623D01*
X103102Y223629D01*
X102858Y223629D01*
X102615Y223623D01*
X102372Y223611D01*
X102129Y223594D01*
X101886Y223570D01*
X101645Y223540D01*
X101404Y223505D01*
X101164Y223464D01*
X100925Y223417D01*
X100687Y223364D01*
X100451Y223305D01*
X100216Y223240D01*
X99983Y223170D01*
X99751Y223094D01*
X99522Y223013D01*
X99294Y222926D01*
X99069Y222833D01*
X98846Y222735D01*
X98625Y222632D01*
X98408Y222523D01*
X98192Y222409D01*
X97980Y222290D01*
X97771Y222166D01*
X97564Y222037D01*
X97361Y221902D01*
X97161Y221763D01*
X96965Y221619D01*
X96772Y221470D01*
X96583Y221316D01*
X96398Y221158D01*
X96217Y220996D01*
X96039Y220829D01*
X95866Y220658D01*
X95697Y220483D01*
X95532Y220303D01*
X95372Y220120D01*
X95216Y219933D01*
X95065Y219742D01*
X94919Y219547D01*
X94777Y219349D01*
X94640Y219148D01*
X94508Y218943D01*
X94381Y218735D01*
X94260Y218524D01*
X94143Y218310D01*
X94032Y218094D01*
X93926Y217875D01*
X93825Y217653D01*
X93730Y217429D01*
X93640Y217202D01*
X93556Y216974D01*
X93477Y216743D01*
X93404Y216511D01*
X93337Y216277D01*
X93275Y216041D01*
X93219Y215804D01*
X93169Y215566D01*
X93125Y215326D01*
X93087Y215086D01*
X93054Y214845D01*
X93027Y214603D01*
X93007Y214360D01*
X92992Y214117D01*
X92983Y213874D01*
X92980Y213630D01*
X107980Y211130D02*
X108035Y210677D01*
X108079Y210224D01*
X108112Y209769D01*
X108134Y209314D01*
X108145Y208858D01*
X108145Y208402D01*
X108134Y207946D01*
X108112Y207491D01*
X108079Y207036D01*
X108035Y206583D01*
X107980Y206130D01*
X112430Y206030D02*
X112570Y206867D01*
X112691Y207707D01*
X112791Y208549D01*
X112872Y209393D01*
X112934Y210239D01*
X112975Y211086D01*
X112997Y211934D01*
X112998Y212782D01*
X112980Y213630D01*
X92980Y213630D02*
X92989Y213085D01*
X93010Y212540D01*
X93044Y211995D01*
X93090Y211452D01*
X93149Y210909D01*
X93220Y210369D01*
X93303Y209830D01*
X93399Y209293D01*
X93507Y208758D01*
X93628Y208226D01*
X93760Y207697D01*
X93905Y207171D01*
X94062Y206649D01*
X94230Y206130D01*
X100480Y231130D02*
X100482Y230973D01*
X100488Y230816D01*
X100498Y230659D01*
X100512Y230503D01*
X100529Y230347D01*
X100551Y230191D01*
X100576Y230036D01*
X100606Y229882D01*
X100639Y229728D01*
X100676Y229576D01*
X100717Y229424D01*
X100762Y229273D01*
X100811Y229124D01*
X100863Y228976D01*
X100919Y228829D01*
X100979Y228684D01*
X101042Y228540D01*
X101109Y228398D01*
X101179Y228258D01*
X101253Y228119D01*
X101330Y227982D01*
X101411Y227848D01*
X101495Y227715D01*
X101583Y227585D01*
X101674Y227456D01*
X101768Y227330D01*
X101865Y227207D01*
X101965Y227086D01*
X102068Y226967D01*
X102174Y226852D01*
X102283Y226738D01*
X102395Y226628D01*
X102509Y226521D01*
X102626Y226416D01*
X102746Y226314D01*
X102868Y226216D01*
X102993Y226120D01*
X103120Y226028D01*
X103250Y225939D01*
X103381Y225853D01*
X103515Y225770D01*
X103650Y225691D01*
X103788Y225616D01*
X103928Y225543D01*
X104069Y225475D01*
X104212Y225410D01*
X104356Y225348D01*
X104502Y225290D01*
X104650Y225236D01*
X104799Y225186D01*
X104949Y225139D01*
X105100Y225096D01*
X105252Y225057D01*
X105405Y225022D01*
X105559Y224991D01*
X105714Y224963D01*
X105869Y224940D01*
X106025Y224920D01*
X106181Y224904D01*
X106338Y224892D01*
X106494Y224884D01*
X106651Y224880D01*
X106809Y224880D01*
X106966Y224884D01*
X107122Y224892D01*
X107279Y224904D01*
X107435Y224920D01*
X107591Y224940D01*
X107746Y224963D01*
X107901Y224991D01*
X108055Y225022D01*
X108208Y225057D01*
X108360Y225096D01*
X108511Y225139D01*
X108661Y225186D01*
X108810Y225236D01*
X108958Y225290D01*
X109104Y225348D01*
X109248Y225410D01*
X109391Y225475D01*
X109532Y225543D01*
X109672Y225616D01*
X109810Y225691D01*
X109945Y225770D01*
X110079Y225853D01*
X110210Y225939D01*
X110340Y226028D01*
X110467Y226120D01*
X110592Y226216D01*
X110714Y226314D01*
X110834Y226416D01*
X110951Y226521D01*
X111065Y226628D01*
X111177Y226738D01*
X111286Y226852D01*
X111392Y226967D01*
X111495Y227086D01*
X111595Y227207D01*
X111692Y227330D01*
X111786Y227456D01*
X111877Y227585D01*
X111965Y227715D01*
X112049Y227848D01*
X112130Y227982D01*
X112207Y228119D01*
X112281Y228258D01*
X112351Y228398D01*
X112418Y228540D01*
X112481Y228684D01*
X112541Y228829D01*
X112597Y228976D01*
X112649Y229124D01*
X112698Y229273D01*
X112743Y229424D01*
X112784Y229576D01*
X112821Y229728D01*
X112854Y229882D01*
X112884Y230036D01*
X112909Y230191D01*
X112931Y230347D01*
X112948Y230503D01*
X112962Y230659D01*
X112972Y230816D01*
X112978Y230973D01*
X112980Y231130D01*
X107980Y234880D02*
X107978Y234795D01*
X107972Y234709D01*
X107963Y234625D01*
X107949Y234540D01*
X107932Y234457D01*
X107910Y234374D01*
X107886Y234292D01*
X107857Y234212D01*
X107825Y234133D01*
X107789Y234055D01*
X107750Y233980D01*
X107707Y233906D01*
X107661Y233834D01*
X107612Y233764D01*
X107559Y233697D01*
X107504Y233632D01*
X107446Y233569D01*
X107385Y233510D01*
X107321Y233453D01*
X107255Y233399D01*
X107186Y233348D01*
X107115Y233301D01*
X107042Y233256D01*
X106968Y233215D01*
X106891Y233178D01*
X106813Y233144D01*
X106733Y233113D01*
X106652Y233087D01*
X106570Y233063D01*
X106486Y233044D01*
X106403Y233029D01*
X106318Y233017D01*
X106233Y233009D01*
X106148Y233005D01*
X106062Y233005D01*
X105977Y233009D01*
X105892Y233017D01*
X105807Y233029D01*
X105724Y233044D01*
X105640Y233063D01*
X105558Y233087D01*
X105477Y233113D01*
X105397Y233144D01*
X105319Y233178D01*
X105242Y233215D01*
X105168Y233256D01*
X105095Y233301D01*
X105024Y233348D01*
X104955Y233399D01*
X104889Y233453D01*
X104825Y233510D01*
X104764Y233569D01*
X104706Y233632D01*
X104651Y233697D01*
X104598Y233764D01*
X104549Y233834D01*
X104503Y233906D01*
X104460Y233980D01*
X104421Y234055D01*
X104385Y234133D01*
X104353Y234212D01*
X104324Y234292D01*
X104300Y234374D01*
X104278Y234457D01*
X104261Y234540D01*
X104247Y234625D01*
X104238Y234709D01*
X104232Y234795D01*
X104230Y234880D01*
X112980Y286130D02*
X92980Y286130D01*
X92980Y279880D01*
X102980Y279880D01*
X112980Y279880D01*
X112980Y286130D01*
X112980Y279880D02*
X107980Y272380D01*
X102980Y279880D01*
X97980Y272380D01*
X92980Y279880D01*
X92980Y272380D01*
X112980Y272380D02*
X112980Y279880D01*
X112980Y264880D02*
X92980Y264880D01*
X92980Y247380D01*
X97980Y247380D01*
X97980Y258630D01*
X100480Y258630D01*
X100480Y247380D01*
X105480Y247380D01*
X105480Y258630D01*
X107980Y258630D01*
X107980Y247380D01*
X112980Y247380D01*
X112980Y264880D01*
X112980Y244880D02*
X92980Y244880D01*
X92980Y238630D01*
X100480Y238630D01*
X92980Y233630D01*
X92980Y226130D01*
X100480Y231130D01*
X104230Y238630D02*
X107980Y238630D01*
X112980Y244880D02*
X112980Y231130D01*
X107980Y234880D02*
X107980Y238630D01*
X104230Y238630D02*
X104230Y234880D01*
X102980Y211130D02*
X102980Y206130D01*
X102980Y211130D02*
X97980Y211130D01*
X107980Y206180D02*
X112430Y206180D01*
X102980Y206130D02*
X94230Y206130D01*
D16*
X87517Y232071D02*
X87517Y233765D01*
X87517Y232071D02*
X83707Y232071D01*
X83707Y233765D01*
X85400Y233341D02*
X85400Y232071D01*
X83707Y237192D02*
X87517Y237192D01*
X87517Y238885D01*
X87517Y242312D02*
X87517Y244006D01*
X87517Y242312D02*
X83707Y242312D01*
X83707Y244006D01*
X85400Y243582D02*
X85400Y242312D01*
X87517Y248142D02*
X87517Y248988D01*
X87517Y248142D02*
X87515Y248084D01*
X87509Y248027D01*
X87499Y247970D01*
X87486Y247913D01*
X87468Y247858D01*
X87447Y247805D01*
X87422Y247752D01*
X87394Y247702D01*
X87362Y247654D01*
X87327Y247607D01*
X87289Y247564D01*
X87248Y247523D01*
X87205Y247485D01*
X87158Y247450D01*
X87110Y247418D01*
X87060Y247390D01*
X87007Y247365D01*
X86954Y247344D01*
X86899Y247326D01*
X86842Y247313D01*
X86785Y247303D01*
X86728Y247297D01*
X86670Y247295D01*
X84554Y247295D01*
X84496Y247297D01*
X84439Y247303D01*
X84382Y247313D01*
X84325Y247326D01*
X84270Y247344D01*
X84217Y247365D01*
X84164Y247390D01*
X84114Y247418D01*
X84066Y247450D01*
X84019Y247485D01*
X83976Y247523D01*
X83935Y247564D01*
X83897Y247607D01*
X83862Y247654D01*
X83830Y247702D01*
X83802Y247752D01*
X83777Y247805D01*
X83756Y247858D01*
X83738Y247913D01*
X83725Y247970D01*
X83715Y248027D01*
X83709Y248084D01*
X83707Y248142D01*
X83707Y248988D01*
X83707Y253118D02*
X87517Y253118D01*
X83707Y252059D02*
X83707Y254176D01*
X83707Y257567D02*
X87517Y257567D01*
X83707Y257567D02*
X83707Y258625D01*
X83709Y258689D01*
X83715Y258753D01*
X83724Y258816D01*
X83738Y258878D01*
X83755Y258940D01*
X83776Y259000D01*
X83800Y259059D01*
X83828Y259117D01*
X83860Y259172D01*
X83894Y259226D01*
X83932Y259277D01*
X83973Y259327D01*
X84017Y259373D01*
X84063Y259417D01*
X84113Y259458D01*
X84164Y259496D01*
X84218Y259530D01*
X84273Y259562D01*
X84331Y259590D01*
X84390Y259614D01*
X84450Y259635D01*
X84512Y259652D01*
X84574Y259666D01*
X84637Y259675D01*
X84701Y259681D01*
X84765Y259683D01*
X84829Y259681D01*
X84893Y259675D01*
X84956Y259666D01*
X85018Y259652D01*
X85080Y259635D01*
X85140Y259614D01*
X85199Y259590D01*
X85257Y259562D01*
X85312Y259530D01*
X85366Y259496D01*
X85417Y259458D01*
X85467Y259417D01*
X85513Y259373D01*
X85557Y259327D01*
X85598Y259277D01*
X85636Y259226D01*
X85670Y259172D01*
X85702Y259117D01*
X85730Y259059D01*
X85754Y259000D01*
X85775Y258940D01*
X85792Y258878D01*
X85806Y258816D01*
X85815Y258753D01*
X85821Y258689D01*
X85823Y258625D01*
X85824Y258625D02*
X85824Y257567D01*
X85824Y258837D02*
X87517Y259683D01*
X86459Y263154D02*
X84765Y263154D01*
X84701Y263156D01*
X84637Y263162D01*
X84574Y263171D01*
X84512Y263185D01*
X84450Y263202D01*
X84390Y263223D01*
X84331Y263247D01*
X84273Y263275D01*
X84218Y263307D01*
X84164Y263341D01*
X84113Y263379D01*
X84063Y263420D01*
X84017Y263464D01*
X83973Y263510D01*
X83932Y263560D01*
X83894Y263611D01*
X83860Y263665D01*
X83828Y263720D01*
X83800Y263778D01*
X83776Y263837D01*
X83755Y263897D01*
X83738Y263959D01*
X83724Y264021D01*
X83715Y264084D01*
X83709Y264148D01*
X83707Y264212D01*
X83709Y264276D01*
X83715Y264340D01*
X83724Y264403D01*
X83738Y264465D01*
X83755Y264527D01*
X83776Y264587D01*
X83800Y264646D01*
X83828Y264704D01*
X83860Y264759D01*
X83894Y264813D01*
X83932Y264864D01*
X83973Y264914D01*
X84017Y264960D01*
X84063Y265004D01*
X84113Y265045D01*
X84164Y265083D01*
X84218Y265117D01*
X84273Y265149D01*
X84331Y265177D01*
X84390Y265201D01*
X84450Y265222D01*
X84512Y265239D01*
X84574Y265253D01*
X84637Y265262D01*
X84701Y265268D01*
X84765Y265270D01*
X84765Y265271D02*
X86459Y265271D01*
X86459Y265270D02*
X86523Y265268D01*
X86587Y265262D01*
X86650Y265253D01*
X86712Y265239D01*
X86774Y265222D01*
X86834Y265201D01*
X86893Y265177D01*
X86951Y265149D01*
X87006Y265117D01*
X87060Y265083D01*
X87111Y265045D01*
X87161Y265004D01*
X87207Y264960D01*
X87251Y264914D01*
X87292Y264864D01*
X87330Y264813D01*
X87364Y264759D01*
X87396Y264704D01*
X87424Y264646D01*
X87448Y264587D01*
X87469Y264527D01*
X87486Y264465D01*
X87500Y264403D01*
X87509Y264340D01*
X87515Y264276D01*
X87517Y264212D01*
X87515Y264148D01*
X87509Y264084D01*
X87500Y264021D01*
X87486Y263959D01*
X87469Y263897D01*
X87448Y263837D01*
X87424Y263778D01*
X87396Y263720D01*
X87364Y263665D01*
X87330Y263611D01*
X87292Y263560D01*
X87251Y263510D01*
X87207Y263464D01*
X87161Y263420D01*
X87111Y263379D01*
X87060Y263341D01*
X87006Y263307D01*
X86951Y263275D01*
X86893Y263247D01*
X86834Y263223D01*
X86774Y263202D01*
X86712Y263185D01*
X86650Y263171D01*
X86587Y263162D01*
X86523Y263156D01*
X86459Y263154D01*
X87517Y268884D02*
X83707Y268884D01*
X87517Y271001D01*
X83707Y271001D01*
X83707Y274941D02*
X87517Y274941D01*
X87517Y274518D02*
X87517Y275365D01*
X83707Y275365D02*
X83707Y274518D01*
X87517Y279597D02*
X87517Y280443D01*
X87517Y279597D02*
X87515Y279539D01*
X87509Y279482D01*
X87499Y279425D01*
X87486Y279368D01*
X87468Y279313D01*
X87447Y279260D01*
X87422Y279207D01*
X87394Y279157D01*
X87362Y279109D01*
X87327Y279062D01*
X87289Y279019D01*
X87248Y278978D01*
X87205Y278940D01*
X87158Y278905D01*
X87110Y278873D01*
X87060Y278845D01*
X87007Y278820D01*
X86954Y278799D01*
X86899Y278781D01*
X86842Y278768D01*
X86785Y278758D01*
X86728Y278752D01*
X86670Y278750D01*
X84554Y278750D01*
X84496Y278752D01*
X84439Y278758D01*
X84382Y278768D01*
X84325Y278781D01*
X84270Y278799D01*
X84217Y278820D01*
X84164Y278845D01*
X84114Y278873D01*
X84066Y278905D01*
X84019Y278940D01*
X83976Y278978D01*
X83935Y279019D01*
X83897Y279062D01*
X83862Y279109D01*
X83830Y279157D01*
X83802Y279207D01*
X83777Y279260D01*
X83756Y279313D01*
X83738Y279368D01*
X83725Y279425D01*
X83715Y279482D01*
X83709Y279539D01*
X83707Y279597D01*
X83707Y280443D01*
X87517Y284906D02*
X87515Y284961D01*
X87510Y285017D01*
X87501Y285071D01*
X87488Y285125D01*
X87472Y285178D01*
X87453Y285230D01*
X87430Y285281D01*
X87404Y285330D01*
X87374Y285377D01*
X87342Y285422D01*
X87307Y285464D01*
X87269Y285505D01*
X87228Y285543D01*
X87186Y285578D01*
X87141Y285610D01*
X87094Y285640D01*
X87045Y285666D01*
X86994Y285689D01*
X86942Y285708D01*
X86889Y285724D01*
X86835Y285737D01*
X86781Y285746D01*
X86725Y285751D01*
X86670Y285753D01*
X87517Y284906D02*
X87515Y284823D01*
X87509Y284740D01*
X87500Y284658D01*
X87486Y284576D01*
X87469Y284494D01*
X87448Y284414D01*
X87423Y284335D01*
X87395Y284256D01*
X87363Y284180D01*
X87327Y284105D01*
X87289Y284031D01*
X87246Y283960D01*
X87201Y283890D01*
X87152Y283823D01*
X87100Y283758D01*
X87045Y283696D01*
X86988Y283636D01*
X84554Y283742D02*
X84499Y283744D01*
X84443Y283749D01*
X84389Y283758D01*
X84335Y283771D01*
X84282Y283787D01*
X84230Y283806D01*
X84179Y283829D01*
X84131Y283855D01*
X84083Y283885D01*
X84038Y283917D01*
X83996Y283952D01*
X83955Y283990D01*
X83917Y284031D01*
X83882Y284073D01*
X83850Y284118D01*
X83820Y284166D01*
X83794Y284214D01*
X83771Y284265D01*
X83752Y284317D01*
X83736Y284370D01*
X83723Y284424D01*
X83714Y284478D01*
X83709Y284534D01*
X83707Y284589D01*
X83709Y284668D01*
X83715Y284746D01*
X83724Y284824D01*
X83738Y284901D01*
X83755Y284978D01*
X83777Y285054D01*
X83801Y285128D01*
X83830Y285202D01*
X83862Y285273D01*
X83898Y285343D01*
X83937Y285412D01*
X83979Y285478D01*
X84025Y285542D01*
X85295Y284165D02*
X85265Y284118D01*
X85232Y284073D01*
X85196Y284030D01*
X85158Y283990D01*
X85117Y283952D01*
X85074Y283917D01*
X85028Y283885D01*
X84981Y283855D01*
X84931Y283829D01*
X84880Y283806D01*
X84828Y283787D01*
X84775Y283771D01*
X84720Y283758D01*
X84665Y283749D01*
X84610Y283744D01*
X84554Y283742D01*
X85929Y285330D02*
X85959Y285377D01*
X85992Y285422D01*
X86028Y285465D01*
X86066Y285505D01*
X86107Y285543D01*
X86150Y285578D01*
X86196Y285610D01*
X86243Y285640D01*
X86293Y285666D01*
X86344Y285689D01*
X86396Y285708D01*
X86449Y285724D01*
X86504Y285737D01*
X86559Y285746D01*
X86614Y285751D01*
X86670Y285753D01*
X85930Y285330D02*
X85295Y284166D01*
D10*
X155288Y176011D02*
X163726Y176011D01*
X163839Y176013D01*
X163952Y176019D01*
X164065Y176029D01*
X164178Y176043D01*
X164290Y176060D01*
X164401Y176082D01*
X164511Y176107D01*
X164621Y176137D01*
X164729Y176170D01*
X164836Y176207D01*
X164942Y176247D01*
X165046Y176292D01*
X165149Y176340D01*
X165250Y176391D01*
X165349Y176446D01*
X165446Y176504D01*
X165541Y176566D01*
X165634Y176631D01*
X165724Y176699D01*
X165812Y176770D01*
X165898Y176845D01*
X165981Y176922D01*
X166061Y177002D01*
X166138Y177085D01*
X166213Y177171D01*
X166284Y177259D01*
X166352Y177349D01*
X166417Y177442D01*
X166479Y177537D01*
X166537Y177634D01*
X166592Y177733D01*
X166643Y177834D01*
X166691Y177937D01*
X166736Y178041D01*
X166776Y178147D01*
X166813Y178254D01*
X166846Y178362D01*
X166876Y178472D01*
X166901Y178582D01*
X166923Y178693D01*
X166940Y178805D01*
X166954Y178918D01*
X166964Y179031D01*
X166970Y179144D01*
X166972Y179257D01*
X166970Y179370D01*
X166964Y179483D01*
X166954Y179596D01*
X166940Y179709D01*
X166923Y179821D01*
X166901Y179932D01*
X166876Y180042D01*
X166846Y180152D01*
X166813Y180260D01*
X166776Y180367D01*
X166736Y180473D01*
X166691Y180577D01*
X166643Y180680D01*
X166592Y180781D01*
X166537Y180880D01*
X166479Y180977D01*
X166417Y181072D01*
X166352Y181165D01*
X166284Y181255D01*
X166213Y181343D01*
X166138Y181429D01*
X166061Y181512D01*
X165981Y181592D01*
X165898Y181669D01*
X165812Y181744D01*
X165724Y181815D01*
X165634Y181883D01*
X165541Y181948D01*
X165446Y182010D01*
X165349Y182068D01*
X165250Y182123D01*
X165149Y182174D01*
X165046Y182222D01*
X164942Y182267D01*
X164836Y182307D01*
X164729Y182344D01*
X164621Y182377D01*
X164511Y182407D01*
X164401Y182432D01*
X164290Y182454D01*
X164178Y182471D01*
X164065Y182485D01*
X163952Y182495D01*
X163839Y182501D01*
X163726Y182503D01*
X163726Y182502D02*
X155288Y182502D01*
X164376Y193932D02*
X164475Y193930D01*
X164575Y193924D01*
X164674Y193915D01*
X164772Y193902D01*
X164870Y193885D01*
X164968Y193864D01*
X165064Y193839D01*
X165159Y193811D01*
X165253Y193779D01*
X165346Y193744D01*
X165438Y193705D01*
X165528Y193662D01*
X165616Y193617D01*
X165703Y193567D01*
X165787Y193515D01*
X165870Y193459D01*
X165950Y193401D01*
X166028Y193339D01*
X166103Y193274D01*
X166176Y193206D01*
X166246Y193136D01*
X166314Y193063D01*
X166379Y192988D01*
X166441Y192910D01*
X166499Y192830D01*
X166555Y192747D01*
X166607Y192663D01*
X166657Y192576D01*
X166702Y192488D01*
X166745Y192398D01*
X166784Y192306D01*
X166819Y192213D01*
X166851Y192119D01*
X166879Y192024D01*
X166904Y191928D01*
X166925Y191830D01*
X166942Y191732D01*
X166955Y191634D01*
X166964Y191535D01*
X166970Y191435D01*
X166972Y191336D01*
X166970Y191192D01*
X166964Y191047D01*
X166955Y190903D01*
X166942Y190760D01*
X166925Y190616D01*
X166904Y190473D01*
X166879Y190331D01*
X166851Y190190D01*
X166819Y190049D01*
X166783Y189909D01*
X166744Y189770D01*
X166701Y189632D01*
X166654Y189496D01*
X166604Y189360D01*
X166550Y189226D01*
X166493Y189094D01*
X166432Y188963D01*
X166368Y188834D01*
X166300Y188706D01*
X166230Y188580D01*
X166155Y188456D01*
X166078Y188335D01*
X165997Y188215D01*
X165914Y188097D01*
X165827Y187982D01*
X165737Y187869D01*
X165644Y187758D01*
X165549Y187650D01*
X165450Y187544D01*
X165349Y187441D01*
X157884Y187766D02*
X157785Y187768D01*
X157685Y187774D01*
X157586Y187783D01*
X157488Y187796D01*
X157390Y187813D01*
X157292Y187834D01*
X157196Y187859D01*
X157101Y187887D01*
X157007Y187919D01*
X156914Y187954D01*
X156822Y187993D01*
X156732Y188036D01*
X156644Y188081D01*
X156557Y188131D01*
X156473Y188183D01*
X156390Y188239D01*
X156310Y188297D01*
X156232Y188359D01*
X156157Y188424D01*
X156084Y188492D01*
X156014Y188562D01*
X155946Y188635D01*
X155881Y188710D01*
X155819Y188788D01*
X155761Y188868D01*
X155705Y188951D01*
X155653Y189035D01*
X155603Y189122D01*
X155558Y189210D01*
X155515Y189300D01*
X155476Y189392D01*
X155441Y189485D01*
X155409Y189579D01*
X155381Y189674D01*
X155356Y189770D01*
X155335Y189868D01*
X155318Y189966D01*
X155305Y190064D01*
X155296Y190163D01*
X155290Y190263D01*
X155288Y190362D01*
X155290Y190498D01*
X155296Y190634D01*
X155305Y190770D01*
X155318Y190906D01*
X155336Y191041D01*
X155356Y191175D01*
X155381Y191309D01*
X155409Y191443D01*
X155442Y191575D01*
X155477Y191706D01*
X155517Y191837D01*
X155560Y191966D01*
X155606Y192094D01*
X155657Y192220D01*
X155710Y192346D01*
X155768Y192469D01*
X155828Y192591D01*
X155892Y192711D01*
X155960Y192830D01*
X156030Y192946D01*
X156104Y193060D01*
X156181Y193173D01*
X156262Y193283D01*
X160156Y189064D02*
X160103Y188978D01*
X160046Y188894D01*
X159987Y188812D01*
X159924Y188732D01*
X159858Y188655D01*
X159790Y188580D01*
X159718Y188508D01*
X159644Y188439D01*
X159567Y188373D01*
X159488Y188310D01*
X159406Y188250D01*
X159322Y188193D01*
X159236Y188139D01*
X159148Y188089D01*
X159058Y188042D01*
X158967Y187998D01*
X158873Y187959D01*
X158779Y187922D01*
X158683Y187890D01*
X158585Y187861D01*
X158487Y187836D01*
X158388Y187815D01*
X158288Y187797D01*
X158188Y187784D01*
X158087Y187774D01*
X157985Y187768D01*
X157884Y187766D01*
X162104Y192634D02*
X162157Y192720D01*
X162214Y192804D01*
X162273Y192886D01*
X162336Y192966D01*
X162402Y193043D01*
X162470Y193118D01*
X162542Y193190D01*
X162616Y193259D01*
X162693Y193325D01*
X162772Y193388D01*
X162854Y193448D01*
X162938Y193505D01*
X163024Y193559D01*
X163112Y193609D01*
X163202Y193656D01*
X163293Y193700D01*
X163387Y193739D01*
X163481Y193776D01*
X163577Y193808D01*
X163675Y193837D01*
X163773Y193862D01*
X163872Y193883D01*
X163972Y193901D01*
X164072Y193914D01*
X164173Y193924D01*
X164275Y193930D01*
X164376Y193932D01*
X162104Y192634D02*
X160156Y189064D01*
X160481Y199040D02*
X160481Y202286D01*
X160480Y202286D02*
X160482Y202399D01*
X160488Y202512D01*
X160498Y202625D01*
X160512Y202738D01*
X160529Y202850D01*
X160551Y202961D01*
X160576Y203071D01*
X160606Y203181D01*
X160639Y203289D01*
X160676Y203396D01*
X160716Y203502D01*
X160761Y203606D01*
X160809Y203709D01*
X160860Y203810D01*
X160915Y203909D01*
X160973Y204006D01*
X161035Y204101D01*
X161100Y204194D01*
X161168Y204284D01*
X161239Y204372D01*
X161314Y204458D01*
X161391Y204541D01*
X161471Y204621D01*
X161554Y204698D01*
X161640Y204773D01*
X161728Y204844D01*
X161818Y204912D01*
X161911Y204977D01*
X162006Y205039D01*
X162103Y205097D01*
X162202Y205152D01*
X162303Y205203D01*
X162406Y205251D01*
X162510Y205296D01*
X162616Y205336D01*
X162723Y205373D01*
X162831Y205406D01*
X162941Y205436D01*
X163051Y205461D01*
X163162Y205483D01*
X163274Y205500D01*
X163387Y205514D01*
X163500Y205524D01*
X163613Y205530D01*
X163726Y205532D01*
X163839Y205530D01*
X163952Y205524D01*
X164065Y205514D01*
X164178Y205500D01*
X164290Y205483D01*
X164401Y205461D01*
X164511Y205436D01*
X164621Y205406D01*
X164729Y205373D01*
X164836Y205336D01*
X164942Y205296D01*
X165046Y205251D01*
X165149Y205203D01*
X165250Y205152D01*
X165349Y205097D01*
X165446Y205039D01*
X165541Y204977D01*
X165634Y204912D01*
X165724Y204844D01*
X165812Y204773D01*
X165898Y204698D01*
X165981Y204621D01*
X166061Y204541D01*
X166138Y204458D01*
X166213Y204372D01*
X166284Y204284D01*
X166352Y204194D01*
X166417Y204101D01*
X166479Y204006D01*
X166537Y203909D01*
X166592Y203810D01*
X166643Y203709D01*
X166691Y203606D01*
X166736Y203502D01*
X166776Y203396D01*
X166813Y203289D01*
X166846Y203181D01*
X166876Y203071D01*
X166901Y202961D01*
X166923Y202850D01*
X166940Y202738D01*
X166954Y202625D01*
X166964Y202512D01*
X166970Y202399D01*
X166972Y202286D01*
X166972Y199040D01*
X155288Y199040D01*
X155288Y202286D01*
X155290Y202387D01*
X155296Y202487D01*
X155306Y202587D01*
X155319Y202687D01*
X155337Y202786D01*
X155358Y202885D01*
X155383Y202982D01*
X155412Y203079D01*
X155445Y203174D01*
X155481Y203268D01*
X155521Y203360D01*
X155564Y203451D01*
X155611Y203540D01*
X155661Y203627D01*
X155715Y203713D01*
X155772Y203796D01*
X155832Y203876D01*
X155895Y203955D01*
X155962Y204031D01*
X156031Y204104D01*
X156103Y204174D01*
X156177Y204242D01*
X156254Y204307D01*
X156334Y204368D01*
X156416Y204427D01*
X156500Y204482D01*
X156586Y204534D01*
X156674Y204583D01*
X156764Y204628D01*
X156856Y204670D01*
X156949Y204708D01*
X157044Y204742D01*
X157139Y204773D01*
X157236Y204800D01*
X157334Y204823D01*
X157433Y204843D01*
X157533Y204858D01*
X157633Y204870D01*
X157733Y204878D01*
X157834Y204882D01*
X157934Y204882D01*
X158035Y204878D01*
X158135Y204870D01*
X158235Y204858D01*
X158335Y204843D01*
X158434Y204823D01*
X158532Y204800D01*
X158629Y204773D01*
X158724Y204742D01*
X158819Y204708D01*
X158912Y204670D01*
X159004Y204628D01*
X159094Y204583D01*
X159182Y204534D01*
X159268Y204482D01*
X159352Y204427D01*
X159434Y204368D01*
X159514Y204307D01*
X159591Y204242D01*
X159665Y204174D01*
X159737Y204104D01*
X159806Y204031D01*
X159873Y203955D01*
X159936Y203876D01*
X159996Y203796D01*
X160053Y203713D01*
X160107Y203627D01*
X160157Y203540D01*
X160204Y203451D01*
X160247Y203360D01*
X160287Y203268D01*
X160323Y203174D01*
X160356Y203079D01*
X160385Y202982D01*
X160410Y202885D01*
X160431Y202786D01*
X160449Y202687D01*
X160462Y202587D01*
X160472Y202487D01*
X160478Y202387D01*
X160480Y202286D01*
X168270Y209426D02*
X168270Y214619D01*
X166972Y219558D02*
X155288Y219558D01*
X161779Y223453D01*
X155288Y227347D01*
X166972Y227347D01*
X166972Y235343D02*
X166972Y237940D01*
X166972Y235343D02*
X166970Y235244D01*
X166964Y235144D01*
X166955Y235045D01*
X166942Y234947D01*
X166925Y234849D01*
X166904Y234751D01*
X166879Y234655D01*
X166851Y234560D01*
X166819Y234466D01*
X166784Y234373D01*
X166745Y234281D01*
X166702Y234191D01*
X166657Y234103D01*
X166607Y234016D01*
X166555Y233932D01*
X166499Y233849D01*
X166441Y233769D01*
X166379Y233691D01*
X166314Y233616D01*
X166246Y233543D01*
X166176Y233473D01*
X166103Y233405D01*
X166028Y233340D01*
X165950Y233278D01*
X165870Y233220D01*
X165787Y233164D01*
X165703Y233112D01*
X165616Y233062D01*
X165528Y233017D01*
X165438Y232974D01*
X165346Y232935D01*
X165253Y232900D01*
X165159Y232868D01*
X165064Y232840D01*
X164968Y232815D01*
X164870Y232794D01*
X164772Y232777D01*
X164674Y232764D01*
X164575Y232755D01*
X164475Y232749D01*
X164376Y232747D01*
X157884Y232747D01*
X157884Y232746D02*
X157785Y232748D01*
X157685Y232754D01*
X157586Y232763D01*
X157488Y232776D01*
X157390Y232794D01*
X157292Y232814D01*
X157196Y232839D01*
X157100Y232867D01*
X157006Y232899D01*
X156913Y232934D01*
X156822Y232973D01*
X156732Y233016D01*
X156643Y233061D01*
X156557Y233111D01*
X156472Y233163D01*
X156390Y233219D01*
X156310Y233278D01*
X156232Y233339D01*
X156156Y233404D01*
X156083Y233472D01*
X156013Y233542D01*
X155945Y233615D01*
X155880Y233691D01*
X155819Y233769D01*
X155760Y233849D01*
X155704Y233931D01*
X155652Y234016D01*
X155603Y234102D01*
X155557Y234191D01*
X155514Y234281D01*
X155475Y234372D01*
X155440Y234465D01*
X155408Y234559D01*
X155380Y234655D01*
X155355Y234751D01*
X155335Y234849D01*
X155317Y234947D01*
X155304Y235045D01*
X155295Y235144D01*
X155289Y235243D01*
X155287Y235343D01*
X155288Y235343D02*
X155288Y237940D01*
X155288Y242686D02*
X163726Y242686D01*
X163839Y242688D01*
X163952Y242694D01*
X164065Y242704D01*
X164178Y242718D01*
X164290Y242735D01*
X164401Y242757D01*
X164511Y242782D01*
X164621Y242812D01*
X164729Y242845D01*
X164836Y242882D01*
X164942Y242922D01*
X165046Y242967D01*
X165149Y243015D01*
X165250Y243066D01*
X165349Y243121D01*
X165446Y243179D01*
X165541Y243241D01*
X165634Y243306D01*
X165724Y243374D01*
X165812Y243445D01*
X165898Y243520D01*
X165981Y243597D01*
X166061Y243677D01*
X166138Y243760D01*
X166213Y243846D01*
X166284Y243934D01*
X166352Y244024D01*
X166417Y244117D01*
X166479Y244212D01*
X166537Y244309D01*
X166592Y244408D01*
X166643Y244509D01*
X166691Y244612D01*
X166736Y244716D01*
X166776Y244822D01*
X166813Y244929D01*
X166846Y245037D01*
X166876Y245147D01*
X166901Y245257D01*
X166923Y245368D01*
X166940Y245480D01*
X166954Y245593D01*
X166964Y245706D01*
X166970Y245819D01*
X166972Y245932D01*
X166970Y246045D01*
X166964Y246158D01*
X166954Y246271D01*
X166940Y246384D01*
X166923Y246496D01*
X166901Y246607D01*
X166876Y246717D01*
X166846Y246827D01*
X166813Y246935D01*
X166776Y247042D01*
X166736Y247148D01*
X166691Y247252D01*
X166643Y247355D01*
X166592Y247456D01*
X166537Y247555D01*
X166479Y247652D01*
X166417Y247747D01*
X166352Y247840D01*
X166284Y247930D01*
X166213Y248018D01*
X166138Y248104D01*
X166061Y248187D01*
X165981Y248267D01*
X165898Y248344D01*
X165812Y248419D01*
X165724Y248490D01*
X165634Y248558D01*
X165541Y248623D01*
X165446Y248685D01*
X165349Y248743D01*
X165250Y248798D01*
X165149Y248849D01*
X165046Y248897D01*
X164942Y248942D01*
X164836Y248982D01*
X164729Y249019D01*
X164621Y249052D01*
X164511Y249082D01*
X164401Y249107D01*
X164290Y249129D01*
X164178Y249146D01*
X164065Y249160D01*
X163952Y249170D01*
X163839Y249176D01*
X163726Y249178D01*
X163726Y249177D02*
X155288Y249177D01*
X168270Y254003D02*
X168270Y259196D01*
X158209Y270132D02*
X158102Y270130D01*
X157996Y270124D01*
X157890Y270114D01*
X157784Y270101D01*
X157678Y270083D01*
X157574Y270062D01*
X157470Y270037D01*
X157367Y270008D01*
X157266Y269976D01*
X157166Y269939D01*
X157067Y269899D01*
X156969Y269856D01*
X156873Y269809D01*
X156779Y269758D01*
X156687Y269704D01*
X156597Y269647D01*
X156509Y269587D01*
X156424Y269523D01*
X156341Y269456D01*
X156260Y269386D01*
X156182Y269314D01*
X156106Y269238D01*
X156034Y269160D01*
X155964Y269079D01*
X155897Y268996D01*
X155833Y268911D01*
X155773Y268823D01*
X155716Y268733D01*
X155662Y268641D01*
X155611Y268547D01*
X155564Y268451D01*
X155521Y268353D01*
X155481Y268254D01*
X155444Y268154D01*
X155412Y268053D01*
X155383Y267950D01*
X155358Y267846D01*
X155337Y267742D01*
X155319Y267636D01*
X155306Y267530D01*
X155296Y267424D01*
X155290Y267318D01*
X155288Y267211D01*
X155290Y267090D01*
X155296Y266969D01*
X155306Y266849D01*
X155319Y266728D01*
X155337Y266609D01*
X155358Y266489D01*
X155383Y266371D01*
X155412Y266254D01*
X155445Y266137D01*
X155481Y266022D01*
X155522Y265908D01*
X155565Y265795D01*
X155613Y265683D01*
X155664Y265574D01*
X155719Y265466D01*
X155777Y265359D01*
X155838Y265255D01*
X155903Y265153D01*
X155971Y265053D01*
X156042Y264955D01*
X156116Y264859D01*
X156193Y264766D01*
X156274Y264676D01*
X156357Y264588D01*
X156443Y264503D01*
X156532Y264420D01*
X156623Y264341D01*
X156717Y264264D01*
X156813Y264191D01*
X156911Y264121D01*
X157012Y264054D01*
X157115Y263990D01*
X157220Y263930D01*
X157327Y263872D01*
X157435Y263819D01*
X157545Y263769D01*
X157657Y263723D01*
X157770Y263680D01*
X157885Y263641D01*
X160481Y269158D02*
X160403Y269237D01*
X160323Y269313D01*
X160240Y269386D01*
X160154Y269456D01*
X160067Y269523D01*
X159976Y269587D01*
X159884Y269647D01*
X159790Y269705D01*
X159693Y269759D01*
X159595Y269809D01*
X159495Y269856D01*
X159394Y269900D01*
X159291Y269940D01*
X159186Y269976D01*
X159081Y270008D01*
X158974Y270037D01*
X158867Y270062D01*
X158758Y270084D01*
X158649Y270101D01*
X158540Y270115D01*
X158430Y270124D01*
X158319Y270130D01*
X158209Y270132D01*
X160481Y269158D02*
X166972Y263641D01*
X166972Y270132D01*
X168270Y274577D02*
X168270Y279770D01*
X166972Y285175D02*
X155288Y285175D01*
X166972Y283876D02*
X166972Y286473D01*
X155288Y286473D02*
X155288Y283876D01*
X155288Y291567D02*
X166972Y291567D01*
X161779Y295462D02*
X155288Y291567D01*
X161779Y295462D02*
X155288Y299356D01*
X166972Y299356D01*
X163726Y305170D02*
X155288Y305170D01*
X163726Y305169D02*
X163839Y305171D01*
X163952Y305177D01*
X164065Y305187D01*
X164178Y305201D01*
X164290Y305218D01*
X164401Y305240D01*
X164511Y305265D01*
X164621Y305295D01*
X164729Y305328D01*
X164836Y305365D01*
X164942Y305405D01*
X165046Y305450D01*
X165149Y305498D01*
X165250Y305549D01*
X165349Y305604D01*
X165446Y305662D01*
X165541Y305724D01*
X165634Y305789D01*
X165724Y305857D01*
X165812Y305928D01*
X165898Y306003D01*
X165981Y306080D01*
X166061Y306160D01*
X166138Y306243D01*
X166213Y306329D01*
X166284Y306417D01*
X166352Y306507D01*
X166417Y306600D01*
X166479Y306695D01*
X166537Y306792D01*
X166592Y306891D01*
X166643Y306992D01*
X166691Y307095D01*
X166736Y307199D01*
X166776Y307305D01*
X166813Y307412D01*
X166846Y307520D01*
X166876Y307630D01*
X166901Y307740D01*
X166923Y307851D01*
X166940Y307963D01*
X166954Y308076D01*
X166964Y308189D01*
X166970Y308302D01*
X166972Y308415D01*
X166970Y308528D01*
X166964Y308641D01*
X166954Y308754D01*
X166940Y308867D01*
X166923Y308979D01*
X166901Y309090D01*
X166876Y309200D01*
X166846Y309310D01*
X166813Y309418D01*
X166776Y309525D01*
X166736Y309631D01*
X166691Y309735D01*
X166643Y309838D01*
X166592Y309939D01*
X166537Y310038D01*
X166479Y310135D01*
X166417Y310230D01*
X166352Y310323D01*
X166284Y310413D01*
X166213Y310501D01*
X166138Y310587D01*
X166061Y310670D01*
X165981Y310750D01*
X165898Y310827D01*
X165812Y310902D01*
X165724Y310973D01*
X165634Y311041D01*
X165541Y311106D01*
X165446Y311168D01*
X165349Y311226D01*
X165250Y311281D01*
X165149Y311332D01*
X165046Y311380D01*
X164942Y311425D01*
X164836Y311465D01*
X164729Y311502D01*
X164621Y311535D01*
X164511Y311565D01*
X164401Y311590D01*
X164290Y311612D01*
X164178Y311629D01*
X164065Y311643D01*
X163952Y311653D01*
X163839Y311659D01*
X163726Y311661D01*
X155288Y311661D01*
X155288Y320551D02*
X155290Y320658D01*
X155296Y320764D01*
X155306Y320870D01*
X155319Y320976D01*
X155337Y321082D01*
X155358Y321186D01*
X155383Y321290D01*
X155412Y321393D01*
X155444Y321494D01*
X155481Y321594D01*
X155521Y321693D01*
X155564Y321791D01*
X155611Y321887D01*
X155662Y321981D01*
X155716Y322073D01*
X155773Y322163D01*
X155833Y322251D01*
X155897Y322336D01*
X155964Y322419D01*
X156034Y322500D01*
X156106Y322578D01*
X156182Y322654D01*
X156260Y322726D01*
X156341Y322796D01*
X156424Y322863D01*
X156509Y322927D01*
X156597Y322987D01*
X156687Y323044D01*
X156779Y323098D01*
X156873Y323149D01*
X156969Y323196D01*
X157067Y323239D01*
X157166Y323279D01*
X157266Y323316D01*
X157367Y323348D01*
X157470Y323377D01*
X157574Y323402D01*
X157678Y323423D01*
X157784Y323441D01*
X157890Y323454D01*
X157996Y323464D01*
X158102Y323470D01*
X158209Y323472D01*
X155288Y320551D02*
X155290Y320430D01*
X155296Y320309D01*
X155306Y320189D01*
X155319Y320068D01*
X155337Y319949D01*
X155358Y319829D01*
X155383Y319711D01*
X155412Y319594D01*
X155445Y319477D01*
X155481Y319362D01*
X155522Y319248D01*
X155565Y319135D01*
X155613Y319023D01*
X155664Y318914D01*
X155719Y318806D01*
X155777Y318699D01*
X155838Y318595D01*
X155903Y318493D01*
X155971Y318393D01*
X156042Y318295D01*
X156116Y318199D01*
X156193Y318106D01*
X156274Y318016D01*
X156357Y317928D01*
X156443Y317843D01*
X156532Y317760D01*
X156623Y317681D01*
X156717Y317604D01*
X156813Y317531D01*
X156911Y317461D01*
X157012Y317394D01*
X157115Y317330D01*
X157220Y317270D01*
X157327Y317212D01*
X157435Y317159D01*
X157545Y317109D01*
X157657Y317063D01*
X157770Y317020D01*
X157885Y316981D01*
X160481Y322498D02*
X160403Y322577D01*
X160323Y322653D01*
X160240Y322726D01*
X160154Y322796D01*
X160067Y322863D01*
X159976Y322927D01*
X159884Y322987D01*
X159790Y323045D01*
X159693Y323099D01*
X159595Y323149D01*
X159495Y323196D01*
X159394Y323240D01*
X159291Y323280D01*
X159186Y323316D01*
X159081Y323348D01*
X158974Y323377D01*
X158867Y323402D01*
X158758Y323424D01*
X158649Y323441D01*
X158540Y323455D01*
X158430Y323464D01*
X158319Y323470D01*
X158209Y323472D01*
X160481Y322498D02*
X166972Y316981D01*
X166972Y323472D01*
M02*
